<svg xmlns="http://www.w3.org/2000/svg" id="canvas" viewBox="247.451 332.756 1292.367 265.566"><path d="M 332.25,393.83 C 331.14 395.10, 331.23 396.66, 330.53 400.60 C 329.84 404.54, 329.92 407.03, 328.78 413.51 C 327.65 419.99, 326.87 424.34, 324.85 433.00 C 322.82 441.66, 321.54 446.76, 318.66 456.81 C 315.78 466.85, 313.87 472.53, 310.45 483.22 C 307.03 493.91, 305.00 499.82, 301.57 510.25 C 298.13 520.67, 296.26 526.15, 293.26 535.34 C 290.27 544.52, 288.83 549.12, 286.59 556.17 C 284.35 563.22, 283.04 566.27, 282.08 570.59 C 281.11 574.90, 280.95 576.46, 281.79 577.72 C 282.62 578.98, 284.94 579.15, 286.26 576.89 C 287.57 574.62, 287.41 572.21, 288.37 566.40 C 289.33 560.59, 289.75 556.44, 291.04 547.85 C 292.34 539.25, 293.07 533.87, 294.86 523.44 C 296.65 513.01, 297.72 507.07, 300.00 495.68 C 302.27 484.29, 303.58 478.09, 306.25 466.48 C 308.91 454.88, 310.33 448.81, 313.31 437.64 C 316.29 426.47, 317.86 420.81, 321.15 410.63 C 324.44 400.45, 326.17 395.44, 329.76 386.72 C 333.35 378.00, 335.21 373.90, 339.10 367.04 C 342.99 360.18, 345.04 357.14, 349.21 352.43 C 353.38 347.72, 355.54 345.91, 359.95 343.50 C 364.36 341.10, 366.53 340.53, 371.25 340.40 C 375.96 340.26, 378.42 340.77, 383.53 342.82 C 388.65 344.87, 391.52 346.53, 396.81 350.64 C 402.11 354.76, 405.02 357.49, 409.99 363.39 C 414.95 369.30, 417.54 372.85, 421.64 380.17 C 425.73 387.49, 427.75 391.60, 430.46 399.99 C 433.17 408.39, 434.39 412.98, 435.20 422.12 C 436.01 431.27, 435.99 436.09, 434.51 445.71 C 433.03 455.34, 431.67 460.39, 427.78 470.24 C 423.89 480.09, 421.29 485.24, 415.06 494.98 C 408.83 504.72, 404.93 509.68, 396.63 518.94 C 388.34 528.20, 383.39 532.86, 373.59 541.27 C 363.80 549.67, 358.14 553.92, 347.64 560.95 C 337.14 567.99, 331.31 571.33, 321.08 576.46 C 310.85 581.60, 305.47 583.73, 296.49 586.62 C 287.50 589.51, 282.99 590.33, 276.16 590.91 C 269.33 591.49, 266.33 590.91, 262.34 589.53 C 258.36 588.15, 257.45 586.95, 256.24 583.99 C 255.02 581.04, 254.90 579.21, 256.28 574.77 C 257.66 570.33, 259.07 567.25, 263.14 561.81 C 267.21 556.36, 270.22 553.07, 276.64 547.56 C 283.06 542.04, 287.11 539.13, 295.26 534.24 C 303.41 529.34, 308.15 527.06, 317.41 523.09 C 326.66 519.13, 331.75 517.47, 341.52 514.41 C 351.28 511.35, 356.40 510.16, 366.23 507.80 C 376.05 505.44, 381.08 504.58, 390.62 502.61 C 400.15 500.65, 404.94 499.92, 413.91 498.00 C 422.88 496.08, 427.33 495.17, 435.47 493.03 C 443.61 490.90, 447.61 489.76, 454.62 487.32 C 461.64 484.87, 464.97 483.54, 470.54 480.82 C 476.12 478.10, 478.58 476.58, 482.48 473.70 C 486.38 470.82, 488.22 469.52, 490.05 466.41 C 491.88 463.30, 492.17 461.18, 491.62 458.14 C 491.08 455.10, 489.98 453.03, 487.32 451.21 C 484.66 449.38, 482.34 448.76, 478.32 449.01 C 474.29 449.27, 471.93 450.21, 467.18 452.47 C 462.44 454.73, 459.72 456.38, 454.60 460.30 C 449.48 464.21, 446.58 466.78, 441.59 472.04 C 436.60 477.29, 433.83 480.56, 429.65 486.56 C 425.46 492.56, 423.32 495.97, 420.66 502.02 C 417.99 508.08, 416.88 511.31, 416.32 516.84 C 415.76 522.37, 415.92 525.31, 417.87 529.66 C 419.82 534.01, 421.71 536.16, 426.08 538.59 C 430.44 541.02, 433.47 541.59, 439.71 541.82 C 445.95 542.05, 449.67 541.48, 457.26 539.73 C 464.86 537.97, 469.15 536.43, 477.68 533.05 C 486.22 529.68, 491.00 527.38, 499.94 522.87 C 508.87 518.35, 513.74 515.58, 522.35 510.50 C 530.97 505.42, 535.42 502.46, 543.01 497.49 C 550.61 492.52, 554.33 489.87, 560.32 485.66 C 566.32 481.45, 569.03 479.57, 572.99 476.44 C 576.94 473.31, 578.77 472.39, 580.11 469.99 C 581.45 467.60, 580.92 466.09, 579.67 464.45 C 578.42 462.81, 576.63 461.63, 573.85 461.79 C 571.07 461.95, 569.22 463.03, 565.77 465.24 C 562.33 467.46, 560.49 469.33, 556.63 472.87 C 552.76 476.41, 550.50 478.56, 546.44 482.96 C 542.38 487.36, 540.05 490.00, 536.32 494.87 C 532.59 499.74, 530.66 502.51, 527.81 507.30 C 524.97 512.10, 523.59 514.54, 522.10 518.82 C 520.61 523.10, 519.75 525.30, 520.36 528.71 C 520.97 532.12, 522.42 534.07, 525.15 535.88 C 527.88 537.70, 530.16 538.29, 534.00 537.79 C 537.84 537.28, 539.99 535.91, 544.35 533.34 C 548.71 530.78, 551.07 528.90, 555.81 524.97 C 560.55 521.04, 563.21 518.57, 568.05 513.70 C 572.89 508.83, 575.60 505.86, 580.00 500.62 C 584.40 495.38, 586.60 492.42, 590.05 487.50 C 593.50 482.58, 595.64 479.87, 597.24 476.03 C 598.83 472.18, 599.04 470.12, 598.04 468.28 C 597.05 466.44, 594.66 465.75, 592.26 466.81 C 589.86 467.87, 588.39 469.89, 586.05 473.57 C 583.70 477.24, 582.39 480.31, 580.54 485.18 C 578.69 490.05, 577.68 493.06, 576.79 497.94 C 575.91 502.81, 575.40 505.39, 576.13 509.55 C 576.86 513.70, 577.68 515.99, 580.44 518.72 C 583.21 521.45, 585.57 522.44, 589.94 523.21 C 594.30 523.97, 596.93 523.62, 602.28 522.53 C 607.63 521.44, 610.67 520.27, 616.69 517.76 C 622.71 515.25, 626.14 513.42, 632.38 509.98 C 638.63 506.53, 642.05 504.25, 647.92 500.53 C 653.79 496.81, 656.86 494.54, 661.73 491.37 C 666.59 488.21, 669.47 486.76, 672.23 484.72 C 674.98 482.69, 675.49 481.65, 675.52 481.22 C 675.55 480.78, 673.83 480.69, 672.39 482.54 C 670.96 484.39, 670.32 486.62, 668.36 490.47 C 666.39 494.32, 664.88 497.33, 662.57 501.79 C 660.26 506.26, 658.57 508.88, 656.81 512.79 C 655.04 516.71, 653.69 518.58, 653.75 521.37 C 653.81 524.16, 655.05 525.77, 657.13 526.75 C 659.21 527.73, 661.27 527.99, 664.15 526.27 C 667.04 524.55, 668.16 522.02, 671.56 518.15 C 674.96 514.27, 677.03 511.55, 681.15 506.90 C 685.26 502.24, 687.69 499.43, 692.14 494.87 C 696.58 490.30, 699.06 487.86, 703.37 484.09 C 707.69 480.33, 709.89 478.59, 713.70 476.04 C 717.51 473.49, 719.23 472.60, 722.44 471.32 C 725.65 470.04, 726.74 469.94, 729.73 469.66 C 732.72 469.37, 734.41 469.61, 737.39 469.89 C 740.37 470.18, 742.04 470.97, 744.63 471.09 C 747.21 471.21, 748.37 470.92, 750.31 470.49 C 752.24 470.05, 753.44 469.89, 754.32 468.92 C 755.20 467.95, 755.35 466.80, 754.71 465.64 C 754.07 464.49, 752.96 464.02, 751.12 463.17 C 749.28 462.31, 748.24 461.74, 745.51 461.37 C 742.77 461.01, 740.86 461.10, 737.45 461.35 C 734.04 461.59, 731.98 461.71, 728.47 462.59 C 724.96 463.46, 723.47 463.91, 719.89 465.72 C 716.31 467.53, 714.54 468.70, 710.59 471.65 C 706.63 474.59, 704.51 476.48, 700.13 480.43 C 695.74 484.38, 693.28 486.89, 688.67 491.41 C 684.07 495.94, 681.52 498.70, 677.10 503.07 C 672.67 507.44, 670.20 509.91, 666.55 513.27 C 662.90 516.62, 660.63 517.72, 658.85 519.85 C 657.07 521.98, 657.38 523.28, 657.67 523.92 C 657.95 524.56, 659.10 524.63, 660.29 523.04 C 661.47 521.46, 661.83 519.56, 663.59 516.00 C 665.36 512.44, 666.77 509.64, 669.12 505.24 C 671.48 500.84, 673.35 498.09, 675.38 494.00 C 677.41 489.91, 679.09 487.89, 679.28 484.80 C 679.46 481.70, 678.36 479.60, 676.32 478.55 C 674.28 477.49, 672.54 477.75, 669.06 479.50 C 665.58 481.26, 663.62 483.85, 658.91 487.32 C 654.21 490.79, 651.28 493.10, 645.55 496.85 C 639.82 500.59, 636.40 502.80, 630.26 506.06 C 624.13 509.32, 620.67 510.99, 614.87 513.14 C 609.07 515.29, 606.02 516.10, 601.26 516.83 C 596.50 517.55, 594.29 517.36, 591.08 516.77 C 587.87 516.18, 586.89 515.54, 585.22 513.89 C 583.54 512.24, 583.08 511.44, 582.71 508.52 C 582.33 505.60, 582.38 503.37, 583.34 499.28 C 584.30 495.19, 585.54 492.38, 587.50 488.07 C 589.46 483.75, 591.34 481.15, 593.14 477.69 C 594.94 474.24, 596.15 472.67, 596.51 470.79 C 596.86 468.92, 595.89 467.80, 594.92 468.31 C 593.95 468.82, 593.44 470.07, 591.64 473.36 C 589.84 476.66, 588.94 479.90, 585.93 484.77 C 582.91 489.65, 580.77 492.63, 576.54 497.74 C 572.31 502.86, 569.58 505.76, 564.77 510.36 C 559.96 514.95, 557.20 517.29, 552.50 520.72 C 547.79 524.16, 545.20 525.64, 541.24 527.53 C 537.28 529.42, 535.27 529.57, 532.70 530.16 C 530.14 530.74, 529.50 530.91, 528.42 530.44 C 527.33 529.97, 527.37 529.74, 527.27 527.79 C 527.17 525.84, 526.88 524.26, 527.92 520.69 C 528.95 517.13, 529.95 514.49, 532.44 509.95 C 534.93 505.41, 536.79 502.62, 540.38 497.99 C 543.96 493.35, 546.28 490.76, 550.37 486.77 C 554.45 482.77, 556.83 480.83, 560.80 478.01 C 564.77 475.19, 567.10 474.39, 570.22 472.67 C 573.34 470.95, 574.85 470.72, 576.41 469.42 C 577.97 468.13, 578.15 466.78, 578.01 466.20 C 577.87 465.61, 577.33 465.17, 575.71 466.50 C 574.09 467.83, 573.41 469.58, 569.90 472.83 C 566.40 476.08, 563.90 478.32, 558.17 482.74 C 552.45 487.15, 548.75 489.84, 541.28 494.88 C 533.82 499.92, 529.38 502.89, 520.84 507.94 C 512.30 512.98, 507.44 515.73, 498.56 520.11 C 489.69 524.50, 484.88 526.72, 476.45 529.86 C 468.02 532.99, 463.72 534.35, 456.42 535.80 C 449.12 537.25, 445.51 537.46, 439.94 537.11 C 434.37 536.77, 432.06 535.97, 428.58 534.06 C 425.11 532.15, 424.07 530.91, 422.56 527.56 C 421.06 524.20, 420.63 522.05, 421.05 517.29 C 421.47 512.53, 422.24 509.42, 424.66 503.76 C 427.07 498.09, 429.08 494.70, 433.11 488.98 C 437.13 483.26, 439.88 480.05, 444.78 475.15 C 449.68 470.24, 452.63 467.82, 457.60 464.47 C 462.58 461.12, 465.41 459.87, 469.65 458.39 C 473.89 456.90, 475.97 457.17, 478.78 457.03 C 481.60 456.88, 482.37 457.24, 483.71 457.65 C 485.05 458.07, 485.39 458.05, 485.49 459.11 C 485.60 460.18, 485.50 460.86, 484.23 462.96 C 482.97 465.07, 482.30 466.80, 479.17 469.62 C 476.04 472.44, 473.74 474.20, 468.59 477.07 C 463.43 479.93, 460.18 481.36, 453.39 483.93 C 446.60 486.50, 442.66 487.70, 434.63 489.93 C 426.61 492.16, 422.19 493.11, 413.27 495.10 C 404.35 497.08, 399.58 497.84, 390.04 499.84 C 380.50 501.85, 375.45 502.73, 365.58 505.12 C 355.71 507.50, 350.55 508.70, 340.69 511.76 C 330.83 514.83, 325.68 516.48, 316.28 520.43 C 306.87 524.38, 302.05 526.65, 293.66 531.52 C 285.26 536.38, 281.09 539.22, 274.30 544.75 C 267.51 550.28, 264.24 553.43, 259.70 559.16 C 255.17 564.88, 253.19 568.02, 251.63 573.37 C 250.06 578.73, 249.98 581.92, 251.86 585.93 C 253.74 589.95, 256.08 591.79, 261.01 593.45 C 265.93 595.11, 269.23 595.08, 276.50 594.24 C 283.77 593.39, 288.22 592.35, 297.35 589.22 C 306.49 586.09, 311.86 583.89, 322.17 578.61 C 332.48 573.33, 338.33 569.96, 348.90 562.83 C 359.48 555.70, 365.16 551.44, 375.05 542.97 C 384.94 534.50, 389.94 529.82, 398.36 520.49 C 406.77 511.16, 410.76 506.17, 417.13 496.31 C 423.51 486.46, 426.20 481.25, 430.23 471.21 C 434.26 461.18, 435.70 456.02, 437.29 446.15 C 438.88 436.28, 438.94 431.30, 438.18 421.87 C 437.43 412.45, 436.21 407.70, 433.50 399.03 C 430.79 390.36, 428.77 386.12, 424.65 378.51 C 420.53 370.90, 417.96 367.21, 412.92 360.98 C 407.88 354.74, 404.98 351.81, 399.44 347.33 C 393.91 342.85, 390.92 340.89, 385.25 338.59 C 379.57 336.28, 376.55 335.56, 371.08 335.80 C 365.60 336.03, 362.80 336.94, 357.86 339.78 C 352.92 342.62, 350.71 344.86, 346.40 350.00 C 342.09 355.15, 340.16 358.36, 336.31 365.50 C 332.47 372.63, 330.68 376.80, 327.16 385.67 C 323.64 394.54, 321.96 399.58, 318.71 409.85 C 315.47 420.12, 313.92 425.80, 310.95 437.01 C 307.98 448.23, 306.56 454.30, 303.85 465.93 C 301.15 477.56, 299.82 483.76, 297.42 495.15 C 295.01 506.54, 293.91 512.48, 291.83 522.88 C 289.74 533.27, 288.77 538.62, 286.99 547.12 C 285.22 555.61, 284.23 559.65, 282.96 565.35 C 281.69 571.05, 280.43 573.04, 280.64 575.60 C 280.85 578.16, 282.80 578.91, 284.01 578.14 C 285.23 577.38, 285.55 575.96, 286.73 571.76 C 287.92 567.56, 288.10 564.25, 289.96 557.14 C 291.81 550.03, 293.19 545.42, 296.02 536.21 C 298.85 527.00, 300.71 521.51, 304.11 511.08 C 307.51 500.65, 309.54 494.74, 313.04 484.06 C 316.53 473.37, 318.48 467.70, 321.57 457.67 C 324.66 447.65, 326.09 442.56, 328.47 433.93 C 330.85 425.29, 331.92 420.98, 333.49 414.49 C 335.06 408.00, 335.81 405.53, 336.32 401.47 C 336.84 397.42, 336.87 395.75, 336.06 394.22 C 335.24 392.69, 333.35 392.55, 332.25 393.83" style="stroke: black; fill: black;"/><path d="M 982.13,403.34 C 980.79 403.25, 979.85 402.92, 977.89 404.99 C 975.93 407.05, 975.56 408.88, 972.31 413.66 C 969.06 418.44, 966.99 421.69, 961.65 428.87 C 956.31 436.06, 952.82 440.63, 945.61 449.58 C 938.40 458.53, 933.90 463.84, 925.62 473.62 C 917.35 483.40, 912.58 488.95, 904.23 498.50 C 895.89 508.04, 891.43 513.12, 883.91 521.34 C 876.38 529.56, 872.61 533.62, 866.60 539.60 C 860.60 545.58, 857.66 548.06, 853.87 551.23 C 850.08 554.39, 849.16 555.12, 847.66 555.43 C 846.16 555.75, 847.00 553.11, 846.37 552.81 C 845.75 552.51, 844.23 552.72, 844.53 553.93 C 844.83 555.15, 845.49 558.80, 847.87 558.87 C 850.25 558.95, 852.25 557.75, 856.43 554.31 C 860.61 550.88, 862.90 547.96, 868.77 541.70 C 874.64 535.44, 878.32 531.36, 885.77 523.03 C 893.22 514.70, 897.67 509.61, 906.02 500.05 C 914.36 490.49, 919.14 484.96, 927.51 475.23 C 935.87 465.50, 940.42 460.22, 947.85 451.42 C 955.28 442.63, 958.90 438.13, 964.66 431.25 C 970.42 424.37, 972.83 421.35, 976.66 417.04 C 980.48 412.74, 982.18 412.06, 983.77 409.74 C 985.35 407.41, 984.91 406.70, 984.58 405.42 C 984.25 404.14, 983.47 403.43, 982.13 403.34" style="stroke: black; fill: black;"/><path d="M 954.08,404.40 C 956.06 404.38, 958.49 402.47, 959.87 400.97 C 961.25 399.46, 960.80 397.38, 960.99 396.88 C 961.19 396.38, 960.74 395.87, 960.84 398.48 C 960.94 401.09, 961.75 403.97, 961.50 409.91 C 961.25 415.85, 960.54 420.28, 959.60 428.17 C 958.66 436.06, 957.93 440.79, 956.79 449.37 C 955.64 457.94, 954.86 462.63, 953.88 471.06 C 952.90 479.49, 952.40 483.91, 951.90 491.51 C 951.41 499.12, 951.34 502.82, 951.42 509.07 C 951.51 515.32, 951.69 518.12, 952.34 522.77 C 952.99 527.42, 953.15 529.63, 954.67 532.31 C 956.18 534.99, 957.98 535.43, 959.90 536.18 C 961.83 536.94, 963.09 536.58, 964.31 536.07 C 965.54 535.56, 966.16 534.50, 966.03 533.62 C 965.90 532.74, 964.27 531.97, 963.66 531.66 C 963.05 531.36, 963.19 532.14, 962.99 532.11 C 962.78 532.08, 963.07 532.13, 962.63 531.50 C 962.19 530.87, 961.80 530.92, 960.79 528.97 C 959.78 527.03, 958.61 525.77, 957.58 521.76 C 956.55 517.74, 956.05 514.91, 955.64 508.90 C 955.24 502.89, 955.22 499.20, 955.56 491.72 C 955.90 484.23, 956.36 479.82, 957.33 471.46 C 958.30 463.09, 959.09 458.42, 960.41 449.89 C 961.73 441.35, 962.62 436.69, 963.94 428.79 C 965.26 420.89, 966.21 416.71, 967.00 410.37 C 967.79 404.04, 969.00 400.88, 967.87 397.12 C 966.74 393.36, 964.32 392.27, 961.34 391.56 C 958.37 390.86, 955.27 391.68, 952.99 393.58 C 950.71 395.49, 949.74 398.92, 949.96 401.09 C 950.18 403.25, 952.10 404.43, 954.08 404.40" style="stroke: black; fill: black;"/><path d="M 907.16,489.62 C 908.18 490.68, 909.09 491.47, 911.80 491.38 C 914.50 491.28, 916.16 490.31, 920.68 489.15 C 925.20 487.98, 928.27 487.14, 934.40 485.56 C 940.54 483.97, 944.32 483.03, 951.36 481.21 C 958.39 479.39, 962.40 478.26, 969.59 476.45 C 976.78 474.63, 980.57 473.59, 987.31 472.13 C 994.05 470.68, 997.53 469.95, 1003.27 469.16 C 1009.01 468.37, 1012.14 468.01, 1016.01 468.19 C 1019.88 468.36, 1020.98 468.85, 1022.62 470.05 C 1024.26 471.24, 1024.17 471.53, 1024.18 474.16 C 1024.20 476.79, 1023.88 478.89, 1022.69 483.18 C 1021.50 487.48, 1020.22 490.59, 1018.22 495.64 C 1016.23 500.68, 1014.67 503.77, 1012.73 508.41 C 1010.79 513.05, 1009.01 515.26, 1008.54 518.84 C 1008.08 522.41, 1008.59 524.41, 1010.42 526.30 C 1012.24 528.19, 1014.42 529.24, 1017.67 528.30 C 1020.92 527.36, 1022.41 525.06, 1026.66 521.60 C 1030.91 518.14, 1033.55 515.57, 1038.93 511.00 C 1044.31 506.44, 1047.69 503.45, 1053.56 498.77 C 1059.43 494.10, 1062.80 491.37, 1068.28 487.63 C 1073.75 483.89, 1076.78 482.10, 1080.92 480.08 C 1085.06 478.06, 1087.01 478.00, 1088.98 477.53 C 1090.95 477.06, 1090.69 476.71, 1090.76 477.72 C 1090.83 478.74, 1090.16 479.77, 1089.32 482.61 C 1088.48 485.44, 1087.92 487.88, 1086.58 491.89 C 1085.24 495.91, 1084.05 498.61, 1082.61 502.70 C 1081.17 506.79, 1079.50 508.93, 1079.40 512.35 C 1079.29 515.78, 1080.07 517.81, 1082.11 519.80 C 1084.14 521.79, 1086.15 522.90, 1089.56 522.32 C 1092.97 521.73, 1094.72 519.76, 1099.17 516.88 C 1103.63 513.99, 1106.35 511.78, 1111.84 507.88 C 1117.33 503.98, 1120.67 501.40, 1126.63 497.38 C 1132.58 493.35, 1136.07 490.95, 1141.63 487.74 C 1147.18 484.53, 1150.49 483.03, 1154.39 481.34 C 1158.30 479.65, 1159.77 479.52, 1161.14 479.28 C 1162.52 479.05, 1161.77 478.80, 1161.26 480.18 C 1160.75 481.55, 1159.80 482.98, 1158.57 486.15 C 1157.35 489.32, 1156.33 491.90, 1155.12 496.04 C 1153.90 500.17, 1152.83 502.66, 1152.50 506.84 C 1152.16 511.02, 1151.76 513.63, 1153.43 516.92 C 1155.09 520.22, 1157.08 522.06, 1160.83 523.32 C 1164.58 524.58, 1167.00 524.16, 1172.18 523.24 C 1177.36 522.32, 1180.27 521.21, 1186.72 518.72 C 1193.17 516.22, 1196.96 514.34, 1204.41 510.75 C 1211.86 507.16, 1216.17 504.84, 1223.97 500.77 C 1231.76 496.71, 1236.05 494.30, 1243.40 490.42 C 1250.74 486.54, 1254.56 484.45, 1260.69 481.37 C 1266.82 478.29, 1269.77 477.02, 1274.05 475.02 C 1278.33 473.01, 1280.25 472.86, 1282.08 471.34 C 1283.91 469.83, 1283.81 468.70, 1283.19 467.43 C 1282.58 466.17, 1281.25 465.09, 1279.01 465.01 C 1276.77 464.93, 1275.10 465.41, 1271.99 467.02 C 1268.89 468.63, 1267.33 470.30, 1263.48 473.07 C 1259.64 475.84, 1257.23 477.46, 1252.77 480.86 C 1248.32 484.26, 1245.64 486.19, 1241.22 490.06 C 1236.79 493.93, 1234.42 496.22, 1230.63 500.22 C 1226.83 504.21, 1224.87 506.28, 1222.23 510.05 C 1219.59 513.81, 1218.01 515.62, 1217.42 519.03 C 1216.84 522.43, 1217.55 524.54, 1219.31 527.07 C 1221.06 529.59, 1222.88 531.12, 1226.18 531.66 C 1229.49 532.21, 1231.69 531.37, 1235.84 529.79 C 1239.99 528.20, 1242.22 526.74, 1246.95 523.74 C 1251.68 520.74, 1254.35 518.74, 1259.49 514.79 C 1264.62 510.83, 1267.53 508.36, 1272.62 503.96 C 1277.70 499.56, 1280.49 496.98, 1284.90 492.77 C 1289.31 488.56, 1292.13 486.22, 1294.67 482.90 C 1297.21 479.58, 1297.96 477.81, 1297.58 476.16 C 1297.21 474.51, 1295.06 473.67, 1292.80 474.65 C 1290.54 475.64, 1288.97 477.62, 1286.27 481.10 C 1283.57 484.57, 1281.65 487.54, 1279.31 492.03 C 1276.96 496.53, 1275.59 499.27, 1274.55 503.56 C 1273.50 507.85, 1272.99 510.12, 1274.07 513.49 C 1275.15 516.86, 1276.69 518.96, 1279.97 520.43 C 1283.25 521.90, 1285.72 521.63, 1290.46 520.83 C 1295.20 520.02, 1297.87 518.86, 1303.67 516.39 C 1309.48 513.92, 1312.85 512.05, 1319.49 508.48 C 1326.14 504.91, 1330.07 502.48, 1336.88 498.53 C 1343.69 494.58, 1347.47 492.13, 1353.54 488.73 C 1359.61 485.34, 1363.15 483.62, 1367.22 481.58 C 1371.29 479.53, 1372.87 479.05, 1373.88 478.53 C 1374.88 478.01, 1373.49 477.53, 1372.24 478.96 C 1371.00 480.39, 1369.98 482.27, 1367.66 485.70 C 1365.33 489.13, 1363.43 491.98, 1360.60 496.12 C 1357.78 500.25, 1355.60 502.63, 1353.55 506.38 C 1351.50 510.13, 1350.20 512.05, 1350.35 514.87 C 1350.50 517.70, 1351.84 519.67, 1354.31 520.51 C 1356.78 521.35, 1358.62 520.84, 1362.68 519.08 C 1366.74 517.32, 1369.07 515.11, 1374.61 511.71 C 1380.15 508.31, 1383.74 505.88, 1390.39 502.07 C 1397.04 498.27, 1401.10 495.92, 1407.84 492.67 C 1414.57 489.42, 1418.37 487.71, 1424.08 485.82 C 1429.80 483.93, 1432.87 483.63, 1436.41 483.23 C 1439.95 482.83, 1440.81 483.10, 1441.77 483.82 C 1442.73 484.55, 1441.79 484.80, 1441.20 486.86 C 1440.62 488.92, 1440.04 490.70, 1438.84 494.13 C 1437.65 497.57, 1436.52 499.99, 1435.22 504.03 C 1433.92 508.06, 1432.86 510.34, 1432.35 514.32 C 1431.83 518.30, 1431.44 520.57, 1432.65 523.92 C 1433.87 527.27, 1435.29 529.29, 1438.43 531.07 C 1441.58 532.86, 1443.93 532.92, 1448.38 532.84 C 1452.83 532.76, 1455.35 532.07, 1460.70 530.66 C 1466.05 529.25, 1469.68 527.87, 1475.13 525.79 C 1480.59 523.72, 1483.74 522.37, 1487.96 520.29 C 1492.19 518.21, 1494.90 517.04, 1496.24 515.39 C 1497.59 513.74, 1496.78 512.09, 1494.68 512.05 C 1492.58 512.01, 1490.07 513.57, 1485.75 515.20 C 1481.44 516.83, 1478.40 518.34, 1473.09 520.21 C 1467.78 522.08, 1464.15 523.44, 1459.20 524.55 C 1454.25 525.67, 1451.77 525.83, 1448.34 525.79 C 1444.92 525.74, 1443.76 525.17, 1442.09 524.34 C 1440.42 523.51, 1440.36 523.39, 1439.98 521.63 C 1439.61 519.88, 1439.62 518.57, 1440.21 515.56 C 1440.80 512.55, 1441.63 510.36, 1442.93 506.58 C 1444.22 502.79, 1445.53 500.53, 1446.68 496.64 C 1447.82 492.76, 1449.02 490.54, 1448.65 487.15 C 1448.28 483.76, 1447.38 481.55, 1444.82 479.69 C 1442.27 477.82, 1440.33 477.45, 1435.88 477.83 C 1431.44 478.20, 1428.56 479.35, 1422.59 481.57 C 1416.62 483.79, 1412.90 485.62, 1406.03 488.93 C 1399.16 492.25, 1395.07 494.56, 1388.24 498.15 C 1381.41 501.74, 1377.58 503.93, 1371.88 506.88 C 1366.18 509.83, 1363.20 511.06, 1359.73 512.89 C 1356.27 514.72, 1355.30 515.35, 1354.55 516.02 C 1353.80 516.69, 1354.88 517.37, 1355.99 516.24 C 1357.10 515.11, 1357.92 513.56, 1360.10 510.39 C 1362.28 507.22, 1364.10 504.54, 1366.90 500.39 C 1369.71 496.24, 1371.93 493.61, 1374.12 489.64 C 1376.30 485.66, 1377.85 483.54, 1377.85 480.52 C 1377.84 477.51, 1376.68 475.28, 1374.10 474.55 C 1371.53 473.83, 1369.51 474.80, 1364.97 476.90 C 1360.43 478.99, 1357.41 481.40, 1351.39 485.03 C 1345.37 488.65, 1341.64 491.13, 1334.86 495.04 C 1328.08 498.95, 1324.10 501.29, 1317.48 504.58 C 1310.85 507.86, 1307.35 509.49, 1301.75 511.46 C 1296.16 513.43, 1293.34 513.94, 1289.50 514.43 C 1285.66 514.92, 1284.31 514.42, 1282.55 513.90 C 1280.78 513.38, 1280.87 513.47, 1280.68 511.82 C 1280.50 510.16, 1280.47 508.81, 1281.61 505.63 C 1282.75 502.45, 1284.10 499.87, 1286.39 495.92 C 1288.68 491.97, 1290.88 489.37, 1293.07 485.88 C 1295.27 482.40, 1296.91 480.74, 1297.36 478.50 C 1297.82 476.27, 1296.83 474.65, 1295.35 474.72 C 1293.86 474.79, 1292.75 475.95, 1289.95 478.85 C 1287.15 481.75, 1285.42 484.91, 1281.34 489.23 C 1277.26 493.54, 1274.53 496.13, 1269.56 500.43 C 1264.59 504.73, 1261.62 507.11, 1256.49 510.73 C 1251.37 514.35, 1248.56 516.13, 1243.94 518.52 C 1239.32 520.92, 1236.85 521.68, 1233.40 522.71 C 1229.95 523.75, 1228.56 523.48, 1226.69 523.70 C 1224.83 523.91, 1224.48 524.38, 1224.07 523.78 C 1223.66 523.17, 1223.98 522.75, 1224.65 520.68 C 1225.32 518.61, 1225.42 516.78, 1227.41 513.43 C 1229.41 510.08, 1231.18 507.79, 1234.64 503.93 C 1238.10 500.07, 1240.42 497.79, 1244.72 494.13 C 1249.03 490.48, 1251.67 488.61, 1256.17 485.65 C 1260.68 482.69, 1263.22 481.32, 1267.26 479.33 C 1271.30 477.35, 1273.43 477.18, 1276.39 475.73 C 1279.35 474.27, 1280.73 473.69, 1282.06 472.06 C 1283.39 470.43, 1283.58 468.76, 1283.05 467.58 C 1282.52 466.40, 1281.68 465.56, 1279.41 466.14 C 1277.14 466.72, 1275.82 468.15, 1271.70 470.49 C 1267.59 472.84, 1264.82 474.50, 1258.82 477.86 C 1252.83 481.22, 1249.02 483.34, 1241.72 487.29 C 1234.43 491.24, 1230.13 493.64, 1222.34 497.61 C 1214.54 501.59, 1210.19 503.85, 1202.75 507.17 C 1195.31 510.49, 1191.40 512.17, 1185.12 514.22 C 1178.83 516.27, 1175.74 516.91, 1171.32 517.41 C 1166.89 517.91, 1165.20 517.42, 1162.99 516.73 C 1160.78 516.05, 1160.80 515.75, 1160.27 513.97 C 1159.75 512.19, 1159.79 510.93, 1160.37 507.84 C 1160.96 504.75, 1161.94 502.41, 1163.20 498.53 C 1164.46 494.66, 1165.90 492.27, 1166.67 488.46 C 1167.43 484.66, 1168.03 482.35, 1167.02 479.50 C 1166.01 476.65, 1164.58 474.84, 1161.62 474.20 C 1158.66 473.57, 1156.71 474.40, 1152.23 476.31 C 1147.76 478.22, 1144.87 480.29, 1139.25 483.75 C 1133.62 487.21, 1130.18 489.64, 1124.12 493.60 C 1118.06 497.56, 1114.58 500.00, 1108.94 503.55 C 1103.30 507.09, 1100.23 509.03, 1095.90 511.31 C 1091.57 513.60, 1089.40 513.86, 1087.30 514.97 C 1085.21 516.07, 1085.36 517.07, 1085.43 516.85 C 1085.49 516.63, 1086.68 516.16, 1087.63 513.85 C 1088.57 511.54, 1088.82 509.18, 1090.14 505.30 C 1091.46 501.42, 1092.78 498.72, 1094.20 494.44 C 1095.63 490.15, 1097.02 487.72, 1097.26 483.89 C 1097.50 480.06, 1097.17 477.75, 1095.40 475.27 C 1093.63 472.80, 1091.77 471.46, 1088.39 471.50 C 1085.02 471.55, 1083.07 473.00, 1078.54 475.51 C 1074.01 478.01, 1071.28 480.05, 1065.75 484.02 C 1060.21 487.98, 1056.87 490.73, 1050.87 495.34 C 1044.88 499.95, 1041.36 502.81, 1035.77 507.07 C 1030.18 511.32, 1027.16 513.69, 1022.92 516.61 C 1018.67 519.53, 1016.46 520.16, 1014.54 521.65 C 1012.62 523.14, 1013.12 524.28, 1013.32 524.06 C 1013.52 523.85, 1014.47 523.22, 1015.55 520.56 C 1016.62 517.90, 1016.99 515.30, 1018.68 510.77 C 1020.38 506.24, 1021.97 503.10, 1024.02 497.93 C 1026.07 492.76, 1027.59 489.77, 1028.93 484.91 C 1030.27 480.05, 1031.24 477.60, 1030.72 473.63 C 1030.20 469.66, 1029.24 467.23, 1026.33 465.05 C 1023.42 462.87, 1020.93 462.83, 1016.17 462.75 C 1011.41 462.67, 1008.50 463.56, 1002.55 464.63 C 996.60 465.71, 993.20 466.55, 986.41 468.12 C 979.62 469.70, 975.83 470.75, 968.61 472.50 C 961.39 474.25, 957.39 475.33, 950.32 476.88 C 943.25 478.43, 939.46 479.17, 933.26 480.24 C 927.06 481.31, 923.90 481.63, 919.34 482.22 C 914.78 482.81, 912.98 482.43, 910.45 483.19 C 907.92 483.96, 907.35 484.78, 906.69 486.06 C 906.04 487.35, 906.14 488.56, 907.16 489.62" style="stroke: black; fill: black;"/><path d="M 1531.70,541.95 C 1530.50 542.39, 1530.26 542.60, 1529.16 544.59 C 1528.07 546.58, 1528.23 548.05, 1526.22 551.89 C 1524.21 555.73, 1522.81 558.64, 1519.13 563.80 C 1515.45 568.95, 1512.69 572.13, 1507.81 577.68 C 1502.94 583.23, 1496.78 588.20, 1494.74 591.54 C 1492.70 594.87, 1494.33 596.50, 1497.63 594.35 C 1500.93 592.20, 1506.06 586.23, 1511.22 580.79 C 1516.37 575.34, 1519.19 572.16, 1523.41 567.11 C 1527.64 562.07, 1529.69 559.51, 1532.35 555.54 C 1535.00 551.58, 1536.11 549.91, 1536.67 547.28 C 1537.22 544.65, 1536.13 543.48, 1535.14 542.41 C 1534.14 541.35, 1532.89 541.52, 1531.70 541.95" style="stroke: black; fill: black;"/></svg>