<svg xmlns="http://www.w3.org/2000/svg" id="canvas" viewBox="575.575 359.561 711.295 284.455"><path d="M 661.80,388.36 C 660.60 389.65, 660.70 391.24, 659.68 395.53 C 658.66 399.82, 658.49 402.66, 656.71 409.80 C 654.93 416.93, 653.76 421.67, 650.79 431.22 C 647.81 440.77, 645.89 446.41, 641.84 457.56 C 637.79 468.71, 635.25 475.02, 630.52 486.99 C 625.80 498.96, 623.08 505.52, 618.20 517.41 C 613.31 529.29, 610.66 535.60, 606.11 546.41 C 601.56 557.22, 599.32 562.66, 595.44 571.44 C 591.57 580.22, 589.69 584.36, 586.75 590.32 C 583.82 596.27, 582.40 598.02, 580.77 601.21 C 579.13 604.41, 578.65 605.02, 578.58 606.29 C 578.51 607.55, 579.23 608.13, 580.42 607.55 C 581.62 606.96, 582.64 606.49, 584.57 603.36 C 586.51 600.23, 587.41 598.04, 590.12 591.88 C 592.82 585.73, 594.45 581.48, 598.11 572.58 C 601.78 563.68, 603.98 558.23, 608.44 547.38 C 612.90 536.53, 615.54 530.21, 620.42 518.32 C 625.30 506.43, 628.02 499.87, 632.83 487.91 C 637.64 475.96, 640.21 469.66, 644.47 458.54 C 648.72 447.42, 650.77 441.82, 654.10 432.31 C 657.42 422.81, 658.87 418.13, 661.07 411.01 C 663.28 403.90, 664.19 401.13, 665.11 396.74 C 666.03 392.35, 666.33 390.73, 665.67 389.06 C 665.01 387.38, 663.00 387.06, 661.80 388.36" style="stroke: black; fill: black;"/><path d="M 604.57,401.18 C 605.91 401.81, 606.68 401.76, 609.53 400.94 C 612.38 400.12, 613.83 398.72, 618.83 397.06 C 623.83 395.40, 627.14 394.38, 634.53 392.64 C 641.92 390.90, 646.54 390.13, 655.78 388.38 C 665.02 386.63, 670.36 385.71, 680.74 383.88 C 691.12 382.04, 696.85 380.95, 707.68 379.20 C 718.51 377.45, 724.29 376.63, 734.88 375.13 C 745.47 373.62, 751.06 372.89, 760.62 371.67 C 770.18 370.45, 774.90 369.79, 782.68 369.02 C 790.47 368.24, 794.07 368.02, 799.56 367.80 C 805.05 367.57, 807.05 368.11, 810.15 367.89 C 813.25 367.67, 814.04 367.41, 815.04 366.69 C 816.05 365.98, 816.15 365.15, 815.17 364.34 C 814.19 363.53, 813.32 362.82, 810.13 362.62 C 806.95 362.42, 804.81 362.75, 799.23 363.34 C 793.66 363.92, 790.08 364.47, 782.27 365.54 C 774.47 366.61, 769.77 367.32, 760.22 368.68 C 750.66 370.04, 745.07 370.79, 734.48 372.34 C 723.88 373.88, 718.08 374.70, 707.23 376.41 C 696.38 378.11, 690.64 379.17, 680.23 380.86 C 669.81 382.55, 664.49 383.40, 655.17 384.86 C 645.85 386.31, 641.22 386.89, 633.63 388.14 C 626.05 389.38, 622.63 389.99, 617.25 391.08 C 611.87 392.16, 609.61 392.22, 606.74 393.57 C 603.86 394.92, 603.29 396.29, 602.86 397.81 C 602.43 399.33, 603.24 400.56, 604.57 401.18" style="stroke: black; fill: black;"/><path d="M 637.51,471.18 C 638.64 472.15, 639.48 472.87, 642.55 472.50 C 645.61 472.13, 647.56 470.98, 652.83 469.32 C 658.10 467.67, 661.64 466.48, 668.88 464.24 C 676.13 462.00, 680.72 460.56, 689.05 458.10 C 697.38 455.65, 702.10 454.27, 710.54 451.97 C 718.98 449.66, 723.42 448.38, 731.26 446.58 C 739.10 444.78, 743.03 443.96, 749.72 442.98 C 756.41 442.00, 759.55 441.70, 764.71 441.69 C 769.88 441.68, 772.22 442.63, 775.56 442.93 C 778.89 443.24, 779.67 443.26, 781.41 443.20 C 783.15 443.14, 783.53 443.15, 784.25 442.64 C 784.97 442.12, 785.34 441.54, 785.01 440.63 C 784.67 439.71, 784.36 438.95, 782.58 438.08 C 780.80 437.22, 779.72 436.58, 776.10 436.31 C 772.47 436.05, 769.87 436.21, 764.46 436.74 C 759.05 437.28, 755.87 437.72, 749.06 438.98 C 742.25 440.23, 738.32 441.12, 730.42 443.02 C 722.53 444.92, 718.09 446.23, 709.60 448.49 C 701.12 450.75, 696.39 452.10, 687.99 454.32 C 679.59 456.55, 674.95 457.83, 667.61 459.61 C 660.26 461.39, 656.63 462.20, 651.29 463.23 C 645.95 464.25, 643.80 463.86, 640.92 464.74 C 638.04 465.62, 637.58 466.34, 636.89 467.62 C 636.21 468.91, 636.38 470.20, 637.51 471.18" style="stroke: black; fill: black;"/><path d="M 775.73,494.91 C 773.81 495.85, 772.43 498.20, 769.69 502.14 C 766.95 506.08, 765.24 509.08, 762.03 514.61 C 758.82 520.15, 756.69 524.07, 753.64 529.81 C 750.59 535.55, 749.18 538.63, 746.77 543.30 C 744.35 547.97, 742.43 549.95, 741.56 553.17 C 740.70 556.39, 741.08 558.12, 742.47 559.39 C 743.85 560.66, 746.11 561.35, 748.48 559.54 C 750.86 557.73, 751.38 555.05, 754.34 550.33 C 757.31 545.62, 759.24 542.17, 763.29 535.96 C 767.35 529.76, 769.93 525.81, 774.61 519.30 C 779.30 512.79, 782.02 509.19, 786.73 503.41 C 791.44 497.64, 793.92 494.75, 798.16 490.42 C 802.39 486.08, 804.42 484.27, 807.92 481.72 C 811.42 479.17, 812.86 478.57, 815.66 477.66 C 818.46 476.75, 819.28 476.98, 821.92 477.18 C 824.56 477.38, 825.66 477.93, 828.87 478.66 C 832.09 479.38, 833.92 480.06, 837.99 480.79 C 842.06 481.53, 844.40 481.98, 849.20 482.33 C 854.01 482.68, 856.71 482.77, 862.02 482.56 C 867.32 482.35, 870.24 482.02, 875.74 481.27 C 881.25 480.52, 884.29 479.86, 889.53 478.81 C 894.77 477.76, 897.57 476.94, 901.95 476.02 C 906.33 475.10, 908.79 475.40, 911.44 474.19 C 914.08 472.99, 914.90 471.57, 915.17 470.01 C 915.44 468.45, 914.73 466.47, 912.77 466.40 C 910.80 466.33, 909.12 467.18, 905.34 469.66 C 901.56 472.14, 898.93 474.49, 893.88 478.81 C 888.82 483.13, 885.64 485.93, 880.07 491.27 C 874.50 496.61, 870.99 499.81, 866.03 505.50 C 861.06 511.20, 858.58 514.36, 855.24 519.74 C 851.91 525.12, 850.49 527.72, 849.36 532.39 C 848.23 537.06, 848.04 539.61, 849.60 543.09 C 851.17 546.56, 853.40 548.37, 857.19 549.76 C 860.97 551.14, 863.66 550.93, 868.52 550.02 C 873.38 549.10, 876.18 547.90, 881.48 545.17 C 886.79 542.44, 889.81 540.44, 895.03 536.39 C 900.24 532.33, 903.03 529.74, 907.57 524.89 C 912.12 520.04, 914.40 517.23, 917.75 512.14 C 921.10 507.04, 922.53 504.27, 924.31 499.40 C 926.09 494.54, 926.41 492.08, 926.66 487.79 C 926.90 483.50, 926.56 481.30, 925.55 477.97 C 924.55 474.65, 923.34 472.85, 921.62 471.17 C 919.90 469.50, 918.21 469.27, 916.95 469.61 C 915.69 469.95, 914.79 471.53, 915.31 472.87 C 915.84 474.22, 916.71 475.87, 919.59 476.33 C 922.47 476.79, 924.84 475.75, 929.73 475.19 C 934.61 474.63, 937.73 474.27, 944.01 473.52 C 950.29 472.77, 954.11 472.24, 961.13 471.42 C 968.15 470.60, 972.22 470.00, 979.12 469.43 C 986.02 468.85, 989.78 468.49, 995.62 468.55 C 1001.47 468.60, 1004.67 468.87, 1008.33 469.70 C 1011.99 470.53, 1012.77 471.09, 1013.92 472.72 C 1015.07 474.35, 1014.96 474.79, 1014.07 477.86 C 1013.18 480.93, 1012.16 483.43, 1009.46 488.09 C 1006.76 492.74, 1004.43 495.94, 1000.58 501.15 C 996.72 506.36, 993.97 509.48, 990.18 514.14 C 986.39 518.80, 983.43 520.92, 981.62 524.45 C 979.81 527.97, 979.83 530.18, 981.14 531.76 C 982.44 533.34, 984.45 533.85, 988.15 532.35 C 991.85 530.85, 994.01 528.31, 999.64 524.27 C 1005.28 520.24, 1009.10 517.16, 1016.32 512.17 C 1023.55 507.19, 1028.03 504.05, 1035.75 499.35 C 1043.47 494.65, 1047.92 492.10, 1054.92 488.67 C 1061.92 485.24, 1065.65 483.75, 1070.74 482.21 C 1075.84 480.68, 1078.04 481.01, 1080.38 480.99 C 1082.73 480.97, 1082.46 480.79, 1082.45 482.12 C 1082.44 483.46, 1081.80 484.58, 1080.33 487.67 C 1078.86 490.76, 1077.55 493.42, 1075.10 497.59 C 1072.64 501.75, 1070.68 504.45, 1068.05 508.50 C 1065.42 512.55, 1062.92 514.44, 1061.93 517.84 C 1060.93 521.23, 1061.37 523.62, 1063.06 525.48 C 1064.75 527.35, 1066.66 528.11, 1070.39 527.17 C 1074.12 526.22, 1076.25 524.03, 1081.73 520.75 C 1087.21 517.46, 1090.85 514.93, 1097.79 510.76 C 1104.73 506.58, 1109.01 503.89, 1116.44 499.88 C 1123.88 495.87, 1128.17 493.63, 1134.95 490.72 C 1141.74 487.80, 1145.36 486.53, 1150.39 485.30 C 1155.42 484.08, 1157.61 484.39, 1160.10 484.60 C 1162.58 484.82, 1162.49 484.89, 1162.82 486.37 C 1163.15 487.86, 1162.64 488.91, 1161.76 492.04 C 1160.89 495.16, 1159.97 497.64, 1158.44 501.99 C 1156.90 506.33, 1155.59 509.11, 1154.09 513.76 C 1152.59 518.41, 1151.44 520.92, 1150.95 525.25 C 1150.47 529.57, 1150.14 531.96, 1151.65 535.40 C 1153.16 538.84, 1154.91 540.75, 1158.51 542.45 C 1162.12 544.16, 1164.60 544.11, 1169.66 543.90 C 1174.71 543.70, 1177.65 543.02, 1183.80 541.44 C 1189.95 539.85, 1194.14 538.28, 1200.40 535.97 C 1206.66 533.67, 1210.24 532.14, 1215.12 529.89 C 1220.00 527.64, 1223.19 526.45, 1224.80 524.72 C 1226.41 522.99, 1225.50 521.12, 1223.17 521.23 C 1220.84 521.34, 1218.06 523.32, 1213.14 525.26 C 1208.22 527.19, 1204.72 528.77, 1198.58 530.90 C 1192.45 533.02, 1188.27 534.58, 1182.46 535.89 C 1176.64 537.20, 1173.70 537.44, 1169.51 537.44 C 1165.33 537.44, 1163.74 536.85, 1161.54 535.88 C 1159.34 534.91, 1159.20 534.55, 1158.52 532.60 C 1157.83 530.65, 1157.64 529.46, 1158.11 526.15 C 1158.59 522.83, 1159.41 520.33, 1160.88 516.01 C 1162.35 511.68, 1163.81 509.02, 1165.47 504.52 C 1167.13 500.02, 1168.59 497.63, 1169.16 493.51 C 1169.72 489.39, 1169.95 486.85, 1168.29 483.91 C 1166.64 480.98, 1164.71 479.46, 1160.88 478.82 C 1157.05 478.18, 1154.66 479.07, 1149.15 480.71 C 1143.63 482.34, 1140.22 483.86, 1133.31 486.98 C 1126.39 490.11, 1122.13 492.39, 1114.57 496.35 C 1107.01 500.31, 1102.63 502.89, 1095.51 506.76 C 1088.38 510.64, 1084.48 512.93, 1078.95 515.71 C 1073.43 518.49, 1070.57 519.14, 1067.88 520.68 C 1065.18 522.23, 1065.24 523.31, 1065.47 523.45 C 1065.70 523.58, 1067.26 523.56, 1069.04 521.37 C 1070.81 519.18, 1071.87 516.52, 1074.36 512.51 C 1076.85 508.50, 1078.91 505.77, 1081.49 501.32 C 1084.07 496.88, 1086.01 494.41, 1087.26 490.27 C 1088.50 486.12, 1088.99 483.58, 1087.71 480.59 C 1086.44 477.59, 1084.56 475.85, 1080.88 475.31 C 1077.20 474.76, 1074.84 475.88, 1069.30 477.87 C 1063.76 479.85, 1060.29 481.58, 1053.19 485.24 C 1046.10 488.90, 1041.68 491.49, 1033.83 496.16 C 1025.98 500.84, 1021.39 503.87, 1013.96 508.61 C 1006.53 513.35, 1002.45 516.21, 996.67 519.87 C 990.90 523.52, 987.87 524.75, 985.08 526.91 C 982.30 529.06, 982.38 530.40, 982.75 530.64 C 983.11 530.87, 984.54 530.67, 986.92 528.08 C 989.30 525.48, 991.04 522.39, 994.65 517.67 C 998.27 512.94, 1001.01 509.75, 1004.99 504.44 C 1008.97 499.12, 1011.53 496.13, 1014.56 491.11 C 1017.60 486.08, 1019.28 483.71, 1020.17 479.32 C 1021.06 474.93, 1021.11 472.18, 1019.00 469.16 C 1016.89 466.14, 1014.28 465.32, 1009.60 464.22 C 1004.92 463.12, 1001.77 463.51, 995.59 463.65 C 989.42 463.78, 985.72 464.28, 978.73 464.89 C 971.75 465.49, 967.68 466.08, 960.65 466.67 C 953.62 467.27, 949.80 467.73, 943.60 467.87 C 937.40 468.02, 934.34 467.87, 929.66 467.40 C 924.97 466.92, 923.11 465.36, 920.19 465.50 C 917.27 465.64, 916.45 466.67, 915.07 468.11 C 913.70 469.55, 913.41 470.99, 913.32 472.70 C 913.23 474.42, 913.74 475.05, 914.64 476.69 C 915.53 478.33, 916.71 478.69, 917.80 480.91 C 918.90 483.14, 919.87 484.45, 920.13 487.79 C 920.38 491.14, 920.39 493.31, 919.07 497.64 C 917.76 501.97, 916.56 504.65, 913.55 509.44 C 910.55 514.22, 908.36 517.00, 904.04 521.57 C 899.72 526.14, 896.96 528.62, 891.94 532.30 C 886.92 535.97, 883.86 537.70, 878.94 539.94 C 874.03 542.17, 871.29 542.83, 867.36 543.46 C 863.44 544.10, 861.73 543.74, 859.34 543.13 C 856.95 542.51, 856.35 542.29, 855.42 540.38 C 854.49 538.48, 853.90 537.25, 854.67 533.60 C 855.44 529.96, 856.32 527.19, 859.25 522.15 C 862.18 517.10, 864.52 513.86, 869.31 508.37 C 874.11 502.88, 877.58 499.67, 883.22 494.69 C 888.86 489.72, 892.23 487.20, 897.52 483.50 C 902.80 479.81, 905.98 478.62, 909.65 476.21 C 913.31 473.80, 914.91 473.30, 915.86 471.45 C 916.81 469.60, 915.79 468.07, 914.38 466.95 C 912.97 465.83, 911.65 465.31, 908.80 465.84 C 905.96 466.36, 904.26 468.13, 900.15 469.58 C 896.05 471.02, 893.31 471.87, 888.27 473.07 C 883.24 474.27, 880.26 474.89, 874.98 475.58 C 869.71 476.27, 866.90 476.50, 861.88 476.51 C 856.87 476.53, 854.36 476.28, 849.90 475.67 C 845.44 475.05, 843.42 474.40, 839.56 473.44 C 835.70 472.48, 834.12 471.63, 830.60 470.86 C 827.08 470.09, 825.44 469.45, 821.97 469.61 C 818.51 469.77, 816.74 470.06, 813.27 471.65 C 809.79 473.24, 808.29 474.41, 804.61 477.55 C 800.94 480.69, 799.10 482.69, 794.89 487.34 C 790.67 492.00, 788.27 494.94, 783.53 500.82 C 778.80 506.71, 776.09 510.33, 771.20 516.77 C 766.31 523.22, 763.54 527.07, 759.10 533.04 C 754.66 539.01, 752.32 542.28, 749.00 546.64 C 745.68 551.00, 743.53 552.37, 742.53 554.84 C 741.53 557.32, 742.89 558.79, 744.00 559.00 C 745.12 559.21, 746.49 558.55, 748.09 555.91 C 749.69 553.27, 749.92 550.51, 751.99 545.79 C 754.05 541.07, 755.46 538.01, 758.42 532.33 C 761.39 526.66, 763.60 522.83, 766.81 517.42 C 770.03 512.02, 772.01 509.31, 774.50 505.31 C 777.00 501.32, 779.03 499.53, 779.27 497.45 C 779.52 495.37, 777.65 493.97, 775.73 494.91" style="stroke: black; fill: black;"/><path d="M 1279.15,546.79 C 1277.89 547.09, 1277.51 547.06, 1276.17 549.18 C 1274.83 551.29, 1275.06 553.04, 1272.44 557.36 C 1269.83 561.68, 1267.92 564.59, 1263.08 570.79 C 1258.24 576.98, 1254.69 581.16, 1248.24 588.35 C 1241.79 595.54, 1237.56 599.82, 1230.82 606.74 C 1224.09 613.67, 1220.00 617.61, 1214.57 622.97 C 1209.14 628.32, 1206.86 630.32, 1203.68 633.52 C 1200.50 636.72, 1199.34 637.51, 1198.67 638.98 C 1198.01 640.45, 1198.79 641.38, 1200.35 640.88 C 1201.91 640.38, 1203.11 639.51, 1206.49 636.48 C 1209.88 633.44, 1211.92 631.15, 1217.29 625.69 C 1222.66 620.23, 1226.61 616.15, 1233.34 609.19 C 1240.08 602.22, 1244.32 597.95, 1250.97 590.86 C 1257.63 583.77, 1261.29 579.72, 1266.63 573.75 C 1271.96 567.78, 1274.28 565.23, 1277.65 561.02 C 1281.03 556.82, 1282.52 555.38, 1283.49 552.72 C 1284.46 550.05, 1283.37 548.87, 1282.50 547.69 C 1281.63 546.50, 1280.42 546.49, 1279.15 546.79" style="stroke: black; fill: black;"/></svg>