<svg xmlns="http://www.w3.org/2000/svg" id="canvas" viewBox="279.171 414.888 1241.622 131.981"><path d="M 316.18,445.90 C 315.69 446.27, 315.60 446.63, 315.16 447.84 C 314.71 449.06, 314.43 449.82, 313.98 451.96 C 313.53 454.10, 313.46 455.51, 312.90 458.56 C 312.34 461.60, 312.08 463.46, 311.19 467.19 C 310.29 470.92, 309.66 473.04, 308.42 477.21 C 307.18 481.37, 306.40 483.68, 305.00 488.03 C 303.60 492.39, 302.81 494.73, 301.41 498.97 C 300.00 503.22, 299.27 505.43, 297.99 509.25 C 296.71 513.06, 296.02 514.95, 295.00 518.03 C 293.98 521.12, 293.53 522.54, 292.90 524.66 C 292.27 526.78, 292.10 527.49, 291.85 528.64 C 291.61 529.80, 291.59 530.03, 291.66 530.45 C 291.72 530.86, 292.05 530.76, 292.18 530.71 C 292.32 530.67, 292.55 530.22, 292.33 530.22 C 292.12 530.21, 291.25 530.45, 291.13 530.68 C 291.01 530.92, 291.37 531.28, 291.75 531.39 C 292.13 531.50, 292.51 531.59, 293.02 531.23 C 293.53 530.87, 293.71 530.68, 294.32 529.57 C 294.92 528.47, 295.31 527.81, 296.06 525.69 C 296.81 523.58, 297.17 522.12, 298.09 519.00 C 299.00 515.88, 299.48 513.93, 300.63 510.09 C 301.79 506.24, 302.50 504.02, 303.87 499.78 C 305.24 495.53, 306.03 493.19, 307.48 488.84 C 308.93 484.50, 309.73 482.20, 311.11 478.05 C 312.49 473.90, 313.18 471.79, 314.37 468.08 C 315.56 464.37, 316.23 462.56, 317.04 459.49 C 317.86 456.41, 318.18 454.97, 318.46 452.71 C 318.75 450.45, 318.62 449.55, 318.45 448.20 C 318.29 446.85, 318.09 446.43, 317.63 445.97 C 317.18 445.51, 316.68 445.52, 316.18 445.90" style="stroke: black; fill: black;"/><path d="M 282.58,451.02 C 282.96 451.39, 283.17 451.44, 284.20 451.54 C 285.22 451.65, 285.81 451.74, 287.71 451.55 C 289.61 451.36, 290.86 451.19, 293.69 450.60 C 296.52 450.01, 298.26 449.46, 301.87 448.60 C 305.47 447.74, 307.59 447.27, 311.72 446.30 C 315.85 445.33, 318.16 444.80, 322.51 443.75 C 326.86 442.70, 329.18 442.13, 333.47 441.04 C 337.76 439.95, 340.01 439.37, 343.96 438.30 C 347.91 437.23, 349.86 436.67, 353.22 435.69 C 356.58 434.72, 358.22 434.35, 360.77 433.42 C 363.31 432.48, 364.56 431.79, 365.95 431.03 C 367.33 430.26, 367.65 429.70, 367.69 429.60 C 367.73 429.50, 367.21 429.42, 366.16 430.53 C 365.11 431.63, 364.24 432.51, 362.44 435.11 C 360.65 437.71, 359.60 439.71, 357.19 443.51 C 354.77 447.30, 353.19 449.64, 350.35 454.10 C 347.52 458.55, 345.86 461.09, 343.01 465.76 C 340.15 470.43, 338.63 473.01, 336.08 477.46 C 333.53 481.91, 332.27 484.25, 330.25 488.02 C 328.23 491.79, 327.12 493.50, 325.97 496.32 C 324.83 499.14, 324.53 500.36, 324.54 502.10 C 324.55 503.84, 324.90 504.47, 326.01 505.00 C 327.11 505.53, 328.11 505.51, 330.06 504.75 C 332.00 503.98, 333.29 503.05, 335.71 501.18 C 338.13 499.31, 339.42 497.70, 342.16 495.40 C 344.89 493.10, 346.56 491.69, 349.41 489.68 C 352.25 487.67, 353.98 486.76, 356.38 485.35 C 358.79 483.94, 359.93 483.30, 361.42 482.63 C 362.91 481.97, 363.37 481.79, 363.83 482.03 C 364.29 482.27, 364.07 482.62, 363.71 483.82 C 363.34 485.02, 362.78 486.01, 362.01 488.03 C 361.23 490.05, 360.61 491.48, 359.84 493.93 C 359.07 496.38, 358.53 497.88, 358.16 500.26 C 357.79 502.64, 357.60 503.96, 358.01 505.83 C 358.42 507.70, 358.86 508.61, 360.23 509.61 C 361.60 510.62, 362.64 510.95, 364.86 510.86 C 367.07 510.78, 368.50 510.41, 371.30 509.19 C 374.11 507.97, 375.64 506.77, 378.88 504.76 C 382.12 502.75, 384.00 501.46, 387.51 499.14 C 391.02 496.83, 392.98 495.44, 396.42 493.19 C 399.86 490.93, 401.71 489.73, 404.70 487.86 C 407.70 485.99, 409.27 485.24, 411.37 483.83 C 413.48 482.42, 414.28 481.80, 415.23 480.83 C 416.18 479.86, 416.29 479.50, 416.11 478.98 C 415.93 478.47, 415.38 478.20, 414.34 478.26 C 413.30 478.31, 412.42 478.46, 410.91 479.24 C 409.39 480.02, 408.49 480.74, 406.75 482.15 C 405.01 483.57, 404.02 484.51, 402.21 486.30 C 400.40 488.09, 399.36 489.14, 397.69 491.11 C 396.02 493.07, 395.12 494.19, 393.86 496.14 C 392.61 498.09, 392.00 499.12, 391.40 500.87 C 390.79 502.61, 390.63 503.50, 390.84 504.86 C 391.06 506.21, 391.45 506.91, 392.47 507.65 C 393.49 508.39, 394.34 508.66, 395.94 508.57 C 397.54 508.47, 398.55 508.13, 400.47 507.18 C 402.40 506.23, 403.46 505.43, 405.55 503.81 C 407.63 502.18, 408.77 501.07, 410.88 499.05 C 412.98 497.03, 414.16 495.83, 416.06 493.71 C 417.97 491.59, 419.15 490.30, 420.40 488.45 C 421.65 486.59, 422.11 485.54, 422.33 484.43 C 422.54 483.33, 422.20 482.91, 421.48 482.92 C 420.76 482.93, 419.91 483.32, 418.74 484.47 C 417.56 485.61, 416.61 486.72, 415.59 488.66 C 414.57 490.59, 414.14 492.06, 413.66 494.13 C 413.18 496.20, 413.02 497.33, 413.20 499.01 C 413.38 500.70, 413.63 501.51, 414.58 502.57 C 415.52 503.63, 416.28 504.09, 417.91 504.32 C 419.55 504.56, 420.63 504.43, 422.74 503.74 C 424.85 503.06, 426.08 502.38, 428.44 500.91 C 430.81 499.44, 432.07 498.27, 434.56 496.39 C 437.06 494.52, 438.51 493.39, 440.92 491.53 C 443.32 489.68, 444.82 488.62, 446.59 487.12 C 448.35 485.61, 449.07 484.77, 449.75 484.00 C 450.43 483.23, 450.33 483.04, 449.98 483.25 C 449.64 483.46, 449.01 483.88, 448.03 485.04 C 447.05 486.19, 446.17 487.22, 445.10 489.02 C 444.03 490.82, 443.40 492.14, 442.67 494.03 C 441.95 495.92, 441.55 496.97, 441.47 498.48 C 441.39 499.98, 441.53 500.72, 442.27 501.55 C 443.02 502.38, 443.69 502.70, 445.20 502.63 C 446.71 502.55, 447.76 502.20, 449.82 501.19 C 451.88 500.18, 453.12 499.19, 455.51 497.57 C 457.90 495.95, 459.27 494.75, 461.78 493.08 C 464.29 491.40, 465.94 490.52, 468.05 489.20 C 470.17 487.87, 471.18 487.16, 472.37 486.45 C 473.56 485.74, 473.82 485.56, 474.01 485.66 C 474.19 485.76, 473.84 486.04, 473.29 486.96 C 472.73 487.88, 472.00 488.66, 471.21 490.27 C 470.42 491.87, 469.84 493.08, 469.34 494.98 C 468.85 496.87, 468.60 498.04, 468.72 499.73 C 468.85 501.43, 469.04 502.35, 469.98 503.44 C 470.92 504.53, 471.67 505.06, 473.41 505.19 C 475.15 505.32, 476.34 505.17, 478.66 504.11 C 480.98 503.04, 482.26 502.02, 485.02 499.85 C 487.77 497.69, 489.31 496.23, 492.45 493.29 C 495.58 490.35, 497.37 488.62, 500.71 485.15 C 504.04 481.68, 505.86 479.69, 509.13 475.94 C 512.40 472.19, 514.10 470.14, 517.06 466.40 C 520.02 462.66, 521.49 460.68, 523.94 457.25 C 526.39 453.82, 527.55 452.12, 529.29 449.25 C 531.04 446.38, 531.84 445.08, 532.66 442.89 C 533.48 440.70, 533.67 439.55, 533.41 438.30 C 533.14 437.06, 532.52 436.55, 531.36 436.67 C 530.19 436.79, 529.14 437.23, 527.59 438.91 C 526.04 440.58, 525.25 442.06, 523.60 445.05 C 521.95 448.04, 521.12 450.15, 519.33 453.87 C 517.55 457.60, 516.51 459.77, 514.69 463.67 C 512.88 467.57, 511.92 469.66, 510.24 473.35 C 508.57 477.05, 507.73 478.94, 506.30 482.14 C 504.86 485.35, 504.08 486.87, 503.07 489.39 C 502.06 491.91, 501.64 493.03, 501.25 494.75 C 500.85 496.46, 500.78 497.12, 501.09 497.98 C 501.41 498.83, 501.88 499.10, 502.81 499.03 C 503.73 498.96, 504.45 498.64, 505.73 497.61 C 507.00 496.57, 507.70 495.61, 509.19 493.85 C 510.68 492.10, 511.44 490.83, 513.17 488.83 C 514.90 486.84, 515.96 485.70, 517.84 483.89 C 519.73 482.09, 520.83 481.18, 522.59 479.81 C 524.36 478.45, 525.30 477.89, 526.67 477.08 C 528.04 476.26, 528.67 476.03, 529.46 475.74 C 530.25 475.46, 530.44 475.44, 530.61 475.63 C 530.79 475.82, 530.64 476.00, 530.33 476.69 C 530.02 477.38, 529.72 477.88, 529.07 479.09 C 528.42 480.30, 528.02 481.18, 527.07 482.74 C 526.12 484.31, 525.49 485.26, 524.33 486.90 C 523.16 488.54, 522.41 489.44, 521.24 490.96 C 520.07 492.47, 519.41 493.21, 518.49 494.47 C 517.58 495.73, 517.10 496.23, 516.67 497.25 C 516.24 498.27, 516.13 498.75, 516.34 499.58 C 516.56 500.40, 516.92 500.90, 517.75 501.37 C 518.57 501.84, 519.20 501.99, 520.47 501.93 C 521.73 501.88, 522.47 501.61, 524.09 501.08 C 525.70 500.54, 526.63 500.10, 528.54 499.28 C 530.44 498.46, 531.54 497.94, 533.63 496.97 C 535.72 496.01, 536.85 495.45, 538.99 494.45 C 541.12 493.45, 542.26 492.93, 544.31 491.97 C 546.36 491.01, 547.43 490.57, 549.25 489.65 C 551.06 488.73, 552.02 488.25, 553.39 487.37 C 554.77 486.48, 555.69 485.93, 556.12 485.23 C 556.55 484.54, 556.36 484.05, 555.55 483.88 C 554.74 483.70, 553.65 483.92, 552.06 484.35 C 550.46 484.78, 549.47 485.25, 547.58 486.04 C 545.70 486.82, 544.70 487.36, 542.63 488.27 C 540.56 489.18, 539.40 489.65, 537.25 490.58 C 535.09 491.51, 533.93 492.04, 531.84 492.92 C 529.75 493.80, 528.66 494.26, 526.79 494.98 C 524.91 495.70, 523.96 495.96, 522.48 496.52 C 521.01 497.07, 520.33 497.27, 519.43 497.75 C 518.52 498.23, 518.25 498.55, 517.95 498.93 C 517.66 499.30, 517.70 499.61, 517.94 499.63 C 518.18 499.66, 518.47 499.59, 519.17 499.06 C 519.86 498.52, 520.35 498.03, 521.42 496.95 C 522.49 495.87, 523.19 495.13, 524.49 493.66 C 525.80 492.19, 526.63 491.31, 527.96 489.61 C 529.29 487.92, 530.09 486.97, 531.14 485.19 C 532.19 483.41, 532.74 482.40, 533.23 480.73 C 533.71 479.05, 533.80 478.16, 533.57 476.82 C 533.34 475.47, 532.97 474.78, 532.08 474.01 C 531.19 473.24, 530.52 473.00, 529.12 472.97 C 527.73 472.95, 526.89 473.18, 525.12 473.90 C 523.35 474.61, 522.31 475.21, 520.27 476.55 C 518.23 477.90, 517.03 478.84, 514.91 480.64 C 512.79 482.44, 511.62 483.60, 509.66 485.58 C 507.70 487.55, 506.59 488.66, 505.12 490.52 C 503.64 492.39, 502.97 493.46, 502.29 494.91 C 501.62 496.37, 501.66 497.13, 501.74 497.79 C 501.81 498.45, 502.16 498.60, 502.66 498.21 C 503.16 497.82, 503.48 497.31, 504.23 495.82 C 504.99 494.32, 505.46 493.23, 506.45 490.74 C 507.43 488.24, 507.89 486.59, 509.16 483.35 C 510.44 480.10, 511.21 478.20, 512.84 474.52 C 514.47 470.83, 515.42 468.75, 517.30 464.92 C 519.19 461.10, 520.26 458.94, 522.26 455.39 C 524.26 451.85, 525.55 450.01, 527.29 447.20 C 529.02 444.38, 529.96 443.15, 530.94 441.32 C 531.92 439.49, 532.06 438.69, 532.18 438.04 C 532.30 437.38, 532.04 437.36, 531.53 438.06 C 531.01 438.76, 530.59 439.62, 529.60 441.54 C 528.62 443.47, 528.17 444.85, 526.60 447.69 C 525.04 450.53, 524.07 452.31, 521.78 455.76 C 519.49 459.20, 518.05 461.18, 515.16 464.90 C 512.26 468.62, 510.58 470.66, 507.32 474.35 C 504.06 478.03, 502.24 480.00, 498.86 483.33 C 495.48 486.66, 493.66 488.34, 490.44 491.02 C 487.21 493.70, 485.48 494.88, 482.74 496.72 C 479.99 498.57, 478.62 499.16, 476.70 500.24 C 474.79 501.31, 474.12 501.74, 473.15 502.10 C 472.18 502.47, 472.03 502.44, 471.88 502.05 C 471.72 501.65, 471.95 501.24, 472.39 500.14 C 472.82 499.04, 473.36 498.20, 474.05 496.56 C 474.74 494.93, 475.37 493.79, 475.84 491.97 C 476.31 490.15, 476.57 488.99, 476.41 487.46 C 476.24 485.93, 475.99 485.12, 475.00 484.34 C 474.02 483.56, 473.27 483.33, 471.47 483.55 C 469.66 483.78, 468.40 484.29, 465.99 485.46 C 463.59 486.63, 462.08 487.79, 459.44 489.39 C 456.80 490.99, 455.22 491.92, 452.81 493.46 C 450.39 495.00, 449.09 495.83, 447.37 497.07 C 445.64 498.32, 444.97 498.97, 444.19 499.68 C 443.40 500.40, 443.37 500.68, 443.45 500.65 C 443.53 500.62, 443.89 500.40, 444.61 499.52 C 445.32 498.64, 445.95 497.85, 447.01 496.26 C 448.07 494.68, 448.99 493.54, 449.92 491.61 C 450.86 489.69, 451.40 488.36, 451.69 486.64 C 451.97 484.91, 451.92 483.93, 451.35 482.97 C 450.77 482.01, 450.22 481.67, 448.79 481.83 C 447.36 482.00, 446.27 482.53, 444.19 483.81 C 442.11 485.08, 440.81 486.39, 438.39 488.23 C 435.97 490.06, 434.57 491.24, 432.09 492.97 C 429.60 494.71, 428.16 495.55, 425.96 496.90 C 423.76 498.25, 422.71 498.88, 421.09 499.73 C 419.48 500.57, 418.81 500.86, 417.88 501.12 C 416.95 501.38, 416.69 501.41, 416.43 501.03 C 416.17 500.64, 416.23 500.27, 416.57 499.21 C 416.91 498.14, 417.31 497.31, 418.13 495.71 C 418.95 494.10, 419.82 493.01, 420.67 491.17 C 421.52 489.33, 422.05 488.08, 422.39 486.51 C 422.73 484.95, 422.75 484.06, 422.37 483.35 C 422.00 482.65, 421.56 482.52, 420.52 483.01 C 419.48 483.49, 418.72 484.25, 417.18 485.79 C 415.63 487.32, 414.65 488.69, 412.77 490.69 C 410.90 492.69, 409.82 493.91, 407.79 495.79 C 405.77 497.67, 404.57 498.62, 402.66 500.10 C 400.74 501.59, 399.73 502.22, 398.23 503.21 C 396.72 504.20, 396.04 504.56, 395.12 505.06 C 394.19 505.56, 393.93 505.74, 393.61 505.70 C 393.28 505.66, 393.28 505.53, 393.49 504.85 C 393.71 504.18, 393.92 503.60, 394.67 502.32 C 395.41 501.04, 395.95 500.13, 397.20 498.46 C 398.46 496.79, 399.32 495.75, 400.95 493.98 C 402.57 492.22, 403.57 491.22, 405.34 489.63 C 407.12 488.04, 408.18 487.31, 409.83 486.02 C 411.49 484.72, 412.42 484.26, 413.61 483.17 C 414.80 482.09, 415.33 481.48, 415.80 480.59 C 416.27 479.70, 416.33 479.10, 415.95 478.71 C 415.56 478.32, 415.18 478.23, 413.88 478.64 C 412.58 479.06, 411.64 479.49, 409.45 480.80 C 407.27 482.11, 405.90 483.21, 402.97 485.20 C 400.04 487.18, 398.22 488.46, 394.80 490.74 C 391.38 493.01, 389.40 494.38, 385.87 496.58 C 382.33 498.77, 380.39 499.99, 377.13 501.71 C 373.87 503.44, 372.12 504.08, 369.56 505.20 C 367.00 506.33, 365.92 506.85, 364.33 507.33 C 362.74 507.80, 362.25 507.94, 361.61 507.58 C 360.97 507.23, 361.01 506.83, 361.16 505.56 C 361.31 504.30, 361.68 503.27, 362.36 501.26 C 363.03 499.24, 363.70 497.88, 364.53 495.49 C 365.36 493.10, 366.06 491.64, 366.52 489.31 C 366.98 486.99, 367.17 485.64, 366.84 483.85 C 366.51 482.07, 366.11 481.22, 364.86 480.39 C 363.61 479.56, 362.68 479.38, 360.61 479.70 C 358.54 480.02, 357.15 480.57, 354.50 481.98 C 351.85 483.40, 350.30 484.70, 347.36 486.78 C 344.41 488.86, 342.68 490.23, 339.78 492.38 C 336.87 494.53, 335.16 495.66, 332.84 497.52 C 330.51 499.37, 329.45 500.43, 328.15 501.67 C 326.85 502.91, 326.61 503.56, 326.34 503.73 C 326.08 503.90, 326.29 503.73, 326.82 502.50 C 327.34 501.27, 327.83 500.23, 328.97 497.57 C 330.12 494.90, 330.71 492.97, 332.53 489.17 C 334.34 485.37, 335.57 483.02, 338.05 478.57 C 340.53 474.12, 342.04 471.56, 344.91 466.94 C 347.79 462.31, 349.46 459.79, 352.42 455.46 C 355.39 451.13, 357.06 448.87, 359.75 445.28 C 362.44 441.68, 364.06 440.13, 365.88 437.47 C 367.69 434.81, 368.32 433.71, 368.82 431.97 C 369.31 430.24, 369.10 429.54, 368.35 428.79 C 367.60 428.04, 366.82 427.99, 365.06 428.23 C 363.29 428.46, 362.07 429.05, 359.52 429.96 C 356.97 430.87, 355.55 431.64, 352.29 432.78 C 349.03 433.92, 347.11 434.52, 343.21 435.66 C 339.32 436.81, 337.09 437.41, 332.82 438.50 C 328.56 439.60, 326.24 440.16, 321.90 441.14 C 317.56 442.12, 315.24 442.62, 311.10 443.42 C 306.97 444.21, 304.85 444.61, 301.21 445.12 C 297.57 445.63, 295.75 445.58, 292.89 445.98 C 290.03 446.38, 288.77 446.61, 286.90 447.11 C 285.03 447.61, 284.48 447.95, 283.55 448.47 C 282.63 448.99, 282.46 449.18, 282.26 449.68 C 282.07 450.19, 282.19 450.64, 282.58 451.02" style="stroke: black; fill: black;"/><path d="M 610.04,473.62 C 609.51 473.79, 609.28 473.97, 608.78 474.75 C 608.28 475.53, 607.91 476.09, 607.54 477.52 C 607.16 478.94, 606.98 480.02, 606.90 481.88 C 606.81 483.73, 606.81 484.91, 607.11 486.79 C 607.42 488.66, 607.60 489.71, 608.42 491.24 C 609.23 492.78, 609.77 493.55, 611.17 494.45 C 612.56 495.36, 613.48 495.69, 615.40 495.77 C 617.31 495.85, 618.46 495.64, 620.75 494.84 C 623.04 494.05, 624.37 493.36, 626.84 491.79 C 629.31 490.22, 630.61 489.00, 633.11 486.98 C 635.61 484.97, 637.02 483.75, 639.33 481.72 C 641.63 479.68, 643.03 478.53, 644.64 476.81 C 646.25 475.10, 646.87 474.09, 647.37 473.14 C 647.87 472.20, 647.67 471.81, 647.15 472.10 C 646.63 472.39, 645.89 472.85, 644.76 474.59 C 643.63 476.33, 642.94 477.82, 641.51 480.82 C 640.08 483.82, 639.33 485.85, 637.61 489.58 C 635.89 493.32, 634.84 495.46, 632.90 499.49 C 630.96 503.53, 629.89 505.72, 627.92 509.76 C 625.95 513.79, 624.94 515.94, 623.05 519.67 C 621.17 523.40, 620.23 525.30, 618.51 528.41 C 616.79 531.52, 615.81 532.92, 614.45 535.22 C 613.09 537.53, 612.51 538.51, 611.70 539.93 C 610.89 541.34, 610.59 541.79, 610.39 542.28 C 610.18 542.77, 610.36 542.83, 610.67 542.39 C 610.98 541.95, 611.31 541.48, 611.92 540.08 C 612.53 538.68, 612.84 537.66, 613.72 535.39 C 614.60 533.12, 614.93 531.59, 616.31 528.73 C 617.68 525.88, 618.55 524.21, 620.60 521.12 C 622.65 518.03, 623.91 516.40, 626.54 513.30 C 629.17 510.20, 630.70 508.59, 633.76 505.60 C 636.83 502.62, 638.52 501.12, 641.86 498.37 C 645.19 495.61, 646.99 494.26, 650.42 491.82 C 653.84 489.38, 655.66 488.22, 658.97 486.17 C 662.27 484.12, 663.98 483.18, 666.95 481.57 C 669.92 479.96, 671.42 479.34, 673.82 478.11 C 676.22 476.88, 677.29 476.32, 678.93 475.41 C 680.57 474.51, 681.25 474.23, 682.04 473.59 C 682.82 472.95, 682.94 472.66, 682.85 472.23 C 682.76 471.79, 682.35 471.46, 681.57 471.40 C 680.79 471.34, 680.12 471.36, 678.96 471.91 C 677.80 472.47, 677.10 473.03, 675.76 474.17 C 674.43 475.31, 673.65 476.10, 672.27 477.61 C 670.89 479.12, 670.07 480.00, 668.86 481.70 C 667.65 483.41, 667.00 484.38, 666.24 486.13 C 665.47 487.87, 665.15 488.83, 665.02 490.44 C 664.89 492.05, 665.01 492.90, 665.61 494.18 C 666.21 495.46, 666.78 496.11, 668.03 496.83 C 669.29 497.56, 670.19 497.80, 671.88 497.82 C 673.57 497.83, 674.61 497.60, 676.48 496.91 C 678.34 496.21, 679.38 495.62, 681.20 494.37 C 683.02 493.12, 684.01 492.27, 685.59 490.66 C 687.18 489.04, 687.98 488.07, 689.13 486.29 C 690.28 484.51, 690.75 483.50, 691.35 481.76 C 691.96 480.02, 692.12 479.12, 692.15 477.59 C 692.18 476.06, 691.96 475.29, 691.51 474.10 C 691.06 472.92, 690.63 472.34, 689.90 471.67 C 689.17 471.00, 688.59 470.71, 687.87 470.75 C 687.16 470.79, 686.60 471.23, 686.32 471.87 C 686.05 472.50, 686.01 473.21, 686.49 473.94 C 686.96 474.66, 687.46 475.06, 688.68 475.51 C 689.90 475.95, 690.78 476.06, 692.58 476.16 C 694.37 476.26, 695.47 476.20, 697.65 476.01 C 699.84 475.82, 701.11 475.63, 703.48 475.23 C 705.85 474.82, 707.22 474.54, 709.51 473.99 C 711.79 473.44, 713.16 473.03, 714.90 472.49 C 716.65 471.94, 717.44 471.54, 718.23 471.28 C 719.01 471.01, 719.06 470.86, 718.84 471.16 C 718.61 471.47, 718.09 471.76, 717.11 472.81 C 716.14 473.86, 715.22 474.72, 713.96 476.41 C 712.71 478.09, 711.89 479.32, 710.84 481.24 C 709.79 483.16, 709.19 484.25, 708.72 485.99 C 708.24 487.74, 708.11 488.64, 708.47 489.96 C 708.84 491.27, 709.32 491.94, 710.55 492.58 C 711.78 493.21, 712.72 493.37, 714.61 493.13 C 716.51 492.89, 717.69 492.47, 720.02 491.39 C 722.35 490.31, 723.68 489.36, 726.26 487.72 C 728.85 486.08, 730.32 484.95, 732.94 483.17 C 735.56 481.40, 737.27 480.41, 739.36 478.86 C 741.44 477.30, 742.40 476.35, 743.39 475.40 C 744.37 474.45, 744.45 474.11, 744.27 474.09 C 744.09 474.07, 743.46 474.32, 742.48 475.30 C 741.50 476.28, 740.43 477.21, 739.39 478.99 C 738.35 480.78, 737.73 482.18, 737.27 484.23 C 736.80 486.28, 736.68 487.48, 737.08 489.23 C 737.48 490.97, 737.90 491.84, 739.25 492.97 C 740.61 494.09, 741.63 494.58, 743.87 494.87 C 746.11 495.15, 747.87 494.93, 750.44 494.39 C 753.00 493.85, 754.61 493.19, 756.69 492.16 C 758.77 491.13, 760.13 490.12, 760.84 489.23 C 761.55 488.34, 761.34 487.89, 760.25 487.69 C 759.16 487.48, 757.58 487.84, 755.40 488.19 C 753.22 488.55, 751.66 488.93, 749.36 489.45 C 747.07 489.96, 745.61 490.51, 743.91 490.76 C 742.21 491.00, 741.61 491.04, 740.88 490.68 C 740.15 490.32, 740.07 489.94, 740.24 488.96 C 740.41 487.99, 740.95 487.31, 741.73 485.80 C 742.52 484.29, 743.39 483.24, 744.18 481.43 C 744.96 479.62, 745.49 478.34, 745.68 476.75 C 745.87 475.17, 745.83 474.28, 745.11 473.50 C 744.40 472.72, 743.75 472.51, 742.12 472.86 C 740.49 473.22, 739.25 473.89, 736.96 475.27 C 734.66 476.64, 733.23 478.01, 730.63 479.74 C 728.04 481.47, 726.50 482.46, 723.96 483.93 C 721.42 485.41, 720.01 486.04, 717.94 487.11 C 715.86 488.18, 714.91 488.65, 713.58 489.27 C 712.25 489.89, 711.82 490.13, 711.28 490.22 C 710.74 490.31, 710.71 490.26, 710.90 489.72 C 711.09 489.18, 711.41 488.70, 712.21 487.52 C 713.01 486.34, 713.70 485.46, 714.90 483.83 C 716.11 482.19, 717.11 481.17, 718.26 479.35 C 719.41 477.53, 720.13 476.41, 720.64 474.72 C 721.14 473.03, 721.21 472.10, 720.79 470.90 C 720.36 469.69, 719.83 469.17, 718.49 468.69 C 717.16 468.20, 716.10 468.28, 714.11 468.48 C 712.12 468.67, 710.82 469.20, 708.55 469.66 C 706.28 470.12, 705.01 470.45, 702.76 470.79 C 700.52 471.13, 699.31 471.27, 697.33 471.37 C 695.35 471.47, 694.39 471.39, 692.86 471.29 C 691.33 471.20, 690.69 470.95, 689.70 470.90 C 688.70 470.86, 688.41 470.83, 687.87 471.07 C 687.34 471.31, 687.22 471.67, 687.01 472.10 C 686.80 472.53, 686.74 472.85, 686.83 473.23 C 686.93 473.61, 687.17 473.60, 687.49 474.01 C 687.82 474.42, 688.19 474.58, 688.44 475.26 C 688.69 475.94, 688.87 476.37, 688.75 477.40 C 688.64 478.43, 688.47 479.07, 687.87 480.39 C 687.28 481.71, 686.84 482.55, 685.78 483.99 C 684.72 485.43, 683.99 486.24, 682.57 487.58 C 681.15 488.92, 680.23 489.63, 678.68 490.67 C 677.13 491.72, 676.24 492.18, 674.82 492.82 C 673.40 493.46, 672.67 493.65, 671.58 493.88 C 670.49 494.10, 670.04 494.13, 669.38 493.96 C 668.73 493.79, 668.50 493.63, 668.31 493.03 C 668.12 492.43, 668.12 492.01, 668.42 490.99 C 668.72 489.97, 669.02 489.26, 669.81 487.93 C 670.59 486.60, 671.19 485.76, 672.34 484.34 C 673.50 482.93, 674.26 482.12, 675.59 480.85 C 676.92 479.58, 677.76 479.03, 678.99 478.00 C 680.22 476.97, 680.92 476.61, 681.75 475.70 C 682.57 474.80, 682.89 474.28, 683.12 473.47 C 683.34 472.66, 683.29 472.11, 682.87 471.66 C 682.46 471.21, 682.12 471.07, 681.04 471.22 C 679.96 471.36, 679.26 471.65, 677.48 472.38 C 675.70 473.12, 674.55 473.59, 672.13 474.88 C 669.71 476.17, 668.32 477.07, 665.38 478.85 C 662.45 480.64, 660.76 481.64, 657.45 483.80 C 654.15 485.96, 652.32 487.16, 648.87 489.67 C 645.41 492.18, 643.58 493.55, 640.19 496.35 C 636.79 499.15, 635.06 500.65, 631.90 503.66 C 628.73 506.68, 627.16 508.29, 624.37 511.40 C 621.57 514.52, 620.24 516.15, 617.93 519.24 C 615.62 522.32, 614.56 523.95, 612.81 526.82 C 611.05 529.70, 610.16 531.13, 609.18 533.62 C 608.20 536.10, 607.97 537.38, 607.90 539.24 C 607.83 541.09, 608.16 541.97, 608.83 542.88 C 609.50 543.79, 610.17 544.01, 611.24 543.79 C 612.30 543.57, 612.90 543.12, 614.16 541.77 C 615.42 540.42, 616.13 539.43, 617.53 537.04 C 618.93 534.64, 619.59 533.04, 621.17 529.80 C 622.76 526.56, 623.65 524.64, 625.47 520.86 C 627.29 517.08, 628.29 514.94, 630.27 510.91 C 632.25 506.88, 633.33 504.70, 635.37 500.73 C 637.42 496.75, 638.52 494.65, 640.51 491.05 C 642.50 487.46, 643.75 485.71, 645.33 482.75 C 646.92 479.80, 647.81 478.39, 648.44 476.27 C 649.07 474.15, 648.97 473.15, 648.50 472.16 C 648.03 471.16, 647.41 470.98, 646.09 471.30 C 644.77 471.63, 643.78 472.32, 641.89 473.79 C 640.00 475.27, 638.89 476.67, 636.63 478.66 C 634.37 480.66, 633.05 481.93, 630.61 483.78 C 628.16 485.64, 626.70 486.51, 624.41 487.92 C 622.12 489.34, 620.98 490.00, 619.15 490.85 C 617.32 491.70, 616.52 491.98, 615.26 492.18 C 614.00 492.38, 613.55 492.32, 612.85 491.86 C 612.14 491.40, 611.99 490.97, 611.73 489.89 C 611.48 488.81, 611.51 487.99, 611.57 486.46 C 611.62 484.93, 611.84 483.89, 612.00 482.24 C 612.16 480.59, 612.36 479.58, 612.38 478.21 C 612.40 476.84, 612.30 476.24, 612.11 475.38 C 611.92 474.53, 611.84 474.29, 611.43 473.93 C 611.01 473.58, 610.57 473.46, 610.04 473.62" style="stroke: black; fill: black;"/><path d="M 843.04,454.94 C 843.76 454.88, 844.31 454.50, 845.36 453.63 C 846.42 452.77, 847.07 452.12, 848.32 450.62 C 849.57 449.12, 850.30 448.04, 851.61 446.12 C 852.91 444.19, 853.59 443.09, 854.85 440.98 C 856.11 438.87, 856.80 437.70, 857.89 435.55 C 858.98 433.40, 859.51 432.24, 860.29 430.22 C 861.08 428.21, 861.46 427.23, 861.83 425.49 C 862.20 423.76, 862.35 422.90, 862.14 421.56 C 861.93 420.22, 861.64 419.52, 860.77 418.80 C 859.91 418.07, 859.17 417.74, 857.81 417.95 C 856.44 418.15, 855.56 418.44, 853.93 419.82 C 852.30 421.20, 851.44 422.25, 849.66 424.86 C 847.87 427.48, 847.03 429.24, 845.00 432.89 C 842.97 436.53, 841.78 438.67, 839.49 443.07 C 837.21 447.48, 835.97 449.99, 833.55 454.93 C 831.14 459.87, 829.87 462.57, 827.44 467.78 C 825.01 472.98, 823.77 475.78, 821.41 480.95 C 819.06 486.12, 817.89 488.83, 815.68 493.64 C 813.47 498.44, 812.35 500.88, 810.36 504.99 C 808.37 509.09, 807.31 511.05, 805.72 514.15 C 804.13 517.25, 803.35 518.56, 802.42 520.49 C 801.48 522.42, 801.31 522.90, 801.03 523.80 C 800.75 524.70, 800.96 524.80, 801.01 524.99 C 801.06 525.17, 801.34 524.75, 801.29 524.73 C 801.24 524.70, 800.77 524.69, 800.76 524.85 C 800.76 525.02, 800.87 525.53, 801.27 525.54 C 801.68 525.56, 802.01 525.66, 802.78 524.94 C 803.56 524.22, 804.02 523.84, 805.13 521.94 C 806.24 520.03, 806.85 518.61, 808.33 515.42 C 809.80 512.23, 810.65 510.17, 812.51 505.98 C 814.36 501.80, 815.46 499.35, 817.61 494.51 C 819.75 489.67, 820.92 486.96, 823.26 481.78 C 825.60 476.61, 826.84 473.82, 829.30 468.65 C 831.75 463.48, 833.05 460.79, 835.54 455.92 C 838.02 451.05, 839.30 448.57, 841.73 444.29 C 844.16 440.02, 845.42 437.92, 847.70 434.55 C 849.98 431.17, 851.29 429.75, 853.13 427.40 C 854.97 425.06, 855.76 424.18, 856.90 422.82 C 858.04 421.47, 858.36 421.13, 858.84 420.61 C 859.33 420.10, 859.28 420.05, 859.33 420.24 C 859.38 420.43, 859.29 420.71, 859.08 421.57 C 858.87 422.43, 858.79 423.11, 858.30 424.53 C 857.81 425.96, 857.46 426.88, 856.65 428.69 C 855.83 430.51, 855.32 431.62, 854.22 433.62 C 853.13 435.61, 852.46 436.71, 851.17 438.68 C 849.87 440.64, 849.07 441.59, 847.75 443.43 C 846.44 445.27, 845.62 446.26, 844.58 447.86 C 843.54 449.46, 843.09 450.22, 842.54 451.44 C 841.98 452.66, 841.69 453.24, 841.80 453.94 C 841.90 454.64, 842.33 455.00, 843.04 454.94" style="stroke: black; fill: black;"/><path d="M 806.89,485.10 C 807.20 485.55, 807.40 485.70, 808.34 485.97 C 809.28 486.24, 809.91 486.41, 811.59 486.45 C 813.27 486.48, 814.37 486.45, 816.74 486.16 C 819.11 485.87, 820.56 485.66, 823.44 485.02 C 826.32 484.38, 827.93 483.89, 831.14 482.96 C 834.34 482.02, 836.12 481.47, 839.46 480.33 C 842.79 479.20, 844.57 478.52, 847.83 477.28 C 851.09 476.04, 852.81 475.37, 855.75 474.13 C 858.69 472.89, 860.21 472.27, 862.54 471.06 C 864.86 469.84, 865.96 469.20, 867.38 468.06 C 868.80 466.92, 869.32 466.32, 869.65 465.35 C 869.97 464.38, 869.76 463.76, 869.00 463.20 C 868.25 462.65, 867.41 462.36, 865.87 462.58 C 864.33 462.81, 863.20 463.22, 861.29 464.34 C 859.38 465.46, 858.26 466.45, 856.32 468.19 C 854.39 469.93, 853.28 471.05, 851.63 473.06 C 849.99 475.07, 849.12 476.22, 848.10 478.24 C 847.08 480.25, 846.68 481.35, 846.53 483.14 C 846.38 484.93, 846.58 485.85, 847.35 487.18 C 848.12 488.51, 848.84 489.13, 850.38 489.78 C 851.93 490.43, 853.03 490.60, 855.07 490.44 C 857.11 490.29, 858.35 489.91, 860.57 489.01 C 862.79 488.11, 864.03 487.38, 866.16 485.95 C 868.28 484.52, 869.42 483.58, 871.18 481.84 C 872.95 480.10, 873.79 479.07, 874.99 477.24 C 876.18 475.41, 876.65 474.41, 877.14 472.68 C 877.63 470.94, 877.62 470.04, 877.44 468.58 C 877.25 467.12, 876.87 466.42, 876.22 465.39 C 875.56 464.35, 875.01 463.78, 874.16 463.39 C 873.31 463.00, 872.56 463.05, 871.96 463.44 C 871.35 463.83, 870.99 464.59, 871.13 465.36 C 871.27 466.13, 871.60 466.72, 872.65 467.28 C 873.69 467.85, 874.54 468.04, 876.36 468.20 C 878.18 468.35, 879.37 468.23, 881.75 468.07 C 884.13 467.91, 885.57 467.71, 888.24 467.40 C 890.92 467.08, 892.47 466.81, 895.13 466.49 C 897.79 466.17, 899.26 465.98, 901.53 465.82 C 903.80 465.65, 904.97 465.57, 906.50 465.67 C 908.02 465.78, 908.58 465.85, 909.14 466.35 C 909.70 466.86, 909.63 467.19, 909.30 468.20 C 908.96 469.22, 908.45 469.91, 907.47 471.44 C 906.50 472.96, 905.70 474.02, 904.43 475.82 C 903.15 477.61, 902.25 478.74, 901.10 480.41 C 899.94 482.09, 899.21 482.95, 898.66 484.20 C 898.10 485.45, 898.03 486.06, 898.33 486.66 C 898.64 487.26, 899.15 487.44, 900.17 487.19 C 901.20 486.94, 902.00 486.52, 903.46 485.42 C 904.92 484.33, 905.76 483.35, 907.49 481.73 C 909.22 480.10, 910.18 478.98, 912.09 477.28 C 914.01 475.58, 915.11 474.67, 917.07 473.21 C 919.04 471.75, 920.06 471.08, 921.92 469.99 C 923.79 468.91, 924.69 468.47, 926.40 467.78 C 928.11 467.09, 928.89 467.05, 930.48 466.54 C 932.07 466.02, 933.62 465.82, 934.35 465.20 C 935.07 464.59, 935.03 463.86, 934.12 463.46 C 933.21 463.05, 931.58 463.00, 929.78 463.18 C 927.98 463.37, 927.06 463.70, 925.12 464.39 C 923.18 465.08, 922.16 465.54, 920.07 466.63 C 917.99 467.71, 916.88 468.37, 914.70 469.80 C 912.52 471.22, 911.33 472.11, 909.19 473.74 C 907.05 475.37, 905.82 476.29, 904.00 477.94 C 902.17 479.58, 901.19 480.49, 900.05 481.97 C 898.91 483.45, 898.52 484.30, 898.28 485.32 C 898.05 486.35, 898.28 486.87, 898.88 487.09 C 899.48 487.31, 900.12 487.20, 901.28 486.43 C 902.44 485.66, 903.24 484.83, 904.67 483.26 C 906.10 481.69, 907.08 480.56, 908.42 478.59 C 909.76 476.62, 910.58 475.42, 911.38 473.40 C 912.19 471.38, 912.50 470.26, 912.43 468.50 C 912.36 466.74, 912.08 465.84, 911.03 464.60 C 909.97 463.37, 909.08 462.90, 907.16 462.33 C 905.23 461.76, 903.92 461.79, 901.43 461.74 C 898.94 461.70, 897.43 461.91, 894.70 462.12 C 891.97 462.33, 890.42 462.57, 887.78 462.79 C 885.14 463.02, 883.74 463.14, 881.50 463.23 C 879.26 463.31, 878.18 463.19, 876.57 463.20 C 874.97 463.21, 874.38 463.11, 873.47 463.27 C 872.57 463.44, 872.40 463.60, 872.06 464.03 C 871.71 464.46, 871.68 464.95, 871.73 465.42 C 871.78 465.89, 871.96 466.02, 872.32 466.37 C 872.68 466.73, 873.13 466.70, 873.52 467.21 C 873.92 467.72, 874.22 468.05, 874.29 468.92 C 874.35 469.80, 874.36 470.37, 873.86 471.59 C 873.37 472.80, 872.94 473.58, 871.82 475.01 C 870.71 476.45, 869.92 477.33, 868.30 478.78 C 866.68 480.22, 865.61 481.02, 863.71 482.23 C 861.81 483.44, 860.66 484.01, 858.81 484.83 C 856.96 485.64, 855.96 485.93, 854.47 486.29 C 852.97 486.65, 852.28 486.71, 851.32 486.62 C 850.36 486.53, 850.00 486.43, 849.67 485.84 C 849.34 485.26, 849.32 484.82, 849.68 483.70 C 850.05 482.57, 850.43 481.76, 851.49 480.22 C 852.55 478.68, 853.37 477.68, 854.97 476.01 C 856.57 474.34, 857.68 473.36, 859.50 471.89 C 861.31 470.42, 862.48 469.78, 864.06 468.65 C 865.65 467.53, 866.45 467.09, 867.41 466.28 C 868.36 465.47, 868.66 465.04, 868.82 464.60 C 868.99 464.16, 868.89 463.97, 868.23 464.09 C 867.58 464.22, 867.06 464.50, 865.57 465.21 C 864.08 465.93, 863.05 466.53, 860.80 467.66 C 858.55 468.79, 857.15 469.57, 854.32 470.86 C 851.48 472.16, 849.81 472.89, 846.62 474.13 C 843.44 475.38, 841.67 476.03, 838.39 477.07 C 835.10 478.11, 833.34 478.61, 830.19 479.33 C 827.04 480.05, 825.43 480.26, 822.63 480.67 C 819.84 481.08, 818.48 481.17, 816.21 481.40 C 813.94 481.64, 812.89 481.59, 811.28 481.85 C 809.67 482.11, 809.05 482.32, 808.16 482.69 C 807.27 483.07, 807.07 483.23, 806.82 483.71 C 806.57 484.19, 806.59 484.64, 806.89 485.10" style="stroke: black; fill: black;"/><path d="M 995.35,481.90 C 996.07 482.17, 996.81 482.13, 998.39 481.78 C 999.97 481.42, 1001.05 481.15, 1003.24 480.12 C 1005.43 479.10, 1006.88 478.28, 1009.34 476.67 C 1011.80 475.06, 1013.13 473.95, 1015.53 472.07 C 1017.94 470.19, 1019.27 469.18, 1021.37 467.28 C 1023.47 465.37, 1024.53 464.34, 1026.03 462.54 C 1027.53 460.74, 1028.21 459.87, 1028.89 458.28 C 1029.57 456.68, 1029.72 455.84, 1029.42 454.57 C 1029.12 453.30, 1028.66 452.58, 1027.39 451.92 C 1026.12 451.26, 1025.08 451.01, 1023.06 451.28 C 1021.03 451.55, 1019.70 451.96, 1017.28 453.26 C 1014.85 454.56, 1013.46 455.67, 1010.93 457.78 C 1008.40 459.88, 1006.95 461.28, 1004.62 463.78 C 1002.29 466.28, 1001.00 467.71, 999.27 470.30 C 997.55 472.89, 996.77 474.30, 995.99 476.73 C 995.22 479.16, 995.10 480.44, 995.41 482.45 C 995.72 484.47, 996.22 485.45, 997.55 486.80 C 998.88 488.16, 999.92 488.70, 1002.06 489.22 C 1004.21 489.74, 1005.60 489.80, 1008.27 489.42 C 1010.95 489.05, 1012.50 488.50, 1015.45 487.34 C 1018.40 486.19, 1020.01 485.31, 1023.02 483.66 C 1026.04 482.02, 1027.63 480.97, 1030.52 479.11 C 1033.40 477.24, 1034.92 476.19, 1037.45 474.34 C 1039.97 472.49, 1041.41 471.46, 1043.12 469.84 C 1044.84 468.23, 1045.50 467.28, 1046.02 466.28 C 1046.55 465.28, 1046.32 464.86, 1045.74 464.85 C 1045.15 464.85, 1044.29 465.16, 1043.10 466.26 C 1041.90 467.37, 1040.92 468.43, 1039.75 470.38 C 1038.58 472.33, 1038.02 473.80, 1037.27 476.01 C 1036.51 478.23, 1036.13 479.48, 1035.96 481.47 C 1035.78 483.46, 1035.84 484.45, 1036.40 485.96 C 1036.95 487.48, 1037.47 488.18, 1038.73 489.05 C 1039.99 489.92, 1040.92 490.22, 1042.70 490.30 C 1044.49 490.38, 1045.61 490.14, 1047.66 489.43 C 1049.71 488.72, 1050.83 488.07, 1052.95 486.74 C 1055.06 485.42, 1056.24 484.52, 1058.24 482.80 C 1060.25 481.09, 1061.30 480.02, 1062.98 478.18 C 1064.65 476.35, 1065.45 475.31, 1066.62 473.64 C 1067.79 471.96, 1068.35 471.03, 1068.82 469.80 C 1069.30 468.58, 1069.19 467.96, 1068.99 467.51 C 1068.80 467.07, 1068.23 467.12, 1067.84 467.57 C 1067.45 468.01, 1066.96 468.66, 1067.06 469.75 C 1067.16 470.83, 1067.39 471.80, 1068.33 472.98 C 1069.27 474.17, 1070.11 474.83, 1071.76 475.69 C 1073.40 476.55, 1074.40 476.92, 1076.55 477.28 C 1078.70 477.65, 1079.96 477.71, 1082.51 477.53 C 1085.06 477.35, 1086.54 477.07, 1089.29 476.38 C 1092.05 475.70, 1093.59 475.18, 1096.27 474.11 C 1098.95 473.04, 1100.39 472.34, 1102.71 471.03 C 1105.03 469.71, 1106.20 468.96, 1107.89 467.53 C 1109.57 466.10, 1110.35 465.32, 1111.15 463.88 C 1111.96 462.44, 1112.13 461.59, 1111.91 460.33 C 1111.68 459.07, 1111.21 458.34, 1110.02 457.59 C 1108.83 456.85, 1107.85 456.56, 1105.96 456.62 C 1104.07 456.68, 1102.83 456.98, 1100.58 457.89 C 1098.34 458.81, 1097.02 459.59, 1094.75 461.19 C 1092.47 462.79, 1091.19 463.87, 1089.20 465.90 C 1087.21 467.93, 1086.16 469.13, 1084.80 471.34 C 1083.43 473.54, 1082.82 474.79, 1082.36 476.93 C 1081.90 479.06, 1081.91 480.20, 1082.49 482.00 C 1083.08 483.80, 1083.71 484.71, 1085.31 485.90 C 1086.90 487.10, 1088.07 487.55, 1090.47 487.96 C 1092.86 488.37, 1094.37 488.37, 1097.28 487.94 C 1100.20 487.50, 1101.85 486.86, 1105.05 485.77 C 1108.26 484.68, 1110.06 483.91, 1113.32 482.51 C 1116.59 481.10, 1118.35 480.22, 1121.39 478.75 C 1124.42 477.27, 1126.03 476.52, 1128.51 475.13 C 1130.99 473.74, 1132.13 472.94, 1133.77 471.79 C 1135.42 470.64, 1136.06 470.13, 1136.74 469.38 C 1137.41 468.63, 1137.43 468.25, 1137.15 468.04 C 1136.87 467.83, 1136.25 467.80, 1135.33 468.34 C 1134.42 468.88, 1133.66 469.48, 1132.59 470.72 C 1131.52 471.96, 1130.96 472.96, 1129.99 474.52 C 1129.03 476.08, 1128.42 477.06, 1127.76 478.54 C 1127.09 480.01, 1126.74 480.76, 1126.67 481.88 C 1126.60 483.00, 1126.79 483.54, 1127.40 484.13 C 1128.01 484.71, 1128.62 484.94, 1129.73 484.81 C 1130.83 484.68, 1131.58 484.35, 1132.92 483.47 C 1134.26 482.59, 1134.98 481.77, 1136.43 480.39 C 1137.88 479.01, 1138.68 478.06, 1140.16 476.57 C 1141.64 475.09, 1142.49 474.26, 1143.84 472.95 C 1145.19 471.63, 1145.94 470.91, 1146.89 470.00 C 1147.85 469.09, 1148.18 468.72, 1148.61 468.40 C 1149.03 468.08, 1148.99 468.09, 1149.00 468.39 C 1149.02 468.70, 1148.71 469.07, 1148.68 469.94 C 1148.64 470.80, 1148.50 471.55, 1148.82 472.72 C 1149.14 473.90, 1149.47 474.69, 1150.27 475.81 C 1151.07 476.93, 1151.60 477.54, 1152.83 478.32 C 1154.07 479.09, 1154.81 479.44, 1156.44 479.69 C 1158.07 479.94, 1159.05 479.91, 1160.98 479.57 C 1162.90 479.22, 1163.99 478.82, 1166.06 477.97 C 1168.14 477.11, 1169.26 476.48, 1171.34 475.29 C 1173.41 474.10, 1174.57 473.34, 1176.44 472.02 C 1178.32 470.70, 1179.46 469.91, 1180.73 468.69 C 1182.00 467.47, 1182.50 466.71, 1182.79 465.93 C 1183.09 465.14, 1182.82 464.77, 1182.23 464.77 C 1181.63 464.77, 1180.91 464.98, 1179.82 465.92 C 1178.72 466.86, 1177.86 467.74, 1176.74 469.47 C 1175.62 471.20, 1175.06 472.51, 1174.22 474.57 C 1173.38 476.62, 1172.92 477.78, 1172.52 479.75 C 1172.13 481.72, 1171.98 482.76, 1172.25 484.43 C 1172.52 486.10, 1172.84 486.95, 1173.85 488.12 C 1174.87 489.28, 1175.66 489.80, 1177.33 490.24 C 1178.99 490.69, 1180.06 490.71, 1182.20 490.35 C 1184.33 489.99, 1185.58 489.54, 1188.00 488.45 C 1190.42 487.35, 1191.76 486.50, 1194.30 484.87 C 1196.84 483.25, 1198.19 482.16, 1200.68 480.32 C 1203.18 478.48, 1204.58 477.49, 1206.79 475.68 C 1208.99 473.87, 1210.21 472.79, 1211.71 471.27 C 1213.20 469.75, 1213.78 468.90, 1214.26 468.08 C 1214.74 467.26, 1214.55 466.92, 1214.12 467.17 C 1213.69 467.42, 1213.07 467.81, 1212.11 469.32 C 1211.15 470.84, 1210.47 472.07, 1209.30 474.74 C 1208.14 477.41, 1207.71 479.26, 1206.29 482.68 C 1204.86 486.09, 1203.99 488.02, 1202.18 491.82 C 1200.36 495.62, 1199.29 497.71, 1197.20 501.68 C 1195.11 505.66, 1193.97 507.80, 1191.73 511.69 C 1189.49 515.58, 1188.29 517.62, 1185.99 521.13 C 1183.69 524.64, 1182.46 526.41, 1180.23 529.26 C 1178.00 532.11, 1176.73 533.34, 1174.83 535.37 C 1172.93 537.40, 1172.03 538.26, 1170.72 539.41 C 1169.41 540.57, 1168.89 540.90, 1168.26 541.14 C 1167.63 541.38, 1167.57 541.27, 1167.57 540.62 C 1167.58 539.96, 1167.75 539.43, 1168.28 537.84 C 1168.82 536.26, 1169.20 535.17, 1170.25 532.67 C 1171.30 530.17, 1171.77 528.47, 1173.53 525.33 C 1175.30 522.20, 1176.45 520.45, 1179.06 516.99 C 1181.67 513.53, 1183.25 511.67, 1186.57 508.04 C 1189.89 504.40, 1191.83 502.51, 1195.66 498.82 C 1199.50 495.13, 1201.60 493.25, 1205.74 489.58 C 1209.88 485.91, 1212.09 484.04, 1216.36 480.48 C 1220.64 476.92, 1222.91 475.17, 1227.10 471.78 C 1231.28 468.40, 1233.39 466.68, 1237.29 463.57 C 1241.20 460.45, 1243.13 458.92, 1246.61 456.20 C 1250.10 453.47, 1251.83 452.18, 1254.71 449.95 C 1257.59 447.71, 1259.04 446.79, 1261.03 445.01 C 1263.02 443.23, 1263.85 442.26, 1264.64 441.05 C 1265.43 439.85, 1265.43 439.23, 1265.00 438.99 C 1264.56 438.74, 1263.80 438.80, 1262.47 439.84 C 1261.14 440.88, 1260.12 441.81, 1258.36 444.17 C 1256.59 446.53, 1255.72 448.41, 1253.65 451.62 C 1251.58 454.83, 1250.29 456.77, 1248.02 460.22 C 1245.76 463.68, 1244.48 465.58, 1242.33 468.90 C 1240.18 472.21, 1239.07 473.92, 1237.28 476.79 C 1235.49 479.66, 1234.55 480.99, 1233.38 483.24 C 1232.21 485.50, 1231.91 486.57, 1231.44 488.08 C 1230.97 489.59, 1230.93 490.17, 1231.04 490.79 C 1231.14 491.42, 1231.44 491.52, 1231.96 491.20 C 1232.48 490.88, 1232.75 490.43, 1233.66 489.19 C 1234.57 487.95, 1235.22 487.13, 1236.50 484.98 C 1237.78 482.84, 1238.40 481.36, 1240.07 478.47 C 1241.74 475.57, 1242.75 473.82, 1244.85 470.52 C 1246.95 467.22, 1248.22 465.32, 1250.59 461.97 C 1252.95 458.61, 1254.33 456.75, 1256.66 453.75 C 1258.98 450.76, 1260.50 449.37, 1262.21 446.99 C 1263.91 444.61, 1264.56 443.45, 1265.18 441.84 C 1265.80 440.24, 1265.76 439.51, 1265.31 438.97 C 1264.86 438.43, 1264.28 438.48, 1262.95 439.16 C 1261.63 439.83, 1260.72 440.63, 1258.70 442.35 C 1256.69 444.07, 1255.61 445.35, 1252.89 447.74 C 1250.17 450.14, 1248.48 451.48, 1245.09 454.31 C 1241.69 457.13, 1239.77 458.69, 1235.91 461.86 C 1232.05 465.03, 1229.96 466.76, 1225.79 470.17 C 1221.62 473.58, 1219.34 475.34, 1215.06 478.91 C 1210.77 482.48, 1208.54 484.36, 1204.36 488.02 C 1200.18 491.68, 1198.05 493.55, 1194.14 497.22 C 1190.23 500.90, 1188.26 502.77, 1184.80 506.38 C 1181.34 509.98, 1179.70 511.83, 1176.86 515.25 C 1174.02 518.67, 1172.76 520.37, 1170.60 523.49 C 1168.44 526.61, 1167.30 528.11, 1166.06 530.84 C 1164.82 533.57, 1164.53 535.01, 1164.40 537.15 C 1164.27 539.29, 1164.61 540.31, 1165.41 541.53 C 1166.21 542.76, 1166.99 543.19, 1168.42 543.28 C 1169.85 543.36, 1170.76 543.06, 1172.56 541.95 C 1174.36 540.85, 1175.41 539.95, 1177.41 537.76 C 1179.42 535.58, 1180.42 534.06, 1182.58 531.02 C 1184.75 527.98, 1185.95 526.18, 1188.23 522.57 C 1190.50 518.96, 1191.70 516.90, 1193.96 512.98 C 1196.22 509.05, 1197.37 506.90, 1199.54 502.93 C 1201.70 498.97, 1202.80 496.88, 1204.79 493.14 C 1206.78 489.39, 1207.72 487.49, 1209.50 484.21 C 1211.27 480.92, 1212.40 479.40, 1213.66 476.71 C 1214.92 474.02, 1215.44 472.68, 1215.80 470.74 C 1216.17 468.81, 1216.02 467.96, 1215.48 467.04 C 1214.93 466.13, 1214.35 465.92, 1213.09 466.17 C 1211.83 466.42, 1210.97 467.02, 1209.18 468.27 C 1207.39 469.52, 1206.31 470.67, 1204.13 472.43 C 1201.96 474.19, 1200.74 475.32, 1198.32 477.07 C 1195.89 478.83, 1194.47 479.74, 1192.03 481.19 C 1189.58 482.65, 1188.26 483.32, 1186.10 484.33 C 1183.95 485.35, 1182.90 485.75, 1181.26 486.26 C 1179.62 486.76, 1178.94 486.88, 1177.89 486.87 C 1176.84 486.86, 1176.50 486.75, 1176.03 486.22 C 1175.56 485.68, 1175.47 485.27, 1175.54 484.20 C 1175.61 483.12, 1175.79 482.36, 1176.39 480.85 C 1176.99 479.35, 1177.52 478.39, 1178.53 476.68 C 1179.53 474.97, 1180.43 474.01, 1181.40 472.31 C 1182.37 470.61, 1182.95 469.61, 1183.37 468.18 C 1183.78 466.74, 1183.81 465.97, 1183.46 465.14 C 1183.12 464.32, 1182.67 464.01, 1181.64 464.06 C 1180.60 464.11, 1179.80 464.51, 1178.27 465.37 C 1176.73 466.24, 1175.79 467.18, 1173.96 468.39 C 1172.14 469.61, 1171.07 470.35, 1169.15 471.44 C 1167.22 472.53, 1166.14 473.06, 1164.33 473.85 C 1162.51 474.64, 1161.56 474.97, 1160.06 475.37 C 1158.56 475.77, 1157.86 475.88, 1156.81 475.87 C 1155.76 475.86, 1155.39 475.75, 1154.79 475.32 C 1154.18 474.90, 1154.09 474.52, 1153.79 473.76 C 1153.49 472.99, 1153.57 472.45, 1153.29 471.48 C 1153.02 470.52, 1152.94 469.86, 1152.41 468.92 C 1151.89 467.98, 1151.53 467.37, 1150.65 466.77 C 1149.78 466.17, 1149.22 465.89, 1148.04 465.94 C 1146.86 465.98, 1146.16 466.23, 1144.76 467.00 C 1143.36 467.76, 1142.57 468.51, 1141.02 469.75 C 1139.47 470.99, 1138.62 471.81, 1137.01 473.20 C 1135.41 474.59, 1134.44 475.38, 1132.99 476.69 C 1131.54 478.01, 1130.73 478.68, 1129.76 479.77 C 1128.78 480.87, 1128.44 481.43, 1128.12 482.17 C 1127.79 482.91, 1127.88 483.27, 1128.13 483.47 C 1128.39 483.66, 1128.72 483.64, 1129.39 483.13 C 1130.07 482.61, 1130.54 482.03, 1131.51 480.88 C 1132.48 479.74, 1133.18 478.85, 1134.25 477.41 C 1135.32 475.97, 1136.07 475.13, 1136.86 473.68 C 1137.66 472.22, 1138.04 471.34, 1138.21 470.13 C 1138.38 468.93, 1138.24 468.26, 1137.71 467.67 C 1137.19 467.09, 1136.74 467.00, 1135.59 467.21 C 1134.44 467.43, 1133.76 467.86, 1131.96 468.76 C 1130.17 469.66, 1129.03 470.36, 1126.59 471.73 C 1124.16 473.09, 1122.74 474.09, 1119.81 475.60 C 1116.88 477.11, 1115.14 477.96, 1111.96 479.27 C 1108.78 480.57, 1106.99 481.26, 1103.92 482.12 C 1100.86 482.98, 1099.25 483.19, 1096.64 483.56 C 1094.04 483.93, 1092.83 484.05, 1090.92 483.97 C 1089.00 483.89, 1088.20 483.73, 1087.09 483.16 C 1085.97 482.60, 1085.63 482.20, 1085.35 481.14 C 1085.08 480.08, 1085.16 479.37, 1085.71 477.86 C 1086.27 476.35, 1086.82 475.35, 1088.13 473.59 C 1089.44 471.83, 1090.42 470.76, 1092.27 469.04 C 1094.12 467.33, 1095.34 466.38, 1097.37 465.01 C 1099.41 463.64, 1100.62 463.06, 1102.45 462.21 C 1104.29 461.35, 1105.24 461.15, 1106.55 460.75 C 1107.87 460.35, 1108.40 460.24, 1109.03 460.19 C 1109.66 460.15, 1109.79 460.16, 1109.71 460.53 C 1109.63 460.90, 1109.44 461.24, 1108.62 462.05 C 1107.80 462.85, 1107.16 463.47, 1105.59 464.55 C 1104.02 465.62, 1102.94 466.31, 1100.76 467.42 C 1098.59 468.53, 1097.22 469.16, 1094.72 470.09 C 1092.21 471.02, 1090.75 471.47, 1088.24 472.09 C 1085.73 472.70, 1084.37 472.95, 1082.16 473.14 C 1079.96 473.34, 1078.88 473.32, 1077.21 473.08 C 1075.53 472.85, 1074.81 472.58, 1073.78 471.98 C 1072.76 471.38, 1072.62 470.82, 1072.07 470.09 C 1071.53 469.36, 1071.57 468.95, 1071.07 468.33 C 1070.57 467.72, 1070.22 467.35, 1069.58 467.00 C 1068.93 466.66, 1068.58 466.39, 1067.85 466.60 C 1067.13 466.80, 1066.85 467.09, 1065.97 468.02 C 1065.10 468.95, 1064.69 469.80, 1063.48 471.25 C 1062.27 472.70, 1061.54 473.65, 1059.93 475.28 C 1058.31 476.91, 1057.28 477.87, 1055.40 479.40 C 1053.52 480.93, 1052.40 481.73, 1050.53 482.92 C 1048.66 484.11, 1047.66 484.63, 1046.05 485.36 C 1044.45 486.09, 1043.66 486.33, 1042.49 486.58 C 1041.32 486.83, 1040.85 486.88, 1040.20 486.60 C 1039.56 486.32, 1039.35 486.06, 1039.25 485.18 C 1039.15 484.30, 1039.22 483.64, 1039.70 482.19 C 1040.19 480.73, 1040.71 479.73, 1041.68 477.90 C 1042.65 476.07, 1043.58 474.95, 1044.55 473.04 C 1045.53 471.13, 1046.13 469.93, 1046.55 468.34 C 1046.97 466.75, 1047.05 465.87, 1046.66 465.09 C 1046.28 464.32, 1045.82 464.12, 1044.62 464.47 C 1043.41 464.82, 1042.51 465.46, 1040.63 466.83 C 1038.74 468.21, 1037.58 469.47, 1035.18 471.33 C 1032.77 473.20, 1031.37 474.34, 1028.59 476.15 C 1025.82 477.97, 1024.23 478.95, 1021.32 480.41 C 1018.40 481.88, 1016.77 482.53, 1014.03 483.48 C 1011.28 484.43, 1009.86 484.75, 1007.59 485.17 C 1005.32 485.60, 1004.27 485.71, 1002.67 485.60 C 1001.06 485.50, 1000.40 485.36, 999.55 484.67 C 998.69 483.98, 998.43 483.49, 998.39 482.14 C 998.35 480.80, 998.53 479.89, 999.35 477.95 C 1000.17 476.02, 1000.87 474.79, 1002.47 472.48 C 1004.08 470.17, 1005.18 468.69, 1007.39 466.41 C 1009.60 464.13, 1011.09 462.88, 1013.52 461.08 C 1015.95 459.28, 1017.44 458.59, 1019.54 457.43 C 1021.65 456.26, 1022.64 455.86, 1024.06 455.26 C 1025.48 454.66, 1026.00 454.53, 1026.63 454.44 C 1027.27 454.35, 1027.34 454.37, 1027.24 454.82 C 1027.14 455.28, 1026.93 455.69, 1026.13 456.72 C 1025.33 457.75, 1024.73 458.49, 1023.23 459.98 C 1021.73 461.47, 1020.67 462.42, 1018.63 464.17 C 1016.59 465.92, 1015.38 467.03, 1013.02 468.73 C 1010.66 470.44, 1009.23 471.25, 1006.84 472.71 C 1004.45 474.16, 1003.04 474.83, 1001.07 475.99 C 999.10 477.16, 998.23 477.67, 996.98 478.55 C 995.72 479.44, 995.11 479.76, 994.79 480.43 C 994.46 481.10, 994.63 481.63, 995.35 481.90" style="stroke: black; fill: black;"/><path d="M 1225.88,483.53 C 1226.06 484.05, 1226.27 484.42, 1227.13 484.77 C 1227.99 485.12, 1228.61 485.31, 1230.18 485.27 C 1231.75 485.24, 1232.74 485.18, 1234.97 484.59 C 1237.21 483.99, 1238.59 483.52, 1241.37 482.30 C 1244.14 481.07, 1245.66 480.20, 1248.85 478.48 C 1252.05 476.76, 1253.85 475.76, 1257.35 473.69 C 1260.84 471.62, 1262.76 470.46, 1266.34 468.14 C 1269.92 465.81, 1271.83 464.51, 1275.25 462.07 C 1278.66 459.64, 1280.41 458.31, 1283.43 455.96 C 1286.44 453.61, 1288.00 452.43, 1290.32 450.32 C 1292.65 448.21, 1293.76 447.16, 1295.06 445.41 C 1296.37 443.65, 1296.75 442.77, 1296.85 441.56 C 1296.96 440.34, 1296.57 439.70, 1295.58 439.35 C 1294.58 438.99, 1293.62 438.94, 1291.87 439.76 C 1290.11 440.57, 1288.91 441.36, 1286.78 443.41 C 1284.64 445.46, 1283.57 447.13, 1281.20 450.01 C 1278.82 452.89, 1277.39 454.64, 1274.90 457.82 C 1272.41 461.00, 1271.02 462.82, 1268.76 465.92 C 1266.51 469.01, 1265.29 470.60, 1263.61 473.31 C 1261.93 476.02, 1261.16 477.32, 1260.37 479.47 C 1259.57 481.63, 1259.42 482.61, 1259.65 484.09 C 1259.87 485.56, 1260.32 486.17, 1261.50 486.84 C 1262.68 487.50, 1263.65 487.64, 1265.54 487.42 C 1267.43 487.20, 1268.64 486.72, 1270.95 485.74 C 1273.26 484.75, 1274.63 483.86, 1277.11 482.49 C 1279.59 481.12, 1281.16 480.17, 1283.34 478.88 C 1285.52 477.59, 1286.64 476.85, 1288.00 476.03 C 1289.37 475.21, 1289.79 474.90, 1290.17 474.76 C 1290.54 474.63, 1290.31 474.76, 1289.88 475.36 C 1289.45 475.97, 1288.71 476.55, 1288.01 477.77 C 1287.31 479.00, 1286.77 479.96, 1286.39 481.50 C 1286.01 483.04, 1285.90 484.05, 1286.12 485.48 C 1286.35 486.92, 1286.58 487.72, 1287.50 488.68 C 1288.41 489.65, 1289.13 490.09, 1290.71 490.31 C 1292.29 490.54, 1293.31 490.40, 1295.41 489.81 C 1297.51 489.21, 1298.76 488.61, 1301.20 487.34 C 1303.64 486.07, 1305.03 485.02, 1307.60 483.44 C 1310.18 481.85, 1311.72 480.95, 1314.09 479.44 C 1316.45 477.92, 1317.80 477.02, 1319.41 475.88 C 1321.02 474.73, 1321.63 474.14, 1322.12 473.70 C 1322.62 473.26, 1322.38 473.25, 1321.87 473.68 C 1321.36 474.12, 1320.59 474.64, 1319.58 475.89 C 1318.56 477.14, 1317.70 478.18, 1316.78 479.92 C 1315.87 481.66, 1315.40 482.89, 1315.02 484.61 C 1314.64 486.34, 1314.53 487.25, 1314.88 488.55 C 1315.23 489.85, 1315.63 490.49, 1316.78 491.12 C 1317.92 491.74, 1318.80 491.90, 1320.62 491.68 C 1322.43 491.46, 1323.57 491.04, 1325.84 490.02 C 1328.12 488.99, 1329.41 488.11, 1331.98 486.56 C 1334.55 485.01, 1336.01 483.92, 1338.72 482.27 C 1341.42 480.62, 1343.01 479.76, 1345.51 478.33 C 1348.01 476.89, 1349.42 476.12, 1351.20 475.10 C 1352.98 474.08, 1353.70 473.61, 1354.41 473.23 C 1355.12 472.85, 1355.04 472.83, 1354.75 473.20 C 1354.46 473.56, 1353.87 473.99, 1352.96 475.06 C 1352.05 476.13, 1351.25 477.01, 1350.21 478.55 C 1349.18 480.09, 1348.49 481.15, 1347.78 482.76 C 1347.08 484.36, 1346.71 485.28, 1346.68 486.57 C 1346.66 487.85, 1346.82 488.54, 1347.66 489.20 C 1348.50 489.86, 1349.25 490.06, 1350.89 489.85 C 1352.54 489.63, 1353.69 489.17, 1355.90 488.12 C 1358.11 487.06, 1359.42 486.03, 1361.96 484.58 C 1364.51 483.14, 1366.09 482.19, 1368.64 480.88 C 1371.18 479.57, 1372.63 478.91, 1374.70 478.02 C 1376.77 477.13, 1377.72 476.76, 1378.96 476.42 C 1380.20 476.08, 1380.57 476.09, 1380.91 476.32 C 1381.25 476.54, 1381.00 476.78, 1380.66 477.54 C 1380.32 478.31, 1379.76 478.90, 1379.21 480.13 C 1378.66 481.36, 1378.19 482.22, 1377.90 483.70 C 1377.62 485.17, 1377.47 486.14, 1377.78 487.52 C 1378.10 488.89, 1378.43 489.69, 1379.49 490.58 C 1380.54 491.48, 1381.29 491.84, 1383.04 491.98 C 1384.78 492.12, 1385.90 491.97, 1388.21 491.28 C 1390.53 490.59, 1391.91 489.91, 1394.63 488.53 C 1397.34 487.16, 1398.86 486.11, 1401.78 484.39 C 1404.71 482.67, 1406.36 481.64, 1409.23 479.93 C 1412.11 478.23, 1413.73 477.39, 1416.18 475.87 C 1418.62 474.35, 1419.82 473.59, 1421.46 472.33 C 1423.10 471.07, 1423.76 470.54, 1424.38 469.57 C 1425.00 468.59, 1424.98 468.10, 1424.56 467.45 C 1424.13 466.80, 1423.49 466.43, 1422.26 466.32 C 1421.04 466.22, 1420.08 466.33, 1418.43 466.92 C 1416.78 467.50, 1415.78 468.14, 1414.01 469.24 C 1412.25 470.34, 1411.22 471.09, 1409.61 472.43 C 1407.99 473.78, 1407.10 474.55, 1405.93 475.96 C 1404.76 477.36, 1404.23 478.10, 1403.76 479.45 C 1403.28 480.80, 1403.20 481.54, 1403.57 482.70 C 1403.93 483.86, 1404.43 484.54, 1405.58 485.24 C 1406.73 485.95, 1407.62 486.16, 1409.32 486.24 C 1411.02 486.31, 1412.08 486.08, 1414.08 485.62 C 1416.07 485.15, 1417.22 484.69, 1419.31 483.89 C 1421.40 483.10, 1422.61 482.56, 1424.52 481.63 C 1426.42 480.71, 1427.54 480.07, 1428.83 479.27 C 1430.13 478.47, 1430.58 477.91, 1430.99 477.65 C 1431.40 477.38, 1431.26 477.29, 1430.88 477.93 C 1430.50 478.57, 1430.01 479.13, 1429.07 480.86 C 1428.14 482.60, 1427.51 483.91, 1426.19 486.61 C 1424.87 489.31, 1424.18 491.08, 1422.47 494.36 C 1420.76 497.64, 1419.72 499.50, 1417.65 503.00 C 1415.58 506.50, 1414.39 508.42, 1412.12 511.87 C 1409.84 515.31, 1408.59 517.14, 1406.27 520.23 C 1403.94 523.32, 1402.70 524.86, 1400.50 527.32 C 1398.31 529.78, 1397.12 530.82, 1395.29 532.53 C 1393.47 534.23, 1392.63 534.93, 1391.37 535.86 C 1390.11 536.78, 1389.61 536.99, 1389.00 537.13 C 1388.38 537.28, 1388.33 537.17, 1388.30 536.60 C 1388.28 536.03, 1388.41 535.56, 1388.88 534.27 C 1389.36 532.97, 1389.66 532.10, 1390.68 530.12 C 1391.71 528.13, 1392.28 526.83, 1394.02 524.32 C 1395.75 521.81, 1396.82 520.32, 1399.36 517.56 C 1401.90 514.80, 1403.47 513.32, 1406.73 510.50 C 1409.98 507.68, 1411.88 506.24, 1415.63 503.46 C 1419.38 500.68, 1421.45 499.28, 1425.46 496.61 C 1429.47 493.93, 1431.64 492.58, 1435.69 490.08 C 1439.74 487.58, 1441.84 486.37, 1445.70 484.09 C 1449.57 481.81, 1451.52 480.71, 1455.04 478.69 C 1458.56 476.67, 1460.27 475.71, 1463.31 473.97 C 1466.34 472.24, 1467.80 471.52, 1470.22 470.01 C 1472.63 468.49, 1473.61 467.71, 1475.36 466.41 C 1477.12 465.10, 1477.84 464.58, 1478.97 463.46 C 1480.10 462.34, 1480.51 461.71, 1481.02 460.79 C 1481.53 459.87, 1481.60 459.37, 1481.51 458.86 C 1481.43 458.35, 1481.08 458.18, 1480.61 458.24 C 1480.13 458.31, 1479.89 458.63, 1479.14 459.19 C 1478.39 459.75, 1478.00 460.17, 1476.85 461.06 C 1475.70 461.96, 1475.10 462.48, 1473.39 463.67 C 1471.67 464.86, 1470.61 465.47, 1468.28 467.02 C 1465.96 468.57, 1464.67 469.53, 1461.75 471.41 C 1458.83 473.28, 1457.14 474.29, 1453.68 476.40 C 1450.22 478.52, 1448.29 479.64, 1444.44 481.97 C 1440.59 484.31, 1438.50 485.53, 1434.44 488.06 C 1430.37 490.59, 1428.19 491.93, 1424.14 494.61 C 1420.08 497.28, 1417.98 498.67, 1414.14 501.42 C 1410.30 504.18, 1408.36 505.60, 1404.94 508.37 C 1401.52 511.15, 1399.88 512.59, 1397.05 515.30 C 1394.23 518.01, 1392.90 519.35, 1390.82 521.91 C 1388.74 524.46, 1387.78 525.75, 1386.63 528.08 C 1385.49 530.41, 1385.20 531.66, 1385.09 533.57 C 1384.98 535.48, 1385.30 536.46, 1386.08 537.62 C 1386.85 538.79, 1387.58 539.21, 1388.96 539.39 C 1390.33 539.57, 1391.19 539.38, 1392.94 538.53 C 1394.69 537.69, 1395.72 536.98, 1397.72 535.16 C 1399.72 533.33, 1400.76 532.05, 1402.94 529.41 C 1405.12 526.77, 1406.30 525.15, 1408.61 521.96 C 1410.92 518.77, 1412.17 516.92, 1414.49 513.44 C 1416.81 509.96, 1418.01 508.04, 1420.21 504.57 C 1422.41 501.10, 1423.50 499.27, 1425.50 496.10 C 1427.49 492.92, 1428.66 491.42, 1430.17 488.69 C 1431.69 485.97, 1432.45 484.64, 1433.08 482.49 C 1433.71 480.34, 1433.72 479.33, 1433.35 477.95 C 1432.98 476.57, 1432.42 476.04, 1431.23 475.59 C 1430.04 475.13, 1429.11 475.27, 1427.40 475.66 C 1425.69 476.05, 1424.63 476.77, 1422.70 477.55 C 1420.76 478.34, 1419.67 478.90, 1417.72 479.60 C 1415.76 480.30, 1414.67 480.60, 1412.93 481.07 C 1411.20 481.53, 1410.31 481.68, 1409.05 481.94 C 1407.80 482.20, 1407.31 482.32, 1406.67 482.35 C 1406.03 482.38, 1405.86 482.37, 1405.84 482.09 C 1405.81 481.81, 1405.96 481.60, 1406.55 480.93 C 1407.15 480.26, 1407.65 479.74, 1408.80 478.76 C 1409.96 477.77, 1410.78 477.07, 1412.33 476.02 C 1413.87 474.96, 1414.89 474.39, 1416.52 473.48 C 1418.16 472.58, 1419.17 472.27, 1420.51 471.49 C 1421.86 470.70, 1422.53 470.27, 1423.25 469.56 C 1423.98 468.86, 1424.20 468.34, 1424.13 467.98 C 1424.06 467.62, 1423.83 467.48, 1422.91 467.75 C 1421.98 468.01, 1421.27 468.38, 1419.50 469.33 C 1417.74 470.28, 1416.52 471.00, 1414.09 472.50 C 1411.67 473.99, 1410.19 475.08, 1407.36 476.79 C 1404.52 478.50, 1402.86 479.51, 1399.92 481.05 C 1396.99 482.59, 1395.33 483.31, 1392.69 484.49 C 1390.06 485.66, 1388.71 486.17, 1386.74 486.94 C 1384.76 487.71, 1383.94 488.03, 1382.81 488.34 C 1381.68 488.66, 1381.42 488.71, 1381.09 488.53 C 1380.76 488.35, 1380.91 488.14, 1381.17 487.43 C 1381.44 486.72, 1381.91 486.18, 1382.39 484.98 C 1382.87 483.79, 1383.31 482.92, 1383.58 481.46 C 1383.84 479.99, 1384.01 479.00, 1383.74 477.65 C 1383.47 476.29, 1383.23 475.52, 1382.22 474.67 C 1381.22 473.82, 1380.47 473.47, 1378.70 473.40 C 1376.93 473.32, 1375.75 473.56, 1373.36 474.27 C 1370.96 474.98, 1369.47 475.72, 1366.74 476.94 C 1364.01 478.16, 1362.35 479.04, 1359.70 480.38 C 1357.06 481.72, 1355.57 482.45, 1353.53 483.65 C 1351.49 484.86, 1350.58 485.54, 1349.52 486.40 C 1348.47 487.26, 1348.28 487.70, 1348.25 487.94 C 1348.21 488.19, 1348.64 488.18, 1349.36 487.65 C 1350.07 487.11, 1350.75 486.52, 1351.82 485.26 C 1352.89 484.00, 1353.75 483.03, 1354.72 481.34 C 1355.69 479.65, 1356.29 478.48, 1356.67 476.80 C 1357.05 475.13, 1357.10 474.13, 1356.63 472.97 C 1356.15 471.81, 1355.67 471.27, 1354.28 471.01 C 1352.89 470.75, 1351.82 470.92, 1349.66 471.67 C 1347.51 472.41, 1346.09 473.30, 1343.49 474.73 C 1340.89 476.16, 1339.42 477.24, 1336.68 478.83 C 1333.93 480.41, 1332.34 481.28, 1329.76 482.65 C 1327.18 484.02, 1325.82 484.65, 1323.77 485.70 C 1321.73 486.74, 1320.80 487.22, 1319.54 487.88 C 1318.28 488.53, 1317.89 488.82, 1317.47 488.95 C 1317.06 489.07, 1317.14 489.03, 1317.45 488.49 C 1317.77 487.96, 1318.20 487.47, 1319.03 486.26 C 1319.85 485.06, 1320.66 484.15, 1321.58 482.48 C 1322.49 480.81, 1323.12 479.62, 1323.59 477.90 C 1324.06 476.19, 1324.25 475.13, 1323.92 473.91 C 1323.59 472.69, 1323.21 472.07, 1321.95 471.79 C 1320.70 471.51, 1319.66 471.72, 1317.63 472.50 C 1315.59 473.27, 1314.23 474.23, 1311.78 475.66 C 1309.32 477.10, 1307.92 478.19, 1305.36 479.67 C 1302.80 481.15, 1301.28 481.89, 1298.99 483.07 C 1296.69 484.26, 1295.55 484.83, 1293.88 485.60 C 1292.21 486.37, 1291.54 486.66, 1290.64 486.93 C 1289.73 487.21, 1289.54 487.24, 1289.35 487.00 C 1289.16 486.75, 1289.35 486.48, 1289.70 485.69 C 1290.05 484.90, 1290.57 484.30, 1291.11 483.03 C 1291.64 481.76, 1292.10 480.84, 1292.38 479.33 C 1292.66 477.82, 1292.83 476.75, 1292.49 475.48 C 1292.14 474.21, 1291.79 473.53, 1290.65 472.98 C 1289.51 472.44, 1288.68 472.39, 1286.80 472.76 C 1284.92 473.13, 1283.65 473.77, 1281.25 474.85 C 1278.85 475.93, 1277.27 476.88, 1274.79 478.18 C 1272.31 479.48, 1270.91 480.24, 1268.85 481.35 C 1266.79 482.45, 1265.81 483.01, 1264.47 483.71 C 1263.14 484.42, 1262.69 484.80, 1262.18 484.88 C 1261.66 484.96, 1261.66 484.92, 1261.91 484.11 C 1262.16 483.30, 1262.50 482.61, 1263.43 480.81 C 1264.37 479.02, 1265.01 477.74, 1266.58 475.13 C 1268.16 472.51, 1269.15 470.81, 1271.31 467.74 C 1273.48 464.68, 1274.86 462.87, 1277.39 459.82 C 1279.92 456.77, 1281.40 455.07, 1283.95 452.49 C 1286.50 449.92, 1288.09 448.85, 1290.13 446.94 C 1292.17 445.03, 1293.03 444.17, 1294.13 442.93 C 1295.24 441.70, 1295.48 441.20, 1295.66 440.77 C 1295.85 440.34, 1295.69 440.29, 1295.05 440.78 C 1294.42 441.27, 1293.93 441.80, 1292.51 443.20 C 1291.09 444.61, 1290.16 445.70, 1287.97 447.79 C 1285.78 449.88, 1284.44 451.25, 1281.57 453.66 C 1278.70 456.06, 1276.97 457.39, 1273.63 459.82 C 1270.28 462.24, 1268.38 463.52, 1264.83 465.77 C 1261.27 468.02, 1259.35 469.14, 1255.85 471.05 C 1252.34 472.96, 1250.52 473.89, 1247.30 475.33 C 1244.09 476.76, 1242.47 477.28, 1239.76 478.23 C 1237.05 479.17, 1235.79 479.51, 1233.77 480.05 C 1231.75 480.58, 1230.94 480.58, 1229.64 480.89 C 1228.35 481.20, 1227.99 481.35, 1227.31 481.61 C 1226.64 481.87, 1226.55 481.81, 1226.27 482.19 C 1225.98 482.58, 1225.71 483.02, 1225.88 483.53" style="stroke: black; fill: black;"/><path d="M 1516.14,422.56 C 1515.65 422.59, 1515.59 422.66, 1514.97 423.18 C 1514.35 423.70, 1513.94 423.96, 1513.04 425.16 C 1512.13 426.36, 1511.62 427.28, 1510.46 429.19 C 1509.30 431.10, 1508.60 432.36, 1507.24 434.71 C 1505.87 437.06, 1505.05 438.44, 1503.63 440.95 C 1502.22 443.45, 1501.42 444.79, 1500.17 447.23 C 1498.92 449.67, 1498.30 450.93, 1497.40 453.14 C 1496.50 455.35, 1496.12 456.48, 1495.67 458.29 C 1495.21 460.09, 1495.17 460.91, 1495.12 462.15 C 1495.07 463.40, 1495.13 464.00, 1495.42 464.51 C 1495.71 465.03, 1496.11 465.09, 1496.57 464.74 C 1497.03 464.39, 1497.22 463.85, 1497.73 462.78 C 1498.23 461.71, 1498.45 461.01, 1499.10 459.39 C 1499.74 457.77, 1500.01 456.72, 1500.95 454.68 C 1501.89 452.63, 1502.51 451.47, 1503.80 449.17 C 1505.08 446.86, 1505.87 445.56, 1507.37 443.16 C 1508.87 440.77, 1509.82 439.47, 1511.29 437.19 C 1512.76 434.90, 1513.58 433.69, 1514.73 431.74 C 1515.87 429.79, 1516.41 428.87, 1517.02 427.44 C 1517.63 426.01, 1517.69 425.46, 1517.77 424.58 C 1517.85 423.69, 1517.73 423.43, 1517.41 423.02 C 1517.08 422.62, 1516.63 422.53, 1516.14 422.56" style="stroke: black; fill: black;"/><path d="M 1493.72,490.64 C 1493.50 491.22, 1493.45 491.62, 1493.64 491.93 C 1493.82 492.24, 1494.25 492.32, 1494.65 492.18 C 1495.04 492.04, 1495.40 491.76, 1495.61 491.23 C 1495.81 490.70, 1495.63 490.07, 1495.66 489.53 C 1495.68 489.00, 1495.72 488.80, 1495.73 488.55 C 1495.74 488.30, 1495.91 488.17, 1495.70 488.26 C 1495.50 488.35, 1495.11 488.53, 1494.71 489.00 C 1494.31 489.48, 1493.93 490.05, 1493.72 490.64" style="stroke: black; fill: black;"/></svg>