<svg xmlns="http://www.w3.org/2000/svg" id="canvas" viewBox="274.839 409.999 1123.507 163.686"><path d="M 279.31,481.92 C 280.05 481.95, 280.50 481.48, 281.59 480.89 C 282.68 480.29, 283.32 479.86, 284.77 478.93 C 286.22 478.01, 287.14 477.29, 288.83 476.26 C 290.52 475.24, 291.55 474.69, 293.21 473.83 C 294.88 472.96, 295.90 472.48, 297.14 471.94 C 298.38 471.40, 298.89 471.06, 299.42 471.13 C 299.95 471.21, 299.94 471.29, 299.80 472.31 C 299.67 473.33, 299.28 474.12, 298.74 476.23 C 298.19 478.33, 297.84 479.86, 297.07 482.85 C 296.31 485.84, 295.83 487.75, 294.93 491.20 C 294.02 494.64, 293.41 496.58, 292.57 500.05 C 291.73 503.53, 291.19 505.37, 290.72 508.55 C 290.24 511.74, 290.02 513.36, 290.21 515.97 C 290.39 518.59, 290.69 519.84, 291.64 521.63 C 292.58 523.41, 293.29 524.18, 294.93 524.91 C 296.57 525.64, 297.69 525.76, 299.85 525.27 C 302.00 524.78, 303.33 524.25, 305.70 522.46 C 308.07 520.67, 309.16 519.12, 311.69 516.31 C 314.22 513.50, 315.68 511.72, 318.37 508.40 C 321.06 505.07, 322.54 503.12, 325.14 499.70 C 327.75 496.27, 329.09 494.37, 331.39 491.28 C 333.69 488.19, 335.00 486.73, 336.64 484.24 C 338.27 481.76, 338.98 480.43, 339.57 478.85 C 340.15 477.28, 339.99 476.58, 339.58 476.36 C 339.18 476.14, 338.46 476.40, 337.54 477.76 C 336.61 479.11, 335.88 480.30, 334.94 483.12 C 334.01 485.94, 333.79 488.04, 332.87 491.85 C 331.95 495.66, 331.38 497.93, 330.34 502.18 C 329.30 506.42, 328.74 508.69, 327.65 513.09 C 326.56 517.49, 326.04 519.82, 324.89 524.19 C 323.73 528.56, 323.17 530.83, 321.90 534.96 C 320.62 539.10, 319.97 541.18, 318.49 544.87 C 317.01 548.57, 316.21 550.40, 314.50 553.45 C 312.79 556.50, 311.78 557.88, 309.95 560.11 C 308.13 562.35, 307.11 563.26, 305.37 564.62 C 303.63 565.97, 302.72 566.45, 301.25 566.89 C 299.78 567.34, 299.09 567.32, 298.00 566.84 C 296.91 566.36, 296.46 565.88, 295.81 564.49 C 295.16 563.10, 294.92 562.14, 294.76 559.89 C 294.59 557.64, 294.45 556.24, 294.98 553.25 C 295.52 550.25, 295.95 548.42, 297.44 544.92 C 298.92 541.42, 299.96 539.46, 302.40 535.74 C 304.85 532.02, 306.40 530.06, 309.66 526.31 C 312.93 522.56, 314.89 520.64, 318.74 517.01 C 322.59 513.38, 324.73 511.58, 328.89 508.16 C 333.06 504.74, 335.32 503.06, 339.57 499.92 C 343.82 496.78, 346.08 495.24, 350.15 492.44 C 354.23 489.65, 356.29 488.30, 359.94 485.94 C 363.59 483.59, 365.41 482.53, 368.41 480.67 C 371.41 478.80, 372.87 478.09, 374.95 476.63 C 377.02 475.16, 377.81 474.49, 378.78 473.35 C 379.75 472.22, 379.92 471.72, 379.79 470.94 C 379.65 470.16, 379.13 469.66, 378.10 469.45 C 377.08 469.25, 376.17 469.24, 374.66 469.90 C 373.15 470.56, 372.25 471.24, 370.55 472.76 C 368.84 474.27, 367.86 475.37, 366.12 477.49 C 364.38 479.61, 363.34 480.92, 361.84 483.35 C 360.34 485.78, 359.55 487.19, 358.62 489.64 C 357.69 492.08, 357.30 493.42, 357.20 495.57 C 357.09 497.72, 357.27 498.81, 358.08 500.40 C 358.89 501.99, 359.65 502.73, 361.25 503.53 C 362.84 504.34, 363.99 504.55, 366.07 504.41 C 368.14 504.27, 369.41 503.85, 371.64 502.82 C 373.87 501.79, 375.10 500.95, 377.23 499.24 C 379.35 497.54, 380.46 496.43, 382.28 494.30 C 384.10 492.18, 385.02 490.92, 386.32 488.62 C 387.63 486.32, 388.17 485.04, 388.80 482.79 C 389.43 480.54, 389.52 479.36, 389.45 477.39 C 389.39 475.42, 389.07 474.46, 388.46 472.96 C 387.85 471.45, 387.30 470.69, 386.39 469.85 C 385.49 469.01, 384.75 468.70, 383.92 468.75 C 383.10 468.81, 382.46 469.38, 382.28 470.13 C 382.10 470.88, 382.20 471.71, 383.02 472.50 C 383.83 473.29, 384.65 473.70, 386.37 474.10 C 388.08 474.50, 389.24 474.52, 391.59 474.52 C 393.94 474.53, 395.36 474.44, 398.12 474.12 C 400.88 473.81, 402.49 473.48, 405.38 472.97 C 408.26 472.46, 409.86 472.15, 412.55 471.59 C 415.25 471.02, 416.70 470.71, 418.85 470.13 C 420.99 469.55, 422.14 469.13, 423.29 468.69 C 424.43 468.25, 424.65 467.84, 424.56 467.93 C 424.48 468.02, 423.94 468.15, 422.86 469.13 C 421.79 470.12, 420.79 470.92, 419.19 472.84 C 417.58 474.76, 416.51 476.28, 414.84 478.73 C 413.18 481.19, 412.11 482.68, 410.87 485.11 C 409.62 487.55, 409.02 488.82, 408.62 490.91 C 408.21 492.99, 408.20 494.05, 408.83 495.56 C 409.46 497.06, 410.16 497.78, 411.76 498.44 C 413.37 499.11, 414.54 499.22, 416.84 498.88 C 419.14 498.54, 420.58 498.07, 423.26 496.73 C 425.95 495.40, 427.37 494.21, 430.26 492.21 C 433.15 490.22, 434.78 488.97, 437.71 486.77 C 440.65 484.57, 442.29 483.31, 444.95 481.22 C 447.60 479.13, 449.24 478.04, 450.98 476.32 C 452.71 474.61, 453.25 473.57, 453.62 472.64 C 453.98 471.70, 453.60 471.43, 452.80 471.66 C 452.01 471.89, 451.02 472.37, 449.64 473.79 C 448.26 475.22, 447.14 476.52, 445.90 478.79 C 444.66 481.06, 444.11 482.72, 443.44 485.12 C 442.77 487.53, 442.46 488.80, 442.56 490.82 C 442.67 492.83, 442.90 493.85, 443.97 495.20 C 445.03 496.56, 445.93 497.14, 447.89 497.59 C 449.86 498.05, 451.20 498.06, 453.80 497.45 C 456.40 496.85, 457.91 496.04, 460.90 494.55 C 463.88 493.07, 465.54 491.94, 468.72 490.02 C 471.89 488.11, 473.68 486.90, 476.77 484.97 C 479.86 483.05, 481.61 482.05, 484.16 480.41 C 486.71 478.76, 488.01 477.88, 489.51 476.76 C 491.02 475.63, 491.42 475.09, 491.68 474.78 C 491.95 474.47, 491.53 474.54, 490.82 475.19 C 490.10 475.83, 489.28 476.49, 488.11 478.01 C 486.94 479.52, 486.12 480.79, 484.98 482.77 C 483.84 484.74, 483.18 486.07, 482.42 487.89 C 481.65 489.71, 481.25 490.64, 481.18 491.88 C 481.10 493.12, 481.34 493.69, 482.05 494.09 C 482.76 494.50, 483.49 494.52, 484.72 493.91 C 485.96 493.31, 486.74 492.60, 488.23 491.07 C 489.72 489.55, 490.49 488.30, 492.15 486.27 C 493.81 484.25, 494.74 482.97, 496.52 480.94 C 498.31 478.92, 499.28 477.84, 501.08 476.16 C 502.88 474.48, 503.80 473.71, 505.52 472.54 C 507.24 471.38, 508.04 470.98, 509.67 470.34 C 511.29 469.70, 512.01 469.56, 513.64 469.34 C 515.28 469.13, 516.06 469.48, 517.84 469.28 C 519.62 469.09, 521.60 469.03, 522.55 468.38 C 523.51 467.73, 523.57 466.75, 522.62 466.05 C 521.66 465.35, 519.69 465.02, 517.77 464.88 C 515.85 464.75, 514.92 465.02, 513.02 465.36 C 511.11 465.71, 510.20 465.90, 508.25 466.62 C 506.30 467.34, 505.30 467.76, 503.26 468.97 C 501.22 470.18, 500.13 470.99, 498.05 472.68 C 495.97 474.37, 494.89 475.45, 492.85 477.43 C 490.81 479.40, 489.66 480.55, 487.84 482.55 C 486.02 484.55, 484.97 485.64, 483.75 487.42 C 482.54 489.19, 482.12 490.17, 481.78 491.41 C 481.44 492.66, 481.61 493.24, 482.05 493.65 C 482.49 494.06, 483.01 494.06, 483.97 493.45 C 484.94 492.84, 485.63 492.10, 486.88 490.58 C 488.14 489.06, 489.04 487.87, 490.24 485.85 C 491.44 483.84, 492.22 482.50, 492.89 480.51 C 493.56 478.51, 493.79 477.33, 493.58 475.86 C 493.38 474.38, 493.05 473.62, 491.88 473.14 C 490.71 472.65, 489.76 472.70, 487.75 473.44 C 485.75 474.18, 484.47 475.17, 481.87 476.82 C 479.26 478.48, 477.74 479.77, 474.71 481.72 C 471.69 483.67, 469.88 484.83, 466.72 486.56 C 463.57 488.29, 461.79 489.13, 458.94 490.35 C 456.09 491.57, 454.62 491.98, 452.48 492.68 C 450.33 493.39, 449.48 493.71, 448.23 493.86 C 446.99 494.02, 446.62 494.01, 446.25 493.47 C 445.87 492.93, 445.96 492.45, 446.37 491.17 C 446.78 489.89, 447.27 488.93, 448.31 487.07 C 449.34 485.20, 450.40 483.99, 451.55 481.86 C 452.70 479.72, 453.47 478.30, 454.05 476.38 C 454.64 474.46, 454.79 473.35, 454.47 472.25 C 454.14 471.14, 453.71 470.70, 452.44 470.84 C 451.17 470.97, 450.14 471.49, 448.12 472.93 C 446.10 474.37, 444.91 475.91, 442.36 478.05 C 439.82 480.19, 438.27 481.52, 435.39 483.62 C 432.50 485.73, 430.83 486.90, 427.95 488.59 C 425.07 490.27, 423.44 490.90, 421.00 492.05 C 418.55 493.20, 417.41 493.69, 415.71 494.35 C 414.01 495.01, 413.35 495.28, 412.49 495.36 C 411.63 495.44, 411.43 495.41, 411.40 494.76 C 411.36 494.11, 411.57 493.55, 412.32 492.12 C 413.06 490.70, 413.73 489.68, 415.13 487.65 C 416.54 485.61, 417.61 484.25, 419.34 481.96 C 421.08 479.68, 422.41 478.41, 423.81 476.23 C 425.22 474.05, 425.88 472.87, 426.35 471.06 C 426.81 469.26, 426.80 468.34, 426.16 467.20 C 425.51 466.06, 424.77 465.66, 423.13 465.36 C 421.49 465.05, 420.26 465.36, 417.96 465.67 C 415.66 465.97, 414.30 466.39, 411.62 466.88 C 408.95 467.37, 407.39 467.71, 404.60 468.11 C 401.80 468.52, 400.22 468.71, 397.63 468.90 C 395.04 469.09, 393.74 469.11, 391.66 469.06 C 389.58 469.00, 388.68 468.72, 387.22 468.63 C 385.77 468.53, 385.25 468.40, 384.39 468.60 C 383.53 468.80, 383.28 469.13, 382.92 469.65 C 382.56 470.16, 382.48 470.60, 382.59 471.17 C 382.70 471.74, 383.03 471.87, 383.49 472.51 C 383.95 473.16, 384.48 473.43, 384.88 474.41 C 385.29 475.40, 385.53 476.01, 385.49 477.43 C 385.46 478.85, 385.35 479.75, 384.72 481.52 C 384.09 483.28, 383.58 484.34, 382.36 486.25 C 381.15 488.16, 380.28 489.26, 378.62 491.07 C 376.97 492.88, 375.93 493.84, 374.08 495.29 C 372.24 496.74, 371.14 497.38, 369.40 498.33 C 367.66 499.28, 366.75 499.64, 365.38 500.04 C 364.01 500.44, 363.41 500.52, 362.54 500.33 C 361.67 500.13, 361.33 499.92, 361.05 499.08 C 360.76 498.23, 360.76 497.60, 361.13 496.08 C 361.50 494.56, 361.90 493.48, 362.89 491.49 C 363.88 489.50, 364.64 488.23, 366.10 486.14 C 367.56 484.04, 368.56 482.84, 370.21 481.00 C 371.87 479.16, 372.91 478.33, 374.38 476.94 C 375.84 475.56, 376.60 475.10, 377.53 474.08 C 378.47 473.06, 378.78 472.56, 379.05 471.84 C 379.32 471.12, 379.30 470.65, 378.86 470.47 C 378.43 470.29, 378.09 470.34, 376.86 470.93 C 375.64 471.52, 374.80 472.04, 372.75 473.44 C 370.69 474.83, 369.44 475.87, 366.57 477.90 C 363.70 479.93, 361.95 481.12, 358.37 483.61 C 354.80 486.10, 352.75 487.48, 348.70 490.36 C 344.65 493.23, 342.39 494.79, 338.13 497.98 C 333.86 501.17, 331.59 502.85, 327.37 506.30 C 323.15 509.74, 320.98 511.54, 317.04 515.19 C 313.09 518.83, 311.08 520.75, 307.66 524.53 C 304.24 528.30, 302.60 530.26, 299.92 534.04 C 297.24 537.83, 296.07 539.79, 294.25 543.46 C 292.44 547.12, 291.67 548.99, 290.84 552.36 C 290.02 555.73, 289.82 557.49, 290.13 560.32 C 290.43 563.15, 291.05 564.57, 292.36 566.51 C 293.67 568.45, 294.73 569.24, 296.68 570.02 C 298.63 570.80, 299.89 570.85, 302.10 570.40 C 304.31 569.95, 305.57 569.36, 307.74 567.78 C 309.92 566.19, 311.02 565.04, 312.96 562.49 C 314.91 559.94, 315.79 558.33, 317.46 555.03 C 319.14 551.73, 319.90 549.82, 321.35 545.98 C 322.79 542.14, 323.41 540.02, 324.67 535.81 C 325.93 531.60, 326.48 529.32, 327.64 524.92 C 328.81 520.52, 329.33 518.20, 330.50 513.82 C 331.67 509.45, 332.24 507.20, 333.49 503.04 C 334.74 498.87, 335.46 496.67, 336.75 493.00 C 338.05 489.33, 339.12 487.55, 339.96 484.69 C 340.80 481.83, 341.02 480.48, 340.97 478.72 C 340.92 476.97, 340.51 476.25, 339.71 475.92 C 338.90 475.59, 338.22 475.86, 336.93 477.08 C 335.64 478.29, 334.90 479.53, 333.24 481.98 C 331.58 484.42, 330.76 486.17, 328.63 489.32 C 326.49 492.47, 325.15 494.36, 322.57 497.73 C 319.99 501.10, 318.49 503.03, 315.73 506.18 C 312.98 509.33, 311.41 511.02, 308.80 513.49 C 306.18 515.96, 304.71 516.89, 302.66 518.51 C 300.61 520.13, 299.86 520.82, 298.53 521.57 C 297.20 522.31, 296.78 522.49, 296.02 522.24 C 295.25 521.99, 295.07 521.61, 294.73 520.33 C 294.38 519.05, 294.29 518.06, 294.30 515.82 C 294.31 513.58, 294.35 512.10, 294.76 509.13 C 295.17 506.17, 295.53 504.33, 296.36 500.98 C 297.18 497.62, 297.81 495.72, 298.90 492.36 C 299.99 489.00, 300.84 487.23, 301.78 484.18 C 302.73 481.14, 303.36 479.61, 303.64 477.11 C 303.93 474.62, 303.83 473.44, 303.22 471.72 C 302.61 470.00, 301.97 469.30, 300.58 468.52 C 299.18 467.74, 298.12 467.68, 296.24 467.82 C 294.37 467.96, 293.23 468.48, 291.20 469.24 C 289.17 469.99, 288.02 470.51, 286.10 471.60 C 284.18 472.69, 283.07 473.42, 281.59 474.70 C 280.11 475.97, 279.45 476.75, 278.71 477.96 C 277.97 479.17, 277.75 479.95, 277.87 480.74 C 277.99 481.53, 278.57 481.89, 279.31 481.92" style="stroke: black; fill: black;"/><path d="M 632.31,446.53 C 633.15 446.35, 633.83 445.78, 634.93 444.62 C 636.04 443.46, 636.71 442.59, 637.82 440.75 C 638.93 438.92, 639.57 437.63, 640.49 435.44 C 641.41 433.25, 641.82 432.02, 642.42 429.80 C 643.01 427.57, 643.29 426.41, 643.46 424.32 C 643.63 422.23, 643.68 421.13, 643.28 419.36 C 642.88 417.58, 642.52 416.68, 641.46 415.46 C 640.39 414.24, 639.60 413.65, 637.94 413.27 C 636.29 412.90, 635.23 412.83, 633.17 413.57 C 631.11 414.31, 629.90 414.88, 627.65 416.96 C 625.41 419.05, 624.42 420.57, 621.94 423.99 C 619.46 427.41, 618.06 429.48, 615.24 434.06 C 612.43 438.63, 610.86 441.36, 607.86 446.89 C 604.85 452.41, 603.27 455.53, 600.22 461.68 C 597.17 467.82, 595.60 471.22, 592.63 477.62 C 589.65 484.01, 588.15 487.44, 585.36 493.66 C 582.58 499.87, 581.20 503.09, 578.70 508.69 C 576.21 514.29, 574.99 517.11, 572.88 521.66 C 570.77 526.22, 569.69 528.27, 568.14 531.45 C 566.60 534.63, 565.91 535.72, 565.16 537.57 C 564.41 539.42, 564.52 539.91, 564.37 540.71 C 564.23 541.51, 564.35 541.33, 564.43 541.56 C 564.52 541.79, 564.53 541.86, 564.80 541.85 C 565.07 541.84, 565.16 542.10, 565.80 541.52 C 566.43 540.94, 566.96 540.72, 567.98 538.96 C 569.00 537.20, 569.49 535.99, 570.91 532.72 C 572.33 529.45, 573.13 527.27, 575.06 522.62 C 577.00 517.98, 578.17 515.15, 580.58 509.51 C 582.99 503.87, 584.35 500.65, 587.10 494.43 C 589.86 488.21, 591.36 484.79, 594.34 478.42 C 597.32 472.05, 598.91 468.66, 602.01 462.58 C 605.11 456.49, 606.72 453.40, 609.83 447.99 C 612.93 442.58, 614.56 439.90, 617.53 435.54 C 620.50 431.18, 622.02 429.19, 624.68 426.19 C 627.34 423.18, 628.79 422.27, 630.83 420.52 C 632.88 418.77, 633.60 418.21, 634.91 417.44 C 636.22 416.67, 636.62 416.64, 637.38 416.66 C 638.15 416.68, 638.36 416.89, 638.75 417.56 C 639.14 418.22, 639.26 418.73, 639.33 419.98 C 639.40 421.23, 639.40 422.11, 639.12 423.79 C 638.83 425.48, 638.60 426.50, 637.91 428.39 C 637.22 430.29, 636.62 431.29, 635.67 433.26 C 634.71 435.23, 634.00 436.40, 633.14 438.24 C 632.27 440.08, 631.84 441.00, 631.36 442.45 C 630.88 443.90, 630.54 444.68, 630.73 445.50 C 630.93 446.32, 631.47 446.71, 632.31 446.53" style="stroke: black; fill: black;"/><path d="M 573.50,491.16 C 573.82 491.74, 574.11 491.97, 575.24 492.40 C 576.36 492.82, 577.13 493.10, 579.11 493.30 C 581.09 493.49, 582.40 493.60, 585.14 493.37 C 587.88 493.13, 589.54 492.82, 592.83 492.14 C 596.12 491.46, 597.97 491.01, 601.60 489.95 C 605.22 488.89, 607.23 488.24, 610.97 486.85 C 614.71 485.46, 616.70 484.64, 620.29 482.99 C 623.88 481.34, 625.74 480.39, 628.91 478.59 C 632.09 476.79, 633.72 475.88, 636.16 473.99 C 638.60 472.11, 639.69 471.05, 641.12 469.17 C 642.56 467.28, 643.06 466.26, 643.35 464.56 C 643.64 462.87, 643.44 461.90, 642.55 460.68 C 641.67 459.47, 640.74 458.83, 638.92 458.50 C 637.10 458.18, 635.79 458.28, 633.45 459.05 C 631.11 459.83, 629.66 460.60, 627.24 462.39 C 624.82 464.18, 623.54 465.57, 621.36 468.02 C 619.18 470.46, 617.93 471.91, 616.35 474.60 C 614.77 477.30, 614.01 478.85, 613.45 481.49 C 612.89 484.13, 612.85 485.60, 613.53 487.81 C 614.20 490.02, 614.95 491.14, 616.82 492.56 C 618.70 493.97, 620.06 494.65, 622.91 494.90 C 625.76 495.15, 627.53 494.80, 631.08 493.82 C 634.62 492.83, 636.64 491.94, 640.64 489.95 C 644.65 487.97, 646.81 486.71, 651.09 483.88 C 655.38 481.05, 657.71 479.32, 662.06 475.82 C 666.42 472.32, 668.70 470.29, 672.87 466.39 C 677.04 462.48, 679.18 460.29, 682.92 456.29 C 686.65 452.30, 688.49 450.14, 691.53 446.41 C 694.57 442.69, 695.97 440.85, 698.12 437.67 C 700.27 434.49, 701.29 433.07, 702.28 430.51 C 703.27 427.96, 703.38 426.72, 703.06 424.90 C 702.74 423.07, 702.17 422.21, 700.69 421.40 C 699.21 420.59, 697.98 420.25, 695.65 420.84 C 693.33 421.43, 691.91 422.22, 689.07 424.35 C 686.22 426.48, 684.67 428.11, 681.42 431.49 C 678.18 434.87, 676.26 437.01, 672.85 441.24 C 669.44 445.48, 667.51 448.02, 664.37 452.66 C 661.24 457.30, 659.61 459.92, 657.17 464.44 C 654.73 468.97, 653.60 471.31, 652.17 475.28 C 650.74 479.25, 650.09 481.17, 650.02 484.29 C 649.95 487.42, 650.43 488.90, 651.82 490.93 C 653.20 492.95, 654.37 493.83, 656.93 494.42 C 659.49 495.02, 661.26 494.88, 664.61 493.88 C 667.95 492.88, 669.76 491.75, 673.65 489.40 C 677.54 487.06, 679.70 485.47, 684.05 482.15 C 688.40 478.83, 690.85 476.79, 695.41 472.81 C 699.96 468.84, 702.42 466.52, 706.82 462.27 C 711.23 458.02, 713.55 455.67, 717.43 451.55 C 721.31 447.43, 723.19 445.27, 726.21 441.67 C 729.22 438.07, 730.65 436.43, 732.51 433.54 C 734.36 430.65, 735.05 429.35, 735.48 427.23 C 735.91 425.10, 735.63 424.08, 734.67 422.92 C 733.72 421.76, 732.68 421.30, 730.69 421.44 C 728.71 421.57, 727.30 421.92, 724.73 423.60 C 722.17 425.29, 720.86 426.86, 717.86 429.88 C 714.87 432.91, 713.07 434.83, 709.75 438.73 C 706.42 442.64, 704.49 445.00, 701.23 449.40 C 697.97 453.80, 696.21 456.28, 693.46 460.72 C 690.71 465.15, 689.37 467.52, 687.47 471.59 C 685.56 475.65, 684.67 477.65, 683.94 481.05 C 683.21 484.45, 683.14 486.07, 683.80 488.60 C 684.46 491.12, 685.29 492.25, 687.25 493.67 C 689.21 495.09, 690.70 495.62, 693.62 495.69 C 696.54 495.77, 698.31 495.19, 701.86 494.06 C 705.40 492.93, 707.41 491.94, 711.35 490.06 C 715.28 488.17, 717.49 486.88, 721.51 484.64 C 725.54 482.39, 727.73 481.03, 731.47 478.83 C 735.21 476.63, 737.18 475.49, 740.20 473.62 C 743.22 471.75, 744.68 470.98, 746.56 469.49 C 748.43 468.00, 749.02 467.29, 749.57 466.19 C 750.12 465.09, 749.96 464.56, 749.31 463.97 C 748.67 463.39, 747.81 463.07, 746.34 463.25 C 744.87 463.42, 743.79 463.78, 741.98 464.86 C 740.18 465.94, 739.16 466.91, 737.30 468.66 C 735.44 470.40, 734.36 471.50, 732.67 473.57 C 730.98 475.64, 730.05 476.83, 728.85 478.99 C 727.65 481.16, 727.11 482.34, 726.66 484.40 C 726.21 486.46, 726.15 487.55, 726.59 489.29 C 727.04 491.03, 727.58 491.94, 728.90 493.11 C 730.22 494.27, 731.24 494.74, 733.21 495.09 C 735.17 495.45, 736.44 495.38, 738.74 494.89 C 741.04 494.40, 742.37 493.85, 744.71 492.64 C 747.04 491.43, 748.32 490.55, 750.40 488.82 C 752.49 487.10, 753.56 486.02, 755.15 484.01 C 756.73 482.00, 757.47 480.87, 758.34 478.78 C 759.21 476.69, 759.45 475.52, 759.51 473.56 C 759.58 471.60, 759.33 470.58, 758.69 468.98 C 758.05 467.37, 757.41 466.63, 756.32 465.56 C 755.22 464.48, 754.42 463.96, 753.21 463.58 C 752.00 463.20, 751.13 463.21, 750.25 463.66 C 749.37 464.10, 748.86 464.87, 748.82 465.81 C 748.78 466.75, 749.04 467.57, 750.07 468.35 C 751.10 469.13, 752.00 469.44, 753.97 469.70 C 755.95 469.97, 757.27 469.93, 759.95 469.67 C 762.63 469.41, 764.24 469.00, 767.37 468.41 C 770.50 467.81, 772.30 467.37, 775.59 466.71 C 778.89 466.05, 780.75 465.66, 783.84 465.10 C 786.93 464.54, 788.61 464.34, 791.05 463.91 C 793.48 463.48, 794.69 463.16, 796.00 462.94 C 797.32 462.71, 797.66 462.49, 797.61 462.79 C 797.56 463.09, 796.99 463.30, 795.76 464.45 C 794.53 465.60, 793.42 466.48, 791.46 468.54 C 789.50 470.59, 788.25 472.23, 785.97 474.71 C 783.68 477.20, 782.12 478.59, 780.05 480.95 C 777.97 483.31, 776.77 484.51, 775.59 486.52 C 774.41 488.54, 774.08 489.58, 774.15 491.02 C 774.22 492.46, 774.68 493.12, 775.93 493.73 C 777.19 494.34, 778.29 494.48, 780.44 494.08 C 782.60 493.68, 784.05 493.10, 786.71 491.73 C 789.37 490.36, 790.84 489.05, 793.75 487.25 C 796.66 485.45, 798.57 484.35, 801.26 482.73 C 803.95 481.11, 805.45 480.29, 807.20 479.17 C 808.95 478.05, 809.49 477.49, 810.01 477.11 C 810.53 476.73, 810.31 476.76, 809.79 477.27 C 809.26 477.78, 808.39 478.35, 807.39 479.68 C 806.39 481.01, 805.51 482.11, 804.78 483.94 C 804.05 485.76, 803.76 487.03, 803.72 488.80 C 803.68 490.58, 803.79 491.55, 804.58 492.82 C 805.37 494.10, 806.06 494.73, 807.67 495.17 C 809.28 495.61, 810.42 495.60, 812.63 495.03 C 814.84 494.45, 816.22 493.83, 818.71 492.30 C 821.21 490.78, 822.55 489.50, 825.11 487.41 C 827.66 485.31, 829.10 484.03, 831.50 481.83 C 833.90 479.63, 835.23 478.46, 837.10 476.41 C 838.97 474.35, 839.74 473.23, 840.87 471.56 C 842.00 469.90, 842.33 469.18, 842.76 468.08 C 843.19 466.98, 843.01 466.64, 843.00 466.08 C 842.99 465.52, 842.88 465.49, 842.70 465.29 C 842.53 465.09, 842.36 465.08, 842.12 465.09 C 841.87 465.10, 841.86 465.09, 841.46 465.35 C 841.06 465.61, 840.86 465.66, 840.12 466.41 C 839.37 467.15, 839.02 467.72, 837.75 469.10 C 836.48 470.48, 835.62 471.38, 833.78 473.28 C 831.93 475.18, 830.84 476.50, 828.54 478.59 C 826.24 480.68, 824.81 481.92, 822.28 483.73 C 819.76 485.54, 818.17 486.29, 815.90 487.63 C 813.63 488.97, 812.52 489.60, 810.93 490.44 C 809.33 491.28, 808.70 491.58, 807.94 491.83 C 807.17 492.08, 807.06 492.08, 807.09 491.68 C 807.11 491.28, 807.44 490.89, 808.07 489.84 C 808.70 488.78, 809.44 488.00, 810.25 486.40 C 811.06 484.79, 811.71 483.59, 812.11 481.80 C 812.52 480.00, 812.68 478.77, 812.26 477.41 C 811.85 476.05, 811.40 475.40, 810.03 475.00 C 808.66 474.60, 807.63 474.66, 805.42 475.41 C 803.20 476.16, 801.76 477.20, 798.96 478.77 C 796.16 480.34, 794.38 481.65, 791.43 483.26 C 788.48 484.87, 786.71 485.55, 784.20 486.83 C 781.69 488.11, 780.46 488.72, 778.86 489.67 C 777.27 490.61, 776.72 491.16, 776.22 491.54 C 775.72 491.92, 775.82 492.07, 776.37 491.56 C 776.91 491.05, 777.53 490.50, 778.95 489.00 C 780.36 487.50, 781.37 486.26, 783.45 484.06 C 785.54 481.86, 786.96 480.37, 789.37 477.99 C 791.77 475.62, 793.51 474.44, 795.47 472.17 C 797.43 469.90, 798.36 468.65, 799.17 466.65 C 799.97 464.66, 800.08 463.60, 799.51 462.21 C 798.94 460.82, 798.15 460.26, 796.34 459.71 C 794.53 459.16, 793.12 459.24, 790.46 459.48 C 787.81 459.72, 786.18 460.30, 783.05 460.91 C 779.92 461.52, 778.09 461.98, 774.82 462.54 C 771.54 463.10, 769.73 463.40, 766.68 463.72 C 763.63 464.04, 762.04 464.03, 759.55 464.14 C 757.07 464.25, 755.93 464.19, 754.25 464.27 C 752.58 464.34, 752.00 464.28, 751.16 464.52 C 750.33 464.77, 750.24 465.03, 750.07 465.48 C 749.91 465.93, 750.02 466.35, 750.33 466.76 C 750.64 467.18, 750.98 467.19, 751.63 467.55 C 752.27 467.91, 752.85 467.98, 753.55 468.56 C 754.25 469.14, 754.72 469.49, 755.13 470.44 C 755.54 471.39, 755.73 472.02, 755.61 473.33 C 755.48 474.65, 755.30 475.47, 754.51 477.01 C 753.71 478.55, 753.04 479.45, 751.61 481.05 C 750.17 482.64, 749.18 483.56, 747.33 484.98 C 745.48 486.40, 744.32 487.12, 742.36 488.15 C 740.40 489.18, 739.28 489.59, 737.53 490.12 C 735.78 490.66, 734.91 490.78, 733.61 490.83 C 732.32 490.87, 731.79 490.80, 731.06 490.35 C 730.34 489.91, 730.09 489.56, 729.99 488.60 C 729.89 487.63, 729.99 486.97, 730.56 485.53 C 731.12 484.10, 731.62 483.15, 732.81 481.43 C 734.00 479.70, 734.87 478.66, 736.50 476.92 C 738.13 475.19, 739.22 474.24, 740.96 472.77 C 742.71 471.29, 743.80 470.72, 745.24 469.54 C 746.67 468.37, 747.36 467.85, 748.15 466.91 C 748.93 465.98, 749.19 465.37, 749.16 464.88 C 749.13 464.40, 748.96 464.18, 748.00 464.48 C 747.03 464.78, 746.27 465.13, 744.33 466.37 C 742.39 467.61, 741.18 468.71, 738.29 470.67 C 735.39 472.63, 733.51 473.91, 729.86 476.17 C 726.21 478.42, 724.01 479.77, 720.02 481.93 C 716.04 484.09, 713.80 485.30, 709.94 486.97 C 706.08 488.64, 704.00 489.38, 700.73 490.28 C 697.46 491.19, 695.92 491.35, 693.57 491.50 C 691.22 491.65, 690.30 491.75, 688.97 491.03 C 687.64 490.30, 687.28 489.73, 686.92 487.87 C 686.56 486.01, 686.56 484.76, 687.18 481.74 C 687.81 478.71, 688.33 476.67, 690.03 472.74 C 691.72 468.80, 693.00 466.42, 695.66 462.07 C 698.31 457.71, 700.06 455.25, 703.32 450.97 C 706.58 446.69, 708.53 444.36, 711.94 440.68 C 715.35 437.00, 717.26 435.19, 720.36 432.58 C 723.46 429.96, 725.20 429.17, 727.44 427.59 C 729.69 426.01, 730.41 425.37, 731.56 424.66 C 732.71 423.96, 732.99 423.73, 733.20 424.07 C 733.41 424.41, 733.31 424.80, 732.61 426.35 C 731.92 427.89, 731.43 429.06, 729.74 431.80 C 728.06 434.54, 726.97 436.40, 724.17 440.04 C 721.37 443.67, 719.52 445.86, 715.75 449.99 C 711.97 454.11, 709.65 456.46, 705.28 460.67 C 700.91 464.88, 698.45 467.17, 693.88 471.04 C 689.32 474.91, 686.84 476.90, 682.47 480.01 C 678.11 483.12, 675.86 484.57, 672.05 486.59 C 668.25 488.61, 666.37 489.22, 663.46 490.11 C 660.56 490.99, 659.35 491.17, 657.51 491.01 C 655.67 490.86, 655.08 490.64, 654.28 489.32 C 653.47 488.00, 653.38 487.04, 653.51 484.42 C 653.64 481.79, 653.73 479.97, 654.92 476.21 C 656.11 472.46, 657.14 470.07, 659.45 465.65 C 661.75 461.22, 663.35 458.61, 666.45 454.08 C 669.56 449.55, 671.50 447.03, 674.95 442.98 C 678.40 438.94, 680.39 436.87, 683.71 433.84 C 687.04 430.82, 688.91 429.66, 691.57 427.84 C 694.24 426.01, 695.40 425.54, 697.04 424.71 C 698.68 423.87, 699.10 423.60, 699.77 423.67 C 700.43 423.73, 700.55 423.94, 700.38 425.03 C 700.21 426.12, 699.88 426.93, 698.91 429.12 C 697.94 431.32, 697.41 432.88, 695.52 436.01 C 693.64 439.14, 692.36 441.06, 689.49 444.79 C 686.61 448.52, 684.81 450.69, 681.16 454.67 C 677.52 458.64, 675.39 460.82, 671.26 464.67 C 667.14 468.51, 664.86 470.51, 660.53 473.89 C 656.20 477.27, 653.86 478.94, 649.61 481.56 C 645.36 484.19, 643.18 485.33, 639.28 487.01 C 635.37 488.68, 633.33 489.24, 630.11 489.95 C 626.89 490.66, 625.43 490.61, 623.18 490.54 C 620.93 490.48, 620.09 490.33, 618.84 489.61 C 617.59 488.88, 617.19 488.33, 616.92 486.92 C 616.64 485.52, 616.81 484.55, 617.48 482.57 C 618.15 480.59, 618.81 479.28, 620.28 477.02 C 621.75 474.75, 622.79 473.29, 624.81 471.23 C 626.83 469.18, 628.28 468.22, 630.39 466.72 C 632.50 465.22, 633.67 464.61, 635.37 463.73 C 637.07 462.85, 637.83 462.62, 638.87 462.33 C 639.92 462.04, 640.26 462.01, 640.57 462.28 C 640.88 462.55, 640.91 462.82, 640.43 463.70 C 639.95 464.58, 639.53 465.25, 638.17 466.67 C 636.82 468.09, 635.87 469.03, 633.65 470.80 C 631.44 472.56, 630.06 473.69, 627.10 475.52 C 624.14 477.34, 622.32 478.30, 618.86 479.91 C 615.40 481.53, 613.44 482.32, 609.79 483.60 C 606.15 484.88, 604.16 485.48, 600.63 486.32 C 597.10 487.16, 595.30 487.46, 592.14 487.79 C 588.99 488.13, 587.44 487.92, 584.85 487.98 C 582.26 488.04, 581.08 487.95, 579.20 488.08 C 577.33 488.20, 576.58 488.31, 575.46 488.60 C 574.35 488.89, 574.03 489.03, 573.63 489.54 C 573.24 490.05, 573.18 490.59, 573.50 491.16" style="stroke: black; fill: black;"/><path d="M 964.89,441.73 C 964.89 441.01, 964.65 440.36, 963.76 439.55 C 962.87 438.74, 962.14 438.16, 960.43 437.69 C 958.72 437.22, 957.58 436.97, 955.21 437.19 C 952.84 437.41, 951.48 437.65, 948.57 438.80 C 945.66 439.95, 944.09 440.87, 940.65 442.93 C 937.21 444.99, 935.21 446.23, 931.38 449.10 C 927.54 451.97, 925.30 453.75, 921.46 457.28 C 917.62 460.81, 915.52 462.90, 912.18 466.76 C 908.84 470.62, 907.18 472.77, 904.75 476.58 C 902.33 480.40, 901.23 482.36, 900.04 485.83 C 898.85 489.30, 898.49 491.06, 898.82 493.95 C 899.15 496.84, 899.86 498.25, 901.70 500.26 C 903.54 502.27, 904.95 503.19, 908.02 504.00 C 911.10 504.80, 913.10 504.65, 917.09 504.29 C 921.08 503.92, 923.41 503.35, 927.97 502.16 C 932.54 500.97, 935.08 500.07, 939.93 498.35 C 944.77 496.63, 947.42 495.54, 952.19 493.54 C 956.97 491.55, 959.45 490.38, 963.80 488.37 C 968.15 486.35, 970.28 485.24, 973.95 483.47 C 977.63 481.69, 979.42 480.94, 982.17 479.49 C 984.93 478.05, 986.10 477.42, 987.74 476.24 C 989.39 475.05, 989.93 474.57, 990.39 473.56 C 990.86 472.55, 990.73 471.96, 990.07 471.21 C 989.41 470.45, 988.66 469.96, 987.11 469.79 C 985.55 469.63, 984.47 469.75, 982.29 470.38 C 980.12 471.02, 978.77 471.60, 976.24 472.97 C 973.70 474.33, 972.29 475.33, 969.64 477.21 C 966.99 479.10, 965.50 480.26, 962.98 482.41 C 960.46 484.56, 959.02 485.73, 957.04 487.97 C 955.05 490.21, 954.14 491.48, 953.04 493.62 C 951.94 495.77, 951.59 496.90, 951.56 498.70 C 951.52 500.51, 951.84 501.46, 952.89 502.65 C 953.93 503.84, 954.88 504.36, 956.77 504.65 C 958.66 504.94, 959.93 504.82, 962.34 504.09 C 964.75 503.36, 966.13 502.61, 968.84 501.00 C 971.55 499.40, 973.03 498.19, 975.87 496.06 C 978.71 493.93, 980.29 492.62, 983.04 490.37 C 985.79 488.12, 987.40 486.92, 989.62 484.81 C 991.84 482.70, 993.05 481.48, 994.14 479.83 C 995.24 478.17, 995.35 477.24, 995.08 476.53 C 994.80 475.82, 994.02 475.72, 992.78 476.27 C 991.54 476.83, 990.38 477.57, 988.86 479.29 C 987.35 481.02, 986.34 482.54, 985.21 484.90 C 984.07 487.26, 983.60 488.82, 983.20 491.10 C 982.81 493.38, 982.73 494.57, 983.23 496.28 C 983.74 498.00, 984.29 498.81, 985.73 499.69 C 987.18 500.57, 988.25 500.82, 990.46 500.68 C 992.66 500.54, 994.08 500.19, 996.75 498.97 C 999.42 497.76, 1000.85 496.55, 1003.81 494.62 C 1006.76 492.69, 1008.44 491.43, 1011.51 489.34 C 1014.57 487.25, 1016.31 486.02, 1019.13 484.15 C 1021.96 482.28, 1023.69 481.39, 1025.64 479.98 C 1027.59 478.58, 1028.29 477.78, 1028.89 477.13 C 1029.50 476.47, 1029.27 476.37, 1028.68 476.72 C 1028.09 477.07, 1027.25 477.58, 1025.94 478.89 C 1024.63 480.20, 1023.55 481.34, 1022.13 483.29 C 1020.71 485.24, 1019.88 486.64, 1018.84 488.64 C 1017.80 490.64, 1017.21 491.71, 1016.93 493.30 C 1016.64 494.89, 1016.69 495.71, 1017.40 496.60 C 1018.11 497.49, 1018.85 497.84, 1020.48 497.75 C 1022.11 497.66, 1023.28 497.32, 1025.54 496.15 C 1027.80 494.99, 1029.09 493.75, 1031.79 491.91 C 1034.49 490.07, 1036.14 488.76, 1039.04 486.97 C 1041.94 485.18, 1043.71 484.31, 1046.30 482.96 C 1048.88 481.61, 1050.26 481.00, 1051.97 480.21 C 1053.67 479.42, 1054.26 479.12, 1054.81 479.01 C 1055.37 478.90, 1055.15 479.02, 1054.75 479.68 C 1054.36 480.34, 1053.68 480.92, 1052.84 482.30 C 1052.00 483.68, 1051.27 484.73, 1050.55 486.58 C 1049.83 488.43, 1049.39 489.65, 1049.24 491.57 C 1049.09 493.48, 1049.09 494.62, 1049.79 496.13 C 1050.49 497.65, 1051.13 498.40, 1052.74 499.15 C 1054.35 499.91, 1055.46 500.12, 1057.84 499.89 C 1060.23 499.66, 1061.70 499.18, 1064.67 498.01 C 1067.64 496.84, 1069.32 495.77, 1072.71 494.04 C 1076.10 492.32, 1078.03 491.24, 1081.63 489.37 C 1085.23 487.50, 1087.24 486.42, 1090.71 484.69 C 1094.18 482.96, 1096.03 482.12, 1098.96 480.72 C 1101.89 479.33, 1103.33 478.77, 1105.36 477.72 C 1107.38 476.67, 1108.17 476.25, 1109.10 475.45 C 1110.03 474.66, 1110.14 474.32, 1109.99 473.77 C 1109.84 473.21, 1109.33 472.82, 1108.34 472.66 C 1107.35 472.51, 1106.53 472.49, 1105.05 473.00 C 1103.58 473.50, 1102.69 474.09, 1100.96 475.19 C 1099.24 476.30, 1098.27 477.06, 1096.41 478.52 C 1094.55 479.97, 1093.47 480.80, 1091.67 482.49 C 1089.87 484.17, 1088.86 485.14, 1087.41 486.94 C 1085.96 488.75, 1085.24 489.76, 1084.42 491.52 C 1083.60 493.29, 1083.29 494.23, 1083.31 495.77 C 1083.34 497.32, 1083.62 498.17, 1084.54 499.24 C 1085.46 500.32, 1086.30 500.82, 1087.93 501.14 C 1089.56 501.45, 1090.62 501.35, 1092.69 500.80 C 1094.76 500.26, 1095.95 499.68, 1098.27 498.42 C 1100.58 497.15, 1101.88 496.23, 1104.26 494.48 C 1106.63 492.72, 1107.92 491.60, 1110.14 489.63 C 1112.36 487.66, 1113.61 486.57, 1115.36 484.62 C 1117.11 482.66, 1118.10 481.49, 1118.90 479.86 C 1119.69 478.24, 1119.71 477.29, 1119.33 476.48 C 1118.95 475.67, 1118.19 475.48, 1117.01 475.81 C 1115.82 476.13, 1114.78 476.70, 1113.40 478.09 C 1112.01 479.49, 1111.10 480.73, 1110.09 482.78 C 1109.08 484.84, 1108.68 486.28, 1108.35 488.36 C 1108.03 490.44, 1107.98 491.52, 1108.45 493.18 C 1108.92 494.85, 1109.39 495.64, 1110.70 496.67 C 1112.01 497.69, 1112.98 498.08, 1115.00 498.30 C 1117.02 498.52, 1118.28 498.39, 1120.79 497.77 C 1123.30 497.15, 1124.76 496.48, 1127.56 495.21 C 1130.36 493.93, 1131.94 492.92, 1134.80 491.39 C 1137.66 489.86, 1139.26 488.97, 1141.88 487.54 C 1144.49 486.12, 1145.90 485.41, 1147.88 484.26 C 1149.85 483.11, 1150.81 482.48, 1151.75 481.79 C 1152.69 481.09, 1152.78 480.79, 1152.59 480.78 C 1152.40 480.77, 1151.77 480.96, 1150.80 481.75 C 1149.82 482.54, 1148.94 483.28, 1147.72 484.74 C 1146.49 486.19, 1145.73 487.37, 1144.67 489.04 C 1143.62 490.71, 1142.92 491.67, 1142.43 493.09 C 1141.93 494.51, 1141.87 495.28, 1142.20 496.14 C 1142.53 497.00, 1143.06 497.36, 1144.07 497.38 C 1145.08 497.40, 1145.88 497.11, 1147.24 496.24 C 1148.61 495.36, 1149.39 494.52, 1150.90 493.00 C 1152.40 491.48, 1153.22 490.34, 1154.77 488.65 C 1156.32 486.95, 1157.28 485.92, 1158.64 484.51 C 1159.99 483.11, 1160.65 482.42, 1161.56 481.62 C 1162.47 480.82, 1162.71 480.61, 1163.19 480.51 C 1163.67 480.42, 1163.63 480.63, 1163.96 481.13 C 1164.29 481.63, 1164.25 482.19, 1164.86 483.01 C 1165.46 483.84, 1165.88 484.48, 1166.99 485.26 C 1168.10 486.03, 1168.85 486.44, 1170.41 486.88 C 1171.97 487.32, 1172.86 487.48, 1174.78 487.45 C 1176.69 487.42, 1177.79 487.29, 1180.00 486.74 C 1182.21 486.18, 1183.49 485.68, 1185.82 484.70 C 1188.16 483.71, 1189.46 483.02, 1191.67 481.81 C 1193.87 480.61, 1195.25 479.89, 1196.84 478.68 C 1198.43 477.46, 1199.14 476.65, 1199.62 475.75 C 1200.10 474.85, 1199.88 474.32, 1199.25 474.17 C 1198.62 474.02, 1197.81 474.16, 1196.45 475.01 C 1195.09 475.86, 1194.00 476.69, 1192.45 478.41 C 1190.91 480.13, 1190.04 481.49, 1188.73 483.60 C 1187.43 485.72, 1186.67 486.94, 1185.93 489.00 C 1185.18 491.06, 1184.89 492.15, 1185.01 493.91 C 1185.12 495.67, 1185.42 496.60, 1186.50 497.79 C 1187.58 498.99, 1188.47 499.52, 1190.41 499.87 C 1192.34 500.23, 1193.66 500.19, 1196.18 499.57 C 1198.69 498.96, 1200.13 498.22, 1202.98 496.81 C 1205.84 495.39, 1207.42 494.34, 1210.45 492.50 C 1213.48 490.66, 1215.17 489.53, 1218.13 487.61 C 1221.10 485.68, 1222.71 484.65, 1225.29 482.88 C 1227.86 481.10, 1229.34 480.17, 1231.01 478.73 C 1232.69 477.29, 1233.24 476.41, 1233.66 475.68 C 1234.07 474.95, 1233.75 474.65, 1233.07 475.08 C 1232.39 475.52, 1231.55 475.99, 1230.26 477.88 C 1228.97 479.77, 1228.34 481.37, 1226.61 484.55 C 1224.89 487.73, 1223.88 489.81, 1221.63 493.78 C 1219.39 497.76, 1218.02 500.02, 1215.40 504.42 C 1212.77 508.82, 1211.30 511.25, 1208.51 515.80 C 1205.72 520.34, 1204.23 522.79, 1201.44 527.17 C 1198.65 531.55, 1197.21 533.83, 1194.56 537.69 C 1191.92 541.54, 1190.58 543.47, 1188.21 546.47 C 1185.84 549.47, 1184.48 550.67, 1182.71 552.69 C 1180.93 554.70, 1180.23 555.53, 1179.33 556.53 C 1178.43 557.53, 1178.25 557.74, 1178.20 557.67 C 1178.15 557.60, 1178.44 557.35, 1179.07 556.19 C 1179.70 555.03, 1180.23 554.17, 1181.35 551.87 C 1182.46 549.58, 1182.81 547.84, 1184.65 544.70 C 1186.49 541.56, 1187.73 539.70, 1190.55 536.18 C 1193.37 532.67, 1195.12 530.74, 1198.76 527.11 C 1202.39 523.48, 1204.50 521.57, 1208.73 518.03 C 1212.95 514.48, 1215.37 512.69, 1219.88 509.38 C 1224.39 506.06, 1226.80 504.41, 1231.27 501.44 C 1235.74 498.47, 1238.09 497.05, 1242.23 494.54 C 1246.37 492.04, 1248.46 490.86, 1251.97 488.93 C 1255.48 487.00, 1257.24 486.32, 1259.78 484.91 C 1262.31 483.49, 1263.44 482.77, 1264.64 481.85 C 1265.84 480.94, 1265.95 480.49, 1265.77 480.33 C 1265.60 480.17, 1264.88 480.26, 1263.76 481.04 C 1262.64 481.82, 1261.63 482.56, 1260.17 484.24 C 1258.71 485.92, 1257.76 487.27, 1256.46 489.44 C 1255.16 491.61, 1254.45 492.98, 1253.65 495.10 C 1252.86 497.21, 1252.46 498.29, 1252.48 500.03 C 1252.50 501.77, 1252.74 502.67, 1253.75 503.79 C 1254.76 504.92, 1255.65 505.40, 1257.55 505.63 C 1259.44 505.86, 1260.72 505.75, 1263.23 504.93 C 1265.75 504.11, 1267.15 503.24, 1270.12 501.55 C 1273.09 499.86, 1274.73 498.72, 1278.09 496.47 C 1281.45 494.23, 1283.33 492.92, 1286.93 490.33 C 1290.53 487.73, 1292.50 486.27, 1296.08 483.49 C 1299.66 480.70, 1301.49 479.18, 1304.84 476.41 C 1308.19 473.64, 1309.86 472.19, 1312.81 469.63 C 1315.77 467.07, 1317.21 465.81, 1319.62 463.62 C 1322.02 461.43, 1323.20 460.47, 1324.85 458.69 C 1326.49 456.91, 1327.25 455.95, 1327.83 454.73 C 1328.40 453.51, 1328.28 452.82, 1327.72 452.60 C 1327.16 452.37, 1326.35 452.45, 1325.01 453.60 C 1323.67 454.74, 1322.78 455.78, 1321.02 458.31 C 1319.27 460.84, 1318.38 462.85, 1316.23 466.27 C 1314.07 469.68, 1312.68 471.75, 1310.24 475.40 C 1307.80 479.04, 1306.40 481.02, 1304.03 484.48 C 1301.66 487.94, 1300.41 489.72, 1298.38 492.69 C 1296.34 495.65, 1295.18 496.98, 1293.86 499.31 C 1292.54 501.64, 1292.23 502.79, 1291.78 504.33 C 1291.32 505.87, 1291.42 506.40, 1291.57 507.01 C 1291.72 507.63, 1292.02 507.70, 1292.54 507.41 C 1293.06 507.12, 1293.22 506.77, 1294.18 505.57 C 1295.14 504.37, 1295.90 503.61, 1297.33 501.42 C 1298.75 499.22, 1299.43 497.62, 1301.30 494.59 C 1303.17 491.56, 1304.34 489.74, 1306.68 486.28 C 1309.01 482.82, 1310.42 480.84, 1312.97 477.29 C 1315.53 473.74, 1317.01 471.73, 1319.47 468.52 C 1321.92 465.32, 1323.50 463.80, 1325.27 461.26 C 1327.04 458.72, 1327.71 457.53, 1328.30 455.81 C 1328.89 454.10, 1328.73 453.29, 1328.23 452.67 C 1327.72 452.04, 1327.02 452.05, 1325.76 452.68 C 1324.50 453.31, 1323.67 454.17, 1321.93 455.82 C 1320.19 457.48, 1319.32 458.68, 1317.07 460.97 C 1314.81 463.25, 1313.50 464.62, 1310.67 467.25 C 1307.85 469.88, 1306.21 471.34, 1302.92 474.12 C 1299.64 476.90, 1297.83 478.41, 1294.27 481.13 C 1290.71 483.86, 1288.74 485.29, 1285.12 487.74 C 1281.51 490.20, 1279.60 491.45, 1276.19 493.42 C 1272.78 495.39, 1271.01 496.25, 1268.08 497.59 C 1265.15 498.93, 1263.68 499.29, 1261.53 500.13 C 1259.39 500.96, 1258.55 501.37, 1257.35 501.75 C 1256.15 502.14, 1255.84 502.28, 1255.55 502.05 C 1255.25 501.82, 1255.39 501.56, 1255.87 500.61 C 1256.35 499.65, 1256.86 498.88, 1257.96 497.29 C 1259.05 495.69, 1259.94 494.58, 1261.33 492.64 C 1262.72 490.71, 1263.81 489.56, 1264.92 487.62 C 1266.04 485.68, 1266.57 484.51, 1266.88 482.93 C 1267.19 481.36, 1267.16 480.49, 1266.48 479.73 C 1265.79 478.97, 1265.16 478.78, 1263.45 479.15 C 1261.74 479.51, 1260.51 480.12, 1257.91 481.57 C 1255.32 483.01, 1253.87 484.21, 1250.46 486.37 C 1247.05 488.53, 1244.98 489.74, 1240.87 492.36 C 1236.77 494.98, 1234.42 496.44, 1229.95 499.46 C 1225.47 502.49, 1223.05 504.15, 1218.49 507.49 C 1213.94 510.83, 1211.50 512.61, 1207.18 516.16 C 1202.86 519.70, 1200.70 521.60, 1196.90 525.20 C 1193.09 528.80, 1191.28 530.70, 1188.16 534.15 C 1185.04 537.61, 1183.61 539.36, 1181.30 542.47 C 1178.98 545.58, 1177.74 547.05, 1176.59 549.69 C 1175.44 552.32, 1175.39 553.77, 1175.54 555.63 C 1175.69 557.49, 1176.27 558.32, 1177.36 558.98 C 1178.44 559.65, 1179.31 559.67, 1180.96 558.94 C 1182.62 558.20, 1183.67 557.43, 1185.62 555.30 C 1187.56 553.18, 1188.46 551.53, 1190.69 548.30 C 1192.93 545.08, 1194.22 543.13, 1196.79 539.17 C 1199.36 535.22, 1200.79 532.92, 1203.56 528.51 C 1206.34 524.10, 1207.83 521.66, 1210.66 517.13 C 1213.50 512.60, 1214.98 510.19, 1217.73 505.86 C 1220.49 501.53, 1221.90 499.31, 1224.43 495.50 C 1226.96 491.69, 1228.38 489.88, 1230.40 486.82 C 1232.41 483.75, 1233.57 482.42, 1234.51 480.16 C 1235.45 477.90, 1235.41 476.78, 1235.08 475.50 C 1234.76 474.22, 1234.19 473.80, 1232.89 473.75 C 1231.59 473.70, 1230.59 474.11, 1228.58 475.25 C 1226.57 476.38, 1225.37 477.61, 1222.85 479.42 C 1220.33 481.23, 1218.88 482.41, 1215.98 484.31 C 1213.09 486.21, 1211.39 487.28, 1208.39 488.91 C 1205.38 490.53, 1203.68 491.27, 1200.96 492.42 C 1198.24 493.58, 1196.87 494.01, 1194.80 494.70 C 1192.72 495.39, 1191.83 495.64, 1190.58 495.86 C 1189.34 496.07, 1188.98 496.12, 1188.56 495.78 C 1188.13 495.43, 1188.17 495.10, 1188.46 494.14 C 1188.76 493.18, 1189.08 492.45, 1190.03 490.99 C 1190.99 489.53, 1191.81 488.56, 1193.25 486.83 C 1194.69 485.11, 1195.87 484.15, 1197.23 482.38 C 1198.58 480.61, 1199.39 479.55, 1200.03 478.00 C 1200.67 476.45, 1200.77 475.56, 1200.44 474.63 C 1200.11 473.70, 1199.59 473.37, 1198.38 473.34 C 1197.17 473.31, 1196.21 473.69, 1194.38 474.48 C 1192.56 475.27, 1191.36 476.18, 1189.25 477.28 C 1187.13 478.38, 1185.91 479.06, 1183.80 479.99 C 1181.69 480.91, 1180.54 481.34, 1178.69 481.90 C 1176.84 482.45, 1175.98 482.62, 1174.56 482.74 C 1173.14 482.87, 1172.59 482.77, 1171.60 482.52 C 1170.62 482.26, 1170.37 481.98, 1169.66 481.47 C 1168.94 480.96, 1168.79 480.56, 1168.04 479.97 C 1167.28 479.37, 1166.87 478.94, 1165.88 478.48 C 1164.89 478.02, 1164.34 477.71, 1163.08 477.68 C 1161.83 477.65, 1161.15 477.69, 1159.62 478.32 C 1158.09 478.96, 1157.19 479.57, 1155.45 480.85 C 1153.72 482.13, 1152.71 483.16, 1150.93 484.74 C 1149.15 486.32, 1148.04 487.19, 1146.54 488.75 C 1145.04 490.31, 1144.23 491.18, 1143.42 492.55 C 1142.62 493.93, 1142.47 494.75, 1142.52 495.61 C 1142.57 496.48, 1142.95 496.84, 1143.69 496.86 C 1144.42 496.89, 1145.04 496.63, 1146.18 495.75 C 1147.31 494.87, 1148.08 494.00, 1149.36 492.46 C 1150.64 490.93, 1151.60 489.86, 1152.59 488.09 C 1153.59 486.31, 1154.09 485.18, 1154.35 483.58 C 1154.60 481.98, 1154.57 481.04, 1153.88 480.09 C 1153.19 479.14, 1152.49 478.78, 1150.89 478.82 C 1149.29 478.86, 1148.13 479.33, 1145.90 480.28 C 1143.66 481.23, 1142.35 482.14, 1139.71 483.56 C 1137.08 484.98, 1135.56 485.99, 1132.73 487.40 C 1129.91 488.82, 1128.25 489.55, 1125.59 490.64 C 1122.92 491.73, 1121.54 492.17, 1119.42 492.85 C 1117.30 493.52, 1116.37 493.77, 1114.98 494.01 C 1113.59 494.24, 1113.08 494.29, 1112.45 494.03 C 1111.82 493.77, 1111.72 493.54, 1111.82 492.69 C 1111.92 491.84, 1112.21 491.17, 1112.95 489.78 C 1113.70 488.40, 1114.53 487.44, 1115.55 485.75 C 1116.57 484.06, 1117.35 482.95, 1118.06 481.33 C 1118.77 479.72, 1119.05 478.72, 1119.09 477.67 C 1119.13 476.61, 1118.94 476.12, 1118.27 476.07 C 1117.60 476.02, 1117.01 476.38, 1115.74 477.42 C 1114.46 478.47, 1113.66 479.60, 1111.90 481.31 C 1110.15 483.02, 1109.09 484.18, 1106.97 485.99 C 1104.85 487.79, 1103.54 488.78, 1101.29 490.34 C 1099.04 491.90, 1097.75 492.64, 1095.70 493.79 C 1093.66 494.94, 1092.61 495.39, 1091.07 496.08 C 1089.54 496.77, 1088.93 496.99, 1088.03 497.24 C 1087.13 497.49, 1086.87 497.53, 1086.58 497.32 C 1086.30 497.11, 1086.30 496.92, 1086.61 496.18 C 1086.91 495.43, 1087.23 494.84, 1088.11 493.60 C 1088.98 492.37, 1089.61 491.49, 1090.98 490.01 C 1092.36 488.52, 1093.28 487.64, 1094.99 486.17 C 1096.69 484.70, 1097.71 483.91, 1099.49 482.66 C 1101.28 481.41, 1102.28 480.89, 1103.89 479.92 C 1105.51 478.94, 1106.40 478.68, 1107.57 477.80 C 1108.74 476.92, 1109.26 476.38, 1109.73 475.51 C 1110.21 474.64, 1110.31 473.98, 1109.96 473.44 C 1109.61 472.90, 1109.24 472.69, 1107.99 472.82 C 1106.73 472.95, 1105.82 473.21, 1103.67 474.11 C 1101.53 475.00, 1100.16 475.78, 1097.26 477.28 C 1094.35 478.78, 1092.57 479.81, 1089.13 481.60 C 1085.69 483.39, 1083.67 484.47, 1080.05 486.24 C 1076.44 488.01, 1074.46 489.02, 1071.05 490.47 C 1067.63 491.91, 1065.79 492.48, 1062.98 493.45 C 1060.18 494.42, 1058.89 494.79, 1057.04 495.31 C 1055.19 495.82, 1054.58 496.04, 1053.74 496.01 C 1052.90 495.99, 1052.82 495.85, 1052.84 495.18 C 1052.86 494.51, 1053.22 493.94, 1053.82 492.65 C 1054.43 491.37, 1055.12 490.48, 1055.86 488.75 C 1056.61 487.03, 1057.21 485.86, 1057.55 484.03 C 1057.89 482.21, 1057.99 481.08, 1057.56 479.64 C 1057.14 478.20, 1056.76 477.45, 1055.41 476.83 C 1054.06 476.20, 1053.04 476.07, 1050.82 476.50 C 1048.59 476.93, 1047.09 477.61, 1044.29 478.96 C 1041.49 480.31, 1039.85 481.50, 1036.82 483.25 C 1033.79 484.99, 1031.95 486.05, 1029.13 487.69 C 1026.31 489.33, 1024.73 490.08, 1022.74 491.43 C 1020.75 492.78, 1020.02 493.57, 1019.18 494.46 C 1018.33 495.35, 1018.31 495.79, 1018.51 495.89 C 1018.72 495.99, 1019.23 495.81, 1020.19 494.97 C 1021.15 494.12, 1021.89 493.28, 1023.30 491.66 C 1024.71 490.05, 1025.87 488.91, 1027.25 486.87 C 1028.62 484.83, 1029.49 483.43, 1030.17 481.45 C 1030.86 479.48, 1031.02 478.29, 1030.66 476.99 C 1030.30 475.69, 1029.81 475.10, 1028.36 474.96 C 1026.90 474.81, 1025.70 475.11, 1023.40 476.28 C 1021.10 477.45, 1019.68 478.85, 1016.86 480.81 C 1014.05 482.77, 1012.39 484.08, 1009.33 486.10 C 1006.27 488.11, 1004.52 489.27, 1001.56 490.89 C 998.61 492.51, 996.94 493.08, 994.55 494.19 C 992.17 495.30, 991.15 495.87, 989.63 496.46 C 988.12 497.04, 987.61 497.23, 986.97 497.11 C 986.32 496.99, 986.26 496.77, 986.41 495.86 C 986.57 494.95, 986.88 494.16, 987.73 492.55 C 988.58 490.94, 989.46 489.82, 990.66 487.81 C 991.86 485.80, 992.82 484.44, 993.72 482.49 C 994.63 480.54, 995.02 479.36, 995.17 478.05 C 995.31 476.75, 995.20 476.13, 994.44 475.96 C 993.69 475.79, 992.96 476.07, 991.39 477.19 C 989.82 478.31, 988.77 479.56, 986.59 481.58 C 984.41 483.59, 983.12 485.07, 980.49 487.28 C 977.85 489.49, 976.24 490.75, 973.43 492.64 C 970.62 494.53, 968.99 495.38, 966.43 496.73 C 963.88 498.08, 962.60 498.58, 960.67 499.39 C 958.74 500.20, 957.95 500.49, 956.78 500.77 C 955.62 501.05, 955.25 501.11, 954.84 500.78 C 954.43 500.45, 954.39 500.14, 954.74 499.13 C 955.08 498.11, 955.44 497.33, 956.57 495.71 C 957.70 494.09, 958.56 493.02, 960.41 491.02 C 962.25 489.02, 963.43 487.71, 965.79 485.71 C 968.14 483.72, 969.62 482.63, 972.19 481.04 C 974.75 479.45, 976.25 478.86, 978.63 477.78 C 981.01 476.70, 982.26 476.39, 984.10 475.65 C 985.94 474.91, 986.74 474.68, 987.82 474.08 C 988.90 473.47, 989.28 473.04, 989.51 472.64 C 989.74 472.23, 989.69 471.94, 988.97 472.05 C 988.25 472.17, 987.62 472.36, 985.91 473.20 C 984.20 474.04, 983.08 474.75, 980.41 476.27 C 977.75 477.79, 976.14 478.87, 972.58 480.80 C 969.03 482.73, 966.93 483.87, 962.65 485.94 C 958.37 488.00, 955.91 489.17, 951.19 491.13 C 946.46 493.10, 943.82 494.16, 939.03 495.76 C 934.25 497.37, 931.69 498.18, 927.25 499.17 C 922.81 500.16, 920.49 500.53, 916.83 500.71 C 913.18 500.89, 911.52 500.63, 908.98 500.07 C 906.44 499.51, 905.48 499.21, 904.14 497.91 C 902.79 496.62, 902.45 495.80, 902.25 493.59 C 902.04 491.37, 902.13 489.95, 903.11 486.85 C 904.10 483.74, 904.95 481.75, 907.16 478.08 C 909.38 474.41, 910.97 472.26, 914.20 468.51 C 917.43 464.75, 919.51 462.69, 923.30 459.31 C 927.09 455.92, 929.33 454.21, 933.15 451.58 C 936.97 448.94, 939.01 447.82, 942.40 446.15 C 945.80 444.48, 947.49 444.06, 950.14 443.24 C 952.80 442.41, 953.82 442.22, 955.67 442.04 C 957.51 441.87, 958.14 442.17, 959.38 442.36 C 960.61 442.55, 960.98 442.83, 961.85 443.00 C 962.73 443.17, 963.14 443.44, 963.74 443.19 C 964.35 442.93, 964.88 442.46, 964.89 441.73" style="stroke: black; fill: black;"/><path d="M 1289.16,497.19 C 1289.25 497.83, 1289.46 498.32, 1290.36 498.95 C 1291.26 499.58, 1291.93 499.96, 1293.65 500.35 C 1295.38 500.73, 1296.53 500.90, 1298.97 500.85 C 1301.40 500.81, 1302.87 500.64, 1305.83 500.13 C 1308.80 499.62, 1310.46 499.15, 1313.79 498.29 C 1317.12 497.44, 1318.99 496.92, 1322.48 495.85 C 1325.97 494.78, 1327.88 494.15, 1331.26 492.93 C 1334.64 491.70, 1336.43 491.06, 1339.39 489.74 C 1342.34 488.43, 1343.85 487.76, 1346.04 486.35 C 1348.22 484.95, 1349.21 484.17, 1350.32 482.72 C 1351.43 481.28, 1351.75 480.40, 1351.59 479.14 C 1351.43 477.88, 1350.90 477.05, 1349.53 476.40 C 1348.16 475.76, 1346.97 475.55, 1344.75 475.92 C 1342.52 476.28, 1340.99 476.82, 1338.42 478.22 C 1335.84 479.61, 1334.40 480.84, 1331.88 482.88 C 1329.35 484.92, 1327.85 486.11, 1325.79 488.43 C 1323.73 490.74, 1322.69 492.08, 1321.59 494.46 C 1320.49 496.84, 1320.17 498.15, 1320.28 500.33 C 1320.39 502.50, 1320.79 503.66, 1322.14 505.33 C 1323.49 507.00, 1324.57 507.84, 1327.03 508.68 C 1329.48 509.52, 1331.11 509.69, 1334.41 509.53 C 1337.71 509.37, 1339.67 508.85, 1343.52 507.88 C 1347.37 506.90, 1349.52 506.14, 1353.66 504.65 C 1357.79 503.16, 1360.07 502.18, 1364.20 500.43 C 1368.32 498.68, 1370.53 497.62, 1374.28 495.89 C 1378.04 494.15, 1379.93 493.23, 1382.99 491.75 C 1386.04 490.27, 1387.51 489.63, 1389.57 488.50 C 1391.62 487.37, 1392.38 486.83, 1393.28 486.08 C 1394.17 485.34, 1394.22 485.03, 1394.04 484.79 C 1393.87 484.54, 1393.25 484.46, 1392.40 484.88 C 1391.55 485.30, 1390.79 485.73, 1389.78 486.89 C 1388.77 488.04, 1388.28 488.99, 1387.35 490.65 C 1386.42 492.32, 1385.97 493.37, 1385.12 495.21 C 1384.27 497.05, 1383.85 498.07, 1383.09 499.86 C 1382.33 501.66, 1382.02 502.56, 1381.32 504.19 C 1380.62 505.82, 1380.30 506.58, 1379.59 507.99 C 1378.88 509.41, 1378.53 510.06, 1377.75 511.25 C 1376.97 512.43, 1376.59 512.98, 1375.69 513.92 C 1374.79 514.86, 1374.28 515.24, 1373.25 515.94 C 1372.22 516.64, 1371.69 516.94, 1370.55 517.43 C 1369.41 517.91, 1368.78 518.07, 1367.56 518.35 C 1366.33 518.64, 1365.66 518.71, 1364.42 518.84 C 1363.18 518.98, 1362.54 518.97, 1361.37 519.02 C 1360.20 519.07, 1359.62 518.92, 1358.56 519.08 C 1357.49 519.25, 1356.60 519.30, 1356.05 519.83 C 1355.50 520.35, 1355.38 521.06, 1355.81 521.71 C 1356.24 522.36, 1357.09 522.72, 1358.20 523.08 C 1359.31 523.43, 1360.02 523.44, 1361.36 523.49 C 1362.70 523.54, 1363.44 523.49, 1364.90 523.34 C 1366.35 523.19, 1367.14 523.10, 1368.63 522.72 C 1370.11 522.35, 1370.90 522.09, 1372.32 521.44 C 1373.74 520.80, 1374.42 520.41, 1375.72 519.50 C 1377.01 518.59, 1377.68 518.06, 1378.80 516.88 C 1379.92 515.70, 1380.39 514.98, 1381.30 513.60 C 1382.22 512.21, 1382.58 511.48, 1383.39 509.96 C 1384.19 508.45, 1384.54 507.65, 1385.33 506.02 C 1386.12 504.39, 1386.48 503.51, 1387.33 501.81 C 1388.17 500.10, 1388.61 499.17, 1389.57 497.50 C 1390.52 495.84, 1391.14 495.01, 1392.11 493.49 C 1393.07 491.97, 1393.75 491.28, 1394.40 489.89 C 1395.05 488.50, 1395.30 487.70, 1395.34 486.54 C 1395.38 485.38, 1395.24 484.70, 1394.62 484.09 C 1393.99 483.48, 1393.58 483.30, 1392.21 483.49 C 1390.85 483.67, 1389.97 484.00, 1387.80 485.01 C 1385.63 486.02, 1384.33 486.94, 1381.35 488.55 C 1378.38 490.15, 1376.59 491.22, 1372.92 493.03 C 1369.25 494.84, 1367.06 495.89, 1363.00 497.60 C 1358.94 499.31, 1356.66 500.25, 1352.60 501.58 C 1348.54 502.90, 1346.38 503.54, 1342.71 504.24 C 1339.04 504.93, 1337.16 504.98, 1334.25 505.05 C 1331.35 505.11, 1330.11 504.95, 1328.20 504.55 C 1326.29 504.14, 1325.59 503.89, 1324.69 503.04 C 1323.80 502.20, 1323.59 501.66, 1323.71 500.34 C 1323.82 499.01, 1324.17 498.17, 1325.27 496.43 C 1326.37 494.68, 1327.31 493.56, 1329.22 491.63 C 1331.13 489.70, 1332.45 488.44, 1334.83 486.76 C 1337.20 485.07, 1338.82 484.40, 1341.09 483.20 C 1343.36 481.99, 1344.58 481.51, 1346.18 480.73 C 1347.78 479.96, 1348.41 479.66, 1349.10 479.32 C 1349.80 478.98, 1349.89 478.85, 1349.65 479.03 C 1349.41 479.22, 1349.08 479.49, 1347.92 480.23 C 1346.76 480.97, 1345.89 481.58, 1343.84 482.75 C 1341.80 483.92, 1340.48 484.75, 1337.70 486.08 C 1334.92 487.41, 1333.22 488.17, 1329.96 489.39 C 1326.70 490.62, 1324.82 491.22, 1321.40 492.18 C 1317.99 493.15, 1316.13 493.61, 1312.88 494.21 C 1309.64 494.81, 1307.97 494.93, 1305.17 495.19 C 1302.38 495.45, 1301.07 495.49, 1298.90 495.50 C 1296.72 495.52, 1295.78 495.29, 1294.29 495.27 C 1292.80 495.25, 1292.32 495.30, 1291.45 495.39 C 1290.58 495.48, 1290.40 495.36, 1289.94 495.72 C 1289.48 496.08, 1289.08 496.54, 1289.16 497.19" style="stroke: black; fill: black;"/></svg>