<svg xmlns="http://www.w3.org/2000/svg" id="canvas" viewBox="193.483 471.333 920.707 56.079"><path d="M 209.57,479.67 C 209.24 479.89, 209.06 480.20, 208.62 481.01 C 208.17 481.83, 207.91 482.36, 207.34 483.74 C 206.77 485.12, 206.46 486.07, 205.78 487.91 C 205.09 489.76, 204.70 490.88, 203.90 492.96 C 203.11 495.05, 202.62 496.24, 201.79 498.33 C 200.96 500.43, 200.50 501.56, 199.75 503.44 C 199.00 505.32, 198.61 506.27, 198.05 507.74 C 197.49 509.21, 197.24 509.86, 196.94 510.79 C 196.63 511.71, 196.57 511.94, 196.50 512.36 C 196.44 512.79, 196.55 512.83, 196.61 512.92 C 196.67 513.01, 196.80 512.82, 196.79 512.81 C 196.77 512.79, 196.54 512.78, 196.54 512.84 C 196.54 512.91, 196.60 513.13, 196.78 513.13 C 196.95 513.12, 197.10 513.15, 197.41 512.80 C 197.72 512.45, 197.86 512.26, 198.32 511.38 C 198.79 510.51, 199.07 509.87, 199.72 508.44 C 200.38 507.00, 200.77 506.06, 201.58 504.20 C 202.38 502.34, 202.86 501.21, 203.74 499.13 C 204.62 497.04, 205.12 495.86, 205.97 493.78 C 206.82 491.70, 207.27 490.59, 207.97 488.73 C 208.66 486.88, 209.00 485.93, 209.44 484.50 C 209.88 483.06, 210.01 482.48, 210.18 481.57 C 210.34 480.65, 210.39 480.29, 210.27 479.91 C 210.15 479.53, 209.90 479.45, 209.57 479.67" style="stroke: black; fill: black;"/><path d="M 208.45,481.56 C 208.33 481.96, 208.42 482.35, 208.58 483.29 C 208.75 484.22, 208.88 484.84, 209.25 486.22 C 209.63 487.60, 209.95 488.52, 210.46 490.19 C 210.98 491.85, 211.29 492.81, 211.83 494.54 C 212.37 496.28, 212.64 497.21, 213.16 498.85 C 213.67 500.48, 213.93 501.31, 214.41 502.70 C 214.89 504.10, 215.13 504.77, 215.56 505.83 C 215.98 506.90, 216.19 507.37, 216.55 508.03 C 216.91 508.69, 217.11 508.84, 217.36 509.13 C 217.62 509.43, 217.68 509.45, 217.84 509.49 C 218.00 509.54, 218.09 509.50, 218.17 509.35 C 218.25 509.20, 218.27 509.14, 218.23 508.75 C 218.19 508.37, 218.18 508.14, 217.97 507.44 C 217.76 506.73, 217.56 506.29, 217.20 505.23 C 216.85 504.16, 216.62 503.51, 216.19 502.12 C 215.77 500.73, 215.52 499.91, 215.06 498.28 C 214.60 496.64, 214.36 495.70, 213.89 493.95 C 213.42 492.19, 213.19 491.20, 212.70 489.51 C 212.21 487.83, 211.92 486.89, 211.42 485.53 C 210.92 484.17, 210.65 483.58, 210.20 482.73 C 209.75 481.88, 209.51 481.53, 209.16 481.29 C 208.81 481.06, 208.57 481.16, 208.45 481.56" style="stroke: black; fill: black;"/><path d="M 201.50,501.33 C 201.73 501.52, 201.89 501.58, 202.50 501.63 C 203.10 501.68, 203.52 501.68, 204.53 501.58 C 205.54 501.47, 206.21 501.35, 207.54 501.10 C 208.87 500.85, 209.71 500.66, 211.18 500.35 C 212.65 500.04, 213.48 499.87, 214.91 499.56 C 216.33 499.26, 217.12 499.10, 218.32 498.83 C 219.53 498.57, 220.08 498.47, 220.92 498.23 C 221.76 498.00, 222.20 497.90, 222.50 497.67 C 222.81 497.43, 222.79 497.24, 222.44 497.07 C 222.09 496.90, 221.64 496.85, 220.75 496.82 C 219.87 496.79, 219.26 496.78, 218.01 496.92 C 216.76 497.06, 215.96 497.26, 214.51 497.51 C 213.07 497.75, 212.25 497.90, 210.77 498.15 C 209.29 498.39, 208.45 498.50, 207.12 498.73 C 205.79 498.97, 205.10 499.06, 204.12 499.32 C 203.13 499.58, 202.74 499.77, 202.20 500.03 C 201.65 500.30, 201.52 500.39, 201.39 500.65 C 201.25 500.91, 201.28 501.13, 201.50 501.33" style="stroke: black; fill: black;"/><path d="M 229.49,497.50 C 229.24 497.76, 229.17 498.10, 229.04 498.76 C 228.90 499.42, 228.87 499.90, 228.83 500.80 C 228.79 501.71, 228.80 502.35, 228.85 503.28 C 228.89 504.22, 228.90 504.75, 229.06 505.49 C 229.22 506.23, 229.32 506.58, 229.64 506.97 C 229.97 507.37, 230.22 507.50, 230.70 507.47 C 231.17 507.43, 231.49 507.28, 232.02 506.78 C 232.56 506.29, 232.83 505.84, 233.37 504.98 C 233.91 504.13, 234.17 503.49, 234.72 502.52 C 235.27 501.56, 235.60 500.96, 236.13 500.14 C 236.65 499.32, 236.95 498.92, 237.35 498.44 C 237.75 497.95, 237.91 497.80, 238.13 497.72 C 238.35 497.65, 238.37 497.74, 238.45 498.06 C 238.53 498.37, 238.49 498.68, 238.54 499.29 C 238.58 499.89, 238.59 500.35, 238.66 501.07 C 238.74 501.80, 238.74 502.27, 238.91 502.93 C 239.08 503.58, 239.17 503.93, 239.50 504.35 C 239.83 504.76, 240.07 504.94, 240.56 505.00 C 241.05 505.06, 241.37 504.98, 241.96 504.63 C 242.55 504.28, 242.86 503.92, 243.49 503.25 C 244.12 502.58, 244.45 502.05, 245.12 501.27 C 245.79 500.49, 246.19 500.00, 246.85 499.36 C 247.50 498.72, 247.86 498.41, 248.40 498.07 C 248.94 497.73, 249.18 497.65, 249.55 497.67 C 249.93 497.68, 250.05 497.80, 250.29 498.16 C 250.53 498.51, 250.57 498.82, 250.75 499.43 C 250.93 500.05, 251.00 500.49, 251.19 501.24 C 251.39 501.99, 251.47 502.48, 251.73 503.17 C 251.98 503.86, 252.16 504.23, 252.47 504.70 C 252.77 505.17, 252.96 505.39, 253.23 505.51 C 253.50 505.63, 253.67 505.55, 253.81 505.30 C 253.95 505.05, 253.92 504.79, 253.92 504.25 C 253.91 503.72, 253.89 503.35, 253.77 502.63 C 253.66 501.91, 253.56 501.44, 253.33 500.65 C 253.09 499.85, 252.99 499.37, 252.60 498.65 C 252.22 497.93, 251.98 497.53, 251.40 497.05 C 250.83 496.58, 250.46 496.38, 249.71 496.27 C 248.97 496.16, 248.53 496.21, 247.69 496.50 C 246.84 496.79, 246.36 497.10, 245.49 497.73 C 244.63 498.35, 244.13 498.84, 243.35 499.62 C 242.56 500.41, 242.13 500.91, 241.58 501.65 C 241.03 502.39, 240.82 502.82, 240.59 503.32 C 240.36 503.83, 240.39 504.05, 240.42 504.19 C 240.46 504.32, 240.63 504.27, 240.75 503.98 C 240.88 503.69, 240.99 503.38, 241.05 502.74 C 241.10 502.11, 241.13 501.61, 241.03 500.81 C 240.94 500.02, 240.87 499.48, 240.58 498.76 C 240.28 498.04, 240.05 497.63, 239.54 497.20 C 239.04 496.76, 238.70 496.58, 238.04 496.57 C 237.39 496.57, 236.99 496.70, 236.27 497.15 C 235.55 497.61, 235.16 498.04, 234.44 498.85 C 233.72 499.67, 233.32 500.27, 232.66 501.24 C 232.00 502.21, 231.61 502.81, 231.15 503.71 C 230.69 504.61, 230.51 505.11, 230.35 505.73 C 230.18 506.35, 230.25 506.61, 230.32 506.80 C 230.39 506.99, 230.55 506.96, 230.70 506.69 C 230.85 506.41, 230.94 506.11, 231.05 505.42 C 231.16 504.74, 231.22 504.20, 231.25 503.26 C 231.28 502.33, 231.28 501.66, 231.19 500.74 C 231.11 499.83, 231.01 499.35, 230.83 498.69 C 230.65 498.04, 230.55 497.71, 230.28 497.47 C 230.01 497.23, 229.74 497.24, 229.49 497.50" style="stroke: black; fill: black;"/><path d="M 268.52,496.70 C 268.44 496.41, 268.28 496.20, 267.83 496.00 C 267.39 495.79, 267.04 495.65, 266.30 495.69 C 265.55 495.73, 265.01 495.79, 264.11 496.18 C 263.22 496.57, 262.67 496.93, 261.80 497.65 C 260.93 498.38, 260.44 498.89, 259.76 499.80 C 259.07 500.70, 258.72 501.25, 258.37 502.17 C 258.02 503.10, 257.91 503.63, 257.99 504.40 C 258.08 505.17, 258.29 505.57, 258.79 506.03 C 259.30 506.49, 259.72 506.64, 260.52 506.68 C 261.32 506.72, 261.85 506.60, 262.79 506.22 C 263.72 505.83, 264.26 505.47, 265.20 504.75 C 266.15 504.04, 266.65 503.52, 267.50 502.66 C 268.34 501.79, 268.80 501.25, 269.42 500.43 C 270.04 499.61, 270.33 499.15, 270.60 498.57 C 270.87 497.99, 270.86 497.70, 270.78 497.52 C 270.70 497.34, 270.46 497.36, 270.20 497.66 C 269.94 497.96, 269.67 498.32, 269.49 499.01 C 269.30 499.71, 269.23 500.27, 269.30 501.12 C 269.36 501.98, 269.48 502.57, 269.81 503.29 C 270.14 504.00, 270.57 504.47, 270.94 504.70 C 271.32 504.92, 271.55 504.77, 271.70 504.40 C 271.85 504.04, 271.66 503.55, 271.70 502.88 C 271.73 502.22, 271.83 501.82, 271.87 501.08 C 271.90 500.34, 271.96 499.86, 271.87 499.18 C 271.79 498.49, 271.70 498.09, 271.44 497.65 C 271.17 497.22, 270.96 497.03, 270.54 497.00 C 270.12 496.98, 269.87 497.12, 269.33 497.54 C 268.79 497.95, 268.52 498.38, 267.84 499.09 C 267.16 499.80, 266.74 500.31, 265.93 501.08 C 265.13 501.85, 264.63 502.30, 263.81 502.94 C 262.99 503.58, 262.53 503.86, 261.83 504.27 C 261.14 504.69, 260.80 504.84, 260.34 505.00 C 259.89 505.17, 259.73 505.23, 259.56 505.11 C 259.38 505.00, 259.36 504.86, 259.47 504.44 C 259.58 504.02, 259.72 503.66, 260.12 503.01 C 260.51 502.35, 260.83 501.89, 261.45 501.17 C 262.08 500.45, 262.52 500.00, 263.24 499.41 C 263.97 498.83, 264.39 498.57, 265.06 498.24 C 265.72 497.92, 266.07 497.93, 266.57 497.80 C 267.08 497.68, 267.24 497.69, 267.58 497.61 C 267.91 497.54, 268.07 497.60, 268.26 497.42 C 268.45 497.23, 268.61 496.98, 268.52 496.70" style="stroke: black; fill: black;"/><path d="M 280.79,495.46 C 280.54 495.69, 280.48 495.99, 280.33 496.58 C 280.19 497.18, 280.14 497.60, 280.07 498.42 C 280.00 499.23, 279.97 499.80, 279.98 500.65 C 279.99 501.50, 279.97 501.99, 280.12 502.66 C 280.27 503.33, 280.37 503.65, 280.72 504.00 C 281.06 504.35, 281.32 504.46, 281.83 504.41 C 282.35 504.35, 282.67 504.19, 283.30 503.71 C 283.93 503.23, 284.27 502.77, 284.99 501.99 C 285.71 501.22, 286.10 500.63, 286.89 499.82 C 287.67 499.02, 288.14 498.56, 288.92 497.98 C 289.70 497.40, 290.12 497.15, 290.77 496.92 C 291.41 496.68, 291.70 496.67, 292.15 496.80 C 292.60 496.93, 292.75 497.11, 293.02 497.56 C 293.30 498.01, 293.36 498.35, 293.53 499.04 C 293.70 499.72, 293.74 500.18, 293.87 500.98 C 294.00 501.78, 294.02 502.28, 294.17 503.05 C 294.32 503.82, 294.41 504.26, 294.62 504.83 C 294.83 505.40, 294.99 505.60, 295.22 505.89 C 295.46 506.18, 295.60 506.24, 295.79 506.28 C 295.98 506.33, 296.08 506.24, 296.18 506.09 C 296.28 505.94, 296.24 505.88, 296.29 505.56 C 296.33 505.24, 296.41 505.05, 296.40 504.49 C 296.39 503.92, 296.32 503.51, 296.24 502.73 C 296.15 501.96, 296.14 501.48, 295.98 500.61 C 295.82 499.74, 295.75 499.22, 295.42 498.40 C 295.08 497.58, 294.87 497.13, 294.30 496.53 C 293.74 495.93, 293.37 495.64, 292.58 495.40 C 291.79 495.15, 291.30 495.11, 290.35 495.29 C 289.40 495.46, 288.84 495.71, 287.83 496.28 C 286.82 496.84, 286.24 497.30, 285.29 498.10 C 284.34 498.90, 283.80 499.45, 283.08 500.28 C 282.35 501.12, 282.03 501.64, 281.67 502.29 C 281.31 502.94, 281.29 503.25, 281.28 503.53 C 281.26 503.82, 281.42 503.87, 281.59 503.70 C 281.75 503.53, 281.92 503.27, 282.08 502.68 C 282.24 502.09, 282.33 501.59, 282.40 500.74 C 282.47 499.89, 282.49 499.28, 282.44 498.44 C 282.39 497.60, 282.30 497.15, 282.13 496.54 C 281.96 495.94, 281.85 495.64, 281.58 495.42 C 281.31 495.21, 281.04 495.22, 280.79 495.46" style="stroke: black; fill: black;"/><path d="M 308.50,506.43 C 308.12 506.69, 307.86 507.11, 307.35 508.00 C 306.84 508.88, 306.39 509.73, 305.96 510.86 C 305.53 511.99, 305.38 512.74, 305.22 513.66 C 305.05 514.57, 305.03 515.05, 305.13 515.46 C 305.24 515.86, 305.36 515.92, 305.72 515.69 C 306.07 515.47, 306.39 515.12, 306.91 514.33 C 307.42 513.55, 307.85 512.92, 308.31 511.78 C 308.78 510.65, 309.03 509.69, 309.21 508.67 C 309.40 507.65, 309.38 507.12, 309.24 506.67 C 309.09 506.22, 308.87 506.16, 308.50 506.43" style="stroke: black; fill: black;"/><path d="M 333.05,495.51 C 332.79 495.84, 332.70 496.32, 332.54 497.15 C 332.38 497.99, 332.32 498.61, 332.26 499.68 C 332.21 500.74, 332.18 501.48, 332.27 502.49 C 332.37 503.49, 332.55 504.02, 332.75 504.70 C 332.94 505.39, 333.05 505.67, 333.26 505.90 C 333.48 506.14, 333.63 506.13, 333.83 505.88 C 334.02 505.63, 334.10 505.34, 334.25 504.65 C 334.40 503.97, 334.50 503.45, 334.58 502.46 C 334.65 501.47, 334.66 500.76, 334.62 499.70 C 334.59 498.64, 334.56 498.00, 334.41 497.16 C 334.25 496.32, 334.14 495.83, 333.86 495.50 C 333.59 495.17, 333.32 495.18, 333.05 495.51" style="stroke: black; fill: black;"/><path d="M 335.49,484.14 C 335.75 484.17, 335.71 484.26, 335.62 484.29 C 335.54 484.32, 335.24 484.38, 335.07 484.28 C 334.91 484.18, 334.99 483.90, 334.81 483.81 C 334.64 483.72, 334.29 483.77, 334.19 483.84 C 334.09 483.91, 334.06 484.10, 334.32 484.16 C 334.58 484.22, 335.23 484.12, 335.49 484.14" style="stroke: black; fill: black;"/><path d="M 347.51,477.33 C 347.28 477.62, 347.23 477.90, 347.07 478.73 C 346.91 479.56, 346.84 480.12, 346.71 481.47 C 346.57 482.81, 346.54 483.73, 346.40 485.46 C 346.25 487.18, 346.16 488.25, 345.98 490.10 C 345.80 491.96, 345.67 493.01, 345.48 494.75 C 345.29 496.49, 345.17 497.36, 345.03 498.79 C 344.89 500.21, 344.83 500.90, 344.79 501.86 C 344.75 502.82, 344.75 503.11, 344.82 503.59 C 344.88 504.08, 345.01 504.15, 345.10 504.29 C 345.19 504.43, 345.25 504.28, 345.28 504.30 C 345.32 504.31, 345.22 504.34, 345.28 504.36 C 345.33 504.38, 345.42 504.51, 345.57 504.38 C 345.71 504.25, 345.84 504.19, 346.01 503.72 C 346.17 503.25, 346.22 502.99, 346.40 502.05 C 346.57 501.11, 346.67 500.43, 346.89 499.02 C 347.11 497.62, 347.25 496.74, 347.51 495.01 C 347.77 493.28, 347.94 492.23, 348.19 490.36 C 348.44 488.49, 348.61 487.42, 348.77 485.66 C 348.93 483.91, 348.99 482.96, 348.99 481.58 C 348.98 480.19, 348.89 479.59, 348.74 478.74 C 348.59 477.89, 348.48 477.60, 348.23 477.31 C 347.99 477.03, 347.74 477.05, 347.51 477.33" style="stroke: black; fill: black;"/><path d="M 342.71,495.49 C 342.90 495.72, 343.07 495.78, 343.58 495.90 C 344.09 496.01, 344.44 496.04, 345.28 496.07 C 346.12 496.10, 346.71 496.26, 347.78 496.05 C 348.85 495.84, 350.08 495.47, 350.62 495.03 C 351.16 494.59, 351.11 494.17, 350.49 493.85 C 349.88 493.53, 348.62 493.46, 347.54 493.44 C 346.46 493.43, 345.92 493.63, 345.10 493.79 C 344.28 493.95, 343.93 494.04, 343.44 494.24 C 342.95 494.44, 342.80 494.53, 342.65 494.78 C 342.51 495.03, 342.53 495.27, 342.71 495.49" style="stroke: black; fill: black;"/><path d="M 366.19,474.46 C 365.86 474.66, 365.47 474.90, 365.28 475.61 C 365.08 476.31, 364.96 477.45, 365.21 477.97 C 365.46 478.49, 366.12 478.62, 366.55 478.23 C 366.98 477.83, 367.28 476.73, 367.36 476.00 C 367.44 475.28, 367.17 474.91, 366.93 474.60 C 366.70 474.29, 366.52 474.26, 366.19 474.46" style="stroke: black; fill: black;"/><path d="M 382.49,491.48 C 382.32 491.18, 382.05 490.98, 381.48 490.78 C 380.92 490.58, 380.48 490.47, 379.64 490.47 C 378.80 490.47, 378.19 490.53, 377.28 490.79 C 376.37 491.06, 375.83 491.30, 375.08 491.80 C 374.33 492.30, 373.94 492.62, 373.52 493.27 C 373.09 493.93, 372.94 494.33, 372.95 495.07 C 372.96 495.81, 373.11 496.25, 373.57 496.97 C 374.02 497.70, 374.44 498.06, 375.21 498.70 C 375.99 499.33, 376.55 499.61, 377.44 500.13 C 378.34 500.66, 378.90 500.90, 379.70 501.32 C 380.50 501.73, 380.92 501.92, 381.44 502.22 C 381.95 502.51, 382.16 502.59, 382.29 502.78 C 382.42 502.96, 382.39 502.97, 382.09 503.13 C 381.79 503.30, 381.49 503.36, 380.81 503.60 C 380.12 503.83, 379.59 504.01, 378.66 504.31 C 377.72 504.62, 377.07 504.79, 376.12 505.12 C 375.18 505.45, 374.64 505.64, 373.93 505.96 C 373.22 506.28, 372.82 506.43, 372.58 506.71 C 372.33 506.98, 372.35 507.17, 372.69 507.34 C 373.03 507.52, 373.46 507.57, 374.26 507.57 C 375.07 507.57, 375.67 507.54, 376.71 507.35 C 377.75 507.15, 378.44 506.98, 379.45 506.61 C 380.47 506.23, 381.05 505.99, 381.79 505.47 C 382.54 504.96, 382.86 504.62, 383.19 504.01 C 383.51 503.40, 383.54 503.03, 383.41 502.41 C 383.28 501.79, 383.05 501.48, 382.53 500.90 C 382.00 500.33, 381.57 500.08, 380.78 499.53 C 380.00 498.99, 379.46 498.72, 378.61 498.19 C 377.76 497.67, 377.25 497.38, 376.53 496.91 C 375.80 496.44, 375.43 496.21, 374.99 495.83 C 374.56 495.45, 374.40 495.31, 374.36 495.00 C 374.32 494.70, 374.43 494.58, 374.77 494.30 C 375.11 494.02, 375.44 493.85, 376.06 493.60 C 376.68 493.35, 377.12 493.22, 377.87 493.05 C 378.62 492.88, 379.11 492.85, 379.80 492.75 C 380.49 492.64, 380.81 492.62, 381.32 492.53 C 381.82 492.43, 382.09 492.46, 382.32 492.25 C 382.56 492.04, 382.65 491.77, 382.49 491.48" style="stroke: black; fill: black;"/><path d="M 426.29,491.12 C 426.13 490.83, 425.89 490.65, 425.34 490.46 C 424.80 490.28, 424.38 490.17, 423.56 490.19 C 422.73 490.21, 422.14 490.27, 421.21 490.55 C 420.29 490.82, 419.73 491.07, 418.93 491.56 C 418.12 492.05, 417.68 492.35, 417.17 492.98 C 416.66 493.62, 416.44 494.01, 416.38 494.73 C 416.32 495.45, 416.43 495.88, 416.86 496.58 C 417.29 497.27, 417.70 497.62, 418.52 498.22 C 419.34 498.83, 419.94 499.10, 420.96 499.61 C 421.99 500.13, 422.65 500.36, 423.64 500.79 C 424.62 501.22, 425.17 501.42, 425.88 501.76 C 426.60 502.09, 426.91 502.23, 427.22 502.47 C 427.54 502.72, 427.58 502.78, 427.45 502.98 C 427.33 503.18, 427.13 503.24, 426.57 503.48 C 426.02 503.72, 425.60 503.87, 424.70 504.18 C 423.80 504.49, 423.18 504.72, 422.08 505.04 C 420.98 505.36, 420.28 505.52, 419.19 505.77 C 418.09 506.01, 417.44 506.06, 416.59 506.26 C 415.74 506.45, 415.42 506.58, 414.93 506.74 C 414.45 506.90, 414.31 506.90, 414.15 507.05 C 413.98 507.20, 413.95 507.32, 414.11 507.49 C 414.28 507.67, 414.43 507.79, 414.97 507.92 C 415.50 508.05, 415.87 508.15, 416.79 508.15 C 417.72 508.15, 418.40 508.11, 419.58 507.93 C 420.77 507.76, 421.51 507.60, 422.71 507.28 C 423.91 506.95, 424.58 506.75, 425.57 506.29 C 426.55 505.83, 427.03 505.55, 427.64 504.96 C 428.24 504.37, 428.46 503.99, 428.60 503.33 C 428.73 502.67, 428.64 502.29, 428.30 501.66 C 427.95 501.03, 427.61 500.74, 426.87 500.17 C 426.13 499.60, 425.57 499.35, 424.60 498.82 C 423.63 498.29, 422.99 498.01, 422.01 497.52 C 421.02 497.04, 420.46 496.78, 419.69 496.38 C 418.91 495.98, 418.53 495.82, 418.13 495.52 C 417.73 495.22, 417.63 495.14, 417.68 494.88 C 417.73 494.62, 417.93 494.51, 418.37 494.23 C 418.82 493.95, 419.21 493.75, 419.90 493.47 C 420.60 493.19, 421.08 493.02, 421.85 492.82 C 422.62 492.62, 423.10 492.58, 423.77 492.46 C 424.45 492.33, 424.75 492.31, 425.23 492.19 C 425.70 492.07, 425.93 492.09, 426.15 491.88 C 426.36 491.66, 426.45 491.40, 426.29 491.12" style="stroke: black; fill: black;"/><path d="M 439.08,495.65 C 438.90 495.41, 438.70 495.20, 438.14 495.16 C 437.59 495.11, 437.11 495.10, 436.29 495.42 C 435.47 495.74, 434.90 496.04, 434.03 496.78 C 433.17 497.51, 432.64 498.09, 431.97 499.09 C 431.31 500.10, 430.96 500.76, 430.71 501.80 C 430.47 502.84, 430.45 503.46, 430.75 504.31 C 431.05 505.17, 431.40 505.60, 432.20 506.08 C 433.00 506.56, 433.62 506.70, 434.75 506.70 C 435.87 506.71, 436.60 506.55, 437.83 506.12 C 439.05 505.69, 439.76 505.31, 440.87 504.55 C 441.97 503.80, 442.57 503.29, 443.36 502.34 C 444.16 501.39, 444.52 500.80, 444.86 499.80 C 445.21 498.79, 445.24 498.22, 445.10 497.31 C 444.95 496.40, 444.68 495.92, 444.13 495.24 C 443.58 494.56, 443.10 494.23, 442.35 493.90 C 441.60 493.56, 441.03 493.53, 440.37 493.55 C 439.70 493.58, 439.29 493.77, 439.01 494.01 C 438.74 494.25, 438.77 494.50, 439.00 494.75 C 439.22 495.00, 439.61 495.07, 440.13 495.26 C 440.65 495.44, 441.03 495.47, 441.58 495.69 C 442.13 495.91, 442.49 495.99, 442.88 496.36 C 443.27 496.73, 443.48 496.98, 443.55 497.55 C 443.63 498.11, 443.59 498.47, 443.26 499.16 C 442.94 499.86, 442.62 500.30, 441.91 501.02 C 441.20 501.74, 440.66 502.15, 439.69 502.76 C 438.72 503.36, 438.08 503.65, 437.06 504.04 C 436.05 504.43, 435.45 504.59, 434.62 504.72 C 433.78 504.86, 433.37 504.87, 432.87 504.71 C 432.38 504.55, 432.21 504.39, 432.14 503.92 C 432.07 503.46, 432.19 503.10, 432.52 502.40 C 432.86 501.71, 433.20 501.20, 433.82 500.44 C 434.44 499.68, 434.91 499.22, 435.61 498.62 C 436.31 498.02, 436.74 497.81, 437.31 497.43 C 437.87 497.06, 438.09 496.96, 438.44 496.75 C 438.78 496.53, 438.90 496.58, 439.03 496.36 C 439.15 496.15, 439.26 495.90, 439.08 495.65" style="stroke: black; fill: black;"/><path d="M 481.87,491.75 C 481.71 491.47, 481.48 491.29, 480.94 491.10 C 480.40 490.91, 479.99 490.80, 479.18 490.81 C 478.36 490.81, 477.78 490.86, 476.87 491.11 C 475.96 491.35, 475.42 491.58, 474.63 492.04 C 473.83 492.49, 473.40 492.77, 472.90 493.37 C 472.40 493.98, 472.20 494.36, 472.14 495.06 C 472.09 495.76, 472.20 496.17, 472.62 496.86 C 473.04 497.55, 473.44 497.90, 474.26 498.51 C 475.08 499.12, 475.68 499.40, 476.71 499.92 C 477.73 500.45, 478.39 500.68, 479.39 501.13 C 480.38 501.59, 480.93 501.82, 481.69 502.19 C 482.44 502.56, 482.78 502.72, 483.14 502.98 C 483.51 503.24, 483.59 503.30, 483.51 503.48 C 483.42 503.66, 483.24 503.70, 482.72 503.89 C 482.20 504.08, 481.77 504.19, 480.89 504.44 C 480.01 504.69, 479.41 504.87, 478.34 505.12 C 477.26 505.37, 476.58 505.51, 475.52 505.70 C 474.46 505.88, 473.84 505.90, 473.02 506.04 C 472.21 506.19, 471.92 506.30, 471.46 506.43 C 470.99 506.55, 470.87 506.54, 470.71 506.68 C 470.55 506.82, 470.51 506.93, 470.65 507.11 C 470.79 507.29, 470.92 507.41, 471.41 507.58 C 471.91 507.74, 472.24 507.87, 473.12 507.93 C 474.00 507.99, 474.66 507.99, 475.81 507.88 C 476.96 507.77, 477.69 507.66, 478.85 507.40 C 480.02 507.14, 480.69 507.00, 481.66 506.58 C 482.63 506.17, 483.12 505.90, 483.71 505.33 C 484.30 504.76, 484.50 504.38, 484.60 503.73 C 484.71 503.08, 484.61 502.71, 484.23 502.08 C 483.85 501.44, 483.47 501.14, 482.69 500.57 C 481.92 499.99, 481.35 499.73, 480.37 499.18 C 479.38 498.64, 478.76 498.35, 477.78 497.84 C 476.79 497.34, 476.23 497.06, 475.45 496.65 C 474.68 496.24, 474.30 496.08, 473.90 495.78 C 473.49 495.49, 473.38 495.41, 473.42 495.18 C 473.45 494.95, 473.63 494.87, 474.05 494.62 C 474.48 494.38, 474.86 494.21, 475.54 493.96 C 476.22 493.72, 476.68 493.57, 477.44 493.39 C 478.20 493.22, 478.68 493.20, 479.35 493.08 C 480.03 492.97, 480.33 492.95, 480.81 492.83 C 481.29 492.72, 481.53 492.73, 481.74 492.51 C 481.95 492.30, 482.03 492.03, 481.87 491.75" style="stroke: black; fill: black;"/><path d="M 496.58,496.39 C 496.54 496.11, 496.43 495.91, 496.02 495.66 C 495.61 495.41, 495.28 495.18, 494.53 495.15 C 493.79 495.11, 493.22 495.15, 492.28 495.49 C 491.34 495.82, 490.77 496.15, 489.85 496.82 C 488.93 497.48, 488.41 497.96, 487.69 498.81 C 486.98 499.66, 486.61 500.21, 486.28 501.08 C 485.95 501.95, 485.90 502.46, 486.05 503.16 C 486.21 503.87, 486.47 504.24, 487.06 504.61 C 487.65 504.99, 488.13 505.09, 489.00 505.05 C 489.88 505.01, 490.45 504.84, 491.46 504.40 C 492.46 503.97, 493.03 503.58, 494.03 502.88 C 495.02 502.19, 495.59 501.69, 496.43 500.93 C 497.27 500.16, 497.73 499.67, 498.24 499.05 C 498.75 498.43, 498.87 498.08, 498.98 497.82 C 499.08 497.56, 498.94 497.55, 498.78 497.76 C 498.62 497.96, 498.35 498.24, 498.17 498.84 C 497.99 499.45, 497.82 499.98, 497.89 500.80 C 497.95 501.61, 498.09 502.27, 498.51 502.91 C 498.92 503.56, 499.53 503.90, 499.95 504.03 C 500.37 504.16, 500.54 503.91, 500.62 503.55 C 500.69 503.19, 500.35 502.82, 500.31 502.25 C 500.28 501.67, 500.43 501.35, 500.43 500.68 C 500.43 500.01, 500.46 499.54, 500.32 498.90 C 500.17 498.26, 500.05 497.86, 499.70 497.47 C 499.36 497.07, 499.12 496.91, 498.58 496.94 C 498.04 496.97, 497.71 497.17, 496.99 497.63 C 496.27 498.09, 495.85 498.57, 495.00 499.25 C 494.15 499.92, 493.63 500.38, 492.73 501.01 C 491.82 501.63, 491.29 501.93, 490.48 502.36 C 489.67 502.80, 489.24 502.96, 488.67 503.18 C 488.09 503.40, 487.86 503.49, 487.60 503.47 C 487.34 503.44, 487.29 503.36, 487.35 503.05 C 487.42 502.74, 487.54 502.46, 487.93 501.91 C 488.32 501.35, 488.65 500.92, 489.30 500.28 C 489.95 499.63, 490.42 499.22, 491.18 498.69 C 491.94 498.17, 492.42 497.93, 493.10 497.64 C 493.79 497.36, 494.13 497.35, 494.62 497.27 C 495.11 497.18, 495.25 497.26, 495.57 497.22 C 495.90 497.18, 496.06 497.24, 496.26 497.08 C 496.46 496.91, 496.63 496.68, 496.58 496.39" style="stroke: black; fill: black;"/><path d="M 517.25,497.51 C 517.15 497.24, 517.02 496.99, 516.51 496.82 C 516.01 496.66, 515.57 496.53, 514.73 496.69 C 513.88 496.84, 513.29 497.04, 512.28 497.61 C 511.28 498.18, 510.66 498.67, 509.73 499.54 C 508.79 500.41, 508.26 501.00, 507.61 501.96 C 506.97 502.92, 506.67 503.49, 506.51 504.34 C 506.34 505.20, 506.42 505.67, 506.78 506.23 C 507.15 506.78, 507.55 507.03, 508.34 507.12 C 509.12 507.21, 509.68 507.13, 510.72 506.69 C 511.75 506.25, 512.37 505.86, 513.52 504.92 C 514.67 503.98, 515.30 503.34, 516.47 502.00 C 517.64 500.66, 518.27 499.83, 519.37 498.21 C 520.47 496.59, 521.04 495.64, 521.97 493.91 C 522.91 492.18, 523.35 491.20, 524.03 489.58 C 524.71 487.96, 525.00 487.11, 525.38 485.81 C 525.75 484.50, 525.89 483.89, 525.90 483.06 C 525.91 482.24, 525.75 481.90, 525.41 481.67 C 525.08 481.43, 524.70 481.46, 524.21 481.90 C 523.72 482.35, 523.39 482.80, 522.97 483.90 C 522.55 485.00, 522.37 485.82, 522.11 487.39 C 521.84 488.95, 521.75 489.97, 521.64 491.74 C 521.54 493.51, 521.49 494.54, 521.57 496.25 C 521.65 497.96, 521.74 498.84, 522.05 500.29 C 522.36 501.75, 522.58 502.42, 523.12 503.52 C 523.66 504.61, 524.07 505.07, 524.74 505.75 C 525.41 506.43, 525.86 506.65, 526.48 506.92 C 527.09 507.19, 527.51 507.17, 527.83 507.09 C 528.15 507.01, 528.20 506.78, 528.07 506.52 C 527.94 506.25, 527.60 506.15, 527.18 505.78 C 526.76 505.40, 526.46 505.24, 525.95 504.64 C 525.44 504.04, 525.07 503.73, 524.65 502.79 C 524.23 501.86, 524.07 501.28, 523.87 499.96 C 523.66 498.64, 523.63 497.81, 523.64 496.21 C 523.65 494.60, 523.73 493.61, 523.92 491.93 C 524.11 490.25, 524.31 489.29, 524.57 487.80 C 524.82 486.32, 525.03 485.57, 525.19 484.50 C 525.35 483.43, 525.40 482.99, 525.37 482.46 C 525.35 481.93, 525.24 481.79, 525.07 481.86 C 524.90 481.92, 524.80 482.12, 524.52 482.80 C 524.24 483.47, 524.11 484.03, 523.65 485.23 C 523.19 486.43, 522.91 487.25, 522.21 488.79 C 521.51 490.32, 521.07 491.26, 520.15 492.91 C 519.23 494.55, 518.67 495.47, 517.60 496.99 C 516.53 498.52, 515.92 499.31, 514.82 500.54 C 513.71 501.78, 513.09 502.32, 512.08 503.17 C 511.06 504.03, 510.51 504.32, 509.74 504.82 C 508.98 505.32, 508.65 505.49, 508.23 505.67 C 507.81 505.85, 507.69 505.88, 507.64 505.73 C 507.60 505.57, 507.67 505.39, 508.00 504.89 C 508.33 504.40, 508.63 503.98, 509.29 503.26 C 509.95 502.55, 510.46 502.02, 511.30 501.30 C 512.14 500.59, 512.71 500.19, 513.52 499.68 C 514.32 499.18, 514.76 499.06, 515.34 498.80 C 515.93 498.54, 516.10 498.51, 516.44 498.38 C 516.77 498.26, 516.84 498.35, 517.01 498.17 C 517.17 498.00, 517.35 497.78, 517.25 497.51" style="stroke: black; fill: black;"/><path d="M 563.00,481.34 C 562.77 481.57, 562.72 481.78, 562.55 482.48 C 562.39 483.18, 562.30 483.64, 562.18 484.83 C 562.07 486.02, 562.06 486.85, 561.96 488.43 C 561.87 490.01, 561.83 491.00, 561.72 492.74 C 561.61 494.49, 561.53 495.49, 561.41 497.16 C 561.29 498.84, 561.20 499.70, 561.10 501.11 C 561.00 502.52, 560.92 503.20, 560.90 504.20 C 560.87 505.20, 560.92 505.55, 560.98 506.11 C 561.03 506.67, 561.05 506.82, 561.17 507.01 C 561.30 507.21, 561.42 507.23, 561.60 507.08 C 561.78 506.92, 561.86 506.78, 562.05 506.24 C 562.25 505.70, 562.38 505.37, 562.57 504.38 C 562.76 503.39, 562.82 502.71, 563.00 501.30 C 563.18 499.90, 563.28 499.03, 563.47 497.36 C 563.66 495.68, 563.78 494.68, 563.95 492.93 C 564.13 491.17, 564.26 490.18, 564.36 488.57 C 564.46 486.97, 564.49 486.13, 564.46 484.91 C 564.43 483.70, 564.34 483.21, 564.19 482.49 C 564.04 481.77, 563.94 481.55, 563.71 481.32 C 563.47 481.09, 563.23 481.10, 563.00 481.34" style="stroke: black; fill: black;"/><path d="M 555.69,498.31 C 555.92 498.49, 556.07 498.51, 556.64 498.57 C 557.22 498.62, 557.59 498.63, 558.55 498.58 C 559.52 498.52, 560.18 498.44, 561.46 498.29 C 562.75 498.14, 563.56 498.02, 564.99 497.82 C 566.41 497.62, 567.22 497.51, 568.60 497.30 C 569.99 497.09, 570.71 496.98, 571.91 496.78 C 573.10 496.58, 573.70 496.50, 574.56 496.30 C 575.43 496.09, 575.84 495.93, 576.23 495.75 C 576.61 495.57, 576.64 495.38, 576.50 495.40 C 576.36 495.43, 576.06 495.46, 575.54 495.87 C 575.02 496.27, 574.55 496.62, 573.89 497.45 C 573.24 498.27, 572.79 498.92, 572.26 499.99 C 571.74 501.06, 571.44 501.76, 571.28 502.81 C 571.11 503.86, 571.11 504.44, 571.41 505.24 C 571.72 506.05, 572.05 506.42, 572.78 506.84 C 573.51 507.26, 574.08 507.37, 575.08 507.32 C 576.07 507.27, 576.71 507.08, 577.76 506.61 C 578.82 506.13, 579.41 505.73, 580.35 504.94 C 581.28 504.15, 581.77 503.63, 582.45 502.66 C 583.12 501.69, 583.43 501.09, 583.73 500.07 C 584.03 499.04, 584.09 498.46, 583.94 497.54 C 583.80 496.61, 583.57 496.12, 583.03 495.44 C 582.48 494.77, 582.03 494.48, 581.23 494.17 C 580.43 493.86, 579.82 493.76, 579.04 493.90 C 578.25 494.04, 577.60 494.50, 577.30 494.87 C 577.01 495.25, 577.18 495.60, 577.56 495.79 C 577.95 495.97, 578.59 495.77, 579.20 495.78 C 579.82 495.80, 580.13 495.72, 580.65 495.86 C 581.17 496.00, 581.46 496.10, 581.79 496.48 C 582.12 496.85, 582.26 497.13, 582.30 497.73 C 582.34 498.34, 582.29 498.74, 581.99 499.49 C 581.70 500.23, 581.43 500.71, 580.83 501.47 C 580.23 502.23, 579.79 502.65, 578.99 503.28 C 578.19 503.91, 577.65 504.21, 576.82 504.64 C 575.98 505.07, 575.51 505.24, 574.82 505.42 C 574.13 505.60, 573.79 505.66, 573.38 505.54 C 572.97 505.43, 572.82 505.31, 572.78 504.86 C 572.74 504.42, 572.84 504.07, 573.16 503.33 C 573.49 502.59, 573.83 502.06, 574.39 501.18 C 574.96 500.29, 575.44 499.77, 575.97 498.92 C 576.51 498.07, 576.83 497.63, 577.07 496.91 C 577.32 496.20, 577.37 495.83, 577.19 495.35 C 577.02 494.88, 576.79 494.71, 576.21 494.54 C 575.63 494.38, 575.21 494.47, 574.29 494.54 C 573.38 494.61, 572.82 494.74, 571.63 494.88 C 570.44 495.02, 569.72 495.10, 568.34 495.25 C 566.96 495.39, 566.16 495.46, 564.73 495.59 C 563.30 495.73, 562.49 495.76, 561.19 495.90 C 559.89 496.04, 559.21 496.10, 558.24 496.31 C 557.27 496.52, 556.88 496.71, 556.34 496.97 C 555.80 497.23, 555.67 497.36, 555.54 497.63 C 555.41 497.90, 555.47 498.12, 555.69 498.31" style="stroke: black; fill: black;"/><path d="M 619.17,493.43 C 619.03 493.16, 618.82 492.99, 618.34 492.82 C 617.85 492.65, 617.49 492.56, 616.74 492.59 C 615.99 492.62, 615.45 492.69, 614.59 492.97 C 613.73 493.25, 613.21 493.51, 612.44 494.00 C 611.67 494.50, 611.25 494.80, 610.74 495.44 C 610.23 496.07, 610.01 496.46, 609.90 497.19 C 609.79 497.92, 609.86 498.34, 610.20 499.07 C 610.55 499.79, 610.91 500.17, 611.62 500.82 C 612.34 501.46, 612.87 501.75, 613.77 502.29 C 614.67 502.83, 615.25 503.08, 616.11 503.52 C 616.97 503.97, 617.45 504.18, 618.07 504.51 C 618.70 504.84, 618.97 504.96, 619.23 505.17 C 619.49 505.38, 619.52 505.41, 619.38 505.56 C 619.23 505.70, 619.02 505.73, 618.49 505.90 C 617.97 506.06, 617.55 506.17, 616.76 506.38 C 615.98 506.60, 615.42 506.77, 614.57 506.96 C 613.71 507.16, 613.20 507.23, 612.48 507.36 C 611.75 507.48, 611.43 507.51, 610.95 507.59 C 610.46 507.67, 610.27 507.62, 610.06 507.75 C 609.85 507.89, 609.78 508.03, 609.92 508.27 C 610.05 508.50, 610.23 508.70, 610.75 508.92 C 611.28 509.15, 611.71 509.32, 612.56 509.39 C 613.40 509.45, 614.01 509.40, 615.00 509.24 C 615.99 509.09, 616.61 508.97, 617.51 508.62 C 618.40 508.27, 618.88 508.02, 619.48 507.51 C 620.07 506.99, 620.31 506.64, 620.49 506.03 C 620.66 505.42, 620.61 505.06, 620.35 504.45 C 620.08 503.84, 619.78 503.56, 619.15 503.00 C 618.52 502.44, 618.03 502.18, 617.19 501.65 C 616.35 501.11, 615.80 500.82, 614.95 500.32 C 614.10 499.82, 613.60 499.55, 612.93 499.13 C 612.26 498.70, 611.92 498.52, 611.59 498.19 C 611.26 497.85, 611.20 497.74, 611.28 497.45 C 611.37 497.16, 611.57 497.03, 612.01 496.72 C 612.46 496.42, 612.84 496.22, 613.50 495.92 C 614.16 495.62, 614.61 495.45, 615.32 495.23 C 616.02 495.01, 616.44 494.97, 617.03 494.83 C 617.62 494.69, 617.86 494.65, 618.26 494.52 C 618.66 494.39, 618.85 494.41, 619.03 494.19 C 619.22 493.97, 619.31 493.71, 619.17 493.43" style="stroke: black; fill: black;"/><path d="M 626.05,502.59 C 626.32 502.79, 626.62 502.84, 627.21 502.82 C 627.81 502.79, 628.23 502.74, 629.03 502.47 C 629.83 502.20, 630.35 501.97, 631.20 501.48 C 632.05 500.99, 632.50 500.65, 633.26 500.02 C 634.02 499.40, 634.41 499.04, 634.98 498.36 C 635.55 497.68, 635.83 497.31, 636.11 496.62 C 636.40 495.93, 636.50 495.53, 636.40 494.90 C 636.31 494.27, 636.15 493.88, 635.65 493.45 C 635.15 493.02, 634.73 492.81, 633.92 492.74 C 633.10 492.67, 632.55 492.75, 631.58 493.10 C 630.61 493.44, 630.01 493.77, 629.07 494.47 C 628.14 495.16, 627.61 495.65, 626.89 496.57 C 626.18 497.48, 625.83 498.05, 625.50 499.04 C 625.17 500.03, 625.09 500.61, 625.24 501.54 C 625.39 502.46, 625.62 502.96, 626.26 503.69 C 626.89 504.41, 627.39 504.74, 628.42 505.16 C 629.45 505.58, 630.12 505.70, 631.41 505.79 C 632.70 505.89, 633.43 505.83, 634.87 505.63 C 636.31 505.43, 637.10 505.24, 638.59 504.78 C 640.07 504.33, 640.88 504.01, 642.29 503.35 C 643.70 502.69, 644.43 502.29, 645.66 501.49 C 646.89 500.70, 647.50 500.24, 648.45 499.38 C 649.40 498.52, 649.84 498.06, 650.39 497.21 C 650.93 496.36, 651.12 495.89, 651.16 495.14 C 651.21 494.38, 651.08 493.96, 650.62 493.43 C 650.16 492.91, 649.72 492.65, 648.87 492.52 C 648.02 492.40, 647.39 492.45, 646.36 492.80 C 645.34 493.14, 644.69 493.50, 643.73 494.24 C 642.78 494.98, 642.24 495.52, 641.57 496.51 C 640.91 497.51, 640.59 498.13, 640.42 499.21 C 640.24 500.28, 640.30 500.91, 640.71 501.87 C 641.12 502.83, 641.54 503.31, 642.47 504.02 C 643.40 504.73, 644.05 505.02, 645.34 505.41 C 646.64 505.79, 647.57 505.89, 648.94 505.95 C 650.31 506.01, 651.11 505.90, 652.19 505.70 C 653.28 505.51, 653.95 505.26, 654.38 504.96 C 654.80 504.67, 654.75 504.45, 654.30 504.25 C 653.85 504.04, 653.16 504.06, 652.12 503.95 C 651.08 503.84, 650.35 503.82, 649.10 503.69 C 647.86 503.57, 647.00 503.56, 645.88 503.32 C 644.76 503.08, 644.23 502.93, 643.49 502.51 C 642.75 502.09, 642.45 501.81, 642.17 501.22 C 641.90 500.63, 641.90 500.27, 642.11 499.57 C 642.32 498.88, 642.62 498.44, 643.22 497.74 C 643.82 497.03, 644.30 496.62, 645.10 496.05 C 645.89 495.47, 646.42 495.22, 647.17 494.87 C 647.93 494.52, 648.33 494.41, 648.86 494.29 C 649.38 494.18, 649.59 494.16, 649.79 494.28 C 649.99 494.41, 650.02 494.53, 649.87 494.91 C 649.71 495.30, 649.55 495.60, 649.03 496.21 C 648.50 496.82, 648.10 497.24, 647.22 497.97 C 646.34 498.69, 645.77 499.13, 644.62 499.83 C 643.46 500.54, 642.77 500.91, 641.45 501.50 C 640.12 502.09, 639.36 502.38, 637.98 502.79 C 636.61 503.20, 635.87 503.37, 634.58 503.55 C 633.28 503.73, 632.63 503.75, 631.52 503.71 C 630.42 503.66, 629.88 503.57, 629.06 503.34 C 628.24 503.11, 627.89 502.95, 627.44 502.55 C 626.99 502.14, 626.86 501.89, 626.81 501.33 C 626.76 500.76, 626.86 500.40, 627.20 499.72 C 627.54 499.04, 627.86 498.61, 628.50 497.93 C 629.14 497.25, 629.62 496.86, 630.41 496.31 C 631.19 495.76, 631.70 495.51, 632.42 495.18 C 633.14 494.84, 633.50 494.74, 633.99 494.62 C 634.48 494.50, 634.65 494.50, 634.85 494.57 C 635.06 494.64, 635.09 494.71, 635.04 494.96 C 634.98 495.21, 634.89 495.41, 634.60 495.83 C 634.30 496.24, 634.08 496.55, 633.56 497.05 C 633.04 497.55, 632.68 497.87, 631.99 498.35 C 631.29 498.83, 630.85 499.06, 630.08 499.46 C 629.32 499.86, 628.84 500.03, 628.17 500.37 C 627.49 500.70, 627.17 500.84, 626.71 501.14 C 626.25 501.43, 626.00 501.54, 625.87 501.83 C 625.74 502.12, 625.78 502.39, 626.05 502.59" style="stroke: black; fill: black;"/><path d="M 683.26,494.15 C 683.03 494.36, 682.94 494.57, 682.84 495.13 C 682.73 495.69, 682.65 496.10, 682.74 496.96 C 682.82 497.81, 682.95 498.43, 683.27 499.39 C 683.59 500.34, 683.83 500.89, 684.34 501.72 C 684.85 502.56, 685.15 502.99, 685.83 503.56 C 686.50 504.14, 686.90 504.39, 687.70 504.62 C 688.49 504.85, 688.95 504.86, 689.81 504.72 C 690.67 504.57, 691.14 504.39, 692.01 503.89 C 692.89 503.39, 693.36 503.02, 694.19 502.23 C 695.01 501.45, 695.43 500.90, 696.16 499.97 C 696.88 499.04, 697.24 498.45, 697.81 497.58 C 698.38 496.70, 698.69 496.24, 699.01 495.57 C 699.33 494.91, 699.40 494.58, 699.42 494.27 C 699.43 493.96, 699.26 493.87, 699.08 494.01 C 698.91 494.16, 698.72 494.36, 698.53 494.99 C 698.35 495.61, 698.26 496.08, 698.16 497.13 C 698.06 498.19, 698.09 498.89, 698.03 500.27 C 697.97 501.65, 697.96 502.47, 697.86 504.02 C 697.77 505.58, 697.72 506.45, 697.56 508.06 C 697.39 509.66, 697.30 510.52, 697.03 512.05 C 696.76 513.58, 696.60 514.36, 696.19 515.69 C 695.77 517.03, 695.52 517.66, 694.95 518.71 C 694.39 519.76, 694.06 520.23, 693.38 520.94 C 692.71 521.65, 692.31 521.92, 691.59 522.27 C 690.86 522.63, 690.46 522.71, 689.76 522.72 C 689.06 522.73, 688.69 522.63, 688.09 522.33 C 687.50 522.03, 687.19 521.79, 686.77 521.20 C 686.36 520.61, 686.16 520.23, 686.02 519.39 C 685.87 518.55, 685.85 518.03, 686.05 517.00 C 686.25 515.97, 686.45 515.37, 687.02 514.25 C 687.60 513.13, 688.01 512.52, 688.92 511.40 C 689.84 510.29, 690.43 509.71, 691.61 508.68 C 692.79 507.65, 693.49 507.15, 694.82 506.25 C 696.15 505.36, 696.89 504.94, 698.26 504.19 C 699.63 503.43, 700.37 503.09, 701.67 502.47 C 702.97 501.84, 703.63 501.57, 704.77 501.07 C 705.91 500.56, 706.46 500.36, 707.38 499.93 C 708.30 499.50, 708.73 499.33, 709.38 498.91 C 710.02 498.49, 710.41 498.16, 710.59 497.82 C 710.76 497.49, 710.63 497.27, 710.26 497.23 C 709.90 497.19, 709.48 497.40, 708.76 497.61 C 708.05 497.83, 707.64 497.97, 706.70 498.32 C 705.76 498.67, 705.21 498.90, 704.05 499.38 C 702.88 499.87, 702.20 500.13, 700.86 500.74 C 699.52 501.36, 698.76 501.70, 697.33 502.47 C 695.90 503.24, 695.12 503.66, 693.71 504.59 C 692.29 505.52, 691.55 506.04, 690.27 507.14 C 689.00 508.24, 688.35 508.86, 687.33 510.10 C 686.32 511.34, 685.85 512.02, 685.20 513.34 C 684.55 514.65, 684.30 515.37, 684.09 516.65 C 683.88 517.94, 683.90 518.63, 684.14 519.76 C 684.39 520.89, 684.68 521.46, 685.31 522.29 C 685.95 523.11, 686.43 523.47, 687.33 523.90 C 688.22 524.32, 688.79 524.43, 689.79 524.41 C 690.79 524.39, 691.35 524.25, 692.32 523.80 C 693.29 523.35, 693.78 522.99, 694.62 522.15 C 695.47 521.30, 695.86 520.76, 696.53 519.59 C 697.20 518.42, 697.50 517.72, 697.99 516.28 C 698.47 514.85, 698.65 514.02, 698.98 512.42 C 699.30 510.83, 699.40 509.95, 699.61 508.30 C 699.83 506.65, 699.89 505.77, 700.04 504.19 C 700.18 502.61, 700.23 501.79, 700.34 500.41 C 700.44 499.02, 700.54 498.36, 700.57 497.28 C 700.60 496.20, 700.63 495.74, 700.47 495.03 C 700.32 494.32, 700.14 494.02, 699.79 493.73 C 699.43 493.44, 699.17 493.41, 698.71 493.57 C 698.25 493.73, 698.03 493.98, 697.51 494.54 C 696.99 495.10, 696.72 495.57, 696.10 496.39 C 695.49 497.20, 695.13 497.76, 694.45 498.62 C 693.76 499.48, 693.38 499.98, 692.68 500.70 C 691.98 501.41, 691.60 501.74, 690.95 502.20 C 690.30 502.67, 689.99 502.84, 689.43 503.02 C 688.87 503.19, 688.62 503.21, 688.15 503.07 C 687.67 502.93, 687.44 502.77, 687.05 502.31 C 686.65 501.85, 686.46 501.50, 686.16 500.78 C 685.87 500.06, 685.79 499.55, 685.57 498.70 C 685.35 497.85, 685.27 497.28, 685.06 496.53 C 684.86 495.78, 684.75 495.44, 684.54 494.95 C 684.33 494.47, 684.26 494.26, 684.00 494.10 C 683.74 493.94, 683.49 493.95, 683.26 494.15" style="stroke: black; fill: black;"/><path d="M 715.77,494.60 C 715.48 494.55, 715.28 494.61, 714.83 494.87 C 714.37 495.13, 714.04 495.33, 713.50 495.90 C 712.95 496.46, 712.59 496.90, 712.10 497.69 C 711.61 498.47, 711.33 498.98, 711.05 499.83 C 710.77 500.68, 710.64 501.17, 710.69 501.93 C 710.74 502.68, 710.86 503.09, 711.29 503.62 C 711.72 504.15, 712.09 504.38, 712.82 504.56 C 713.55 504.73, 714.06 504.71, 714.93 504.48 C 715.80 504.25, 716.32 503.99, 717.19 503.42 C 718.06 502.85, 718.54 502.44, 719.29 501.63 C 720.03 500.82, 720.43 500.31, 720.92 499.39 C 721.42 498.47, 721.62 497.93, 721.78 497.04 C 721.94 496.16, 721.90 495.69, 721.72 494.95 C 721.54 494.22, 721.31 493.86, 720.85 493.37 C 720.40 492.88, 720.01 492.68, 719.44 492.49 C 718.87 492.29, 718.48 492.32, 718.01 492.40 C 717.54 492.48, 717.33 492.65, 717.08 492.87 C 716.83 493.09, 716.76 493.27, 716.76 493.49 C 716.75 493.72, 716.88 493.85, 717.04 493.98 C 717.19 494.11, 717.30 494.08, 717.52 494.13 C 717.75 494.19, 717.88 494.22, 718.17 494.23 C 718.46 494.24, 718.67 494.13, 718.98 494.18 C 719.29 494.22, 719.50 494.24, 719.73 494.46 C 719.97 494.68, 720.11 494.84, 720.17 495.27 C 720.23 495.71, 720.23 496.01, 720.03 496.63 C 719.84 497.25, 719.65 497.66, 719.19 498.36 C 718.73 499.06, 718.38 499.49, 717.73 500.14 C 717.09 500.78, 716.65 501.11, 715.96 501.58 C 715.26 502.06, 714.86 502.24, 714.26 502.51 C 713.67 502.78, 713.38 502.86, 712.99 502.92 C 712.60 502.98, 712.45 502.98, 712.32 502.80 C 712.19 502.63, 712.20 502.47, 712.33 502.05 C 712.47 501.62, 712.62 501.29, 712.98 500.69 C 713.34 500.08, 713.66 499.69, 714.13 499.03 C 714.60 498.37, 714.95 497.99, 715.35 497.39 C 715.74 496.78, 715.91 496.47, 716.10 496.01 C 716.29 495.56, 716.36 495.39, 716.29 495.10 C 716.23 494.82, 716.06 494.64, 715.77 494.60" style="stroke: black; fill: black;"/><path d="M 727.52,493.77 C 727.24 493.93, 727.11 494.17, 726.89 494.68 C 726.66 495.19, 726.53 495.57, 726.39 496.33 C 726.25 497.09, 726.16 497.64, 726.18 498.49 C 726.20 499.35, 726.25 499.85, 726.49 500.60 C 726.73 501.34, 726.90 501.72, 727.38 502.21 C 727.86 502.70, 728.20 502.91, 728.90 503.05 C 729.61 503.19, 730.05 503.16, 730.89 502.92 C 731.74 502.68, 732.23 502.42, 733.14 501.84 C 734.05 501.26, 734.55 500.81, 735.44 500.03 C 736.33 499.24, 736.83 498.72, 737.60 497.91 C 738.36 497.11, 738.79 496.62, 739.26 496.01 C 739.74 495.40, 739.86 495.07, 739.97 494.85 C 740.08 494.63, 739.94 494.66, 739.82 494.91 C 739.71 495.17, 739.50 495.48, 739.39 496.12 C 739.28 496.76, 739.19 497.28, 739.28 498.11 C 739.37 498.95, 739.53 499.50, 739.85 500.29 C 740.18 501.08, 740.42 501.49, 740.90 502.06 C 741.38 502.63, 741.73 502.88, 742.23 503.13 C 742.73 503.39, 743.10 503.41, 743.40 503.33 C 743.70 503.25, 743.78 503.02, 743.74 502.74 C 743.69 502.46, 743.44 502.31, 743.17 501.95 C 742.91 501.60, 742.68 501.43, 742.42 500.97 C 742.15 500.51, 741.98 500.26, 741.84 499.64 C 741.71 499.02, 741.80 498.59, 741.74 497.87 C 741.67 497.14, 741.70 496.67, 741.52 496.00 C 741.34 495.33, 741.20 494.93, 740.82 494.52 C 740.45 494.11, 740.21 493.92, 739.64 493.95 C 739.08 493.97, 738.72 494.16, 738.00 494.64 C 737.29 495.12, 736.87 495.61, 736.06 496.35 C 735.25 497.08, 734.79 497.59, 733.95 498.32 C 733.11 499.05, 732.63 499.43, 731.88 499.98 C 731.12 500.53, 730.74 500.77, 730.17 501.08 C 729.60 501.39, 729.38 501.51, 729.04 501.55 C 728.70 501.59, 728.61 501.56, 728.47 501.30 C 728.34 501.05, 728.35 500.82, 728.36 500.27 C 728.38 499.73, 728.47 499.32, 728.55 498.58 C 728.63 497.84, 728.72 497.32, 728.75 496.58 C 728.77 495.85, 728.75 495.45, 728.66 494.90 C 728.56 494.36, 728.51 494.10, 728.29 493.87 C 728.06 493.64, 727.80 493.61, 727.52 493.77" style="stroke: black; fill: black;"/><path d="M 779.65,495.88 C 779.73 495.59, 779.68 495.32, 779.42 494.94 C 779.15 494.55, 778.92 494.26, 778.32 493.95 C 777.71 493.64, 777.25 493.45, 776.38 493.39 C 775.52 493.34, 774.98 493.40, 773.99 493.66 C 773.00 493.92, 772.41 494.16, 771.45 494.71 C 770.49 495.26, 769.92 495.67, 769.19 496.41 C 768.45 497.15, 768.09 497.64, 767.77 498.42 C 767.44 499.20, 767.39 499.67, 767.57 500.30 C 767.75 500.93, 768.03 501.26, 768.65 501.58 C 769.28 501.90, 769.79 501.96, 770.70 501.88 C 771.61 501.80, 772.20 501.60, 773.22 501.18 C 774.24 500.77, 774.83 500.41, 775.82 499.83 C 776.80 499.25, 777.34 498.85, 778.14 498.29 C 778.94 497.72, 779.33 497.40, 779.83 496.99 C 780.33 496.58, 780.47 496.36, 780.62 496.23 C 780.77 496.11, 780.66 496.08, 780.58 496.36 C 780.50 496.64, 780.34 496.91, 780.22 497.65 C 780.09 498.38, 780.03 498.92, 779.94 500.04 C 779.85 501.16, 779.86 501.88, 779.77 503.24 C 779.69 504.59, 779.67 505.39, 779.53 506.82 C 779.40 508.26, 779.32 509.05, 779.09 510.42 C 778.87 511.79, 778.75 512.49, 778.39 513.67 C 778.03 514.86, 777.82 515.42, 777.31 516.33 C 776.80 517.24, 776.49 517.64, 775.84 518.24 C 775.20 518.84, 774.82 519.06, 774.09 519.34 C 773.36 519.61, 772.94 519.66, 772.20 519.64 C 771.45 519.61, 771.04 519.51, 770.38 519.19 C 769.72 518.88, 769.38 518.64, 768.91 518.07 C 768.44 517.50, 768.22 517.13, 768.03 516.36 C 767.83 515.59, 767.78 515.13, 767.95 514.23 C 768.12 513.32, 768.30 512.81, 768.88 511.84 C 769.46 510.86, 769.88 510.33, 770.85 509.36 C 771.81 508.39, 772.43 507.89, 773.71 507.00 C 774.98 506.11, 775.75 505.69, 777.21 504.92 C 778.68 504.15, 779.50 503.79, 781.03 503.15 C 782.56 502.51, 783.39 502.23, 784.87 501.70 C 786.35 501.17, 787.10 500.95, 788.42 500.50 C 789.74 500.04, 790.39 499.85, 791.46 499.44 C 792.54 499.03, 793.04 498.86, 793.80 498.46 C 794.55 498.06, 794.88 497.87, 795.25 497.43 C 795.63 496.98, 795.73 496.70, 795.68 496.23 C 795.63 495.77, 795.47 495.44, 795.01 495.10 C 794.56 494.76, 794.15 494.58, 793.40 494.54 C 792.65 494.50, 792.12 494.60, 791.27 494.88 C 790.42 495.16, 789.91 495.42, 789.14 495.96 C 788.37 496.50, 787.94 496.87, 787.43 497.57 C 786.92 498.28, 786.71 498.73, 786.59 499.49 C 786.48 500.25, 786.55 500.71, 786.86 501.38 C 787.18 502.06, 787.50 502.40, 788.17 502.85 C 788.84 503.30, 789.32 503.48, 790.22 503.63 C 791.12 503.79, 791.68 503.77, 792.66 503.63 C 793.64 503.50, 794.19 503.34, 795.12 502.95 C 796.04 502.57, 796.53 502.29, 797.28 501.70 C 798.02 501.10, 798.39 500.73, 798.84 499.99 C 799.28 499.25, 799.43 498.79, 799.50 498.00 C 799.56 497.22, 799.46 496.78, 799.14 496.09 C 798.83 495.40, 798.52 495.04, 797.91 494.56 C 797.31 494.07, 796.84 493.88, 796.13 493.68 C 795.41 493.48, 794.94 493.50, 794.34 493.56 C 793.74 493.62, 793.49 493.77, 793.13 493.96 C 792.78 494.15, 792.65 494.30, 792.56 494.52 C 792.47 494.73, 792.54 494.88, 792.69 495.04 C 792.84 495.19, 792.99 495.19, 793.31 495.29 C 793.63 495.39, 793.85 495.46, 794.31 495.54 C 794.77 495.62, 795.11 495.56, 795.62 495.67 C 796.12 495.78, 796.42 495.86, 796.82 496.09 C 797.23 496.33, 797.44 496.49, 797.64 496.84 C 797.85 497.19, 797.92 497.41, 797.87 497.84 C 797.81 498.28, 797.71 498.55, 797.36 499.01 C 797.01 499.47, 796.72 499.74, 796.12 500.14 C 795.52 500.55, 795.11 500.77, 794.36 501.04 C 793.61 501.32, 793.14 501.42, 792.36 501.53 C 791.59 501.64, 791.15 501.64, 790.49 501.59 C 789.83 501.54, 789.51 501.45, 789.06 501.27 C 788.61 501.09, 788.41 500.96, 788.23 500.67 C 788.05 500.39, 788.02 500.21, 788.16 499.84 C 788.29 499.47, 788.48 499.23, 788.91 498.82 C 789.34 498.42, 789.69 498.15, 790.31 497.81 C 790.93 497.47, 791.36 497.33, 792.00 497.13 C 792.65 496.92, 793.04 496.90, 793.55 496.77 C 794.06 496.65, 794.29 496.58, 794.55 496.48 C 794.82 496.38, 794.90 496.29, 794.88 496.28 C 794.86 496.27, 794.81 496.29, 794.46 496.42 C 794.10 496.56, 793.84 496.69, 793.12 496.96 C 792.40 497.23, 791.92 497.40, 790.86 497.76 C 789.80 498.11, 789.16 498.30, 787.83 498.72 C 786.50 499.14, 785.74 499.36, 784.23 499.87 C 782.71 500.39, 781.86 500.66, 780.27 501.31 C 778.68 501.95, 777.82 502.31, 776.27 503.11 C 774.72 503.91, 773.90 504.34, 772.52 505.30 C 771.14 506.27, 770.45 506.81, 769.38 507.92 C 768.30 509.02, 767.81 509.65, 767.15 510.85 C 766.49 512.05, 766.25 512.71, 766.07 513.91 C 765.89 515.11, 765.94 515.76, 766.23 516.83 C 766.51 517.90, 766.82 518.45, 767.49 519.25 C 768.17 520.06, 768.67 520.42, 769.60 520.86 C 770.53 521.29, 771.12 521.41, 772.15 521.43 C 773.17 521.45, 773.74 521.33, 774.72 520.95 C 775.69 520.57, 776.18 520.26, 777.01 519.52 C 777.84 518.77, 778.22 518.28, 778.85 517.23 C 779.48 516.18, 779.74 515.55, 780.18 514.26 C 780.63 512.97, 780.78 512.23, 781.07 510.79 C 781.36 509.35, 781.46 508.54, 781.65 507.06 C 781.84 505.59, 781.90 504.79, 782.03 503.42 C 782.16 502.04, 782.26 501.34, 782.31 500.19 C 782.36 499.04, 782.41 498.50, 782.29 497.66 C 782.17 496.81, 782.06 496.45, 781.72 495.97 C 781.37 495.49, 781.12 495.33, 780.57 495.24 C 780.03 495.14, 779.70 495.24, 779.00 495.50 C 778.29 495.76, 777.90 496.07, 777.05 496.54 C 776.19 497.01, 775.67 497.36, 774.72 497.85 C 773.77 498.35, 773.19 498.62, 772.30 499.02 C 771.41 499.42, 770.93 499.60, 770.27 499.85 C 769.61 500.10, 769.33 500.22, 769.02 500.27 C 768.70 500.33, 768.65 500.32, 768.70 500.13 C 768.75 499.93, 768.89 499.73, 769.27 499.30 C 769.66 498.87, 769.96 498.50, 770.62 497.97 C 771.27 497.44, 771.75 497.08, 772.54 496.64 C 773.33 496.19, 773.83 495.97, 774.57 495.75 C 775.32 495.53, 775.69 495.51, 776.26 495.54 C 776.84 495.56, 777.06 495.73, 777.47 495.87 C 777.88 496.01, 777.99 496.13, 778.31 496.24 C 778.63 496.35, 778.78 496.48, 779.05 496.41 C 779.32 496.34, 779.58 496.18, 779.65 495.88" style="stroke: black; fill: black;"/><path d="M 805.80,504.28 C 805.52 504.24, 805.38 504.15, 805.50 504.14 C 805.63 504.12, 806.07 504.13, 806.41 504.22 C 806.76 504.30, 806.95 504.49, 807.22 504.57 C 807.48 504.65, 807.77 504.68, 807.73 504.62 C 807.69 504.55, 807.43 504.38, 807.03 504.25 C 806.64 504.12, 806.17 504.04, 805.76 503.97 C 805.36 503.90, 805.07 503.85, 805.00 503.90 C 804.94 503.94, 805.19 504.04, 805.44 504.19 C 805.69 504.34, 805.89 504.56, 806.24 504.65 C 806.60 504.75, 807.09 504.73, 807.23 504.66 C 807.36 504.60, 807.22 504.40, 806.93 504.33 C 806.65 504.25, 806.09 504.32, 805.80 504.28" style="stroke: black; fill: black;"/><path d="M 840.60,478.06 C 840.39 478.24, 840.36 478.36, 840.21 478.93 C 840.06 479.50, 839.99 479.85, 839.86 480.89 C 839.72 481.94, 839.70 482.67, 839.55 484.16 C 839.39 485.65, 839.30 486.60, 839.08 488.36 C 838.86 490.11, 838.70 491.15, 838.44 492.94 C 838.18 494.73, 838.01 495.68, 837.78 497.31 C 837.55 498.94, 837.41 499.74, 837.29 501.08 C 837.16 502.42, 837.09 503.07, 837.16 504.02 C 837.24 504.97, 837.44 505.31, 837.66 505.81 C 837.88 506.32, 838.06 506.43, 838.26 506.55 C 838.46 506.66, 838.58 506.58, 838.67 506.39 C 838.76 506.21, 838.68 506.07, 838.69 505.60 C 838.71 505.13, 838.68 504.89, 838.76 504.03 C 838.84 503.17, 838.91 502.58, 839.10 501.30 C 839.29 500.02, 839.44 499.23, 839.73 497.62 C 840.01 496.02, 840.21 495.07, 840.54 493.28 C 840.86 491.49, 841.07 490.46, 841.35 488.68 C 841.63 486.91, 841.79 485.94, 841.94 484.40 C 842.10 482.86, 842.14 482.10, 842.11 481.00 C 842.08 479.90, 841.94 479.50, 841.78 478.91 C 841.61 478.31, 841.51 478.18, 841.27 478.01 C 841.04 477.84, 840.82 477.87, 840.60 478.06" style="stroke: black; fill: black;"/><path d="M 867.80,481.37 C 867.57 481.59, 867.54 481.78, 867.38 482.45 C 867.23 483.12, 867.15 483.57, 867.02 484.69 C 866.89 485.82, 866.88 486.61, 866.75 488.09 C 866.62 489.57, 866.55 490.51, 866.38 492.10 C 866.21 493.70, 866.07 494.61, 865.90 496.08 C 865.72 497.54, 865.58 498.27, 865.51 499.42 C 865.43 500.56, 865.37 501.07, 865.53 501.82 C 865.69 502.57, 865.85 502.86, 866.31 503.16 C 866.77 503.46, 867.15 503.49, 867.85 503.31 C 868.55 503.13, 868.99 502.85, 869.81 502.25 C 870.62 501.65, 871.07 501.12, 871.93 500.32 C 872.78 499.53, 873.26 498.98, 874.08 498.27 C 874.91 497.56, 875.37 497.19, 876.06 496.76 C 876.76 496.33, 877.08 496.18, 877.55 496.11 C 878.02 496.03, 878.16 496.10, 878.42 496.38 C 878.67 496.66, 878.69 496.93, 878.82 497.52 C 878.96 498.10, 878.96 498.54, 879.09 499.32 C 879.21 500.10, 879.24 500.61, 879.44 501.44 C 879.63 502.26, 879.73 502.74, 880.06 503.45 C 880.40 504.16, 880.59 504.51, 881.11 504.98 C 881.64 505.45, 881.98 505.65, 882.69 505.79 C 883.40 505.93, 883.85 505.91, 884.68 505.68 C 885.52 505.45, 885.99 505.20, 886.87 504.65 C 887.75 504.09, 888.24 503.68, 889.10 502.90 C 889.96 502.12, 890.42 501.61, 891.17 500.76 C 891.92 499.91, 892.30 499.42, 892.84 498.65 C 893.38 497.89, 893.65 497.52, 893.87 496.94 C 894.08 496.35, 894.07 496.06, 893.90 495.74 C 893.72 495.42, 893.45 495.28, 892.99 495.33 C 892.53 495.37, 892.15 495.50, 891.62 495.96 C 891.09 496.43, 890.78 496.85, 890.34 497.63 C 889.91 498.41, 889.71 498.97, 889.45 499.87 C 889.18 500.78, 889.05 501.30, 889.03 502.15 C 889.02 503.00, 889.07 503.45, 889.37 504.12 C 889.66 504.79, 889.93 505.12, 890.51 505.50 C 891.09 505.89, 891.52 506.01, 892.27 506.03 C 893.02 506.05, 893.50 505.95, 894.27 505.59 C 895.04 505.24, 895.47 504.93, 896.12 504.26 C 896.77 503.59, 897.11 503.13, 897.54 502.26 C 897.96 501.39, 898.14 500.83, 898.24 499.90 C 898.35 498.96, 898.31 498.41, 898.07 497.57 C 897.83 496.73, 897.57 496.30, 897.05 495.70 C 896.52 495.09, 896.11 494.84, 895.43 494.56 C 894.76 494.27, 894.29 494.24, 893.68 494.26 C 893.07 494.27, 892.76 494.43, 892.39 494.65 C 892.01 494.86, 891.91 495.09, 891.79 495.34 C 891.67 495.58, 891.71 495.71, 891.78 495.86 C 891.84 496.01, 891.99 496.04, 892.12 496.09 C 892.25 496.15, 892.27 496.12, 892.43 496.14 C 892.59 496.15, 892.68 496.18, 892.94 496.17 C 893.19 496.16, 893.33 496.06, 893.69 496.08 C 894.05 496.09, 894.34 496.08, 894.75 496.24 C 895.16 496.39, 895.43 496.48, 895.74 496.84 C 896.05 497.20, 896.20 497.46, 896.31 498.02 C 896.43 498.57, 896.43 498.96, 896.31 499.62 C 896.18 500.28, 896.03 500.69, 895.69 501.33 C 895.36 501.97, 895.08 502.31, 894.61 502.80 C 894.15 503.29, 893.84 503.50, 893.35 503.78 C 892.86 504.07, 892.58 504.16, 892.16 504.25 C 891.75 504.33, 891.54 504.36, 891.28 504.23 C 891.01 504.10, 890.91 503.98, 890.84 503.61 C 890.77 503.23, 890.78 502.95, 890.93 502.36 C 891.07 501.77, 891.23 501.35, 891.56 500.66 C 891.89 499.97, 892.21 499.56, 892.59 498.90 C 892.97 498.23, 893.23 497.89, 893.46 497.35 C 893.69 496.80, 893.74 496.51, 893.73 496.17 C 893.71 495.83, 893.61 495.66, 893.38 495.64 C 893.15 495.62, 892.98 495.71, 892.56 496.06 C 892.14 496.42, 891.90 496.77, 891.30 497.41 C 890.71 498.06, 890.32 498.54, 889.59 499.30 C 888.85 500.07, 888.40 500.54, 887.61 501.24 C 886.82 501.95, 886.36 502.30, 885.64 502.83 C 884.92 503.35, 884.56 503.58, 884.01 503.87 C 883.45 504.16, 883.23 504.25, 882.87 504.27 C 882.51 504.28, 882.40 504.22, 882.19 503.93 C 881.98 503.64, 881.94 503.40, 881.81 502.82 C 881.68 502.24, 881.66 501.82, 881.55 501.03 C 881.43 500.25, 881.43 499.74, 881.24 498.89 C 881.04 498.05, 880.94 497.55, 880.55 496.83 C 880.17 496.11, 879.92 495.73, 879.31 495.30 C 878.70 494.87, 878.32 494.70, 877.51 494.67 C 876.70 494.63, 876.20 494.74, 875.25 495.11 C 874.30 495.49, 873.75 495.85, 872.76 496.53 C 871.76 497.21, 871.18 497.71, 870.28 498.50 C 869.38 499.30, 868.89 499.80, 868.25 500.50 C 867.61 501.21, 867.38 501.60, 867.08 502.01 C 866.78 502.41, 866.78 502.59, 866.74 502.54 C 866.70 502.49, 866.78 502.35, 866.89 501.77 C 867.00 501.19, 867.10 500.72, 867.31 499.64 C 867.52 498.57, 867.67 497.83, 867.93 496.38 C 868.19 494.93, 868.37 494.01, 868.62 492.39 C 868.86 490.78, 869.02 489.82, 869.16 488.30 C 869.30 486.78, 869.34 485.96, 869.31 484.79 C 869.29 483.62, 869.18 483.13, 869.02 482.44 C 868.86 481.75, 868.74 481.55, 868.50 481.33 C 868.26 481.12, 868.02 481.14, 867.80 481.37" style="stroke: black; fill: black;"/><path d="M 903.17,495.77 C 902.91 495.95, 902.84 496.22, 902.65 496.72 C 902.45 497.22, 902.36 497.57, 902.20 498.27 C 902.05 498.97, 901.94 499.47, 901.87 500.22 C 901.79 500.97, 901.72 501.41, 901.83 502.02 C 901.93 502.62, 902.05 502.94, 902.40 503.24 C 902.74 503.55, 903.01 503.66, 903.55 503.56 C 904.08 503.46, 904.42 503.25, 905.08 502.75 C 905.74 502.24, 906.11 501.78, 906.84 501.04 C 907.56 500.31, 907.96 499.78, 908.69 499.09 C 909.42 498.40, 909.84 498.04, 910.47 497.60 C 911.09 497.16, 911.40 497.00, 911.82 496.89 C 912.24 496.78, 912.37 496.84, 912.59 497.06 C 912.80 497.29, 912.81 497.52, 912.90 498.03 C 913.00 498.54, 912.98 498.92, 913.08 499.62 C 913.17 500.32, 913.19 500.78, 913.37 501.53 C 913.55 502.29, 913.63 502.73, 913.99 503.39 C 914.36 504.05, 914.58 504.40, 915.18 504.84 C 915.77 505.27, 916.14 505.45, 916.96 505.56 C 917.78 505.67, 918.28 505.64, 919.27 505.39 C 920.26 505.14, 920.85 504.89, 921.92 504.31 C 923.00 503.73, 923.61 503.30, 924.64 502.49 C 925.67 501.67, 926.24 501.15, 927.09 500.24 C 927.93 499.33, 928.35 498.81, 928.85 497.95 C 929.35 497.08, 929.53 496.62, 929.57 495.92 C 929.61 495.21, 929.47 494.83, 929.04 494.42 C 928.62 494.01, 928.18 493.84, 927.43 493.86 C 926.67 493.88, 926.12 494.05, 925.29 494.54 C 924.45 495.02, 923.96 495.47, 923.25 496.29 C 922.55 497.11, 922.17 497.66, 921.75 498.63 C 921.32 499.60, 921.15 500.17, 921.13 501.13 C 921.11 502.08, 921.22 502.62, 921.67 503.40 C 922.12 504.18, 922.52 504.56, 923.39 505.03 C 924.26 505.51, 924.85 505.66, 926.02 505.77 C 927.19 505.88, 927.91 505.82, 929.25 505.58 C 930.58 505.34, 931.34 505.09, 932.72 504.56 C 934.09 504.04, 934.83 503.67, 936.12 502.97 C 937.41 502.27, 938.08 501.84, 939.18 501.07 C 940.28 500.31, 940.80 499.87, 941.62 499.16 C 942.43 498.45, 942.78 498.08, 943.26 497.52 C 943.75 496.96, 943.91 496.71, 944.05 496.35 C 944.18 495.99, 944.11 495.83, 943.95 495.72 C 943.80 495.61, 943.51 495.62, 943.27 495.81 C 943.03 496.01, 942.83 496.25, 942.75 496.70 C 942.67 497.14, 942.75 497.47, 942.87 498.04 C 943.00 498.60, 943.17 498.93, 943.38 499.54 C 943.59 500.15, 943.73 500.49, 943.92 501.09 C 944.11 501.69, 944.22 502.01, 944.32 502.55 C 944.41 503.09, 944.45 503.34, 944.38 503.78 C 944.31 504.21, 944.23 504.41, 943.98 504.73 C 943.74 505.05, 943.54 505.18, 943.14 505.39 C 942.75 505.61, 942.48 505.70, 942.02 505.80 C 941.55 505.89, 941.29 505.89, 940.84 505.88 C 940.39 505.87, 940.16 505.78, 939.77 505.75 C 939.37 505.72, 939.11 505.60, 938.85 505.71 C 938.59 505.83, 938.42 506.01, 938.48 506.32 C 938.53 506.63, 938.71 506.95, 939.14 507.26 C 939.58 507.57, 939.99 507.78, 940.65 507.87 C 941.32 507.97, 941.77 507.91, 942.47 507.74 C 943.17 507.56, 943.55 507.40, 944.14 507.00 C 944.73 506.61, 945.02 506.33, 945.42 505.76 C 945.81 505.19, 945.96 504.82, 946.12 504.14 C 946.29 503.46, 946.28 503.08, 946.25 502.36 C 946.22 501.65, 946.13 501.26, 945.98 500.57 C 945.84 499.87, 945.70 499.51, 945.54 498.90 C 945.38 498.28, 945.32 497.97, 945.20 497.50 C 945.09 497.02, 945.11 496.84, 944.96 496.51 C 944.82 496.18, 944.71 496.08, 944.48 495.87 C 944.26 495.66, 944.11 495.52, 943.85 495.46 C 943.58 495.40, 943.51 495.38, 943.16 495.56 C 942.82 495.74, 942.67 495.92, 942.13 496.35 C 941.59 496.79, 941.26 497.12, 940.46 497.74 C 939.65 498.35, 939.14 498.75, 938.08 499.44 C 937.02 500.12, 936.38 500.52, 935.16 501.14 C 933.94 501.77, 933.23 502.11, 931.97 502.57 C 930.71 503.04, 930.01 503.24, 928.85 503.48 C 927.68 503.71, 927.08 503.75, 926.13 503.74 C 925.19 503.74, 924.76 503.67, 924.14 503.44 C 923.51 503.22, 923.28 503.05, 923.02 502.61 C 922.77 502.18, 922.75 501.88, 922.86 501.27 C 922.97 500.66, 923.16 500.25, 923.58 499.57 C 924.00 498.88, 924.37 498.47, 924.97 497.84 C 925.57 497.21, 926.00 496.91, 926.57 496.44 C 927.15 495.97, 927.46 495.75, 927.84 495.49 C 928.21 495.23, 928.35 495.12, 928.44 495.14 C 928.53 495.17, 928.50 495.25, 928.28 495.60 C 928.06 495.95, 927.87 496.27, 927.33 496.90 C 926.80 497.54, 926.41 498.00, 925.60 498.77 C 924.79 499.54, 924.24 500.02, 923.29 500.74 C 922.34 501.46, 921.77 501.84, 920.84 502.37 C 919.92 502.91, 919.42 503.12, 918.66 503.41 C 917.90 503.70, 917.56 503.80, 917.05 503.84 C 916.54 503.88, 916.39 503.85, 916.11 503.62 C 915.83 503.38, 915.79 503.18, 915.66 502.68 C 915.53 502.19, 915.55 501.84, 915.46 501.14 C 915.38 500.45, 915.40 499.98, 915.23 499.22 C 915.05 498.47, 914.95 498.01, 914.59 497.36 C 914.23 496.71, 914.00 496.37, 913.42 495.98 C 912.84 495.60, 912.47 495.44, 911.70 495.43 C 910.93 495.43, 910.46 495.55, 909.57 495.93 C 908.68 496.31, 908.16 496.68, 907.25 497.33 C 906.34 497.99, 905.78 498.45, 905.00 499.21 C 904.23 499.97, 903.82 500.47, 903.37 501.14 C 902.93 501.81, 902.83 502.18, 902.77 502.55 C 902.70 502.92, 902.86 503.03, 903.05 502.97 C 903.24 502.91, 903.48 502.74, 903.72 502.26 C 903.97 501.79, 904.12 501.35, 904.29 500.61 C 904.45 499.87, 904.52 499.32, 904.55 498.57 C 904.58 497.82, 904.55 497.41, 904.43 496.85 C 904.32 496.30, 904.22 496.01, 903.97 495.79 C 903.71 495.57, 903.44 495.58, 903.17 495.77" style="stroke: black; fill: black;"/><path d="M 952.45,482.12 C 952.22 482.35, 952.19 482.54, 952.04 483.18 C 951.90 483.83, 951.83 484.27, 951.72 485.36 C 951.61 486.44, 951.59 487.18, 951.51 488.60 C 951.42 490.02, 951.38 490.90, 951.28 492.44 C 951.19 493.98, 951.12 494.84, 951.03 496.28 C 950.94 497.73, 950.88 498.46, 950.85 499.66 C 950.81 500.86, 950.78 501.46, 950.85 502.28 C 950.93 503.11, 951.08 503.37, 951.22 503.79 C 951.37 504.20, 951.44 504.26, 951.59 504.37 C 951.73 504.48, 951.83 504.46, 951.95 504.34 C 952.08 504.21, 952.10 504.15, 952.21 503.74 C 952.32 503.33, 952.39 503.10, 952.49 502.31 C 952.59 501.52, 952.61 500.95, 952.73 499.78 C 952.84 498.61, 952.91 497.88, 953.06 496.45 C 953.22 495.03, 953.34 494.17, 953.51 492.63 C 953.68 491.09, 953.80 490.20, 953.90 488.76 C 954.01 487.32, 954.06 486.54, 954.02 485.42 C 953.97 484.30, 953.86 483.82, 953.69 483.15 C 953.52 482.48, 953.40 482.28, 953.15 482.08 C 952.90 481.87, 952.67 481.90, 952.45 482.12" style="stroke: black; fill: black;"/><path d="M 947.83,497.54 C 948.07 497.72, 948.27 497.74, 948.85 497.77 C 949.44 497.79, 949.83 497.78, 950.75 497.66 C 951.67 497.54, 952.28 497.42, 953.45 497.16 C 954.62 496.90, 955.31 496.72, 956.60 496.37 C 957.88 496.02, 958.59 495.83, 959.86 495.39 C 961.13 494.96, 961.79 494.71, 962.95 494.18 C 964.12 493.65, 964.69 493.36, 965.69 492.75 C 966.69 492.13, 967.16 491.79, 967.95 491.11 C 968.74 490.43, 969.11 490.05, 969.66 489.34 C 970.21 488.64, 970.45 488.25, 970.71 487.58 C 970.97 486.91, 971.04 486.54, 970.96 485.99 C 970.88 485.44, 970.72 485.12, 970.33 484.83 C 969.93 484.53, 969.56 484.40, 968.98 484.51 C 968.41 484.61, 968.02 484.79, 967.43 485.34 C 966.85 485.89, 966.56 486.32, 966.07 487.24 C 965.58 488.16, 965.34 488.78, 964.99 489.95 C 964.64 491.11, 964.48 491.82, 964.32 493.08 C 964.16 494.34, 964.13 495.04, 964.20 496.24 C 964.27 497.44, 964.37 498.06, 964.68 499.08 C 965.00 500.10, 965.23 500.57, 965.77 501.33 C 966.31 502.08, 966.67 502.40, 967.40 502.85 C 968.13 503.30, 968.58 503.45, 969.44 503.56 C 970.30 503.68, 970.79 503.63, 971.68 503.42 C 972.58 503.21, 973.06 502.99, 973.93 502.51 C 974.80 502.04, 975.25 501.68, 976.02 501.03 C 976.79 500.38, 977.18 499.94, 977.77 499.24 C 978.37 498.55, 978.64 498.14, 978.99 497.55 C 979.34 496.97, 979.46 496.68, 979.54 496.32 C 979.61 495.96, 979.52 495.81, 979.37 495.75 C 979.23 495.70, 978.96 495.77, 978.82 496.04 C 978.67 496.30, 978.53 496.61, 978.63 497.08 C 978.73 497.54, 978.92 497.87, 979.32 498.36 C 979.71 498.84, 980.01 499.10, 980.62 499.48 C 981.22 499.86, 981.60 500.05, 982.36 500.27 C 983.12 500.48, 983.56 500.53, 984.41 500.56 C 985.25 500.58, 985.72 500.52, 986.59 500.39 C 987.45 500.25, 987.92 500.11, 988.73 499.87 C 989.54 499.63, 989.98 499.46, 990.63 499.19 C 991.29 498.91, 991.62 498.70, 992.01 498.51 C 992.39 498.32, 992.47 498.15, 992.57 498.23 C 992.67 498.30, 992.61 498.39, 992.51 498.88 C 992.41 499.38, 992.32 499.77, 992.07 500.72 C 991.81 501.67, 991.66 502.33, 991.22 503.65 C 990.79 504.96, 990.52 505.79, 989.90 507.31 C 989.28 508.82, 988.89 509.68, 988.11 511.21 C 987.33 512.74, 986.85 513.56, 985.98 514.97 C 985.11 516.38, 984.62 517.11, 983.75 518.27 C 982.89 519.43, 982.41 519.95, 981.65 520.76 C 980.89 521.57, 980.50 521.90, 979.94 522.32 C 979.39 522.74, 979.19 522.79, 978.88 522.87 C 978.57 522.94, 978.52 522.79, 978.39 522.68 C 978.26 522.58, 978.33 522.50, 978.24 522.36 C 978.15 522.22, 978.15 522.04, 977.94 521.98 C 977.73 521.93, 977.36 521.91, 977.19 522.09 C 977.01 522.27, 976.95 522.55, 977.06 522.87 C 977.17 523.19, 977.34 523.44, 977.72 523.68 C 978.11 523.92, 978.39 524.10, 978.99 524.09 C 979.60 524.07, 979.97 524.02, 980.75 523.61 C 981.53 523.20, 981.99 522.86, 982.89 522.02 C 983.80 521.19, 984.30 520.63, 985.26 519.43 C 986.22 518.24, 986.73 517.50, 987.68 516.05 C 988.62 514.60, 989.12 513.76, 989.97 512.19 C 990.82 510.62, 991.25 509.74, 991.94 508.18 C 992.63 506.62, 992.97 505.78, 993.43 504.37 C 993.89 502.96, 994.09 502.26, 994.24 501.14 C 994.39 500.02, 994.37 499.52, 994.17 498.75 C 993.97 497.99, 993.73 497.70, 993.24 497.33 C 992.75 496.96, 992.37 496.93, 991.72 496.93 C 991.07 496.92, 990.70 497.11, 989.99 497.31 C 989.28 497.51, 988.91 497.70, 988.17 497.90 C 987.42 498.11, 987.00 498.23, 986.26 498.35 C 985.52 498.47, 985.12 498.51, 984.45 498.50 C 983.78 498.49, 983.45 498.45, 982.91 498.30 C 982.37 498.15, 982.13 498.02, 981.77 497.76 C 981.40 497.49, 981.31 497.28, 981.11 496.98 C 980.90 496.67, 980.92 496.49, 980.72 496.22 C 980.52 495.96, 980.40 495.83, 980.11 495.64 C 979.83 495.46, 979.63 495.33, 979.30 495.30 C 978.97 495.28, 978.81 495.29, 978.45 495.52 C 978.10 495.74, 977.95 495.97, 977.51 496.44 C 977.07 496.92, 976.82 497.28, 976.26 497.88 C 975.69 498.48, 975.33 498.86, 974.66 499.44 C 973.99 500.01, 973.61 500.32, 972.91 500.74 C 972.21 501.17, 971.84 501.35, 971.18 501.57 C 970.52 501.78, 970.19 501.85, 969.60 501.82 C 969.02 501.80, 968.73 501.73, 968.24 501.44 C 967.75 501.16, 967.51 500.95, 967.15 500.38 C 966.79 499.82, 966.62 499.44, 966.43 498.60 C 966.24 497.76, 966.18 497.22, 966.18 496.18 C 966.18 495.14, 966.24 494.50, 966.44 493.39 C 966.63 492.28, 966.81 491.65, 967.15 490.63 C 967.49 489.61, 967.76 489.08, 968.14 488.29 C 968.52 487.51, 968.75 487.20, 969.05 486.71 C 969.34 486.23, 969.48 486.10, 969.61 485.87 C 969.74 485.65, 969.72 485.59, 969.71 485.60 C 969.70 485.61, 969.67 485.68, 969.57 485.93 C 969.46 486.19, 969.44 486.42, 969.18 486.88 C 968.92 487.33, 968.75 487.66, 968.27 488.22 C 967.79 488.79, 967.49 489.13, 966.78 489.72 C 966.07 490.31, 965.65 490.62, 964.73 491.16 C 963.81 491.69, 963.28 491.96, 962.18 492.42 C 961.08 492.88, 960.46 493.09, 959.24 493.46 C 958.02 493.83, 957.33 493.98, 956.07 494.26 C 954.82 494.53, 954.12 494.62, 952.96 494.85 C 951.80 495.09, 951.18 495.17, 950.28 495.43 C 949.38 495.68, 949.00 495.86, 948.48 496.14 C 947.95 496.42, 947.78 496.56, 947.66 496.84 C 947.53 497.12, 947.59 497.35, 947.83 497.54" style="stroke: black; fill: black;"/><path d="M 1034.27,493.32 C 1034.09 493.06, 1033.85 492.89, 1033.30 492.78 C 1032.75 492.67, 1032.35 492.61, 1031.51 492.77 C 1030.67 492.93, 1030.10 493.06, 1029.09 493.56 C 1028.09 494.06, 1027.51 494.47, 1026.51 495.27 C 1025.51 496.07, 1024.95 496.59, 1024.10 497.58 C 1023.24 498.56, 1022.78 499.14, 1022.24 500.21 C 1021.71 501.27, 1021.48 501.88, 1021.42 502.89 C 1021.36 503.90, 1021.48 504.45, 1021.96 505.25 C 1022.43 506.05, 1022.85 506.43, 1023.81 506.90 C 1024.77 507.37, 1025.42 507.52, 1026.75 507.62 C 1028.08 507.71, 1028.91 507.62, 1030.44 507.36 C 1031.97 507.10, 1032.84 506.82, 1034.39 506.31 C 1035.95 505.80, 1036.77 505.45, 1038.22 504.80 C 1039.67 504.16, 1040.42 503.78, 1041.65 503.09 C 1042.89 502.39, 1043.46 502.00, 1044.41 501.33 C 1045.35 500.66, 1045.76 500.34, 1046.38 499.74 C 1047.00 499.14, 1047.27 498.87, 1047.51 498.33 C 1047.75 497.80, 1047.78 497.49, 1047.60 497.06 C 1047.42 496.62, 1047.16 496.35, 1046.61 496.17 C 1046.06 496.00, 1045.63 495.96, 1044.83 496.16 C 1044.03 496.36, 1043.52 496.60, 1042.61 497.16 C 1041.70 497.73, 1041.15 498.17, 1040.29 498.99 C 1039.43 499.81, 1038.95 500.34, 1038.30 501.26 C 1037.64 502.18, 1037.32 502.70, 1037.01 503.57 C 1036.71 504.44, 1036.64 504.91, 1036.75 505.61 C 1036.86 506.30, 1037.08 506.66, 1037.58 507.07 C 1038.09 507.47, 1038.50 507.62, 1039.27 507.65 C 1040.04 507.67, 1040.55 507.56, 1041.44 507.20 C 1042.33 506.85, 1042.83 506.51, 1043.72 505.86 C 1044.60 505.21, 1045.08 504.73, 1045.86 503.94 C 1046.64 503.14, 1047.09 502.63, 1047.62 501.89 C 1048.14 501.16, 1048.34 500.72, 1048.51 500.28 C 1048.67 499.84, 1048.57 499.68, 1048.44 499.68 C 1048.30 499.68, 1048.06 499.85, 1047.85 500.29 C 1047.64 500.72, 1047.42 501.16, 1047.40 501.87 C 1047.37 502.58, 1047.47 503.10, 1047.72 503.82 C 1047.97 504.53, 1048.19 504.92, 1048.66 505.45 C 1049.13 505.98, 1049.42 506.20, 1050.07 506.45 C 1050.71 506.69, 1051.10 506.75, 1051.86 506.67 C 1052.63 506.60, 1053.06 506.45, 1053.88 506.06 C 1054.69 505.68, 1055.14 505.35, 1055.94 504.74 C 1056.74 504.13, 1057.18 503.70, 1057.88 503.02 C 1058.58 502.34, 1058.95 501.92, 1059.46 501.34 C 1059.96 500.77, 1060.16 500.46, 1060.39 500.15 C 1060.62 499.83, 1060.60 499.73, 1060.59 499.75 C 1060.58 499.77, 1060.43 499.91, 1060.34 500.26 C 1060.24 500.62, 1060.12 500.96, 1060.12 501.54 C 1060.13 502.11, 1060.18 502.52, 1060.37 503.12 C 1060.55 503.73, 1060.70 504.08, 1061.06 504.57 C 1061.43 505.05, 1061.67 505.29, 1062.20 505.55 C 1062.73 505.81, 1063.06 505.88, 1063.72 505.86 C 1064.39 505.85, 1064.78 505.74, 1065.54 505.48 C 1066.29 505.22, 1066.72 504.96, 1067.50 504.57 C 1068.28 504.17, 1068.72 503.88, 1069.44 503.49 C 1070.15 503.11, 1070.53 502.89, 1071.09 502.65 C 1071.64 502.41, 1071.86 502.32, 1072.20 502.31 C 1072.54 502.31, 1072.62 502.37, 1072.78 502.62 C 1072.95 502.86, 1072.93 503.10, 1073.04 503.54 C 1073.15 503.98, 1073.18 504.34, 1073.35 504.82 C 1073.53 505.31, 1073.66 505.61, 1073.91 505.97 C 1074.15 506.34, 1074.32 506.48, 1074.57 506.65 C 1074.82 506.83, 1074.97 506.87, 1075.16 506.85 C 1075.36 506.84, 1075.45 506.71, 1075.54 506.57 C 1075.64 506.42, 1075.60 506.37, 1075.64 506.12 C 1075.67 505.86, 1075.77 505.70, 1075.72 505.30 C 1075.68 504.89, 1075.60 504.60, 1075.42 504.09 C 1075.23 503.58, 1075.12 503.25, 1074.81 502.74 C 1074.49 502.22, 1074.30 501.91, 1073.82 501.53 C 1073.33 501.15, 1073.03 500.98, 1072.39 500.85 C 1071.74 500.71, 1071.35 500.73, 1070.58 500.87 C 1069.81 501.01, 1069.36 501.21, 1068.53 501.54 C 1067.71 501.86, 1067.24 502.13, 1066.47 502.51 C 1065.70 502.89, 1065.29 503.12, 1064.68 503.44 C 1064.07 503.75, 1063.80 503.93, 1063.42 504.09 C 1063.04 504.26, 1062.95 504.32, 1062.79 504.26 C 1062.62 504.20, 1062.62 504.10, 1062.58 503.79 C 1062.55 503.48, 1062.62 503.22, 1062.60 502.71 C 1062.59 502.20, 1062.64 501.83, 1062.51 501.25 C 1062.38 500.67, 1062.26 500.29, 1061.95 499.83 C 1061.63 499.37, 1061.41 499.13, 1060.94 498.96 C 1060.48 498.78, 1060.20 498.76, 1059.63 498.95 C 1059.06 499.14, 1058.75 499.40, 1058.10 499.89 C 1057.46 500.38, 1057.10 500.79, 1056.40 501.41 C 1055.69 502.03, 1055.28 502.42, 1054.58 502.97 C 1053.87 503.53, 1053.49 503.82, 1052.88 504.20 C 1052.26 504.58, 1051.98 504.72, 1051.52 504.88 C 1051.06 505.03, 1050.87 505.06, 1050.57 504.98 C 1050.28 504.90, 1050.17 504.80, 1050.04 504.48 C 1049.91 504.15, 1049.94 503.88, 1049.92 503.34 C 1049.90 502.80, 1050.02 502.41, 1049.95 501.78 C 1049.87 501.16, 1049.80 500.73, 1049.56 500.22 C 1049.32 499.71, 1049.13 499.43, 1048.73 499.24 C 1048.33 499.06, 1048.07 499.05, 1047.54 499.31 C 1047.00 499.56, 1046.70 499.91, 1046.05 500.52 C 1045.40 501.13, 1045.03 501.65, 1044.29 502.35 C 1043.56 503.06, 1043.13 503.48, 1042.37 504.05 C 1041.61 504.63, 1041.17 504.86, 1040.51 505.23 C 1039.85 505.60, 1039.52 505.73, 1039.07 505.90 C 1038.63 506.06, 1038.46 506.13, 1038.27 506.06 C 1038.07 505.99, 1038.02 505.90, 1038.10 505.56 C 1038.17 505.21, 1038.28 504.93, 1038.65 504.33 C 1039.02 503.73, 1039.32 503.29, 1039.95 502.57 C 1040.59 501.84, 1041.04 501.37, 1041.83 500.69 C 1042.62 500.02, 1043.14 499.68, 1043.90 499.18 C 1044.65 498.69, 1045.07 498.53, 1045.62 498.21 C 1046.16 497.89, 1046.36 497.79, 1046.61 497.61 C 1046.86 497.43, 1046.90 497.32, 1046.87 497.31 C 1046.84 497.30, 1046.76 497.33, 1046.45 497.57 C 1046.14 497.80, 1045.91 498.03, 1045.30 498.48 C 1044.69 498.94, 1044.31 499.26, 1043.40 499.85 C 1042.49 500.43, 1041.94 500.78, 1040.74 501.40 C 1039.55 502.02, 1038.82 502.37, 1037.42 502.94 C 1036.02 503.52, 1035.22 503.83, 1033.75 504.28 C 1032.28 504.73, 1031.45 504.94, 1030.06 505.18 C 1028.67 505.43, 1027.93 505.50, 1026.81 505.52 C 1025.69 505.54, 1025.18 505.50, 1024.46 505.29 C 1023.74 505.08, 1023.48 504.93, 1023.19 504.49 C 1022.91 504.05, 1022.88 503.75, 1023.03 503.09 C 1023.17 502.42, 1023.39 501.98, 1023.92 501.16 C 1024.45 500.35, 1024.88 499.84, 1025.67 499.01 C 1026.47 498.18, 1026.99 497.71, 1027.89 497.03 C 1028.78 496.35, 1029.30 496.04, 1030.13 495.60 C 1030.97 495.17, 1031.41 495.10, 1032.06 494.86 C 1032.71 494.63, 1032.95 494.60, 1033.38 494.44 C 1033.80 494.28, 1034.01 494.31, 1034.19 494.08 C 1034.37 493.86, 1034.45 493.58, 1034.27 493.32" style="stroke: black; fill: black;"/><path d="M 1083.83,482.92 C 1083.54 483.11, 1083.34 483.47, 1083.32 483.89 C 1083.30 484.30, 1083.45 484.75, 1083.74 484.97 C 1084.03 485.20, 1084.45 485.22, 1084.76 485.02 C 1085.06 484.81, 1085.27 484.35, 1085.27 483.93 C 1085.27 483.51, 1085.05 483.12, 1084.76 482.91 C 1084.47 482.71, 1084.12 482.72, 1083.83 482.92" style="stroke: black; fill: black;"/><path d="M 1099.38,481.78 C 1099.12 482.00, 1099.06 482.23, 1098.82 482.95 C 1098.57 483.68, 1098.42 484.17, 1098.14 485.40 C 1097.86 486.63, 1097.72 487.49, 1097.40 489.10 C 1097.08 490.72, 1096.90 491.72, 1096.55 493.46 C 1096.20 495.21, 1095.98 496.19, 1095.65 497.83 C 1095.32 499.47, 1095.14 500.31, 1094.91 501.66 C 1094.68 503.01, 1094.58 503.65, 1094.50 504.59 C 1094.43 505.52, 1094.48 505.83, 1094.52 506.34 C 1094.56 506.85, 1094.58 506.96, 1094.70 507.13 C 1094.81 507.30, 1094.92 507.32, 1095.09 507.20 C 1095.26 507.07, 1095.32 506.97, 1095.53 506.51 C 1095.73 506.04, 1095.86 505.76, 1096.10 504.87 C 1096.35 503.97, 1096.43 503.35, 1096.74 502.03 C 1097.05 500.71, 1097.25 499.89, 1097.65 498.28 C 1098.04 496.66, 1098.31 495.68, 1098.73 493.94 C 1099.15 492.20, 1099.42 491.21, 1099.75 489.58 C 1100.09 487.94, 1100.26 487.07, 1100.40 485.78 C 1100.54 484.50, 1100.52 483.94, 1100.45 483.15 C 1100.39 482.36, 1100.30 482.11, 1100.08 481.83 C 1099.87 481.56, 1099.63 481.56, 1099.38 481.78" style="stroke: black; fill: black;"/><path d="M 1091.13,500.09 C 1091.38 500.26, 1091.53 500.26, 1092.23 500.30 C 1092.92 500.34, 1093.42 500.34, 1094.60 500.29 C 1095.78 500.25, 1096.58 500.16, 1098.11 500.08 C 1099.63 500.00, 1100.61 499.95, 1102.23 499.89 C 1103.86 499.82, 1104.83 499.85, 1106.23 499.76 C 1107.63 499.66, 1108.28 499.56, 1109.22 499.41 C 1110.16 499.26, 1110.58 499.21, 1110.93 499.02 C 1111.27 498.83, 1111.28 498.66, 1110.94 498.45 C 1110.59 498.25, 1110.16 498.16, 1109.22 498.01 C 1108.27 497.86, 1107.63 497.80, 1106.22 497.72 C 1104.82 497.64, 1103.84 497.61, 1102.20 497.60 C 1100.55 497.59, 1099.55 497.57, 1097.98 497.65 C 1096.41 497.72, 1095.57 497.76, 1094.36 497.97 C 1093.15 498.18, 1092.61 498.38, 1091.93 498.68 C 1091.25 498.97, 1091.11 499.16, 1090.95 499.44 C 1090.79 499.72, 1090.87 499.92, 1091.13 500.09" style="stroke: black; fill: black;"/></svg>