<svg xmlns="http://www.w3.org/2000/svg" id="canvas" viewBox="508.580 419.188 249.708 124.552"><path d="M 582.74,422.35 C 581.49 422.81, 580.44 423.59, 578.83 425.98 C 577.22 428.38, 576.87 430.27, 574.70 434.31 C 572.52 438.36, 571.06 440.98, 567.96 446.21 C 564.86 451.45, 563.03 454.51, 559.19 460.48 C 555.36 466.44, 553.01 469.76, 548.77 476.06 C 544.53 482.36, 542.11 485.80, 537.98 492.00 C 533.84 498.20, 531.67 501.44, 528.11 507.04 C 524.55 512.63, 522.92 515.41, 520.17 519.98 C 517.42 524.55, 516.06 526.58, 514.36 529.89 C 512.66 533.21, 512.01 534.58, 511.67 536.56 C 511.33 538.53, 512.02 538.95, 512.65 539.79 C 513.29 540.62, 514.07 540.74, 514.84 540.74 C 515.61 540.75, 516.68 540.46, 516.52 539.81 C 516.36 539.15, 514.60 537.70, 514.04 537.49 C 513.47 537.27, 513.59 538.33, 513.70 538.71 C 513.80 539.10, 514.14 539.56, 514.56 539.39 C 514.99 539.22, 515.04 539.39, 515.82 537.88 C 516.59 536.37, 516.96 535.10, 518.43 531.86 C 519.90 528.61, 520.73 526.32, 523.16 521.66 C 525.60 517.01, 527.19 514.22, 530.61 508.59 C 534.03 502.96, 536.18 499.72, 540.27 493.53 C 544.37 487.34, 546.78 483.90, 551.09 477.64 C 555.39 471.37, 557.77 468.07, 561.79 462.20 C 565.81 456.32, 567.76 453.33, 571.18 448.25 C 574.59 443.17, 576.31 440.67, 578.86 436.79 C 581.41 432.92, 582.66 431.49, 583.90 428.87 C 585.15 426.25, 585.31 425.01, 585.08 423.71 C 584.85 422.40, 583.99 421.90, 582.74 422.35" style="stroke: black; fill: black;"/><path d="M 589.51,425.62 C 588.74 426.01, 588.61 426.18, 588.00 427.47 C 587.38 428.75, 586.73 429.52, 586.46 432.06 C 586.19 434.60, 586.74 436.39, 586.63 440.17 C 586.52 443.94, 586.38 446.28, 585.91 450.93 C 585.44 455.58, 585.01 458.30, 584.28 463.42 C 583.56 468.53, 583.09 471.30, 582.27 476.50 C 581.45 481.71, 580.97 484.44, 580.20 489.47 C 579.43 494.49, 579.04 497.04, 578.41 501.61 C 577.79 506.17, 577.58 508.39, 577.08 512.30 C 576.58 516.21, 576.21 518.03, 575.90 521.14 C 575.59 524.25, 575.52 525.72, 575.53 527.85 C 575.54 529.98, 575.72 530.65, 575.95 531.78 C 576.18 532.91, 576.22 533.14, 576.68 533.49 C 577.14 533.84, 577.83 533.67, 578.25 533.53 C 578.66 533.39, 579.14 532.70, 578.74 532.78 C 578.34 532.86, 576.53 533.55, 576.26 533.91 C 576.00 534.28, 576.79 534.58, 577.41 534.60 C 578.04 534.62, 578.77 534.54, 579.40 534.04 C 580.03 533.53, 580.19 533.25, 580.57 532.07 C 580.94 530.88, 581.05 530.23, 581.26 528.12 C 581.47 526.01, 581.51 524.60, 581.61 521.52 C 581.71 518.44, 581.57 516.60, 581.76 512.71 C 581.95 508.83, 582.09 506.64, 582.55 502.10 C 583.02 497.57, 583.36 495.03, 584.07 490.04 C 584.79 485.05, 585.26 482.32, 586.13 477.13 C 586.99 471.94, 587.49 469.18, 588.41 464.08 C 589.33 458.98, 589.83 456.28, 590.73 451.64 C 591.62 447.00, 592.13 444.68, 592.89 440.89 C 593.65 437.10, 594.41 435.34, 594.54 432.69 C 594.67 430.03, 594.08 429.05, 593.55 427.61 C 593.01 426.18, 592.65 425.91, 591.84 425.51 C 591.04 425.11, 590.28 425.23, 589.51 425.62" style="stroke: black; fill: black;"/><path d="M 528.19,497.86 C 528.97 498.42, 529.40 498.43, 531.06 498.39 C 532.72 498.35, 533.78 498.38, 536.49 497.67 C 539.20 496.96, 540.85 495.89, 544.61 494.85 C 548.38 493.80, 550.84 493.29, 555.31 492.45 C 559.78 491.61, 562.35 491.20, 566.97 490.64 C 571.59 490.07, 574.02 489.84, 578.39 489.60 C 582.76 489.37, 585.19 489.45, 588.84 489.47 C 592.50 489.48, 594.15 489.86, 596.68 489.68 C 599.20 489.49, 600.49 489.19, 601.48 488.54 C 602.48 487.89, 602.54 487.20, 601.63 486.42 C 600.72 485.64, 599.48 485.05, 596.92 484.63 C 594.35 484.20, 592.56 484.20, 588.79 484.29 C 585.03 484.37, 582.54 484.68, 578.08 485.05 C 573.61 485.43, 571.16 485.67, 566.46 486.17 C 561.75 486.67, 559.17 487.02, 554.56 487.56 C 549.96 488.11, 547.46 488.41, 543.44 488.91 C 539.41 489.41, 537.31 489.27, 534.43 490.07 C 531.56 490.87, 530.51 491.82, 529.06 492.92 C 527.60 494.02, 527.34 494.60, 527.17 495.59 C 527.00 496.58, 527.41 497.30, 528.19 497.86" style="stroke: black; fill: black;"/><path d="M 640.46,481.46 C 639.46 481.66, 639.04 482.05, 637.86 483.37 C 636.67 484.69, 635.76 485.56, 634.53 488.07 C 633.31 490.58, 633.06 492.59, 631.73 495.91 C 630.40 499.23, 629.52 501.23, 627.88 504.68 C 626.25 508.14, 625.21 510.06, 623.54 513.18 C 621.88 516.31, 620.64 517.79, 619.56 520.32 C 618.47 522.84, 618.12 524.13, 618.11 525.82 C 618.11 527.51, 618.53 528.27, 619.52 528.77 C 620.50 529.28, 621.57 529.31, 623.04 528.34 C 624.51 527.36, 625.33 526.40, 626.87 523.90 C 628.40 521.40, 628.68 519.28, 630.70 515.83 C 632.73 512.38, 634.04 510.29, 636.98 506.65 C 639.92 503.01, 641.79 501.04, 645.39 497.65 C 648.99 494.26, 651.15 492.49, 654.99 489.71 C 658.83 486.92, 660.95 485.58, 664.58 483.73 C 668.22 481.88, 670.17 481.26, 673.17 480.45 C 676.17 479.63, 677.51 479.60, 679.58 479.64 C 681.65 479.69, 682.37 479.81, 683.52 480.66 C 684.66 481.52, 684.90 482.15, 685.31 483.91 C 685.72 485.67, 685.68 486.77, 685.58 489.44 C 685.47 492.11, 685.43 493.91, 684.78 497.27 C 684.12 500.64, 683.45 502.70, 682.31 506.27 C 681.16 509.84, 680.35 511.80, 679.05 515.11 C 677.75 518.42, 676.69 520.02, 675.80 522.83 C 674.92 525.64, 674.71 527.09, 674.62 529.17 C 674.52 531.26, 674.91 532.11, 675.34 533.28 C 675.77 534.45, 676.18 534.74, 676.76 535.03 C 677.35 535.32, 677.81 535.08, 678.26 534.72 C 678.71 534.36, 678.62 534.12, 679.02 533.21 C 679.41 532.31, 679.63 531.89, 680.23 530.22 C 680.84 528.54, 681.20 527.45, 682.05 524.82 C 682.90 522.20, 683.35 520.45, 684.48 517.09 C 685.61 513.74, 686.46 511.75, 687.72 508.06 C 688.97 504.36, 689.81 502.30, 690.74 498.61 C 691.67 494.92, 692.31 492.97, 692.36 489.62 C 692.41 486.27, 692.15 484.50, 690.99 481.87 C 689.82 479.23, 688.75 478.00, 686.52 476.45 C 684.29 474.90, 682.80 474.32, 679.84 474.13 C 676.87 473.94, 675.16 474.37, 671.69 475.50 C 668.21 476.63, 666.29 477.61, 662.45 479.77 C 658.62 481.94, 656.50 483.38, 652.51 486.33 C 648.53 489.29, 646.34 491.09, 642.53 494.54 C 638.71 497.99, 636.77 499.99, 633.44 503.57 C 630.10 507.14, 628.54 509.17, 625.85 512.42 C 623.16 515.67, 621.52 517.17, 620.00 519.81 C 618.47 522.45, 618.29 523.87, 618.22 525.62 C 618.16 527.36, 618.80 528.11, 619.66 528.53 C 620.51 528.96, 621.30 528.81, 622.50 527.75 C 623.70 526.69, 624.41 525.62, 625.67 523.24 C 626.93 520.85, 627.32 519.00, 628.81 515.82 C 630.30 512.63, 631.33 510.71, 633.12 507.31 C 634.92 503.91, 636.00 501.98, 637.78 498.82 C 639.57 495.66, 640.93 494.12, 642.05 491.50 C 643.16 488.88, 643.21 487.55, 643.37 485.73 C 643.53 483.91, 643.43 483.27, 642.85 482.42 C 642.26 481.56, 641.45 481.27, 640.46 481.46" style="stroke: black; fill: black;"/><path d="M 734.96,484.05 C 733.93 484.41, 733.57 485.03, 732.40 486.63 C 731.24 488.23, 730.55 489.31, 729.13 492.04 C 727.71 494.77, 727.03 496.87, 725.30 500.30 C 723.58 503.72, 722.48 505.74, 720.51 509.17 C 718.54 512.59, 717.24 514.36, 715.44 517.42 C 713.65 520.48, 712.59 521.97, 711.54 524.46 C 710.48 526.94, 710.37 528.15, 710.19 529.85 C 710.00 531.55, 710.35 532.12, 710.61 532.95 C 710.87 533.79, 711.13 533.82, 711.51 534.05 C 711.89 534.28, 712.12 534.20, 712.51 534.10 C 712.91 533.99, 712.97 534.04, 713.49 533.51 C 714.02 532.97, 714.38 532.72, 715.15 531.43 C 715.91 530.14, 716.25 529.28, 717.31 527.05 C 718.38 524.81, 718.88 523.25, 720.48 520.24 C 722.09 517.24, 723.28 515.39, 725.33 512.01 C 727.37 508.63, 728.64 506.66, 730.71 503.34 C 732.78 500.02, 734.21 498.28, 735.67 495.41 C 737.14 492.53, 737.67 491.08, 738.04 488.96 C 738.41 486.84, 738.14 485.81, 737.52 484.83 C 736.91 483.85, 735.98 483.69, 734.96 484.05" style="stroke: black; fill: black;"/><path d="M 753.02,441.79 C 753.79 442.24, 753.95 442.42, 753.78 442.82 C 753.61 443.22, 752.90 443.49, 752.18 443.78 C 751.46 444.07, 750.37 444.44, 750.20 444.27 C 750.03 444.09, 750.42 443.79, 751.33 442.90 C 752.25 442.00, 754.06 440.93, 754.76 439.80 C 755.46 438.67, 755.44 437.72, 754.84 437.26 C 754.24 436.79, 752.83 437.16, 751.74 437.48 C 750.66 437.79, 749.79 438.22, 749.42 438.83 C 749.06 439.45, 749.19 439.96, 749.91 440.55 C 750.63 441.14, 752.25 441.34, 753.02 441.79" style="stroke: black; fill: black;"/></svg>