<svg xmlns="http://www.w3.org/2000/svg" id="canvas" viewBox="545.377 364.919 617.334 227.833"><path d="M 584.48,406.80 C 583.52 408.67, 584.11 410.87, 584.17 416.03 C 584.22 421.19, 584.56 424.76, 584.74 432.60 C 584.93 440.45, 584.96 445.53, 585.10 455.26 C 585.23 464.98, 585.20 470.73, 585.42 481.22 C 585.64 491.71, 585.63 497.55, 586.19 507.71 C 586.75 517.88, 587.45 523.11, 588.23 532.06 C 589.02 541.01, 589.38 545.31, 590.12 552.47 C 590.86 559.63, 591.12 562.76, 591.93 567.85 C 592.74 572.95, 592.54 575.46, 594.15 577.94 C 595.77 580.42, 597.99 580.95, 600.02 580.25 C 602.06 579.55, 603.51 578.10, 604.32 574.44 C 605.12 570.78, 604.28 568.04, 604.06 561.95 C 603.85 555.86, 603.64 551.93, 603.24 543.99 C 602.84 536.05, 602.64 531.13, 602.07 522.24 C 601.49 513.35, 601.18 508.27, 600.37 499.54 C 599.56 490.80, 599.06 486.68, 598.01 478.57 C 596.96 470.46, 596.22 466.55, 595.10 458.99 C 593.98 451.43, 593.41 447.68, 592.39 440.75 C 591.37 433.83, 590.51 430.50, 590.01 424.36 C 589.51 418.23, 589.49 415.34, 589.90 410.06 C 590.31 404.79, 590.80 402.26, 592.07 397.99 C 593.34 393.72, 594.10 391.90, 596.24 388.69 C 598.38 385.48, 599.77 384.16, 602.76 381.92 C 605.76 379.68, 607.50 378.84, 611.22 377.49 C 614.93 376.14, 617.13 375.56, 621.33 375.15 C 625.53 374.75, 627.99 374.61, 632.23 375.45 C 636.47 376.29, 638.75 377.16, 642.55 379.36 C 646.34 381.55, 648.39 383.10, 651.21 386.43 C 654.02 389.75, 655.21 391.68, 656.63 395.99 C 658.05 400.29, 658.44 403.00, 658.30 407.96 C 658.17 412.92, 657.76 415.74, 655.96 420.78 C 654.16 425.83, 652.58 428.45, 649.32 433.20 C 646.06 437.95, 643.85 440.41, 639.65 444.53 C 635.45 448.65, 632.88 450.76, 628.33 453.79 C 623.79 456.83, 621.03 458.06, 616.92 459.71 C 612.81 461.36, 610.33 460.98, 607.79 462.05 C 605.24 463.12, 604.77 463.83, 604.21 465.07 C 603.65 466.31, 603.92 467.20, 604.98 468.25 C 606.05 469.30, 606.84 470.23, 609.54 470.34 C 612.24 470.44, 614.19 468.89, 618.48 468.79 C 622.77 468.69, 625.55 468.64, 631.00 469.83 C 636.44 471.03, 639.77 472.05, 645.70 474.78 C 651.62 477.52, 654.99 479.27, 660.61 483.51 C 666.22 487.75, 669.08 490.47, 673.78 495.96 C 678.48 501.46, 680.86 504.90, 684.09 511.00 C 687.32 517.10, 688.61 520.39, 689.92 526.46 C 691.24 532.53, 691.23 535.71, 690.66 541.35 C 690.10 546.98, 689.45 549.75, 687.08 554.64 C 684.70 559.52, 683.18 561.76, 678.80 565.76 C 674.41 569.77, 671.53 571.52, 665.13 574.67 C 658.74 577.82, 654.79 579.39, 646.83 581.52 C 638.87 583.65, 634.12 584.50, 625.34 585.31 C 616.57 586.11, 611.44 586.04, 602.96 585.55 C 594.49 585.05, 590.07 584.45, 582.97 582.83 C 575.88 581.21, 572.49 579.90, 567.50 577.45 C 562.52 575.01, 560.43 573.05, 558.05 570.60 C 555.66 568.15, 555.65 567.09, 555.57 565.22 C 555.50 563.34, 555.79 563.12, 557.67 561.20 C 559.54 559.29, 561.48 557.72, 564.95 555.64 C 568.41 553.56, 571.33 552.70, 574.99 550.80 C 578.66 548.91, 581.97 548.07, 583.27 546.19 C 584.58 544.31, 583.81 541.98, 581.53 541.42 C 579.25 540.85, 576.05 541.93, 571.85 543.36 C 567.66 544.79, 564.61 545.95, 560.54 548.55 C 556.48 551.14, 553.95 552.85, 551.53 556.32 C 549.12 559.79, 548.02 562.17, 548.48 565.89 C 548.94 569.61, 550.43 571.72, 553.83 574.92 C 557.23 578.12, 559.82 579.51, 565.48 581.90 C 571.13 584.30, 574.64 585.41, 582.10 586.91 C 589.55 588.41, 594.03 588.96, 602.75 589.41 C 611.47 589.86, 616.66 589.95, 625.69 589.16 C 634.71 588.37, 639.58 587.58, 647.86 585.48 C 656.14 583.39, 660.24 581.92, 667.08 578.69 C 673.91 575.46, 677.13 573.71, 682.02 569.34 C 686.92 564.97, 688.86 562.33, 691.56 556.83 C 694.26 551.32, 694.94 548.09, 695.52 541.82 C 696.11 535.54, 695.97 532.03, 694.48 525.45 C 692.98 518.86, 691.52 515.36, 688.06 508.89 C 684.61 502.41, 682.11 498.88, 677.19 493.06 C 672.28 487.24, 669.31 484.39, 663.47 479.80 C 657.64 475.20, 654.16 473.30, 648.01 470.09 C 641.86 466.87, 638.48 465.71, 632.74 463.72 C 626.99 461.74, 624.16 461.10, 619.27 460.16 C 614.39 459.21, 611.63 458.23, 608.31 458.99 C 604.99 459.75, 603.54 461.87, 602.69 463.95 C 601.84 466.02, 602.52 468.04, 604.07 469.35 C 605.62 470.66, 607.29 471.23, 610.44 470.51 C 613.60 469.79, 615.61 468.16, 619.85 465.76 C 624.09 463.36, 626.92 461.98, 631.65 458.51 C 636.37 455.04, 639.05 452.84, 643.48 448.40 C 647.92 443.96, 650.25 441.44, 653.81 436.31 C 657.38 431.17, 659.22 428.36, 661.31 422.73 C 663.40 417.10, 664.01 413.90, 664.26 408.17 C 664.50 402.44, 664.16 399.26, 662.54 394.09 C 660.91 388.92, 659.47 386.42, 656.14 382.33 C 652.82 378.25, 650.41 376.37, 645.91 373.67 C 641.40 370.96, 638.65 369.91, 633.62 368.81 C 628.58 367.71, 625.69 367.79, 620.72 368.19 C 615.75 368.59, 613.21 369.17, 608.77 370.81 C 604.32 372.45, 602.11 373.52, 598.49 376.38 C 594.87 379.25, 593.10 381.15, 590.66 385.15 C 588.22 389.16, 587.51 391.50, 586.28 396.42 C 585.06 401.34, 584.76 404.08, 584.55 409.76 C 584.34 415.44, 584.53 418.49, 585.24 424.83 C 585.94 431.16, 586.90 434.48, 588.08 441.43 C 589.26 448.39, 589.91 452.08, 591.14 459.61 C 592.37 467.14, 593.15 471.01, 594.23 479.07 C 595.31 487.12, 595.81 491.20, 596.55 499.88 C 597.29 508.55, 597.59 513.61, 597.93 522.45 C 598.28 531.29, 598.37 536.21, 598.28 544.09 C 598.20 551.96, 597.93 555.91, 597.52 561.84 C 597.10 567.76, 596.02 570.38, 596.19 573.70 C 596.37 577.02, 597.54 578.07, 598.39 578.43 C 599.24 578.80, 600.67 577.86, 600.44 575.52 C 600.20 573.18, 598.47 571.46, 597.22 566.74 C 595.97 562.03, 595.28 558.95, 594.19 551.94 C 593.09 544.94, 592.67 540.61, 591.73 531.72 C 590.79 522.84, 590.07 517.64, 589.48 507.53 C 588.90 497.42, 588.92 491.62, 588.82 481.17 C 588.73 470.71, 588.89 464.97, 589.02 455.25 C 589.15 445.54, 589.34 440.44, 589.47 432.58 C 589.59 424.72, 589.75 421.12, 589.64 415.95 C 589.54 410.77, 589.97 408.54, 588.94 406.71 C 587.90 404.88, 585.43 404.94, 584.48 406.80" style="stroke: black; fill: black;"/><path d="M 718.74,524.30 C 719.35 525.53, 719.72 525.96, 721.50 526.54 C 723.28 527.12, 724.42 527.78, 727.64 527.19 C 730.86 526.60, 732.93 525.13, 737.60 523.60 C 742.26 522.08, 745.44 521.45, 750.95 519.55 C 756.47 517.65, 759.67 516.32, 765.18 514.10 C 770.69 511.87, 773.60 510.66, 778.49 508.42 C 783.39 506.18, 785.82 505.26, 789.66 502.91 C 793.51 500.55, 795.51 499.64, 797.72 496.66 C 799.94 493.69, 800.81 491.56, 800.72 488.03 C 800.63 484.51, 799.87 482.14, 797.28 479.02 C 794.69 475.91, 792.30 474.66, 787.79 472.46 C 783.28 470.25, 780.59 469.27, 774.73 467.99 C 768.88 466.71, 765.44 466.29, 758.53 466.04 C 751.61 465.79, 747.37 465.94, 740.15 466.75 C 732.94 467.56, 729.09 468.03, 722.44 470.09 C 715.78 472.16, 712.37 473.52, 706.88 477.08 C 701.40 480.63, 698.55 482.84, 695.01 487.85 C 691.47 492.87, 690.18 496.06, 689.17 502.14 C 688.16 508.22, 688.46 511.96, 689.95 518.26 C 691.44 524.56, 692.94 528.10, 696.62 533.64 C 700.30 539.19, 702.85 541.78, 708.37 545.97 C 713.89 550.17, 717.38 551.88, 724.23 554.60 C 731.07 557.32, 734.99 558.23, 742.59 559.56 C 750.19 560.89, 754.42 561.07, 762.22 561.25 C 770.02 561.43, 774.04 561.17, 781.59 560.46 C 789.15 559.75, 793.15 559.01, 800.02 557.70 C 806.88 556.39, 810.67 555.41, 815.92 553.92 C 821.17 552.44, 823.13 551.77, 826.27 550.28 C 829.41 548.78, 830.81 547.82, 831.63 546.46 C 832.45 545.09, 831.90 543.84, 830.37 543.47 C 828.85 543.09, 827.24 543.55, 824.02 544.58 C 820.80 545.60, 819.25 546.88, 814.26 548.58 C 809.27 550.28, 805.67 551.57, 799.05 553.08 C 792.43 554.60, 788.51 555.38, 781.16 556.16 C 773.82 556.94, 769.88 557.18, 762.32 557.00 C 754.76 556.82, 750.64 556.59, 743.35 555.27 C 736.07 553.95, 732.33 553.02, 725.91 550.41 C 719.49 547.79, 716.28 546.11, 711.26 542.21 C 706.24 538.30, 704.06 535.92, 700.81 530.89 C 697.55 525.87, 696.29 522.66, 694.98 517.08 C 693.67 511.49, 693.43 508.23, 694.26 502.96 C 695.09 497.70, 696.07 495.11, 699.13 490.75 C 702.18 486.39, 704.59 484.37, 709.53 481.15 C 714.47 477.94, 717.62 476.56, 723.85 474.66 C 730.07 472.75, 733.78 472.28, 740.66 471.62 C 747.54 470.96, 751.73 470.88, 758.24 471.35 C 764.74 471.83, 768.00 472.45, 773.19 474.01 C 778.37 475.56, 780.66 476.97, 784.16 479.12 C 787.66 481.28, 788.95 482.93, 790.70 484.77 C 792.44 486.62, 792.78 486.97, 792.89 488.35 C 793.01 489.74, 792.68 489.95, 791.26 491.69 C 789.84 493.43, 788.90 494.84, 785.81 497.07 C 782.72 499.30, 780.39 500.55, 775.82 502.83 C 771.25 505.11, 768.32 506.39, 762.96 508.45 C 757.60 510.50, 754.46 511.72, 749.02 513.10 C 743.58 514.49, 740.43 514.83, 735.76 515.39 C 731.10 515.94, 728.73 515.40, 725.70 515.88 C 722.68 516.36, 722.08 516.89, 720.63 517.78 C 719.19 518.68, 718.86 519.06, 718.48 520.36 C 718.10 521.66, 718.14 523.06, 718.74 524.30" style="stroke: black; fill: black;"/><path d="M 919.11,472.49 C 919.63 470.94, 919.67 469.67, 918.58 467.72 C 917.48 465.76, 916.25 464.15, 913.63 462.70 C 911.00 461.26, 908.94 461.00, 905.45 460.50 C 901.96 460.00, 900.16 459.80, 896.18 460.19 C 892.21 460.58, 889.98 461.03, 885.57 462.46 C 881.17 463.88, 878.96 464.74, 874.15 467.31 C 869.33 469.88, 866.71 471.44, 861.51 475.29 C 856.31 479.15, 853.12 481.62, 848.16 486.60 C 843.20 491.58, 840.39 494.52, 836.70 500.20 C 833.00 505.88, 831.23 509.12, 829.68 515.00 C 828.14 520.89, 827.88 524.23, 828.97 529.61 C 830.06 534.99, 831.45 537.62, 835.13 541.88 C 838.81 546.14, 841.57 548.12, 847.38 550.91 C 853.19 553.69, 856.98 554.68, 864.17 555.81 C 871.35 556.93, 875.51 556.71, 883.30 556.54 C 891.10 556.37, 895.83 555.87, 903.14 554.95 C 910.45 554.03, 914.38 553.09, 919.86 551.94 C 925.35 550.79, 928.59 550.51, 930.57 549.19 C 932.54 547.88, 932.06 545.75, 929.74 545.36 C 927.42 544.97, 924.40 546.28, 918.95 547.25 C 913.51 548.23, 909.68 549.28, 902.53 550.22 C 895.38 551.16, 890.72 551.79, 883.20 551.95 C 875.69 552.11, 871.65 552.18, 864.95 551.03 C 858.24 549.87, 854.81 548.74, 849.68 546.19 C 844.54 543.65, 842.34 541.83, 839.27 538.30 C 836.19 534.76, 835.20 532.92, 834.30 528.52 C 833.39 524.13, 833.41 521.44, 834.74 516.33 C 836.07 511.22, 837.54 508.18, 840.96 502.98 C 844.37 497.78, 847.05 494.92, 851.82 490.30 C 856.58 485.69, 859.74 483.31, 864.78 479.88 C 869.81 476.46, 872.44 475.15, 876.99 473.16 C 881.54 471.18, 883.69 470.69, 887.53 469.97 C 891.37 469.25, 893.23 469.17, 896.19 469.55 C 899.15 469.94, 900.03 470.80, 902.33 471.89 C 904.62 472.97, 905.63 474.16, 907.65 474.97 C 909.67 475.79, 910.75 475.88, 912.43 475.98 C 914.10 476.09, 914.67 476.18, 916.01 475.48 C 917.35 474.78, 918.60 474.04, 919.11 472.49" style="stroke: black; fill: black;"/><path d="M 1007.44,476.42 C 1007.12 474.58, 1005.92 473.10, 1003.69 471.73 C 1001.47 470.35, 999.68 469.70, 996.29 469.56 C 992.90 469.42, 990.61 469.79, 986.73 471.05 C 982.85 472.30, 980.84 473.34, 976.89 475.86 C 972.94 478.38, 970.83 480.07, 966.97 483.64 C 963.12 487.20, 960.94 489.24, 957.61 493.70 C 954.27 498.16, 952.58 500.85, 950.29 505.96 C 948.00 511.07, 946.79 514.09, 946.16 519.24 C 945.52 524.39, 945.58 527.16, 947.11 531.70 C 948.63 536.25, 950.28 538.48, 953.78 541.96 C 957.29 545.44, 959.64 547.00, 964.62 549.10 C 969.61 551.20, 972.69 551.60, 978.72 552.46 C 984.74 553.33, 988.28 553.32, 994.75 553.42 C 1001.21 553.51, 1004.97 553.20, 1011.05 552.94 C 1017.12 552.68, 1020.47 552.45, 1025.14 552.10 C 1029.80 551.74, 1031.55 552.00, 1034.38 551.15 C 1037.20 550.29, 1038.44 549.09, 1039.25 547.81 C 1040.07 546.53, 1039.67 545.49, 1038.44 544.76 C 1037.21 544.02, 1035.91 543.98, 1033.11 544.13 C 1030.31 544.29, 1028.93 544.94, 1024.44 545.55 C 1019.96 546.16, 1016.62 546.71, 1010.70 547.18 C 1004.77 547.64, 1001.05 547.96, 994.83 547.87 C 988.61 547.77, 985.14 547.62, 979.60 546.72 C 974.05 545.81, 971.35 545.22, 967.11 543.34 C 962.88 541.46, 961.17 540.06, 958.41 537.31 C 955.66 534.56, 954.52 533.05, 953.34 529.60 C 952.17 526.15, 952.01 524.26, 952.55 520.05 C 953.09 515.84, 954.02 513.04, 956.06 508.56 C 958.10 504.08, 959.64 501.57, 962.74 497.65 C 965.85 493.72, 967.97 491.89, 971.60 488.94 C 975.22 485.99, 977.40 484.56, 980.87 482.88 C 984.33 481.20, 985.96 480.84, 988.90 480.55 C 991.84 480.25, 993.21 481.16, 995.55 481.38 C 997.90 481.60, 998.69 481.73, 1000.63 481.65 C 1002.58 481.56, 1003.91 482.00, 1005.27 480.96 C 1006.63 479.91, 1007.75 478.27, 1007.44 476.42" style="stroke: black; fill: black;"/><path d="M 1129.03,492.00 C 1129.58 490.25, 1129.43 488.49, 1128.09 486.19 C 1126.75 483.89, 1125.29 482.45, 1122.33 480.50 C 1119.38 478.55, 1117.22 477.47, 1113.33 476.43 C 1109.43 475.38, 1107.38 475.11, 1102.85 475.26 C 1098.32 475.40, 1095.78 475.80, 1090.68 477.15 C 1085.57 478.49, 1082.68 479.32, 1077.33 481.98 C 1071.98 484.64, 1068.86 486.39, 1063.94 490.44 C 1059.02 494.48, 1056.43 497.12, 1052.74 502.19 C 1049.05 507.26, 1047.27 510.24, 1045.49 515.79 C 1043.71 521.33, 1043.13 524.57, 1043.86 529.91 C 1044.58 535.24, 1045.95 538.29, 1049.12 542.45 C 1052.30 546.62, 1054.75 548.36, 1059.74 550.74 C 1064.73 553.11, 1067.91 553.64, 1074.08 554.32 C 1080.25 554.99, 1084.09 554.92, 1090.58 554.11 C 1097.06 553.29, 1100.55 552.37, 1106.50 550.24 C 1112.45 548.12, 1115.52 546.59, 1120.33 543.48 C 1125.14 540.37, 1127.33 538.61, 1130.57 534.71 C 1133.80 530.82, 1135.04 528.41, 1136.50 524.00 C 1137.95 519.60, 1137.97 517.09, 1137.85 512.67 C 1137.72 508.25, 1137.22 505.76, 1135.88 501.91 C 1134.54 498.05, 1133.69 495.63, 1131.17 493.40 C 1128.64 491.16, 1126.29 490.51, 1123.26 490.73 C 1120.23 490.95, 1117.81 491.88, 1116.02 494.49 C 1114.23 497.09, 1114.06 499.53, 1114.32 503.74 C 1114.58 507.96, 1115.72 510.58, 1117.32 515.57 C 1118.92 520.55, 1119.99 523.43, 1122.34 528.66 C 1124.69 533.89, 1126.23 536.82, 1129.08 541.72 C 1131.94 546.61, 1133.68 549.01, 1136.60 553.14 C 1139.51 557.27, 1141.02 559.16, 1143.68 562.37 C 1146.33 565.57, 1147.50 567.38, 1149.86 569.15 C 1152.22 570.93, 1153.70 570.95, 1155.49 571.24 C 1157.28 571.52, 1157.95 571.15, 1158.80 570.59 C 1159.64 570.03, 1159.69 569.34, 1159.71 568.43 C 1159.73 567.52, 1159.61 567.38, 1158.88 566.03 C 1158.14 564.67, 1157.97 563.43, 1156.01 561.65 C 1154.05 559.88, 1151.90 559.63, 1149.06 557.15 C 1146.22 554.68, 1144.72 552.98, 1141.80 549.27 C 1138.88 545.56, 1137.13 543.23, 1134.46 538.60 C 1131.79 533.97, 1130.35 531.13, 1128.44 526.12 C 1126.52 521.12, 1125.83 518.19, 1124.90 513.57 C 1123.98 508.95, 1124.12 506.25, 1123.83 503.04 C 1123.54 499.83, 1123.68 498.72, 1123.45 497.54 C 1123.22 496.35, 1122.59 496.59, 1122.66 497.10 C 1122.72 497.61, 1122.81 498.46, 1123.79 500.09 C 1124.77 501.72, 1126.29 502.62, 1127.57 505.25 C 1128.85 507.89, 1129.69 509.90, 1130.17 513.26 C 1130.65 516.63, 1130.85 518.56, 1129.96 522.08 C 1129.08 525.60, 1128.30 527.53, 1125.75 530.86 C 1123.20 534.20, 1121.43 535.91, 1117.21 538.76 C 1112.99 541.61, 1110.12 543.15, 1104.66 545.13 C 1099.20 547.11, 1095.90 547.97, 1089.91 548.67 C 1083.93 549.38, 1080.25 549.33, 1074.72 548.67 C 1069.20 548.02, 1066.44 547.37, 1062.28 545.39 C 1058.12 543.41, 1056.43 542.04, 1053.92 538.78 C 1051.40 535.52, 1050.30 533.35, 1049.69 529.09 C 1049.08 524.84, 1049.36 522.23, 1050.86 517.50 C 1052.36 512.77, 1053.87 509.98, 1057.19 505.45 C 1060.52 500.92, 1062.93 498.42, 1067.48 494.83 C 1072.03 491.24, 1074.99 489.71, 1079.94 487.52 C 1084.88 485.32, 1087.66 484.70, 1092.21 483.85 C 1096.75 482.99, 1099.12 482.89, 1102.66 483.23 C 1106.20 483.58, 1107.34 484.18, 1109.92 485.55 C 1112.51 486.92, 1113.45 488.45, 1115.58 490.08 C 1117.72 491.71, 1118.64 492.73, 1120.59 493.70 C 1122.53 494.68, 1123.63 495.31, 1125.32 494.97 C 1127.01 494.63, 1128.48 493.76, 1129.03 492.00" style="stroke: black; fill: black;"/></svg>