<svg xmlns="http://www.w3.org/2000/svg" id="canvas" viewBox="588.177 385.509 518.597 187.689"><path d="M 627.81,434.29 C 626.81 436.15, 627.46 438.30, 628.01 442.93 C 628.55 447.56, 629.34 450.72, 630.53 457.44 C 631.71 464.17, 632.63 468.80, 633.93 476.57 C 635.24 484.33, 635.88 488.61, 637.04 496.28 C 638.20 503.95, 638.87 507.91, 639.73 514.90 C 640.59 521.89, 640.96 525.22, 641.36 531.24 C 641.76 537.25, 641.57 540.32, 641.72 544.96 C 641.88 549.61, 641.51 551.55, 642.13 554.46 C 642.75 557.37, 643.56 558.57, 644.81 559.52 C 646.07 560.47, 647.35 560.36, 648.43 559.21 C 649.51 558.05, 650.12 556.69, 650.20 553.72 C 650.29 550.75, 649.45 548.98, 648.84 544.37 C 648.23 539.76, 647.94 536.69, 647.14 530.66 C 646.34 524.63, 645.85 521.24, 644.84 514.22 C 643.83 507.19, 643.17 503.24, 642.09 495.54 C 641.02 487.85, 640.52 483.54, 639.47 475.73 C 638.42 467.92, 637.74 463.24, 636.86 456.47 C 635.98 449.71, 635.83 446.50, 635.06 441.92 C 634.29 437.35, 634.48 435.13, 633.03 433.60 C 631.58 432.08, 628.82 432.42, 627.81 434.29" style="stroke: black; fill: black;"/><path d="M 599.68,440.63 C 601.08 439.25, 600.77 437.40, 601.15 434.32 C 601.53 431.23, 600.66 429.15, 601.58 425.21 C 602.50 421.27, 602.87 418.60, 605.73 414.60 C 608.60 410.59, 610.82 408.49, 615.89 405.19 C 620.96 401.88, 624.43 400.25, 631.08 398.05 C 637.72 395.86, 641.84 394.96, 649.11 394.22 C 656.37 393.48, 660.51 393.51, 667.39 394.35 C 674.27 395.20, 677.97 396.23, 683.51 398.45 C 689.05 400.67, 691.68 402.41, 695.09 405.44 C 698.50 408.48, 699.51 410.26, 700.56 413.63 C 701.60 416.99, 701.55 418.57, 700.32 422.27 C 699.09 425.97, 697.74 428.16, 694.41 432.13 C 691.08 436.10, 688.38 438.43, 683.67 442.14 C 678.97 445.85, 675.67 447.78, 670.87 450.69 C 666.07 453.59, 662.90 454.21, 659.66 456.66 C 656.42 459.11, 655.09 460.32, 654.67 462.94 C 654.26 465.57, 655.00 468.17, 657.59 469.80 C 660.17 471.44, 662.45 470.67, 667.60 471.12 C 672.74 471.58, 676.29 471.30, 683.31 472.10 C 690.33 472.90, 694.82 473.38, 702.69 475.13 C 710.55 476.88, 715.15 478.08, 722.64 480.86 C 730.13 483.63, 734.13 485.42, 740.13 489.02 C 746.13 492.61, 748.90 494.81, 752.65 498.84 C 756.40 502.87, 757.47 505.10, 758.87 509.17 C 760.26 513.25, 760.35 515.17, 759.63 519.22 C 758.90 523.28, 758.03 525.33, 755.26 529.46 C 752.48 533.58, 750.44 535.88, 745.77 539.87 C 741.09 543.85, 738.17 545.94, 731.89 549.37 C 725.61 552.81, 721.71 554.47, 714.36 557.03 C 707.00 559.59, 702.77 560.65, 695.10 562.18 C 687.43 563.71, 683.22 564.26, 676.02 564.69 C 668.83 565.11, 665.07 564.96, 659.14 564.31 C 653.20 563.66, 650.29 562.90, 646.37 561.46 C 642.44 560.01, 641.19 558.75, 639.50 557.07 C 637.82 555.39, 637.87 554.98, 637.96 553.06 C 638.04 551.14, 638.01 550.17, 639.92 547.46 C 641.84 544.74, 644.05 542.49, 647.54 539.49 C 651.04 536.50, 653.82 535.04, 657.38 532.46 C 660.94 529.89, 664.29 528.78, 665.35 526.63 C 666.42 524.47, 665.18 521.96, 662.71 521.70 C 660.24 521.45, 657.19 523.16, 653.00 525.35 C 648.82 527.55, 645.90 529.24, 641.78 532.68 C 637.66 536.13, 634.92 538.45, 632.40 542.59 C 629.88 546.73, 628.88 549.34, 629.19 553.39 C 629.49 557.43, 630.90 559.92, 633.92 562.81 C 636.94 565.70, 639.35 566.42, 644.30 567.85 C 649.25 569.27, 652.25 569.57, 658.67 569.94 C 665.09 570.31, 668.90 570.32, 676.38 569.72 C 683.85 569.12, 688.14 568.53, 696.05 566.94 C 703.97 565.34, 708.29 564.30, 715.96 561.74 C 723.63 559.18, 727.68 557.58, 734.41 554.13 C 741.13 550.68, 744.33 548.69, 749.58 544.49 C 754.83 540.29, 757.35 537.96, 760.66 533.12 C 763.97 528.28, 765.33 525.50, 766.14 520.29 C 766.94 515.09, 766.57 512.14, 764.68 507.08 C 762.78 502.02, 761.05 499.49, 756.65 495.01 C 752.25 490.53, 749.15 488.43, 742.69 484.68 C 736.23 480.93, 732.11 479.21, 724.36 476.27 C 716.61 473.33, 711.95 472.12, 703.95 469.98 C 695.94 467.84, 691.42 467.00, 684.34 465.56 C 677.27 464.13, 673.54 463.55, 668.58 462.82 C 663.62 462.08, 661.56 461.40, 659.55 461.90 C 657.53 462.39, 657.56 464.90, 658.52 465.30 C 659.47 465.70, 661.05 465.61, 664.31 463.90 C 667.56 462.19, 670.09 460.02, 674.81 456.73 C 679.53 453.43, 682.92 451.47, 687.90 447.43 C 692.88 443.39, 695.88 441.15, 699.70 436.54 C 703.52 431.92, 705.55 429.35, 707.02 424.35 C 708.48 419.35, 708.60 416.26, 707.03 411.54 C 705.46 406.81, 703.48 404.39, 699.18 400.73 C 694.88 397.06, 691.76 395.53, 685.53 393.21 C 679.29 390.90, 675.39 389.99, 668.00 389.15 C 660.61 388.32, 656.31 388.31, 648.60 389.04 C 640.88 389.78, 636.60 390.64, 629.42 392.83 C 622.24 395.01, 618.57 396.54, 612.68 399.98 C 606.80 403.43, 603.92 405.53, 600.01 410.06 C 596.10 414.59, 594.91 417.83, 593.15 422.63 C 591.39 427.43, 591.02 430.34, 591.23 434.06 C 591.43 437.78, 592.47 439.92, 594.16 441.23 C 595.85 442.55, 598.28 442.02, 599.68 440.63" style="stroke: black; fill: black;"/><path d="M 780.37,494.06 C 779.51 495.85, 779.98 497.49, 780.95 500.79 C 781.92 504.08, 783.36 506.11, 785.23 510.53 C 787.09 514.95, 788.47 518.05, 790.29 522.88 C 792.11 527.71, 793.07 530.39, 794.34 534.67 C 795.62 538.95, 795.24 541.58, 796.68 544.28 C 798.12 546.98, 799.56 547.84, 801.54 548.19 C 803.53 548.54, 805.31 547.73, 806.61 546.01 C 807.90 544.30, 808.61 542.79, 808.01 539.62 C 807.41 536.45, 805.45 534.39, 803.61 530.16 C 801.76 525.93, 800.37 523.07, 798.78 518.45 C 797.19 513.84, 796.44 511.15, 795.67 507.08 C 794.90 503.02, 794.78 501.02, 794.91 498.13 C 795.04 495.23, 795.36 494.46, 796.32 492.60 C 797.28 490.74, 797.52 490.30, 799.73 488.82 C 801.94 487.35, 803.42 486.50, 807.36 485.23 C 811.30 483.95, 814.02 483.31, 819.42 482.45 C 824.82 481.59, 828.09 481.27, 834.34 480.93 C 840.59 480.58, 844.13 480.60, 850.66 480.73 C 857.19 480.85, 860.70 481.08, 867.01 481.55 C 873.33 482.01, 876.56 482.35, 882.25 483.06 C 887.94 483.77, 890.74 484.20, 895.46 485.11 C 900.19 486.03, 902.45 486.84, 905.87 487.64 C 909.29 488.45, 910.64 489.30, 912.56 489.14 C 914.48 488.97, 915.11 488.09, 915.46 486.80 C 915.80 485.51, 915.56 484.03, 914.30 482.67 C 913.03 481.30, 911.81 479.95, 909.13 479.97 C 906.45 479.99, 904.50 481.26, 900.89 482.77 C 897.27 484.29, 895.06 485.32, 891.06 487.54 C 887.06 489.76, 884.71 490.95, 880.88 493.87 C 877.05 496.78, 874.92 498.56, 871.92 502.12 C 868.92 505.68, 867.46 507.70, 865.88 511.67 C 864.30 515.63, 863.53 518.04, 864.02 521.92 C 864.52 525.81, 865.75 528.23, 868.37 531.10 C 871.00 533.97, 873.25 535.08, 877.14 536.28 C 881.04 537.48, 883.43 537.45, 887.84 537.11 C 892.24 536.76, 894.76 536.14, 899.18 534.54 C 903.59 532.94, 905.88 531.69, 909.91 529.10 C 913.94 526.50, 915.91 524.81, 919.31 521.55 C 922.70 518.30, 924.27 516.34, 926.88 512.81 C 929.49 509.28, 931.22 507.21, 932.34 503.91 C 933.45 500.60, 933.44 498.18, 932.45 496.29 C 931.46 494.41, 929.12 493.77, 927.37 494.48 C 925.62 495.19, 923.69 497.05, 923.69 499.84 C 923.68 502.63, 925.16 504.77, 927.35 508.44 C 929.54 512.11, 931.36 514.53, 934.63 518.19 C 937.90 521.85, 939.86 523.75, 943.70 526.73 C 947.54 529.70, 949.61 531.00, 953.81 533.06 C 958.02 535.12, 960.29 535.89, 964.70 537.04 C 969.12 538.19, 971.48 538.48, 975.90 538.81 C 980.32 539.15, 982.59 539.10, 986.81 538.71 C 991.04 538.33, 993.38 537.73, 997.01 536.88 C 1000.65 536.02, 1002.56 535.75, 1004.98 534.45 C 1007.40 533.14, 1007.99 531.92, 1009.10 530.36 C 1010.22 528.80, 1010.70 528.02, 1010.56 526.67 C 1010.43 525.32, 1009.54 524.28, 1008.43 523.60 C 1007.32 522.93, 1006.61 523.29, 1005.01 523.31 C 1003.40 523.34, 1002.63 523.06, 1000.41 523.73 C 998.20 524.40, 996.92 525.52, 993.94 526.66 C 990.97 527.79, 989.05 528.73, 985.54 529.40 C 982.03 530.07, 980.15 530.14, 976.39 530.02 C 972.64 529.89, 970.53 529.67, 966.76 528.79 C 962.98 527.90, 961.02 527.32, 957.51 525.58 C 954.00 523.83, 952.22 522.74, 949.21 520.06 C 946.20 517.38, 944.63 515.61, 942.47 512.18 C 940.30 508.74, 939.71 506.24, 938.38 502.90 C 937.05 499.56, 937.52 497.48, 935.80 495.49 C 934.07 493.49, 932.08 493.11, 929.76 492.93 C 927.43 492.76, 925.83 493.19, 924.16 494.59 C 922.49 495.99, 922.46 497.32, 921.42 499.95 C 920.38 502.57, 920.62 504.64, 918.97 507.71 C 917.32 510.79, 915.92 512.53, 913.17 515.31 C 910.42 518.10, 908.61 519.58, 905.22 521.64 C 901.83 523.71, 899.81 524.60, 896.24 525.64 C 892.66 526.68, 890.52 526.81, 887.34 526.83 C 884.17 526.84, 882.58 526.37, 880.35 525.72 C 878.11 525.06, 877.33 524.58, 876.17 523.55 C 875.02 522.51, 874.79 522.23, 874.57 520.55 C 874.34 518.88, 874.17 517.67, 875.05 515.16 C 875.94 512.64, 876.76 510.76, 879.01 507.98 C 881.25 505.20, 883.04 503.52, 886.28 501.28 C 889.53 499.03, 891.66 497.99, 895.24 496.77 C 898.82 495.55, 900.88 495.51, 904.19 495.18 C 907.50 494.85, 909.33 496.01, 911.80 495.13 C 914.27 494.24, 915.31 492.81, 916.53 490.75 C 917.75 488.70, 918.21 486.99, 917.90 484.86 C 917.58 482.74, 917.06 481.36, 914.96 480.12 C 912.87 478.88, 911.13 479.10, 907.42 478.68 C 903.71 478.25, 901.32 478.36, 896.41 477.99 C 891.51 477.62, 888.69 477.29, 882.89 476.82 C 877.09 476.35, 873.83 476.06, 867.42 475.65 C 861.00 475.24, 857.48 475.01, 850.82 474.78 C 844.16 474.55, 840.59 474.44, 834.13 474.51 C 827.67 474.59, 824.35 474.67, 818.54 475.16 C 812.73 475.66, 809.88 475.85, 805.08 476.99 C 800.28 478.13, 798.00 478.64, 794.54 480.88 C 791.07 483.12, 789.48 484.79, 787.74 488.19 C 786.00 491.58, 785.94 493.73, 785.84 497.83 C 785.74 501.93, 786.38 504.06, 787.25 508.68 C 788.13 513.30, 789.03 515.93, 790.21 520.92 C 791.38 525.90, 792.05 528.98, 793.12 533.61 C 794.19 538.24, 793.97 541.15, 795.55 544.07 C 797.13 546.99, 798.87 547.78, 801.01 548.22 C 803.15 548.66, 805.05 547.86, 806.26 546.28 C 807.46 544.70, 807.75 543.22, 807.03 540.30 C 806.30 537.38, 804.37 535.77, 802.64 531.69 C 800.91 527.60, 800.15 524.79, 798.38 519.89 C 796.61 514.98, 795.45 511.75, 793.77 507.16 C 792.09 502.58, 791.70 500.04, 790.00 496.98 C 788.29 493.92, 787.17 492.45, 785.25 491.87 C 783.32 491.28, 781.23 492.28, 780.37 494.06" style="stroke: black; fill: black;"/><path d="M 1060.15,505.91 C 1061.07 504.02, 1061.12 502.05, 1059.95 499.45 C 1058.78 496.85, 1057.37 495.13, 1054.31 492.90 C 1051.26 490.66, 1048.86 489.41, 1044.67 488.26 C 1040.49 487.11, 1038.03 486.89, 1033.38 487.13 C 1028.73 487.37, 1026.16 487.86, 1021.40 489.47 C 1016.64 491.07, 1013.89 492.30, 1009.57 495.15 C 1005.25 497.99, 1002.96 499.94, 999.81 503.72 C 996.65 507.49, 995.12 509.74, 993.79 514.01 C 992.46 518.28, 992.12 521.04, 993.17 525.08 C 994.22 529.11, 995.88 531.33, 999.03 534.19 C 1002.18 537.06, 1004.55 538.04, 1008.92 539.41 C 1013.28 540.78, 1015.90 541.12, 1020.85 541.06 C 1025.79 540.99, 1028.68 540.60, 1033.66 539.09 C 1038.65 537.57, 1041.30 536.47, 1045.77 533.49 C 1050.24 530.51, 1052.44 528.59, 1056.01 524.18 C 1059.58 519.77, 1061.19 517.04, 1063.61 511.43 C 1066.03 505.82, 1066.89 502.46, 1068.12 496.12 C 1069.34 489.79, 1069.58 486.16, 1069.73 479.76 C 1069.89 473.36, 1069.61 470.00, 1068.90 464.12 C 1068.19 458.23, 1067.43 455.29, 1066.17 450.33 C 1064.91 445.37, 1064.43 442.84, 1062.60 439.31 C 1060.76 435.78, 1059.69 433.96, 1057.00 432.67 C 1054.30 431.38, 1051.67 431.33, 1049.12 432.85 C 1046.58 434.37, 1044.77 436.31, 1044.28 440.27 C 1043.78 444.24, 1045.24 447.02, 1046.64 452.68 C 1048.04 458.34, 1049.12 461.93, 1051.30 468.57 C 1053.47 475.21, 1054.81 479.13, 1057.52 485.87 C 1060.24 492.61, 1061.86 496.10, 1064.89 502.27 C 1067.91 508.44, 1069.58 511.34, 1072.66 516.74 C 1075.74 522.14, 1077.43 524.68, 1080.29 529.27 C 1083.14 533.86, 1084.64 535.96, 1086.94 539.70 C 1089.24 543.44, 1089.91 545.30, 1091.77 547.99 C 1093.62 550.69, 1094.50 551.81, 1096.22 553.18 C 1097.94 554.55, 1098.95 554.93, 1100.38 554.84 C 1101.81 554.75, 1102.82 554.05, 1103.38 552.73 C 1103.94 551.40, 1103.93 550.30, 1103.18 548.21 C 1102.43 546.12, 1101.63 544.87, 1099.63 542.27 C 1097.63 539.67, 1095.97 538.53, 1093.18 535.21 C 1090.39 531.88, 1088.79 529.93, 1085.68 525.65 C 1082.57 521.36, 1080.81 518.95, 1077.64 513.79 C 1074.48 508.63, 1072.79 505.83, 1069.83 499.84 C 1066.88 493.84, 1065.30 490.43, 1062.86 483.81 C 1060.41 477.19, 1059.23 473.28, 1057.62 466.75 C 1056.01 460.23, 1055.40 456.43, 1054.81 451.18 C 1054.21 445.93, 1054.99 443.35, 1054.65 440.51 C 1054.31 437.68, 1053.70 437.38, 1053.12 437.00 C 1052.54 436.63, 1051.48 437.34, 1051.76 438.65 C 1052.03 439.97, 1053.03 440.80, 1054.51 443.57 C 1056.00 446.34, 1057.59 448.20, 1059.19 452.49 C 1060.79 456.78, 1061.63 459.59, 1062.50 465.02 C 1063.37 470.44, 1063.65 473.65, 1063.55 479.63 C 1063.44 485.61, 1063.16 489.07, 1061.98 494.91 C 1060.80 500.74, 1059.90 503.83, 1057.65 508.79 C 1055.39 513.76, 1053.86 516.06, 1050.69 519.75 C 1047.51 523.43, 1045.60 524.90, 1041.76 527.21 C 1037.93 529.53, 1035.68 530.31, 1031.52 531.32 C 1027.36 532.33, 1024.89 532.45, 1020.96 532.27 C 1017.03 532.10, 1014.97 531.51, 1011.88 530.43 C 1008.78 529.34, 1007.39 528.42, 1005.49 526.85 C 1003.59 525.28, 1003.00 524.59, 1002.39 522.56 C 1001.78 520.52, 1001.63 519.35, 1002.44 516.67 C 1003.24 513.99, 1004.07 512.07, 1006.42 509.17 C 1008.77 506.27, 1010.67 504.47, 1014.19 502.18 C 1017.70 499.88, 1020.16 498.82, 1024.01 497.70 C 1027.86 496.59, 1030.06 496.39, 1033.44 496.58 C 1036.81 496.78, 1038.32 497.38, 1040.90 498.68 C 1043.47 499.97, 1044.40 501.41, 1046.31 503.07 C 1048.21 504.74, 1048.61 505.83, 1050.42 506.99 C 1052.22 508.15, 1053.40 509.08, 1055.34 508.87 C 1057.29 508.65, 1059.23 507.79, 1060.15 505.91" style="stroke: black; fill: black;"/></svg>