<svg xmlns="http://www.w3.org/2000/svg" id="canvas" viewBox="454.790 401.974 402.589 177.836"><path d="M 515.02,430.30 C 514.00 431.20, 513.54 432.10, 513.01 434.91 C 512.48 437.71, 512.95 439.61, 512.37 444.34 C 511.78 449.07, 511.45 452.24, 510.08 458.58 C 508.72 464.92, 507.73 468.72, 505.54 476.05 C 503.35 483.37, 501.90 487.50, 499.13 495.21 C 496.36 502.93, 494.67 507.09, 491.70 514.61 C 488.73 522.12, 487.12 526.12, 484.29 532.77 C 481.46 539.43, 480.03 542.73, 477.57 547.89 C 475.11 553.05, 473.79 555.29, 471.98 558.56 C 470.18 561.83, 469.31 562.60, 468.55 564.22 C 467.79 565.84, 468.25 566.18, 468.19 566.68 C 468.13 567.18, 468.36 566.51, 468.25 566.70 C 468.14 566.89, 467.46 567.23, 467.67 567.61 C 467.87 568.00, 468.27 568.74, 469.29 568.63 C 470.30 568.53, 471.31 568.65, 472.74 567.09 C 474.17 565.53, 474.76 564.36, 476.43 560.83 C 478.09 557.29, 478.88 554.79, 481.05 549.43 C 483.22 544.06, 484.59 540.75, 487.29 534.01 C 489.98 527.27, 491.57 523.26, 494.52 515.72 C 497.48 508.17, 499.18 504.00, 502.04 496.28 C 504.91 488.55, 506.41 484.42, 508.85 477.09 C 511.29 469.76, 512.45 465.97, 514.24 459.62 C 516.04 453.26, 516.73 450.11, 517.84 445.31 C 518.95 440.51, 519.73 438.58, 519.79 435.60 C 519.85 432.62, 519.10 431.48, 518.15 430.42 C 517.19 429.36, 516.05 429.40, 515.02 430.30" style="stroke: black; fill: black;"/><path d="M 496.94,435.43 C 498.26 435.10, 498.93 434.11, 500.40 432.40 C 501.87 430.69, 502.16 429.29, 504.30 426.87 C 506.44 424.45, 507.69 422.69, 511.09 420.30 C 514.50 417.91, 516.78 416.75, 521.32 414.92 C 525.86 413.08, 528.67 412.18, 533.79 411.12 C 538.90 410.06, 541.85 409.68, 546.89 409.61 C 551.94 409.55, 554.71 409.82, 559.02 410.80 C 563.33 411.78, 565.51 412.72, 568.44 414.52 C 571.37 416.32, 572.46 417.42, 573.69 419.80 C 574.91 422.18, 575.27 423.26, 574.58 426.43 C 573.88 429.60, 573.09 431.62, 570.23 435.66 C 567.37 439.69, 565.03 442.23, 560.29 446.61 C 555.54 450.99, 552.14 453.54, 546.50 457.55 C 540.85 461.56, 537.26 463.60, 532.07 466.66 C 526.87 469.73, 523.81 470.65, 520.52 472.87 C 517.24 475.09, 516.04 476.00, 515.64 477.75 C 515.24 479.50, 516.18 480.85, 518.51 481.62 C 520.84 482.39, 522.91 481.79, 527.27 481.59 C 531.64 481.40, 534.74 480.73, 540.32 480.64 C 545.90 480.55, 549.45 480.44, 555.18 481.15 C 560.91 481.86, 564.18 482.50, 568.98 484.20 C 573.78 485.89, 576.11 487.10, 579.18 489.61 C 582.26 492.12, 583.30 493.51, 584.33 496.74 C 585.36 499.98, 585.49 501.66, 584.33 505.77 C 583.16 509.88, 582.01 512.41, 578.51 517.29 C 575.00 522.17, 572.48 525.02, 566.79 530.19 C 561.10 535.36, 557.35 538.20, 550.07 543.13 C 542.79 548.06, 538.39 550.63, 530.38 554.86 C 522.38 559.08, 517.84 561.15, 510.04 564.25 C 502.24 567.35, 498.11 568.68, 491.37 570.36 C 484.64 572.03, 481.28 572.46, 476.36 572.63 C 471.43 572.81, 469.37 572.14, 466.75 571.23 C 464.14 570.33, 463.77 569.83, 463.28 568.10 C 462.78 566.37, 462.83 565.48, 464.27 562.56 C 465.71 559.65, 466.83 557.43, 470.49 553.53 C 474.15 549.64, 476.75 547.24, 482.58 543.08 C 488.40 538.92, 492.17 536.69, 499.63 532.72 C 507.08 528.75, 511.51 526.76, 519.85 523.23 C 528.18 519.69, 532.79 517.99, 541.32 515.04 C 549.85 512.09, 554.37 510.74, 562.50 508.47 C 570.64 506.19, 574.75 505.20, 581.99 503.67 C 589.22 502.15, 592.75 501.56, 598.68 500.84 C 604.60 500.13, 607.36 499.99, 611.62 500.11 C 615.88 500.22, 617.55 500.83, 619.98 501.41 C 622.41 501.98, 623.01 502.02, 623.76 502.98 C 624.50 503.94, 624.07 504.37, 623.68 506.22 C 623.30 508.07, 622.89 509.30, 621.84 512.22 C 620.78 515.14, 620.07 517.20, 618.40 520.82 C 616.73 524.43, 615.54 526.66, 613.49 530.29 C 611.43 533.92, 610.01 535.89, 608.13 538.97 C 606.26 542.05, 604.84 543.41, 604.11 545.70 C 603.39 547.98, 603.70 549.23, 604.53 550.39 C 605.35 551.56, 606.50 551.99, 608.25 551.52 C 610.00 551.04, 611.47 550.35, 613.29 548.03 C 615.11 545.71, 615.49 543.45, 617.36 539.93 C 619.23 536.40, 620.37 534.11, 622.63 530.40 C 624.88 526.69, 626.28 524.58, 628.64 521.37 C 630.99 518.16, 632.38 516.67, 634.39 514.36 C 636.40 512.06, 637.28 511.11, 638.69 509.85 C 640.10 508.59, 640.34 508.21, 641.43 508.05 C 642.52 507.89, 642.76 508.33, 644.16 509.05 C 645.56 509.77, 646.25 510.63, 648.43 511.67 C 650.61 512.70, 651.99 513.43, 655.07 514.23 C 658.14 515.04, 660.03 515.34, 663.82 515.69 C 667.61 516.04, 669.73 516.16, 674.03 515.99 C 678.32 515.81, 680.70 515.57, 685.31 514.80 C 689.92 514.02, 692.45 513.43, 697.08 512.11 C 701.70 510.79, 704.16 509.95, 708.44 508.22 C 712.73 506.49, 714.90 505.42, 718.51 503.45 C 722.11 501.49, 724.08 500.65, 726.47 498.39 C 728.86 496.13, 729.78 494.63, 730.44 492.16 C 731.10 489.69, 730.95 488.11, 729.78 486.06 C 728.61 484.01, 727.29 482.67, 724.59 481.93 C 721.89 481.20, 719.87 481.35, 716.26 482.39 C 712.64 483.43, 710.59 484.71, 706.52 487.14 C 702.45 489.57, 700.06 491.17, 695.90 494.53 C 691.73 497.89, 689.36 499.98, 685.70 503.95 C 682.03 507.91, 680.13 510.18, 677.56 514.37 C 674.98 518.57, 673.76 520.80, 672.82 524.92 C 671.87 529.04, 671.71 531.35, 672.83 534.96 C 673.96 538.57, 675.31 540.49, 678.43 542.98 C 681.55 545.47, 683.77 546.34, 688.42 547.41 C 693.06 548.47, 695.87 548.57, 701.66 548.31 C 707.45 548.05, 710.79 547.54, 717.35 546.10 C 723.92 544.66, 727.55 543.53, 734.47 541.12 C 741.38 538.70, 745.15 537.14, 751.91 534.03 C 758.67 530.92, 762.20 529.04, 768.27 525.57 C 774.33 522.09, 777.33 520.10, 782.23 516.64 C 787.13 513.19, 789.43 511.46, 792.75 508.31 C 796.08 505.15, 797.73 503.74, 798.87 500.86 C 800.00 497.97, 799.66 496.13, 798.42 493.89 C 797.17 491.65, 795.61 490.21, 792.63 489.64 C 789.65 489.06, 787.40 489.62, 783.52 491.02 C 779.63 492.43, 777.31 493.86, 773.21 496.67 C 769.10 499.47, 766.76 501.35, 763.00 505.03 C 759.24 508.70, 757.12 510.87, 754.42 515.05 C 751.72 519.23, 750.27 521.62, 749.50 525.93 C 748.73 530.25, 748.81 532.84, 750.59 536.61 C 752.36 540.38, 754.19 542.19, 758.36 544.79 C 762.53 547.40, 765.39 548.28, 771.44 549.62 C 777.48 550.97, 781.25 551.23, 788.58 551.52 C 795.90 551.81, 800.21 551.55, 808.08 551.07 C 815.94 550.59, 820.80 549.92, 827.91 549.12 C 835.02 548.32, 838.59 547.90, 843.63 547.07 C 848.68 546.23, 851.34 545.91, 853.16 544.97 C 854.97 544.03, 854.72 542.64, 852.71 542.35 C 850.70 542.06, 848.16 542.87, 843.11 543.52 C 838.07 544.16, 834.55 544.76, 827.51 545.59 C 820.46 546.42, 815.62 547.21, 807.87 547.66 C 800.12 548.12, 795.85 548.29, 788.76 547.86 C 781.67 547.42, 777.98 546.93, 772.42 545.50 C 766.86 544.07, 764.38 542.93, 760.95 540.71 C 757.53 538.50, 756.56 537.18, 755.30 534.42 C 754.05 531.66, 753.98 530.23, 754.66 526.92 C 755.35 523.61, 756.34 521.48, 758.73 517.87 C 761.12 514.25, 763.09 512.08, 766.62 508.85 C 770.15 505.61, 772.54 503.92, 776.39 501.69 C 780.23 499.46, 782.67 498.78, 785.86 497.71 C 789.05 496.64, 790.52 496.69, 792.33 496.33 C 794.13 495.97, 794.60 495.50, 794.89 495.92 C 795.17 496.34, 794.86 496.61, 793.75 498.42 C 792.65 500.24, 792.14 501.96, 789.38 504.98 C 786.62 508.00, 784.51 510.02, 779.94 513.54 C 775.37 517.06, 772.41 519.09, 766.53 522.58 C 760.64 526.07, 757.15 527.94, 750.51 530.98 C 743.87 534.02, 740.12 535.54, 733.33 537.79 C 726.55 540.05, 722.93 541.07, 716.57 542.27 C 710.22 543.46, 706.93 543.75, 701.55 543.75 C 696.18 543.74, 693.60 543.31, 689.71 542.24 C 685.81 541.18, 684.33 540.23, 682.07 538.43 C 679.80 536.62, 679.17 535.68, 678.38 533.21 C 677.59 530.74, 677.41 529.34, 678.10 526.09 C 678.79 522.84, 679.61 520.72, 681.84 516.96 C 684.07 513.19, 685.82 510.94, 689.26 507.28 C 692.71 503.62, 695.05 501.60, 699.08 498.66 C 703.10 495.73, 705.56 494.34, 709.40 492.59 C 713.24 490.84, 715.41 490.63, 718.29 489.92 C 721.17 489.21, 722.27 489.30, 723.80 489.04 C 725.33 488.78, 725.64 488.44, 725.92 488.60 C 726.20 488.75, 726.04 488.90, 725.19 489.82 C 724.34 490.73, 723.62 491.45, 721.68 493.16 C 719.74 494.88, 718.54 496.36, 715.47 498.38 C 712.41 500.39, 710.33 501.53, 706.36 503.25 C 702.39 504.98, 700.02 505.80, 695.65 507.01 C 691.27 508.23, 688.81 508.75, 684.48 509.32 C 680.15 509.89, 677.90 509.99, 673.98 509.87 C 670.07 509.75, 668.18 509.45, 664.90 508.71 C 661.62 507.97, 660.26 507.17, 657.60 506.17 C 654.95 505.17, 653.96 504.49, 651.64 503.71 C 649.32 502.93, 648.26 502.55, 646.00 502.28 C 643.74 502.01, 642.61 501.88, 640.35 502.35 C 638.09 502.83, 636.92 503.13, 634.70 504.65 C 632.47 506.17, 631.46 507.33, 629.24 509.96 C 627.03 512.59, 626.02 514.40, 623.64 517.79 C 621.26 521.18, 619.90 523.32, 617.34 526.91 C 614.78 530.51, 613.26 532.57, 610.83 535.76 C 608.41 538.94, 606.56 540.25, 605.23 542.83 C 603.89 545.41, 603.92 546.98, 604.17 548.64 C 604.42 550.30, 605.24 551.03, 606.47 551.13 C 607.70 551.23, 608.80 550.90, 610.32 549.15 C 611.84 547.41, 612.33 545.56, 614.07 542.40 C 615.80 539.25, 616.93 537.10, 619.00 533.38 C 621.06 529.65, 622.43 527.53, 624.40 523.80 C 626.38 520.07, 627.67 518.20, 628.88 514.72 C 630.09 511.25, 630.70 509.42, 630.46 506.42 C 630.22 503.42, 629.51 501.83, 627.69 499.71 C 625.87 497.59, 624.58 496.62, 621.35 495.81 C 618.11 495.00, 616.16 495.36, 611.52 495.67 C 606.89 495.97, 604.21 496.32, 598.17 497.33 C 592.13 498.34, 588.62 499.02, 581.33 500.72 C 574.05 502.41, 569.93 503.45, 561.75 505.81 C 553.57 508.17, 549.04 509.54, 540.44 512.51 C 531.85 515.48, 527.22 517.17, 518.77 520.66 C 510.32 524.16, 505.86 526.11, 498.20 529.98 C 490.55 533.85, 486.69 535.97, 480.49 540.03 C 474.29 544.09, 471.45 546.23, 467.21 550.28 C 462.98 554.32, 461.08 556.36, 459.34 560.25 C 457.59 564.14, 457.34 566.63, 458.50 569.73 C 459.65 572.83, 461.50 574.40, 465.12 575.75 C 468.74 577.10, 471.18 576.94, 476.60 576.47 C 482.01 576.01, 485.28 575.34, 492.18 573.42 C 499.08 571.50, 503.20 570.10, 511.10 566.88 C 519.00 563.66, 523.55 561.57, 531.67 557.31 C 539.79 553.05, 544.23 550.50, 551.70 545.58 C 559.17 540.66, 563.02 537.89, 569.02 532.71 C 575.01 527.52, 577.75 524.78, 581.68 519.64 C 585.61 514.51, 587.22 511.89, 588.66 507.03 C 590.09 502.16, 590.17 499.52, 588.86 495.32 C 587.56 491.12, 585.81 489.10, 582.13 486.04 C 578.45 482.98, 575.72 481.90, 570.46 480.02 C 565.19 478.15, 561.83 477.62, 555.82 476.67 C 549.81 475.71, 546.19 475.53, 540.41 475.24 C 534.64 474.95, 531.33 474.96, 526.94 475.23 C 522.55 475.49, 520.38 475.78, 518.47 476.57 C 516.57 477.37, 516.46 479.08, 517.40 479.22 C 518.34 479.35, 519.80 479.06, 523.17 477.26 C 526.54 475.46, 529.14 473.51, 534.25 470.20 C 539.37 466.89, 542.99 464.82, 548.75 460.71 C 554.51 456.61, 558.00 454.14, 563.06 449.68 C 568.11 445.23, 570.68 442.86, 574.02 438.43 C 577.35 434.01, 578.81 431.78, 579.73 427.56 C 580.66 423.34, 580.35 420.85, 578.64 417.33 C 576.93 413.82, 574.91 412.25, 571.20 410.00 C 567.48 407.74, 564.92 407.05, 560.05 406.05 C 555.17 405.05, 552.25 404.90, 546.82 405.00 C 541.39 405.10, 538.34 405.51, 532.88 406.55 C 527.42 407.58, 524.54 408.43, 519.54 410.15 C 514.54 411.88, 512.00 412.86, 507.89 415.18 C 503.78 417.50, 501.75 419.07, 498.98 421.75 C 496.21 424.43, 495.06 426.11, 494.02 428.58 C 492.99 431.04, 493.22 432.71, 493.81 434.08 C 494.39 435.45, 495.63 435.77, 496.94 435.43" style="stroke: black; fill: black;"/></svg>