<svg xmlns="http://www.w3.org/2000/svg" id="canvas" viewBox="411.687 392.267 674.088 277.290"><path d="M 510.16,402.20 C 509.94 400.27, 509.07 399.13, 507.20 397.77 C 505.33 396.41, 503.79 395.70, 500.80 395.39 C 497.81 395.08, 495.76 395.36, 492.25 396.21 C 488.74 397.06, 486.98 397.99, 483.25 399.62 C 479.53 401.25, 477.57 402.18, 473.63 404.36 C 469.69 406.53, 467.59 407.76, 463.55 410.51 C 459.51 413.25, 457.41 414.84, 453.43 418.10 C 449.45 421.36, 447.40 423.15, 443.65 426.79 C 439.89 430.43, 438.01 432.32, 434.66 436.28 C 431.31 440.24, 429.69 442.37, 426.90 446.59 C 424.12 450.80, 422.77 452.98, 420.72 457.36 C 418.66 461.74, 417.80 463.99, 416.61 468.49 C 415.42 472.99, 414.95 475.34, 414.76 479.85 C 414.57 484.37, 414.71 486.71, 415.65 491.07 C 416.58 495.43, 417.42 497.63, 419.44 501.66 C 421.46 505.69, 422.75 507.64, 425.75 511.22 C 428.75 514.80, 430.56 516.49, 434.43 519.55 C 438.31 522.61, 440.54 524.02, 445.14 526.52 C 449.75 529.01, 452.27 530.09, 457.45 532.01 C 462.63 533.94, 465.44 534.77, 471.03 536.15 C 476.63 537.53, 479.62 538.04, 485.42 538.90 C 491.21 539.77, 494.20 540.03, 500.03 540.45 C 505.86 540.88, 509.30 540.98, 514.57 541.01 C 519.84 541.04, 522.52 541.19, 526.37 540.60 C 530.21 540.02, 532.41 539.48, 533.79 538.11 C 535.18 536.73, 534.88 534.76, 533.28 533.74 C 531.68 532.71, 529.56 533.00, 525.80 532.99 C 522.04 532.97, 519.56 533.51, 514.48 533.67 C 509.40 533.83, 506.04 534.04, 500.42 533.79 C 494.80 533.55, 491.93 533.27, 486.38 532.44 C 480.84 531.60, 477.99 531.01, 472.71 529.61 C 467.44 528.20, 464.79 527.33, 460.01 525.40 C 455.24 523.47, 452.94 522.36, 448.84 519.95 C 444.74 517.54, 442.81 516.16, 439.50 513.34 C 436.18 510.53, 434.73 509.00, 432.27 505.90 C 429.81 502.79, 428.82 501.15, 427.19 497.81 C 425.56 494.48, 424.91 492.75, 424.11 489.21 C 423.31 485.67, 423.13 483.87, 423.20 480.12 C 423.27 476.37, 423.56 474.37, 424.48 470.46 C 425.39 466.56, 426.04 464.54, 427.78 460.58 C 429.52 456.63, 430.69 454.59, 433.19 450.68 C 435.69 446.77, 437.17 444.74, 440.29 441.03 C 443.41 437.33, 445.19 435.54, 448.78 432.17 C 452.37 428.79, 454.37 427.09, 458.22 424.17 C 462.07 421.24, 464.13 419.83, 468.02 417.54 C 471.91 415.25, 473.96 414.25, 477.68 412.70 C 481.41 411.16, 483.39 410.51, 486.65 409.80 C 489.92 409.10, 491.39 409.16, 494.01 409.17 C 496.64 409.19, 497.71 409.82, 499.77 409.86 C 501.84 409.91, 502.66 409.88, 504.36 409.40 C 506.06 408.91, 507.14 408.87, 508.30 407.43 C 509.46 405.99, 510.38 404.13, 510.16 402.20" style="stroke: black; fill: black;"/><path d="M 618.67,475.04 C 619.67 473.23, 619.46 471.56, 618.69 469.31 C 617.92 467.07, 616.98 465.83, 614.82 463.82 C 612.66 461.82, 610.96 460.59, 607.90 459.29 C 604.83 457.98, 602.98 457.65, 599.49 457.30 C 596.00 456.95, 594.19 457.14, 590.46 457.53 C 586.73 457.92, 584.73 458.23, 580.85 459.24 C 576.97 460.25, 574.95 460.92, 571.07 462.58 C 567.19 464.24, 565.17 465.26, 561.45 467.53 C 557.73 469.80, 555.83 471.07, 552.47 473.92 C 549.10 476.77, 547.43 478.40, 544.64 481.79 C 541.84 485.17, 540.50 487.03, 538.49 490.83 C 536.48 494.63, 535.60 496.70, 534.58 500.78 C 533.57 504.87, 533.24 507.11, 533.43 511.25 C 533.61 515.40, 534.04 517.65, 535.49 521.51 C 536.94 525.37, 538.10 527.31, 540.67 530.55 C 543.25 533.80, 544.91 535.32, 548.38 537.73 C 551.84 540.15, 553.96 541.18, 558.01 542.64 C 562.05 544.11, 564.30 544.56, 568.60 545.05 C 572.89 545.54, 575.17 545.53, 579.47 545.08 C 583.76 544.63, 586.00 544.14, 590.06 542.80 C 594.11 541.47, 596.11 540.52, 599.74 538.40 C 603.36 536.28, 605.10 534.99, 608.19 532.20 C 611.27 529.42, 612.72 527.78, 615.15 524.46 C 617.58 521.15, 618.61 519.31, 620.35 515.65 C 622.09 511.99, 622.75 510.01, 623.85 506.17 C 624.95 502.34, 625.30 500.31, 625.83 496.49 C 626.36 492.67, 626.30 490.71, 626.50 487.07 C 626.70 483.44, 627.11 481.57, 626.84 478.32 C 626.56 475.08, 626.62 472.91, 625.13 470.86 C 623.64 468.80, 621.72 468.08, 619.38 468.04 C 617.05 467.99, 615.12 468.72, 613.44 470.61 C 611.77 472.50, 610.91 474.32, 611.01 477.48 C 611.11 480.65, 612.66 482.64, 613.92 486.46 C 615.18 490.28, 615.96 492.48, 617.32 496.58 C 618.67 500.69, 619.27 502.84, 620.69 506.98 C 622.11 511.13, 622.78 513.28, 624.42 517.31 C 626.05 521.34, 626.92 523.45, 628.86 527.15 C 630.80 530.86, 631.79 532.68, 634.11 535.84 C 636.43 538.99, 637.64 540.56, 640.46 542.94 C 643.28 545.31, 644.94 546.48, 648.21 547.71 C 651.47 548.94, 653.66 549.18, 656.80 549.09 C 659.95 549.00, 661.69 548.38, 663.94 547.26 C 666.19 546.15, 667.10 545.08, 668.07 543.50 C 669.04 541.91, 669.29 540.74, 668.79 539.35 C 668.30 537.95, 666.79 537.11, 665.59 536.51 C 664.39 535.90, 663.90 536.38, 662.81 536.30 C 661.73 536.22, 661.45 536.02, 660.17 536.10 C 658.89 536.17, 658.04 536.61, 656.41 536.68 C 654.77 536.74, 653.83 536.90, 651.99 536.42 C 650.14 535.93, 649.18 535.62, 647.17 534.26 C 645.16 532.90, 643.97 531.94, 641.93 529.62 C 639.90 527.29, 638.84 525.79, 636.98 522.65 C 635.13 519.51, 634.20 517.59, 632.66 513.91 C 631.12 510.23, 630.42 508.19, 629.26 504.25 C 628.10 500.31, 627.54 498.20, 626.85 494.19 C 626.17 490.18, 626.03 487.90, 625.86 484.19 C 625.69 480.47, 626.63 478.36, 626.00 475.64 C 625.37 472.92, 624.39 471.76, 622.71 470.59 C 621.02 469.41, 619.37 469.22, 617.58 469.75 C 615.79 470.28, 614.41 471.26, 613.77 473.25 C 613.13 475.24, 613.99 476.92, 614.38 479.70 C 614.77 482.48, 615.48 484.04, 615.73 487.16 C 615.99 490.29, 615.96 492.04, 615.67 495.31 C 615.38 498.59, 615.11 500.32, 614.27 503.56 C 613.43 506.79, 612.87 508.46, 611.48 511.51 C 610.09 514.55, 609.27 516.05, 607.32 518.78 C 605.37 521.51, 604.21 522.85, 601.73 525.14 C 599.25 527.43, 597.85 528.50, 594.93 530.25 C 592.00 531.99, 590.38 532.78, 587.10 533.87 C 583.81 534.97, 581.98 535.38, 578.51 535.73 C 575.03 536.08, 573.15 536.05, 569.72 535.62 C 566.29 535.18, 564.49 534.75, 561.36 533.56 C 558.23 532.37, 556.64 531.51, 554.07 529.67 C 551.50 527.83, 550.36 526.69, 548.51 524.35 C 546.66 522.00, 545.89 520.67, 544.83 517.95 C 543.77 515.23, 543.42 513.73, 543.22 510.74 C 543.03 507.75, 543.16 506.11, 543.86 502.99 C 544.56 499.86, 545.16 498.19, 546.72 495.10 C 548.28 492.02, 549.36 490.41, 551.68 487.57 C 554.00 484.73, 555.42 483.30, 558.32 480.90 C 561.22 478.50, 562.91 477.41, 566.18 475.57 C 569.44 473.74, 571.27 472.92, 574.65 471.73 C 578.03 470.54, 579.81 470.15, 583.07 469.64 C 586.34 469.12, 588.08 469.04, 590.96 469.14 C 593.85 469.24, 595.28 469.60, 597.50 470.14 C 599.72 470.67, 600.43 470.92, 602.05 471.81 C 603.67 472.69, 604.22 473.53, 605.62 474.57 C 607.01 475.61, 607.42 476.25, 609.03 477.00 C 610.65 477.75, 611.76 478.72, 613.69 478.32 C 615.62 477.93, 617.67 476.84, 618.67 475.04" style="stroke: black; fill: black;"/><path d="M 675.06,473.24 C 673.46 474.08, 673.16 474.94, 672.34 476.82 C 671.53 478.69, 670.87 479.88, 670.97 482.62 C 671.08 485.35, 672.15 487.14, 672.86 490.48 C 673.57 493.82, 673.94 495.67, 674.50 499.33 C 675.06 502.98, 675.26 504.91, 675.68 508.73 C 676.10 512.56, 676.24 514.64, 676.60 518.46 C 676.96 522.29, 677.21 524.28, 677.47 527.87 C 677.73 531.46, 677.29 533.41, 677.91 536.42 C 678.53 539.43, 679.30 541.02, 680.55 542.91 C 681.80 544.79, 682.70 545.41, 684.16 545.84 C 685.63 546.26, 686.71 546.02, 687.87 545.04 C 689.03 544.05, 689.56 543.06, 689.96 540.92 C 690.36 538.78, 690.29 537.22, 689.88 534.33 C 689.46 531.44, 688.56 529.86, 687.89 526.48 C 687.22 523.10, 686.97 521.13, 686.53 517.41 C 686.09 513.69, 685.92 511.67, 685.69 507.88 C 685.46 504.09, 685.39 502.18, 685.38 498.48 C 685.38 494.79, 685.52 492.83, 685.66 489.41 C 685.80 485.98, 686.42 484.06, 686.06 481.34 C 685.71 478.61, 685.01 477.51, 683.86 475.77 C 682.71 474.02, 682.09 473.11, 680.33 472.60 C 678.57 472.10, 676.65 472.40, 675.06 473.24" style="stroke: black; fill: black;"/><path d="M 670.07,415.81 C 670.94 416.80, 671.47 416.47, 670.96 415.26 C 670.45 414.04, 668.38 410.72, 667.52 409.72 C 666.65 408.73, 666.12 409.06, 666.63 410.27 C 667.14 411.49, 669.21 414.81, 670.07 415.81" style="stroke: black; fill: black;"/><path d="M 730.59,397.21 C 728.93 398.37, 728.20 399.97, 727.81 402.60 C 727.41 405.23, 728.15 406.77, 728.62 410.37 C 729.08 413.98, 729.55 416.29, 730.11 420.62 C 730.67 424.94, 730.96 427.17, 731.42 432.00 C 731.88 436.83, 732.01 439.44, 732.42 444.78 C 732.83 450.13, 733.02 453.07, 733.46 458.74 C 733.91 464.41, 734.13 467.38, 734.65 473.12 C 735.16 478.85, 735.43 481.78, 736.04 487.43 C 736.65 493.08, 737.02 495.98, 737.70 501.35 C 738.37 506.72, 738.73 509.36, 739.42 514.27 C 740.10 519.18, 740.52 521.60, 741.12 525.91 C 741.72 530.22, 741.88 532.32, 742.41 535.81 C 742.94 539.30, 742.86 541.19, 743.77 543.36 C 744.67 545.53, 745.85 545.78, 746.92 546.65 C 747.98 547.52, 748.21 547.56, 749.10 547.71 C 750.00 547.85, 750.59 547.85, 751.40 547.37 C 752.21 546.90, 752.54 546.65, 753.14 545.32 C 753.74 544.00, 754.61 543.09, 754.39 540.73 C 754.18 538.38, 753.11 536.85, 752.06 533.56 C 751.01 530.27, 750.21 528.40, 749.12 524.30 C 748.03 520.20, 747.54 517.84, 746.60 513.07 C 745.66 508.29, 745.23 505.69, 744.43 500.41 C 743.62 495.14, 743.21 492.27, 742.57 486.70 C 741.92 481.13, 741.66 478.24, 741.20 472.56 C 740.74 466.87, 740.58 463.91, 740.27 458.28 C 739.96 452.65, 739.81 449.73, 739.65 444.40 C 739.50 439.07, 739.49 436.47, 739.49 431.62 C 739.50 426.76, 739.57 424.50, 739.67 420.11 C 739.76 415.72, 739.99 413.33, 739.98 409.65 C 739.98 405.98, 740.44 404.31, 739.67 401.75 C 738.90 399.18, 737.95 397.72, 736.14 396.81 C 734.32 395.90, 732.26 396.05, 730.59 397.21" style="stroke: black; fill: black;"/><path d="M 709.22,482.28 C 710.50 483.79, 711.94 484.29, 714.49 484.51 C 717.04 484.74, 718.56 484.02, 721.99 483.39 C 725.42 482.76, 727.60 482.08, 731.64 481.36 C 735.68 480.64, 737.87 480.35, 742.19 479.79 C 746.50 479.23, 749.17 479.10, 753.22 478.56 C 757.27 478.02, 759.52 478.16, 762.45 477.08 C 765.39 476.01, 766.99 474.83, 767.89 473.17 C 768.79 471.51, 768.41 469.94, 766.97 468.77 C 765.52 467.61, 763.68 467.30, 760.65 467.33 C 757.62 467.35, 755.72 468.27, 751.81 468.90 C 747.90 469.52, 745.36 470.01, 741.09 470.45 C 736.82 470.90, 734.60 470.90, 730.46 471.12 C 726.32 471.35, 724.01 471.26, 720.41 471.57 C 716.82 471.87, 714.94 471.59, 712.48 472.66 C 710.02 473.74, 708.75 475.01, 708.10 476.93 C 707.45 478.86, 707.94 480.76, 709.22 482.28" style="stroke: black; fill: black;"/><path d="M 794.86,415.24 C 793.39 416.19, 793.21 416.95, 792.56 418.78 C 791.91 420.60, 791.34 421.63, 791.63 424.37 C 791.91 427.10, 793.14 428.80, 793.97 432.45 C 794.81 436.11, 795.15 438.24, 795.79 442.65 C 796.43 447.06, 796.64 449.51, 797.17 454.51 C 797.71 459.51, 797.90 462.27, 798.46 467.66 C 799.02 473.05, 799.31 475.91, 799.96 481.45 C 800.62 486.98, 800.96 489.88, 801.73 495.33 C 802.51 500.78, 802.93 503.54, 803.85 508.70 C 804.77 513.86, 805.30 516.42, 806.31 521.15 C 807.33 525.87, 807.88 528.14, 808.93 532.31 C 809.97 536.49, 810.39 538.59, 811.53 542.01 C 812.68 545.43, 813.26 547.30, 814.67 549.42 C 816.09 551.54, 817.19 551.78, 818.61 552.59 C 820.03 553.40, 820.64 553.65, 821.78 553.47 C 822.93 553.29, 823.71 552.61, 824.33 551.69 C 824.95 550.76, 824.84 550.33, 824.89 548.84 C 824.94 547.35, 825.40 546.39, 824.58 544.24 C 823.76 542.09, 822.33 540.97, 820.81 538.08 C 819.28 535.19, 818.39 533.55, 816.95 529.80 C 815.52 526.06, 814.87 523.84, 813.63 519.35 C 812.40 514.87, 811.80 512.38, 810.77 507.38 C 809.75 502.38, 809.29 499.69, 808.50 494.35 C 807.71 489.01, 807.39 486.14, 806.82 480.68 C 806.25 475.22, 806.01 472.39, 805.66 467.05 C 805.31 461.71, 805.21 458.97, 805.07 453.97 C 804.92 448.98, 804.88 446.54, 804.95 442.06 C 805.01 437.58, 805.15 435.41, 805.39 431.56 C 805.64 427.70, 806.49 425.73, 806.16 422.80 C 805.83 419.87, 805.00 418.65, 803.76 416.90 C 802.51 415.15, 801.70 414.36, 799.92 414.03 C 798.14 413.70, 796.34 414.29, 794.86 415.24" style="stroke: black; fill: black;"/><path d="M 853.21,475.42 C 851.51 476.07, 850.90 476.92, 849.99 478.78 C 849.07 480.63, 848.55 481.96, 848.64 484.69 C 848.73 487.42, 849.48 489.15, 850.43 492.42 C 851.38 495.69, 852.16 497.51, 853.38 501.04 C 854.60 504.58, 855.18 506.44, 856.52 510.11 C 857.86 513.77, 858.55 515.74, 860.07 519.38 C 861.59 523.02, 862.40 524.87, 864.11 528.30 C 865.83 531.74, 866.77 533.43, 868.64 536.57 C 870.51 539.71, 871.42 541.33, 873.46 543.99 C 875.51 546.65, 876.58 547.92, 878.87 549.87 C 881.17 551.82, 882.42 552.60, 884.94 553.75 C 887.45 554.90, 888.82 555.36, 891.46 555.62 C 894.11 555.88, 895.59 555.78, 898.16 555.06 C 900.72 554.35, 902.08 553.66, 904.30 552.05 C 906.52 550.43, 907.51 549.32, 909.26 546.98 C 911.01 544.64, 911.85 543.26, 913.04 540.36 C 914.23 537.45, 914.39 535.69, 915.19 532.46 C 916.00 529.22, 916.35 527.51, 917.05 524.18 C 917.75 520.86, 918.07 519.13, 918.70 515.83 C 919.33 512.54, 919.62 510.84, 920.19 507.71 C 920.76 504.58, 921.15 502.99, 921.55 500.19 C 921.96 497.40, 922.42 495.97, 922.20 493.74 C 921.97 491.51, 921.79 490.20, 920.43 489.04 C 919.07 487.87, 917.25 487.54, 915.39 487.92 C 913.52 488.30, 912.01 489.02, 911.13 490.93 C 910.24 492.84, 910.40 494.27, 910.97 497.46 C 911.53 500.65, 912.86 502.71, 913.96 506.88 C 915.05 511.05, 915.47 513.45, 916.44 518.30 C 917.41 523.14, 917.85 525.78, 918.80 531.10 C 919.76 536.43, 920.24 539.25, 921.21 544.91 C 922.18 550.58, 922.73 553.57, 923.65 559.42 C 924.57 565.28, 925.03 568.28, 925.80 574.20 C 926.58 580.12, 926.96 583.18, 927.52 589.02 C 928.08 594.85, 928.37 597.80, 928.61 603.36 C 928.85 608.92, 928.86 611.71, 928.71 616.80 C 928.57 621.89, 928.41 624.38, 927.87 628.82 C 927.32 633.27, 926.93 635.40, 925.98 639.02 C 925.03 642.65, 924.26 644.29, 923.13 646.94 C 922.00 649.58, 921.28 650.55, 920.32 652.25 C 919.35 653.96, 918.97 654.62, 918.32 655.46 C 917.67 656.30, 917.44 656.35, 917.06 656.45 C 916.68 656.55, 916.70 656.40, 916.42 655.96 C 916.15 655.52, 916.13 655.25, 915.69 654.26 C 915.25 653.27, 914.95 652.64, 914.21 651.01 C 913.48 649.39, 912.96 648.43, 912.02 646.13 C 911.08 643.82, 910.28 642.50, 909.52 639.50 C 908.76 636.50, 908.49 634.73, 908.23 631.12 C 907.97 627.50, 907.97 625.50, 908.22 621.42 C 908.47 617.34, 908.72 615.16, 909.49 610.73 C 910.26 606.30, 910.82 603.96, 912.08 599.25 C 913.33 594.55, 914.08 592.08, 915.76 587.20 C 917.44 582.32, 918.42 579.78, 920.48 574.84 C 922.54 569.90, 923.72 567.39, 926.06 562.49 C 928.40 557.59, 929.68 555.06, 932.17 550.33 C 934.67 545.59, 936.01 543.24, 938.55 538.81 C 941.10 534.38, 942.42 532.18, 944.88 528.16 C 947.35 524.14, 948.56 522.18, 950.86 518.70 C 953.16 515.22, 954.24 513.53, 956.39 510.75 C 958.53 507.97, 960.24 507.04, 961.61 504.78 C 962.97 502.51, 962.86 501.06, 963.22 499.43 C 963.58 497.79, 963.68 497.76, 963.43 496.62 C 963.17 495.48, 963.20 494.34, 961.93 493.72 C 960.67 493.10, 959.17 492.63, 957.10 493.51 C 955.04 494.39, 953.39 495.66, 951.61 498.11 C 949.84 500.55, 949.81 502.45, 948.22 505.72 C 946.64 508.99, 945.67 510.72, 943.69 514.45 C 941.71 518.19, 940.61 520.21, 938.34 524.39 C 936.07 528.57, 934.81 530.81, 932.36 535.37 C 929.91 539.92, 928.58 542.33, 926.10 547.16 C 923.61 552.00, 922.32 554.55, 919.92 559.55 C 917.52 564.54, 916.29 567.08, 914.10 572.12 C 911.91 577.16, 910.84 579.76, 908.97 584.76 C 907.09 589.76, 906.24 592.27, 904.74 597.14 C 903.23 602.00, 902.53 604.41, 901.43 609.08 C 900.34 613.74, 899.91 616.05, 899.26 620.46 C 898.60 624.87, 898.39 627.03, 898.15 631.15 C 897.91 635.26, 897.91 637.27, 898.07 641.05 C 898.23 644.83, 898.19 646.74, 898.94 650.06 C 899.69 653.37, 900.29 655.01, 901.82 657.62 C 903.35 660.24, 904.41 661.45, 906.59 663.14 C 908.77 664.84, 910.15 665.49, 912.71 666.09 C 915.26 666.69, 916.83 666.72, 919.35 666.14 C 921.87 665.55, 923.19 664.84, 925.31 663.16 C 927.43 661.49, 928.43 660.36, 929.94 657.77 C 931.44 655.17, 931.92 653.62, 932.82 650.19 C 933.73 646.76, 933.95 644.77, 934.47 640.62 C 934.98 636.48, 935.18 634.21, 935.40 629.46 C 935.63 624.70, 935.66 622.14, 935.60 616.85 C 935.53 611.56, 935.44 608.70, 935.07 603.01 C 934.70 597.32, 934.36 594.31, 933.74 588.39 C 933.12 582.47, 932.74 579.38, 931.98 573.40 C 931.22 567.42, 930.78 564.39, 929.95 558.49 C 929.11 552.58, 928.61 549.57, 927.81 543.89 C 927.02 538.20, 926.60 535.38, 925.97 530.04 C 925.34 524.70, 925.01 522.07, 924.68 517.19 C 924.34 512.31, 924.22 509.91, 924.29 505.63 C 924.37 501.36, 925.25 499.10, 925.05 495.81 C 924.86 492.51, 924.76 491.03, 923.32 489.14 C 921.87 487.25, 920.13 486.67, 917.85 486.38 C 915.57 486.09, 913.66 486.47, 911.92 487.70 C 910.19 488.92, 909.81 490.26, 909.16 492.49 C 908.51 494.72, 908.84 496.14, 908.67 498.85 C 908.50 501.56, 908.60 503.07, 908.31 506.03 C 908.02 509.00, 907.80 510.61, 907.23 513.67 C 906.65 516.72, 906.29 518.36, 905.45 521.33 C 904.60 524.30, 904.08 525.87, 902.98 528.52 C 901.89 531.18, 901.02 532.41, 899.97 534.62 C 898.91 536.82, 898.51 537.91, 897.70 539.55 C 896.89 541.19, 896.57 541.84, 895.92 542.82 C 895.27 543.81, 895.09 544.08, 894.46 544.49 C 893.83 544.89, 893.60 545.00, 892.76 544.85 C 891.92 544.69, 891.44 544.52, 890.25 543.70 C 889.06 542.89, 888.38 542.22, 886.80 540.79 C 885.22 539.35, 884.21 538.55, 882.35 536.55 C 880.49 534.54, 879.37 533.36, 877.51 530.78 C 875.66 528.21, 874.72 526.70, 873.08 523.66 C 871.44 520.63, 870.67 518.94, 869.32 515.59 C 867.98 512.24, 867.33 510.37, 866.35 506.91 C 865.37 503.44, 864.93 501.64, 864.41 498.27 C 863.90 494.91, 863.94 493.10, 863.77 490.07 C 863.61 487.04, 864.04 485.47, 863.60 483.14 C 863.16 480.80, 862.62 479.92, 861.59 478.39 C 860.57 476.87, 860.15 476.10, 858.47 475.51 C 856.80 474.91, 854.90 474.77, 853.21 475.42" style="stroke: black; fill: black;"/><path d="M 979.05,471.64 C 977.58 472.61, 977.48 473.42, 976.89 474.87 C 976.29 476.32, 976.14 476.96, 976.10 478.89 C 976.05 480.81, 976.26 482.06, 976.66 484.50 C 977.06 486.94, 977.56 488.27, 978.09 491.08 C 978.62 493.89, 978.92 495.43, 979.32 498.56 C 979.72 501.69, 979.83 503.46, 980.08 506.71 C 980.34 509.96, 980.51 511.66, 980.60 514.80 C 980.69 517.94, 980.44 519.63, 980.53 522.41 C 980.61 525.18, 980.67 526.61, 981.01 528.67 C 981.35 530.73, 981.35 531.68, 982.23 532.71 C 983.11 533.73, 984.02 533.95, 985.43 533.79 C 986.83 533.63, 988.16 533.09, 989.24 531.92 C 990.32 530.74, 990.81 529.82, 990.82 527.94 C 990.84 526.05, 990.27 524.82, 989.30 522.48 C 988.33 520.13, 987.17 518.82, 985.97 516.23 C 984.78 513.64, 984.17 512.23, 983.31 509.52 C 982.44 506.80, 982.13 505.39, 981.65 502.67 C 981.17 499.96, 981.01 498.53, 980.90 495.94 C 980.79 493.35, 980.80 492.10, 981.08 489.70 C 981.36 487.31, 981.61 486.15, 982.31 483.96 C 983.01 481.76, 983.45 480.72, 984.61 478.74 C 985.76 476.75, 986.40 475.80, 988.07 474.03 C 989.74 472.26, 990.73 471.35, 992.95 469.87 C 995.17 468.40, 996.43 467.67, 999.18 466.64 C 1001.94 465.61, 1003.52 465.17, 1006.71 464.72 C 1009.91 464.28, 1011.72 464.19, 1015.14 464.43 C 1018.55 464.66, 1020.37 464.94, 1023.79 465.91 C 1027.21 466.87, 1028.96 467.54, 1032.24 469.26 C 1035.51 470.98, 1037.17 472.08, 1040.18 474.50 C 1043.20 476.92, 1044.67 478.33, 1047.31 481.37 C 1049.96 484.42, 1051.19 486.16, 1053.41 489.73 C 1055.63 493.29, 1056.63 495.28, 1058.41 499.20 C 1060.20 503.12, 1060.95 505.22, 1062.34 509.35 C 1063.72 513.47, 1064.28 515.66, 1065.34 519.81 C 1066.41 523.96, 1066.85 526.11, 1067.65 530.09 C 1068.45 534.08, 1068.74 536.12, 1069.35 539.74 C 1069.97 543.36, 1069.97 545.55, 1070.73 548.19 C 1071.50 550.82, 1072.18 551.49, 1073.17 552.91 C 1074.16 554.33, 1074.79 554.67, 1075.68 555.27 C 1076.58 555.88, 1076.78 555.89, 1077.66 555.94 C 1078.54 555.98, 1079.27 555.93, 1080.07 555.51 C 1080.86 555.09, 1081.13 554.87, 1081.63 553.85 C 1082.14 552.82, 1082.46 552.16, 1082.60 550.39 C 1082.74 548.61, 1083.02 547.62, 1082.32 544.98 C 1081.63 542.34, 1080.33 540.60, 1079.13 537.21 C 1077.92 533.81, 1077.43 531.91, 1076.30 527.98 C 1075.18 524.06, 1074.72 521.85, 1073.49 517.59 C 1072.26 513.33, 1071.66 511.04, 1070.14 506.68 C 1068.63 502.32, 1067.85 500.06, 1065.92 495.80 C 1064.00 491.53, 1062.95 489.35, 1060.53 485.35 C 1058.12 481.36, 1056.78 479.36, 1053.83 475.83 C 1050.88 472.30, 1049.24 470.61, 1045.78 467.70 C 1042.33 464.79, 1040.42 463.45, 1036.58 461.29 C 1032.73 459.13, 1030.64 458.23, 1026.54 456.90 C 1022.44 455.57, 1020.26 455.13, 1016.08 454.64 C 1011.89 454.15, 1009.69 454.12, 1005.62 454.45 C 1001.56 454.78, 999.50 455.16, 995.76 456.27 C 992.03 457.37, 990.20 458.15, 986.96 459.98 C 983.72 461.82, 982.15 462.98, 979.55 465.44 C 976.96 467.89, 975.81 469.34, 973.97 472.27 C 972.13 475.19, 971.43 476.86, 970.37 480.06 C 969.32 483.27, 969.05 485.01, 968.68 488.30 C 968.32 491.59, 968.41 493.25, 968.57 496.52 C 968.73 499.78, 969.00 501.43, 969.49 504.65 C 969.97 507.87, 970.39 509.47, 970.99 512.61 C 971.60 515.75, 971.98 517.31, 972.52 520.36 C 973.05 523.40, 972.89 525.14, 973.66 527.84 C 974.42 530.55, 974.79 532.06, 976.33 533.90 C 977.88 535.74, 979.14 536.44, 981.38 537.04 C 983.61 537.65, 985.39 537.56, 987.52 536.92 C 989.64 536.28, 990.80 535.51, 992.00 533.84 C 993.20 532.16, 993.20 530.95, 993.50 528.54 C 993.79 526.13, 993.67 524.68, 993.48 521.77 C 993.29 518.87, 992.85 517.20, 992.53 514.02 C 992.21 510.85, 992.06 509.17, 991.88 505.92 C 991.70 502.66, 991.63 500.94, 991.62 497.75 C 991.60 494.57, 991.73 493.00, 991.80 489.99 C 991.87 486.99, 992.17 485.48, 991.96 482.73 C 991.76 479.97, 991.57 478.36, 990.77 476.19 C 989.98 474.03, 989.29 473.14, 987.98 471.90 C 986.68 470.67, 986.02 470.08, 984.24 470.03 C 982.45 469.98, 980.52 470.67, 979.05 471.64" style="stroke: black; fill: black;"/></svg>