<svg xmlns="http://www.w3.org/2000/svg" id="canvas" viewBox="476.179 397.163 659.302 151.818"><path d="M 594.68,403.24 C 593.85 401.93, 592.63 400.86, 590.02 400.41 C 587.41 399.96, 585.51 400.11, 581.64 400.98 C 577.76 401.84, 575.35 402.51, 570.66 404.74 C 565.98 406.97, 563.57 408.52, 558.19 412.14 C 552.82 415.76, 549.81 417.92, 543.77 422.84 C 537.72 427.76, 534.32 430.65, 527.98 436.73 C 521.64 442.82, 518.10 446.39, 512.07 453.25 C 506.05 460.10, 502.83 463.93, 497.84 470.99 C 492.86 478.05, 490.52 481.84, 487.13 488.56 C 483.73 495.28, 482.44 498.60, 480.88 504.59 C 479.32 510.57, 478.93 513.39, 479.32 518.49 C 479.71 523.60, 480.47 526.10, 482.84 530.13 C 485.20 534.16, 487.12 535.93, 491.15 538.64 C 495.18 541.35, 497.75 542.26, 502.98 543.69 C 508.21 545.12, 511.27 545.44, 517.30 545.79 C 523.33 546.15, 526.73 545.98, 533.12 545.46 C 539.51 544.95, 542.96 544.36, 549.26 543.22 C 555.56 542.09, 558.78 541.30, 564.64 539.77 C 570.50 538.23, 573.71 537.15, 578.55 535.55 C 583.39 533.96, 585.67 533.33, 588.84 531.80 C 592.00 530.26, 593.50 529.19, 594.38 527.88 C 595.25 526.58, 594.72 525.50, 593.20 525.28 C 591.68 525.05, 590.04 525.66, 586.77 526.75 C 583.51 527.85, 581.53 529.01, 576.86 530.75 C 572.20 532.50, 569.12 533.82, 563.45 535.47 C 557.78 537.13, 554.63 537.90, 548.50 539.02 C 542.37 540.14, 538.97 540.66, 532.80 541.07 C 526.62 541.48, 523.32 541.54, 517.63 541.09 C 511.94 540.63, 509.07 540.16, 504.36 538.79 C 499.64 537.42, 497.51 536.51, 494.07 534.25 C 490.62 532.00, 489.20 530.75, 487.14 527.51 C 485.07 524.28, 484.27 522.48, 483.76 518.08 C 483.25 513.67, 483.33 511.10, 484.60 505.50 C 485.88 499.89, 486.98 496.60, 490.14 490.05 C 493.30 483.51, 495.55 479.73, 500.40 472.78 C 505.25 465.83, 508.42 462.02, 514.39 455.29 C 520.36 448.56, 523.90 445.03, 530.24 439.13 C 536.58 433.22, 540.01 430.41, 546.08 425.78 C 552.15 421.15, 555.25 419.09, 560.60 415.98 C 565.96 412.86, 568.41 411.66, 572.87 410.19 C 577.33 408.72, 579.51 408.95, 582.90 408.62 C 586.29 408.29, 587.57 408.86, 589.83 408.53 C 592.08 408.19, 593.20 408.01, 594.17 406.95 C 595.14 405.89, 595.51 404.54, 594.68 403.24" style="stroke: black; fill: black;"/><path d="M 687.81,477.52 C 687.76 476.05, 687.10 474.87, 685.40 473.42 C 683.70 471.97, 682.37 470.84, 679.30 470.26 C 676.22 469.68, 673.95 469.77, 670.02 470.53 C 666.09 471.29, 664.07 472.11, 659.66 474.07 C 655.24 476.04, 652.72 477.34, 647.93 480.35 C 643.13 483.36, 640.41 485.23, 635.67 489.11 C 630.93 492.99, 628.31 495.35, 624.23 499.75 C 620.16 504.15, 618.10 506.64, 615.30 511.09 C 612.50 515.54, 611.18 517.77, 610.23 521.99 C 609.28 526.21, 609.20 528.62, 610.54 532.20 C 611.88 535.78, 613.49 537.66, 616.93 539.88 C 620.37 542.10, 622.90 542.69, 627.76 543.30 C 632.63 543.92, 635.62 543.77, 641.25 542.97 C 646.87 542.17, 650.03 541.26, 655.89 539.31 C 661.74 537.35, 664.96 535.99, 670.53 533.18 C 676.10 530.37, 679.00 528.75, 683.71 525.27 C 688.43 521.80, 690.68 519.76, 694.09 515.80 C 697.50 511.84, 698.93 509.63, 700.78 505.49 C 702.64 501.35, 703.15 499.06, 703.36 495.08 C 703.58 491.10, 703.12 488.92, 701.85 485.57 C 700.58 482.22, 699.30 480.48, 697.02 478.32 C 694.74 476.16, 692.81 475.38, 690.44 474.77 C 688.07 474.15, 686.43 474.51, 685.19 475.25 C 683.94 475.99, 683.80 477.22, 684.19 478.47 C 684.59 479.72, 685.77 480.27, 687.16 481.49 C 688.56 482.71, 689.62 483.13, 691.17 484.56 C 692.72 486.00, 693.78 486.55, 694.92 488.64 C 696.06 490.73, 696.75 492.07, 696.89 495.01 C 697.03 497.95, 696.94 499.83, 695.62 503.35 C 694.30 506.87, 693.22 508.98, 690.29 512.62 C 687.35 516.27, 685.32 518.29, 680.96 521.59 C 676.60 524.89, 673.81 526.50, 668.51 529.14 C 663.20 531.78, 660.01 533.07, 654.43 534.79 C 648.85 536.50, 645.77 537.20, 640.61 537.72 C 635.44 538.24, 632.66 538.04, 628.61 537.39 C 624.55 536.74, 622.78 535.95, 620.33 534.47 C 617.89 532.98, 617.28 532.21, 616.37 529.95 C 615.45 527.70, 615.12 526.42, 615.78 523.18 C 616.43 519.94, 617.24 517.78, 619.63 513.74 C 622.02 509.70, 623.91 507.14, 627.73 502.97 C 631.54 498.80, 634.12 496.48, 638.70 492.87 C 643.28 489.26, 645.99 487.50, 650.63 484.92 C 655.28 482.34, 657.87 481.25, 661.91 479.97 C 665.96 478.69, 667.77 478.51, 670.86 478.54 C 673.96 478.56, 675.17 479.65, 677.38 480.10 C 679.59 480.55, 680.26 480.66, 681.92 480.79 C 683.57 480.92, 684.46 481.43, 685.64 480.77 C 686.82 480.12, 687.85 478.99, 687.81 477.52" style="stroke: black; fill: black;"/><path d="M 753.60,472.91 C 752.24 473.03, 751.35 473.31, 749.79 475.11 C 748.24 476.90, 747.63 478.49, 745.81 481.89 C 743.99 485.29, 742.96 487.82, 740.69 492.11 C 738.42 496.39, 736.99 498.98, 734.47 503.31 C 731.95 507.65, 730.44 510.08, 728.07 513.78 C 725.71 517.49, 723.79 519.01, 722.65 521.84 C 721.51 524.67, 721.65 526.26, 722.39 527.91 C 723.12 529.57, 724.44 530.35, 726.31 530.10 C 728.19 529.86, 729.53 529.19, 731.78 526.69 C 734.04 524.18, 734.61 521.67, 737.58 517.58 C 740.55 513.49, 742.47 510.75, 746.64 506.25 C 750.82 501.74, 753.52 499.23, 758.46 495.07 C 763.39 490.90, 766.29 488.73, 771.32 485.42 C 776.35 482.11, 779.13 480.53, 783.59 478.53 C 788.06 476.53, 790.35 476.00, 793.64 475.41 C 796.93 474.81, 798.22 475.11, 800.04 475.55 C 801.86 475.99, 802.09 476.15, 802.72 477.61 C 803.36 479.06, 803.33 480.00, 803.21 482.82 C 803.09 485.63, 803.04 487.69, 802.12 491.67 C 801.21 495.65, 800.25 498.26, 798.61 502.72 C 796.98 507.18, 795.76 509.78, 793.94 513.97 C 792.12 518.15, 790.80 520.20, 789.51 523.63 C 788.22 527.07, 787.69 528.75, 787.47 531.14 C 787.25 533.54, 787.74 534.63, 788.42 535.62 C 789.10 536.62, 789.87 536.68, 790.86 536.12 C 791.86 535.56, 792.36 534.83, 793.39 532.83 C 794.43 530.83, 794.78 529.40, 796.04 526.10 C 797.29 522.81, 797.98 520.58, 799.66 516.35 C 801.34 512.12, 802.63 509.54, 804.45 504.95 C 806.27 500.36, 807.50 497.81, 808.76 493.40 C 810.03 488.99, 810.84 486.72, 810.78 482.89 C 810.73 479.05, 810.29 476.94, 808.47 474.23 C 806.65 471.51, 804.91 470.21, 801.70 469.31 C 798.49 468.41, 796.47 468.77, 792.43 469.73 C 788.39 470.70, 786.20 471.74, 781.49 474.14 C 776.77 476.54, 774.04 478.25, 768.87 481.75 C 763.70 485.25, 760.79 487.46, 755.63 491.65 C 750.48 495.84, 747.71 498.37, 743.09 502.70 C 738.46 507.03, 736.13 509.57, 732.51 513.30 C 728.89 517.03, 726.85 518.60, 724.98 521.35 C 723.11 524.09, 723.00 525.49, 723.16 527.01 C 723.31 528.52, 724.44 529.22, 725.75 528.92 C 727.07 528.61, 728.18 527.89, 729.74 525.49 C 731.29 523.09, 731.55 520.75, 733.53 516.93 C 735.51 513.10, 737.03 510.65, 739.61 506.36 C 742.20 502.07, 743.81 499.57, 746.45 495.49 C 749.09 491.41, 750.76 489.25, 752.82 485.96 C 754.88 482.67, 756.01 481.34, 756.76 479.05 C 757.52 476.76, 757.22 475.75, 756.59 474.52 C 755.95 473.29, 754.96 472.79, 753.60 472.91" style="stroke: black; fill: black;"/><path d="M 844.86,492.89 C 843.22 493.44, 842.04 494.98, 840.11 497.57 C 838.17 500.15, 837.36 502.38, 835.17 505.81 C 832.98 509.24, 831.53 511.55, 829.15 514.72 C 826.77 517.89, 824.96 519.23, 823.29 521.66 C 821.61 524.09, 820.99 525.32, 820.79 526.87 C 820.59 528.41, 821.16 529.21, 822.28 529.40 C 823.40 529.59, 824.88 529.62, 826.40 527.82 C 827.92 526.02, 828.04 523.96, 829.90 520.41 C 831.75 516.86, 832.80 514.28, 835.68 510.05 C 838.56 505.83, 840.42 503.38, 844.32 499.29 C 848.22 495.20, 850.65 493.10, 855.18 489.59 C 859.72 486.08, 862.38 484.33, 867.00 481.72 C 871.62 479.11, 874.12 477.95, 878.29 476.56 C 882.46 475.17, 884.63 474.91, 887.85 474.76 C 891.06 474.61, 892.34 475.03, 894.35 475.81 C 896.36 476.59, 896.83 477.02, 897.90 478.65 C 898.97 480.29, 899.37 481.30, 899.70 483.99 C 900.03 486.67, 900.06 488.44, 899.55 492.07 C 899.04 495.71, 898.44 498.04, 897.17 502.16 C 895.89 506.28, 894.67 508.59, 893.17 512.68 C 891.66 516.77, 889.54 520.26, 889.65 522.61 C 889.75 524.95, 891.86 525.92, 893.69 524.42 C 895.52 522.91, 896.88 519.10, 898.81 515.06 C 900.74 511.02, 901.80 508.57, 903.34 504.20 C 904.87 499.83, 905.71 497.46, 906.50 493.22 C 907.29 488.98, 907.78 486.80, 907.27 483.01 C 906.76 479.22, 906.08 477.05, 903.97 474.28 C 901.86 471.50, 900.06 470.26, 896.73 469.14 C 893.39 468.01, 891.36 468.16, 887.31 468.65 C 883.26 469.13, 881.02 469.79, 876.47 471.57 C 871.92 473.35, 869.41 474.69, 864.58 477.55 C 859.75 480.41, 857.08 482.22, 852.32 485.86 C 847.55 489.51, 845.05 491.65, 840.77 495.75 C 836.49 499.85, 834.45 502.29, 830.92 506.38 C 827.39 510.48, 825.60 512.71, 823.11 516.23 C 820.61 519.75, 819.06 521.31, 818.43 523.99 C 817.80 526.66, 818.75 528.22, 819.97 529.60 C 821.19 530.97, 822.54 531.37, 824.54 530.86 C 826.53 530.34, 827.80 529.37, 829.96 527.02 C 832.12 524.67, 833.04 522.54, 835.34 519.11 C 837.65 515.67, 839.21 513.39, 841.49 509.86 C 843.76 506.33, 845.34 504.47, 846.70 501.46 C 848.07 498.45, 848.67 496.53, 848.30 494.82 C 847.93 493.10, 846.50 492.34, 844.86 492.89" style="stroke: black; fill: black;"/><path d="M 990.80,484.21 C 990.57 482.74, 989.75 481.53, 987.79 480.28 C 985.83 479.02, 984.30 478.09, 981.00 477.92 C 977.70 477.75, 975.42 478.21, 971.31 479.44 C 967.19 480.67, 964.92 481.66, 960.44 484.08 C 955.96 486.51, 953.43 488.23, 948.90 491.56 C 944.37 494.90, 941.81 496.94, 937.80 500.77 C 933.80 504.60, 931.70 506.71, 928.86 510.72 C 926.02 514.72, 924.60 516.85, 923.60 520.79 C 922.60 524.73, 922.48 527.09, 923.86 530.40 C 925.24 533.70, 927.06 535.42, 930.51 537.30 C 933.97 539.18, 936.41 539.55, 941.15 539.79 C 945.90 540.04, 948.79 539.62, 954.25 538.51 C 959.71 537.40, 962.82 536.37, 968.44 534.22 C 974.06 532.07, 977.12 530.67, 982.36 527.76 C 987.60 524.85, 990.34 523.13, 994.64 519.65 C 998.95 516.17, 1000.93 514.15, 1003.88 510.36 C 1006.82 506.56, 1008.06 504.53, 1009.39 500.68 C 1010.71 496.84, 1011.03 494.67, 1010.52 491.13 C 1010.00 487.60, 1008.86 485.67, 1006.81 483.00 C 1004.75 480.32, 1002.97 479.05, 1000.25 477.77 C 997.53 476.49, 995.54 476.39, 993.21 476.58 C 990.87 476.77, 989.50 477.60, 988.58 478.71 C 987.65 479.81, 987.87 481.00, 988.58 482.11 C 989.28 483.21, 990.52 483.48, 992.09 484.23 C 993.66 484.99, 994.71 485.08, 996.43 485.89 C 998.15 486.69, 999.30 486.94, 1000.68 488.26 C 1002.07 489.58, 1002.79 490.37, 1003.34 492.49 C 1003.89 494.61, 1004.20 495.92, 1003.44 498.85 C 1002.68 501.78, 1001.93 503.74, 999.55 507.15 C 997.17 510.56, 995.44 512.61, 991.54 515.90 C 987.65 519.20, 985.04 520.90, 980.08 523.65 C 975.12 526.39, 972.11 527.72, 966.74 529.61 C 961.38 531.50, 958.30 532.32, 953.27 533.10 C 948.24 533.88, 945.51 533.89, 941.60 533.52 C 937.68 533.15, 936.01 532.40, 933.70 531.25 C 931.38 530.09, 930.84 529.52, 930.02 527.73 C 929.20 525.94, 928.93 525.07, 929.61 522.30 C 930.29 519.53, 931.07 517.42, 933.44 513.87 C 935.80 510.33, 937.72 508.14, 941.44 504.56 C 945.16 500.98, 947.70 498.96, 952.04 495.96 C 956.38 492.96, 958.96 491.39, 963.13 489.56 C 967.30 487.74, 969.45 487.22, 972.89 486.83 C 976.34 486.44, 977.90 487.40, 980.36 487.61 C 982.82 487.82, 983.47 487.89, 985.18 487.89 C 986.90 487.89, 987.82 488.36, 988.94 487.63 C 990.06 486.89, 991.03 485.68, 990.80 484.21" style="stroke: black; fill: black;"/><path d="M 1054.78,493.29 C 1053.47 493.42, 1052.90 493.86, 1051.50 495.26 C 1050.10 496.67, 1049.27 497.67, 1047.77 500.32 C 1046.28 502.97, 1045.67 505.13, 1044.03 508.51 C 1042.40 511.89, 1041.44 513.97, 1039.59 517.20 C 1037.75 520.43, 1036.17 521.98, 1034.80 524.67 C 1033.43 527.35, 1032.76 528.74, 1032.74 530.64 C 1032.72 532.55, 1033.42 533.63, 1034.71 534.18 C 1035.99 534.73, 1037.54 534.79, 1039.17 533.40 C 1040.80 532.02, 1041.16 530.38, 1042.84 527.27 C 1044.51 524.16, 1045.06 521.75, 1047.54 517.86 C 1050.01 513.97, 1051.67 511.70, 1055.20 507.81 C 1058.73 503.91, 1060.95 501.85, 1065.18 498.40 C 1069.41 494.95, 1071.85 493.21, 1076.35 490.57 C 1080.85 487.92, 1083.31 486.82, 1087.68 485.18 C 1092.05 483.53, 1094.27 483.00, 1098.19 482.34 C 1102.11 481.68, 1103.90 481.64, 1107.28 481.88 C 1110.67 482.12, 1112.15 482.62, 1115.10 483.55 C 1118.05 484.47, 1119.59 485.71, 1122.03 486.49 C 1124.48 487.28, 1125.51 487.31, 1127.33 487.49 C 1129.15 487.67, 1130.12 487.91, 1131.14 487.39 C 1132.16 486.87, 1132.65 486.04, 1132.43 484.88 C 1132.21 483.72, 1131.52 482.91, 1130.04 481.58 C 1128.56 480.25, 1127.69 479.27, 1125.03 478.21 C 1122.37 477.15, 1120.26 476.83, 1116.74 476.30 C 1113.21 475.76, 1111.34 475.43, 1107.41 475.53 C 1103.48 475.62, 1101.42 475.80, 1097.09 476.76 C 1092.76 477.73, 1090.42 478.43, 1085.77 480.35 C 1081.12 482.26, 1078.57 483.49, 1073.83 486.33 C 1069.09 489.16, 1066.58 490.98, 1062.07 494.52 C 1057.57 498.06, 1055.28 500.16, 1051.30 504.03 C 1047.32 507.90, 1045.39 510.11, 1042.17 513.86 C 1038.94 517.61, 1037.20 519.58, 1035.17 522.77 C 1033.15 525.97, 1032.24 527.56, 1032.04 529.84 C 1031.84 532.11, 1032.90 533.31, 1034.16 534.13 C 1035.42 534.94, 1036.66 534.92, 1038.34 533.91 C 1040.02 532.91, 1040.90 531.67, 1042.54 529.11 C 1044.18 526.55, 1044.76 524.39, 1046.56 521.10 C 1048.36 517.82, 1049.53 515.89, 1051.56 512.70 C 1053.58 509.51, 1055.21 507.93, 1056.67 505.14 C 1058.13 502.35, 1058.57 500.86, 1058.84 498.75 C 1059.11 496.64, 1058.84 495.68, 1058.02 494.59 C 1057.21 493.50, 1056.08 493.15, 1054.78 493.29" style="stroke: black; fill: black;"/></svg>