<svg xmlns="http://www.w3.org/2000/svg" id="canvas" viewBox="333.146 405.693 615.504 157.039"><path d="M 365.34,431.20 C 364.13 432.09, 363.39 433.38, 362.56 436.23 C 361.74 439.08, 361.99 441.07, 361.23 445.45 C 360.47 449.83, 359.95 452.77, 358.76 458.14 C 357.57 463.51, 356.85 466.55, 355.27 472.30 C 353.70 478.05, 352.69 481.15, 350.89 486.90 C 349.09 492.65, 348.04 495.71, 346.27 501.05 C 344.49 506.40, 343.60 509.05, 342.02 513.62 C 340.44 518.18, 339.52 520.30, 338.38 523.88 C 337.23 527.45, 336.61 529.05, 336.29 531.50 C 335.97 533.95, 336.21 535.10, 336.76 536.15 C 337.31 537.19, 338.06 537.37, 339.04 536.73 C 340.01 536.09, 340.70 535.21, 341.66 532.96 C 342.61 530.71, 342.85 529.07, 343.81 525.48 C 344.77 521.89, 345.18 519.64, 346.47 515.01 C 347.76 510.38, 348.61 507.71, 350.27 502.34 C 351.93 496.96, 352.95 493.89, 354.78 488.13 C 356.61 482.36, 357.64 479.25, 359.41 473.50 C 361.18 467.75, 362.07 464.73, 363.62 459.38 C 365.16 454.02, 365.97 451.11, 367.13 446.74 C 368.29 442.38, 369.10 440.53, 369.39 437.54 C 369.69 434.56, 369.44 433.08, 368.63 431.82 C 367.81 430.55, 366.55 430.32, 365.34 431.20" style="stroke: black; fill: black;"/><path d="M 363.39,424.67 C 364.59 424.96, 365.32 424.42, 367.03 423.72 C 368.73 423.03, 369.49 422.52, 371.93 421.20 C 374.37 419.88, 375.72 418.47, 379.22 417.13 C 382.71 415.79, 384.93 415.18, 389.41 414.50 C 393.88 413.81, 396.54 413.59, 401.60 413.70 C 406.67 413.81, 409.49 414.01, 414.73 415.05 C 419.97 416.09, 422.81 416.87, 427.78 418.91 C 432.75 420.94, 435.28 422.28, 439.56 425.24 C 443.84 428.20, 445.91 429.94, 449.18 433.69 C 452.44 437.44, 453.89 439.57, 455.87 444.00 C 457.86 448.42, 458.59 450.83, 459.10 455.81 C 459.61 460.79, 459.51 463.46, 458.41 468.89 C 457.32 474.32, 456.33 477.27, 453.63 482.97 C 450.93 488.67, 449.07 491.71, 444.91 497.39 C 440.75 503.07, 438.13 506.00, 432.83 511.37 C 427.52 516.73, 424.40 519.41, 418.39 524.22 C 412.38 529.03, 409.01 531.39, 402.78 535.41 C 396.55 539.42, 393.21 541.30, 387.24 544.30 C 381.28 547.29, 378.19 548.56, 372.96 550.40 C 367.73 552.25, 365.12 552.87, 361.10 553.50 C 357.07 554.12, 355.28 553.68, 352.83 553.53 C 350.37 553.37, 349.68 553.30, 348.84 552.73 C 347.99 552.16, 348.55 551.47, 348.60 550.67 C 348.66 549.87, 349.04 549.63, 349.09 548.75 C 349.14 547.87, 349.49 547.07, 348.85 546.26 C 348.21 545.45, 347.02 544.56, 345.87 544.70 C 344.73 544.84, 343.74 545.61, 343.12 546.99 C 342.50 548.36, 342.30 549.61, 342.78 551.58 C 343.27 553.56, 343.63 555.26, 345.56 556.87 C 347.48 558.49, 349.09 559.42, 352.39 559.68 C 355.69 559.93, 357.68 559.27, 362.06 558.14 C 366.45 557.01, 368.98 556.20, 374.33 554.03 C 379.68 551.87, 382.77 550.51, 388.80 547.32 C 394.84 544.12, 398.20 542.20, 404.51 538.07 C 410.82 533.94, 414.22 531.54, 420.34 526.66 C 426.46 521.77, 429.64 519.08, 435.11 513.64 C 440.57 508.19, 443.29 505.25, 447.66 499.44 C 452.04 493.63, 454.04 490.53, 456.98 484.59 C 459.92 478.65, 461.08 475.55, 462.35 469.71 C 463.61 463.88, 463.83 460.90, 463.32 455.40 C 462.82 449.91, 462.02 447.14, 459.84 442.23 C 457.66 437.32, 456.01 434.95, 452.44 430.85 C 448.87 426.75, 446.60 424.90, 442.00 421.72 C 437.40 418.53, 434.70 417.14, 429.43 414.93 C 424.15 412.73, 421.16 411.90, 415.64 410.69 C 410.12 409.49, 407.17 409.23, 401.81 408.90 C 396.44 408.56, 393.71 408.67, 388.80 409.01 C 383.90 409.35, 381.47 409.69, 377.30 410.60 C 373.13 411.51, 370.90 412.08, 367.95 413.57 C 365.00 415.06, 363.94 416.30, 362.55 418.05 C 361.17 419.80, 360.84 420.98, 361.01 422.30 C 361.18 423.63, 362.19 424.39, 363.39 424.67" style="stroke: black; fill: black;"/><path d="M 521.14,493.21 C 521.42 491.99, 521.18 491.01, 520.18 489.66 C 519.18 488.31, 518.27 487.41, 516.14 486.45 C 514.00 485.49, 512.43 484.94, 509.52 484.84 C 506.61 484.74, 504.99 485.01, 501.59 485.96 C 498.18 486.91, 496.32 487.71, 492.50 489.58 C 488.67 491.46, 486.53 492.66, 482.45 495.33 C 478.37 498.00, 476.05 499.66, 472.09 502.93 C 468.13 506.21, 466.00 508.19, 462.63 511.72 C 459.27 515.25, 457.62 517.12, 455.28 520.58 C 452.94 524.04, 451.65 525.75, 450.93 529.00 C 450.21 532.25, 450.57 534.13, 451.69 536.83 C 452.82 539.53, 453.94 540.95, 456.55 542.50 C 459.16 544.04, 461.09 544.52, 464.72 544.55 C 468.35 544.58, 470.49 543.94, 474.71 542.63 C 478.94 541.32, 481.25 540.24, 485.84 538.00 C 490.42 535.76, 492.96 534.37, 497.66 531.44 C 502.35 528.50, 504.90 526.73, 509.30 523.32 C 513.71 519.92, 515.94 517.81, 519.69 514.41 C 523.43 511.00, 525.41 509.29, 528.03 506.29 C 530.66 503.28, 532.20 501.63, 532.81 499.37 C 533.41 497.10, 532.55 495.64, 531.06 494.96 C 529.58 494.28, 527.60 494.38, 525.40 495.98 C 523.20 497.58, 522.19 499.63, 520.06 502.94 C 517.93 506.26, 516.71 508.75, 514.76 512.56 C 512.81 516.38, 511.74 518.48, 510.32 522.00 C 508.91 525.53, 508.05 527.23, 507.66 530.20 C 507.28 533.17, 507.76 534.65, 508.40 536.86 C 509.04 539.07, 509.73 539.98, 510.86 541.25 C 511.99 542.51, 512.90 542.94, 514.04 543.19 C 515.19 543.45, 515.99 543.17, 516.59 542.52 C 517.19 541.87, 517.09 540.70, 517.04 539.94 C 516.98 539.17, 516.61 539.17, 516.32 538.69 C 516.02 538.22, 515.94 538.22, 515.57 537.57 C 515.20 536.92, 514.64 536.69, 514.47 535.44 C 514.31 534.20, 514.30 533.51, 514.74 531.34 C 515.19 529.16, 515.43 527.64, 516.68 524.57 C 517.92 521.50, 518.93 519.41, 520.97 515.99 C 523.01 512.56, 524.81 510.49, 526.88 507.45 C 528.95 504.40, 530.45 503.00, 531.34 500.76 C 532.23 498.52, 531.96 497.10, 531.33 496.25 C 530.69 495.39, 529.73 495.26, 528.17 496.50 C 526.61 497.75, 525.90 499.59, 523.53 502.47 C 521.17 505.36, 519.75 507.47, 516.34 510.91 C 512.93 514.36, 510.73 516.42, 506.50 519.72 C 502.27 523.02, 499.77 524.71, 495.20 527.40 C 490.64 530.09, 488.07 531.35, 483.66 533.18 C 479.24 535.01, 476.90 535.76, 473.12 536.55 C 469.34 537.33, 467.50 537.10, 464.77 537.09 C 462.04 537.08, 461.02 536.96, 459.47 536.49 C 457.93 536.01, 457.45 535.90, 457.04 534.72 C 456.64 533.54, 456.83 532.80, 457.45 530.59 C 458.06 528.38, 458.32 526.72, 460.12 523.66 C 461.92 520.59, 463.40 518.62, 466.45 515.27 C 469.49 511.92, 471.56 509.97, 475.35 506.93 C 479.13 503.89, 481.45 502.35, 485.38 500.07 C 489.32 497.78, 491.45 496.78, 495.02 495.51 C 498.59 494.24, 500.44 494.07, 503.22 493.72 C 505.99 493.37, 506.96 493.52, 508.88 493.77 C 510.81 494.01, 511.44 494.54, 512.85 494.95 C 514.26 495.36, 514.75 495.64, 515.94 495.80 C 517.13 495.96, 517.75 496.27, 518.79 495.75 C 519.83 495.24, 520.86 494.43, 521.14 493.21" style="stroke: black; fill: black;"/><path d="M 567.68,502.43 C 566.44 502.66, 565.90 503.31, 564.56 504.77 C 563.21 506.22, 562.38 507.20, 560.96 509.70 C 559.53 512.20, 558.97 514.31, 557.43 517.26 C 555.90 520.20, 554.81 521.86, 553.30 524.42 C 551.80 526.99, 550.66 528.15, 549.91 530.09 C 549.17 532.03, 549.15 533.11, 549.58 534.14 C 550.02 535.16, 550.89 535.55, 552.10 535.20 C 553.30 534.85, 554.42 534.31, 555.61 532.38 C 556.80 530.45, 556.79 528.66, 558.04 525.55 C 559.28 522.43, 559.88 520.25, 561.82 516.79 C 563.75 513.33, 565.05 511.42, 567.71 508.24 C 570.38 505.07, 572.02 503.50, 575.15 500.92 C 578.27 498.35, 580.08 497.15, 583.33 495.37 C 586.57 493.58, 588.27 492.91, 591.37 491.99 C 594.48 491.07, 596.10 490.96, 598.83 490.77 C 601.56 490.59, 602.77 490.76, 605.03 491.08 C 607.28 491.40, 608.30 491.80, 610.09 492.38 C 611.88 492.96, 612.62 493.49, 613.97 493.98 C 615.31 494.48, 615.74 494.67, 616.80 494.87 C 617.87 495.06, 618.46 495.36, 619.27 494.97 C 620.09 494.57, 620.74 493.81, 620.87 492.90 C 621.01 491.98, 620.65 491.41, 619.95 490.38 C 619.25 489.34, 618.85 488.75, 617.38 487.72 C 615.91 486.68, 614.88 486.02, 612.58 485.19 C 610.29 484.36, 608.82 483.84, 605.91 483.55 C 603.01 483.26, 601.36 483.26, 598.05 483.75 C 594.74 484.24, 592.89 484.69, 589.36 486.00 C 585.84 487.31, 583.99 488.19, 580.42 490.30 C 576.86 492.42, 574.97 493.75, 571.55 496.57 C 568.14 499.38, 566.40 501.07, 563.34 504.39 C 560.29 507.71, 558.88 509.69, 556.28 513.16 C 553.67 516.62, 552.21 518.51, 550.31 521.72 C 548.42 524.92, 547.26 526.59, 546.81 529.19 C 546.35 531.80, 547.03 533.25, 548.03 534.76 C 549.03 536.26, 550.17 536.74, 551.82 536.71 C 553.46 536.68, 554.52 536.17, 556.27 534.62 C 558.01 533.07, 558.81 531.58, 560.55 528.95 C 562.29 526.32, 563.18 524.46, 564.97 521.49 C 566.76 518.51, 568.22 516.83, 569.49 514.09 C 570.76 511.36, 571.07 509.90, 571.32 507.81 C 571.57 505.71, 571.47 504.69, 570.74 503.62 C 570.01 502.54, 568.91 502.20, 567.68 502.43" style="stroke: black; fill: black;"/><path d="M 689.57,487.41 C 689.30 486.15, 688.64 485.24, 686.90 484.20 C 685.16 483.16, 683.77 482.40, 680.87 482.22 C 677.97 482.03, 675.97 482.44, 672.39 483.27 C 668.81 484.10, 666.75 484.96, 662.97 486.36 C 659.19 487.77, 657.06 488.61, 653.48 490.29 C 649.90 491.97, 647.78 492.67, 645.07 494.78 C 642.37 496.89, 641.15 498.26, 639.95 500.83 C 638.76 503.40, 638.63 504.96, 639.08 507.62 C 639.54 510.27, 640.23 511.85, 642.23 514.10 C 644.24 516.35, 646.03 517.19, 649.11 518.87 C 652.20 520.54, 654.27 521.06, 657.65 522.48 C 661.03 523.90, 663.02 524.60, 666.02 525.97 C 669.01 527.34, 670.46 528.34, 672.61 529.34 C 674.77 530.34, 675.77 530.54, 676.79 530.97 C 677.80 531.40, 678.01 531.29, 677.68 531.49 C 677.35 531.69, 676.74 531.45, 675.12 531.97 C 673.50 532.49, 672.32 533.02, 669.58 534.08 C 666.84 535.15, 665.01 536.19, 661.41 537.30 C 657.82 538.41, 655.51 538.94, 651.60 539.64 C 647.69 540.34, 645.43 540.62, 641.86 540.79 C 638.29 540.96, 636.45 540.63, 633.75 540.49 C 631.05 540.36, 629.91 540.32, 628.36 540.10 C 626.82 539.88, 626.65 539.56, 626.02 539.39 C 625.40 539.22, 625.46 539.41, 625.25 539.26 C 625.03 539.11, 625.47 538.90, 624.93 538.62 C 624.40 538.35, 623.27 537.64, 622.57 537.90 C 621.87 538.16, 621.44 538.86, 621.44 539.93 C 621.44 540.99, 621.57 541.93, 622.56 543.22 C 623.55 544.51, 624.23 545.44, 626.39 546.39 C 628.55 547.33, 630.15 547.75, 633.35 547.93 C 636.54 548.11, 638.49 547.68, 642.35 547.29 C 646.20 546.90, 648.47 546.60, 652.63 545.99 C 656.78 545.38, 659.14 545.00, 663.13 544.23 C 667.12 543.46, 669.32 543.31, 672.58 542.14 C 675.83 540.97, 677.47 540.26, 679.42 538.38 C 681.36 536.51, 681.95 535.02, 682.30 532.78 C 682.64 530.54, 682.30 529.24, 681.15 527.18 C 679.99 525.12, 678.95 524.08, 676.54 522.47 C 674.12 520.86, 672.24 520.50, 669.07 519.12 C 665.90 517.74, 663.90 517.08, 660.70 515.59 C 657.50 514.10, 655.72 513.12, 653.08 511.65 C 650.44 510.19, 649.21 509.34, 647.52 508.25 C 645.83 507.16, 645.06 507.05, 644.63 506.21 C 644.19 505.36, 644.39 505.12, 645.36 504.03 C 646.33 502.94, 647.25 502.26, 649.46 500.75 C 651.68 499.24, 653.29 498.02, 656.44 496.48 C 659.59 494.95, 661.75 494.09, 665.21 493.07 C 668.68 492.04, 670.68 491.66, 673.76 491.37 C 676.83 491.07, 678.31 491.62, 680.59 491.59 C 682.87 491.56, 683.61 491.44, 685.14 491.22 C 686.68 491.00, 687.36 491.25, 688.25 490.49 C 689.14 489.73, 689.84 488.67, 689.57 487.41" style="stroke: black; fill: black;"/><path d="M 745.95,440.15 C 744.80 440.43, 744.26 440.84, 743.12 442.51 C 741.97 444.19, 741.48 445.31, 740.22 448.54 C 738.95 451.77, 738.55 454.18, 736.79 458.68 C 735.02 463.18, 733.85 465.90, 731.40 471.04 C 728.95 476.19, 727.39 479.08, 724.54 484.41 C 721.69 489.74, 720.04 492.55, 717.13 497.69 C 714.22 502.84, 712.65 505.52, 710.00 510.15 C 707.35 514.77, 706.08 517.07, 703.88 520.82 C 701.67 524.58, 700.12 526.08, 698.98 528.91 C 697.83 531.74, 697.68 533.16, 698.13 534.98 C 698.58 536.81, 699.53 537.61, 701.23 538.04 C 702.92 538.48, 704.48 538.53, 706.62 537.15 C 708.76 535.77, 709.48 534.06, 711.92 531.14 C 714.35 528.22, 715.61 526.02, 718.80 522.52 C 721.99 519.03, 724.00 516.99, 727.86 513.65 C 731.72 510.32, 734.01 508.56, 738.09 505.83 C 742.17 503.10, 744.44 501.78, 748.25 500.01 C 752.05 498.24, 754.11 497.71, 757.10 496.97 C 760.10 496.23, 761.39 496.25, 763.24 496.31 C 765.09 496.38, 765.61 496.43, 766.36 497.29 C 767.11 498.15, 767.00 498.77, 767.00 500.61 C 767.00 502.45, 766.87 503.71, 766.35 506.50 C 765.83 509.28, 765.47 511.21, 764.40 514.55 C 763.33 517.89, 762.42 519.87, 761.00 523.20 C 759.57 526.53, 758.44 528.23, 757.27 531.20 C 756.10 534.17, 755.52 535.67, 755.16 538.05 C 754.80 540.43, 755.07 541.58, 755.46 543.10 C 755.84 544.62, 756.34 545.17, 757.07 545.65 C 757.81 546.12, 758.49 545.88, 759.15 545.46 C 759.81 545.04, 759.76 544.63, 760.37 543.53 C 760.98 542.42, 761.40 541.86, 762.20 539.94 C 762.99 538.02, 763.27 536.73, 764.33 533.92 C 765.39 531.12, 766.11 529.32, 767.50 525.93 C 768.90 522.53, 769.96 520.56, 771.30 516.96 C 772.65 513.35, 773.63 511.41, 774.24 507.90 C 774.84 504.40, 775.08 502.42, 774.32 499.45 C 773.56 496.49, 772.51 494.96, 770.42 493.08 C 768.32 491.20, 766.83 490.43, 763.84 490.03 C 760.86 489.64, 759.09 490.04, 755.50 491.09 C 751.92 492.15, 749.94 493.18, 745.91 495.32 C 741.87 497.45, 739.61 498.88, 735.35 501.76 C 731.09 504.65, 728.75 506.44, 724.61 509.75 C 720.47 513.05, 718.33 515.07, 714.66 518.28 C 710.98 521.49, 708.98 523.19, 706.23 525.81 C 703.47 528.44, 702.04 529.47, 700.87 531.39 C 699.71 533.31, 700.11 534.53, 700.39 535.41 C 700.67 536.29, 701.31 536.54, 702.27 535.80 C 703.23 535.05, 703.94 534.19, 705.18 531.67 C 706.41 529.14, 706.70 527.06, 708.44 523.18 C 710.17 519.29, 711.39 516.95, 713.84 512.25 C 716.30 507.56, 717.84 504.87, 720.71 499.71 C 723.59 494.54, 725.25 491.74, 728.22 486.43 C 731.20 481.13, 732.82 478.25, 735.60 473.19 C 738.37 468.14, 739.76 465.48, 742.10 461.15 C 744.43 456.82, 745.79 454.78, 747.28 451.56 C 748.78 448.33, 749.25 447.10, 749.56 445.01 C 749.88 442.93, 749.57 442.11, 748.84 441.13 C 748.12 440.16, 747.09 439.88, 745.95 440.15" style="stroke: black; fill: black;"/><path d="M 847.22,501.88 C 847.47 500.63, 847.15 499.63, 846.09 498.32 C 845.03 497.01, 844.10 496.18, 841.93 495.31 C 839.77 494.44, 838.16 493.93, 835.27 493.97 C 832.37 494.02, 830.74 494.44, 827.47 495.54 C 824.19 496.64, 822.44 497.54, 818.89 499.47 C 815.33 501.40, 813.29 502.63, 809.68 505.18 C 806.07 507.74, 804.09 509.32, 800.84 512.24 C 797.59 515.16, 795.91 516.76, 793.43 519.78 C 790.95 522.81, 789.55 524.33, 788.45 527.35 C 787.35 530.38, 787.38 532.17, 787.94 534.91 C 788.50 537.65, 789.26 539.08, 791.26 541.05 C 793.25 543.02, 794.83 544.08, 797.92 544.75 C 801.01 545.42, 803.02 545.09, 806.71 544.42 C 810.40 543.75, 812.38 542.97, 816.35 541.39 C 820.33 539.81, 822.54 538.80, 826.59 536.54 C 830.64 534.28, 832.80 532.84, 836.61 530.09 C 840.41 527.33, 842.27 525.66, 845.59 522.78 C 848.90 519.89, 850.78 518.42, 853.18 515.67 C 855.58 512.92, 857.00 511.25, 857.61 509.03 C 858.22 506.81, 857.50 505.38, 856.22 504.57 C 854.95 503.76, 853.28 503.78, 851.24 504.98 C 849.21 506.19, 848.01 507.74, 846.05 510.60 C 844.08 513.45, 843.13 515.83, 841.42 519.26 C 839.71 522.69, 838.69 524.58, 837.51 527.77 C 836.33 530.96, 835.79 532.45, 835.53 535.20 C 835.26 537.95, 835.43 539.32, 836.19 541.52 C 836.95 543.72, 837.86 544.88, 839.32 546.20 C 840.78 547.53, 842.00 548.01, 843.49 548.15 C 844.99 548.29, 846.08 547.80, 846.81 546.89 C 847.53 545.98, 847.43 544.61, 847.14 543.60 C 846.84 542.59, 846.05 542.33, 845.34 541.83 C 844.63 541.32, 844.23 541.49, 843.57 541.06 C 842.91 540.64, 842.27 540.62, 842.04 539.69 C 841.82 538.76, 841.93 538.20, 842.46 536.40 C 842.99 534.61, 843.46 533.36, 844.68 530.71 C 845.90 528.07, 846.74 526.19, 848.56 523.16 C 850.38 520.14, 852.13 518.37, 853.79 515.59 C 855.46 512.81, 856.44 511.34, 856.89 509.26 C 857.34 507.19, 856.93 505.93, 856.05 505.23 C 855.16 504.52, 854.06 504.52, 852.47 505.73 C 850.87 506.94, 850.20 508.72, 848.06 511.30 C 845.92 513.87, 844.68 515.74, 841.75 518.61 C 838.82 521.49, 836.98 523.09, 833.41 525.66 C 829.84 528.23, 827.73 529.55, 823.90 531.48 C 820.06 533.42, 817.88 534.23, 814.23 535.32 C 810.58 536.41, 808.64 536.65, 805.64 536.93 C 802.64 537.22, 801.28 536.92, 799.22 536.75 C 797.16 536.58, 796.40 536.65, 795.33 536.10 C 794.27 535.55, 793.95 535.21, 793.90 533.99 C 793.85 532.77, 794.16 532.03, 795.08 529.98 C 796.00 527.93, 796.52 526.39, 798.48 523.74 C 800.44 521.08, 801.95 519.40, 804.89 516.71 C 807.82 514.03, 809.77 512.51, 813.17 510.31 C 816.56 508.10, 818.57 507.04, 821.87 505.67 C 825.17 504.31, 826.98 504.03, 829.66 503.48 C 832.34 502.93, 833.38 502.89, 835.26 502.94 C 837.15 502.99, 837.75 503.40, 839.08 503.72 C 840.41 504.03, 840.77 504.36, 841.93 504.53 C 843.08 504.70, 843.79 505.09, 844.85 504.56 C 845.91 504.03, 846.97 503.13, 847.22 501.88" style="stroke: black; fill: black;"/><path d="M 896.59,502.45 C 895.47 502.51, 895.17 502.90, 893.85 503.94 C 892.53 504.97, 891.53 505.47, 889.98 507.64 C 888.44 509.81, 887.93 511.80, 886.13 514.78 C 884.34 517.77, 883.13 519.64, 881.00 522.57 C 878.87 525.51, 877.31 526.93, 875.49 529.44 C 873.66 531.95, 872.51 533.12, 871.87 535.11 C 871.22 537.09, 871.44 538.28, 872.26 539.36 C 873.08 540.43, 874.23 540.96, 875.95 540.48 C 877.68 540.01, 878.76 539.26, 880.89 536.99 C 883.02 534.71, 883.72 532.45, 886.59 529.09 C 889.46 525.73, 891.36 523.62, 895.24 520.18 C 899.12 516.75, 901.60 514.87, 905.98 511.91 C 910.36 508.95, 912.92 507.46, 917.14 505.40 C 921.36 503.33, 923.65 502.55, 927.08 501.59 C 930.52 500.64, 932.14 500.76, 934.30 500.61 C 936.47 500.46, 937.07 500.28, 937.89 500.83 C 938.71 501.38, 938.53 501.80, 938.40 503.35 C 938.27 504.90, 937.90 505.93, 937.25 508.57 C 936.61 511.21, 936.32 513.11, 935.18 516.55 C 934.03 519.99, 933.11 522.11, 931.53 525.77 C 929.95 529.43, 928.89 531.48, 927.30 534.87 C 925.71 538.26, 924.67 539.89, 923.59 542.72 C 922.51 545.55, 922.18 546.93, 921.91 549.00 C 921.63 551.07, 921.91 551.87, 922.22 553.07 C 922.52 554.27, 922.84 554.60, 923.43 555.00 C 924.01 555.39, 924.55 555.27, 925.15 555.03 C 925.75 554.79, 925.77 554.62, 926.42 553.80 C 927.08 552.98, 927.57 552.63, 928.41 550.94 C 929.26 549.26, 929.66 548.06, 930.65 545.38 C 931.65 542.69, 932.00 540.92, 933.38 537.53 C 934.75 534.15, 935.83 532.14, 937.54 528.45 C 939.24 524.76, 940.37 522.74, 941.91 519.10 C 943.44 515.46, 944.60 513.61, 945.21 510.24 C 945.83 506.87, 945.83 504.99, 944.99 502.25 C 944.15 499.51, 943.17 498.15, 941.01 496.54 C 938.85 494.92, 937.32 494.23, 934.19 494.17 C 931.06 494.11, 929.23 494.87, 925.38 496.24 C 921.52 497.61, 919.31 498.67, 914.90 501.01 C 910.49 503.35, 907.93 504.91, 903.33 507.93 C 898.73 510.96, 896.20 512.86, 891.92 516.16 C 887.63 519.45, 885.44 521.38, 881.92 524.39 C 878.39 527.40, 876.33 528.70, 874.28 531.20 C 872.23 533.69, 871.83 535.10, 871.67 536.86 C 871.51 538.63, 872.34 539.54, 873.48 540.00 C 874.62 540.47, 875.70 540.34, 877.38 539.19 C 879.05 538.05, 879.92 536.71, 881.85 534.28 C 883.78 531.84, 884.80 529.98, 887.02 527.03 C 889.24 524.09, 890.69 522.37, 892.95 519.56 C 895.22 516.75, 896.89 515.45, 898.32 512.99 C 899.75 510.54, 899.87 509.14, 900.10 507.27 C 900.33 505.40, 900.17 504.60, 899.47 503.64 C 898.77 502.67, 897.72 502.39, 896.59 502.45" style="stroke: black; fill: black;"/></svg>