<svg xmlns="http://www.w3.org/2000/svg" id="canvas" viewBox="730.835 396.835 254.974 176.507"><path d="M 775.05,407.48 C 773.70 408.13, 772.91 409.10, 771.67 411.91 C 770.42 414.71, 770.41 416.63, 768.84 421.50 C 767.27 426.37, 766.26 429.65, 763.80 436.26 C 761.35 442.88, 759.66 446.87, 756.57 454.59 C 753.48 462.31, 751.52 466.78, 748.36 474.88 C 745.20 482.98, 743.31 487.36, 740.77 495.10 C 738.23 502.85, 737.06 506.80, 735.68 513.60 C 734.29 520.41, 733.88 523.55, 733.84 529.11 C 733.79 534.66, 734.12 537.08, 735.45 541.36 C 736.78 545.64, 737.86 547.48, 740.47 550.50 C 743.08 553.52, 744.86 554.68, 748.50 556.47 C 752.15 558.25, 754.35 558.72, 758.71 559.43 C 763.07 560.13, 765.54 560.09, 770.31 560.00 C 775.08 559.92, 777.68 559.55, 782.57 559.00 C 787.47 558.45, 790.03 558.02, 794.79 557.27 C 799.55 556.53, 802.03 556.07, 806.37 555.28 C 810.71 554.48, 812.82 553.95, 816.48 553.29 C 820.13 552.63, 821.88 552.70, 824.63 551.99 C 827.37 551.28, 828.51 550.64, 830.22 549.74 C 831.94 548.84, 832.27 548.23, 833.22 547.47 C 834.16 546.71, 834.29 546.54, 834.94 545.94 C 835.60 545.33, 835.96 544.92, 836.48 544.44 C 837.01 543.97, 837.07 543.84, 837.56 543.57 C 838.05 543.30, 838.50 543.44, 838.91 543.10 C 839.33 542.77, 839.93 542.50, 839.62 541.88 C 839.32 541.25, 838.73 540.67, 837.41 540.00 C 836.09 539.32, 834.50 538.76, 833.04 538.50 C 831.58 538.24, 830.70 538.46, 830.12 538.69 C 829.53 538.92, 830.00 539.20, 830.10 539.67 C 830.20 540.14, 830.37 540.60, 830.60 541.04 C 830.83 541.48, 831.07 541.63, 831.25 541.87 C 831.42 542.11, 831.62 542.09, 831.47 542.24 C 831.32 542.39, 831.22 542.44, 830.49 542.61 C 829.77 542.79, 829.44 542.83, 827.84 543.11 C 826.24 543.40, 825.09 543.33, 822.49 544.06 C 819.90 544.78, 818.35 545.67, 814.88 546.74 C 811.41 547.82, 809.35 548.46, 805.15 549.45 C 800.95 550.44, 798.52 550.92, 793.89 551.70 C 789.25 552.48, 786.70 552.88, 781.98 553.34 C 777.26 553.80, 774.72 554.05, 770.28 554.02 C 765.83 553.99, 763.57 553.86, 759.76 553.19 C 755.95 552.53, 754.21 552.04, 751.22 550.70 C 748.22 549.37, 747.00 548.70, 744.80 546.51 C 742.61 544.31, 741.57 543.21, 740.22 539.72 C 738.87 536.23, 738.24 534.13, 738.04 529.05 C 737.85 523.96, 738.05 520.87, 739.23 514.28 C 740.40 507.70, 741.48 503.76, 743.92 496.12 C 746.36 488.48, 748.23 484.12, 751.43 476.09 C 754.63 468.07, 756.63 463.62, 759.93 455.99 C 763.22 448.35, 765.06 444.42, 767.92 437.93 C 770.77 431.44, 772.13 428.27, 774.21 423.55 C 776.29 418.82, 777.50 417.29, 778.34 414.31 C 779.18 411.33, 779.08 410.00, 778.42 408.63 C 777.76 407.26, 776.40 406.82, 775.05 407.48" style="stroke: black; fill: black;"/><path d="M 743.96,485.18 C 745.25 486.09, 746.68 486.20, 749.90 486.09 C 753.12 485.99, 755.19 485.42, 760.06 484.65 C 764.93 483.88, 768.27 483.30, 774.24 482.25 C 780.20 481.20, 783.75 480.69, 789.88 479.42 C 796.02 478.14, 799.33 477.22, 804.91 475.88 C 810.50 474.53, 813.32 473.93, 817.80 472.70 C 822.28 471.48, 824.51 471.07, 827.33 469.77 C 830.16 468.47, 831.21 467.42, 831.93 466.21 C 832.66 465.01, 832.27 464.14, 830.96 463.74 C 829.64 463.34, 828.30 463.46, 825.36 464.22 C 822.42 464.98, 820.57 466.10, 816.25 467.52 C 811.93 468.94, 809.21 469.85, 803.75 471.31 C 798.30 472.77, 795.03 473.67, 788.97 474.82 C 782.91 475.97, 779.39 476.33, 773.46 477.06 C 767.53 477.80, 764.20 478.10, 759.33 478.49 C 754.46 478.88, 752.29 478.41, 749.11 479.02 C 745.94 479.62, 744.49 480.29, 743.46 481.52 C 742.43 482.76, 742.67 484.26, 743.96 485.18" style="stroke: black; fill: black;"/><path d="M 794.64,419.41 C 795.56 420.22, 796.03 420.57, 798.21 420.43 C 800.39 420.29, 801.61 419.71, 805.54 418.70 C 809.47 417.69, 812.13 416.67, 817.85 415.39 C 823.57 414.11, 827.29 413.57, 834.15 412.31 C 841.01 411.04, 845.50 410.40, 852.15 409.08 C 858.80 407.77, 862.43 406.98, 867.41 405.75 C 872.38 404.52, 875.24 404.12, 877.02 402.95 C 878.80 401.78, 878.42 400.16, 876.31 399.88 C 874.21 399.61, 871.49 400.60, 866.49 401.58 C 861.49 402.55, 857.93 403.51, 851.31 404.76 C 844.70 406.01, 840.28 406.78, 833.40 407.82 C 826.52 408.87, 822.78 409.24, 816.91 409.98 C 811.04 410.71, 808.18 410.85, 804.06 411.49 C 799.94 412.13, 798.40 412.21, 796.31 413.19 C 794.21 414.17, 793.93 415.15, 793.59 416.39 C 793.26 417.63, 793.71 418.60, 794.64 419.41" style="stroke: black; fill: black;"/><path d="M 900.30,414.27 C 899.59 415.25, 899.22 415.90, 899.63 417.87 C 900.05 419.83, 900.53 420.93, 902.37 424.09 C 904.20 427.24, 905.90 429.22, 908.80 433.65 C 911.70 438.08, 913.35 440.91, 916.86 446.22 C 920.37 451.53, 922.41 454.61, 926.34 460.22 C 930.27 465.82, 932.39 468.70, 936.52 474.26 C 940.65 479.81, 942.83 482.59, 947.00 488.00 C 951.17 493.40, 953.48 496.12, 957.37 501.29 C 961.27 506.46, 963.31 509.04, 966.46 513.83 C 969.61 518.62, 971.10 520.96, 973.13 525.25 C 975.15 529.54, 975.94 531.63, 976.59 535.27 C 977.25 538.91, 977.16 540.49, 976.40 543.46 C 975.64 546.43, 974.99 547.63, 972.78 550.12 C 970.58 552.61, 969.12 553.84, 965.37 555.92 C 961.61 558.00, 959.12 558.99, 954.01 560.53 C 948.90 562.08, 945.68 562.70, 939.81 563.64 C 933.94 564.57, 930.48 564.88, 924.66 565.20 C 918.83 565.51, 915.67 565.47, 910.68 565.21 C 905.70 564.94, 903.31 564.40, 899.75 563.87 C 896.18 563.35, 894.96 562.82, 892.85 562.58 C 890.74 562.34, 890.12 562.25, 889.20 562.68 C 888.28 563.10, 887.84 563.67, 888.24 564.71 C 888.65 565.76, 889.08 566.85, 891.22 567.91 C 893.35 568.97, 895.05 569.53, 898.92 570.01 C 902.79 570.48, 905.36 570.32, 910.56 570.30 C 915.77 570.27, 918.95 570.28, 924.94 569.89 C 930.93 569.49, 934.43 569.22, 940.52 568.34 C 946.62 567.46, 949.91 566.96, 955.42 565.48 C 960.92 564.00, 963.67 563.21, 968.05 560.94 C 972.43 558.67, 974.50 557.36, 977.34 554.15 C 980.17 550.93, 981.30 548.87, 982.23 544.87 C 983.15 540.88, 982.91 538.54, 981.96 534.19 C 981.00 529.83, 979.83 527.65, 977.45 523.09 C 975.07 518.54, 973.42 516.25, 970.04 511.40 C 966.66 506.55, 964.55 504.01, 960.55 498.86 C 956.55 493.71, 954.22 491.02, 950.04 485.64 C 945.86 480.26, 943.70 477.51, 939.64 471.95 C 935.59 466.40, 933.51 463.53, 929.78 457.88 C 926.04 452.22, 924.08 449.14, 920.96 443.69 C 917.83 438.25, 916.39 435.35, 914.14 430.64 C 911.90 425.93, 911.31 423.36, 909.73 420.14 C 908.14 416.92, 907.53 415.97, 906.22 414.54 C 904.91 413.10, 904.38 413.01, 903.19 412.95 C 902.01 412.90, 901.01 413.29, 900.30 414.27" style="stroke: black; fill: black;"/></svg>