<svg xmlns="http://www.w3.org/2000/svg" id="canvas" viewBox="193.790 463.546 970.840 61.030"><path d="M 200.78,474.05 C 200.47 474.59, 200.32 475.30, 200.01 476.83 C 199.70 478.35, 199.52 479.46, 199.24 481.68 C 198.95 483.91, 198.84 485.41, 198.60 487.97 C 198.36 490.52, 198.25 491.95, 198.03 494.47 C 197.80 497.00, 197.67 498.31, 197.46 500.59 C 197.26 502.86, 197.14 503.98, 197.00 505.84 C 196.87 507.71, 196.79 508.57, 196.79 509.92 C 196.79 511.27, 196.88 511.80, 197.01 512.60 C 197.13 513.39, 197.24 513.65, 197.41 513.91 C 197.59 514.16, 197.73 514.14, 197.88 513.88 C 198.03 513.62, 198.03 513.36, 198.15 512.59 C 198.26 511.81, 198.31 511.32, 198.45 510.00 C 198.58 508.69, 198.62 507.85, 198.81 506.00 C 199.00 504.16, 199.13 503.04, 199.39 500.78 C 199.64 498.52, 199.80 497.20, 200.10 494.69 C 200.40 492.17, 200.61 490.76, 200.89 488.20 C 201.18 485.65, 201.35 484.16, 201.52 481.92 C 201.70 479.68, 201.76 478.56, 201.76 477.00 C 201.77 475.45, 201.74 474.72, 201.54 474.13 C 201.35 473.54, 201.08 473.51, 200.78 474.05" style="stroke: black; fill: black;"/><path d="M 215.78,472.04 C 215.44 472.46, 215.18 473.34, 215.01 474.25 C 214.84 475.17, 214.85 475.82, 214.93 476.63 C 215.00 477.45, 215.13 477.98, 215.37 478.33 C 215.61 478.67, 215.85 478.67, 216.12 478.36 C 216.39 478.05, 216.52 477.55, 216.72 476.77 C 216.91 475.98, 217.07 475.38, 217.08 474.45 C 217.08 473.52, 216.99 472.61, 216.73 472.13 C 216.47 471.64, 216.13 471.61, 215.78 472.04" style="stroke: black; fill: black;"/><path d="M 231.59,474.59 C 231.24 475.12, 231.01 475.85, 230.60 477.39 C 230.20 478.94, 229.95 480.02, 229.55 482.30 C 229.14 484.57, 228.93 486.15, 228.59 488.78 C 228.24 491.41, 228.10 492.91, 227.82 495.45 C 227.54 497.98, 227.39 499.30, 227.20 501.45 C 227.01 503.59, 226.89 504.67, 226.89 506.16 C 226.88 507.65, 226.98 508.17, 227.18 508.89 C 227.38 509.61, 227.64 509.64, 227.90 509.77 C 228.15 509.90, 228.37 509.65, 228.46 509.55 C 228.54 509.45, 228.36 509.30, 228.30 509.29 C 228.24 509.28, 228.15 509.58, 228.16 509.48 C 228.16 509.39, 228.22 509.43, 228.30 508.79 C 228.39 508.14, 228.40 507.69, 228.57 506.26 C 228.73 504.83, 228.85 503.76, 229.12 501.65 C 229.39 499.54, 229.56 498.22, 229.91 495.71 C 230.27 493.20, 230.52 491.71, 230.90 489.10 C 231.29 486.49, 231.53 484.92, 231.82 482.64 C 232.10 480.36, 232.22 479.26, 232.33 477.68 C 232.44 476.10, 232.50 475.34, 232.36 474.72 C 232.21 474.11, 231.94 474.06, 231.59 474.59" style="stroke: black; fill: black;"/><path d="M 239.77,475.03 C 239.46 475.53, 239.29 476.18, 238.96 477.64 C 238.63 479.10, 238.44 480.15, 238.14 482.31 C 237.84 484.46, 237.69 485.94, 237.46 488.42 C 237.23 490.90, 237.14 492.31, 236.98 494.68 C 236.82 497.06, 236.72 498.28, 236.66 500.29 C 236.60 502.30, 236.61 503.26, 236.69 504.75 C 236.77 506.23, 236.88 506.80, 237.07 507.70 C 237.27 508.59, 237.44 508.82, 237.66 509.22 C 237.88 509.61, 238.01 509.63, 238.18 509.69 C 238.34 509.76, 238.42 509.69, 238.48 509.55 C 238.54 509.41, 238.48 509.39, 238.48 508.99 C 238.48 508.58, 238.50 508.38, 238.47 507.52 C 238.45 506.67, 238.36 506.13, 238.38 504.71 C 238.39 503.28, 238.41 502.35, 238.55 500.39 C 238.69 498.42, 238.82 497.21, 239.07 494.87 C 239.32 492.52, 239.52 491.12, 239.79 488.66 C 240.07 486.20, 240.26 484.73, 240.44 482.56 C 240.62 480.40, 240.68 479.33, 240.70 477.84 C 240.72 476.36, 240.72 475.68, 240.53 475.12 C 240.35 474.56, 240.09 474.53, 239.77 475.03" style="stroke: black; fill: black;"/><path d="M 279.47,494.28 C 279.37 493.98, 279.19 493.75, 278.69 493.54 C 278.18 493.34, 277.78 493.16, 276.95 493.27 C 276.13 493.39, 275.55 493.53, 274.58 494.11 C 273.60 494.70, 273.04 495.19, 272.08 496.20 C 271.13 497.21, 270.58 497.94, 269.79 499.18 C 269.01 500.42, 268.60 501.19, 268.15 502.41 C 267.70 503.62, 267.54 504.30, 267.57 505.25 C 267.59 506.19, 267.77 506.63, 268.26 507.14 C 268.75 507.64, 269.18 507.78, 270.00 507.77 C 270.82 507.75, 271.37 507.59, 272.36 507.07 C 273.34 506.54, 273.90 506.07, 274.91 505.15 C 275.92 504.23, 276.47 503.57, 277.40 502.47 C 278.33 501.36, 278.87 500.63, 279.56 499.63 C 280.24 498.63, 280.52 498.04, 280.82 497.46 C 281.11 496.88, 281.08 496.69, 281.03 496.72 C 280.98 496.76, 280.76 497.00, 280.58 497.63 C 280.40 498.27, 280.18 498.89, 280.12 499.90 C 280.06 500.91, 280.10 501.65, 280.30 502.69 C 280.49 503.72, 280.66 504.30, 281.09 505.08 C 281.52 505.86, 281.80 506.21, 282.45 506.60 C 283.10 506.98, 283.52 507.12, 284.35 507.01 C 285.18 506.90, 285.66 506.71, 286.59 506.05 C 287.51 505.38, 288.00 504.88, 288.97 503.67 C 289.95 502.47, 290.47 501.67, 291.47 500.00 C 292.46 498.33, 293.00 497.28, 293.95 495.32 C 294.90 493.36, 295.40 492.19, 296.22 490.19 C 297.04 488.18, 297.44 487.08, 298.04 485.29 C 298.64 483.51, 298.93 482.63, 299.22 481.27 C 299.51 479.90, 299.60 479.30, 299.48 478.47 C 299.36 477.65, 299.15 477.32, 298.63 477.14 C 298.11 476.96, 297.64 477.00, 296.87 477.58 C 296.11 478.16, 295.61 478.70, 294.82 480.03 C 294.02 481.37, 293.58 482.36, 292.89 484.26 C 292.20 486.16, 291.83 487.40, 291.36 489.54 C 290.89 491.68, 290.68 492.92, 290.54 494.95 C 290.40 496.97, 290.42 498.01, 290.67 499.66 C 290.92 501.30, 291.16 502.03, 291.80 503.16 C 292.44 504.28, 292.91 504.72, 293.86 505.28 C 294.81 505.85, 295.43 505.98, 296.56 505.97 C 297.69 505.96, 298.35 505.77, 299.50 505.25 C 300.66 504.73, 301.28 504.27, 302.33 503.36 C 303.37 502.45, 303.89 501.80, 304.73 500.70 C 305.56 499.60, 305.97 498.91, 306.50 497.88 C 307.04 496.85, 307.26 496.23, 307.40 495.53 C 307.54 494.84, 307.41 494.53, 307.22 494.41 C 307.03 494.29, 306.73 494.46, 306.45 494.94 C 306.16 495.42, 305.92 495.92, 305.81 496.80 C 305.70 497.68, 305.72 498.36, 305.89 499.33 C 306.07 500.30, 306.27 500.86, 306.67 501.65 C 307.07 502.44, 307.32 502.80, 307.89 503.29 C 308.47 503.78, 308.83 503.96, 309.54 504.10 C 310.26 504.24, 310.69 504.21, 311.46 503.98 C 312.24 503.75, 312.66 503.51, 313.42 502.94 C 314.18 502.36, 314.57 501.93, 315.26 501.12 C 315.95 500.30, 316.31 499.75, 316.87 498.85 C 317.42 497.95, 317.72 497.37, 318.03 496.62 C 318.33 495.87, 318.37 495.46, 318.38 495.10 C 318.39 494.73, 318.22 494.66, 318.06 494.81 C 317.91 494.96, 317.69 495.24, 317.60 495.83 C 317.51 496.42, 317.46 496.95, 317.61 497.75 C 317.76 498.56, 317.97 499.09, 318.35 499.86 C 318.73 500.62, 318.97 501.03, 319.50 501.59 C 320.04 502.15, 320.36 502.40, 321.01 502.66 C 321.67 502.92, 322.06 502.98, 322.78 502.89 C 323.51 502.79, 323.92 502.65, 324.64 502.18 C 325.37 501.72, 325.76 501.36, 326.41 500.57 C 327.06 499.79, 327.37 499.24, 327.90 498.26 C 328.42 497.29, 328.67 496.69, 329.03 495.70 C 329.40 494.72, 329.57 494.13, 329.73 493.34 C 329.88 492.55, 329.84 492.22, 329.82 491.73 C 329.80 491.24, 329.76 491.09, 329.63 490.90 C 329.50 490.72, 329.37 490.70, 329.18 490.80 C 328.99 490.91, 328.92 491.04, 328.67 491.43 C 328.42 491.82, 328.25 492.06, 327.93 492.75 C 327.60 493.45, 327.43 494.00, 327.04 494.89 C 326.64 495.78, 326.41 496.34, 325.94 497.21 C 325.48 498.08, 325.19 498.55, 324.69 499.24 C 324.20 499.92, 323.93 500.22, 323.48 500.63 C 323.04 501.04, 322.84 501.16, 322.47 501.28 C 322.10 501.41, 321.94 501.39, 321.63 501.24 C 321.31 501.08, 321.16 500.92, 320.92 500.49 C 320.68 500.06, 320.58 499.73, 320.43 499.07 C 320.27 498.42, 320.31 497.94, 320.14 497.22 C 319.97 496.50, 319.88 496.05, 319.58 495.48 C 319.28 494.91, 319.07 494.60, 318.65 494.38 C 318.24 494.17, 317.97 494.14, 317.49 494.39 C 317.01 494.63, 316.76 494.95, 316.26 495.61 C 315.76 496.26, 315.53 496.83, 314.99 497.65 C 314.44 498.47, 314.13 498.98, 313.55 499.72 C 312.97 500.46, 312.64 500.82, 312.09 501.34 C 311.54 501.85, 311.27 502.04, 310.81 502.29 C 310.34 502.54, 310.13 502.61, 309.76 502.59 C 309.39 502.57, 309.22 502.51, 308.96 502.19 C 308.71 501.87, 308.60 501.62, 308.48 500.99 C 308.36 500.36, 308.40 499.88, 308.37 499.05 C 308.34 498.21, 308.41 497.63, 308.32 496.82 C 308.22 496.01, 308.14 495.52, 307.90 494.99 C 307.65 494.46, 307.48 494.20, 307.10 494.17 C 306.73 494.14, 306.50 494.30, 306.02 494.84 C 305.55 495.38, 305.32 495.94, 304.73 496.85 C 304.13 497.76, 303.80 498.42, 303.04 499.41 C 302.28 500.39, 301.80 500.97, 300.92 501.79 C 300.03 502.61, 299.52 503.00, 298.63 503.51 C 297.74 504.02, 297.27 504.21, 296.46 504.32 C 295.66 504.42, 295.25 504.40, 294.59 504.03 C 293.92 503.66, 293.59 503.37, 293.16 502.45 C 292.73 501.53, 292.55 500.91, 292.43 499.45 C 292.31 497.98, 292.35 497.01, 292.57 495.14 C 292.80 493.26, 293.04 492.07, 293.56 490.06 C 294.08 488.06, 294.50 486.89, 295.17 485.10 C 295.84 483.31, 296.32 482.42, 296.90 481.13 C 297.48 479.83, 297.77 479.31, 298.09 478.62 C 298.41 477.94, 298.46 477.74, 298.49 477.69 C 298.53 477.65, 298.45 477.79, 298.26 478.41 C 298.07 479.03, 297.95 479.57, 297.53 480.81 C 297.12 482.06, 296.85 482.92, 296.20 484.63 C 295.54 486.34, 295.12 487.43, 294.27 489.37 C 293.43 491.31, 292.92 492.45, 291.97 494.35 C 291.02 496.24, 290.48 497.25, 289.53 498.85 C 288.58 500.44, 288.07 501.18, 287.22 502.32 C 286.38 503.45, 285.96 503.88, 285.32 504.53 C 284.67 505.18, 284.42 505.37, 284.00 505.56 C 283.57 505.76, 283.44 505.73, 283.19 505.50 C 282.94 505.28, 282.85 505.06, 282.74 504.44 C 282.63 503.83, 282.66 503.35, 282.65 502.44 C 282.63 501.52, 282.75 500.86, 282.68 499.88 C 282.60 498.90, 282.55 498.25, 282.28 497.52 C 282.01 496.79, 281.81 496.42, 281.31 496.21 C 280.81 496.00, 280.49 496.05, 279.80 496.46 C 279.11 496.88, 278.71 497.39, 277.88 498.29 C 277.05 499.19, 276.57 499.93, 275.66 500.96 C 274.75 502.00, 274.21 502.59, 273.31 503.45 C 272.42 504.31, 271.92 504.70, 271.20 505.27 C 270.48 505.85, 270.15 506.09, 269.71 506.33 C 269.27 506.56, 269.13 506.65, 269.01 506.47 C 268.89 506.29, 268.91 506.07, 269.11 505.42 C 269.32 504.78, 269.52 504.23, 270.03 503.23 C 270.55 502.23, 270.95 501.52, 271.69 500.43 C 272.44 499.34, 272.96 498.67, 273.77 497.78 C 274.59 496.89, 275.06 496.48, 275.78 495.98 C 276.49 495.47, 276.84 495.42, 277.36 495.25 C 277.89 495.09, 278.04 495.20, 278.40 495.15 C 278.77 495.10, 278.98 495.19, 279.19 495.01 C 279.40 494.84, 279.57 494.57, 279.47 494.28" style="stroke: black; fill: black;"/><path d="M 338.52,494.98 C 338.10 495.13, 337.67 495.52, 337.16 496.18 C 336.65 496.84, 336.32 497.39, 335.96 498.29 C 335.61 499.19, 335.39 499.83, 335.38 500.69 C 335.37 501.54, 335.52 502.01, 335.90 502.56 C 336.28 503.12, 336.61 503.32, 337.27 503.46 C 337.92 503.59, 338.38 503.55, 339.17 503.24 C 339.96 502.94, 340.42 502.61, 341.22 501.92 C 342.02 501.23, 342.43 500.71, 343.16 499.79 C 343.88 498.86, 344.27 498.26, 344.84 497.29 C 345.42 496.31, 345.73 495.71, 346.03 494.92 C 346.33 494.14, 346.37 493.72, 346.34 493.35 C 346.32 492.99, 346.12 492.94, 345.92 493.11 C 345.72 493.29, 345.47 493.59, 345.34 494.23 C 345.20 494.87, 345.11 495.45, 345.24 496.32 C 345.38 497.18, 345.60 497.76, 345.99 498.56 C 346.38 499.37, 346.63 499.78, 347.19 500.35 C 347.75 500.93, 348.09 501.17, 348.78 501.43 C 349.48 501.69, 349.89 501.75, 350.68 501.66 C 351.46 501.56, 351.90 501.41, 352.71 500.96 C 353.52 500.51, 353.95 500.15, 354.72 499.42 C 355.50 498.68, 355.91 498.18, 356.58 497.29 C 357.25 496.41, 357.64 495.81, 358.09 494.99 C 358.53 494.17, 358.68 493.68, 358.79 493.21 C 358.90 492.74, 358.78 492.58, 358.65 492.63 C 358.52 492.68, 358.28 492.92, 358.14 493.45 C 358.00 493.99, 357.84 494.53, 357.95 495.32 C 358.05 496.11, 358.25 496.68, 358.67 497.41 C 359.08 498.14, 359.39 498.51, 360.02 498.98 C 360.66 499.46, 361.04 499.65, 361.83 499.78 C 362.62 499.91, 363.10 499.88, 363.98 499.65 C 364.86 499.42, 365.35 499.18, 366.24 498.63 C 367.14 498.08, 367.62 497.66, 368.47 496.89 C 369.31 496.12, 369.77 495.59, 370.48 494.76 C 371.20 493.94, 371.59 493.46, 372.05 492.77 C 372.50 492.08, 372.64 491.67, 372.76 491.32 C 372.87 490.98, 372.73 490.85, 372.62 491.04 C 372.50 491.23, 372.33 491.51, 372.17 492.29 C 372.01 493.06, 371.93 493.65, 371.82 494.92 C 371.70 496.19, 371.71 497.04, 371.60 498.64 C 371.49 500.24, 371.44 501.19, 371.27 502.93 C 371.09 504.67, 371.00 505.63, 370.73 507.34 C 370.46 509.06, 370.30 509.96, 369.92 511.51 C 369.54 513.05, 369.33 513.82, 368.83 515.07 C 368.33 516.31, 368.01 516.86, 367.40 517.72 C 366.80 518.58, 366.43 518.92, 365.78 519.37 C 365.13 519.82, 364.77 519.93, 364.15 519.98 C 363.53 520.03, 363.21 519.94, 362.68 519.63 C 362.15 519.32, 361.87 519.06, 361.50 518.44 C 361.12 517.83, 360.92 517.42, 360.80 516.54 C 360.68 515.66, 360.64 515.13, 360.88 514.04 C 361.11 512.96, 361.32 512.33, 361.98 511.13 C 362.64 509.92, 363.11 509.26, 364.16 508.03 C 365.22 506.80, 365.89 506.15, 367.24 504.97 C 368.58 503.79, 369.37 503.20, 370.88 502.13 C 372.40 501.07, 373.26 500.57, 374.82 499.65 C 376.38 498.74, 377.20 498.31, 378.68 497.56 C 380.17 496.81, 380.91 496.48, 382.23 495.90 C 383.56 495.31, 384.21 495.07, 385.29 494.64 C 386.38 494.21, 386.87 494.03, 387.66 493.74 C 388.45 493.44, 388.77 493.35, 389.24 493.17 C 389.70 492.99, 389.84 492.93, 389.98 492.83 C 390.12 492.73, 390.05 492.67, 389.93 492.67 C 389.80 492.66, 389.59 492.65, 389.36 492.81 C 389.13 492.98, 388.95 493.14, 388.78 493.51 C 388.60 493.88, 388.56 494.17, 388.50 494.67 C 388.43 495.16, 388.42 495.45, 388.45 495.98 C 388.49 496.50, 388.54 496.79, 388.67 497.28 C 388.81 497.78, 388.93 498.03, 389.13 498.46 C 389.34 498.89, 389.48 499.10, 389.69 499.44 C 389.91 499.77, 390.04 499.93, 390.21 500.14 C 390.38 500.34, 390.48 500.39, 390.55 500.46 C 390.63 500.53, 390.65 500.49, 390.58 500.48 C 390.52 500.48, 390.45 500.44, 390.21 500.45 C 389.97 500.47, 389.79 500.50, 389.40 500.56 C 389.01 500.63, 388.75 500.70, 388.26 500.77 C 387.77 500.84, 387.46 500.86, 386.94 500.92 C 386.43 500.99, 386.11 501.00, 385.70 501.10 C 385.29 501.20, 385.14 501.30, 384.88 501.43 C 384.62 501.55, 384.51 501.58, 384.41 501.74 C 384.30 501.91, 384.26 502.06, 384.34 502.25 C 384.42 502.44, 384.53 502.53, 384.81 502.69 C 385.09 502.85, 385.27 502.96, 385.73 503.05 C 386.18 503.14, 386.52 503.14, 387.09 503.13 C 387.66 503.12, 388.00 503.09, 388.58 503.01 C 389.16 502.93, 389.47 502.90, 389.97 502.73 C 390.47 502.56, 390.73 502.45, 391.09 502.16 C 391.45 501.86, 391.60 501.65, 391.78 501.27 C 391.96 500.88, 391.99 500.63, 391.99 500.24 C 392.00 499.85, 391.92 499.66, 391.80 499.30 C 391.67 498.94, 391.55 498.78, 391.37 498.45 C 391.19 498.11, 391.06 497.95, 390.90 497.62 C 390.73 497.29, 390.65 497.12, 390.56 496.78 C 390.47 496.44, 390.44 496.26, 390.45 495.93 C 390.47 495.59, 390.52 495.43, 390.63 495.10 C 390.73 494.78, 390.88 494.64, 390.97 494.30 C 391.05 493.96, 391.10 493.76, 391.06 493.40 C 391.01 493.03, 390.93 492.77, 390.73 492.47 C 390.53 492.16, 390.42 492.00, 390.06 491.86 C 389.70 491.72, 389.50 491.71, 388.92 491.77 C 388.33 491.83, 387.99 491.93, 387.14 492.17 C 386.29 492.42, 385.80 492.59, 384.67 492.99 C 383.54 493.40, 382.87 493.63, 381.51 494.21 C 380.14 494.78, 379.37 495.11, 377.84 495.86 C 376.30 496.61, 375.45 497.03, 373.83 497.95 C 372.21 498.87, 371.32 499.38, 369.73 500.47 C 368.14 501.56, 367.31 502.17, 365.88 503.41 C 364.45 504.65, 363.72 505.33, 362.58 506.68 C 361.44 508.03, 360.90 508.76, 360.17 510.16 C 359.44 511.55, 359.17 512.30, 358.92 513.64 C 358.66 514.98, 358.67 515.69, 358.88 516.85 C 359.09 518.02, 359.36 518.61, 359.96 519.47 C 360.57 520.32, 361.04 520.70, 361.90 521.12 C 362.77 521.53, 363.33 521.63, 364.28 521.55 C 365.23 521.47, 365.76 521.28, 366.66 520.72 C 367.56 520.16, 368.01 519.73, 368.78 518.75 C 369.55 517.76, 369.91 517.14, 370.51 515.79 C 371.11 514.44, 371.35 513.62, 371.80 512.00 C 372.25 510.38, 372.42 509.45, 372.74 507.68 C 373.06 505.92, 373.18 504.95, 373.41 503.18 C 373.65 501.41, 373.74 500.46, 373.91 498.83 C 374.07 497.21, 374.19 496.38, 374.23 495.07 C 374.28 493.76, 374.30 493.16, 374.13 492.27 C 373.95 491.39, 373.78 491.02, 373.37 490.65 C 372.96 490.28, 372.63 490.26, 372.07 490.43 C 371.51 490.60, 371.20 490.91, 370.56 491.49 C 369.93 492.07, 369.60 492.56, 368.89 493.31 C 368.17 494.07, 367.74 494.57, 366.98 495.27 C 366.22 495.98, 365.80 496.35, 365.08 496.86 C 364.36 497.37, 364.00 497.57, 363.39 497.82 C 362.78 498.07, 362.49 498.15, 362.04 498.13 C 361.58 498.11, 361.39 498.03, 361.12 497.72 C 360.84 497.41, 360.79 497.14, 360.66 496.57 C 360.53 496.00, 360.61 495.56, 360.46 494.89 C 360.32 494.21, 360.22 493.74, 359.92 493.20 C 359.62 492.65, 359.42 492.34, 358.98 492.17 C 358.54 491.99, 358.26 492.01, 357.72 492.33 C 357.18 492.66, 356.88 493.07, 356.29 493.79 C 355.70 494.50, 355.41 495.11, 354.78 495.93 C 354.16 496.75, 353.81 497.21, 353.19 497.88 C 352.56 498.54, 352.21 498.84, 351.64 499.26 C 351.08 499.68, 350.82 499.83, 350.36 499.97 C 349.90 500.11, 349.70 500.11, 349.34 499.97 C 348.98 499.82, 348.80 499.68, 348.54 499.25 C 348.28 498.82, 348.18 498.50, 348.05 497.83 C 347.91 497.16, 347.99 496.66, 347.86 495.91 C 347.74 495.15, 347.67 494.65, 347.42 494.04 C 347.17 493.42, 346.98 493.09, 346.60 492.83 C 346.22 492.57, 345.98 492.51, 345.52 492.74 C 345.06 492.97, 344.81 493.29, 344.30 493.97 C 343.79 494.64, 343.56 495.24, 342.98 496.12 C 342.40 497.01, 342.05 497.55, 341.38 498.38 C 340.72 499.20, 340.30 499.61, 339.67 500.24 C 339.04 500.87, 338.70 501.14, 338.22 501.52 C 337.75 501.91, 337.56 502.06, 337.32 502.17 C 337.07 502.27, 337.00 502.27, 337.01 502.04 C 337.02 501.81, 337.14 501.60, 337.37 501.02 C 337.59 500.44, 337.83 499.92, 338.14 499.14 C 338.44 498.35, 338.65 497.82, 338.87 497.07 C 339.10 496.33, 339.32 495.84, 339.25 495.42 C 339.18 495.00, 338.94 494.82, 338.52 494.98" style="stroke: black; fill: black;"/><path d="M 426.37,474.22 C 426.15 474.41, 426.08 474.55, 425.93 475.15 C 425.78 475.76, 425.70 476.17, 425.60 477.25 C 425.50 478.33, 425.52 479.09, 425.44 480.56 C 425.37 482.04, 425.35 482.99, 425.22 484.63 C 425.10 486.27, 424.99 487.22, 424.83 488.76 C 424.66 490.31, 424.52 491.11, 424.39 492.37 C 424.25 493.63, 424.12 494.19, 424.14 495.05 C 424.16 495.91, 424.20 496.24, 424.49 496.67 C 424.78 497.09, 425.04 497.20, 425.59 497.18 C 426.14 497.17, 426.52 497.00, 427.22 496.58 C 427.92 496.16, 428.30 495.75, 429.10 495.11 C 429.89 494.46, 430.33 493.97, 431.20 493.35 C 432.08 492.73, 432.60 492.40, 433.48 492.00 C 434.36 491.60, 434.85 491.46, 435.61 491.34 C 436.38 491.22, 436.76 491.27, 437.31 491.40 C 437.85 491.53, 438.07 491.67, 438.35 491.99 C 438.64 492.30, 438.70 492.52, 438.72 492.98 C 438.74 493.43, 438.71 493.71, 438.45 494.28 C 438.19 494.85, 438.00 495.21, 437.45 495.84 C 436.90 496.47, 436.51 496.84, 435.71 497.44 C 434.90 498.03, 434.36 498.36, 433.42 498.82 C 432.48 499.29, 431.90 499.50, 430.99 499.78 C 430.09 500.05, 429.59 500.11, 428.90 500.20 C 428.21 500.28, 427.91 500.25, 427.56 500.19 C 427.21 500.12, 427.14 500.04, 427.15 499.85 C 427.16 499.67, 427.26 499.54, 427.62 499.24 C 427.97 498.95, 428.23 498.74, 428.92 498.36 C 429.61 497.97, 430.06 497.71, 431.06 497.32 C 432.06 496.92, 432.69 496.72, 433.91 496.39 C 435.14 496.06, 435.85 495.93, 437.20 495.67 C 438.54 495.41, 439.28 495.32, 440.64 495.09 C 442.01 494.86, 442.73 494.76, 444.00 494.51 C 445.28 494.25, 445.91 494.13, 447.01 493.81 C 448.11 493.50, 448.64 493.34, 449.50 492.93 C 450.37 492.52, 450.76 492.27, 451.32 491.75 C 451.88 491.23, 452.12 490.92, 452.31 490.32 C 452.50 489.72, 452.51 489.32, 452.28 488.76 C 452.05 488.21, 451.78 487.86, 451.16 487.55 C 450.55 487.23, 450.05 487.12, 449.21 487.20 C 448.36 487.28, 447.80 487.45, 446.92 487.94 C 446.04 488.43, 445.52 488.83, 444.81 489.65 C 444.09 490.46, 443.72 491.02, 443.35 492.02 C 442.98 493.03, 442.85 493.64, 442.95 494.67 C 443.06 495.69, 443.25 496.28, 443.88 497.15 C 444.50 498.03, 445.02 498.45, 446.07 499.04 C 447.12 499.63, 447.81 499.82, 449.14 500.10 C 450.46 500.38, 451.25 500.41, 452.68 500.42 C 454.12 500.43, 454.90 500.36, 456.30 500.17 C 457.69 499.98, 458.47 499.81, 459.65 499.49 C 460.84 499.16, 461.40 498.94, 462.21 498.55 C 463.01 498.17, 463.42 497.88, 463.67 497.56 C 463.92 497.25, 463.83 497.06, 463.45 496.97 C 463.07 496.88, 462.62 497.01, 461.77 497.13 C 460.93 497.25, 460.37 497.36, 459.22 497.56 C 458.08 497.76, 457.34 497.97, 456.04 498.12 C 454.74 498.27, 454.01 498.34, 452.70 498.32 C 451.40 498.31, 450.68 498.25, 449.54 498.05 C 448.39 497.85, 447.81 497.70, 446.96 497.31 C 446.11 496.92, 445.73 496.65, 445.27 496.10 C 444.82 495.54, 444.71 495.20, 444.68 494.54 C 444.66 493.87, 444.81 493.47, 445.15 492.79 C 445.49 492.10, 445.82 491.69, 446.40 491.11 C 446.97 490.52, 447.39 490.23, 448.02 489.86 C 448.65 489.49, 449.03 489.39, 449.54 489.25 C 450.06 489.10, 450.29 489.12, 450.60 489.13 C 450.91 489.14, 451.00 489.18, 451.08 489.31 C 451.17 489.45, 451.19 489.55, 451.04 489.80 C 450.88 490.04, 450.76 490.22, 450.31 490.53 C 449.86 490.83, 449.56 491.04, 448.80 491.34 C 448.05 491.64, 447.57 491.78, 446.54 492.03 C 445.50 492.29, 444.89 492.39, 443.65 492.61 C 442.41 492.82, 441.69 492.90, 440.33 493.10 C 438.96 493.31, 438.21 493.39, 436.82 493.63 C 435.43 493.87, 434.69 493.98, 433.38 494.30 C 432.06 494.62, 431.37 494.80, 430.24 495.25 C 429.11 495.70, 428.54 495.97, 427.74 496.57 C 426.93 497.17, 426.57 497.55, 426.22 498.25 C 425.86 498.95, 425.81 499.42, 425.97 500.05 C 426.12 500.69, 426.38 501.03, 426.97 501.41 C 427.56 501.80, 428.02 501.90, 428.93 501.96 C 429.83 502.02, 430.42 501.95, 431.50 501.71 C 432.58 501.46, 433.24 501.24, 434.33 500.73 C 435.43 500.22, 436.05 499.87, 436.99 499.15 C 437.94 498.44, 438.41 498.00, 439.06 497.15 C 439.71 496.30, 439.98 495.80, 440.24 494.92 C 440.51 494.04, 440.52 493.54, 440.37 492.75 C 440.22 491.96, 440.01 491.54, 439.49 490.96 C 438.98 490.38, 438.59 490.13, 437.77 489.85 C 436.96 489.56, 436.44 489.50, 435.43 489.55 C 434.43 489.61, 433.83 489.75, 432.74 490.13 C 431.65 490.51, 431.03 490.84, 429.98 491.45 C 428.94 492.06, 428.34 492.47, 427.50 493.18 C 426.67 493.88, 426.27 494.35, 425.80 494.97 C 425.33 495.59, 425.26 495.97, 425.15 496.26 C 425.04 496.56, 425.16 496.66, 425.27 496.45 C 425.39 496.24, 425.51 495.97, 425.71 495.22 C 425.90 494.46, 426.01 493.88, 426.25 492.65 C 426.49 491.42, 426.65 490.60, 426.90 489.04 C 427.15 487.48, 427.31 486.52, 427.50 484.84 C 427.70 483.17, 427.80 482.20, 427.88 480.69 C 427.95 479.18, 427.96 478.39, 427.89 477.28 C 427.82 476.17, 427.70 475.75, 427.53 475.13 C 427.36 474.52, 427.28 474.39, 427.04 474.20 C 426.81 474.02, 426.59 474.03, 426.37 474.22" style="stroke: black; fill: black;"/><path d="M 498.46,488.84 C 498.38 488.53, 498.19 488.29, 497.71 488.01 C 497.23 487.74, 496.86 487.56, 496.05 487.48 C 495.24 487.40, 494.66 487.39, 493.67 487.63 C 492.67 487.87, 492.07 488.12, 491.08 488.69 C 490.08 489.25, 489.52 489.67, 488.68 490.45 C 487.85 491.23, 487.40 491.72, 486.91 492.58 C 486.41 493.43, 486.23 493.96, 486.22 494.73 C 486.21 495.49, 486.37 495.92, 486.85 496.41 C 487.32 496.90, 487.76 497.09, 488.60 497.16 C 489.44 497.23, 490.02 497.12, 491.04 496.77 C 492.05 496.41, 492.66 496.05, 493.69 495.38 C 494.72 494.72, 495.28 494.23, 496.19 493.45 C 497.10 492.67, 497.57 492.18, 498.24 491.47 C 498.91 490.75, 499.22 490.36, 499.54 489.85 C 499.87 489.34, 499.87 489.07, 499.85 488.92 C 499.82 488.77, 499.60 488.77, 499.41 489.11 C 499.23 489.46, 499.06 489.80, 498.94 490.64 C 498.82 491.48, 498.82 492.07, 498.81 493.31 C 498.80 494.54, 498.85 495.32, 498.88 496.82 C 498.90 498.31, 498.93 499.19, 498.91 500.78 C 498.90 502.38, 498.92 503.24, 498.80 504.79 C 498.69 506.34, 498.62 507.13, 498.35 508.52 C 498.07 509.90, 497.89 510.58, 497.43 511.71 C 496.97 512.85, 496.67 513.37, 496.03 514.20 C 495.38 515.03, 494.98 515.37, 494.20 515.88 C 493.42 516.38, 492.95 516.56, 492.13 516.73 C 491.31 516.91, 490.85 516.92, 490.11 516.77 C 489.37 516.62, 488.99 516.44, 488.42 515.98 C 487.85 515.51, 487.57 515.18, 487.27 514.44 C 486.97 513.70, 486.86 513.24, 486.92 512.29 C 486.98 511.33, 487.09 510.76, 487.55 509.66 C 488.01 508.56, 488.37 507.93, 489.23 506.77 C 490.08 505.60, 490.66 504.98, 491.84 503.84 C 493.03 502.70, 493.75 502.11, 495.14 501.08 C 496.53 500.05, 497.34 499.54, 498.80 498.67 C 500.26 497.80, 501.05 497.39, 502.45 496.72 C 503.85 496.05, 504.56 495.77, 505.78 495.31 C 506.99 494.85, 507.57 494.68, 508.53 494.43 C 509.49 494.17, 509.90 494.11, 510.57 494.04 C 511.24 493.97, 511.48 494.00, 511.87 494.07 C 512.26 494.14, 512.35 494.25, 512.51 494.37 C 512.68 494.49, 512.60 494.61, 512.70 494.69 C 512.79 494.76, 512.81 494.76, 512.99 494.74 C 513.18 494.72, 513.41 494.73, 513.63 494.61 C 513.85 494.49, 513.96 494.45, 514.08 494.15 C 514.20 493.84, 514.18 493.60, 514.23 493.10 C 514.28 492.59, 514.24 492.23, 514.34 491.62 C 514.44 491.02, 514.51 490.64, 514.74 490.06 C 514.97 489.48, 515.12 489.19, 515.49 488.73 C 515.87 488.28, 516.09 488.08, 516.62 487.79 C 517.16 487.50, 517.47 487.42, 518.18 487.30 C 518.88 487.18, 519.30 487.17, 520.14 487.18 C 520.99 487.18, 521.47 487.23, 522.41 487.33 C 523.35 487.42, 523.87 487.51, 524.84 487.66 C 525.82 487.80, 526.35 487.91, 527.29 488.04 C 528.24 488.17, 528.73 488.25, 529.57 488.31 C 530.41 488.38, 530.83 488.42, 531.50 488.38 C 532.17 488.35, 532.49 488.34, 532.92 488.15 C 533.35 487.95, 533.54 487.77, 533.65 487.41 C 533.76 487.06, 533.73 486.72, 533.46 486.38 C 533.19 486.03, 532.90 485.81, 532.29 485.69 C 531.67 485.58, 531.21 485.60, 530.40 485.81 C 529.58 486.02, 529.06 486.24, 528.19 486.74 C 527.32 487.24, 526.80 487.60, 526.04 488.31 C 525.27 489.03, 524.87 489.49, 524.36 490.30 C 523.85 491.11, 523.63 491.58, 523.49 492.35 C 523.34 493.13, 523.38 493.56, 523.63 494.16 C 523.89 494.77, 524.18 495.07, 524.77 495.38 C 525.36 495.69, 525.80 495.77, 526.60 495.73 C 527.39 495.69, 527.89 495.53, 528.75 495.17 C 529.61 494.81, 530.09 494.48, 530.90 493.93 C 531.71 493.37, 532.16 492.98, 532.80 492.38 C 533.45 491.78, 533.77 491.39, 534.11 490.93 C 534.45 490.47, 534.48 490.21, 534.50 490.08 C 534.53 489.95, 534.37 490.00, 534.25 490.28 C 534.13 490.56, 533.94 490.88, 533.92 491.49 C 533.90 492.10, 533.90 492.61, 534.13 493.32 C 534.37 494.03, 534.62 494.48, 535.11 495.05 C 535.59 495.63, 535.89 495.91, 536.56 496.19 C 537.23 496.48, 537.64 496.57, 538.46 496.48 C 539.27 496.39, 539.74 496.25, 540.63 495.73 C 541.52 495.21, 541.98 494.83, 542.90 493.90 C 543.82 492.96, 544.31 492.35, 545.24 491.04 C 546.16 489.74, 546.63 488.92, 547.51 487.36 C 548.39 485.80, 548.85 484.86, 549.63 483.23 C 550.41 481.60, 550.79 480.69, 551.42 479.21 C 552.04 477.72, 552.36 476.97, 552.76 475.81 C 553.16 474.64, 553.34 474.06, 553.42 473.38 C 553.50 472.69, 553.38 472.43, 553.17 472.38 C 552.95 472.33, 552.67 472.49, 552.35 473.13 C 552.02 473.77, 551.81 474.34, 551.53 475.57 C 551.26 476.80, 551.17 477.70, 550.97 479.28 C 550.77 480.85, 550.69 481.84, 550.53 483.47 C 550.37 485.09, 550.29 485.97, 550.17 487.42 C 550.06 488.87, 550.02 489.58, 549.97 490.70 C 549.92 491.83, 549.89 492.32, 549.91 493.06 C 549.94 493.81, 550.01 494.04, 550.08 494.43 C 550.15 494.81, 550.16 494.87, 550.27 494.99 C 550.38 495.12, 550.48 495.16, 550.64 495.07 C 550.79 494.98, 550.88 494.92, 551.05 494.55 C 551.21 494.17, 551.32 493.92, 551.46 493.19 C 551.60 492.45, 551.61 491.96, 551.75 490.85 C 551.88 489.74, 551.95 489.05, 552.14 487.63 C 552.33 486.21, 552.46 485.35, 552.72 483.75 C 552.97 482.15, 553.18 481.19, 553.42 479.63 C 553.67 478.06, 553.86 477.19, 553.96 475.93 C 554.05 474.67, 554.05 474.07, 553.90 473.33 C 553.76 472.59, 553.55 472.32, 553.21 472.23 C 552.87 472.14, 552.62 472.30, 552.19 472.88 C 551.76 473.45, 551.57 474.01, 551.05 475.12 C 550.53 476.22, 550.26 476.97, 549.60 478.40 C 548.94 479.84, 548.53 480.72, 547.73 482.30 C 546.94 483.87, 546.47 484.79, 545.62 486.29 C 544.76 487.78, 544.30 488.56, 543.44 489.79 C 542.59 491.01, 542.12 491.56, 541.34 492.41 C 540.56 493.27, 540.18 493.57, 539.54 494.05 C 538.90 494.52, 538.61 494.64, 538.14 494.78 C 537.68 494.93, 537.50 494.92, 537.21 494.77 C 536.93 494.62, 536.86 494.45, 536.71 494.03 C 536.57 493.61, 536.60 493.26, 536.49 492.69 C 536.38 492.11, 536.37 491.71, 536.17 491.14 C 535.96 490.57, 535.83 490.22, 535.47 489.84 C 535.11 489.45, 534.87 489.27, 534.38 489.22 C 533.88 489.16, 533.59 489.27, 533.00 489.57 C 532.41 489.88, 532.10 490.24, 531.43 490.74 C 530.76 491.24, 530.37 491.59, 529.65 492.08 C 528.93 492.56, 528.49 492.80, 527.82 493.14 C 527.14 493.49, 526.78 493.62, 526.28 493.80 C 525.77 493.97, 525.56 494.04, 525.28 494.02 C 525.00 494.01, 524.91 493.97, 524.88 493.73 C 524.84 493.49, 524.87 493.29, 525.10 492.84 C 525.32 492.38, 525.51 492.04, 525.99 491.46 C 526.46 490.89, 526.82 490.50, 527.48 489.96 C 528.14 489.42, 528.58 489.12, 529.29 488.75 C 530.00 488.38, 530.43 488.29, 531.03 488.11 C 531.63 487.93, 531.92 487.96, 532.31 487.84 C 532.71 487.71, 532.84 487.65, 533.01 487.49 C 533.18 487.32, 533.23 487.17, 533.17 487.01 C 533.11 486.86, 533.03 486.80, 532.70 486.72 C 532.38 486.64, 532.12 486.67, 531.53 486.61 C 530.95 486.55, 530.56 486.54, 529.77 486.43 C 528.98 486.33, 528.51 486.24, 527.59 486.09 C 526.67 485.93, 526.15 485.81, 525.15 485.65 C 524.16 485.49, 523.62 485.38, 522.61 485.28 C 521.61 485.19, 521.09 485.13, 520.12 485.15 C 519.16 485.18, 518.66 485.20, 517.79 485.41 C 516.91 485.61, 516.48 485.77, 515.74 486.18 C 515.00 486.59, 514.67 486.87, 514.10 487.47 C 513.52 488.06, 513.28 488.43, 512.88 489.15 C 512.47 489.87, 512.30 490.31, 512.07 491.07 C 511.84 491.83, 511.74 492.27, 511.72 492.93 C 511.69 493.60, 511.74 493.96, 511.94 494.40 C 512.15 494.84, 512.40 495.02, 512.76 495.14 C 513.12 495.25, 513.49 495.16, 513.74 494.96 C 513.98 494.77, 514.04 494.48, 513.97 494.15 C 513.89 493.82, 513.71 493.60, 513.35 493.31 C 513.00 493.02, 512.78 492.87, 512.20 492.70 C 511.63 492.53, 511.29 492.47, 510.48 492.48 C 509.67 492.50, 509.20 492.55, 508.14 492.77 C 507.07 492.99, 506.47 493.15, 505.16 493.59 C 503.86 494.04, 503.11 494.31, 501.64 494.98 C 500.16 495.65, 499.33 496.06, 497.79 496.95 C 496.25 497.84, 495.41 498.35, 493.93 499.43 C 492.45 500.51, 491.68 501.11, 490.40 502.34 C 489.13 503.56, 488.49 504.24, 487.55 505.55 C 486.61 506.87, 486.20 507.58, 485.69 508.92 C 485.18 510.25, 485.03 510.97, 485.01 512.22 C 484.99 513.47, 485.14 514.14, 485.59 515.16 C 486.05 516.19, 486.47 516.69, 487.30 517.35 C 488.13 518.02, 488.70 518.28, 489.74 518.50 C 490.78 518.72, 491.42 518.71, 492.50 518.48 C 493.59 518.25, 494.18 517.99, 495.16 517.35 C 496.14 516.72, 496.62 516.28, 497.41 515.29 C 498.20 514.30, 498.54 513.70, 499.10 512.42 C 499.66 511.15, 499.87 510.41, 500.21 508.92 C 500.55 507.42, 500.64 506.58, 500.81 504.97 C 500.97 503.35, 500.98 502.46, 501.05 500.84 C 501.12 499.21, 501.11 498.33, 501.14 496.83 C 501.18 495.33, 501.22 494.56, 501.22 493.32 C 501.22 492.08, 501.26 491.52, 501.15 490.65 C 501.03 489.77, 500.95 489.42, 500.66 488.95 C 500.37 488.48, 500.14 488.34, 499.70 488.30 C 499.25 488.25, 499.01 488.37, 498.45 488.72 C 497.89 489.06, 497.60 489.42, 496.87 490.03 C 496.15 490.64, 495.70 491.08, 494.82 491.76 C 493.93 492.45, 493.37 492.85, 492.45 493.44 C 491.52 494.02, 490.97 494.30, 490.18 494.69 C 489.38 495.09, 488.99 495.25, 488.47 495.42 C 487.96 495.60, 487.78 495.65, 487.61 495.56 C 487.44 495.47, 487.46 495.34, 487.64 494.96 C 487.81 494.58, 488.00 494.25, 488.50 493.67 C 488.99 493.09, 489.37 492.66, 490.10 492.05 C 490.83 491.44, 491.33 491.06, 492.15 490.61 C 492.97 490.16, 493.44 490.00, 494.21 489.80 C 494.97 489.61, 495.38 489.66, 495.98 489.63 C 496.59 489.60, 496.82 489.66, 497.25 489.64 C 497.68 489.63, 497.89 489.72, 498.14 489.56 C 498.38 489.40, 498.55 489.15, 498.46 488.84" style="stroke: black; fill: black;"/><path d="M 545.83,489.56 C 546.03 489.79, 546.23 489.87, 546.81 489.99 C 547.38 490.12, 547.76 490.18, 548.69 490.20 C 549.62 490.22, 550.25 490.19, 551.45 490.09 C 552.65 489.99, 553.38 489.90, 554.69 489.70 C 556.00 489.50, 556.73 489.38, 558.00 489.10 C 559.28 488.83, 559.95 488.67, 561.08 488.32 C 562.22 487.97, 562.77 487.78, 563.67 487.37 C 564.56 486.96, 564.99 486.75, 565.56 486.26 C 566.13 485.78, 566.37 485.50, 566.52 484.96 C 566.68 484.43, 566.64 484.05, 566.34 483.60 C 566.04 483.15, 565.70 482.87, 565.03 482.70 C 564.35 482.53, 563.82 482.53, 562.96 482.77 C 562.10 483.00, 561.54 483.27, 560.71 483.88 C 559.87 484.49, 559.39 484.93, 558.77 485.80 C 558.15 486.67, 557.85 487.22, 557.60 488.23 C 557.35 489.24, 557.29 489.84, 557.51 490.84 C 557.74 491.84, 558.00 492.39, 558.70 493.21 C 559.41 494.02, 559.94 494.42, 561.05 494.91 C 562.16 495.40, 562.87 495.57, 564.25 495.67 C 565.62 495.77, 566.42 495.71, 567.92 495.42 C 569.43 495.13, 570.26 494.87, 571.78 494.21 C 573.30 493.55, 574.10 493.11, 575.51 492.11 C 576.92 491.12, 577.63 490.52, 578.85 489.24 C 580.07 487.97, 580.66 487.22, 581.61 485.75 C 582.57 484.28, 582.99 483.43, 583.63 481.88 C 584.26 480.32, 584.49 479.47, 584.78 477.99 C 585.08 476.51, 585.13 475.75, 585.10 474.47 C 585.08 473.19, 584.97 472.57, 584.65 471.60 C 584.34 470.62, 584.08 470.18, 583.53 469.61 C 582.97 469.04, 582.58 468.82, 581.86 468.74 C 581.14 468.66, 580.68 468.71, 579.93 469.19 C 579.17 469.67, 578.76 470.06, 578.09 471.14 C 577.41 472.21, 577.09 472.95, 576.55 474.57 C 576.00 476.19, 575.75 477.22, 575.34 479.24 C 574.93 481.27, 574.75 482.47, 574.48 484.68 C 574.20 486.89, 574.11 488.12, 573.96 490.29 C 573.80 492.45, 573.78 493.58, 573.70 495.51 C 573.62 497.44, 573.62 498.37, 573.57 499.93 C 573.52 501.49, 573.49 502.20, 573.45 503.30 C 573.41 504.40, 573.36 504.84, 573.36 505.42 C 573.36 506.01, 573.41 506.19, 573.45 506.22 C 573.49 506.26, 573.61 506.09, 573.57 505.60 C 573.53 505.10, 573.47 504.65, 573.26 503.75 C 573.06 502.86, 572.84 502.24, 572.54 501.13 C 572.24 500.02, 572.01 499.32, 571.77 498.20 C 571.53 497.08, 571.40 496.49, 571.33 495.52 C 571.27 494.55, 571.26 494.12, 571.42 493.34 C 571.59 492.56, 571.73 492.25, 572.16 491.62 C 572.59 491.00, 572.89 490.74, 573.59 490.22 C 574.29 489.70, 574.73 489.46, 575.66 489.02 C 576.58 488.58, 577.15 488.38, 578.22 488.02 C 579.28 487.65, 579.91 487.48, 580.97 487.21 C 582.03 486.93, 582.60 486.81, 583.52 486.62 C 584.44 486.43, 584.91 486.37, 585.59 486.28 C 586.27 486.18, 586.57 486.10, 586.92 486.12 C 587.27 486.15, 587.29 486.15, 587.35 486.38 C 587.40 486.62, 587.27 486.82, 587.19 487.30 C 587.10 487.78, 586.97 488.13, 586.93 488.78 C 586.88 489.43, 586.84 489.86, 586.95 490.53 C 587.07 491.20, 587.16 491.61, 587.51 492.14 C 587.87 492.68, 588.13 492.94, 588.71 493.21 C 589.28 493.48, 589.66 493.55, 590.39 493.49 C 591.11 493.44, 591.55 493.30, 592.34 492.94 C 593.14 492.57, 593.60 492.24, 594.37 491.67 C 595.15 491.09, 595.58 490.69, 596.24 490.06 C 596.89 489.44, 597.24 489.03, 597.65 488.54 C 598.06 488.04, 598.17 487.78, 598.30 487.59 C 598.44 487.40, 598.35 487.40, 598.32 487.59 C 598.30 487.78, 598.15 488.02, 598.16 488.52 C 598.18 489.02, 598.18 489.45, 598.41 490.08 C 598.65 490.71, 598.88 491.11, 599.35 491.66 C 599.83 492.20, 600.12 492.49, 600.77 492.81 C 601.42 493.13, 601.81 493.26, 602.60 493.27 C 603.39 493.28, 603.84 493.21, 604.72 492.86 C 605.61 492.51, 606.09 492.23, 607.03 491.51 C 607.96 490.79, 608.47 490.32, 609.41 489.25 C 610.36 488.17, 610.86 487.52, 611.76 486.15 C 612.66 484.79, 613.12 483.97, 613.90 482.42 C 614.67 480.87, 615.06 479.99, 615.64 478.41 C 616.23 476.83, 616.48 475.97, 616.82 474.52 C 617.16 473.07, 617.26 472.34, 617.33 471.15 C 617.39 469.97, 617.37 469.42, 617.13 468.59 C 616.89 467.76, 616.67 467.39, 616.13 466.99 C 615.60 466.59, 615.18 466.46, 614.44 466.60 C 613.70 466.74, 613.22 466.96, 612.43 467.69 C 611.64 468.42, 611.20 468.99, 610.49 470.27 C 609.77 471.54, 609.41 472.40, 608.86 474.06 C 608.31 475.72, 608.04 476.74, 607.74 478.56 C 607.43 480.38, 607.33 481.39, 607.34 483.15 C 607.34 484.91, 607.43 485.81, 607.77 487.35 C 608.10 488.88, 608.34 489.61, 608.99 490.84 C 609.64 492.06, 610.07 492.60, 611.02 493.46 C 611.97 494.32, 612.55 494.67, 613.73 495.14 C 614.90 495.62, 615.68 495.74, 616.88 495.83 C 618.09 495.91, 618.80 495.80, 619.75 495.57 C 620.70 495.34, 621.28 495.00, 621.63 494.68 C 621.97 494.36, 621.89 494.12, 621.48 493.96 C 621.06 493.80, 620.46 493.91, 619.57 493.88 C 618.68 493.86, 618.08 493.92, 617.04 493.82 C 616.00 493.73, 615.34 493.75, 614.37 493.42 C 613.39 493.10, 612.92 492.87, 612.15 492.20 C 611.38 491.52, 611.04 491.09, 610.52 490.05 C 610.00 489.01, 609.81 488.37, 609.57 486.99 C 609.33 485.62, 609.27 484.79, 609.32 483.18 C 609.38 481.57, 609.51 480.62, 609.85 478.94 C 610.19 477.27, 610.48 476.31, 611.01 474.79 C 611.54 473.27, 611.93 472.50, 612.51 471.35 C 613.10 470.20, 613.46 469.73, 613.94 469.03 C 614.42 468.33, 614.61 468.12, 614.91 467.87 C 615.20 467.63, 615.27 467.62, 615.42 467.81 C 615.58 468.01, 615.65 468.22, 615.68 468.86 C 615.71 469.49, 615.72 469.95, 615.58 470.99 C 615.44 472.03, 615.33 472.71, 614.96 474.05 C 614.59 475.39, 614.34 476.20, 613.75 477.68 C 613.16 479.17, 612.78 480.01, 612.02 481.46 C 611.27 482.92, 610.82 483.70, 609.97 484.97 C 609.13 486.24, 608.65 486.85, 607.80 487.83 C 606.95 488.81, 606.49 489.21, 605.71 489.86 C 604.93 490.51, 604.54 490.74, 603.91 491.07 C 603.28 491.40, 603.01 491.47, 602.55 491.52 C 602.08 491.57, 601.89 491.52, 601.59 491.32 C 601.28 491.12, 601.20 490.93, 601.01 490.52 C 600.82 490.11, 600.82 489.78, 600.64 489.26 C 600.46 488.74, 600.37 488.39, 600.08 487.91 C 599.79 487.43, 599.61 487.14, 599.17 486.86 C 598.74 486.57, 598.47 486.45, 597.92 486.49 C 597.37 486.54, 597.06 486.72, 596.43 487.10 C 595.81 487.48, 595.48 487.87, 594.79 488.41 C 594.11 488.96, 593.71 489.32, 593.02 489.84 C 592.32 490.35, 591.92 490.62, 591.32 490.99 C 590.72 491.36, 590.44 491.51, 590.03 491.69 C 589.61 491.86, 589.46 491.90, 589.25 491.86 C 589.04 491.81, 589.00 491.74, 588.96 491.45 C 588.92 491.16, 588.99 490.92, 589.04 490.41 C 589.09 489.90, 589.19 489.52, 589.20 488.88 C 589.22 488.24, 589.24 487.83, 589.09 487.20 C 588.95 486.56, 588.84 486.20, 588.48 485.72 C 588.11 485.25, 587.87 485.05, 587.28 484.81 C 586.68 484.58, 586.31 484.57, 585.50 484.55 C 584.68 484.54, 584.21 484.61, 583.21 484.74 C 582.20 484.88, 581.62 484.97, 580.49 485.23 C 579.35 485.49, 578.69 485.64, 577.54 486.04 C 576.39 486.43, 575.77 486.66, 574.74 487.21 C 573.71 487.75, 573.21 488.06, 572.41 488.76 C 571.61 489.45, 571.26 489.85, 570.73 490.69 C 570.21 491.53, 570.04 491.98, 569.78 492.95 C 569.53 493.93, 569.49 494.44, 569.46 495.56 C 569.43 496.67, 569.49 497.31, 569.63 498.55 C 569.76 499.78, 569.88 500.53, 570.16 501.73 C 570.44 502.93, 570.60 503.60, 571.03 504.53 C 571.46 505.46, 571.77 505.91, 572.30 506.36 C 572.82 506.81, 573.19 506.89, 573.66 506.76 C 574.12 506.63, 574.33 506.38, 574.62 505.71 C 574.91 505.05, 574.95 504.58, 575.10 503.44 C 575.25 502.30, 575.27 501.59, 575.37 500.02 C 575.47 498.45, 575.49 497.52, 575.62 495.61 C 575.74 493.70, 575.79 492.58, 575.99 490.46 C 576.19 488.33, 576.31 487.12, 576.62 484.97 C 576.93 482.82, 577.12 481.65, 577.54 479.71 C 577.96 477.77, 578.23 476.79, 578.70 475.27 C 579.17 473.76, 579.46 473.11, 579.91 472.15 C 580.36 471.18, 580.59 470.89, 580.96 470.46 C 581.32 470.02, 581.45 469.97, 581.74 469.99 C 582.04 470.00, 582.17 470.11, 582.43 470.52 C 582.70 470.93, 582.88 471.25, 583.06 472.04 C 583.23 472.83, 583.34 473.36, 583.32 474.47 C 583.29 475.58, 583.24 476.27, 582.94 477.60 C 582.65 478.94, 582.43 479.72, 581.84 481.13 C 581.24 482.55, 580.85 483.33, 579.97 484.68 C 579.09 486.03, 578.55 486.72, 577.43 487.88 C 576.31 489.04, 575.66 489.58, 574.37 490.47 C 573.08 491.37, 572.34 491.75, 570.97 492.34 C 569.60 492.93, 568.85 493.14, 567.53 493.40 C 566.21 493.66, 565.52 493.69, 564.37 493.64 C 563.22 493.58, 562.66 493.45, 561.79 493.12 C 560.92 492.79, 560.54 492.53, 560.03 492.00 C 559.52 491.47, 559.35 491.13, 559.22 490.48 C 559.09 489.83, 559.16 489.43, 559.40 488.75 C 559.63 488.07, 559.89 487.67, 560.41 487.07 C 560.93 486.47, 561.34 486.16, 561.99 485.74 C 562.64 485.31, 563.08 485.18, 563.67 484.94 C 564.26 484.70, 564.57 484.65, 564.95 484.53 C 565.33 484.41, 565.46 484.35, 565.57 484.33 C 565.68 484.32, 565.69 484.31, 565.51 484.43 C 565.32 484.56, 565.16 484.69, 564.66 484.94 C 564.15 485.19, 563.79 485.39, 562.97 485.70 C 562.15 486.00, 561.63 486.18, 560.56 486.46 C 559.49 486.74, 558.84 486.88, 557.61 487.09 C 556.38 487.31, 555.68 487.39, 554.41 487.52 C 553.14 487.65, 552.44 487.66, 551.27 487.74 C 550.10 487.82, 549.48 487.81, 548.57 487.93 C 547.66 488.05, 547.28 488.15, 546.73 488.33 C 546.17 488.51, 545.98 488.59, 545.80 488.84 C 545.62 489.08, 545.63 489.33, 545.83 489.56" style="stroke: black; fill: black;"/><path d="M 654.71,468.12 C 654.48 468.35, 654.43 468.57, 654.26 469.29 C 654.10 470.01, 654.01 470.49, 653.88 471.72 C 653.74 472.94, 653.72 473.78, 653.59 475.41 C 653.47 477.03, 653.41 478.05, 653.25 479.86 C 653.09 481.67, 652.98 482.70, 652.79 484.45 C 652.60 486.21, 652.49 487.12, 652.32 488.63 C 652.15 490.15, 652.06 490.88, 651.95 492.03 C 651.83 493.19, 651.76 493.68, 651.75 494.41 C 651.73 495.14, 651.81 495.34, 651.86 495.70 C 651.92 496.05, 651.93 496.07, 652.02 496.18 C 652.12 496.29, 652.19 496.33, 652.33 496.26 C 652.48 496.20, 652.55 496.18, 652.73 495.85 C 652.91 495.52, 653.03 495.34, 653.23 494.62 C 653.42 493.90, 653.48 493.41, 653.68 492.27 C 653.88 491.12, 653.98 490.40, 654.22 488.88 C 654.45 487.37, 654.59 486.47, 654.84 484.71 C 655.10 482.95, 655.25 481.92, 655.48 480.10 C 655.71 478.27, 655.84 477.25, 655.97 475.59 C 656.11 473.94, 656.17 473.09, 656.15 471.83 C 656.14 470.57, 656.05 470.05, 655.90 469.31 C 655.75 468.56, 655.65 468.34, 655.41 468.10 C 655.17 467.86, 654.94 467.88, 654.71 468.12" style="stroke: black; fill: black;"/><path d="M 646.68,486.39 C 646.88 486.61, 647.06 486.68, 647.64 486.78 C 648.22 486.88, 648.61 486.93, 649.57 486.89 C 650.52 486.85, 651.17 486.79, 652.42 486.58 C 653.67 486.37, 654.44 486.21, 655.82 485.84 C 657.20 485.47, 657.95 485.25, 659.32 484.72 C 660.68 484.20, 661.39 483.90, 662.64 483.21 C 663.89 482.53, 664.50 482.15, 665.56 481.31 C 666.62 480.47, 667.11 479.99, 667.93 479.02 C 668.75 478.05, 669.13 477.49, 669.66 476.46 C 670.19 475.43, 670.38 474.85, 670.58 473.88 C 670.78 472.92, 670.80 472.39, 670.64 471.64 C 670.49 470.89, 670.28 470.51, 669.81 470.14 C 669.34 469.78, 668.92 469.66, 668.31 469.81 C 667.69 469.97, 667.28 470.21, 666.73 470.93 C 666.17 471.65, 665.92 472.21, 665.53 473.42 C 665.14 474.63, 665.00 475.44, 664.78 476.96 C 664.55 478.49, 664.49 479.42, 664.40 481.03 C 664.32 482.64, 664.32 483.54, 664.37 485.01 C 664.42 486.48, 664.46 487.21, 664.64 488.39 C 664.83 489.57, 664.94 490.10, 665.31 490.90 C 665.67 491.71, 665.90 492.02, 666.46 492.43 C 667.03 492.84, 667.39 492.95, 668.13 492.96 C 668.87 492.97, 669.32 492.84, 670.16 492.49 C 671.00 492.14, 671.49 491.78, 672.34 491.20 C 673.20 490.62, 673.67 490.17, 674.44 489.59 C 675.22 489.01, 675.61 488.67, 676.21 488.28 C 676.80 487.90, 677.04 487.75, 677.42 487.68 C 677.79 487.61, 677.87 487.67, 678.07 487.92 C 678.28 488.16, 678.27 488.41, 678.43 488.91 C 678.59 489.40, 678.63 489.76, 678.87 490.37 C 679.11 490.98, 679.25 491.37, 679.64 491.96 C 680.03 492.55, 680.26 492.88, 680.82 493.31 C 681.38 493.74, 681.71 493.94, 682.43 494.12 C 683.15 494.29, 683.57 494.32, 684.41 494.19 C 685.25 494.05, 685.73 493.89, 686.63 493.46 C 687.53 493.03, 688.03 492.69, 688.91 492.04 C 689.79 491.38, 690.27 490.93, 691.04 490.17 C 691.82 489.40, 692.22 488.96, 692.79 488.21 C 693.36 487.47, 693.64 487.08, 693.88 486.45 C 694.11 485.81, 694.13 485.46, 693.95 485.02 C 693.76 484.59, 693.49 484.36, 692.96 484.27 C 692.43 484.18, 692.00 484.22, 691.31 484.55 C 690.62 484.89, 690.19 485.24, 689.51 485.93 C 688.82 486.63, 688.45 487.15, 687.90 488.03 C 687.35 488.91, 687.04 489.44, 686.73 490.31 C 686.43 491.17, 686.33 491.65, 686.38 492.36 C 686.43 493.06, 686.57 493.40, 686.98 493.83 C 687.38 494.25, 687.74 494.42, 688.40 494.47 C 689.06 494.53, 689.50 494.43, 690.27 494.10 C 691.03 493.77, 691.48 493.45, 692.23 492.84 C 692.97 492.22, 693.42 491.72, 693.99 491.03 C 694.57 490.34, 694.84 489.88, 695.13 489.38 C 695.41 488.88, 695.42 488.65, 695.41 488.53 C 695.41 488.41, 695.26 488.47, 695.12 488.79 C 694.98 489.10, 694.76 489.46, 694.72 490.09 C 694.68 490.73, 694.70 491.25, 694.91 491.95 C 695.12 492.65, 695.34 493.04, 695.77 493.60 C 696.19 494.15, 696.48 494.53, 697.04 494.73 C 697.60 494.93, 698.24 494.80, 698.56 494.60 C 698.88 494.39, 698.81 493.95, 698.64 493.70 C 698.47 493.46, 697.96 493.55, 697.71 493.36 C 697.45 493.16, 697.44 493.11, 697.36 492.73 C 697.27 492.34, 697.33 492.03, 697.27 491.45 C 697.22 490.87, 697.24 490.46, 697.07 489.85 C 696.90 489.24, 696.77 488.84, 696.42 488.42 C 696.07 487.99, 695.84 487.79, 695.33 487.73 C 694.83 487.66, 694.50 487.74, 693.90 488.08 C 693.30 488.42, 692.96 488.83, 692.31 489.42 C 691.67 490.00, 691.29 490.46, 690.66 491.02 C 690.04 491.58, 689.70 491.85, 689.21 492.23 C 688.72 492.62, 688.50 492.78, 688.21 492.95 C 687.92 493.12, 687.83 493.18, 687.77 493.10 C 687.71 493.01, 687.74 492.90, 687.90 492.52 C 688.06 492.13, 688.20 491.79, 688.58 491.16 C 688.97 490.52, 689.26 490.06, 689.80 489.36 C 690.35 488.65, 690.75 488.25, 691.31 487.65 C 691.87 487.04, 692.20 486.76, 692.58 486.31 C 692.97 485.86, 693.11 485.65, 693.23 485.40 C 693.34 485.16, 693.31 485.04, 693.16 485.08 C 693.01 485.12, 692.86 485.24, 692.49 485.61 C 692.11 485.98, 691.86 486.32, 691.28 486.92 C 690.70 487.52, 690.31 487.95, 689.57 488.62 C 688.83 489.29, 688.38 489.69, 687.60 490.28 C 686.81 490.87, 686.37 491.16, 685.65 491.57 C 684.93 491.97, 684.58 492.13, 684.00 492.31 C 683.43 492.48, 683.19 492.52, 682.78 492.46 C 682.37 492.40, 682.23 492.30, 681.95 492.00 C 681.67 491.71, 681.60 491.47, 681.38 490.98 C 681.16 490.49, 681.11 490.14, 680.85 489.55 C 680.60 488.96, 680.49 488.59, 680.11 488.04 C 679.73 487.49, 679.51 487.17, 678.96 486.81 C 678.41 486.46, 678.08 486.30, 677.37 486.26 C 676.66 486.22, 676.24 486.31, 675.41 486.61 C 674.58 486.91, 674.09 487.22, 673.21 487.76 C 672.33 488.29, 671.81 488.69, 671.00 489.27 C 670.19 489.86, 669.78 490.22, 669.16 490.67 C 668.55 491.12, 668.33 491.35, 667.94 491.51 C 667.54 491.67, 667.45 491.71, 667.21 491.48 C 666.97 491.26, 666.88 491.06, 666.73 490.40 C 666.57 489.74, 666.50 489.27, 666.44 488.19 C 666.37 487.11, 666.35 486.40, 666.39 485.00 C 666.42 483.60, 666.46 482.72, 666.60 481.18 C 666.74 479.65, 666.85 478.75, 667.08 477.33 C 667.32 475.90, 667.51 475.15, 667.78 474.06 C 668.04 472.98, 668.22 472.53, 668.43 471.89 C 668.64 471.26, 668.72 471.10, 668.84 470.90 C 668.95 470.70, 668.96 470.72, 669.00 470.90 C 669.04 471.08, 669.08 471.28, 669.04 471.79 C 669.01 472.31, 669.03 472.71, 668.82 473.47 C 668.61 474.23, 668.47 474.73, 668.01 475.60 C 667.54 476.46, 667.23 476.97, 666.51 477.81 C 665.79 478.66, 665.36 479.09, 664.40 479.83 C 663.45 480.57, 662.89 480.91, 661.73 481.50 C 660.57 482.10, 659.90 482.36, 658.62 482.81 C 657.33 483.25, 656.61 483.42, 655.30 483.71 C 653.98 484.00, 653.24 484.05, 652.04 484.24 C 650.84 484.42, 650.21 484.45, 649.30 484.63 C 648.39 484.81, 648.02 484.93, 647.48 485.14 C 646.95 485.35, 646.78 485.43, 646.62 485.68 C 646.46 485.93, 646.47 486.17, 646.68 486.39" style="stroke: black; fill: black;"/><path d="M 710.57,467.84 C 710.32 468.06, 710.25 468.24, 710.04 468.94 C 709.83 469.64, 709.71 470.12, 709.51 471.33 C 709.31 472.54, 709.23 473.38, 709.04 474.99 C 708.86 476.60, 708.77 477.62, 708.59 479.37 C 708.40 481.13, 708.30 482.11, 708.14 483.75 C 707.99 485.38, 707.90 486.20, 707.81 487.54 C 707.73 488.87, 707.71 489.53, 707.72 490.43 C 707.73 491.34, 707.76 491.61, 707.86 492.07 C 707.95 492.53, 708.08 492.59, 708.19 492.73 C 708.30 492.87, 708.36 492.76, 708.42 492.76 C 708.47 492.77, 708.40 492.77, 708.46 492.77 C 708.51 492.77, 708.57 492.88, 708.69 492.75 C 708.82 492.61, 708.94 492.55, 709.06 492.11 C 709.19 491.67, 709.21 491.42, 709.33 490.54 C 709.46 489.66, 709.51 489.02, 709.67 487.71 C 709.84 486.40, 709.94 485.60, 710.17 483.99 C 710.40 482.37, 710.57 481.40, 710.82 479.65 C 711.08 477.91, 711.25 476.89, 711.45 475.27 C 711.64 473.66, 711.75 472.80, 711.80 471.56 C 711.84 470.32, 711.78 469.79, 711.67 469.06 C 711.56 468.32, 711.48 468.12, 711.26 467.88 C 711.04 467.63, 710.81 467.63, 710.57 467.84" style="stroke: black; fill: black;"/><path d="M 704.01,484.99 C 704.26 485.19, 704.50 485.21, 705.15 485.26 C 705.81 485.32, 706.25 485.31, 707.27 485.26 C 708.30 485.21, 708.98 485.13, 710.28 485.02 C 711.58 484.91, 712.37 484.84, 713.77 484.73 C 715.17 484.62, 716.01 484.60, 717.26 484.47 C 718.50 484.33, 719.11 484.23, 720.00 484.05 C 720.89 483.87, 721.37 483.77, 721.70 483.55 C 722.04 483.32, 722.03 483.13, 721.68 482.93 C 721.33 482.73, 720.84 482.66, 719.94 482.56 C 719.03 482.45, 718.42 482.42, 717.16 482.41 C 715.90 482.39, 715.05 482.43, 713.64 482.48 C 712.23 482.53, 711.42 482.55, 710.09 482.66 C 708.76 482.76, 708.05 482.80, 707.01 482.99 C 705.97 483.18, 705.52 483.35, 704.89 483.60 C 704.27 483.86, 704.06 483.99, 703.88 484.27 C 703.70 484.55, 703.75 484.79, 704.01 484.99" style="stroke: black; fill: black;"/><path d="M 746.69,483.59 C 746.44 483.78, 746.34 483.99, 746.19 484.54 C 746.04 485.08, 745.94 485.49, 745.96 486.33 C 745.98 487.16, 746.04 487.78, 746.29 488.72 C 746.54 489.67, 746.75 490.23, 747.20 491.05 C 747.66 491.88, 747.93 492.29, 748.56 492.85 C 749.20 493.42, 749.58 493.66, 750.37 493.86 C 751.15 494.07, 751.62 494.08, 752.50 493.90 C 753.39 493.71, 753.88 493.50, 754.79 492.95 C 755.70 492.40, 756.19 491.98, 757.05 491.15 C 757.91 490.33, 758.36 489.76, 759.09 488.82 C 759.82 487.89, 760.19 487.31, 760.71 486.47 C 761.23 485.62, 761.48 485.18, 761.70 484.60 C 761.92 484.02, 761.89 483.75, 761.82 483.58 C 761.74 483.41, 761.52 483.41, 761.32 483.75 C 761.13 484.08, 760.96 484.41, 760.84 485.25 C 760.72 486.09, 760.72 486.69, 760.71 487.96 C 760.70 489.23, 760.77 490.03, 760.79 491.60 C 760.80 493.17, 760.82 494.08, 760.77 495.82 C 760.72 497.55, 760.71 498.51, 760.54 500.27 C 760.37 502.02, 760.27 502.95, 759.92 504.60 C 759.58 506.24, 759.36 507.08, 758.81 508.50 C 758.26 509.93, 757.92 510.61, 757.18 511.73 C 756.44 512.85, 755.98 513.35, 755.11 514.10 C 754.24 514.86, 753.72 515.15, 752.83 515.51 C 751.93 515.87, 751.43 515.95, 750.62 515.92 C 749.82 515.89, 749.40 515.75, 748.79 515.35 C 748.17 514.96, 747.89 514.64, 747.55 513.94 C 747.20 513.23, 747.07 512.77, 747.07 511.81 C 747.06 510.86, 747.13 510.27, 747.52 509.16 C 747.92 508.05, 748.22 507.43, 749.04 506.26 C 749.87 505.09, 750.43 504.45, 751.64 503.29 C 752.84 502.13, 753.59 501.54, 755.07 500.47 C 756.56 499.40, 757.42 498.88, 759.05 497.94 C 760.69 497.01, 761.60 496.58, 763.25 495.79 C 764.90 495.01, 765.77 494.65, 767.31 494.01 C 768.84 493.36, 769.62 493.09, 770.94 492.57 C 772.26 492.04, 772.88 491.83, 773.91 491.39 C 774.94 490.95, 775.38 490.77, 776.07 490.35 C 776.76 489.94, 777.03 489.76, 777.35 489.32 C 777.67 488.88, 777.74 488.62, 777.67 488.15 C 777.60 487.69, 777.44 487.37, 777.00 487.02 C 776.56 486.67, 776.19 486.49, 775.48 486.41 C 774.77 486.33, 774.30 486.38, 773.47 486.59 C 772.63 486.81, 772.13 487.00, 771.33 487.47 C 770.52 487.95, 770.04 488.28, 769.43 488.97 C 768.81 489.66, 768.51 490.12, 768.25 490.93 C 767.98 491.73, 767.93 492.23, 768.10 492.99 C 768.27 493.76, 768.51 494.19, 769.09 494.76 C 769.68 495.32, 770.16 495.57, 771.04 495.81 C 771.91 496.05, 772.49 496.07, 773.49 495.97 C 774.50 495.87, 775.08 495.70, 776.06 495.31 C 777.04 494.92, 777.56 494.64, 778.39 494.02 C 779.22 493.41, 779.62 493.02, 780.19 492.25 C 780.75 491.49, 780.98 491.01, 781.21 490.19 C 781.43 489.38, 781.43 488.90, 781.32 488.16 C 781.21 487.41, 781.01 487.01, 780.63 486.45 C 780.25 485.89, 779.91 485.63, 779.42 485.34 C 778.92 485.04, 778.58 485.01, 778.15 484.98 C 777.72 484.95, 777.51 485.07, 777.26 485.20 C 777.01 485.34, 776.93 485.47, 776.89 485.66 C 776.84 485.85, 776.94 486.02, 777.04 486.16 C 777.14 486.31, 777.23 486.30, 777.39 486.40 C 777.55 486.49, 777.63 486.53, 777.85 486.62 C 778.08 486.71, 778.24 486.69, 778.51 486.86 C 778.78 487.02, 778.98 487.13, 779.21 487.44 C 779.44 487.75, 779.58 487.96, 779.65 488.41 C 779.71 488.85, 779.72 489.15, 779.53 489.69 C 779.35 490.23, 779.17 490.56, 778.72 491.10 C 778.26 491.65, 777.92 491.95, 777.24 492.40 C 776.56 492.85, 776.11 493.07, 775.31 493.36 C 774.51 493.66, 774.02 493.77, 773.25 493.88 C 772.48 493.98, 772.06 493.98, 771.45 493.90 C 770.83 493.82, 770.54 493.72, 770.18 493.48 C 769.82 493.24, 769.70 493.07, 769.64 492.69 C 769.59 492.32, 769.66 492.06, 769.91 491.60 C 770.15 491.14, 770.39 490.84, 770.88 490.40 C 771.38 489.95, 771.75 489.70, 772.38 489.38 C 773.01 489.06, 773.42 488.95, 774.03 488.79 C 774.64 488.64, 774.97 488.66, 775.44 488.60 C 775.91 488.54, 776.12 488.53, 776.40 488.48 C 776.68 488.42, 776.80 488.34, 776.83 488.33 C 776.86 488.33, 776.83 488.32, 776.54 488.45 C 776.24 488.57, 776.02 488.70, 775.36 488.97 C 774.71 489.24, 774.28 489.42, 773.27 489.79 C 772.25 490.17, 771.62 490.37, 770.29 490.86 C 768.95 491.35, 768.16 491.62, 766.58 492.25 C 765.01 492.88, 764.12 493.23, 762.42 494.01 C 760.71 494.80, 759.77 495.23, 758.06 496.18 C 756.35 497.14, 755.44 497.67, 753.87 498.79 C 752.30 499.92, 751.50 500.54, 750.20 501.80 C 748.90 503.06, 748.27 503.75, 747.36 505.10 C 746.44 506.44, 746.07 507.17, 745.63 508.52 C 745.19 509.88, 745.09 510.63, 745.16 511.88 C 745.23 513.13, 745.43 513.78, 745.98 514.76 C 746.52 515.74, 746.97 516.21, 747.89 516.78 C 748.80 517.35, 749.42 517.54, 750.54 517.61 C 751.65 517.68, 752.31 517.56, 753.45 517.13 C 754.60 516.70, 755.21 516.33, 756.26 515.46 C 757.30 514.58, 757.82 514.00, 758.68 512.75 C 759.54 511.50, 759.92 510.74, 760.55 509.20 C 761.18 507.65, 761.43 506.76, 761.83 505.02 C 762.24 503.28, 762.36 502.31, 762.58 500.49 C 762.79 498.66, 762.82 497.68, 762.92 495.91 C 763.01 494.13, 763.01 493.20, 763.05 491.62 C 763.10 490.03, 763.13 489.24, 763.12 487.97 C 763.12 486.69, 763.16 486.12, 763.03 485.25 C 762.91 484.37, 762.80 484.03, 762.50 483.59 C 762.20 483.15, 761.96 483.03, 761.54 483.05 C 761.11 483.07, 760.87 483.22, 760.37 483.67 C 759.88 484.13, 759.64 484.55, 759.05 485.31 C 758.45 486.07, 758.11 486.61, 757.40 487.47 C 756.70 488.32, 756.27 488.83, 755.52 489.58 C 754.77 490.33, 754.34 490.70, 753.64 491.22 C 752.94 491.73, 752.60 491.94, 752.02 492.16 C 751.44 492.38, 751.20 492.43, 750.74 492.33 C 750.29 492.24, 750.10 492.09, 749.77 491.67 C 749.43 491.25, 749.29 490.91, 749.06 490.22 C 748.84 489.52, 748.78 489.02, 748.62 488.19 C 748.47 487.37, 748.44 486.83, 748.30 486.09 C 748.15 485.35, 748.09 484.99, 747.92 484.49 C 747.75 484.00, 747.68 483.78, 747.44 483.60 C 747.19 483.42, 746.94 483.40, 746.69 483.59" style="stroke: black; fill: black;"/><path d="M 787.22,486.02 C 786.92 486.14, 786.74 486.36, 786.45 486.83 C 786.17 487.31, 785.97 487.67, 785.78 488.40 C 785.60 489.14, 785.50 489.67, 785.52 490.49 C 785.55 491.30, 785.63 491.79, 785.92 492.49 C 786.22 493.19, 786.44 493.55, 786.99 493.99 C 787.54 494.43, 787.92 494.60, 788.69 494.70 C 789.45 494.80, 789.92 494.75, 790.83 494.49 C 791.73 494.23, 792.24 493.97, 793.19 493.40 C 794.14 492.83, 794.67 492.40, 795.57 491.65 C 796.48 490.90, 796.96 490.40, 797.71 489.66 C 798.45 488.91, 798.84 488.50, 799.29 487.93 C 799.74 487.36, 799.86 487.06, 799.97 486.81 C 800.07 486.56, 799.94 486.51, 799.82 486.67 C 799.69 486.82, 799.48 487.05, 799.37 487.58 C 799.25 488.11, 799.16 488.55, 799.24 489.30 C 799.32 490.06, 799.46 490.57, 799.77 491.37 C 800.08 492.18, 800.29 492.62, 800.80 493.32 C 801.32 494.01, 801.64 494.35, 802.36 494.85 C 803.07 495.34, 803.50 495.53, 804.37 495.78 C 805.24 496.02, 805.75 496.07, 806.70 496.06 C 807.66 496.06, 808.19 495.97, 809.16 495.73 C 810.12 495.50, 810.63 495.29, 811.52 494.90 C 812.41 494.50, 812.87 494.24, 813.62 493.75 C 814.37 493.27, 814.72 492.98, 815.28 492.48 C 815.83 491.98, 816.06 491.70, 816.41 491.25 C 816.77 490.80, 816.90 490.58, 817.05 490.22 C 817.21 489.87, 817.19 489.71, 817.19 489.46 C 817.19 489.22, 817.17 489.14, 817.05 489.01 C 816.94 488.89, 816.78 488.85, 816.62 488.86 C 816.46 488.86, 816.42 488.92, 816.25 489.03 C 816.09 489.14, 816.02 489.19, 815.80 489.41 C 815.58 489.63, 815.49 489.80, 815.16 490.13 C 814.82 490.47, 814.62 490.68, 814.11 491.08 C 813.60 491.47, 813.28 491.70, 812.60 492.10 C 811.92 492.49, 811.50 492.71, 810.72 493.05 C 809.93 493.38, 809.48 493.56, 808.67 493.76 C 807.86 493.97, 807.42 494.04, 806.65 494.08 C 805.88 494.11, 805.49 494.09, 804.84 493.95 C 804.18 493.80, 803.88 493.69, 803.39 493.35 C 802.90 493.01, 802.70 492.77, 802.39 492.24 C 802.09 491.72, 802.00 491.36, 801.85 490.71 C 801.70 490.07, 801.76 489.66, 801.66 489.00 C 801.56 488.34, 801.57 487.96, 801.36 487.40 C 801.14 486.85, 800.97 486.53, 800.60 486.23 C 800.23 485.93, 800.00 485.83, 799.49 485.90 C 798.98 485.98, 798.70 486.15, 798.06 486.59 C 797.42 487.03, 797.05 487.44, 796.27 488.11 C 795.49 488.77, 795.01 489.25, 794.16 489.93 C 793.32 490.61, 792.83 490.98, 792.02 491.51 C 791.21 492.03, 790.78 492.25, 790.13 492.55 C 789.47 492.85, 789.18 492.96, 788.74 493.02 C 788.30 493.08, 788.15 493.06, 787.94 492.86 C 787.73 492.66, 787.70 492.47, 787.67 492.01 C 787.65 491.56, 787.74 491.21, 787.83 490.58 C 787.91 489.94, 788.02 489.50, 788.10 488.84 C 788.17 488.18, 788.22 487.81, 788.20 487.30 C 788.18 486.78, 788.17 486.50, 787.98 486.25 C 787.78 485.99, 787.53 485.91, 787.22 486.02" style="stroke: black; fill: black;"/><path d="M 852.87,484.99 C 852.78 484.69, 852.60 484.47, 852.14 484.21 C 851.68 483.95, 851.32 483.79, 850.57 483.69 C 849.83 483.59, 849.29 483.57, 848.41 483.69 C 847.52 483.81, 846.98 483.97, 846.14 484.30 C 845.31 484.63, 844.83 484.83, 844.21 485.33 C 843.60 485.83, 843.30 486.15, 843.06 486.79 C 842.82 487.43, 842.80 487.83, 843.02 488.51 C 843.24 489.20, 843.52 489.58, 844.17 490.23 C 844.81 490.87, 845.33 491.17, 846.24 491.72 C 847.16 492.28, 847.77 492.52, 848.73 492.99 C 849.69 493.47, 850.26 493.71, 851.04 494.08 C 851.83 494.45, 852.22 494.61, 852.66 494.85 C 853.10 495.09, 853.24 495.13, 853.24 495.28 C 853.23 495.43, 853.11 495.45, 852.65 495.61 C 852.20 495.78, 851.81 495.86, 850.97 496.10 C 850.12 496.34, 849.51 496.53, 848.43 496.82 C 847.36 497.11, 846.66 497.29, 845.57 497.54 C 844.49 497.79, 843.87 497.91, 843.00 498.05 C 842.13 498.20, 841.76 498.18, 841.22 498.27 C 840.68 498.35, 840.56 498.43, 840.32 498.49 C 840.09 498.55, 840.14 498.49, 840.04 498.55 C 839.94 498.61, 839.83 498.64, 839.84 498.79 C 839.85 498.93, 839.82 499.09, 840.09 499.29 C 840.35 499.50, 840.54 499.67, 841.15 499.80 C 841.77 499.94, 842.20 500.00, 843.17 499.98 C 844.13 499.97, 844.80 499.90, 845.98 499.73 C 847.15 499.56, 847.88 499.43, 849.05 499.13 C 850.21 498.82, 850.87 498.65, 851.79 498.20 C 852.71 497.75, 853.14 497.46, 853.64 496.89 C 854.14 496.31, 854.28 495.93, 854.30 495.30 C 854.31 494.67, 854.15 494.34, 853.70 493.74 C 853.26 493.15, 852.85 492.89, 852.06 492.34 C 851.28 491.79, 850.71 491.53, 849.78 491.00 C 848.85 490.47, 848.29 490.18, 847.42 489.70 C 846.56 489.22, 846.08 488.97, 845.46 488.60 C 844.84 488.24, 844.56 488.11, 844.32 487.87 C 844.08 487.62, 844.09 487.58, 844.26 487.39 C 844.44 487.20, 844.68 487.12, 845.20 486.91 C 845.71 486.71, 846.13 486.56, 846.83 486.38 C 847.53 486.20, 847.99 486.10, 848.71 486.01 C 849.43 485.92, 849.84 485.96, 850.45 485.93 C 851.05 485.90, 851.30 485.92, 851.73 485.88 C 852.16 485.84, 852.36 485.89, 852.59 485.72 C 852.82 485.54, 852.96 485.29, 852.87 484.99" style="stroke: black; fill: black;"/><path d="M 866.66,487.51 C 866.52 487.25, 866.37 487.02, 865.82 486.88 C 865.26 486.75, 864.79 486.64, 863.88 486.84 C 862.98 487.03, 862.33 487.26, 861.28 487.87 C 860.23 488.49, 859.58 489.01, 858.63 489.90 C 857.69 490.80, 857.15 491.39, 856.55 492.36 C 855.94 493.32, 855.70 493.89, 855.60 494.74 C 855.50 495.58, 855.62 496.03, 856.05 496.58 C 856.47 497.14, 856.90 497.36, 857.72 497.50 C 858.55 497.63, 859.13 497.57, 860.18 497.26 C 861.22 496.96, 861.85 496.64, 862.96 495.99 C 864.07 495.35, 864.71 494.86, 865.74 494.04 C 866.78 493.22, 867.33 492.68, 868.12 491.90 C 868.92 491.12, 869.29 490.70, 869.70 490.12 C 870.11 489.55, 870.18 489.27, 870.17 489.05 C 870.15 488.83, 869.91 488.79, 869.63 489.02 C 869.35 489.25, 869.01 489.56, 868.76 490.19 C 868.51 490.83, 868.37 491.36, 868.37 492.18 C 868.38 493.01, 868.49 493.56, 868.78 494.33 C 869.07 495.10, 869.28 495.51, 869.83 496.03 C 870.38 496.56, 870.77 496.78, 871.55 496.96 C 872.33 497.13, 872.82 497.12, 873.74 496.91 C 874.67 496.70, 875.19 496.46, 876.17 495.92 C 877.14 495.37, 877.69 494.96, 878.62 494.19 C 879.55 493.42, 880.11 492.87, 880.82 492.09 C 881.52 491.30, 881.83 490.79, 882.12 490.27 C 882.41 489.75, 882.37 489.54, 882.26 489.49 C 882.16 489.45, 881.91 489.60, 881.60 490.04 C 881.29 490.47, 880.95 490.90, 880.72 491.65 C 880.49 492.39, 880.41 492.98, 880.46 493.76 C 880.51 494.55, 880.64 494.98, 880.96 495.56 C 881.27 496.14, 881.50 496.38, 882.03 496.68 C 882.57 496.98, 882.92 497.07, 883.62 497.05 C 884.32 497.04, 884.75 496.92, 885.54 496.61 C 886.33 496.30, 886.79 496.01, 887.58 495.51 C 888.37 495.01, 888.83 494.62, 889.49 494.11 C 890.15 493.59, 890.47 493.27, 890.87 492.94 C 891.28 492.61, 891.37 492.48, 891.54 492.47 C 891.71 492.46, 891.66 492.58, 891.73 492.89 C 891.80 493.19, 891.74 493.50, 891.90 493.99 C 892.06 494.49, 892.16 494.86, 892.54 495.37 C 892.91 495.87, 893.19 496.17, 893.76 496.52 C 894.33 496.86, 894.68 497.00, 895.38 497.08 C 896.07 497.17, 896.46 497.14, 897.22 496.93 C 897.97 496.71, 898.40 496.52, 899.14 496.01 C 899.88 495.50, 900.29 495.13, 900.93 494.39 C 901.58 493.65, 901.89 493.16, 902.37 492.30 C 902.84 491.45, 903.03 490.94, 903.30 490.10 C 903.57 489.27, 903.64 488.83, 903.71 488.14 C 903.78 487.45, 903.72 487.11, 903.64 486.64 C 903.57 486.17, 903.48 486.02, 903.33 485.77 C 903.17 485.53, 903.03 485.49, 902.88 485.42 C 902.73 485.35, 902.66 485.38, 902.57 485.43 C 902.48 485.48, 902.48 485.59, 902.42 485.66 C 902.37 485.73, 902.36 485.71, 902.31 485.79 C 902.26 485.88, 902.20 485.90, 902.16 486.08 C 902.12 486.26, 902.15 486.35, 902.11 486.70 C 902.07 487.06, 902.08 487.31, 901.95 487.86 C 901.82 488.40, 901.74 488.76, 901.46 489.44 C 901.18 490.12, 900.98 490.55, 900.55 491.26 C 900.12 491.97, 899.84 492.38, 899.31 492.99 C 898.78 493.59, 898.46 493.89, 897.92 494.31 C 897.37 494.73, 897.07 494.88, 896.59 495.08 C 896.11 495.29, 895.89 495.34, 895.52 495.33 C 895.16 495.32, 895.02 495.26, 894.77 495.04 C 894.52 494.83, 894.48 494.64, 894.29 494.25 C 894.10 493.87, 894.08 493.58, 893.82 493.13 C 893.55 492.67, 893.37 492.35, 892.95 491.99 C 892.53 491.62, 892.27 491.42, 891.71 491.30 C 891.15 491.19, 890.82 491.20, 890.14 491.39 C 889.45 491.59, 889.04 491.84, 888.27 492.27 C 887.51 492.70, 887.07 493.07, 886.33 493.54 C 885.60 494.01, 885.20 494.26, 884.60 494.61 C 883.99 494.96, 883.71 495.11, 883.31 495.29 C 882.91 495.47, 882.77 495.54, 882.59 495.50 C 882.40 495.47, 882.36 495.41, 882.40 495.11 C 882.43 494.80, 882.59 494.55, 882.76 493.97 C 882.93 493.39, 883.16 492.94, 883.26 492.20 C 883.35 491.46, 883.38 490.91, 883.23 490.28 C 883.08 489.66, 882.94 489.30, 882.52 489.07 C 882.10 488.83, 881.79 488.83, 881.14 489.12 C 880.49 489.40, 880.07 489.83, 879.27 490.49 C 878.48 491.16, 878.01 491.73, 877.17 492.44 C 876.32 493.15, 875.85 493.53, 875.05 494.05 C 874.25 494.56, 873.83 494.76, 873.18 495.01 C 872.53 495.27, 872.24 495.34, 871.80 495.33 C 871.36 495.31, 871.20 495.23, 870.98 494.94 C 870.77 494.65, 870.73 494.41, 870.71 493.88 C 870.70 493.35, 870.86 492.96, 870.93 492.30 C 871.00 491.64, 871.10 491.22, 871.07 490.58 C 871.03 489.94, 870.97 489.53, 870.74 489.10 C 870.50 488.68, 870.34 488.49, 869.91 488.45 C 869.47 488.41, 869.22 488.53, 868.59 488.91 C 867.96 489.29, 867.60 489.70, 866.76 490.37 C 865.92 491.04, 865.38 491.54, 864.39 492.27 C 863.40 492.99, 862.78 493.41, 861.79 494.00 C 860.80 494.59, 860.25 494.84, 859.43 495.22 C 858.62 495.59, 858.23 495.73, 857.72 495.87 C 857.21 496.01, 857.02 496.06, 856.89 495.91 C 856.75 495.76, 856.77 495.60, 857.03 495.13 C 857.29 494.66, 857.55 494.27, 858.18 493.58 C 858.82 492.88, 859.32 492.37, 860.19 491.65 C 861.06 490.93, 861.65 490.50, 862.53 489.97 C 863.40 489.44, 863.90 489.28, 864.56 488.98 C 865.23 488.68, 865.47 488.63, 865.85 488.48 C 866.24 488.32, 866.34 488.38, 866.50 488.19 C 866.66 488.00, 866.79 487.77, 866.66 487.51" style="stroke: black; fill: black;"/><path d="M 940.94,484.25 C 940.76 483.99, 940.52 483.83, 939.99 483.71 C 939.45 483.59, 939.05 483.55, 938.27 483.66 C 937.49 483.77, 936.93 483.91, 936.09 484.27 C 935.25 484.63, 934.76 484.93, 934.06 485.48 C 933.37 486.04, 933.00 486.39, 932.62 487.06 C 932.24 487.74, 932.11 488.13, 932.16 488.85 C 932.22 489.58, 932.39 489.99, 932.88 490.68 C 933.38 491.37, 933.82 491.72, 934.64 492.31 C 935.46 492.90, 936.06 493.15, 936.99 493.63 C 937.92 494.11, 938.49 494.34, 939.29 494.71 C 940.09 495.09, 940.51 495.26, 941.00 495.51 C 941.49 495.75, 941.67 495.80, 941.73 495.94 C 941.79 496.08, 941.69 496.07, 941.31 496.21 C 940.92 496.36, 940.57 496.43, 939.81 496.66 C 939.04 496.88, 938.49 497.06, 937.48 497.33 C 936.47 497.60, 935.81 497.79, 934.77 498.02 C 933.72 498.26, 933.11 498.38, 932.25 498.52 C 931.40 498.65, 931.02 498.64, 930.49 498.72 C 929.95 498.80, 929.82 498.87, 929.56 498.92 C 929.31 498.98, 929.32 498.92, 929.22 498.99 C 929.11 499.06, 929.00 499.11, 929.02 499.27 C 929.04 499.43, 929.04 499.57, 929.32 499.78 C 929.60 499.98, 929.79 500.15, 930.41 500.29 C 931.03 500.43, 931.46 500.49, 932.42 500.48 C 933.37 500.47, 934.04 500.41, 935.18 500.24 C 936.32 500.07, 937.03 499.95, 938.12 499.64 C 939.22 499.32, 939.83 499.14, 940.67 498.68 C 941.51 498.22, 941.89 497.91, 942.31 497.33 C 942.73 496.75, 942.84 496.39, 942.78 495.78 C 942.73 495.16, 942.54 494.84, 942.04 494.26 C 941.55 493.69, 941.11 493.43, 940.32 492.90 C 939.53 492.37, 938.97 492.11, 938.08 491.61 C 937.19 491.11, 936.64 490.84, 935.86 490.41 C 935.09 489.97, 934.68 489.78, 934.21 489.44 C 933.74 489.10, 933.57 488.99, 933.52 488.71 C 933.47 488.44, 933.60 488.34, 933.94 488.05 C 934.29 487.76, 934.63 487.56, 935.24 487.25 C 935.85 486.93, 936.28 486.75, 936.99 486.48 C 937.70 486.21, 938.16 486.12, 938.78 485.91 C 939.41 485.70, 939.68 485.61, 940.10 485.43 C 940.52 485.25, 940.72 485.25, 940.89 485.01 C 941.06 484.77, 941.12 484.51, 940.94 484.25" style="stroke: black; fill: black;"/><path d="M 952.23,489.57 C 952.09 489.31, 951.92 489.07, 951.39 488.97 C 950.87 488.86, 950.40 488.79, 949.60 489.03 C 948.80 489.27, 948.23 489.52, 947.38 490.16 C 946.54 490.80, 946.03 491.31, 945.38 492.22 C 944.73 493.12, 944.39 493.72, 944.15 494.69 C 943.91 495.66, 943.89 496.24, 944.17 497.06 C 944.45 497.89, 944.79 498.31, 945.54 498.80 C 946.29 499.29, 946.88 499.45, 947.94 499.51 C 948.99 499.56, 949.67 499.44, 950.82 499.08 C 951.97 498.73, 952.63 498.41, 953.69 497.74 C 954.75 497.08, 955.32 496.63, 956.12 495.76 C 956.92 494.89, 957.28 494.35, 957.69 493.38 C 958.11 492.42, 958.22 491.87, 958.20 490.95 C 958.19 490.04, 958.04 489.55, 957.64 488.82 C 957.23 488.08, 956.86 487.71, 956.19 487.28 C 955.51 486.86, 954.96 486.69, 954.26 486.70 C 953.56 486.71, 952.98 487.03, 952.69 487.33 C 952.40 487.63, 952.52 487.98, 952.80 488.20 C 953.09 488.43, 953.61 488.34, 954.10 488.46 C 954.60 488.58, 954.85 488.57, 955.27 488.80 C 955.70 489.04, 955.95 489.20, 956.20 489.63 C 956.46 490.05, 956.58 490.34, 956.55 490.94 C 956.53 491.53, 956.44 491.92, 956.07 492.61 C 955.71 493.30, 955.41 493.72, 954.71 494.38 C 954.01 495.04, 953.50 495.40, 952.59 495.92 C 951.68 496.45, 951.09 496.69, 950.15 497.01 C 949.22 497.33, 948.68 497.44, 947.91 497.52 C 947.14 497.60, 946.75 497.59, 946.29 497.42 C 945.82 497.24, 945.66 497.08, 945.59 496.66 C 945.51 496.24, 945.61 495.93, 945.93 495.32 C 946.24 494.71, 946.57 494.27, 947.15 493.62 C 947.74 492.98, 948.18 492.59, 948.84 492.09 C 949.50 491.59, 949.91 491.43, 950.45 491.12 C 950.98 490.82, 951.18 490.75, 951.51 490.58 C 951.84 490.41, 951.94 490.47, 952.09 490.27 C 952.23 490.07, 952.37 489.83, 952.23 489.57" style="stroke: black; fill: black;"/><path d="M 963.88,488.92 C 963.62 489.12, 963.57 489.41, 963.39 489.94 C 963.21 490.47, 963.12 490.84, 962.98 491.56 C 962.84 492.27, 962.76 492.78, 962.70 493.53 C 962.64 494.27, 962.58 494.69, 962.68 495.28 C 962.79 495.87, 962.90 496.16, 963.23 496.47 C 963.56 496.77, 963.82 496.88, 964.33 496.81 C 964.85 496.73, 965.19 496.56, 965.82 496.08 C 966.44 495.61, 966.79 495.16, 967.46 494.42 C 968.12 493.68, 968.49 493.13, 969.14 492.39 C 969.80 491.66, 970.20 491.25, 970.74 490.72 C 971.29 490.20, 971.55 489.98, 971.87 489.77 C 972.20 489.56, 972.27 489.56, 972.36 489.69 C 972.46 489.82, 972.40 490.01, 972.36 490.41 C 972.32 490.81, 972.19 491.13, 972.15 491.70 C 972.11 492.26, 972.05 492.64, 972.15 493.22 C 972.25 493.79, 972.34 494.14, 972.66 494.57 C 972.98 495.00, 973.22 495.21, 973.75 495.36 C 974.28 495.51, 974.62 495.50, 975.31 495.30 C 976.00 495.11, 976.42 494.85, 977.21 494.39 C 978.00 493.93, 978.47 493.54, 979.28 493.00 C 980.08 492.45, 980.56 492.09, 981.25 491.67 C 981.95 491.24, 982.28 491.04, 982.75 490.88 C 983.23 490.72, 983.39 490.73, 983.63 490.88 C 983.88 491.03, 983.89 491.21, 983.98 491.64 C 984.08 492.07, 984.02 492.40, 984.09 493.01 C 984.17 493.62, 984.18 494.04, 984.35 494.70 C 984.52 495.35, 984.62 495.73, 984.95 496.30 C 985.27 496.87, 985.46 497.17, 985.98 497.55 C 986.50 497.94, 986.84 498.10, 987.55 498.21 C 988.26 498.32, 988.67 498.30, 989.53 498.10 C 990.39 497.89, 990.89 497.70, 991.84 497.19 C 992.79 496.69, 993.33 496.32, 994.28 495.58 C 995.24 494.84, 995.77 494.37, 996.59 493.51 C 997.42 492.66, 997.84 492.16, 998.39 491.32 C 998.95 490.48, 999.19 490.03, 999.35 489.30 C 999.51 488.57, 999.48 488.17, 999.20 487.67 C 998.91 487.17, 998.57 486.91, 997.92 486.79 C 997.27 486.66, 996.75 486.71, 995.95 487.05 C 995.15 487.39, 994.65 487.75, 993.93 488.48 C 993.20 489.20, 992.81 489.74, 992.33 490.69 C 991.86 491.64, 991.64 492.24, 991.55 493.23 C 991.46 494.23, 991.53 494.80, 991.90 495.65 C 992.27 496.51, 992.61 496.94, 993.40 497.51 C 994.20 498.08, 994.75 498.32, 995.87 498.52 C 997.00 498.72, 997.70 498.72, 999.04 498.51 C 1000.38 498.30, 1001.14 498.07, 1002.57 497.49 C 1003.99 496.90, 1004.76 496.50, 1006.17 495.59 C 1007.59 494.67, 1008.32 494.10, 1009.63 492.91 C 1010.95 491.73, 1011.60 491.03, 1012.75 489.67 C 1013.90 488.31, 1014.46 487.52, 1015.39 486.11 C 1016.33 484.70, 1016.75 483.92, 1017.43 482.62 C 1018.10 481.31, 1018.39 480.64, 1018.77 479.57 C 1019.16 478.51, 1019.31 478.01, 1019.35 477.30 C 1019.40 476.60, 1019.29 476.26, 1019.01 476.04 C 1018.73 475.82, 1018.39 475.82, 1017.96 476.23 C 1017.53 476.63, 1017.26 477.08, 1016.87 478.08 C 1016.49 479.09, 1016.33 479.83, 1016.03 481.26 C 1015.72 482.68, 1015.59 483.62, 1015.33 485.22 C 1015.08 486.82, 1014.94 487.74, 1014.75 489.25 C 1014.56 490.77, 1014.48 491.56, 1014.40 492.80 C 1014.31 494.04, 1014.30 494.65, 1014.34 495.48 C 1014.38 496.30, 1014.49 496.53, 1014.59 496.93 C 1014.69 497.34, 1014.73 497.38, 1014.85 497.49 C 1014.97 497.61, 1015.06 497.61, 1015.19 497.51 C 1015.32 497.41, 1015.37 497.37, 1015.52 496.99 C 1015.67 496.60, 1015.79 496.39, 1015.94 495.59 C 1016.09 494.79, 1016.10 494.20, 1016.28 493.00 C 1016.45 491.79, 1016.55 491.04, 1016.81 489.56 C 1017.07 488.09, 1017.25 487.19, 1017.59 485.64 C 1017.92 484.09, 1018.18 483.19, 1018.49 481.80 C 1018.80 480.40, 1019.00 479.70, 1019.14 478.67 C 1019.28 477.65, 1019.29 477.18, 1019.19 476.66 C 1019.10 476.15, 1018.90 476.03, 1018.65 476.08 C 1018.41 476.13, 1018.27 476.35, 1017.96 476.92 C 1017.66 477.48, 1017.57 477.94, 1017.13 478.90 C 1016.69 479.86, 1016.43 480.50, 1015.75 481.72 C 1015.08 482.94, 1014.66 483.68, 1013.75 485.01 C 1012.85 486.34, 1012.32 487.09, 1011.23 488.37 C 1010.13 489.65, 1009.51 490.31, 1008.28 491.40 C 1007.05 492.50, 1006.36 493.02, 1005.06 493.85 C 1003.76 494.68, 1003.04 495.02, 1001.77 495.54 C 1000.50 496.06, 999.82 496.24, 998.69 496.45 C 997.56 496.66, 997.00 496.67, 996.14 496.60 C 995.27 496.53, 994.89 496.40, 994.35 496.09 C 993.80 495.77, 993.60 495.55, 993.41 495.03 C 993.22 494.52, 993.23 494.16, 993.39 493.51 C 993.55 492.85, 993.76 492.42, 994.20 491.75 C 994.65 491.07, 995.03 490.69, 995.59 490.13 C 996.15 489.57, 996.54 489.31, 997.02 488.92 C 997.50 488.53, 997.73 488.36, 997.99 488.19 C 998.25 488.02, 998.32 487.96, 998.31 488.07 C 998.30 488.18, 998.22 488.32, 997.93 488.74 C 997.64 489.16, 997.41 489.51, 996.85 490.16 C 996.28 490.81, 995.88 491.27, 995.10 492.00 C 994.31 492.73, 993.80 493.16, 992.93 493.81 C 992.07 494.46, 991.56 494.79, 990.76 495.26 C 989.96 495.73, 989.55 495.90, 988.93 496.15 C 988.31 496.40, 988.06 496.47, 987.65 496.51 C 987.25 496.55, 987.13 496.53, 986.91 496.35 C 986.70 496.16, 986.68 496.01, 986.59 495.60 C 986.49 495.18, 986.51 494.88, 986.43 494.28 C 986.35 493.68, 986.35 493.27, 986.17 492.60 C 985.99 491.93, 985.90 491.50, 985.53 490.92 C 985.15 490.34, 984.90 490.03, 984.30 489.70 C 983.70 489.38, 983.32 489.28, 982.53 489.30 C 981.75 489.32, 981.27 489.47, 980.37 489.81 C 979.47 490.14, 978.93 490.47, 978.03 490.97 C 977.13 491.47, 976.62 491.81, 975.89 492.32 C 975.16 492.82, 974.81 493.13, 974.39 493.51 C 973.97 493.88, 973.89 494.07, 973.79 494.19 C 973.70 494.32, 973.81 494.33, 973.91 494.13 C 974.02 493.94, 974.20 493.72, 974.31 493.23 C 974.42 492.74, 974.50 492.33, 974.45 491.69 C 974.41 491.04, 974.36 490.59, 974.08 490.00 C 973.80 489.41, 973.56 489.07, 973.05 488.75 C 972.53 488.43, 972.18 488.34, 971.49 488.42 C 970.80 488.50, 970.38 488.69, 969.59 489.15 C 968.79 489.62, 968.32 490.03, 967.51 490.74 C 966.70 491.44, 966.21 491.93, 965.53 492.69 C 964.85 493.45, 964.50 493.91, 964.12 494.53 C 963.73 495.16, 963.65 495.48, 963.61 495.82 C 963.57 496.15, 963.72 496.26, 963.90 496.20 C 964.09 496.14, 964.30 495.98, 964.54 495.51 C 964.78 495.05, 964.93 494.62, 965.09 493.88 C 965.25 493.13, 965.31 492.58, 965.33 491.81 C 965.35 491.04, 965.32 490.60, 965.19 490.02 C 965.06 489.44, 964.94 489.13, 964.68 488.90 C 964.41 488.68, 964.13 488.71, 963.88 488.92" style="stroke: black; fill: black;"/><path d="M 1009.95,491.92 C 1010.17 492.13, 1010.37 492.20, 1010.96 492.26 C 1011.55 492.33, 1011.97 492.35, 1012.91 492.23 C 1013.84 492.11, 1014.46 491.99, 1015.65 491.68 C 1016.84 491.37, 1017.55 491.17, 1018.84 490.69 C 1020.12 490.21, 1020.83 489.93, 1022.08 489.30 C 1023.33 488.67, 1023.97 488.32, 1025.09 487.56 C 1026.21 486.81, 1026.76 486.38, 1027.70 485.52 C 1028.63 484.66, 1029.07 484.17, 1029.76 483.26 C 1030.45 482.34, 1030.75 481.83, 1031.14 480.96 C 1031.52 480.08, 1031.67 479.60, 1031.69 478.89 C 1031.70 478.18, 1031.57 477.78, 1031.22 477.40 C 1030.86 477.01, 1030.48 476.85, 1029.92 476.96 C 1029.35 477.06, 1028.95 477.28, 1028.40 477.92 C 1027.85 478.57, 1027.57 479.11, 1027.15 480.20 C 1026.74 481.28, 1026.59 482.03, 1026.33 483.34 C 1026.07 484.65, 1025.96 485.44, 1025.85 486.75 C 1025.75 488.07, 1025.72 488.78, 1025.80 489.93 C 1025.88 491.07, 1025.96 491.61, 1026.25 492.47 C 1026.55 493.32, 1026.75 493.68, 1027.27 494.20 C 1027.79 494.73, 1028.14 494.92, 1028.85 495.09 C 1029.57 495.26, 1030.01 495.23, 1030.86 495.05 C 1031.70 494.87, 1032.19 494.63, 1033.08 494.19 C 1033.97 493.75, 1034.48 493.38, 1035.31 492.85 C 1036.14 492.31, 1036.59 491.95, 1037.23 491.53 C 1037.87 491.11, 1038.13 490.89, 1038.50 490.75 C 1038.87 490.61, 1038.94 490.63, 1039.08 490.81 C 1039.22 490.98, 1039.17 491.19, 1039.21 491.62 C 1039.25 492.06, 1039.19 492.41, 1039.29 493.00 C 1039.40 493.59, 1039.48 493.98, 1039.75 494.56 C 1040.02 495.14, 1040.20 495.47, 1040.65 495.91 C 1041.11 496.34, 1041.40 496.56, 1042.02 496.75 C 1042.63 496.93, 1043.01 496.97, 1043.75 496.85 C 1044.49 496.74, 1044.91 496.57, 1045.70 496.17 C 1046.49 495.76, 1046.92 495.42, 1047.71 494.81 C 1048.49 494.21, 1048.93 493.79, 1049.63 493.12 C 1050.33 492.45, 1050.72 492.00, 1051.19 491.45 C 1051.67 490.91, 1051.81 490.60, 1051.98 490.37 C 1052.16 490.15, 1052.09 490.15, 1052.06 490.34 C 1052.04 490.54, 1051.90 490.81, 1051.84 491.34 C 1051.78 491.87, 1051.71 492.32, 1051.78 493.00 C 1051.85 493.68, 1051.95 494.15, 1052.18 494.74 C 1052.41 495.32, 1052.66 495.60, 1052.95 495.93 C 1053.25 496.27, 1053.42 496.35, 1053.66 496.40 C 1053.89 496.44, 1054.02 496.34, 1054.13 496.15 C 1054.25 495.96, 1054.20 495.82, 1054.23 495.45 C 1054.26 495.08, 1054.27 494.85, 1054.28 494.31 C 1054.28 493.76, 1054.33 493.38, 1054.24 492.72 C 1054.15 492.06, 1054.10 491.59, 1053.84 490.98 C 1053.58 490.37, 1053.38 490.01, 1052.93 489.66 C 1052.48 489.32, 1052.18 489.18, 1051.57 489.24 C 1050.97 489.30, 1050.60 489.51, 1049.91 489.96 C 1049.22 490.41, 1048.85 490.86, 1048.13 491.48 C 1047.41 492.10, 1047.02 492.50, 1046.32 493.06 C 1045.62 493.62, 1045.24 493.90, 1044.63 494.29 C 1044.02 494.69, 1043.73 494.84, 1043.29 495.02 C 1042.84 495.21, 1042.68 495.25, 1042.41 495.21 C 1042.13 495.17, 1042.06 495.09, 1041.91 494.82 C 1041.77 494.56, 1041.76 494.35, 1041.67 493.89 C 1041.57 493.42, 1041.59 493.09, 1041.43 492.51 C 1041.28 491.94, 1041.20 491.56, 1040.89 491.02 C 1040.58 490.47, 1040.38 490.15, 1039.87 489.81 C 1039.36 489.47, 1039.03 489.32, 1038.33 489.31 C 1037.62 489.30, 1037.18 489.43, 1036.34 489.75 C 1035.50 490.07, 1035.01 490.42, 1034.14 490.91 C 1033.27 491.40, 1032.78 491.75, 1032.01 492.21 C 1031.23 492.67, 1030.85 492.93, 1030.26 493.21 C 1029.67 493.50, 1029.45 493.62, 1029.05 493.63 C 1028.66 493.65, 1028.52 493.60, 1028.28 493.29 C 1028.03 492.97, 1027.94 492.73, 1027.83 492.05 C 1027.71 491.37, 1027.68 490.89, 1027.72 489.88 C 1027.75 488.87, 1027.81 488.20, 1027.99 487.00 C 1028.17 485.79, 1028.32 485.04, 1028.61 483.84 C 1028.90 482.64, 1029.13 481.97, 1029.44 481.00 C 1029.75 480.03, 1029.95 479.59, 1030.15 478.98 C 1030.36 478.37, 1030.40 478.17, 1030.45 477.95 C 1030.49 477.73, 1030.45 477.72, 1030.38 477.86 C 1030.32 478.00, 1030.31 478.17, 1030.13 478.64 C 1029.96 479.10, 1029.88 479.48, 1029.51 480.17 C 1029.14 480.87, 1028.90 481.33, 1028.28 482.12 C 1027.66 482.91, 1027.27 483.35, 1026.42 484.12 C 1025.57 484.88, 1025.07 485.27, 1024.02 485.94 C 1022.98 486.61, 1022.38 486.93, 1021.20 487.47 C 1020.02 488.00, 1019.35 488.24, 1018.13 488.63 C 1016.90 489.02, 1016.21 489.13, 1015.08 489.40 C 1013.95 489.67, 1013.34 489.75, 1012.46 489.99 C 1011.58 490.23, 1011.21 490.37, 1010.69 490.62 C 1010.17 490.86, 1010.00 490.95, 1009.86 491.21 C 1009.71 491.47, 1009.73 491.71, 1009.95 491.92" style="stroke: black; fill: black;"/><path d="M 1055.41,481.12 C 1055.61 481.32, 1055.75 481.44, 1055.77 481.42 C 1055.80 481.40, 1055.70 481.24, 1055.54 481.01 C 1055.37 480.77, 1055.16 480.44, 1054.96 480.23 C 1054.77 480.02, 1054.59 479.92, 1054.54 479.95 C 1054.50 479.99, 1054.57 480.19, 1054.75 480.42 C 1054.92 480.65, 1055.20 480.91, 1055.41 481.12" style="stroke: black; fill: black;"/><path d="M 1061.30,490.26 C 1061.04 490.50, 1060.97 490.85, 1060.85 491.38 C 1060.73 491.92, 1060.68 492.29, 1060.70 492.94 C 1060.71 493.59, 1060.70 494.05, 1060.91 494.62 C 1061.12 495.19, 1061.36 495.48, 1061.77 495.79 C 1062.18 496.09, 1062.43 496.18, 1062.96 496.15 C 1063.48 496.12, 1063.78 496.01, 1064.39 495.63 C 1065.00 495.25, 1065.34 494.88, 1066.02 494.26 C 1066.71 493.63, 1067.09 493.15, 1067.82 492.51 C 1068.56 491.87, 1069.00 491.50, 1069.69 491.05 C 1070.39 490.60, 1070.75 490.41, 1071.29 490.24 C 1071.82 490.07, 1072.03 490.08, 1072.36 490.21 C 1072.69 490.35, 1072.75 490.53, 1072.93 490.93 C 1073.10 491.32, 1073.11 491.62, 1073.22 492.18 C 1073.34 492.75, 1073.31 493.14, 1073.48 493.75 C 1073.65 494.36, 1073.79 494.76, 1074.06 495.23 C 1074.33 495.69, 1074.54 495.95, 1074.82 496.08 C 1075.10 496.22, 1075.30 496.16, 1075.48 495.90 C 1075.66 495.65, 1075.69 495.35, 1075.72 494.82 C 1075.74 494.30, 1075.71 493.93, 1075.60 493.28 C 1075.49 492.64, 1075.41 492.25, 1075.16 491.60 C 1074.90 490.94, 1074.76 490.55, 1074.31 490.01 C 1073.86 489.47, 1073.58 489.17, 1072.92 488.89 C 1072.25 488.61, 1071.84 488.53, 1071.00 488.61 C 1070.16 488.68, 1069.66 488.85, 1068.74 489.26 C 1067.81 489.67, 1067.27 490.04, 1066.38 490.67 C 1065.49 491.30, 1064.98 491.75, 1064.29 492.43 C 1063.60 493.11, 1063.30 493.54, 1062.94 494.07 C 1062.57 494.60, 1062.53 494.86, 1062.48 495.09 C 1062.43 495.32, 1062.57 495.36, 1062.69 495.21 C 1062.81 495.06, 1063.02 494.82, 1063.09 494.34 C 1063.16 493.85, 1063.13 493.40, 1063.06 492.78 C 1062.99 492.17, 1062.92 491.79, 1062.74 491.27 C 1062.55 490.76, 1062.44 490.41, 1062.15 490.21 C 1061.86 490.01, 1061.56 490.03, 1061.30 490.26" style="stroke: black; fill: black;"/><path d="M 1088.09,490.87 C 1088.01 490.60, 1087.90 490.34, 1087.43 490.15 C 1086.97 489.95, 1086.54 489.80, 1085.74 489.89 C 1084.93 489.97, 1084.34 490.14, 1083.41 490.59 C 1082.48 491.05, 1081.88 491.46, 1081.09 492.16 C 1080.29 492.86, 1079.84 493.34, 1079.42 494.09 C 1079.01 494.84, 1078.90 495.31, 1079.01 495.92 C 1079.13 496.52, 1079.39 496.84, 1079.98 497.12 C 1080.57 497.40, 1081.08 497.44, 1081.96 497.33 C 1082.84 497.21, 1083.41 496.97, 1084.39 496.56 C 1085.37 496.15, 1085.93 495.77, 1086.84 495.25 C 1087.75 494.73, 1088.25 494.41, 1088.94 493.96 C 1089.64 493.52, 1089.94 493.27, 1090.31 493.04 C 1090.68 492.82, 1090.72 492.72, 1090.80 492.83 C 1090.87 492.95, 1090.76 493.08, 1090.69 493.63 C 1090.61 494.17, 1090.52 494.59, 1090.42 495.55 C 1090.31 496.51, 1090.27 497.15, 1090.16 498.44 C 1090.04 499.73, 1090.00 500.52, 1089.83 501.98 C 1089.66 503.44, 1089.58 504.27, 1089.31 505.75 C 1089.04 507.23, 1088.90 508.01, 1088.50 509.38 C 1088.11 510.75, 1087.88 511.43, 1087.32 512.58 C 1086.76 513.72, 1086.43 514.25, 1085.72 515.11 C 1085.00 515.96, 1084.58 516.31, 1083.75 516.83 C 1082.92 517.35, 1082.44 517.52, 1081.58 517.70 C 1080.71 517.89, 1080.23 517.87, 1079.44 517.74 C 1078.65 517.61, 1078.24 517.43, 1077.65 517.04 C 1077.05 516.65, 1076.78 516.36, 1076.48 515.80 C 1076.18 515.24, 1076.07 514.90, 1076.14 514.23 C 1076.21 513.56, 1076.33 513.19, 1076.84 512.45 C 1077.35 511.71, 1077.74 511.30, 1078.68 510.53 C 1079.63 509.77, 1080.25 509.36, 1081.57 508.63 C 1082.88 507.91, 1083.70 507.54, 1085.27 506.91 C 1086.83 506.28, 1087.74 505.98, 1089.41 505.49 C 1091.08 504.99, 1091.99 504.79, 1093.62 504.45 C 1095.25 504.11, 1096.08 504.00, 1097.55 503.79 C 1099.02 503.58, 1099.74 503.53, 1100.99 503.42 C 1102.24 503.31, 1102.81 503.31, 1103.80 503.24 C 1104.78 503.18, 1105.23 503.17, 1105.90 503.10 C 1106.58 503.03, 1106.80 503.00, 1107.17 502.89 C 1107.55 502.78, 1107.64 502.67, 1107.79 502.54 C 1107.95 502.41, 1107.96 502.35, 1107.97 502.24 C 1107.98 502.12, 1107.92 502.05, 1107.86 501.97 C 1107.79 501.89, 1107.81 501.89, 1107.65 501.82 C 1107.50 501.75, 1107.44 501.68, 1107.08 501.63 C 1106.72 501.57, 1106.52 501.55, 1105.85 501.53 C 1105.18 501.51, 1104.72 501.50, 1103.72 501.51 C 1102.72 501.53, 1102.14 501.54, 1100.85 501.63 C 1099.57 501.71, 1098.83 501.75, 1097.31 501.93 C 1095.79 502.11, 1094.93 502.20, 1093.24 502.52 C 1091.55 502.84, 1090.60 503.03, 1088.85 503.52 C 1087.10 504.00, 1086.15 504.29, 1084.49 504.95 C 1082.82 505.60, 1081.96 505.97, 1080.53 506.77 C 1079.10 507.57, 1078.40 508.02, 1077.34 508.95 C 1076.28 509.89, 1075.81 510.43, 1075.23 511.46 C 1074.64 512.49, 1074.47 513.08, 1074.42 514.10 C 1074.36 515.13, 1074.50 515.71, 1074.95 516.59 C 1075.39 517.47, 1075.80 517.93, 1076.64 518.51 C 1077.48 519.10, 1078.07 519.33, 1079.13 519.52 C 1080.19 519.71, 1080.84 519.69, 1081.95 519.45 C 1083.06 519.22, 1083.66 518.97, 1084.69 518.34 C 1085.71 517.70, 1086.22 517.26, 1087.08 516.27 C 1087.94 515.29, 1088.33 514.68, 1088.99 513.42 C 1089.64 512.15, 1089.90 511.41, 1090.38 509.96 C 1090.85 508.50, 1091.02 507.68, 1091.34 506.14 C 1091.67 504.61, 1091.78 503.77, 1092.00 502.27 C 1092.23 500.77, 1092.32 499.98, 1092.45 498.66 C 1092.58 497.33, 1092.67 496.70, 1092.65 495.65 C 1092.64 494.60, 1092.62 494.13, 1092.38 493.41 C 1092.14 492.69, 1091.94 492.40, 1091.46 492.05 C 1090.98 491.70, 1090.65 491.63, 1089.98 491.66 C 1089.30 491.69, 1088.90 491.88, 1088.07 492.19 C 1087.23 492.51, 1086.74 492.81, 1085.80 493.23 C 1084.87 493.66, 1084.29 493.91, 1083.40 494.32 C 1082.52 494.73, 1082.02 494.95, 1081.38 495.27 C 1080.74 495.59, 1080.46 495.77, 1080.19 495.90 C 1079.91 496.04, 1079.88 496.09, 1080.02 495.96 C 1080.16 495.84, 1080.40 495.68, 1080.91 495.29 C 1081.41 494.90, 1081.83 494.53, 1082.55 494.03 C 1083.28 493.53, 1083.79 493.20, 1084.53 492.81 C 1085.27 492.42, 1085.69 492.31, 1086.24 492.09 C 1086.79 491.87, 1086.96 491.83, 1087.27 491.71 C 1087.58 491.60, 1087.64 491.68, 1087.80 491.51 C 1087.96 491.34, 1088.16 491.15, 1088.09 490.87" style="stroke: black; fill: black;"/><path d="M 1136.51,489.42 C 1136.23 489.72, 1136.11 490.16, 1135.92 490.93 C 1135.73 491.70, 1135.62 492.30, 1135.57 493.28 C 1135.52 494.26, 1135.54 494.99, 1135.67 495.83 C 1135.80 496.68, 1136.02 497.01, 1136.22 497.50 C 1136.43 497.98, 1136.51 498.12, 1136.69 498.27 C 1136.88 498.41, 1136.98 498.40, 1137.15 498.23 C 1137.31 498.07, 1137.35 497.93, 1137.51 497.44 C 1137.66 496.95, 1137.84 496.62, 1137.94 495.79 C 1138.04 494.97, 1138.04 494.26, 1138.01 493.30 C 1137.98 492.34, 1137.93 491.76, 1137.79 490.99 C 1137.65 490.22, 1137.58 489.77, 1137.32 489.46 C 1137.07 489.14, 1136.79 489.13, 1136.51 489.42" style="stroke: black; fill: black;"/><path d="M 1139.26,478.70 C 1139.56 478.64, 1139.75 478.56, 1139.68 478.59 C 1139.61 478.62, 1139.25 478.71, 1138.92 478.86 C 1138.59 479.00, 1138.15 479.23, 1138.02 479.31 C 1137.90 479.38, 1137.98 479.42, 1138.29 479.22 C 1138.61 479.03, 1139.33 478.61, 1139.59 478.34 C 1139.85 478.06, 1139.81 477.88, 1139.59 477.86 C 1139.38 477.84, 1138.90 478.06, 1138.53 478.23 C 1138.16 478.39, 1137.81 478.57, 1137.75 478.70 C 1137.69 478.83, 1137.91 478.88, 1138.21 478.88 C 1138.51 478.88, 1138.97 478.75, 1139.26 478.70" style="stroke: black; fill: black;"/><path d="M 1145.24,490.25 C 1144.98 490.48, 1144.90 490.84, 1144.75 491.40 C 1144.59 491.96, 1144.52 492.35, 1144.46 493.05 C 1144.40 493.76, 1144.32 494.26, 1144.43 494.92 C 1144.54 495.57, 1144.69 495.92, 1145.02 496.33 C 1145.35 496.74, 1145.57 496.90, 1146.06 496.96 C 1146.55 497.02, 1146.84 496.96, 1147.47 496.64 C 1148.10 496.31, 1148.44 495.96, 1149.20 495.32 C 1149.96 494.68, 1150.39 494.15, 1151.25 493.42 C 1152.11 492.70, 1152.64 492.25, 1153.52 491.69 C 1154.39 491.13, 1154.88 490.87, 1155.63 490.62 C 1156.37 490.38, 1156.72 490.35, 1157.25 490.47 C 1157.79 490.58, 1157.97 490.75, 1158.29 491.18 C 1158.61 491.61, 1158.67 491.94, 1158.84 492.62 C 1159.01 493.30, 1159.03 493.76, 1159.14 494.59 C 1159.25 495.41, 1159.25 495.93, 1159.37 496.77 C 1159.49 497.61, 1159.56 498.12, 1159.75 498.77 C 1159.94 499.43, 1160.09 499.67, 1160.31 500.04 C 1160.54 500.41, 1160.66 500.53, 1160.87 500.62 C 1161.07 500.71, 1161.21 500.65, 1161.33 500.48 C 1161.46 500.32, 1161.44 500.18, 1161.50 499.78 C 1161.56 499.38, 1161.63 499.15, 1161.63 498.49 C 1161.62 497.84, 1161.56 497.36, 1161.48 496.51 C 1161.40 495.67, 1161.39 495.16, 1161.22 494.26 C 1161.05 493.36, 1161.00 492.83, 1160.65 492.00 C 1160.30 491.17, 1160.09 490.72, 1159.49 490.12 C 1158.88 489.51, 1158.49 489.23, 1157.64 488.99 C 1156.78 488.74, 1156.25 488.72, 1155.22 488.89 C 1154.20 489.06, 1153.58 489.30, 1152.49 489.83 C 1151.40 490.36, 1150.76 490.79, 1149.76 491.52 C 1148.76 492.25, 1148.21 492.74, 1147.49 493.48 C 1146.77 494.21, 1146.48 494.65, 1146.16 495.18 C 1145.84 495.71, 1145.85 495.96, 1145.87 496.13 C 1145.89 496.30, 1146.08 496.28, 1146.25 496.04 C 1146.43 495.80, 1146.63 495.51, 1146.75 494.92 C 1146.86 494.34, 1146.86 493.82, 1146.84 493.12 C 1146.81 492.41, 1146.77 491.98, 1146.61 491.41 C 1146.46 490.83, 1146.35 490.47, 1146.08 490.24 C 1145.80 490.01, 1145.51 490.02, 1145.24 490.25" style="stroke: black; fill: black;"/></svg>