<svg xmlns="http://www.w3.org/2000/svg" id="canvas" viewBox="195.921 456.957 1014.465 85.306"><path d="M 203.56,490.88 C 203.04 491.44, 202.62 492.34, 202.00 493.96 C 201.37 495.57, 200.98 496.82, 200.44 498.95 C 199.90 501.07, 199.61 502.54, 199.31 504.57 C 199.01 506.60, 198.97 507.64, 198.93 509.12 C 198.89 510.59, 198.99 511.12, 199.11 511.95 C 199.23 512.77, 199.32 512.97, 199.52 513.23 C 199.71 513.49, 199.87 513.48, 200.07 513.24 C 200.28 513.01, 200.29 512.82, 200.53 512.06 C 200.78 511.30, 200.93 510.83, 201.28 509.44 C 201.63 508.05, 201.83 507.08, 202.27 505.12 C 202.71 503.16, 203.07 501.75, 203.49 499.64 C 203.91 497.53, 204.17 496.26, 204.39 494.57 C 204.61 492.87, 204.76 491.90, 204.60 491.16 C 204.43 490.43, 204.08 490.32, 203.56 490.88" style="stroke: black; fill: black;"/><path d="M 203.85,473.59 C 203.48 473.58, 202.95 473.79, 202.83 473.91 C 202.72 474.03, 202.78 474.25, 203.26 474.20 C 203.75 474.15, 204.78 473.75, 205.25 473.66 C 205.72 473.56, 205.74 473.67, 205.62 473.73 C 205.49 473.79, 205.00 473.98, 204.64 473.96 C 204.29 473.93, 204.21 473.60, 203.85 473.59" style="stroke: black; fill: black;"/><path d="M 216.48,492.33 C 216.09 492.79, 215.90 493.50, 215.60 494.74 C 215.29 495.98, 215.15 496.90, 214.97 498.53 C 214.78 500.17, 214.72 501.33, 214.68 502.92 C 214.64 504.52, 214.62 505.36, 214.78 506.52 C 214.94 507.69, 215.05 508.18, 215.47 508.75 C 215.89 509.31, 216.23 509.47, 216.90 509.34 C 217.56 509.20, 218.02 508.93, 218.79 508.07 C 219.57 507.21, 219.98 506.45, 220.78 505.06 C 221.58 503.67, 221.96 502.66, 222.78 501.13 C 223.60 499.60, 224.10 498.69, 224.90 497.40 C 225.70 496.12, 226.15 495.49, 226.77 494.69 C 227.39 493.90, 227.64 493.65, 227.99 493.45 C 228.33 493.26, 228.38 493.34, 228.50 493.72 C 228.61 494.10, 228.55 494.49, 228.57 495.35 C 228.59 496.20, 228.57 496.86, 228.61 498.00 C 228.65 499.14, 228.66 499.89, 228.75 501.03 C 228.85 502.17, 228.82 502.82, 229.10 503.69 C 229.37 504.57, 229.57 505.01, 230.13 505.42 C 230.70 505.82, 231.11 505.92, 231.91 505.71 C 232.70 505.50, 233.18 505.18, 234.12 504.36 C 235.05 503.55, 235.57 502.84, 236.58 501.63 C 237.59 500.43, 238.15 499.56, 239.18 498.34 C 240.21 497.11, 240.81 496.41, 241.73 495.51 C 242.65 494.60, 243.11 494.22, 243.78 493.83 C 244.45 493.43, 244.70 493.37, 245.08 493.52 C 245.46 493.67, 245.49 493.94, 245.68 494.59 C 245.87 495.24, 245.87 495.76, 246.02 496.78 C 246.17 497.80, 246.21 498.50, 246.41 499.68 C 246.60 500.87, 246.67 501.58, 246.98 502.70 C 247.29 503.82, 247.46 504.42, 247.96 505.27 C 248.45 506.12, 248.83 506.50, 249.48 506.96 C 250.14 507.43, 250.63 507.56, 251.23 507.60 C 251.83 507.63, 252.24 507.43, 252.49 507.15 C 252.74 506.87, 252.64 506.48, 252.47 506.21 C 252.30 505.94, 251.97 505.97, 251.62 505.80 C 251.28 505.63, 251.06 505.66, 250.74 505.36 C 250.41 505.05, 250.20 504.93, 249.98 504.29 C 249.76 503.65, 249.75 503.17, 249.63 502.16 C 249.50 501.15, 249.53 500.44, 249.37 499.24 C 249.20 498.03, 249.16 497.28, 248.80 496.14 C 248.45 495.00, 248.22 494.36, 247.59 493.53 C 246.96 492.70, 246.55 492.30, 245.64 491.98 C 244.73 491.66, 244.16 491.64, 243.04 491.94 C 241.93 492.24, 241.29 492.62, 240.06 493.49 C 238.84 494.35, 238.15 495.06, 236.94 496.26 C 235.73 497.46, 235.02 498.26, 234.01 499.49 C 232.99 500.72, 232.48 501.43, 231.87 502.39 C 231.25 503.35, 231.09 503.82, 230.92 504.29 C 230.74 504.75, 230.88 504.87, 230.99 504.72 C 231.10 504.56, 231.31 504.26, 231.46 503.51 C 231.61 502.77, 231.69 502.13, 231.75 500.98 C 231.82 499.84, 231.89 499.04, 231.77 497.80 C 231.65 496.55, 231.58 495.79, 231.17 494.76 C 230.77 493.73, 230.44 493.18, 229.74 492.63 C 229.04 492.07, 228.56 491.89, 227.65 491.98 C 226.75 492.07, 226.23 492.32, 225.22 493.08 C 224.22 493.84, 223.68 494.50, 222.64 495.79 C 221.61 497.08, 221.02 497.99, 220.05 499.52 C 219.07 501.05, 218.49 502.00, 217.76 503.43 C 217.03 504.87, 216.73 505.68, 216.42 506.69 C 216.11 507.71, 216.17 508.14, 216.22 508.49 C 216.28 508.85, 216.47 508.84, 216.68 508.46 C 216.88 508.08, 217.03 507.66, 217.24 506.59 C 217.46 505.52, 217.60 504.69, 217.77 503.13 C 217.94 501.56, 218.04 500.40, 218.09 498.76 C 218.14 497.12, 218.13 496.19, 218.02 494.93 C 217.91 493.66, 217.86 492.94, 217.55 492.42 C 217.24 491.90, 216.87 491.86, 216.48 492.33" style="stroke: black; fill: black;"/><path d="M 271.70,493.41 C 271.57 493.03, 271.36 492.75, 270.73 492.48 C 270.09 492.21, 269.58 491.96, 268.54 492.06 C 267.50 492.15, 266.75 492.33, 265.52 492.96 C 264.29 493.60, 263.58 494.15, 262.40 495.24 C 261.21 496.33, 260.54 497.10, 259.60 498.43 C 258.67 499.76, 258.19 500.58, 257.73 501.90 C 257.26 503.21, 257.14 503.94, 257.27 504.99 C 257.41 506.03, 257.69 506.54, 258.39 507.12 C 259.10 507.71, 259.69 507.90, 260.79 507.89 C 261.89 507.88, 262.61 507.68, 263.89 507.08 C 265.17 506.47, 265.89 505.92, 267.17 504.87 C 268.46 503.81, 269.16 503.06, 270.31 501.81 C 271.47 500.57, 272.11 499.78, 272.94 498.63 C 273.77 497.49, 274.12 496.81, 274.45 496.07 C 274.79 495.33, 274.72 495.00, 274.59 494.93 C 274.47 494.86, 274.13 495.08, 273.83 495.73 C 273.53 496.37, 273.21 497.02, 273.10 498.15 C 272.98 499.29, 273.02 500.16, 273.25 501.41 C 273.47 502.65, 273.73 503.38, 274.22 504.37 C 274.71 505.36, 275.12 505.83, 275.70 506.38 C 276.29 506.92, 276.74 507.08, 277.15 507.12 C 277.56 507.15, 277.72 506.90, 277.74 506.54 C 277.77 506.18, 277.48 505.91, 277.27 505.30 C 277.07 504.69, 276.88 504.34, 276.70 503.48 C 276.53 502.62, 276.48 502.07, 276.42 501.01 C 276.35 499.95, 276.49 499.24, 276.39 498.17 C 276.29 497.11, 276.24 496.46, 275.91 495.68 C 275.58 494.91, 275.33 494.50, 274.75 494.31 C 274.17 494.13, 273.77 494.25, 272.99 494.76 C 272.20 495.27, 271.78 495.87, 270.82 496.87 C 269.85 497.87, 269.29 498.64, 268.17 499.77 C 267.06 500.90, 266.37 501.57, 265.23 502.53 C 264.10 503.49, 263.45 503.92, 262.49 504.55 C 261.53 505.18, 261.07 505.42, 260.43 505.69 C 259.79 505.96, 259.56 506.05, 259.31 505.91 C 259.05 505.78, 259.02 505.60, 259.18 505.01 C 259.33 504.42, 259.52 503.91, 260.07 502.95 C 260.63 501.98, 261.07 501.28, 261.95 500.18 C 262.82 499.09, 263.45 498.39, 264.45 497.47 C 265.46 496.55, 266.05 496.12, 266.96 495.58 C 267.87 495.04, 268.32 494.97, 268.99 494.78 C 269.67 494.59, 269.88 494.70, 270.35 494.62 C 270.82 494.54, 271.08 494.63, 271.35 494.39 C 271.62 494.14, 271.82 493.80, 271.70 493.41" style="stroke: black; fill: black;"/><path d="M 299.08,493.62 C 298.97 493.26, 298.80 493.01, 298.22 492.74 C 297.65 492.48, 297.19 492.26, 296.20 492.30 C 295.20 492.34, 294.47 492.44, 293.24 492.93 C 292.02 493.43, 291.27 493.88, 290.09 494.77 C 288.91 495.66, 288.23 496.28, 287.35 497.37 C 286.47 498.45, 286.01 499.14, 285.69 500.20 C 285.37 501.26, 285.39 501.91, 285.75 502.67 C 286.11 503.44, 286.57 503.80, 287.48 504.04 C 288.40 504.27, 289.10 504.22, 290.34 503.87 C 291.58 503.52, 292.35 503.09, 293.69 502.28 C 295.03 501.46, 295.79 500.82, 297.04 499.79 C 298.29 498.76, 298.96 498.10, 299.93 497.13 C 300.91 496.16, 301.38 495.64, 301.92 494.95 C 302.47 494.26, 302.58 493.91, 302.65 493.69 C 302.73 493.47, 302.50 493.44, 302.30 493.86 C 302.11 494.28, 301.85 494.71, 301.67 495.81 C 301.48 496.91, 301.44 497.72, 301.38 499.37 C 301.32 501.02, 301.38 502.05, 301.39 504.03 C 301.40 506.02, 301.42 507.18, 301.43 509.30 C 301.44 511.42, 301.48 512.59, 301.44 514.64 C 301.40 516.70, 301.41 517.77, 301.25 519.59 C 301.10 521.41, 301.01 522.30, 300.68 523.76 C 300.36 525.21, 300.14 525.86, 299.63 526.86 C 299.12 527.87, 298.81 528.24, 298.13 528.76 C 297.46 529.28, 297.06 529.39, 296.26 529.45 C 295.47 529.51, 295.00 529.41, 294.16 529.06 C 293.32 528.72, 292.83 528.43, 292.07 527.73 C 291.32 527.04, 290.89 526.59, 290.38 525.59 C 289.88 524.60, 289.63 524.01, 289.55 522.75 C 289.46 521.49, 289.52 520.76, 289.95 519.30 C 290.38 517.84, 290.76 517.02, 291.71 515.46 C 292.67 513.90, 293.33 513.05, 294.71 511.48 C 296.10 509.92, 296.97 509.10, 298.65 507.65 C 300.32 506.21, 301.30 505.50, 303.09 504.26 C 304.87 503.02, 305.85 502.44, 307.56 501.44 C 309.28 500.44, 310.16 499.99, 311.65 499.26 C 313.15 498.53, 313.86 498.24, 315.05 497.79 C 316.24 497.33, 316.78 497.19, 317.60 496.98 C 318.42 496.76, 318.73 496.68, 319.15 496.72 C 319.57 496.75, 319.59 496.82, 319.70 497.15 C 319.81 497.48, 319.71 497.76, 319.68 498.35 C 319.66 498.95, 319.58 499.39, 319.57 500.12 C 319.57 500.84, 319.54 501.33, 319.65 501.99 C 319.76 502.64, 319.92 502.98, 320.12 503.40 C 320.32 503.83, 320.42 503.98, 320.66 504.13 C 320.90 504.28, 321.07 504.29, 321.33 504.15 C 321.58 504.02, 321.70 503.88, 321.92 503.46 C 322.15 503.03, 322.33 502.71, 322.46 502.03 C 322.59 501.34, 322.62 500.85, 322.57 500.03 C 322.52 499.20, 322.48 498.68, 322.20 497.89 C 321.92 497.11, 321.72 496.66, 321.18 496.09 C 320.64 495.52, 320.30 495.27, 319.51 495.05 C 318.72 494.82, 318.27 494.83, 317.23 494.96 C 316.19 495.08, 315.62 495.23, 314.30 495.66 C 312.98 496.08, 312.23 496.37, 310.63 497.08 C 309.04 497.80, 308.12 498.23, 306.31 499.23 C 304.50 500.23, 303.48 500.81, 301.59 502.08 C 299.71 503.35, 298.67 504.07, 296.88 505.59 C 295.09 507.10, 294.15 507.96, 292.65 509.66 C 291.15 511.36, 290.43 512.29, 289.39 514.07 C 288.34 515.86, 287.91 516.82, 287.43 518.60 C 286.96 520.37, 286.89 521.31, 287.02 522.94 C 287.15 524.57, 287.42 525.39, 288.09 526.74 C 288.75 528.08, 289.28 528.73, 290.33 529.66 C 291.38 530.59, 292.09 530.99, 293.34 531.38 C 294.58 531.78, 295.33 531.82, 296.54 531.63 C 297.75 531.44, 298.38 531.16, 299.38 530.42 C 300.38 529.68, 300.82 529.14, 301.54 527.93 C 302.26 526.71, 302.53 525.95, 302.98 524.34 C 303.43 522.72, 303.54 521.77, 303.77 519.85 C 304.00 517.92, 304.02 516.83, 304.12 514.73 C 304.21 512.62, 304.20 511.46, 304.26 509.33 C 304.31 507.20, 304.32 506.05, 304.38 504.08 C 304.45 502.10, 304.55 501.10, 304.57 499.45 C 304.60 497.81, 304.67 497.04, 304.52 495.85 C 304.37 494.67, 304.25 494.18, 303.83 493.54 C 303.41 492.90, 303.09 492.71, 302.42 492.65 C 301.76 492.60, 301.37 492.77, 300.51 493.26 C 299.65 493.75, 299.19 494.26, 298.13 495.09 C 297.07 495.92, 296.42 496.53, 295.19 497.43 C 293.97 498.33, 293.20 498.83, 292.01 499.59 C 290.83 500.35, 290.16 500.71, 289.26 501.23 C 288.36 501.76, 287.97 502.00, 287.53 502.20 C 287.09 502.41, 287.01 502.45, 287.05 502.25 C 287.09 502.05, 287.26 501.79, 287.75 501.20 C 288.23 500.61, 288.63 500.09, 289.46 499.30 C 290.29 498.51, 290.90 497.94, 291.90 497.24 C 292.89 496.54, 293.51 496.21, 294.45 495.80 C 295.39 495.38, 295.88 495.36, 296.58 495.17 C 297.28 494.98, 297.50 494.98, 297.93 494.86 C 298.37 494.74, 298.54 494.80, 298.77 494.55 C 299.00 494.30, 299.19 493.98, 299.08 493.62" style="stroke: black; fill: black;"/><path d="M 322.45,481.62 C 322.81 481.77, 323.04 481.75, 323.08 481.82 C 323.12 481.89, 322.80 482.01, 322.64 481.97 C 322.48 481.92, 322.37 481.90, 322.28 481.59 C 322.19 481.28, 322.34 480.73, 322.18 480.43 C 322.01 480.13, 321.75 480.06, 321.47 480.08 C 321.20 480.11, 320.85 480.35, 320.81 480.55 C 320.77 480.76, 320.95 480.90, 321.28 481.11 C 321.61 481.33, 322.09 481.48, 322.45 481.62" style="stroke: black; fill: black;"/><path d="M 331.69,492.76 C 331.37 493.12, 331.32 493.61, 331.20 494.41 C 331.07 495.20, 331.06 495.76, 331.08 496.73 C 331.10 497.70, 331.11 498.37, 331.29 499.26 C 331.47 500.14, 331.61 500.59, 331.99 501.15 C 332.37 501.72, 332.63 501.94, 333.19 502.09 C 333.75 502.24, 334.11 502.24, 334.78 501.91 C 335.45 501.59, 335.81 501.23, 336.54 500.47 C 337.27 499.70, 337.63 499.06, 338.44 498.09 C 339.24 497.12, 339.72 496.48, 340.57 495.63 C 341.43 494.77, 341.94 494.33, 342.72 493.80 C 343.51 493.27, 343.89 493.09, 344.49 492.99 C 345.08 492.90, 345.31 493.00, 345.71 493.34 C 346.12 493.68, 346.23 494.00, 346.52 494.70 C 346.82 495.40, 346.90 495.91, 347.19 496.83 C 347.47 497.75, 347.60 498.34, 347.96 499.30 C 348.33 500.25, 348.50 500.78, 349.02 501.60 C 349.53 502.41, 349.81 502.83, 350.55 503.37 C 351.29 503.91, 351.74 504.14, 352.71 504.30 C 353.68 504.47, 354.25 504.46, 355.40 504.19 C 356.56 503.91, 357.23 503.63, 358.50 502.93 C 359.77 502.22, 360.49 501.70, 361.76 500.65 C 363.03 499.61, 363.74 498.92, 364.85 497.69 C 365.96 496.46, 366.54 495.74, 367.30 494.52 C 368.06 493.29, 368.40 492.65, 368.64 491.59 C 368.88 490.53, 368.86 489.95, 368.49 489.22 C 368.13 488.48, 367.68 488.10, 366.82 487.90 C 365.96 487.71, 365.25 487.75, 364.18 488.22 C 363.11 488.69, 362.42 489.19, 361.47 490.25 C 360.51 491.32, 359.99 492.12, 359.42 493.54 C 358.84 494.97, 358.58 495.88, 358.59 497.38 C 358.61 498.87, 358.80 499.72, 359.51 501.02 C 360.22 502.31, 360.82 502.95, 362.14 503.84 C 363.46 504.72, 364.51 505.06, 366.10 505.45 C 367.70 505.84, 368.73 505.86, 370.12 505.79 C 371.50 505.72, 372.45 505.43, 373.03 505.08 C 373.61 504.73, 373.57 504.40, 373.03 504.06 C 372.48 503.71, 371.56 503.63, 370.31 503.35 C 369.06 503.07, 368.16 502.98, 366.79 502.65 C 365.41 502.31, 364.51 502.22, 363.45 501.67 C 362.39 501.13, 361.96 500.76, 361.49 499.92 C 361.02 499.07, 360.98 498.50, 361.09 497.47 C 361.20 496.43, 361.50 495.77, 362.04 494.73 C 362.58 493.69, 363.08 493.11, 363.79 492.27 C 364.49 491.44, 364.97 491.07, 365.57 490.54 C 366.17 490.01, 366.46 489.81, 366.78 489.63 C 367.10 489.46, 367.20 489.43, 367.17 489.67 C 367.15 489.92, 367.06 490.18, 366.65 490.85 C 366.25 491.52, 365.94 492.05, 365.16 493.03 C 364.39 494.00, 363.83 494.67, 362.78 495.74 C 361.72 496.81, 361.04 497.44, 359.89 498.38 C 358.74 499.32, 358.09 499.78, 357.03 500.44 C 355.98 501.10, 355.46 501.35, 354.63 501.69 C 353.81 502.03, 353.48 502.11, 352.92 502.13 C 352.36 502.14, 352.18 502.09, 351.82 501.76 C 351.47 501.44, 351.39 501.17, 351.15 500.50 C 350.90 499.83, 350.85 499.35, 350.59 498.43 C 350.34 497.50, 350.24 496.88, 349.86 495.89 C 349.47 494.89, 349.27 494.30, 348.67 493.45 C 348.06 492.60, 347.69 492.15, 346.83 491.65 C 345.97 491.16, 345.43 490.97, 344.38 490.97 C 343.33 490.96, 342.72 491.13, 341.57 491.62 C 340.43 492.11, 339.78 492.56, 338.66 493.42 C 337.54 494.28, 336.89 494.90, 335.96 495.91 C 335.02 496.93, 334.54 497.59, 333.98 498.50 C 333.43 499.41, 333.30 499.91, 333.17 500.47 C 333.05 501.03, 333.20 501.23, 333.35 501.30 C 333.50 501.37, 333.73 501.26, 333.92 500.81 C 334.12 500.36, 334.29 499.91, 334.35 499.04 C 334.40 498.17, 334.34 497.46, 334.20 496.48 C 334.07 495.50, 333.94 494.92, 333.66 494.15 C 333.37 493.38, 333.18 492.91, 332.78 492.63 C 332.39 492.35, 332.01 492.41, 331.69 492.76" style="stroke: black; fill: black;"/><path d="M 419.53,470.97 C 419.22 471.30, 419.13 471.60, 418.91 472.58 C 418.69 473.56, 418.58 474.23, 418.43 475.87 C 418.28 477.52, 418.27 478.65, 418.16 480.80 C 418.06 482.96, 418.03 484.28, 417.91 486.63 C 417.79 488.98, 417.70 490.30, 417.55 492.53 C 417.41 494.76, 417.29 495.90, 417.17 497.76 C 417.05 499.63, 417.01 500.55, 416.97 501.86 C 416.92 503.17, 416.89 503.59, 416.94 504.30 C 416.99 505.01, 417.13 505.14, 417.23 505.40 C 417.34 505.66, 417.38 505.52, 417.45 505.58 C 417.53 505.64, 417.49 505.69, 417.60 505.68 C 417.72 505.68, 417.82 505.81, 418.03 505.57 C 418.24 505.34, 418.42 505.21, 418.65 504.51 C 418.88 503.81, 418.96 503.38, 419.17 502.07 C 419.37 500.77, 419.46 499.85, 419.68 497.99 C 419.90 496.13, 420.03 494.99, 420.26 492.76 C 420.50 490.53, 420.65 489.20, 420.86 486.84 C 421.07 484.48, 421.21 483.14, 421.33 480.97 C 421.45 478.79, 421.50 477.64, 421.46 475.97 C 421.41 474.29, 421.29 473.60, 421.09 472.61 C 420.89 471.61, 420.78 471.30, 420.47 470.97 C 420.16 470.65, 419.84 470.65, 419.53 470.97" style="stroke: black; fill: black;"/><path d="M 409.48,493.36 C 409.76 493.64, 410.01 493.73, 410.79 493.84 C 411.57 493.95, 412.11 494.00, 413.37 493.90 C 414.64 493.79, 415.49 493.67, 417.11 493.33 C 418.74 492.99, 419.72 492.73, 421.49 492.18 C 423.26 491.64, 424.22 491.32, 425.96 490.59 C 427.69 489.87, 428.58 489.45, 430.17 488.55 C 431.75 487.64, 432.52 487.15, 433.86 486.08 C 435.21 485.02, 435.84 484.43, 436.90 483.24 C 437.95 482.05, 438.43 481.36, 439.13 480.13 C 439.83 478.90, 440.12 478.22, 440.41 477.09 C 440.70 475.96, 440.77 475.34, 440.59 474.50 C 440.42 473.67, 440.11 473.22, 439.53 472.91 C 438.95 472.60, 438.40 472.56, 437.67 472.94 C 436.95 473.33, 436.50 473.77, 435.91 474.85 C 435.31 475.92, 435.08 476.72, 434.70 478.31 C 434.31 479.90, 434.19 480.94, 433.99 482.79 C 433.78 484.64, 433.72 485.73, 433.68 487.57 C 433.63 489.41, 433.65 490.37, 433.77 491.98 C 433.89 493.58, 433.97 494.36, 434.28 495.61 C 434.59 496.86, 434.79 497.40, 435.33 498.22 C 435.88 499.03, 436.23 499.34, 437.02 499.70 C 437.81 500.05, 438.31 500.10, 439.26 499.98 C 440.22 499.87, 440.78 499.62, 441.80 499.11 C 442.82 498.60, 443.39 498.13, 444.36 497.42 C 445.33 496.71, 445.86 496.18, 446.65 495.56 C 447.43 494.95, 447.77 494.61, 448.29 494.34 C 448.81 494.08, 448.95 494.06, 449.24 494.25 C 449.54 494.44, 449.55 494.71, 449.78 495.30 C 450.00 495.88, 450.03 496.38, 450.38 497.17 C 450.73 497.97, 450.95 498.51, 451.52 499.29 C 452.09 500.06, 452.44 500.49, 453.23 501.07 C 454.02 501.64, 454.48 501.91, 455.47 502.16 C 456.45 502.40, 457.03 502.45, 458.16 502.29 C 459.29 502.13, 459.93 501.93, 461.13 501.36 C 462.33 500.78, 462.99 500.36, 464.16 499.42 C 465.32 498.48, 465.95 497.84, 466.94 496.66 C 467.93 495.48, 468.45 494.75, 469.11 493.50 C 469.77 492.26, 470.07 491.55, 470.24 490.42 C 470.41 489.29, 470.35 488.67, 469.96 487.86 C 469.57 487.04, 469.14 486.63, 468.27 486.34 C 467.39 486.06, 466.68 486.04, 465.59 486.43 C 464.50 486.82, 463.80 487.27, 462.81 488.27 C 461.83 489.27, 461.30 490.04, 460.67 491.43 C 460.05 492.81, 459.77 493.71, 459.68 495.20 C 459.59 496.70, 459.69 497.57, 460.23 498.91 C 460.77 500.26, 461.25 500.94, 462.37 501.93 C 463.49 502.93, 464.28 503.32, 465.83 503.89 C 467.37 504.45, 468.34 504.60, 470.10 504.76 C 471.87 504.91, 472.98 504.85, 474.64 504.67 C 476.29 504.48, 477.16 504.23, 478.37 503.83 C 479.58 503.43, 480.27 503.07, 480.69 502.66 C 481.11 502.25, 481.03 501.97, 480.49 501.78 C 479.95 501.59, 479.21 501.70, 478.00 501.71 C 476.79 501.72, 475.97 501.81, 474.43 501.85 C 472.90 501.89, 471.87 502.01, 470.31 501.93 C 468.75 501.84, 467.92 501.77, 466.63 501.41 C 465.35 501.05, 464.74 500.79, 463.89 500.13 C 463.05 499.46, 462.74 499.02, 462.41 498.08 C 462.08 497.15, 462.08 496.54, 462.25 495.46 C 462.42 494.38, 462.72 493.71, 463.26 492.69 C 463.81 491.66, 464.30 491.11, 464.99 490.32 C 465.69 489.53, 466.15 489.18, 466.74 488.73 C 467.33 488.28, 467.62 488.12, 467.96 488.05 C 468.29 487.99, 468.38 488.04, 468.39 488.40 C 468.41 488.76, 468.36 489.10, 468.04 489.85 C 467.72 490.61, 467.46 491.17, 466.81 492.16 C 466.16 493.16, 465.69 493.81, 464.80 494.82 C 463.91 495.83, 463.34 496.40, 462.35 497.21 C 461.37 498.03, 460.80 498.39, 459.87 498.91 C 458.94 499.43, 458.47 499.62, 457.69 499.82 C 456.91 500.02, 456.58 500.04, 455.99 499.92 C 455.39 499.80, 455.16 499.64, 454.73 499.22 C 454.29 498.80, 454.16 498.48, 453.80 497.82 C 453.45 497.16, 453.36 496.69, 452.95 495.93 C 452.54 495.17, 452.34 494.66, 451.76 494.00 C 451.18 493.34, 450.82 492.97, 450.03 492.63 C 449.23 492.29, 448.74 492.19, 447.77 492.31 C 446.80 492.42, 446.22 492.68, 445.18 493.20 C 444.14 493.72, 443.54 494.22, 442.56 494.91 C 441.58 495.60, 441.07 496.06, 440.29 496.65 C 439.51 497.24, 439.19 497.55, 438.66 497.86 C 438.14 498.16, 437.99 498.27, 437.66 498.16 C 437.32 498.05, 437.22 497.90, 436.99 497.31 C 436.76 496.71, 436.65 496.27, 436.52 495.18 C 436.38 494.09, 436.33 493.37, 436.32 491.87 C 436.31 490.38, 436.34 489.45, 436.48 487.71 C 436.62 485.98, 436.74 484.92, 437.01 483.19 C 437.27 481.45, 437.49 480.48, 437.81 479.03 C 438.12 477.58, 438.35 476.90, 438.59 475.94 C 438.82 474.97, 438.92 474.63, 438.98 474.20 C 439.05 473.76, 438.97 473.69, 438.90 473.76 C 438.83 473.83, 438.78 474.01, 438.63 474.54 C 438.48 475.06, 438.47 475.52, 438.14 476.39 C 437.82 477.26, 437.63 477.86, 437.01 478.90 C 436.39 479.94, 435.99 480.56, 435.06 481.60 C 434.12 482.65, 433.57 483.18, 432.34 484.13 C 431.11 485.07, 430.40 485.51, 428.92 486.31 C 427.45 487.10, 426.61 487.47, 424.96 488.09 C 423.32 488.71, 422.39 488.97, 420.70 489.40 C 419.01 489.83, 418.05 489.96, 416.49 490.26 C 414.93 490.56, 414.11 490.63, 412.91 490.91 C 411.71 491.19, 411.21 491.36, 410.50 491.67 C 409.79 491.97, 409.58 492.08, 409.37 492.42 C 409.17 492.76, 409.19 493.07, 409.48 493.36" style="stroke: black; fill: black;"/><path d="M 527.01,471.79 C 526.72 472.16, 526.66 472.54, 526.49 473.57 C 526.33 474.60, 526.26 475.28, 526.17 476.95 C 526.08 478.61, 526.11 479.74, 526.04 481.88 C 525.97 484.02, 525.94 485.32, 525.83 487.63 C 525.71 489.94, 525.61 491.24, 525.46 493.44 C 525.31 495.63, 525.16 496.77, 525.07 498.59 C 524.98 500.41, 524.96 501.26, 525.01 502.52 C 525.05 503.78, 525.08 504.39, 525.28 504.88 C 525.49 505.37, 525.74 505.40, 526.05 504.97 C 526.36 504.53, 526.53 503.94, 526.83 502.71 C 527.14 501.49, 527.30 500.64, 527.56 498.83 C 527.83 497.03, 527.93 495.88, 528.17 493.68 C 528.41 491.47, 528.55 490.17, 528.75 487.83 C 528.96 485.49, 529.09 484.17, 529.18 481.99 C 529.26 479.81, 529.27 478.64, 529.18 476.94 C 529.08 475.24, 528.94 474.54, 528.70 473.50 C 528.46 472.46, 528.32 472.08, 527.98 471.74 C 527.65 471.40, 527.31 471.42, 527.01 471.79" style="stroke: black; fill: black;"/><path d="M 519.52,472.10 C 520.06 471.78, 520.39 471.00, 521.27 470.01 C 522.16 469.02, 522.64 468.29, 523.94 467.15 C 525.23 466.02, 526.04 465.21, 527.74 464.35 C 529.45 463.49, 530.53 463.17, 532.46 462.85 C 534.39 462.54, 535.57 462.56, 537.41 462.76 C 539.26 462.96, 540.25 463.23, 541.69 463.85 C 543.12 464.48, 543.79 464.96, 544.59 465.89 C 545.40 466.82, 545.65 467.38, 545.72 468.49 C 545.79 469.61, 545.61 470.22, 544.95 471.47 C 544.29 472.72, 543.70 473.43, 542.43 474.75 C 541.16 476.07, 540.23 476.82, 538.58 478.07 C 536.93 479.32, 535.84 479.94, 534.16 481.01 C 532.48 482.08, 531.53 482.58, 530.18 483.42 C 528.84 484.26, 527.91 484.67, 527.42 485.19 C 526.94 485.72, 527.03 486.02, 527.77 486.05 C 528.51 486.09, 529.54 485.91, 531.10 485.38 C 532.66 484.85, 533.73 484.41, 535.57 483.40 C 537.42 482.40, 538.54 481.72, 540.33 480.37 C 542.11 479.01, 543.12 478.20, 544.48 476.62 C 545.85 475.04, 546.48 474.13, 547.15 472.47 C 547.82 470.81, 547.99 469.89, 547.82 468.30 C 547.64 466.71, 547.29 465.85, 546.27 464.52 C 545.25 463.20, 544.43 462.55, 542.72 461.68 C 541.01 460.81, 539.87 460.50, 537.73 460.20 C 535.60 459.90, 534.31 459.86, 532.05 460.18 C 529.80 460.49, 528.49 460.79, 526.47 461.76 C 524.45 462.73, 523.40 463.64, 521.97 465.03 C 520.54 466.41, 520.00 467.36, 519.31 468.68 C 518.63 470.00, 518.50 470.93, 518.54 471.61 C 518.59 472.30, 518.97 472.42, 519.52 472.10" style="stroke: black; fill: black;"/><path d="M 545.80,496.92 C 545.44 497.24, 545.32 497.78, 545.11 498.52 C 544.91 499.26, 544.84 499.77, 544.77 500.62 C 544.69 501.47, 544.58 502.09, 544.74 502.77 C 544.90 503.46, 545.18 503.77, 545.57 504.04 C 545.96 504.32, 546.25 504.36, 546.67 504.15 C 547.10 503.94, 547.32 503.69, 547.70 502.98 C 548.09 502.28, 548.21 501.71, 548.59 500.62 C 548.97 499.53, 549.07 498.74, 549.60 497.52 C 550.14 496.29, 550.48 495.58, 551.24 494.49 C 552.00 493.41, 552.47 492.88, 553.41 492.08 C 554.35 491.27, 554.89 490.95, 555.92 490.47 C 556.96 489.98, 557.52 489.85, 558.59 489.65 C 559.65 489.46, 560.22 489.46, 561.25 489.49 C 562.29 489.51, 562.82 489.60, 563.78 489.77 C 564.74 489.95, 565.20 490.12, 566.05 490.37 C 566.90 490.62, 567.33 490.85, 568.01 491.01 C 568.68 491.16, 568.98 491.16, 569.43 491.15 C 569.89 491.14, 570.07 491.11, 570.28 490.95 C 570.50 490.79, 570.55 490.59, 570.50 490.34 C 570.44 490.08, 570.32 489.97, 569.99 489.67 C 569.66 489.36, 569.48 489.14, 568.84 488.80 C 568.20 488.46, 567.71 488.26, 566.79 487.96 C 565.86 487.67, 565.31 487.52, 564.22 487.33 C 563.12 487.14, 562.51 487.03, 561.29 487.02 C 560.08 487.01, 559.41 487.02, 558.13 487.27 C 556.86 487.51, 556.17 487.69, 554.91 488.26 C 553.65 488.83, 552.98 489.21, 551.81 490.12 C 550.64 491.03, 550.05 491.62, 549.06 492.83 C 548.07 494.04, 547.61 494.81, 546.86 496.15 C 546.12 497.49, 545.73 498.28, 545.33 499.52 C 544.92 500.76, 544.82 501.45, 544.85 502.35 C 544.88 503.25, 545.10 503.64, 545.46 504.02 C 545.82 504.39, 546.20 504.42, 546.66 504.21 C 547.12 503.99, 547.52 503.65, 547.76 502.95 C 548.01 502.25, 547.91 501.58, 547.88 500.71 C 547.86 499.83, 547.81 499.31, 547.63 498.56 C 547.44 497.80, 547.32 497.25, 546.95 496.93 C 546.59 496.60, 546.17 496.60, 545.80 496.92" style="stroke: black; fill: black;"/><path d="M 575.25,494.61 C 574.93 494.43, 574.72 494.47, 574.17 494.58 C 573.63 494.69, 573.25 494.74, 572.52 495.18 C 571.79 495.61, 571.27 495.99, 570.53 496.76 C 569.79 497.53, 569.36 498.06, 568.83 499.02 C 568.29 499.98, 567.99 500.57, 567.86 501.57 C 567.74 502.57, 567.77 503.18, 568.19 504.02 C 568.61 504.85, 569.04 505.29, 569.97 505.74 C 570.90 506.19, 571.57 506.31, 572.84 506.28 C 574.10 506.24, 574.91 506.06, 576.30 505.58 C 577.69 505.10, 578.50 504.69, 579.79 503.87 C 581.08 503.06, 581.77 502.52, 582.74 501.51 C 583.72 500.50, 584.18 499.91, 584.66 498.81 C 585.15 497.72, 585.26 497.09, 585.18 496.04 C 585.09 495.00, 584.83 494.43, 584.23 493.59 C 583.63 492.75, 583.09 492.34, 582.18 491.85 C 581.28 491.36, 580.59 491.22, 579.71 491.14 C 578.83 491.05, 578.38 491.22, 577.79 491.41 C 577.21 491.60, 576.98 491.81, 576.80 492.09 C 576.62 492.38, 576.68 492.59, 576.88 492.83 C 577.07 493.08, 577.30 493.11, 577.77 493.32 C 578.24 493.52, 578.56 493.66, 579.22 493.85 C 579.88 494.04, 580.41 494.04, 581.07 494.27 C 581.74 494.50, 582.12 494.62, 582.55 495.00 C 582.97 495.38, 583.16 495.63, 583.18 496.18 C 583.21 496.74, 583.12 497.09, 582.67 497.77 C 582.23 498.46, 581.82 498.88, 580.95 499.61 C 580.08 500.33, 579.45 500.77, 578.32 501.40 C 577.19 502.03, 576.45 502.34, 575.29 502.76 C 574.14 503.18, 573.49 503.33, 572.56 503.52 C 571.64 503.70, 571.22 503.74, 570.69 503.68 C 570.15 503.62, 569.99 503.53, 569.88 503.23 C 569.77 502.93, 569.87 502.69, 570.14 502.17 C 570.41 501.65, 570.71 501.27, 571.24 500.64 C 571.78 500.01, 572.20 499.63, 572.82 499.01 C 573.44 498.39, 573.85 498.08, 574.36 497.56 C 574.87 497.05, 575.08 496.86, 575.36 496.44 C 575.65 496.02, 575.81 495.83, 575.79 495.46 C 575.76 495.10, 575.57 494.79, 575.25 494.61" style="stroke: black; fill: black;"/><path d="M 604.41,495.21 C 604.22 494.87, 604.00 494.68, 603.35 494.51 C 602.71 494.34, 602.21 494.19, 601.20 494.37 C 600.18 494.55, 599.44 494.77, 598.28 495.42 C 597.12 496.07, 596.44 496.60, 595.40 497.60 C 594.36 498.60, 593.77 499.27, 593.06 500.44 C 592.35 501.61, 592.02 502.33, 591.86 503.45 C 591.70 504.57, 591.79 505.23, 592.26 506.05 C 592.73 506.87, 593.22 507.27, 594.20 507.57 C 595.19 507.86, 595.88 507.87, 597.17 507.52 C 598.45 507.17, 599.22 506.79, 600.63 505.81 C 602.04 504.83, 602.81 504.14, 604.23 502.61 C 605.64 501.09, 606.38 500.14, 607.71 498.18 C 609.05 496.23, 609.74 495.06, 610.89 492.85 C 612.03 490.64, 612.58 489.35, 613.43 487.14 C 614.29 484.93, 614.63 483.73, 615.16 481.80 C 615.68 479.88, 615.92 478.94, 616.06 477.52 C 616.19 476.09, 616.14 475.39, 615.83 474.68 C 615.52 473.97, 615.11 473.76, 614.51 473.96 C 613.91 474.15, 613.44 474.53, 612.84 475.65 C 612.23 476.77, 611.93 477.68, 611.50 479.57 C 611.07 481.46, 610.93 482.79, 610.68 485.10 C 610.44 487.41, 610.33 488.81, 610.27 491.12 C 610.21 493.43, 610.21 494.66, 610.38 496.66 C 610.56 498.66, 610.71 499.61, 611.16 501.11 C 611.61 502.62, 611.91 503.25, 612.65 504.18 C 613.39 505.11, 613.86 505.44, 614.85 505.77 C 615.84 506.09, 616.46 506.10, 617.59 505.80 C 618.73 505.50, 619.37 505.14, 620.51 504.27 C 621.65 503.39, 622.25 502.70, 623.28 501.44 C 624.31 500.18, 624.83 499.32, 625.67 497.98 C 626.51 496.65, 626.96 495.87, 627.48 494.76 C 628.00 493.64, 628.20 493.04, 628.27 492.41 C 628.35 491.78, 628.15 491.54, 627.86 491.61 C 627.57 491.68, 627.17 492.00, 626.83 492.76 C 626.49 493.51, 626.26 494.20, 626.17 495.37 C 626.07 496.54, 626.14 497.37, 626.37 498.61 C 626.60 499.85, 626.78 500.56, 627.30 501.57 C 627.82 502.58, 628.18 503.05, 628.99 503.67 C 629.79 504.29, 630.29 504.50, 631.31 504.66 C 632.32 504.82, 632.93 504.78, 634.06 504.48 C 635.20 504.18, 635.83 503.86, 636.98 503.16 C 638.13 502.47, 638.75 501.93, 639.80 500.99 C 640.84 500.04, 641.46 499.37, 642.22 498.44 C 642.99 497.51, 643.31 496.93, 643.62 496.35 C 643.94 495.76, 643.87 495.54, 643.81 495.53 C 643.74 495.52, 643.49 495.73, 643.28 496.32 C 643.07 496.90, 642.82 497.49, 642.77 498.47 C 642.73 499.45, 642.81 500.18, 643.07 501.22 C 643.34 502.26, 643.58 502.82, 644.10 503.67 C 644.61 504.51, 644.95 505.02, 645.66 505.44 C 646.38 505.86, 647.19 505.91, 647.67 505.77 C 648.16 505.62, 648.23 505.12, 648.08 504.73 C 647.93 504.34, 647.29 504.23, 646.93 503.81 C 646.57 503.39, 646.45 503.26, 646.28 502.64 C 646.12 502.03, 646.14 501.59, 646.09 500.73 C 646.04 499.86, 646.18 499.26, 646.05 498.32 C 645.93 497.38, 645.82 496.76, 645.45 496.03 C 645.07 495.31, 644.79 494.94, 644.17 494.69 C 643.55 494.45, 643.15 494.46, 642.34 494.81 C 641.54 495.16, 641.07 495.64, 640.16 496.44 C 639.25 497.24, 638.75 497.93, 637.80 498.80 C 636.86 499.67, 636.34 500.15, 635.43 500.79 C 634.52 501.44, 634.03 501.69, 633.25 502.03 C 632.46 502.38, 632.10 502.49, 631.50 502.51 C 630.91 502.52, 630.67 502.47, 630.28 502.11 C 629.89 501.74, 629.74 501.44, 629.57 500.68 C 629.40 499.92, 629.43 499.36, 629.44 498.32 C 629.44 497.28, 629.64 496.55, 629.61 495.46 C 629.58 494.38, 629.53 493.73, 629.29 492.90 C 629.04 492.08, 628.86 491.63, 628.38 491.34 C 627.91 491.06, 627.56 491.07, 626.93 491.48 C 626.29 491.89, 625.93 492.41, 625.19 493.39 C 624.45 494.37, 624.08 495.15, 623.23 496.38 C 622.38 497.61, 621.85 498.40, 620.94 499.55 C 620.03 500.71, 619.51 501.33, 618.68 502.16 C 617.85 503.00, 617.47 503.34, 616.80 503.73 C 616.13 504.12, 615.87 504.23, 615.35 504.10 C 614.82 503.98, 614.59 503.81, 614.18 503.11 C 613.78 502.40, 613.57 501.89, 613.32 500.57 C 613.07 499.26, 612.96 498.38, 612.93 496.52 C 612.89 494.66, 612.95 493.48, 613.13 491.27 C 613.31 489.07, 613.51 487.72, 613.85 485.50 C 614.18 483.29, 614.50 482.03, 614.79 480.21 C 615.08 478.38, 615.23 477.53, 615.30 476.38 C 615.37 475.24, 615.29 474.81, 615.13 474.48 C 614.97 474.15, 614.78 474.20, 614.51 474.73 C 614.25 475.25, 614.16 475.84, 613.81 477.11 C 613.45 478.38, 613.31 479.28, 612.74 481.09 C 612.16 482.90, 611.80 484.05, 610.93 486.14 C 610.07 488.23, 609.53 489.46, 608.41 491.55 C 607.30 493.63, 606.63 494.76, 605.37 496.58 C 604.11 498.39, 603.41 499.27, 602.12 500.65 C 600.83 502.02, 600.10 502.58, 598.93 503.46 C 597.76 504.34, 597.15 504.61, 596.27 505.05 C 595.39 505.49, 595.02 505.59, 594.52 505.64 C 594.01 505.69, 593.86 505.63, 593.76 505.31 C 593.67 504.99, 593.73 504.69, 594.04 504.03 C 594.36 503.37, 594.66 502.85, 595.33 502.00 C 596.01 501.16, 596.53 500.58, 597.42 499.81 C 598.32 499.03, 598.90 498.65, 599.81 498.13 C 600.72 497.61, 601.24 497.49, 601.96 497.20 C 602.69 496.91, 602.95 496.89, 603.42 496.68 C 603.89 496.48, 604.11 496.49, 604.31 496.19 C 604.50 495.90, 604.60 495.55, 604.41 495.21" style="stroke: black; fill: black;"/><path d="M 667.41,492.05 C 667.12 491.76, 666.80 491.54, 666.01 491.54 C 665.22 491.55, 664.61 491.59, 663.45 492.08 C 662.30 492.58, 661.49 492.99, 660.25 494.02 C 659.00 495.04, 658.26 495.82, 657.24 497.20 C 656.22 498.58, 655.66 499.44, 655.15 500.90 C 654.63 502.36, 654.45 503.20, 654.65 504.49 C 654.85 505.77, 655.18 506.46, 656.13 507.32 C 657.09 508.18, 657.85 508.53, 659.41 508.78 C 660.98 509.03, 661.99 508.97, 663.95 508.58 C 665.90 508.19, 667.04 507.80, 669.19 506.84 C 671.34 505.88, 672.53 505.22, 674.69 503.78 C 676.85 502.33, 677.99 501.43, 679.98 499.61 C 681.97 497.79, 682.96 496.73, 684.64 494.69 C 686.32 492.65, 687.11 491.47, 688.37 489.41 C 689.64 487.35, 690.17 486.22, 690.97 484.38 C 691.76 482.55, 692.09 481.63, 692.36 480.23 C 692.63 478.82, 692.60 478.09, 692.32 477.35 C 692.04 476.61, 691.60 476.37, 690.97 476.53 C 690.34 476.69, 689.86 477.06, 689.18 478.16 C 688.49 479.25, 688.12 480.15, 687.56 482.01 C 687.00 483.88, 686.79 485.20, 686.37 487.49 C 685.95 489.77, 685.76 491.17, 685.46 493.45 C 685.17 495.73, 685.06 496.94, 684.91 498.89 C 684.76 500.84, 684.68 501.75, 684.73 503.19 C 684.78 504.63, 684.97 505.29, 685.17 506.07 C 685.36 506.85, 685.51 506.90, 685.72 507.09 C 685.93 507.29, 686.03 507.27, 686.21 507.06 C 686.39 506.85, 686.45 506.79, 686.62 506.04 C 686.78 505.28, 686.87 504.66, 687.03 503.28 C 687.20 501.91, 687.20 501.03, 687.45 499.15 C 687.71 497.28, 687.89 496.10, 688.30 493.90 C 688.71 491.69, 689.00 490.33, 689.50 488.12 C 689.99 485.92, 690.37 484.68, 690.78 482.87 C 691.20 481.06, 691.43 480.21, 691.59 479.06 C 691.75 477.91, 691.68 477.47, 691.57 477.13 C 691.45 476.79, 691.27 476.86, 691.00 477.36 C 690.73 477.86, 690.66 478.43, 690.21 479.63 C 689.76 480.83, 689.55 481.69, 688.74 483.37 C 687.94 485.06, 687.42 486.13, 686.19 488.05 C 684.97 489.98, 684.22 491.09, 682.61 493.00 C 681.01 494.91, 680.06 495.91, 678.16 497.60 C 676.27 499.29, 675.17 500.12, 673.15 501.45 C 671.12 502.77, 669.99 503.35, 668.02 504.22 C 666.06 505.09, 665.01 505.38, 663.33 505.80 C 661.65 506.22, 660.83 506.31, 659.63 506.32 C 658.43 506.32, 657.94 506.23, 657.35 505.83 C 656.75 505.43, 656.62 505.11, 656.65 504.33 C 656.68 503.55, 656.92 502.99, 657.51 501.94 C 658.10 500.89, 658.63 500.17, 659.59 499.07 C 660.54 497.98, 661.22 497.35, 662.28 496.48 C 663.33 495.61, 664.00 495.30, 664.86 494.73 C 665.72 494.16, 666.05 493.97, 666.56 493.62 C 667.08 493.28, 667.28 493.32, 667.45 493.01 C 667.62 492.69, 667.69 492.35, 667.41 492.05" style="stroke: black; fill: black;"/><path d="M 678.89,498.25 C 679.23 498.48, 679.44 498.51, 680.40 498.56 C 681.37 498.60, 682.09 498.58, 683.71 498.48 C 685.33 498.38, 686.43 498.26, 688.52 498.05 C 690.60 497.83, 692.06 497.71, 694.13 497.41 C 696.21 497.12, 697.32 496.93, 698.87 496.58 C 700.42 496.23, 701.29 496.04, 701.88 495.68 C 702.47 495.33, 702.45 495.08, 701.81 494.82 C 701.17 494.57, 700.28 494.51, 698.70 494.41 C 697.11 494.32, 695.98 494.30, 693.87 494.37 C 691.77 494.43, 690.30 494.53, 688.19 494.73 C 686.07 494.94, 684.93 495.07, 683.30 495.40 C 681.66 495.73, 680.92 496.01, 680.00 496.40 C 679.08 496.80, 678.90 497.02, 678.68 497.39 C 678.46 497.76, 678.54 498.02, 678.89 498.25" style="stroke: black; fill: black;"/><path d="M 748.93,478.43 C 748.60 478.86, 748.51 479.35, 748.27 480.58 C 748.04 481.82, 747.92 482.72, 747.74 484.59 C 747.56 486.46, 747.51 487.74, 747.38 489.94 C 747.24 492.15, 747.19 493.45, 747.06 495.61 C 746.92 497.78, 746.82 498.92, 746.70 500.76 C 746.58 502.61, 746.48 503.49, 746.46 504.84 C 746.43 506.20, 746.49 506.73, 746.57 507.54 C 746.66 508.35, 746.70 508.63, 746.88 508.91 C 747.07 509.20, 747.27 509.23, 747.51 508.98 C 747.76 508.74, 747.87 508.47, 748.11 507.69 C 748.35 506.90, 748.48 506.39, 748.71 505.06 C 748.94 503.72, 749.01 502.84, 749.25 501.01 C 749.48 499.17, 749.62 498.03, 749.87 495.87 C 750.13 493.70, 750.32 492.39, 750.50 490.17 C 750.69 487.94, 750.80 486.65, 750.81 484.74 C 750.82 482.84, 750.75 481.90, 750.57 480.64 C 750.39 479.38, 750.25 478.87, 749.92 478.43 C 749.59 477.98, 749.26 477.99, 748.93 478.43" style="stroke: black; fill: black;"/><path d="M 732.96,477.34 C 733.26 477.53, 733.40 477.49, 734.12 477.48 C 734.83 477.47, 735.24 477.43, 736.53 477.28 C 737.81 477.12, 738.65 476.94, 740.53 476.72 C 742.41 476.49, 743.61 476.35, 745.93 476.15 C 748.25 475.94, 749.63 475.85, 752.15 475.70 C 754.66 475.56, 756.02 475.49, 758.50 475.43 C 760.98 475.36, 762.26 475.36, 764.54 475.36 C 766.82 475.36, 767.94 475.38, 769.88 475.41 C 771.83 475.44, 772.73 475.47, 774.24 475.51 C 775.76 475.54, 776.46 475.63, 777.46 475.59 C 778.47 475.56, 778.76 475.45, 779.27 475.34 C 779.78 475.23, 779.85 475.20, 780.01 475.05 C 780.17 474.89, 780.20 474.77, 780.08 474.58 C 779.96 474.38, 779.89 474.29, 779.40 474.09 C 778.90 473.88, 778.62 473.71, 777.61 473.53 C 776.61 473.35, 775.89 473.30, 774.36 473.19 C 772.82 473.08, 771.91 473.06, 769.95 472.98 C 767.99 472.90, 766.86 472.85, 764.56 472.81 C 762.26 472.76, 760.96 472.74, 758.45 472.75 C 755.95 472.76, 754.57 472.79, 752.02 472.87 C 749.47 472.95, 748.08 472.99, 745.71 473.14 C 743.33 473.29, 742.10 473.35, 740.15 473.60 C 738.19 473.85, 737.27 474.01, 735.94 474.39 C 734.61 474.77, 734.16 475.09, 733.50 475.51 C 732.83 475.93, 732.72 476.15, 732.61 476.51 C 732.50 476.88, 732.65 477.14, 732.96 477.34" style="stroke: black; fill: black;"/><path d="M 767.81,500.33 C 767.74 500.73, 767.81 501.15, 768.26 501.62 C 768.72 502.09, 769.15 502.44, 770.09 502.67 C 771.02 502.90, 771.71 502.97, 772.95 502.76 C 774.19 502.56, 774.94 502.26, 776.29 501.63 C 777.64 501.01, 778.39 500.53, 779.69 499.64 C 780.99 498.75, 781.68 498.20, 782.76 497.18 C 783.85 496.17, 784.41 495.60, 785.12 494.58 C 785.84 493.55, 786.16 493.00, 786.34 492.07 C 786.51 491.13, 786.46 490.59, 786.01 489.90 C 785.55 489.21, 785.08 488.83, 784.07 488.62 C 783.05 488.41, 782.29 488.45, 780.92 488.86 C 779.56 489.26, 778.70 489.71, 777.25 490.66 C 775.80 491.61, 774.95 492.31, 773.67 493.62 C 772.40 494.93, 771.72 495.75, 770.88 497.21 C 770.03 498.68, 769.68 499.51, 769.45 500.95 C 769.22 502.40, 769.25 503.19, 769.72 504.43 C 770.20 505.68, 770.68 506.31, 771.83 507.16 C 772.98 508.02, 773.79 508.36, 775.46 508.72 C 777.14 509.08, 778.18 509.12, 780.19 508.98 C 782.20 508.84, 783.36 508.59, 785.52 508.03 C 787.67 507.47, 788.85 507.03, 790.95 506.17 C 793.06 505.31, 794.15 504.76, 796.04 503.73 C 797.93 502.69, 798.88 502.08, 800.41 501.00 C 801.94 499.91, 802.68 499.35, 803.71 498.31 C 804.75 497.28, 805.17 496.76, 805.57 495.84 C 805.97 494.92, 806.00 494.42, 805.71 493.71 C 805.43 493.00, 805.04 492.61, 804.15 492.31 C 803.25 492.00, 802.55 491.93, 801.25 492.18 C 799.95 492.43, 799.10 492.77, 797.66 493.53 C 796.22 494.30, 795.39 494.91, 794.05 496.00 C 792.71 497.10, 791.99 497.79, 790.98 498.99 C 789.97 500.20, 789.47 500.89, 788.99 502.03 C 788.51 503.18, 788.42 503.79, 788.58 504.72 C 788.74 505.64, 789.05 506.11, 789.78 506.66 C 790.51 507.20, 791.10 507.40, 792.24 507.44 C 793.37 507.48, 794.12 507.33, 795.46 506.86 C 796.80 506.39, 797.57 505.95, 798.94 505.10 C 800.31 504.25, 801.08 503.64, 802.32 502.61 C 803.55 501.58, 804.25 500.89, 805.11 499.93 C 805.97 498.98, 806.30 498.41, 806.61 497.85 C 806.93 497.28, 806.83 497.07, 806.68 497.10 C 806.53 497.14, 806.18 497.36, 805.87 498.01 C 805.57 498.66, 805.23 499.30, 805.14 500.34 C 805.05 501.38, 805.13 502.15, 805.42 503.20 C 805.70 504.26, 805.96 504.84, 806.57 505.62 C 807.19 506.41, 807.58 506.76, 808.47 507.13 C 809.36 507.50, 809.93 507.59, 811.03 507.48 C 812.12 507.37, 812.75 507.15, 813.95 506.58 C 815.15 506.01, 815.81 505.53, 817.03 504.62 C 818.25 503.71, 818.92 503.09, 820.05 502.04 C 821.19 500.99, 821.86 500.29, 822.72 499.37 C 823.58 498.46, 823.94 497.95, 824.35 497.45 C 824.76 496.95, 824.77 496.82, 824.77 496.87 C 824.77 496.92, 824.56 497.15, 824.34 497.70 C 824.13 498.24, 823.84 498.76, 823.70 499.60 C 823.56 500.44, 823.52 501.06, 823.66 501.92 C 823.81 502.78, 823.97 503.28, 824.42 503.90 C 824.87 504.52, 825.19 504.80, 825.90 505.04 C 826.61 505.27, 827.07 505.29, 827.99 505.06 C 828.91 504.84, 829.46 504.54, 830.50 503.91 C 831.55 503.27, 832.15 502.72, 833.21 501.89 C 834.26 501.06, 834.86 500.50, 835.77 499.76 C 836.68 499.03, 837.14 498.64, 837.76 498.22 C 838.38 497.80, 838.60 497.66, 838.87 497.65 C 839.14 497.65, 839.09 497.80, 839.12 498.20 C 839.15 498.59, 839.00 498.97, 839.01 499.63 C 839.02 500.30, 838.96 500.77, 839.16 501.51 C 839.36 502.25, 839.53 502.72, 840.01 503.32 C 840.49 503.92, 840.83 504.22, 841.57 504.50 C 842.31 504.79, 842.76 504.85, 843.72 504.73 C 844.68 504.62, 845.25 504.41, 846.38 503.94 C 847.52 503.47, 848.19 503.04, 849.39 502.38 C 850.59 501.73, 851.29 501.26, 852.40 500.66 C 853.52 500.06, 854.10 499.72, 854.96 499.36 C 855.82 499.01, 856.18 498.88, 856.70 498.88 C 857.22 498.89, 857.33 499.00, 857.57 499.39 C 857.81 499.78, 857.75 500.13, 857.88 500.83 C 858.01 501.52, 858.00 502.08, 858.22 502.86 C 858.44 503.64, 858.65 504.13, 859.00 504.72 C 859.35 505.32, 859.61 505.67, 859.99 505.85 C 860.36 506.04, 860.63 505.97, 860.88 505.64 C 861.13 505.30, 861.20 504.89, 861.24 504.19 C 861.29 503.49, 861.28 502.98, 861.09 502.13 C 860.90 501.28, 860.72 500.75, 860.29 499.94 C 859.87 499.13, 859.65 498.67, 858.98 498.08 C 858.32 497.50, 857.91 497.21, 856.98 497.00 C 856.04 496.79, 855.46 496.82, 854.30 497.04 C 853.15 497.25, 852.46 497.56, 851.19 498.08 C 849.91 498.59, 849.17 499.01, 847.94 499.63 C 846.72 500.25, 846.05 500.65, 845.07 501.18 C 844.09 501.71, 843.66 501.99, 843.06 502.30 C 842.46 502.61, 842.31 502.73, 842.07 502.73 C 841.84 502.74, 841.90 502.66, 841.88 502.33 C 841.87 501.99, 842.03 501.68, 842.00 501.04 C 841.98 500.41, 841.99 499.92, 841.76 499.17 C 841.53 498.41, 841.35 497.89, 840.83 497.27 C 840.32 496.66, 839.98 496.33, 839.19 496.10 C 838.40 495.88, 837.89 495.89, 836.89 496.15 C 835.89 496.41, 835.29 496.77, 834.17 497.41 C 833.05 498.05, 832.40 498.57, 831.30 499.35 C 830.21 500.13, 829.59 500.62, 828.71 501.31 C 827.84 501.99, 827.45 502.34, 826.94 502.77 C 826.42 503.21, 826.30 503.39, 826.15 503.48 C 825.99 503.57, 826.07 503.55, 826.16 503.24 C 826.26 502.94, 826.47 502.63, 826.63 501.95 C 826.80 501.27, 826.98 500.72, 826.97 499.83 C 826.95 498.94, 826.89 498.28, 826.56 497.50 C 826.23 496.73, 825.95 496.29, 825.32 495.96 C 824.69 495.63, 824.27 495.56, 823.39 495.84 C 822.50 496.11, 821.95 496.52, 820.89 497.33 C 819.82 498.13, 819.20 498.85, 818.07 499.84 C 816.95 500.83, 816.33 501.43, 815.24 502.28 C 814.16 503.14, 813.57 503.53, 812.64 504.10 C 811.70 504.66, 811.26 504.87, 810.57 505.10 C 809.88 505.33, 809.60 505.37, 809.18 505.25 C 808.75 505.13, 808.62 504.98, 808.45 504.48 C 808.29 503.99, 808.34 503.59, 808.36 502.78 C 808.37 501.97, 808.56 501.39, 808.54 500.45 C 808.51 499.51, 808.48 498.86, 808.22 498.08 C 807.95 497.30, 807.74 496.86, 807.20 496.54 C 806.67 496.21, 806.32 496.17, 805.54 496.45 C 804.75 496.74, 804.29 497.17, 803.27 497.94 C 802.26 498.72, 801.66 499.42, 800.48 500.34 C 799.30 501.27, 798.59 501.81, 797.37 502.56 C 796.16 503.32, 795.45 503.63, 794.38 504.11 C 793.31 504.59, 792.76 504.75, 792.01 504.97 C 791.25 505.18, 790.97 505.26, 790.61 505.19 C 790.25 505.12, 790.15 505.03, 790.22 504.62 C 790.30 504.20, 790.44 503.87, 790.99 503.11 C 791.54 502.35, 791.99 501.78, 792.97 500.83 C 793.95 499.88, 794.64 499.26, 795.87 498.35 C 797.11 497.44, 797.91 496.98, 799.15 496.30 C 800.39 495.63, 801.10 495.39, 802.06 494.98 C 803.03 494.57, 803.46 494.42, 803.97 494.24 C 804.48 494.07, 804.60 493.97, 804.61 494.10 C 804.63 494.23, 804.53 494.38, 804.04 494.88 C 803.55 495.38, 803.18 495.79, 802.17 496.60 C 801.16 497.41, 800.47 497.96, 799.00 498.92 C 797.52 499.88, 796.61 500.46, 794.80 501.40 C 792.99 502.35, 791.94 502.85, 789.94 503.63 C 787.94 504.41, 786.81 504.78, 784.81 505.29 C 782.82 505.80, 781.74 506.00, 779.97 506.16 C 778.19 506.33, 777.30 506.30, 775.92 506.13 C 774.54 505.95, 773.93 505.78, 773.07 505.30 C 772.21 504.82, 771.90 504.50, 771.62 503.72 C 771.33 502.95, 771.36 502.44, 771.65 501.42 C 771.94 500.40, 772.27 499.75, 773.08 498.61 C 773.89 497.47, 774.53 496.78, 775.71 495.71 C 776.88 494.64, 777.70 494.08, 778.95 493.26 C 780.21 492.44, 780.96 492.11, 781.97 491.61 C 782.99 491.11, 783.46 490.95, 784.04 490.77 C 784.62 490.58, 784.76 490.54, 784.86 490.67 C 784.96 490.80, 784.87 490.95, 784.54 491.42 C 784.21 491.89, 783.92 492.28, 783.21 493.02 C 782.49 493.76, 781.99 494.29, 780.96 495.13 C 779.94 495.97, 779.27 496.46, 778.08 497.22 C 776.90 497.98, 776.17 498.39, 775.03 498.92 C 773.89 499.45, 773.28 499.67, 772.38 499.88 C 771.48 500.09, 771.10 500.01, 770.51 499.99 C 769.92 499.98, 769.81 499.89, 769.43 499.82 C 769.04 499.75, 768.93 499.54, 768.60 499.64 C 768.28 499.74, 767.88 499.93, 767.81 500.33" style="stroke: black; fill: black;"/><path d="M 900.78,493.80 C 900.43 494.07, 900.27 494.43, 900.03 495.21 C 899.79 495.99, 899.67 496.57, 899.59 497.70 C 899.50 498.84, 899.49 499.66, 899.62 500.90 C 899.75 502.14, 899.89 502.85, 900.23 503.91 C 900.57 504.97, 900.77 505.48, 901.31 506.21 C 901.86 506.93, 902.21 507.23, 902.96 507.55 C 903.72 507.88, 904.19 507.93, 905.09 507.83 C 905.98 507.72, 906.49 507.52, 907.44 507.02 C 908.39 506.51, 908.92 506.08, 909.83 505.30 C 910.73 504.53, 911.22 503.96, 911.98 503.15 C 912.74 502.33, 913.12 501.84, 913.62 501.21 C 914.12 500.59, 914.28 500.28, 914.49 500.03 C 914.69 499.78, 914.62 499.77, 914.65 499.95 C 914.68 500.14, 914.56 500.43, 914.65 500.98 C 914.74 501.53, 914.77 501.98, 915.10 502.70 C 915.42 503.41, 915.70 503.89, 916.29 504.55 C 916.88 505.21, 917.26 505.57, 918.05 506.00 C 918.84 506.43, 919.31 506.61, 920.23 506.69 C 921.16 506.78, 921.70 506.75, 922.68 506.44 C 923.67 506.13, 924.21 505.84, 925.16 505.14 C 926.10 504.45, 926.60 503.95, 927.42 502.98 C 928.24 502.00, 928.63 501.37, 929.26 500.26 C 929.89 499.15, 930.16 498.49, 930.56 497.43 C 930.96 496.36, 931.08 495.78, 931.27 494.92 C 931.45 494.05, 931.48 493.68, 931.48 493.10 C 931.47 492.52, 931.37 492.34, 931.26 492.03 C 931.15 491.72, 931.10 491.64, 930.93 491.54 C 930.76 491.43, 930.59 491.42, 930.40 491.49 C 930.21 491.56, 930.17 491.62, 929.99 491.87 C 929.81 492.11, 929.70 492.24, 929.50 492.72 C 929.30 493.20, 929.25 493.53, 928.97 494.27 C 928.70 495.01, 928.56 495.50, 928.13 496.42 C 927.71 497.34, 927.45 497.91, 926.87 498.86 C 926.29 499.81, 925.92 500.34, 925.24 501.16 C 924.56 501.99, 924.15 502.39, 923.47 502.97 C 922.78 503.55, 922.41 503.78, 921.80 504.06 C 921.19 504.35, 920.90 504.40, 920.40 504.39 C 919.90 504.37, 919.69 504.28, 919.31 503.98 C 918.93 503.68, 918.81 503.43, 918.51 502.90 C 918.22 502.37, 918.17 501.96, 917.84 501.34 C 917.52 500.73, 917.34 500.35, 916.88 499.83 C 916.42 499.30, 916.14 499.00, 915.53 498.73 C 914.93 498.46, 914.57 498.36, 913.86 498.48 C 913.14 498.60, 912.74 498.82, 911.96 499.34 C 911.17 499.86, 910.76 500.33, 909.94 501.06 C 909.11 501.80, 908.64 502.29, 907.83 503.01 C 907.03 503.73, 906.58 504.11, 905.91 504.64 C 905.25 505.18, 904.97 505.42, 904.51 505.67 C 904.05 505.93, 903.91 506.02, 903.62 505.92 C 903.33 505.83, 903.24 505.70, 903.08 505.19 C 902.91 504.69, 902.87 504.29, 902.81 503.39 C 902.74 502.49, 902.79 501.84, 902.77 500.71 C 902.75 499.57, 902.80 498.79, 902.72 497.71 C 902.64 496.63, 902.56 496.06, 902.38 495.29 C 902.20 494.52, 902.12 494.16, 901.80 493.86 C 901.48 493.56, 901.13 493.53, 900.78 493.80" style="stroke: black; fill: black;"/><path d="M 939.81,495.92 C 939.42 496.26, 939.22 496.82, 938.95 497.69 C 938.69 498.56, 938.52 499.32, 938.50 500.27 C 938.48 501.22, 938.67 501.78, 938.86 502.44 C 939.05 503.09, 939.19 503.31, 939.44 503.54 C 939.70 503.78, 939.82 503.81, 940.13 503.63 C 940.43 503.45, 940.66 503.26, 940.97 502.64 C 941.28 502.02, 941.55 501.48, 941.68 500.52 C 941.81 499.57, 941.79 498.77, 941.63 497.86 C 941.48 496.95, 941.29 496.35, 940.92 495.96 C 940.56 495.57, 940.21 495.57, 939.81 495.92" style="stroke: black; fill: black;"/><path d="M 944.24,481.13 C 944.61 481.24, 944.82 481.25, 944.84 481.17 C 944.86 481.09, 944.63 480.93, 944.33 480.74 C 944.02 480.54, 943.66 480.30, 943.31 480.18 C 942.96 480.06, 942.65 480.04, 942.59 480.13 C 942.53 480.23, 942.67 480.45, 943.00 480.65 C 943.33 480.85, 943.87 481.03, 944.24 481.13" style="stroke: black; fill: black;"/><path d="M 960.02,472.81 C 959.70 473.12, 959.62 473.44, 959.34 474.41 C 959.06 475.38, 958.91 476.04, 958.62 477.66 C 958.33 479.29, 958.22 480.41, 957.89 482.53 C 957.56 484.66, 957.36 485.98, 956.97 488.28 C 956.58 490.58, 956.32 491.89, 955.94 494.05 C 955.56 496.20, 955.29 497.31, 955.05 499.07 C 954.81 500.83, 954.76 501.65, 954.74 502.85 C 954.71 504.04, 954.73 504.57, 954.91 505.03 C 955.09 505.49, 955.32 505.53, 955.64 505.15 C 955.95 504.77, 956.12 504.27, 956.48 503.15 C 956.85 502.02, 957.06 501.25, 957.48 499.54 C 957.91 497.82, 958.13 496.72, 958.61 494.58 C 959.09 492.44, 959.40 491.14, 959.88 488.83 C 960.37 486.52, 960.68 485.19, 961.02 483.03 C 961.37 480.86, 961.52 479.71, 961.62 478.01 C 961.72 476.32, 961.65 475.60, 961.52 474.57 C 961.39 473.54, 961.27 473.20, 960.97 472.85 C 960.67 472.50, 960.35 472.50, 960.02 472.81" style="stroke: black; fill: black;"/><path d="M 951.23,496.14 C 951.49 496.44, 951.74 496.51, 952.47 496.67 C 953.19 496.83, 953.68 496.92, 954.87 496.93 C 956.05 496.93, 956.87 496.89, 958.40 496.69 C 959.94 496.49, 960.87 496.34, 962.55 495.91 C 964.22 495.48, 965.14 495.21, 966.79 494.55 C 968.44 493.88, 969.28 493.48, 970.79 492.57 C 972.29 491.66, 973.03 491.13, 974.31 489.98 C 975.60 488.84, 976.21 488.17, 977.22 486.84 C 978.22 485.51, 978.68 484.75, 979.34 483.34 C 979.99 481.93, 980.25 481.12, 980.50 479.80 C 980.74 478.47, 980.77 477.75, 980.56 476.70 C 980.35 475.66, 980.08 475.12, 979.45 474.57 C 978.82 474.02, 978.27 473.82, 977.40 473.94 C 976.53 474.07, 975.93 474.35, 975.11 475.22 C 974.28 476.09, 973.88 476.80, 973.27 478.29 C 972.65 479.78, 972.42 480.78, 972.04 482.66 C 971.66 484.54, 971.52 485.70, 971.36 487.69 C 971.19 489.68, 971.17 490.79, 971.22 492.61 C 971.27 494.44, 971.34 495.35, 971.61 496.82 C 971.88 498.30, 972.05 498.95, 972.56 499.99 C 973.07 501.04, 973.40 501.46, 974.16 502.05 C 974.93 502.63, 975.41 502.81, 976.39 502.94 C 977.37 503.07, 977.96 502.98, 979.08 502.69 C 980.19 502.41, 980.83 502.07, 981.95 501.51 C 983.08 500.96, 983.70 500.50, 984.71 499.91 C 985.73 499.33, 986.24 498.96, 987.02 498.58 C 987.81 498.19, 988.14 498.04, 988.65 497.99 C 989.17 497.95, 989.30 498.04, 989.59 498.36 C 989.88 498.68, 989.89 498.99, 990.11 499.60 C 990.34 500.20, 990.30 500.72, 990.71 501.40 C 991.13 502.07, 991.65 502.75, 992.19 502.96 C 992.73 503.16, 993.20 502.95, 993.41 502.42 C 993.62 501.88, 993.48 501.09, 993.26 500.29 C 993.03 499.49, 992.78 499.10, 992.29 498.40 C 991.80 497.71, 991.53 497.30, 990.82 496.82 C 990.11 496.34, 989.68 496.12, 988.75 496.01 C 987.83 495.89, 987.28 495.97, 986.20 496.25 C 985.13 496.52, 984.51 496.85, 983.39 497.37 C 982.27 497.89, 981.63 498.30, 980.59 498.86 C 979.55 499.43, 979.01 499.77, 978.18 500.18 C 977.35 500.58, 977.02 500.79, 976.44 500.89 C 975.85 500.98, 975.67 500.99, 975.27 500.65 C 974.87 500.32, 974.71 500.05, 974.45 499.22 C 974.19 498.39, 974.08 497.82, 973.96 496.50 C 973.85 495.18, 973.82 494.32, 973.87 492.61 C 973.93 490.91, 974.00 489.85, 974.24 487.98 C 974.47 486.12, 974.65 485.02, 975.03 483.29 C 975.41 481.56, 975.68 480.66, 976.11 479.35 C 976.54 478.03, 976.82 477.48, 977.17 476.72 C 977.53 475.95, 977.69 475.74, 977.91 475.52 C 978.13 475.30, 978.18 475.33, 978.28 475.61 C 978.38 475.89, 978.44 476.18, 978.40 476.91 C 978.37 477.65, 978.37 478.21, 978.10 479.28 C 977.83 480.35, 977.63 481.05, 977.05 482.26 C 976.47 483.47, 976.08 484.15, 975.20 485.32 C 974.32 486.49, 973.79 487.09, 972.64 488.10 C 971.50 489.11, 970.84 489.58, 969.48 490.37 C 968.12 491.17, 967.35 491.51, 965.84 492.05 C 964.32 492.60, 963.47 492.80, 961.91 493.11 C 960.35 493.42, 959.48 493.44, 958.03 493.60 C 956.57 493.76, 955.79 493.75, 954.65 493.92 C 953.50 494.10, 953.02 494.22, 952.32 494.47 C 951.62 494.73, 951.37 494.85, 951.15 495.18 C 950.93 495.52, 950.96 495.85, 951.23 496.14" style="stroke: black; fill: black;"/><path d="M 1010.50,497.39 C 1010.49 497.00, 1010.35 496.67, 1009.86 496.30 C 1009.37 495.92, 1008.96 495.66, 1008.06 495.51 C 1007.15 495.37, 1006.49 495.31, 1005.34 495.58 C 1004.20 495.85, 1003.47 496.16, 1002.35 496.85 C 1001.23 497.55, 1000.58 498.06, 999.73 499.04 C 998.87 500.03, 998.43 500.68, 998.07 501.79 C 997.71 502.91, 997.66 503.60, 997.93 504.61 C 998.20 505.62, 998.57 506.18, 999.43 506.84 C 1000.29 507.50, 1000.98 507.76, 1002.23 507.93 C 1003.49 508.09, 1004.31 508.00, 1005.70 507.67 C 1007.09 507.34, 1007.89 506.99, 1009.19 506.27 C 1010.49 505.55, 1011.18 505.04, 1012.20 504.06 C 1013.22 503.09, 1013.69 502.47, 1014.30 501.38 C 1014.91 500.29, 1015.08 499.66, 1015.24 498.61 C 1015.41 497.55, 1015.32 496.98, 1015.11 496.12 C 1014.89 495.27, 1014.57 494.87, 1014.16 494.34 C 1013.76 493.81, 1013.49 493.64, 1013.08 493.46 C 1012.68 493.29, 1012.40 493.39, 1012.13 493.46 C 1011.87 493.53, 1011.82 493.68, 1011.77 493.83 C 1011.71 493.98, 1011.85 494.07, 1011.86 494.19 C 1011.88 494.32, 1011.83 494.32, 1011.84 494.47 C 1011.86 494.62, 1011.81 494.73, 1011.92 494.96 C 1012.03 495.18, 1012.18 495.25, 1012.39 495.60 C 1012.60 495.94, 1012.84 496.13, 1012.97 496.66 C 1013.11 497.18, 1013.19 497.52, 1013.04 498.21 C 1012.89 498.91, 1012.75 499.36, 1012.23 500.14 C 1011.71 500.92, 1011.31 501.38, 1010.44 502.11 C 1009.57 502.84, 1008.95 503.23, 1007.86 503.79 C 1006.77 504.34, 1006.09 504.59, 1004.99 504.89 C 1003.90 505.19, 1003.28 505.27, 1002.39 505.30 C 1001.51 505.34, 1001.08 505.29, 1000.57 505.06 C 1000.07 504.84, 999.90 504.65, 999.84 504.18 C 999.79 503.72, 999.90 503.37, 1000.28 502.72 C 1000.66 502.08, 1001.03 501.64, 1001.75 500.97 C 1002.47 500.31, 1003.01 499.90, 1003.88 499.40 C 1004.74 498.91, 1005.28 498.70, 1006.07 498.49 C 1006.86 498.28, 1007.24 498.36, 1007.84 498.33 C 1008.44 498.30, 1008.63 498.36, 1009.05 498.35 C 1009.47 498.33, 1009.65 498.45, 1009.94 498.25 C 1010.24 498.06, 1010.52 497.78, 1010.50 497.39" style="stroke: black; fill: black;"/><path d="M 1023.83,496.95 C 1023.42 497.14, 1023.20 497.49, 1022.85 498.17 C 1022.50 498.85, 1022.28 499.37, 1022.10 500.36 C 1021.93 501.35, 1021.83 502.07, 1021.97 503.11 C 1022.11 504.16, 1022.29 504.76, 1022.78 505.59 C 1023.28 506.42, 1023.63 506.81, 1024.44 507.27 C 1025.26 507.72, 1025.79 507.87, 1026.85 507.86 C 1027.90 507.86, 1028.54 507.70, 1029.72 507.24 C 1030.89 506.77, 1031.56 506.37, 1032.74 505.56 C 1033.93 504.76, 1034.58 504.18, 1035.64 503.22 C 1036.70 502.26, 1037.26 501.64, 1038.05 500.75 C 1038.84 499.87, 1039.20 499.39, 1039.58 498.80 C 1039.96 498.20, 1039.98 497.92, 1039.95 497.76 C 1039.93 497.61, 1039.67 497.66, 1039.46 498.01 C 1039.25 498.37, 1038.99 498.76, 1038.90 499.53 C 1038.81 500.29, 1038.80 500.89, 1039.01 501.84 C 1039.21 502.78, 1039.43 503.38, 1039.94 504.26 C 1040.44 505.14, 1040.74 505.62, 1041.52 506.24 C 1042.29 506.85, 1042.78 507.14, 1043.81 507.34 C 1044.83 507.54, 1045.45 507.55, 1046.64 507.26 C 1047.83 506.96, 1048.49 506.69, 1049.77 505.88 C 1051.04 505.08, 1051.73 504.52, 1053.02 503.23 C 1054.30 501.94, 1054.97 501.12, 1056.19 499.43 C 1057.41 497.74, 1058.02 496.72, 1059.12 494.77 C 1060.21 492.82, 1060.76 491.69, 1061.67 489.68 C 1062.57 487.68, 1062.99 486.57, 1063.65 484.76 C 1064.31 482.95, 1064.60 482.03, 1064.97 480.62 C 1065.34 479.21, 1065.49 478.57, 1065.49 477.71 C 1065.49 476.84, 1065.31 476.50, 1064.96 476.32 C 1064.61 476.13, 1064.20 476.21, 1063.73 476.78 C 1063.26 477.35, 1062.98 477.89, 1062.61 479.19 C 1062.24 480.49, 1062.13 481.44, 1061.90 483.29 C 1061.67 485.14, 1061.60 486.34, 1061.45 488.44 C 1061.31 490.54, 1061.24 491.76, 1061.18 493.79 C 1061.12 495.82, 1061.11 496.88, 1061.16 498.59 C 1061.20 500.30, 1061.23 501.15, 1061.40 502.33 C 1061.58 503.50, 1061.73 504.00, 1062.02 504.48 C 1062.32 504.96, 1062.59 504.89, 1062.90 504.73 C 1063.21 504.57, 1063.39 504.15, 1063.57 503.68 C 1063.74 503.21, 1063.90 502.80, 1063.79 502.38 C 1063.68 501.96, 1063.27 501.77, 1063.02 501.59 C 1062.76 501.41, 1062.50 501.48, 1062.52 501.49 C 1062.53 501.51, 1062.65 501.66, 1063.10 501.66 C 1063.55 501.66, 1063.91 501.64, 1064.76 501.50 C 1065.60 501.36, 1066.15 501.21, 1067.33 500.97 C 1068.52 500.73, 1069.27 500.59, 1070.66 500.30 C 1072.06 500.01, 1072.96 499.86, 1074.32 499.52 C 1075.67 499.17, 1076.39 498.96, 1077.42 498.56 C 1078.45 498.16, 1079.08 497.90, 1079.45 497.51 C 1079.82 497.12, 1079.76 496.84, 1079.27 496.62 C 1078.78 496.40, 1078.11 496.40, 1077.01 496.41 C 1075.91 496.43, 1075.16 496.49, 1073.77 496.67 C 1072.39 496.84, 1071.50 497.04, 1070.08 497.29 C 1068.66 497.55, 1067.90 497.68, 1066.69 497.95 C 1065.48 498.22, 1064.92 498.33, 1064.03 498.63 C 1063.15 498.93, 1062.82 499.05, 1062.25 499.44 C 1061.68 499.83, 1061.50 500.07, 1061.18 500.58 C 1060.86 501.08, 1060.80 501.41, 1060.66 501.96 C 1060.52 502.51, 1060.33 502.83, 1060.48 503.31 C 1060.62 503.79, 1060.95 504.05, 1061.38 504.36 C 1061.80 504.68, 1062.19 504.91, 1062.59 504.91 C 1063.00 504.91, 1063.18 504.91, 1063.40 504.37 C 1063.61 503.83, 1063.62 503.37, 1063.68 502.22 C 1063.75 501.06, 1063.65 500.25, 1063.70 498.60 C 1063.75 496.94, 1063.80 495.91, 1063.95 493.94 C 1064.11 491.97, 1064.24 490.77, 1064.48 488.73 C 1064.73 486.68, 1064.95 485.52, 1065.18 483.71 C 1065.42 481.90, 1065.60 480.99, 1065.66 479.68 C 1065.72 478.37, 1065.67 477.84, 1065.48 477.16 C 1065.28 476.49, 1065.02 476.30, 1064.68 476.32 C 1064.33 476.34, 1064.12 476.55, 1063.73 477.27 C 1063.33 477.99, 1063.21 478.59, 1062.71 479.91 C 1062.21 481.22, 1061.94 482.10, 1061.24 483.83 C 1060.53 485.55, 1060.10 486.62, 1059.19 488.54 C 1058.28 490.45, 1057.74 491.54, 1056.68 493.39 C 1055.62 495.24, 1055.03 496.20, 1053.89 497.77 C 1052.75 499.34, 1052.13 500.08, 1051.00 501.25 C 1049.87 502.41, 1049.26 502.87, 1048.24 503.59 C 1047.23 504.31, 1046.73 504.52, 1045.92 504.83 C 1045.10 505.14, 1044.75 505.18, 1044.17 505.12 C 1043.59 505.06, 1043.38 504.93, 1043.02 504.55 C 1042.67 504.16, 1042.56 503.84, 1042.39 503.18 C 1042.22 502.53, 1042.27 502.06, 1042.18 501.28 C 1042.08 500.50, 1042.13 500.01, 1041.91 499.28 C 1041.70 498.55, 1041.52 498.10, 1041.11 497.61 C 1040.69 497.12, 1040.40 496.89, 1039.82 496.81 C 1039.23 496.74, 1038.91 496.84, 1038.18 497.24 C 1037.45 497.64, 1037.06 498.07, 1036.17 498.83 C 1035.28 499.59, 1034.75 500.17, 1033.73 501.03 C 1032.71 501.89, 1032.10 502.40, 1031.06 503.13 C 1030.03 503.85, 1029.45 504.19, 1028.56 504.66 C 1027.66 505.13, 1027.24 505.32, 1026.60 505.49 C 1025.96 505.66, 1025.71 505.69, 1025.36 505.53 C 1025.01 505.37, 1024.92 505.20, 1024.84 504.70 C 1024.76 504.20, 1024.86 503.80, 1024.94 503.01 C 1025.01 502.22, 1025.14 501.62, 1025.19 500.75 C 1025.25 499.87, 1025.30 499.36, 1025.23 498.64 C 1025.16 497.93, 1025.15 497.52, 1024.86 497.18 C 1024.58 496.84, 1024.23 496.75, 1023.83 496.95" style="stroke: black; fill: black;"/><path d="M 1113.72,494.63 C 1113.37 494.83, 1113.20 495.08, 1112.94 495.73 C 1112.68 496.39, 1112.49 496.89, 1112.41 497.91 C 1112.33 498.94, 1112.32 499.69, 1112.54 500.85 C 1112.76 502.00, 1112.96 502.70, 1113.49 503.70 C 1114.02 504.71, 1114.37 505.22, 1115.19 505.87 C 1116.02 506.53, 1116.54 506.79, 1117.61 506.99 C 1118.67 507.19, 1119.30 507.16, 1120.50 506.87 C 1121.71 506.59, 1122.38 506.28, 1123.63 505.57 C 1124.88 504.85, 1125.57 504.30, 1126.76 503.28 C 1127.95 502.25, 1128.58 501.56, 1129.58 500.44 C 1130.58 499.32, 1131.08 498.64, 1131.77 497.66 C 1132.46 496.67, 1132.77 496.15, 1133.04 495.50 C 1133.30 494.84, 1133.24 494.53, 1133.10 494.39 C 1132.96 494.25, 1132.65 494.28, 1132.35 494.80 C 1132.05 495.31, 1131.83 495.78, 1131.61 496.97 C 1131.39 498.15, 1131.36 498.98, 1131.25 500.73 C 1131.13 502.47, 1131.14 503.55, 1131.03 505.68 C 1130.92 507.80, 1130.89 509.03, 1130.71 511.35 C 1130.53 513.67, 1130.45 514.94, 1130.13 517.27 C 1129.81 519.59, 1129.64 520.81, 1129.12 522.96 C 1128.60 525.11, 1128.29 526.18, 1127.53 528.01 C 1126.77 529.84, 1126.30 530.71, 1125.32 532.12 C 1124.34 533.53, 1123.76 534.15, 1122.64 535.06 C 1121.52 535.96, 1120.87 536.28, 1119.73 536.66 C 1118.59 537.04, 1117.97 537.09, 1116.95 536.95 C 1115.93 536.81, 1115.42 536.58, 1114.63 535.97 C 1113.84 535.35, 1113.45 534.88, 1112.98 533.88 C 1112.52 532.88, 1112.32 532.25, 1112.30 530.98 C 1112.27 529.71, 1112.35 528.96, 1112.85 527.52 C 1113.35 526.08, 1113.74 525.30, 1114.79 523.80 C 1115.84 522.30, 1116.55 521.49, 1118.09 520.02 C 1119.64 518.54, 1120.59 517.79, 1122.52 516.43 C 1124.45 515.07, 1125.60 514.42, 1127.76 513.23 C 1129.92 512.03, 1131.12 511.48, 1133.33 510.47 C 1135.54 509.46, 1136.72 509.01, 1138.82 508.17 C 1140.92 507.33, 1141.98 506.97, 1143.82 506.27 C 1145.66 505.56, 1146.54 505.26, 1148.02 504.64 C 1149.51 504.02, 1150.18 503.76, 1151.23 503.17 C 1152.27 502.58, 1152.71 502.32, 1153.25 501.70 C 1153.80 501.07, 1153.96 500.71, 1153.97 500.05 C 1153.98 499.38, 1153.83 498.92, 1153.31 498.37 C 1152.80 497.82, 1152.33 497.50, 1151.40 497.28 C 1150.47 497.06, 1149.82 497.06, 1148.68 497.26 C 1147.55 497.45, 1146.87 497.69, 1145.74 498.25 C 1144.61 498.82, 1143.95 499.21, 1143.03 500.09 C 1142.11 500.96, 1141.64 501.55, 1141.13 502.61 C 1140.63 503.68, 1140.45 504.33, 1140.51 505.40 C 1140.57 506.47, 1140.78 507.09, 1141.42 507.95 C 1142.05 508.81, 1142.59 509.23, 1143.69 509.70 C 1144.78 510.18, 1145.54 510.30, 1146.89 510.33 C 1148.24 510.35, 1149.05 510.21, 1150.43 509.81 C 1151.81 509.41, 1152.57 509.07, 1153.79 508.34 C 1155.00 507.62, 1155.62 507.15, 1156.53 506.20 C 1157.43 505.24, 1157.83 504.66, 1158.30 503.58 C 1158.76 502.50, 1158.88 501.86, 1158.87 500.80 C 1158.86 499.75, 1158.67 499.18, 1158.24 498.32 C 1157.81 497.46, 1157.39 497.04, 1156.74 496.50 C 1156.08 495.97, 1155.59 495.84, 1154.96 495.64 C 1154.34 495.44, 1154.04 495.45, 1153.61 495.51 C 1153.18 495.56, 1153.01 495.74, 1152.81 495.91 C 1152.60 496.08, 1152.62 496.21, 1152.59 496.37 C 1152.57 496.53, 1152.64 496.59, 1152.69 496.73 C 1152.74 496.87, 1152.73 496.93, 1152.85 497.09 C 1152.97 497.25, 1153.06 497.38, 1153.32 497.53 C 1153.57 497.69, 1153.76 497.69, 1154.14 497.86 C 1154.53 498.04, 1154.84 498.11, 1155.25 498.41 C 1155.67 498.71, 1155.95 498.89, 1156.23 499.37 C 1156.50 499.85, 1156.65 500.16, 1156.64 500.81 C 1156.63 501.45, 1156.56 501.87, 1156.19 502.59 C 1155.81 503.32, 1155.51 503.74, 1154.77 504.42 C 1154.02 505.11, 1153.49 505.47, 1152.47 506.00 C 1151.45 506.54, 1150.79 506.80, 1149.67 507.11 C 1148.55 507.42, 1147.88 507.50, 1146.86 507.55 C 1145.83 507.60, 1145.29 507.54, 1144.53 507.35 C 1143.77 507.17, 1143.45 507.01, 1143.07 506.61 C 1142.69 506.22, 1142.60 505.95, 1142.65 505.39 C 1142.69 504.82, 1142.86 504.45, 1143.29 503.80 C 1143.73 503.15, 1144.10 502.72, 1144.83 502.13 C 1145.57 501.54, 1146.09 501.24, 1146.97 500.86 C 1147.85 500.48, 1148.40 500.37, 1149.23 500.21 C 1150.05 500.05, 1150.48 500.09, 1151.09 500.04 C 1151.71 499.99, 1151.97 499.97, 1152.30 499.96 C 1152.63 499.95, 1152.77 499.89, 1152.73 499.97 C 1152.70 500.05, 1152.62 500.11, 1152.13 500.36 C 1151.64 500.62, 1151.26 500.82, 1150.27 501.24 C 1149.28 501.66, 1148.63 501.92, 1147.16 502.47 C 1145.70 503.02, 1144.82 503.31, 1142.97 503.97 C 1141.11 504.64, 1140.03 504.98, 1137.89 505.80 C 1135.75 506.63, 1134.53 507.07, 1132.25 508.09 C 1129.97 509.10, 1128.73 509.65, 1126.47 510.87 C 1124.21 512.09, 1123.01 512.76, 1120.96 514.20 C 1118.90 515.63, 1117.88 516.43, 1116.21 518.05 C 1114.53 519.67, 1113.75 520.55, 1112.58 522.28 C 1111.41 524.01, 1110.94 524.94, 1110.37 526.70 C 1109.81 528.46, 1109.67 529.43, 1109.76 531.08 C 1109.84 532.73, 1110.10 533.62, 1110.80 534.97 C 1111.50 536.31, 1112.09 536.98, 1113.26 537.82 C 1114.43 538.66, 1115.21 538.96, 1116.64 539.16 C 1118.08 539.36, 1118.93 539.28, 1120.42 538.82 C 1121.90 538.36, 1122.71 537.94, 1124.08 536.87 C 1125.45 535.81, 1126.13 535.09, 1127.27 533.51 C 1128.42 531.93, 1128.94 530.96, 1129.81 528.98 C 1130.68 527.00, 1131.02 525.85, 1131.62 523.59 C 1132.22 521.33, 1132.42 520.06, 1132.80 517.66 C 1133.18 515.26, 1133.28 513.96, 1133.52 511.60 C 1133.76 509.25, 1133.83 508.01, 1134.00 505.88 C 1134.18 503.75, 1134.29 502.68, 1134.41 500.94 C 1134.53 499.20, 1134.65 498.41, 1134.60 497.18 C 1134.55 495.95, 1134.49 495.46, 1134.18 494.78 C 1133.87 494.10, 1133.58 493.88, 1133.05 493.77 C 1132.52 493.66, 1132.19 493.78, 1131.53 494.23 C 1130.87 494.68, 1130.55 495.16, 1129.75 496.02 C 1128.95 496.88, 1128.49 497.52, 1127.52 498.53 C 1126.54 499.54, 1125.94 500.16, 1124.87 501.08 C 1123.80 502.00, 1123.18 502.48, 1122.16 503.15 C 1121.14 503.82, 1120.62 504.09, 1119.77 504.42 C 1118.92 504.75, 1118.54 504.84, 1117.91 504.81 C 1117.28 504.77, 1117.02 504.67, 1116.62 504.25 C 1116.21 503.84, 1116.09 503.48, 1115.90 502.72 C 1115.70 501.95, 1115.72 501.39, 1115.65 500.43 C 1115.58 499.47, 1115.64 498.82, 1115.56 497.91 C 1115.48 497.01, 1115.42 496.53, 1115.25 495.90 C 1115.08 495.26, 1115.01 494.99, 1114.71 494.74 C 1114.40 494.48, 1114.07 494.43, 1113.72 494.63" style="stroke: black; fill: black;"/><path d="M 1166.04,497.29 C 1165.65 497.44, 1165.47 497.69, 1165.13 498.26 C 1164.79 498.82, 1164.57 499.22, 1164.33 500.11 C 1164.09 501.00, 1163.94 501.66, 1163.94 502.72 C 1163.95 503.77, 1164.01 504.42, 1164.35 505.39 C 1164.69 506.36, 1164.94 506.87, 1165.64 507.55 C 1166.33 508.24, 1166.81 508.55, 1167.83 508.82 C 1168.84 509.09, 1169.49 509.11, 1170.72 508.91 C 1171.95 508.71, 1172.66 508.44, 1173.98 507.83 C 1175.31 507.22, 1176.05 506.74, 1177.35 505.85 C 1178.65 504.95, 1179.36 504.35, 1180.50 503.35 C 1181.64 502.34, 1182.23 501.72, 1183.03 500.82 C 1183.83 499.92, 1184.17 499.45, 1184.49 498.84 C 1184.81 498.24, 1184.77 497.95, 1184.64 497.79 C 1184.51 497.63, 1184.16 497.67, 1183.84 498.05 C 1183.52 498.44, 1183.21 498.88, 1183.03 499.73 C 1182.86 500.58, 1182.85 501.24, 1182.97 502.33 C 1183.08 503.41, 1183.24 504.07, 1183.61 505.16 C 1183.98 506.24, 1184.22 506.83, 1184.82 507.76 C 1185.41 508.68, 1185.78 509.12, 1186.59 509.78 C 1187.40 510.44, 1187.90 510.70, 1188.88 511.06 C 1189.85 511.43, 1190.43 511.55, 1191.47 511.61 C 1192.52 511.67, 1193.17 511.59, 1194.11 511.36 C 1195.04 511.14, 1195.53 510.89, 1196.15 510.48 C 1196.77 510.07, 1197.07 509.71, 1197.21 509.31 C 1197.35 508.92, 1197.18 508.67, 1196.83 508.50 C 1196.47 508.33, 1196.08 508.43, 1195.43 508.47 C 1194.79 508.51, 1194.38 508.59, 1193.60 508.69 C 1192.82 508.79, 1192.32 508.96, 1191.53 508.98 C 1190.74 509.00, 1190.34 508.99, 1189.65 508.78 C 1188.97 508.58, 1188.62 508.43, 1188.09 507.98 C 1187.55 507.52, 1187.33 507.21, 1186.98 506.50 C 1186.62 505.79, 1186.48 505.31, 1186.32 504.43 C 1186.16 503.55, 1186.22 503.01, 1186.19 502.09 C 1186.16 501.17, 1186.28 500.65, 1186.17 499.85 C 1186.06 499.04, 1185.95 498.59, 1185.63 498.05 C 1185.31 497.52, 1185.07 497.28, 1184.57 497.16 C 1184.07 497.04, 1183.81 497.10, 1183.14 497.46 C 1182.47 497.82, 1182.11 498.22, 1181.22 498.97 C 1180.33 499.72, 1179.78 500.31, 1178.68 501.21 C 1177.58 502.10, 1176.91 502.65, 1175.72 503.45 C 1174.53 504.26, 1173.84 504.66, 1172.72 505.23 C 1171.61 505.80, 1171.03 506.03, 1170.14 506.31 C 1169.25 506.58, 1168.85 506.64, 1168.25 506.60 C 1167.65 506.57, 1167.44 506.47, 1167.15 506.12 C 1166.86 505.77, 1166.82 505.48, 1166.80 504.84 C 1166.78 504.19, 1166.92 503.74, 1167.04 502.90 C 1167.15 502.07, 1167.31 501.49, 1167.38 500.66 C 1167.46 499.84, 1167.47 499.40, 1167.40 498.78 C 1167.34 498.16, 1167.31 497.84, 1167.04 497.54 C 1166.77 497.24, 1166.42 497.15, 1166.04 497.29" style="stroke: black; fill: black;"/><path d="M 1206.43,512.58 C 1206.30 512.97, 1206.27 513.17, 1206.41 513.24 C 1206.54 513.31, 1206.93 513.10, 1207.12 512.93 C 1207.31 512.76, 1207.43 512.64, 1207.37 512.37 C 1207.30 512.11, 1206.89 511.85, 1206.79 511.61 C 1206.69 511.37, 1206.76 511.33, 1206.88 511.17 C 1207.00 511.00, 1207.34 510.76, 1207.37 510.79 C 1207.40 510.82, 1207.23 510.95, 1207.04 511.31 C 1206.85 511.67, 1206.56 512.19, 1206.43 512.58" style="stroke: black; fill: black;"/></svg>