<svg xmlns="http://www.w3.org/2000/svg" id="canvas" viewBox="573.520 401.300 430.954 177.001"><path d="M 626.18,405.34 C 624.61 406.54, 623.80 408.03, 623.64 410.67 C 623.48 413.30, 624.29 414.91, 625.40 418.53 C 626.51 422.15, 627.45 424.38, 629.18 428.77 C 630.92 433.17, 631.95 435.50, 634.09 440.50 C 636.22 445.51, 637.38 448.25, 639.87 453.80 C 642.35 459.36, 643.77 462.33, 646.51 468.29 C 649.25 474.24, 650.83 477.43, 653.58 483.58 C 656.34 489.74, 657.85 492.96, 660.27 499.08 C 662.70 505.19, 663.99 508.35, 665.70 514.16 C 667.42 519.96, 668.21 522.89, 668.86 528.12 C 669.51 533.34, 669.53 535.87, 668.94 540.28 C 668.35 544.70, 667.74 546.70, 665.92 550.21 C 664.11 553.72, 662.94 555.13, 659.86 557.82 C 656.79 560.51, 654.83 561.76, 650.55 563.66 C 646.27 565.56, 643.64 566.34, 638.46 567.32 C 633.28 568.30, 630.17 568.54, 624.65 568.57 C 619.13 568.60, 616.04 568.38, 610.85 567.47 C 605.66 566.56, 602.90 565.76, 598.70 564.02 C 594.49 562.28, 592.63 560.83, 589.83 558.76 C 587.04 556.69, 586.66 555.13, 584.72 553.65 C 582.77 552.18, 581.68 551.38, 580.09 551.40 C 578.50 551.41, 577.19 552.02, 576.76 553.71 C 576.34 555.39, 576.32 557.37, 577.96 559.83 C 579.61 562.29, 581.35 563.78, 584.99 566.01 C 588.63 568.23, 591.19 569.31, 596.14 570.95 C 601.09 572.59, 604.05 573.33, 609.75 574.20 C 615.46 575.07, 618.69 575.31, 624.67 575.30 C 630.66 575.29, 633.94 575.16, 639.70 574.16 C 645.45 573.17, 648.44 572.47, 653.46 570.32 C 658.47 568.17, 660.99 566.77, 664.78 563.40 C 668.58 560.03, 670.24 557.94, 672.43 553.48 C 674.62 549.01, 675.19 546.31, 675.72 541.07 C 676.25 535.82, 675.96 532.97, 675.08 527.25 C 674.19 521.52, 673.21 518.50, 671.30 512.44 C 669.39 506.39, 668.03 503.21, 665.52 496.98 C 663.02 490.75, 661.49 487.52, 658.78 481.29 C 656.07 475.07, 654.54 471.86, 651.96 465.86 C 649.38 459.86, 648.04 456.89, 645.88 451.29 C 643.71 445.70, 642.69 442.94, 641.11 437.90 C 639.53 432.86, 638.89 430.51, 637.96 426.11 C 637.04 421.72, 637.05 419.41, 636.49 415.92 C 635.92 412.44, 636.15 410.93, 635.15 408.68 C 634.16 406.44, 633.30 405.37, 631.50 404.71 C 629.71 404.04, 627.75 404.15, 626.18 405.34" style="stroke: black; fill: black;"/><path d="M 744.14,500.12 C 743.08 498.33, 741.41 497.21, 738.24 496.62 C 735.07 496.02, 732.75 496.50, 728.30 497.14 C 723.85 497.78, 720.79 498.23, 715.98 499.81 C 711.16 501.39, 708.59 502.62, 704.22 505.03 C 699.85 507.44, 697.62 508.87, 694.13 511.87 C 690.63 514.87, 688.91 516.49, 686.74 520.02 C 684.57 523.54, 683.52 525.69, 683.29 529.49 C 683.05 533.28, 683.73 535.67, 685.54 538.99 C 687.36 542.32, 689.00 544.11, 692.34 546.11 C 695.69 548.10, 698.09 548.57, 702.26 548.95 C 706.44 549.34, 708.85 549.03, 713.23 548.04 C 717.60 547.04, 719.93 546.08, 724.14 543.97 C 728.35 541.87, 730.49 540.36, 734.28 537.49 C 738.08 534.63, 739.90 532.74, 743.13 529.67 C 746.36 526.59, 748.56 524.76, 750.43 522.12 C 752.31 519.48, 752.56 517.78, 752.48 516.47 C 752.41 515.16, 751.04 514.91, 750.06 515.57 C 749.08 516.22, 747.80 517.36, 747.59 519.74 C 747.38 522.13, 747.93 524.19, 749.00 527.50 C 750.06 530.80, 751.32 533.02, 752.93 536.27 C 754.54 539.51, 755.21 541.47, 757.04 543.71 C 758.86 545.96, 760.21 546.54, 762.06 547.50 C 763.91 548.45, 764.88 548.80, 766.29 548.48 C 767.70 548.16, 768.55 547.14, 769.10 545.89 C 769.65 544.63, 769.22 543.94, 769.04 542.21 C 768.86 540.48, 768.98 539.49, 768.19 537.24 C 767.41 534.98, 766.16 533.75, 765.10 530.92 C 764.05 528.10, 763.86 526.17, 762.93 523.12 C 762.00 520.07, 762.18 518.02, 760.47 515.68 C 758.77 513.33, 756.98 512.40, 754.41 511.39 C 751.83 510.38, 750.13 509.88, 747.59 510.63 C 745.05 511.39, 743.95 512.64, 741.71 515.17 C 739.46 517.71, 738.91 520.24, 736.36 523.31 C 733.82 526.38, 732.20 528.03, 728.97 530.52 C 725.75 533.00, 723.75 534.18, 720.23 535.73 C 716.72 537.28, 714.69 537.81, 711.38 538.27 C 708.06 538.73, 706.28 538.51, 703.65 538.03 C 701.02 537.55, 699.95 536.80, 698.21 535.88 C 696.47 534.96, 695.81 534.59, 694.97 533.42 C 694.12 532.25, 693.93 531.74, 693.97 530.03 C 694.01 528.32, 693.96 527.19, 695.16 524.87 C 696.36 522.54, 697.35 520.88, 699.97 518.41 C 702.59 515.94, 704.57 514.49, 708.28 512.52 C 711.99 510.55, 714.32 509.62, 718.52 508.59 C 722.72 507.55, 725.43 507.49, 729.28 507.33 C 733.13 507.17, 734.94 508.14, 737.80 507.78 C 740.65 507.43, 742.28 507.09, 743.55 505.56 C 744.82 504.02, 745.20 501.91, 744.14 500.12" style="stroke: black; fill: black;"/><path d="M 794.14,429.75 C 793.04 431.66, 793.73 434.26, 794.17 438.58 C 794.62 442.90, 795.40 445.58, 796.36 451.37 C 797.32 457.16, 797.96 460.96, 798.95 467.52 C 799.95 474.09, 800.45 477.47, 801.34 484.20 C 802.24 490.94, 802.63 494.55, 803.43 501.21 C 804.23 507.87, 804.61 511.38, 805.32 517.50 C 806.04 523.62, 806.28 526.77, 806.98 531.82 C 807.69 536.86, 807.85 539.31, 808.84 542.72 C 809.83 546.13, 810.53 547.81, 811.94 548.87 C 813.36 549.93, 815.06 549.55, 815.92 548.02 C 816.78 546.49, 816.66 544.69, 816.25 541.21 C 815.84 537.74, 814.86 535.55, 813.87 530.65 C 812.88 525.74, 812.27 522.70, 811.30 516.67 C 810.33 510.65, 809.87 507.15, 809.01 500.51 C 808.16 493.88, 807.78 490.27, 807.02 483.51 C 806.26 476.75, 805.94 473.34, 805.23 466.71 C 804.52 460.08, 804.12 456.22, 803.46 450.38 C 802.79 444.54, 802.65 441.77, 801.90 437.51 C 801.15 433.24, 801.25 430.59, 799.70 429.04 C 798.15 427.49, 795.25 427.85, 794.14 429.75" style="stroke: black; fill: black;"/><path d="M 844.30,494.95 C 842.55 494.28, 841.40 494.49, 839.29 495.32 C 837.18 496.14, 835.92 496.92, 833.76 499.07 C 831.59 501.21, 830.67 503.19, 828.47 506.06 C 826.27 508.94, 824.91 510.43, 822.76 513.44 C 820.60 516.45, 818.95 517.78, 817.68 521.10 C 816.41 524.42, 816.06 526.50, 816.41 530.05 C 816.76 533.61, 817.18 535.96, 819.41 538.87 C 821.64 541.78, 823.64 542.85, 827.58 544.61 C 831.51 546.38, 833.90 546.81, 839.07 547.69 C 844.24 548.57, 847.28 548.80, 853.41 549.02 C 859.55 549.23, 863.01 549.20, 869.75 548.76 C 876.50 548.33, 880.18 547.95, 887.16 546.85 C 894.14 545.74, 897.89 544.97, 904.66 543.26 C 911.42 541.54, 914.86 540.53, 920.97 538.27 C 927.08 536.01, 930.06 534.68, 935.22 531.96 C 940.38 529.23, 942.82 527.72, 946.77 524.66 C 950.72 521.59, 952.63 520.08, 954.97 516.61 C 957.31 513.14, 958.35 510.99, 958.48 507.29 C 958.61 503.60, 957.72 501.22, 955.63 498.14 C 953.54 495.06, 951.59 493.38, 948.02 491.89 C 944.45 490.41, 941.88 490.45, 937.79 490.72 C 933.69 490.98, 931.35 491.52, 927.54 493.22 C 923.74 494.93, 921.53 496.13, 918.75 499.24 C 915.96 502.34, 914.43 504.62, 913.62 508.77 C 912.81 512.91, 913.07 515.61, 914.70 519.95 C 916.33 524.28, 917.98 526.44, 921.78 530.43 C 925.57 534.41, 928.07 536.26, 933.68 539.86 C 939.28 543.45, 942.71 545.23, 949.79 548.38 C 956.86 551.54, 961.66 553.21, 969.05 555.65 C 976.44 558.09, 980.72 559.08, 986.72 560.58 C 992.72 562.09, 996.37 563.59, 999.05 563.17 C 1001.73 562.75, 1002.33 560.04, 1000.13 558.49 C 997.94 556.95, 993.94 557.06, 988.07 555.45 C 982.20 553.84, 977.98 552.87, 970.79 550.44 C 963.60 548.01, 958.83 546.46, 952.12 543.29 C 945.41 540.13, 942.17 538.19, 937.26 534.61 C 932.34 531.02, 930.32 528.88, 927.54 525.37 C 924.75 521.85, 924.10 519.89, 923.31 517.04 C 922.53 514.20, 922.94 513.18, 923.60 511.15 C 924.26 509.12, 924.96 508.37, 926.62 506.91 C 928.29 505.46, 929.56 504.70, 931.91 503.87 C 934.27 503.05, 935.95 502.85, 938.38 502.79 C 940.81 502.74, 942.19 503.25, 944.05 503.61 C 945.92 503.96, 946.75 503.89, 947.70 504.57 C 948.65 505.25, 948.84 505.51, 948.81 506.99 C 948.78 508.46, 948.89 509.53, 947.54 511.95 C 946.18 514.37, 945.13 516.20, 942.05 519.11 C 938.97 522.01, 936.77 523.72, 932.15 526.48 C 927.52 529.24, 924.70 530.64, 918.93 532.92 C 913.15 535.21, 909.81 536.23, 903.29 537.91 C 896.77 539.58, 893.09 540.33, 886.33 541.29 C 879.56 542.25, 875.97 542.56, 869.49 542.71 C 863.00 542.86, 859.62 542.71, 853.92 542.06 C 848.22 541.42, 845.32 540.80, 840.97 539.48 C 836.62 538.16, 834.76 536.99, 832.18 535.47 C 829.59 533.96, 829.10 533.08, 828.03 531.90 C 826.95 530.72, 826.67 530.72, 826.80 529.58 C 826.93 528.44, 827.58 527.99, 828.68 526.21 C 829.78 524.43, 830.42 523.00, 832.30 520.68 C 834.19 518.36, 835.67 516.95, 838.10 514.62 C 840.52 512.29, 842.49 511.27, 844.41 509.05 C 846.34 506.83, 847.02 505.61, 847.73 503.54 C 848.45 501.46, 848.68 500.39, 848.00 498.67 C 847.31 496.95, 846.04 495.62, 844.30 494.95" style="stroke: black; fill: black;"/></svg>