<svg xmlns="http://www.w3.org/2000/svg" id="canvas" viewBox="402.211 404.883 646.903 173.360"><path d="M 439.59,408.93 C 438.64 409.88, 438.42 410.77, 438.47 412.81 C 438.52 414.84, 438.60 415.85, 439.83 419.12 C 441.06 422.38, 442.46 424.54, 444.63 429.13 C 446.79 433.73, 448.11 436.49, 450.65 442.09 C 453.19 447.69, 454.60 450.87, 457.33 457.15 C 460.06 463.43, 461.61 466.85, 464.31 473.49 C 467.01 480.12, 468.48 483.61, 470.83 490.32 C 473.18 497.04, 474.38 500.53, 476.05 507.05 C 477.71 513.56, 478.47 516.92, 479.15 522.92 C 479.82 528.92, 479.94 531.91, 479.42 537.04 C 478.90 542.18, 478.31 544.45, 476.54 548.59 C 474.77 552.73, 473.55 554.56, 470.57 557.74 C 467.59 560.93, 465.69 562.37, 461.64 564.53 C 457.59 566.69, 455.06 567.50, 450.31 568.53 C 445.57 569.56, 442.72 569.82, 437.90 569.69 C 433.09 569.55, 430.35 569.08, 426.26 567.85 C 422.16 566.62, 420.08 565.43, 417.41 563.52 C 414.74 561.61, 413.93 560.53, 412.89 558.30 C 411.86 556.08, 411.66 555.13, 412.24 552.40 C 412.82 549.67, 413.27 547.98, 415.78 544.65 C 418.29 541.33, 420.16 539.32, 424.79 535.77 C 429.43 532.22, 432.56 530.28, 438.94 526.90 C 445.32 523.51, 449.18 521.84, 456.70 518.85 C 464.22 515.85, 468.60 514.51, 476.54 511.92 C 484.48 509.33, 488.83 508.18, 496.42 505.88 C 504.01 503.58, 507.86 502.49, 514.49 500.43 C 521.13 498.37, 524.33 497.45, 529.58 495.60 C 534.83 493.75, 537.14 493.10, 540.76 491.18 C 544.38 489.26, 546.00 488.43, 547.68 486.01 C 549.36 483.60, 549.62 481.79, 549.18 479.12 C 548.73 476.45, 547.80 474.60, 545.44 472.67 C 543.08 470.75, 540.98 469.80, 537.36 469.50 C 533.75 469.19, 531.38 469.80, 527.37 471.14 C 523.37 472.47, 521.06 473.57, 517.34 476.19 C 513.61 478.82, 511.53 480.59, 508.74 484.26 C 505.95 487.93, 504.53 490.24, 503.38 494.53 C 502.24 498.82, 501.94 501.49, 503.02 505.71 C 504.11 509.92, 505.47 512.26, 508.80 515.60 C 512.13 518.93, 514.59 520.27, 519.68 522.38 C 524.78 524.49, 527.93 525.19, 534.26 526.16 C 540.59 527.13, 544.30 527.30, 551.33 527.23 C 558.36 527.17, 562.26 526.81, 569.41 525.84 C 576.57 524.86, 580.38 524.13, 587.11 522.37 C 593.84 520.60, 597.15 519.45, 603.04 517.00 C 608.93 514.55, 611.79 513.12, 616.56 510.11 C 621.34 507.09, 623.43 505.39, 626.94 501.94 C 630.44 498.48, 631.87 496.54, 634.08 492.82 C 636.29 489.10, 637.03 487.04, 638.01 483.35 C 638.98 479.66, 639.21 477.60, 638.96 474.36 C 638.71 471.12, 638.01 469.42, 636.76 467.16 C 635.51 464.90, 634.48 463.76, 632.70 463.07 C 630.92 462.38, 629.29 462.62, 627.86 463.72 C 626.43 464.83, 625.47 466.37, 625.54 468.59 C 625.62 470.81, 626.10 472.54, 628.25 474.83 C 630.39 477.12, 632.75 477.69, 636.28 480.02 C 639.81 482.35, 642.02 483.79, 645.90 486.49 C 649.77 489.19, 652.10 490.72, 655.64 493.53 C 659.19 496.34, 661.11 497.90, 663.61 500.52 C 666.11 503.14, 666.95 504.65, 668.15 506.64 C 669.35 508.63, 669.76 509.17, 669.61 510.47 C 669.46 511.76, 668.88 511.93, 667.40 513.11 C 665.91 514.28, 664.87 515.12, 662.17 516.35 C 659.47 517.58, 657.53 518.45, 653.90 519.27 C 650.28 520.09, 647.88 520.38, 644.04 520.44 C 640.21 520.51, 637.85 520.22, 634.73 519.59 C 631.60 518.97, 630.29 518.17, 628.42 517.31 C 626.55 516.45, 626.21 515.91, 625.39 515.29 C 624.56 514.66, 624.58 514.73, 624.29 514.17 C 624.01 513.61, 624.62 513.07, 623.95 512.50 C 623.27 511.94, 621.96 510.98, 620.93 511.33 C 619.90 511.68, 619.04 512.66, 618.79 514.27 C 618.54 515.87, 618.55 517.24, 619.68 519.36 C 620.80 521.47, 621.69 523.25, 624.44 524.83 C 627.18 526.41, 629.45 526.66, 633.40 527.26 C 637.34 527.87, 639.77 527.91, 644.17 527.84 C 648.57 527.76, 651.11 527.62, 655.41 526.87 C 659.70 526.13, 662.04 525.69, 665.64 524.10 C 669.23 522.52, 671.21 521.54, 673.39 518.95 C 675.57 516.37, 676.24 514.40, 676.55 511.18 C 676.87 507.97, 676.57 506.00, 674.95 502.89 C 673.34 499.78, 671.52 498.52, 668.47 495.63 C 665.42 492.74, 663.39 491.35, 659.72 488.42 C 656.05 485.48, 653.72 483.95, 650.12 480.95 C 646.52 477.95, 644.47 476.27, 641.72 473.42 C 638.96 470.57, 638.27 468.48, 636.34 466.71 C 634.42 464.94, 633.53 464.78, 632.11 464.56 C 630.69 464.35, 630.07 465.00, 629.26 465.64 C 628.45 466.29, 628.13 466.81, 628.07 467.80 C 628.02 468.80, 628.55 469.13, 628.98 470.64 C 629.41 472.15, 629.86 473.09, 630.23 475.35 C 630.60 477.61, 631.16 479.04, 630.84 481.94 C 630.53 484.85, 630.20 486.63, 628.65 489.89 C 627.10 493.15, 626.02 494.99, 623.09 498.25 C 620.16 501.51, 618.34 503.21, 613.99 506.17 C 609.64 509.14, 606.95 510.61, 601.36 513.06 C 595.77 515.51, 592.56 516.69, 586.06 518.43 C 579.57 520.17, 575.82 520.89, 568.87 521.78 C 561.93 522.68, 558.10 522.97, 551.34 522.89 C 544.58 522.82, 540.96 522.50, 535.07 521.40 C 529.18 520.29, 526.25 519.37, 521.87 517.35 C 517.50 515.34, 515.68 513.96, 513.18 511.32 C 510.69 508.69, 510.06 507.15, 509.41 504.17 C 508.76 501.18, 508.96 499.51, 509.92 496.39 C 510.88 493.27, 511.92 491.37, 514.22 488.57 C 516.51 485.76, 518.33 484.22, 521.41 482.36 C 524.48 480.50, 526.55 479.84, 529.59 479.25 C 532.64 478.66, 534.27 479.27, 536.63 479.41 C 538.99 479.54, 539.95 479.73, 541.38 479.93 C 542.81 480.12, 543.51 479.96, 543.78 480.38 C 544.06 480.81, 543.95 480.89, 542.76 482.04 C 541.57 483.18, 540.81 484.23, 537.84 486.10 C 534.88 487.96, 532.82 489.21, 527.91 491.34 C 523.00 493.47, 519.80 494.52, 513.29 496.75 C 506.79 498.98, 502.94 500.13, 495.37 502.50 C 487.81 504.86, 483.47 506.02, 475.46 508.60 C 467.46 511.18, 463.05 512.49, 455.36 515.40 C 447.68 518.31, 443.74 519.90, 437.04 523.16 C 430.34 526.43, 427.05 528.17, 421.87 531.72 C 416.68 535.28, 414.36 537.08, 411.13 540.93 C 407.89 544.78, 406.59 546.95, 405.71 550.99 C 404.82 555.03, 405.10 557.58, 406.71 561.13 C 408.31 564.69, 410.15 566.29, 413.74 568.76 C 417.33 571.24, 419.84 572.21, 424.65 573.51 C 429.46 574.80, 432.42 575.16, 437.79 575.23 C 443.16 575.31, 446.20 575.04, 451.49 573.86 C 456.78 572.68, 459.63 571.83, 464.23 569.33 C 468.83 566.82, 471.10 565.11, 474.49 561.34 C 477.89 557.58, 479.28 555.29, 481.20 550.52 C 483.11 545.74, 483.62 543.08, 484.06 537.46 C 484.50 531.83, 484.23 528.68, 483.40 522.40 C 482.58 516.11, 481.71 512.71, 479.94 506.03 C 478.17 499.36, 476.92 495.83, 474.55 489.03 C 472.17 482.22, 470.70 478.70, 468.06 471.99 C 465.43 465.28, 463.91 461.84, 461.39 455.46 C 458.87 449.09, 457.57 445.86, 455.46 440.12 C 453.35 434.38, 452.28 431.53, 450.85 426.75 C 449.42 421.97, 449.29 419.46, 448.31 416.24 C 447.34 413.01, 447.00 412.29, 445.99 410.65 C 444.98 409.00, 444.54 408.37, 443.27 408.02 C 441.99 407.68, 440.55 407.97, 439.59 408.93" style="stroke: black; fill: black;"/><path d="M 711.88,465.44 C 711.31 463.94, 710.26 462.81, 707.92 461.83 C 705.59 460.85, 703.71 460.48, 700.21 460.53 C 696.71 460.58, 694.25 461.04, 690.44 462.06 C 686.64 463.07, 684.35 463.67, 681.19 465.62 C 678.03 467.56, 676.21 468.89, 674.63 471.79 C 673.05 474.68, 672.50 476.92, 673.29 480.09 C 674.07 483.26, 675.40 485.00, 678.57 487.63 C 681.74 490.27, 684.28 491.06, 689.13 493.26 C 693.97 495.45, 697.17 496.45, 702.79 498.60 C 708.41 500.74, 711.86 501.85, 717.20 503.98 C 722.55 506.10, 725.58 507.25, 729.53 509.23 C 733.47 511.21, 734.91 512.71, 736.93 513.89 C 738.95 515.07, 739.61 514.83, 739.62 515.14 C 739.63 515.44, 738.86 514.89, 736.98 515.44 C 735.10 515.98, 733.69 516.83, 730.20 517.87 C 726.71 518.91, 724.10 519.79, 719.55 520.65 C 714.99 521.51, 712.00 521.91, 707.41 522.15 C 702.81 522.40, 700.14 522.11, 696.59 521.86 C 693.04 521.62, 691.44 521.04, 689.67 520.93 C 687.90 520.81, 687.53 521.36, 687.74 521.28 C 687.96 521.20, 688.88 521.66, 690.75 520.52 C 692.63 519.38, 693.64 517.85, 697.12 515.59 C 700.59 513.33, 703.10 511.77, 708.12 509.23 C 713.14 506.68, 716.39 505.29, 722.21 502.84 C 728.03 500.40, 731.42 499.10, 737.22 497.00 C 743.02 494.90, 746.16 493.81, 751.22 492.35 C 756.28 490.89, 758.83 490.12, 762.51 489.71 C 766.18 489.30, 767.36 489.48, 769.60 490.32 C 771.84 491.17, 772.21 491.95, 773.72 493.93 C 775.22 495.92, 775.83 497.39, 777.11 500.23 C 778.39 503.07, 778.95 505.01, 780.12 508.11 C 781.29 511.21, 781.49 513.26, 782.94 515.73 C 784.39 518.20, 785.74 519.22, 787.37 520.46 C 789.00 521.69, 789.93 521.96, 791.10 521.92 C 792.27 521.88, 792.83 521.26, 793.23 520.24 C 793.63 519.22, 793.37 518.57, 793.09 516.81 C 792.81 515.04, 792.75 513.86, 791.81 511.42 C 790.87 508.97, 789.83 507.58, 788.39 504.57 C 786.94 501.57, 786.38 499.54, 784.57 496.38 C 782.76 493.22, 781.93 491.28, 779.33 488.79 C 776.74 486.30, 775.13 484.90, 771.60 483.93 C 768.08 482.97, 766.08 483.27, 761.71 483.98 C 757.33 484.69, 754.95 485.80, 749.73 487.51 C 744.51 489.22, 741.47 490.39, 735.60 492.54 C 729.73 494.68, 726.35 495.96, 720.37 498.24 C 714.39 500.51, 711.08 501.73, 705.70 503.92 C 700.32 506.11, 697.60 507.10, 693.46 509.19 C 689.33 511.28, 687.07 511.87, 685.03 514.37 C 683.00 516.86, 682.85 519.05, 683.30 521.66 C 683.74 524.28, 684.71 525.96, 687.27 527.44 C 689.84 528.92, 692.01 528.79, 696.11 529.05 C 700.21 529.32, 702.87 529.03, 707.77 528.75 C 712.67 528.46, 715.70 528.25, 720.63 527.64 C 725.56 527.02, 728.32 526.80, 732.42 525.69 C 736.52 524.58, 738.78 524.18, 741.14 522.07 C 743.49 519.97, 744.15 517.92, 744.18 515.16 C 744.21 512.40, 743.71 510.53, 741.27 508.27 C 738.83 506.01, 736.41 505.72, 731.98 503.87 C 727.56 502.02, 724.57 501.10, 719.14 499.02 C 713.71 496.94, 710.29 495.76, 704.85 493.47 C 699.42 491.17, 696.27 489.87, 691.97 487.52 C 687.66 485.18, 685.75 483.64, 683.33 481.75 C 680.92 479.86, 680.41 479.19, 679.90 478.09 C 679.40 476.99, 679.68 477.09, 680.81 476.23 C 681.93 475.37, 683.16 474.78, 685.52 473.79 C 687.89 472.80, 689.63 471.89, 692.63 471.30 C 695.62 470.71, 697.72 470.98, 700.51 470.84 C 703.30 470.71, 704.51 470.94, 706.57 470.63 C 708.63 470.32, 709.73 470.35, 710.80 469.31 C 711.86 468.27, 712.46 466.93, 711.88 465.44" style="stroke: black; fill: black;"/><path d="M 763.54,437.17 C 764.78 436.53, 764.94 436.55, 764.67 436.60 C 764.41 436.66, 763.33 437.36, 762.21 437.44 C 761.10 437.52, 760.25 436.71, 759.10 436.98 C 757.96 437.25, 756.62 438.23, 756.49 438.80 C 756.37 439.37, 757.06 440.16, 758.47 439.83 C 759.88 439.51, 762.30 437.82, 763.54 437.17" style="stroke: black; fill: black;"/><path d="M 876.98,476.73 C 876.56 475.24, 875.73 474.04, 873.47 472.94 C 871.21 471.85, 869.38 471.24, 865.68 471.27 C 861.99 471.31, 859.41 471.72, 854.99 473.11 C 850.56 474.50, 848.00 475.71, 843.55 478.22 C 839.10 480.73, 836.53 482.33, 832.72 485.67 C 828.92 489.01, 826.77 490.96, 824.52 494.91 C 822.26 498.87, 821.19 501.40, 821.46 505.43 C 821.72 509.46, 822.84 511.88, 825.85 515.06 C 828.86 518.25, 831.31 519.37, 836.51 521.35 C 841.72 523.33, 845.04 523.96, 851.88 524.97 C 858.71 525.98, 862.85 526.23, 870.70 526.41 C 878.55 526.60, 882.97 526.42, 891.14 525.92 C 899.30 525.41, 903.70 524.96, 911.53 523.88 C 919.36 522.79, 923.42 522.09, 930.29 520.48 C 937.17 518.88, 940.37 517.86, 945.91 515.85 C 951.44 513.83, 953.87 512.72, 957.96 510.41 C 962.06 508.11, 963.89 507.00, 966.40 504.31 C 968.91 501.63, 969.73 499.96, 970.51 496.99 C 971.28 494.02, 971.23 492.27, 970.29 489.46 C 969.35 486.65, 968.34 484.92, 965.82 482.96 C 963.29 481.00, 961.29 480.08, 957.68 479.67 C 954.06 479.25, 951.81 479.71, 947.75 480.87 C 943.70 482.02, 941.39 483.06, 937.39 485.44 C 933.39 487.82, 931.13 489.48, 927.76 492.77 C 924.39 496.06, 922.60 498.05, 920.56 501.88 C 918.51 505.71, 917.63 508.03, 917.53 511.93 C 917.43 515.83, 918.02 518.23, 920.07 521.38 C 922.12 524.53, 924.15 525.89, 927.76 527.67 C 931.37 529.45, 933.78 529.87, 938.12 530.28 C 942.46 530.70, 944.94 530.48, 949.45 529.74 C 953.96 529.01, 956.39 528.28, 960.69 526.60 C 964.98 524.93, 967.22 523.79, 970.93 521.37 C 974.64 518.94, 976.39 517.38, 979.23 514.50 C 982.07 511.62, 983.78 509.91, 985.12 506.96 C 986.47 504.00, 986.50 501.63, 985.96 499.73 C 985.42 497.84, 983.63 497.07, 982.41 497.47 C 981.20 497.88, 979.83 499.43, 979.89 501.76 C 979.95 504.10, 980.72 505.94, 982.72 509.16 C 984.72 512.38, 986.56 514.50, 989.88 517.85 C 993.21 521.19, 995.30 522.97, 999.34 525.87 C 1003.37 528.77, 1005.68 530.01, 1010.05 532.33 C 1014.42 534.65, 1016.86 535.66, 1021.19 537.47 C 1025.53 539.27, 1028.04 540.10, 1031.74 541.34 C 1035.43 542.58, 1037.02 543.34, 1039.67 543.66 C 1042.32 543.97, 1043.77 543.64, 1044.99 542.92 C 1046.20 542.20, 1046.41 541.26, 1045.73 540.05 C 1045.05 538.83, 1043.96 537.95, 1041.58 536.86 C 1039.20 535.76, 1037.47 535.60, 1033.85 534.56 C 1030.22 533.52, 1027.64 533.16, 1023.44 531.66 C 1019.24 530.16, 1016.91 529.23, 1012.86 527.06 C 1008.82 524.89, 1006.67 523.64, 1003.23 520.80 C 999.79 517.96, 998.06 516.18, 995.65 512.87 C 993.25 509.57, 992.73 507.15, 991.20 504.26 C 989.67 501.37, 989.56 500.00, 988.01 498.41 C 986.45 496.83, 985.15 496.38, 983.42 496.34 C 981.69 496.29, 980.69 496.83, 979.38 498.18 C 978.07 499.52, 978.02 500.77, 976.88 503.06 C 975.75 505.34, 975.65 507.08, 973.70 509.62 C 971.76 512.16, 970.23 513.60, 967.15 515.76 C 964.06 517.92, 962.03 518.98, 958.29 520.42 C 954.55 521.85, 952.31 522.42, 948.44 522.93 C 944.57 523.43, 942.39 523.39, 938.93 522.95 C 935.47 522.51, 933.62 521.89, 931.13 520.72 C 928.64 519.54, 927.70 518.78, 926.46 517.06 C 925.22 515.34, 924.87 514.50, 924.94 512.12 C 925.00 509.75, 925.26 508.07, 926.78 505.20 C 928.31 502.32, 929.73 500.44, 932.56 497.75 C 935.39 495.06, 937.53 493.53, 940.94 491.74 C 944.35 489.94, 946.50 489.30, 949.62 488.76 C 952.74 488.22, 954.26 488.74, 956.55 489.03 C 958.83 489.33, 959.66 489.62, 961.04 490.22 C 962.42 490.83, 962.94 491.08, 963.45 492.07 C 963.96 493.05, 964.01 493.58, 963.58 495.14 C 963.15 496.71, 962.98 497.73, 961.30 499.88 C 959.61 502.03, 958.54 503.52, 955.14 505.90 C 951.75 508.27, 949.46 509.59, 944.30 511.75 C 939.15 513.92, 936.03 515.03, 929.38 516.74 C 922.72 518.44, 918.71 519.19, 911.02 520.29 C 903.33 521.40, 898.96 521.85, 890.93 522.27 C 882.89 522.70, 878.50 522.81, 870.84 522.44 C 863.19 522.06, 859.10 521.64, 852.65 520.41 C 846.19 519.18, 843.02 518.21, 838.55 516.29 C 834.09 514.38, 832.45 513.06, 830.33 510.82 C 828.21 508.59, 828.01 507.65, 827.95 505.12 C 827.90 502.59, 828.30 501.10, 830.08 498.16 C 831.85 495.23, 833.53 493.25, 836.84 490.42 C 840.15 487.58, 842.63 485.98, 846.63 483.99 C 850.63 482.01, 853.07 481.16, 856.84 480.47 C 860.62 479.79, 862.59 480.43, 865.50 480.59 C 868.41 480.76, 869.38 481.34, 871.39 481.30 C 873.41 481.27, 874.46 481.35, 875.58 480.44 C 876.70 479.52, 877.41 478.23, 876.98 476.73" style="stroke: black; fill: black;"/></svg>