<svg xmlns="http://www.w3.org/2000/svg" id="canvas" viewBox="411.536 405.161 466.321 149.226"><path d="M 461.51,424.74 C 460.18 425.37, 459.22 426.38, 457.91 429.10 C 456.60 431.81, 456.51 433.89, 454.96 438.32 C 453.41 442.76, 452.40 445.65, 450.16 451.26 C 447.92 456.86, 446.53 460.13, 443.75 466.36 C 440.97 472.59, 439.29 475.99, 436.27 482.42 C 433.26 488.85, 431.48 492.29, 428.68 498.50 C 425.87 504.71, 424.47 507.89, 422.26 513.48 C 420.04 519.07, 419.07 521.78, 417.61 526.45 C 416.15 531.11, 415.44 533.19, 414.93 536.83 C 414.42 540.46, 414.35 542.10, 415.05 544.64 C 415.75 547.18, 416.79 548.18, 418.43 549.52 C 420.06 550.86, 421.46 551.17, 423.23 551.34 C 424.99 551.52, 426.17 551.19, 427.26 550.40 C 428.34 549.60, 428.83 548.52, 428.66 547.38 C 428.50 546.24, 427.31 545.23, 426.43 544.68 C 425.54 544.13, 424.88 544.54, 424.25 544.64 C 423.63 544.74, 423.81 545.04, 423.29 545.19 C 422.77 545.34, 422.19 545.76, 421.66 545.40 C 421.14 545.04, 420.87 544.98, 420.65 543.40 C 420.43 541.81, 420.32 540.62, 420.58 537.46 C 420.83 534.31, 420.88 532.15, 421.93 527.63 C 422.98 523.10, 423.85 520.37, 425.84 514.84 C 427.84 509.30, 429.19 506.13, 431.92 499.95 C 434.64 493.77, 436.41 490.33, 439.47 483.93 C 442.53 477.54, 444.25 474.15, 447.23 467.98 C 450.21 461.81, 451.76 458.60, 454.37 453.09 C 456.97 447.59, 458.29 444.77, 460.26 440.46 C 462.23 436.15, 463.37 434.43, 464.22 431.53 C 465.08 428.62, 465.08 427.29, 464.53 425.93 C 463.99 424.57, 462.83 424.11, 461.51 424.74" style="stroke: black; fill: black;"/><path d="M 540.83,408.28 C 539.63 408.00, 538.82 408.18, 536.96 409.21 C 535.09 410.24, 534.21 411.12, 531.51 413.44 C 528.80 415.77, 527.27 417.57, 523.44 420.84 C 519.61 424.11, 517.24 426.07, 512.37 429.80 C 507.50 433.54, 504.54 435.58, 499.09 439.52 C 493.63 443.46, 490.50 445.62, 485.09 449.50 C 479.69 453.38, 476.80 455.43, 472.05 458.92 C 467.29 462.41, 464.98 464.04, 461.30 466.96 C 457.62 469.87, 455.83 470.90, 453.65 473.51 C 451.46 476.13, 450.84 477.48, 450.37 480.02 C 449.91 482.56, 450.19 483.90, 451.32 486.21 C 452.44 488.52, 453.43 489.95, 455.99 491.59 C 458.55 493.23, 460.51 493.48, 464.13 494.41 C 467.74 495.35, 469.91 495.47, 474.08 496.26 C 478.25 497.05, 480.59 497.45, 484.99 498.34 C 489.39 499.24, 491.77 499.71, 496.07 500.71 C 500.37 501.72, 502.57 502.25, 506.49 503.37 C 510.40 504.48, 512.30 505.08, 515.64 506.28 C 518.98 507.47, 520.42 508.27, 523.20 509.34 C 525.97 510.41, 527.37 511.11, 529.51 511.62 C 531.66 512.14, 532.51 512.00, 533.93 511.92 C 535.34 511.85, 535.94 511.80, 536.60 511.25 C 537.26 510.70, 537.46 510.00, 537.23 509.18 C 537.01 508.36, 536.54 508.03, 535.48 507.15 C 534.42 506.27, 533.91 505.72, 531.93 504.78 C 529.95 503.84, 528.46 503.32, 525.57 502.44 C 522.67 501.56, 520.98 501.28, 517.45 500.37 C 513.93 499.46, 511.97 498.90, 507.94 497.90 C 503.92 496.90, 501.67 496.39, 497.33 495.37 C 492.98 494.35, 490.58 493.85, 486.23 492.79 C 481.87 491.73, 479.51 491.19, 475.53 490.07 C 471.56 488.95, 469.49 488.32, 466.35 487.17 C 463.21 486.03, 461.92 485.18, 459.83 484.36 C 457.74 483.53, 456.82 483.66, 455.92 483.04 C 455.02 482.42, 454.88 482.40, 455.33 481.26 C 455.78 480.11, 456.37 479.46, 458.18 477.30 C 459.98 475.15, 461.09 473.53, 464.34 470.49 C 467.60 467.45, 469.87 465.70, 474.46 462.11 C 479.05 458.52, 481.91 456.43, 487.29 452.55 C 492.66 448.66, 495.79 446.52, 501.32 442.68 C 506.85 438.84, 509.85 436.85, 514.95 433.36 C 520.04 429.88, 522.56 428.08, 526.78 425.25 C 531.01 422.42, 533.13 421.34, 536.07 419.20 C 539.00 417.05, 540.09 416.25, 541.47 414.53 C 542.84 412.82, 543.07 411.87, 542.94 410.62 C 542.82 409.37, 542.03 408.56, 540.83 408.28" style="stroke: black; fill: black;"/><path d="M 571.82,511.74 C 572.72 512.63, 573.65 512.91, 575.68 513.00 C 577.70 513.09, 579.08 513.10, 581.95 512.18 C 584.81 511.26, 586.60 510.09, 590.02 508.40 C 593.45 506.71, 595.43 505.66, 599.07 503.72 C 602.71 501.78, 604.73 500.71, 608.21 498.70 C 611.69 496.70, 613.56 495.77, 616.48 493.72 C 619.39 491.67, 620.99 490.75, 622.79 488.44 C 624.59 486.13, 625.22 484.67, 625.49 482.17 C 625.76 479.67, 625.57 478.09, 624.13 475.93 C 622.69 473.77, 621.35 472.25, 618.31 471.35 C 615.27 470.45, 613.14 470.78, 608.93 471.42 C 604.71 472.07, 602.24 472.78, 597.23 474.59 C 592.22 476.40, 589.25 477.68, 583.88 480.49 C 578.51 483.30, 575.45 485.16, 570.38 488.64 C 565.30 492.12, 562.59 494.15, 558.50 497.89 C 554.41 501.62, 552.51 503.57, 549.92 507.31 C 547.34 511.05, 546.24 512.93, 545.58 516.58 C 544.92 520.22, 545.11 522.40, 546.61 525.53 C 548.12 528.67, 549.79 530.13, 553.12 532.25 C 556.44 534.37, 558.63 535.08, 563.25 536.13 C 567.86 537.17, 570.66 537.32, 576.20 537.49 C 581.75 537.65, 584.91 537.47, 590.97 536.94 C 597.04 536.41, 600.82 535.77, 606.51 534.84 C 612.20 533.91, 615.22 533.38, 619.43 532.29 C 623.64 531.20, 626.09 530.51, 627.58 529.37 C 629.07 528.23, 628.70 526.89, 626.88 526.60 C 625.05 526.30, 622.69 527.14, 618.47 527.90 C 614.25 528.65, 611.35 529.45, 605.78 530.38 C 600.21 531.30, 596.48 532.07, 590.61 532.52 C 584.74 532.98, 581.64 533.03, 576.44 532.67 C 571.24 532.30, 568.62 531.83, 564.63 530.69 C 560.64 529.56, 558.97 528.59, 556.49 526.98 C 554.01 525.38, 553.28 524.56, 552.22 522.67 C 551.16 520.77, 550.84 520.04, 551.20 517.51 C 551.57 514.99, 551.99 513.32, 554.05 510.04 C 556.11 506.76, 557.76 504.69, 561.51 501.11 C 565.25 497.54, 567.89 495.47, 572.78 492.16 C 577.66 488.84, 580.70 487.04, 585.91 484.54 C 591.12 482.04, 594.11 480.94, 598.84 479.66 C 603.58 478.38, 606.06 478.26, 609.59 478.15 C 613.12 478.04, 614.45 478.79, 616.48 479.09 C 618.51 479.38, 619.05 479.25, 619.74 479.62 C 620.44 479.99, 620.43 480.13, 619.96 480.94 C 619.49 481.75, 618.91 482.24, 617.40 483.69 C 615.89 485.13, 614.89 486.27, 612.41 488.17 C 609.93 490.07, 608.25 491.27, 605.00 493.20 C 601.75 495.13, 599.72 496.19, 596.15 497.82 C 592.58 499.45, 590.57 500.23, 587.14 501.34 C 583.71 502.44, 581.65 502.42, 578.99 503.35 C 576.33 504.28, 575.38 504.96, 573.82 506.00 C 572.27 507.03, 571.59 507.39, 571.19 508.53 C 570.79 509.68, 570.92 510.84, 571.82 511.74" style="stroke: black; fill: black;"/><path d="M 676.11,480.81 C 675.00 481.11, 674.61 481.59, 673.58 482.98 C 672.55 484.37, 671.77 485.24, 670.96 487.77 C 670.15 490.29, 670.18 492.26, 669.54 495.62 C 668.91 498.98, 668.54 501.01, 667.78 504.56 C 667.02 508.12, 666.40 510.01, 665.75 513.40 C 665.10 516.79, 664.53 518.51, 664.54 521.53 C 664.56 524.54, 664.81 526.07, 665.84 528.49 C 666.86 530.90, 667.67 532.11, 669.66 533.60 C 671.66 535.08, 673.07 535.72, 675.80 535.92 C 678.53 536.12, 680.25 535.93, 683.32 534.58 C 686.39 533.23, 687.83 531.75, 691.15 529.18 C 694.46 526.60, 696.25 525.00, 699.90 521.69 C 703.54 518.39, 705.62 516.42, 709.36 512.67 C 713.10 508.91, 715.09 506.73, 718.60 502.92 C 722.10 499.10, 723.88 497.03, 726.88 493.59 C 729.88 490.15, 731.52 488.58, 733.60 485.72 C 735.69 482.86, 736.44 481.44, 737.28 479.32 C 738.13 477.19, 738.12 476.15, 737.84 475.09 C 737.56 474.02, 736.91 473.70, 735.87 473.98 C 734.83 474.25, 734.11 474.84, 732.65 476.47 C 731.19 478.09, 730.53 479.34, 728.57 482.11 C 726.62 484.87, 725.58 486.79, 722.87 490.30 C 720.16 493.81, 718.41 495.89, 715.02 499.66 C 711.62 503.42, 709.63 505.56, 705.89 509.12 C 702.15 512.68, 700.02 514.56, 696.32 517.46 C 692.62 520.37, 690.65 521.76, 687.39 523.66 C 684.13 525.56, 682.38 525.96, 680.01 526.98 C 677.64 528.00, 676.88 528.41, 675.52 528.77 C 674.15 529.13, 673.85 529.23, 673.19 528.77 C 672.52 528.32, 672.36 527.90, 672.18 526.49 C 672.01 525.09, 672.14 524.09, 672.30 521.74 C 672.47 519.38, 672.45 517.81, 672.99 514.73 C 673.54 511.66, 674.06 509.74, 675.02 506.36 C 675.98 502.97, 676.69 501.02, 677.79 497.80 C 678.90 494.59, 680.01 492.92, 680.55 490.28 C 681.10 487.65, 680.80 486.40, 680.52 484.64 C 680.25 482.88, 680.05 482.25, 679.17 481.48 C 678.29 480.71, 677.23 480.51, 676.11 480.81" style="stroke: black; fill: black;"/><path d="M 769.83,478.32 C 768.63 478.49, 768.09 478.89, 766.72 480.38 C 765.35 481.86, 764.55 482.95, 762.98 485.75 C 761.42 488.54, 760.71 490.73, 758.90 494.33 C 757.08 497.93, 755.92 500.12, 753.92 503.75 C 751.92 507.38, 750.69 509.27, 748.88 512.47 C 747.08 515.67, 745.93 517.17, 744.89 519.75 C 743.85 522.33, 743.77 523.62, 743.70 525.38 C 743.62 527.15, 744.12 527.74, 744.52 528.57 C 744.93 529.41, 745.26 529.37, 745.70 529.55 C 746.14 529.72, 746.31 529.56, 746.73 529.45 C 747.14 529.34, 747.20 529.47, 747.77 529.00 C 748.34 528.53, 748.78 528.37, 749.59 527.11 C 750.40 525.84, 750.79 525.00, 751.82 522.70 C 752.86 520.39, 753.24 518.73, 754.79 515.58 C 756.33 512.43, 757.47 510.49, 759.54 506.95 C 761.62 503.42, 762.97 501.32, 765.16 497.92 C 767.36 494.53, 768.92 492.83, 770.52 489.98 C 772.13 487.12, 772.75 485.73, 773.18 483.64 C 773.62 481.55, 773.36 480.60, 772.69 479.53 C 772.02 478.47, 771.02 478.15, 769.83 478.32" style="stroke: black; fill: black;"/><path d="M 795.48,434.98 C 796.67 434.75, 797.22 434.46, 796.88 434.86 C 796.53 435.26, 794.61 436.56, 793.75 436.97 C 792.89 437.38, 792.42 437.71, 792.57 436.91 C 792.71 436.11, 794.46 433.83, 794.47 432.96 C 794.47 432.09, 793.60 432.11, 792.58 432.57 C 791.55 433.02, 789.67 434.55, 789.34 435.23 C 789.00 435.91, 789.68 436.02, 790.91 435.97 C 792.14 435.91, 794.29 435.20, 795.48 434.98" style="stroke: black; fill: black;"/><path d="M 819.42,481.17 C 818.14 481.42, 817.41 482.07, 815.98 483.78 C 814.56 485.49, 813.99 486.81, 812.28 489.72 C 810.57 492.63, 809.60 494.82, 807.43 498.34 C 805.27 501.87, 803.89 503.92, 801.45 507.35 C 799.02 510.78, 797.53 512.59, 795.25 515.49 C 792.96 518.39, 791.21 519.54, 790.01 521.85 C 788.80 524.17, 788.77 525.54, 789.23 527.05 C 789.68 528.56, 790.61 529.31, 792.30 529.40 C 793.98 529.50, 795.49 529.41, 797.63 527.53 C 799.77 525.64, 800.24 523.36, 803.00 519.96 C 805.76 516.57, 807.48 514.31, 811.43 510.55 C 815.38 506.80, 817.95 504.70, 822.75 501.19 C 827.54 497.68, 830.43 495.83, 835.41 493.00 C 840.38 490.16, 843.12 488.81, 847.61 487.03 C 852.11 485.26, 854.48 484.73, 857.88 484.12 C 861.29 483.51, 862.71 483.74, 864.63 484.00 C 866.56 484.26, 866.98 484.34, 867.51 485.43 C 868.04 486.52, 867.60 487.21, 867.28 489.44 C 866.97 491.68, 866.92 493.29, 865.92 496.61 C 864.93 499.92, 864.04 502.15, 862.31 506.02 C 860.59 509.88, 859.32 512.12, 857.29 515.92 C 855.27 519.72, 853.94 521.70, 852.18 525.04 C 850.42 528.37, 849.41 530.06, 848.49 532.61 C 847.57 535.17, 847.61 536.15, 847.58 537.81 C 847.56 539.46, 847.95 540.08, 848.37 540.90 C 848.79 541.72, 849.18 541.81, 849.68 541.92 C 850.18 542.02, 850.49 541.64, 850.87 541.45 C 851.24 541.25, 851.14 541.35, 851.56 540.92 C 851.99 540.49, 852.26 540.42, 853.00 539.30 C 853.74 538.17, 854.28 537.58, 855.27 535.29 C 856.26 533.00, 856.50 531.15, 857.96 527.84 C 859.42 524.52, 860.57 522.53, 862.57 518.71 C 864.58 514.88, 865.97 512.68, 867.97 508.71 C 869.97 504.73, 871.21 502.62, 872.58 498.82 C 873.96 495.03, 874.95 493.05, 874.85 489.74 C 874.75 486.43, 873.89 484.59, 872.07 482.28 C 870.25 479.96, 868.81 478.85, 865.75 478.16 C 862.69 477.46, 860.77 477.89, 856.78 478.82 C 852.80 479.75, 850.53 480.70, 845.83 482.80 C 841.13 484.89, 838.41 486.34, 833.29 489.30 C 828.16 492.27, 825.25 494.14, 820.21 497.62 C 815.17 501.11, 812.53 503.22, 808.11 506.73 C 803.69 510.24, 801.54 512.23, 798.10 515.17 C 794.66 518.11, 792.59 519.11, 790.92 521.41 C 789.24 523.71, 789.48 525.24, 789.73 526.68 C 789.98 528.13, 790.86 528.72, 792.17 528.63 C 793.49 528.53, 794.62 528.07, 796.30 526.22 C 797.99 524.37, 798.55 522.43, 800.59 519.38 C 802.63 516.33, 804.00 514.42, 806.50 510.98 C 809.01 507.53, 810.57 505.58, 813.09 502.16 C 815.62 498.74, 817.24 496.88, 819.12 493.88 C 821.01 490.88, 821.85 489.45, 822.50 487.18 C 823.16 484.91, 823.00 483.72, 822.38 482.52 C 821.77 481.32, 820.70 480.92, 819.42 481.17" style="stroke: black; fill: black;"/></svg>