<svg xmlns="http://www.w3.org/2000/svg" id="canvas" viewBox="622.145 388.424 715.706 261.708"><path d="M 692.13,428.20 C 690.53 429.80, 691.24 431.92, 689.80 437.48 C 688.35 443.04, 687.66 446.62, 684.91 455.99 C 682.15 465.37, 680.23 471.71, 676.01 484.36 C 671.78 497.01, 668.92 504.73, 663.79 519.24 C 658.65 533.75, 655.43 542.25, 650.34 556.92 C 645.25 571.58, 642.49 579.69, 638.34 592.56 C 634.19 605.42, 632.23 611.81, 629.59 621.24 C 626.95 630.66, 625.27 634.50, 625.15 639.68 C 625.04 644.86, 626.75 647.06, 629.00 647.13 C 631.25 647.20, 633.29 645.42, 636.40 640.03 C 639.51 634.65, 640.65 630.13, 644.55 620.23 C 648.45 610.32, 650.68 603.69, 655.91 590.51 C 661.15 577.33, 664.32 569.25, 670.72 554.32 C 677.12 539.40, 680.88 530.94, 687.92 515.89 C 694.96 500.85, 698.83 492.89, 705.90 479.09 C 712.98 465.29, 716.72 458.43, 723.31 446.90 C 729.89 435.36, 733.18 429.90, 738.83 421.41 C 744.48 412.91, 747.39 409.20, 751.55 404.43 C 755.72 399.66, 758.20 398.87, 759.67 397.55 C 761.14 396.23, 759.34 395.04, 758.90 397.85 C 758.47 400.65, 759.06 403.84, 757.51 411.58 C 755.96 419.32, 754.38 425.33, 751.15 436.56 C 747.91 447.79, 745.41 455.23, 741.32 467.72 C 737.24 480.21, 734.50 487.62, 730.72 499.01 C 726.93 510.39, 724.81 516.14, 722.40 524.66 C 719.98 533.18, 718.20 536.66, 718.63 541.62 C 719.05 546.58, 721.20 549.37, 724.53 549.47 C 727.86 549.56, 730.16 547.29, 735.27 542.09 C 740.38 536.90, 743.14 532.56, 750.09 523.48 C 757.04 514.41, 761.31 508.12, 770.01 496.72 C 778.71 485.33, 784.08 478.20, 793.60 466.53 C 803.13 454.85, 808.60 448.30, 817.65 438.35 C 826.71 428.39, 831.51 423.53, 838.90 416.77 C 846.28 410.01, 850.17 407.54, 854.58 404.55 C 858.99 401.55, 859.79 401.44, 860.95 401.80 C 862.10 402.16, 861.37 402.02, 860.37 406.35 C 859.38 410.68, 858.90 414.63, 855.97 423.46 C 853.05 432.29, 850.76 438.30, 845.75 450.51 C 840.74 462.71, 837.27 470.33, 830.93 484.48 C 824.60 498.63, 820.57 506.96, 814.08 521.27 C 807.58 535.57, 803.93 543.30, 798.48 556.00 C 793.03 568.70, 790.45 574.92, 786.83 584.79 C 783.21 594.66, 782.16 598.86, 780.38 605.37 C 778.60 611.88, 777.86 613.76, 777.94 617.33 C 778.02 620.90, 779.49 621.89, 780.81 623.22 C 782.12 624.55, 783.58 624.35, 784.50 623.99 C 785.42 623.62, 785.30 622.05, 785.40 621.40 C 785.50 620.75, 784.95 621.56, 785.00 620.75 C 785.05 619.93, 785.56 620.18, 785.63 617.32 C 785.71 614.46, 784.41 612.70, 785.37 606.44 C 786.33 600.19, 787.23 595.88, 790.44 586.04 C 793.66 576.21, 796.17 569.96, 801.46 557.26 C 806.75 544.56, 810.39 536.83, 816.89 522.55 C 823.39 508.27, 827.44 499.95, 833.97 485.87 C 840.49 471.78, 844.11 464.24, 849.52 452.12 C 854.93 440.00, 857.58 434.25, 861.03 425.27 C 864.47 416.29, 866.37 412.86, 866.75 407.23 C 867.13 401.60, 865.94 398.51, 862.95 397.10 C 859.95 395.69, 857.12 396.84, 851.76 400.19 C 846.39 403.54, 843.46 406.68, 836.14 413.85 C 828.81 421.03, 824.15 425.96, 815.12 436.07 C 806.10 446.18, 800.64 452.75, 791.02 464.41 C 781.40 476.08, 775.97 483.18, 767.03 494.40 C 758.08 505.61, 753.52 511.76, 746.30 520.46 C 739.09 529.17, 735.47 533.19, 730.96 537.92 C 726.45 542.65, 725.05 543.35, 723.75 544.12 C 722.44 544.89, 723.79 545.42, 724.43 541.77 C 725.08 538.11, 724.94 534.17, 726.96 525.86 C 728.98 517.56, 730.89 511.62, 734.53 500.25 C 738.18 488.88, 740.93 481.47, 745.18 469.01 C 749.44 456.56, 752.17 449.21, 755.81 437.99 C 759.44 426.76, 761.39 421.06, 763.37 412.88 C 765.35 404.70, 766.95 401.32, 765.71 397.07 C 764.48 392.81, 760.81 390.79, 757.18 391.60 C 753.55 392.42, 751.88 395.60, 747.56 401.15 C 743.24 406.69, 740.99 410.50, 735.59 419.34 C 730.18 428.18, 726.99 433.65, 720.54 445.34 C 714.09 457.03, 710.38 463.92, 703.34 477.79 C 696.30 491.65, 692.43 499.62, 685.34 514.68 C 678.25 529.74, 674.46 538.21, 667.88 553.09 C 661.29 567.96, 658.01 576.02, 652.40 589.06 C 646.80 602.09, 644.18 608.62, 639.86 618.25 C 635.53 627.87, 633.08 631.93, 630.78 637.17 C 628.48 642.42, 628.40 643.85, 628.35 644.48 C 628.30 645.11, 629.47 644.77, 630.51 640.33 C 631.56 635.89, 631.38 631.62, 633.58 622.26 C 635.78 612.91, 637.58 606.42, 641.52 593.56 C 645.46 580.69, 648.20 572.58, 653.28 557.94 C 658.36 543.30, 661.61 534.82, 666.91 520.36 C 672.22 505.91, 675.21 498.24, 679.79 485.68 C 684.37 473.12, 686.59 466.87, 689.81 457.57 C 693.04 448.26, 694.32 444.77, 695.92 439.15 C 697.53 433.53, 698.60 431.67, 697.84 429.48 C 697.08 427.29, 693.74 426.60, 692.13 428.20" style="stroke: black; fill: black;"/><path d="M 935.06,529.14 C 935.51 526.89, 935.01 525.03, 933.03 523.04 C 931.04 521.04, 929.03 519.62, 925.15 519.17 C 921.28 518.71, 918.53 519.19, 913.65 520.77 C 908.77 522.34, 906.32 523.51, 900.74 527.03 C 895.17 530.55, 891.94 532.78, 885.77 538.37 C 879.60 543.97, 876.02 547.66, 869.90 555.02 C 863.78 562.39, 860.33 567.09, 855.17 575.20 C 850.02 583.31, 847.41 588.08, 844.12 595.58 C 840.83 603.08, 839.26 606.77, 838.73 612.70 C 838.20 618.63, 838.54 622.08, 841.48 625.25 C 844.43 628.42, 848.05 629.21, 853.46 628.54 C 858.87 627.87, 861.93 625.96, 868.53 621.90 C 875.13 617.85, 879.03 614.67, 886.46 608.27 C 893.89 601.86, 898.22 597.54, 905.70 589.87 C 913.18 582.20, 917.36 577.30, 923.88 569.92 C 930.40 562.55, 933.76 558.46, 938.30 553.01 C 942.83 547.57, 945.73 545.73, 946.55 542.70 C 947.38 539.68, 944.55 537.43, 942.42 537.89 C 940.29 538.36, 938.74 540.41, 935.89 545.01 C 933.05 549.61, 931.34 553.83, 928.20 560.89 C 925.07 567.95, 923.12 572.70, 920.23 580.30 C 917.33 587.89, 915.54 592.23, 913.75 598.87 C 911.96 605.51, 911.35 608.83, 911.28 613.51 C 911.22 618.18, 912.08 620.62, 913.43 622.26 C 914.78 623.90, 917.09 623.38, 918.05 621.71 C 919.01 620.04, 917.77 618.13, 918.23 613.91 C 918.68 609.69, 918.67 606.85, 920.32 600.62 C 921.96 594.40, 923.46 590.04, 926.47 582.78 C 929.48 575.51, 931.94 571.02, 935.37 564.30 C 938.79 557.57, 941.38 553.96, 943.58 549.14 C 945.79 544.32, 947.02 542.33, 946.39 540.19 C 945.77 538.05, 943.03 536.61, 940.46 538.43 C 937.88 540.26, 937.59 543.66, 933.53 549.32 C 929.47 554.97, 926.40 559.27, 920.15 566.71 C 913.90 574.14, 909.70 579.00, 902.26 586.48 C 894.82 593.95, 890.37 598.11, 882.96 604.06 C 875.55 610.01, 871.33 612.79, 865.19 616.22 C 859.05 619.65, 855.92 620.39, 852.26 621.20 C 848.61 622.01, 848.31 621.85, 846.91 620.27 C 845.50 618.70, 844.75 617.83, 845.22 613.32 C 845.70 608.82, 846.42 604.83, 849.29 597.76 C 852.15 590.69, 854.61 585.82, 859.55 577.97 C 864.49 570.12, 867.95 565.48, 874.01 558.51 C 880.06 551.54, 883.73 548.02, 889.83 543.11 C 895.94 538.20, 899.36 536.32, 904.53 533.95 C 909.70 531.59, 912.14 531.37, 915.70 531.30 C 919.26 531.23, 920.24 532.90, 922.33 533.61 C 924.43 534.32, 924.48 534.72, 926.17 534.85 C 927.85 534.99, 928.99 535.42, 930.77 534.28 C 932.54 533.14, 934.60 531.39, 935.06 529.14" style="stroke: black; fill: black;"/><path d="M 1010.08,546.65 C 1008.12 547.25, 1007.50 548.51, 1005.69 552.02 C 1003.88 555.52, 1003.43 558.38, 1001.04 564.17 C 998.66 569.95, 996.89 574.14, 993.75 580.95 C 990.62 587.76, 988.56 592.03, 985.38 598.22 C 982.20 604.40, 979.53 607.49, 977.83 611.88 C 976.13 616.27, 975.66 618.38, 976.89 620.15 C 978.11 621.91, 981.18 622.99, 983.96 620.72 C 986.74 618.45, 987.08 614.86, 990.78 608.81 C 994.48 602.76, 997.05 598.12, 1002.46 590.48 C 1007.87 582.85, 1011.38 578.01, 1017.84 570.64 C 1024.30 563.27, 1028.14 559.32, 1034.75 553.64 C 1041.36 547.97, 1045.20 545.44, 1050.88 542.26 C 1056.56 539.08, 1059.30 538.44, 1063.14 537.72 C 1066.99 537.01, 1068.11 538.44, 1070.10 538.69 C 1072.09 538.94, 1072.33 538.83, 1073.11 538.99 C 1073.89 539.15, 1073.40 539.33, 1074.02 539.48 C 1074.64 539.64, 1075.02 540.30, 1076.21 539.78 C 1077.40 539.26, 1079.22 538.02, 1079.95 536.90 C 1080.68 535.79, 1080.43 535.38, 1079.85 534.21 C 1079.27 533.04, 1078.85 532.18, 1077.05 531.06 C 1075.24 529.93, 1074.03 528.72, 1070.83 528.60 C 1067.63 528.47, 1065.64 528.71, 1061.04 530.44 C 1056.44 532.16, 1053.75 533.35, 1047.82 537.22 C 1041.88 541.09, 1038.13 543.78, 1031.37 549.77 C 1024.60 555.77, 1020.77 559.80, 1014.00 567.20 C 1007.23 574.60, 1003.44 579.31, 997.53 586.79 C 991.62 594.27, 988.63 598.79, 984.45 604.61 C 980.27 610.42, 977.56 612.55, 976.64 615.84 C 975.71 619.13, 978.08 621.06, 979.85 621.03 C 981.61 621.00, 983.03 619.58, 985.46 615.67 C 987.89 611.77, 988.97 607.79, 991.97 601.49 C 994.98 595.19, 997.11 590.93, 1000.47 584.17 C 1003.83 577.41, 1005.94 573.34, 1008.76 567.68 C 1011.59 562.03, 1013.24 559.63, 1014.59 555.89 C 1015.93 552.14, 1016.39 550.82, 1015.49 548.97 C 1014.59 547.13, 1012.04 546.04, 1010.08 546.65" style="stroke: black; fill: black;"/><path d="M 1189.68,526.36 C 1188.78 524.30, 1187.40 522.49, 1184.30 522.07 C 1181.19 521.66, 1178.97 522.73, 1174.16 524.28 C 1169.36 525.84, 1166.36 526.71, 1160.29 529.83 C 1154.21 532.96, 1150.70 535.03, 1143.80 539.92 C 1136.89 544.80, 1132.73 547.95, 1125.75 554.26 C 1118.77 560.56, 1114.79 564.40, 1108.90 571.44 C 1103.01 578.49, 1099.93 582.54, 1096.31 589.48 C 1092.68 596.42, 1091.00 600.10, 1090.77 606.14 C 1090.53 612.18, 1091.40 615.67, 1095.13 619.66 C 1098.86 623.66, 1102.36 624.94, 1109.42 626.12 C 1116.48 627.31, 1120.96 626.90, 1130.45 625.59 C 1139.95 624.28, 1146.76 622.37, 1156.90 619.56 C 1167.04 616.76, 1172.95 614.45, 1181.16 611.57 C 1189.36 608.69, 1194.90 607.33, 1197.93 605.18 C 1200.96 603.02, 1199.96 600.45, 1196.29 600.82 C 1192.62 601.18, 1187.74 604.27, 1179.59 607.01 C 1171.44 609.75, 1165.51 611.90, 1155.54 614.51 C 1145.57 617.12, 1138.75 618.96, 1129.73 620.07 C 1120.71 621.18, 1116.40 621.05, 1110.43 620.07 C 1104.45 619.09, 1102.54 617.88, 1099.86 615.16 C 1097.18 612.43, 1096.73 611.07, 1097.03 606.45 C 1097.33 601.84, 1098.17 598.40, 1101.36 592.07 C 1104.55 585.75, 1107.37 581.58, 1112.97 574.83 C 1118.57 568.08, 1122.49 564.26, 1129.34 558.31 C 1136.19 552.35, 1140.40 549.31, 1147.22 545.05 C 1154.04 540.79, 1157.61 539.10, 1163.43 537.00 C 1169.26 534.90, 1172.16 534.92, 1176.34 534.56 C 1180.53 534.21, 1181.86 535.66, 1184.35 535.23 C 1186.84 534.79, 1187.74 534.15, 1188.81 532.38 C 1189.87 530.60, 1190.59 528.42, 1189.68 526.36" style="stroke: black; fill: black;"/><path d="M 1299.29,545.31 C 1299.32 543.12, 1298.63 541.51, 1296.41 539.99 C 1294.20 538.47, 1292.14 537.53, 1288.23 537.72 C 1284.33 537.90, 1281.72 538.81, 1276.87 540.94 C 1272.03 543.07, 1269.43 544.61, 1264.01 548.38 C 1258.60 552.16, 1255.35 554.56, 1249.80 559.82 C 1244.25 565.07, 1241.02 568.43, 1236.27 574.67 C 1231.52 580.90, 1228.89 584.55, 1226.05 590.97 C 1223.21 597.40, 1221.79 601.08, 1222.05 606.78 C 1222.32 612.49, 1223.50 615.97, 1227.37 619.50 C 1231.24 623.03, 1234.79 624.02, 1241.41 624.45 C 1248.03 624.88, 1252.28 624.05, 1260.47 621.66 C 1268.66 619.27, 1273.69 617.04, 1282.36 612.51 C 1291.04 607.98, 1296.04 604.83, 1303.84 599.00 C 1311.65 593.17, 1315.71 589.67, 1321.39 583.37 C 1327.06 577.08, 1329.62 573.65, 1332.22 567.52 C 1334.81 561.39, 1335.41 557.97, 1334.36 552.72 C 1333.32 547.47, 1331.14 544.72, 1327.00 541.27 C 1322.86 537.81, 1319.27 536.82, 1313.67 535.43 C 1308.07 534.03, 1304.15 534.23, 1299.00 534.29 C 1293.85 534.36, 1291.21 534.50, 1287.90 535.74 C 1284.59 536.99, 1283.23 538.67, 1282.45 540.51 C 1281.68 542.35, 1282.50 543.91, 1284.01 544.95 C 1285.52 545.99, 1286.94 545.82, 1290.01 545.71 C 1293.09 545.60, 1295.00 544.70, 1299.38 544.40 C 1303.76 544.10, 1307.34 543.57, 1311.91 544.21 C 1316.48 544.85, 1319.11 545.60, 1322.24 547.60 C 1325.37 549.60, 1326.67 550.69, 1327.55 554.21 C 1328.43 557.74, 1328.67 560.10, 1326.64 565.23 C 1324.62 570.36, 1322.58 573.91, 1317.41 579.85 C 1312.25 585.79, 1308.31 589.36, 1300.82 594.94 C 1293.32 600.53, 1288.33 603.58, 1279.94 607.75 C 1271.55 611.93, 1266.48 613.85, 1258.86 615.82 C 1251.24 617.80, 1247.19 617.98, 1241.86 617.64 C 1236.53 617.29, 1234.74 616.31, 1232.21 614.10 C 1229.67 611.89, 1229.18 610.67, 1229.18 606.59 C 1229.17 602.50, 1229.73 599.26, 1232.17 593.67 C 1234.62 588.07, 1236.96 584.36, 1241.41 578.61 C 1245.86 572.86, 1249.06 569.58, 1254.44 564.92 C 1259.82 560.26, 1263.19 558.07, 1268.31 555.30 C 1273.43 552.53, 1276.11 551.70, 1280.05 551.08 C 1283.98 550.47, 1285.53 551.92, 1287.98 552.22 C 1290.43 552.52, 1290.64 552.84, 1292.30 552.58 C 1293.96 552.32, 1294.87 552.39, 1296.26 550.94 C 1297.66 549.49, 1299.26 547.50, 1299.29 545.31" style="stroke: black; fill: black;"/></svg>