<svg xmlns="http://www.w3.org/2000/svg" id="canvas" viewBox="518.324 393.149 537.260 166.936"><path d="M 565.58,431.01 C 563.56 433.00, 562.69 436.98, 559.76 443.11 C 556.84 449.23, 554.58 453.42, 550.95 461.63 C 547.32 469.84, 545.18 475.22, 541.62 484.16 C 538.06 493.09, 536.23 498.01, 533.15 506.30 C 530.07 514.58, 528.46 518.78, 526.23 525.58 C 524.00 532.38, 522.87 535.63, 521.98 540.31 C 521.10 545.00, 521.17 547.01, 521.81 549.02 C 522.44 551.03, 524.34 550.30, 525.14 550.37 C 525.95 550.45, 525.62 549.73, 525.85 549.39 C 526.09 549.05, 525.97 550.28, 526.32 548.67 C 526.68 547.07, 526.82 545.74, 527.63 541.37 C 528.44 537.00, 528.56 533.57, 530.38 526.82 C 532.20 520.06, 533.76 515.85, 536.72 507.61 C 539.69 499.36, 541.61 494.46, 545.21 485.60 C 548.81 476.75, 551.04 471.44, 554.74 463.33 C 558.44 455.22, 560.70 451.09, 563.73 445.05 C 566.76 439.02, 569.52 435.96, 569.89 433.15 C 570.26 430.34, 567.61 429.02, 565.58 431.01" style="stroke: black; fill: black;"/><path d="M 583.46,412.22 C 585.35 411.13, 587.07 409.02, 587.24 407.11 C 587.41 405.21, 585.96 403.74, 584.32 402.70 C 582.67 401.66, 580.46 401.01, 579.02 401.91 C 577.58 402.80, 577.16 403.79, 577.11 407.17 C 577.06 410.54, 578.09 413.47, 578.76 418.78 C 579.43 424.09, 579.95 427.68, 580.45 433.72 C 580.94 439.77, 580.91 443.09, 581.24 449.00 C 581.57 454.90, 581.59 457.86, 582.11 463.26 C 582.62 468.66, 582.68 471.50, 583.83 475.99 C 584.99 480.48, 585.60 482.73, 587.89 485.69 C 590.18 488.65, 592.01 489.82, 595.29 490.79 C 598.57 491.77, 600.62 491.98, 604.28 490.58 C 607.93 489.17, 609.62 487.43, 613.55 483.77 C 617.49 480.12, 619.59 477.62, 623.95 472.32 C 628.30 467.02, 630.67 463.67, 635.34 457.27 C 640.02 450.87, 642.78 446.94, 647.31 440.34 C 651.84 433.74, 654.12 429.94, 658.00 424.27 C 661.88 418.59, 663.71 415.89, 666.71 411.95 C 669.70 408.00, 671.28 406.72, 672.97 404.56 C 674.65 402.40, 674.87 401.64, 675.11 401.15 C 675.36 400.66, 674.46 400.73, 674.19 402.11 C 673.92 403.49, 674.23 404.42, 673.76 408.02 C 673.29 411.63, 673.39 414.36, 671.84 420.14 C 670.29 425.91, 668.65 429.63, 666.02 436.91 C 663.38 444.18, 661.66 448.49, 658.65 456.50 C 655.64 464.52, 654.12 469.06, 650.95 476.98 C 647.78 484.90, 645.65 488.94, 642.80 496.10 C 639.94 503.26, 638.75 507.10, 636.67 512.80 C 634.59 518.50, 633.35 520.46, 632.40 524.60 C 631.46 528.73, 631.03 530.96, 631.94 533.49 C 632.84 536.01, 635.48 536.91, 636.94 537.20 C 638.40 537.49, 639.07 535.97, 639.23 534.95 C 639.39 533.92, 637.88 533.89, 637.74 532.09 C 637.61 530.28, 637.83 529.48, 638.56 525.93 C 639.28 522.38, 639.72 519.99, 641.36 514.33 C 643.00 508.67, 644.09 504.79, 646.74 497.62 C 649.40 490.45, 651.49 486.38, 654.65 478.46 C 657.81 470.54, 659.38 465.97, 662.56 458.02 C 665.73 450.06, 667.50 445.87, 670.55 438.69 C 673.59 431.50, 675.51 427.99, 677.79 422.09 C 680.07 416.19, 681.25 413.63, 681.94 409.20 C 682.62 404.76, 682.72 402.52, 681.21 399.91 C 679.69 397.31, 677.11 396.19, 674.36 396.15 C 671.61 396.11, 669.92 397.18, 667.47 399.71 C 665.02 402.24, 664.78 404.41, 662.09 408.80 C 659.41 413.19, 657.75 415.87, 654.06 421.67 C 650.37 427.47, 648.13 431.26, 643.64 437.82 C 639.14 444.37, 636.35 448.27, 631.57 454.43 C 626.80 460.60, 624.26 463.83, 619.75 468.64 C 615.25 473.45, 612.77 475.63, 609.05 478.46 C 605.33 481.30, 603.46 481.82, 601.15 482.81 C 598.84 483.81, 598.85 483.87, 597.50 483.45 C 596.15 483.03, 595.79 482.61, 594.38 480.73 C 592.97 478.84, 591.71 477.65, 590.44 474.02 C 589.18 470.39, 588.76 467.63, 588.07 462.57 C 587.38 457.51, 587.25 454.54, 587.00 448.71 C 586.75 442.88, 586.86 439.51, 586.82 433.44 C 586.78 427.37, 586.71 423.77, 586.79 418.34 C 586.87 412.91, 587.86 409.91, 587.20 406.30 C 586.55 402.68, 585.63 401.23, 583.51 400.27 C 581.40 399.31, 578.65 400.08, 576.62 401.49 C 574.59 402.91, 573.14 405.12, 573.38 407.34 C 573.61 409.55, 575.79 411.60, 577.81 412.58 C 579.82 413.56, 581.58 413.32, 583.46 412.22" style="stroke: black; fill: black;"/><path d="M 747.46,467.91 C 747.58 466.26, 746.97 465.19, 745.32 463.61 C 743.66 462.02, 742.50 460.52, 739.21 459.97 C 735.91 459.42, 733.33 459.75, 728.84 460.86 C 724.35 461.98, 721.94 463.08, 716.76 465.53 C 711.59 467.98, 708.51 469.52, 702.95 473.13 C 697.40 476.75, 694.43 479.19, 688.99 483.60 C 683.55 488.01, 680.30 490.45, 675.74 495.20 C 671.18 499.95, 668.99 502.72, 666.20 507.35 C 663.41 511.98, 662.35 514.23, 661.78 518.36 C 661.20 522.48, 661.49 524.81, 663.32 527.98 C 665.14 531.15, 667.15 532.81, 670.91 534.20 C 674.67 535.58, 677.17 535.42, 682.11 534.90 C 687.06 534.38, 689.96 533.62, 695.62 531.59 C 701.28 529.57, 704.42 528.03, 710.42 524.76 C 716.42 521.49, 719.79 519.38, 725.63 515.23 C 731.47 511.09, 734.50 508.53, 739.62 504.03 C 744.74 499.54, 747.34 496.80, 751.22 492.76 C 755.10 488.71, 757.90 486.86, 759.01 483.82 C 760.13 480.78, 758.67 478.53, 756.79 477.56 C 754.91 476.58, 752.55 476.83, 749.63 478.95 C 746.70 481.08, 745.28 483.88, 742.16 488.18 C 739.05 492.48, 737.04 495.59, 734.04 500.46 C 731.04 505.32, 729.39 508.03, 727.16 512.51 C 724.93 516.99, 723.84 518.78, 722.88 522.84 C 721.92 526.90, 721.26 529.27, 722.36 532.79 C 723.46 536.31, 725.81 538.42, 728.39 540.45 C 730.97 542.48, 732.78 542.62, 735.26 542.96 C 737.75 543.30, 739.42 543.19, 740.82 542.14 C 742.23 541.08, 742.76 539.35, 742.28 537.68 C 741.80 536.01, 740.08 534.88, 738.42 533.79 C 736.75 532.70, 735.54 533.02, 733.94 532.23 C 732.34 531.44, 731.17 531.40, 730.42 529.85 C 729.67 528.30, 729.61 527.33, 730.19 524.47 C 730.77 521.62, 731.37 519.59, 733.34 515.57 C 735.32 511.55, 737.00 508.85, 740.07 504.38 C 743.14 499.90, 745.52 497.09, 748.69 493.18 C 751.86 489.27, 754.29 487.58, 755.92 484.83 C 757.55 482.08, 757.45 480.42, 756.83 479.42 C 756.20 478.42, 754.81 477.97, 752.79 479.85 C 750.77 481.72, 750.03 484.69, 746.72 488.78 C 743.41 492.87, 741.01 495.81, 736.22 500.29 C 731.44 504.77, 728.44 507.25, 722.78 511.19 C 717.12 515.13, 713.75 517.12, 707.94 520.01 C 702.12 522.90, 698.98 524.15, 693.70 525.64 C 688.43 527.13, 685.59 527.31, 681.56 527.45 C 677.54 527.59, 675.92 527.05, 673.58 526.36 C 671.25 525.66, 670.86 525.39, 669.88 523.96 C 668.89 522.54, 668.37 521.96, 668.65 519.23 C 668.94 516.49, 669.14 514.36, 671.32 510.28 C 673.51 506.20, 675.40 503.34, 679.58 498.82 C 683.76 494.29, 686.97 491.82, 692.23 487.64 C 697.50 483.46, 700.49 481.10, 705.91 477.93 C 711.33 474.76, 714.50 473.46, 719.34 471.79 C 724.18 470.12, 726.57 469.63, 730.10 469.59 C 733.62 469.54, 734.80 471.08, 736.97 471.58 C 739.14 472.09, 739.40 472.04, 740.95 472.10 C 742.50 472.16, 743.42 472.72, 744.73 471.88 C 746.03 471.04, 747.34 469.57, 747.46 467.91" style="stroke: black; fill: black;"/><path d="M 789.74,481.40 C 788.15 481.93, 787.13 482.70, 786.05 484.95 C 784.97 487.20, 785.28 489.01, 784.32 492.65 C 783.37 496.30, 782.71 498.87, 781.27 503.15 C 779.82 507.44, 778.83 510.02, 777.09 514.08 C 775.36 518.14, 773.99 520.22, 772.59 523.45 C 771.18 526.68, 770.04 528.16, 770.07 530.22 C 770.09 532.27, 771.20 533.15, 772.71 533.72 C 774.22 534.29, 775.88 534.49, 777.61 533.07 C 779.34 531.64, 779.64 529.93, 781.35 526.60 C 783.06 523.28, 783.71 520.68, 786.15 516.44 C 788.60 512.20, 790.20 509.70, 793.55 505.41 C 796.91 501.12, 798.96 498.71, 802.94 495.00 C 806.93 491.28, 809.29 489.46, 813.48 486.83 C 817.67 484.21, 819.96 483.18, 823.89 481.86 C 827.81 480.55, 829.76 480.34, 833.11 480.25 C 836.45 480.17, 837.99 480.92, 840.60 481.43 C 843.21 481.94, 844.35 482.53, 846.17 482.78 C 847.98 483.03, 848.48 482.77, 849.68 482.69 C 850.87 482.61, 851.28 482.92, 852.13 482.37 C 852.98 481.81, 853.82 481.01, 853.93 479.91 C 854.04 478.81, 853.68 478.09, 852.68 476.87 C 851.68 475.66, 851.11 474.82, 848.93 473.84 C 846.76 472.86, 845.13 472.21, 841.79 471.96 C 838.46 471.72, 836.31 471.88, 832.26 472.61 C 828.21 473.34, 825.97 473.80, 821.55 475.61 C 817.12 477.42, 814.69 478.68, 810.15 481.67 C 805.61 484.66, 803.17 486.65, 798.86 490.56 C 794.55 494.48, 792.45 496.98, 788.61 501.26 C 784.78 505.55, 782.94 507.96, 779.69 511.99 C 776.44 516.03, 774.49 518.05, 772.35 521.45 C 770.21 524.86, 769.09 526.52, 768.98 529.02 C 768.87 531.51, 770.20 532.95, 771.80 533.92 C 773.39 534.89, 775.12 535.22, 776.95 533.87 C 778.78 532.52, 779.44 530.50, 780.95 527.16 C 782.46 523.81, 782.84 521.32, 784.51 517.14 C 786.17 512.95, 787.42 510.54, 789.27 506.23 C 791.13 501.91, 792.46 499.36, 793.79 495.55 C 795.11 491.75, 795.85 489.85, 795.89 487.20 C 795.93 484.55, 795.21 483.45, 793.98 482.29 C 792.75 481.13, 791.33 480.87, 789.74 481.40" style="stroke: black; fill: black;"/><path d="M 940.58,477.69 C 939.76 476.10, 938.46 474.64, 935.70 474.17 C 932.94 473.69, 930.88 474.28, 926.80 475.33 C 922.72 476.38, 920.11 477.21, 915.30 479.41 C 910.49 481.62, 907.86 483.18, 902.74 486.34 C 897.62 489.50, 894.51 491.34, 889.71 495.22 C 884.90 499.10, 882.58 501.52, 878.72 505.75 C 874.86 509.98, 873.00 512.10, 870.41 516.35 C 867.82 520.60, 866.32 522.83, 865.78 526.99 C 865.24 531.15, 865.50 533.79, 867.71 537.14 C 869.92 540.50, 872.18 541.81, 876.82 543.76 C 881.46 545.71, 884.50 546.17, 890.93 546.89 C 897.35 547.61, 901.35 547.73, 908.95 547.34 C 916.55 546.96, 921.56 546.11, 928.95 544.97 C 936.33 543.82, 940.35 542.99, 945.88 541.62 C 951.42 540.26, 954.71 539.61, 956.64 538.16 C 958.58 536.71, 957.95 534.61, 955.58 534.37 C 953.22 534.12, 950.30 535.79, 944.82 536.93 C 939.34 538.06, 935.42 538.97, 928.20 540.04 C 920.98 541.10, 916.04 542.02, 908.74 542.23 C 901.45 542.45, 897.55 542.06, 891.70 541.12 C 885.86 540.19, 883.09 539.16, 879.52 537.54 C 875.94 535.93, 875.15 534.95, 873.83 533.04 C 872.51 531.13, 872.48 530.70, 872.92 528.01 C 873.36 525.33, 873.97 523.30, 876.02 519.63 C 878.06 515.96, 879.66 513.66, 883.12 509.68 C 886.59 505.71, 888.77 503.35, 893.33 499.76 C 897.88 496.17, 900.94 494.42, 905.88 491.73 C 910.82 489.05, 913.46 487.79, 918.01 486.34 C 922.55 484.89, 925.07 484.94, 928.61 484.48 C 932.15 484.02, 933.47 484.50, 935.70 484.03 C 937.94 483.55, 938.81 483.38, 939.78 482.12 C 940.76 480.85, 941.40 479.28, 940.58 477.69" style="stroke: black; fill: black;"/><path d="M 1014.49,503.19 C 1015.74 501.88, 1016.09 500.24, 1015.66 498.58 C 1015.22 496.92, 1014.21 496.23, 1012.31 494.90 C 1010.40 493.57, 1009.02 492.28, 1006.13 491.95 C 1003.23 491.61, 1001.29 491.59, 997.82 493.22 C 994.36 494.86, 992.64 496.88, 988.81 500.13 C 984.98 503.39, 982.71 505.38, 978.67 509.48 C 974.62 513.58, 972.04 516.13, 968.58 520.65 C 965.12 525.18, 963.35 527.71, 961.38 532.11 C 959.42 536.52, 958.46 538.72, 958.77 542.69 C 959.08 546.67, 960.18 549.24, 962.93 551.99 C 965.68 554.73, 968.10 555.49, 972.51 556.41 C 976.92 557.34, 979.59 557.22, 984.98 556.59 C 990.36 555.96, 993.58 555.17, 999.42 553.28 C 1005.27 551.38, 1008.37 549.93, 1014.20 547.11 C 1020.03 544.30, 1023.35 542.76, 1028.57 539.22 C 1033.80 535.67, 1036.36 533.34, 1040.33 529.38 C 1044.31 525.43, 1046.01 523.41, 1048.46 519.43 C 1050.90 515.46, 1052.42 513.50, 1052.57 509.50 C 1052.72 505.51, 1051.70 502.52, 1049.19 499.45 C 1046.68 496.39, 1043.96 495.58, 1040.00 494.16 C 1036.03 492.75, 1033.68 492.84, 1029.36 492.37 C 1025.04 491.90, 1022.22 491.62, 1018.39 491.82 C 1014.56 492.02, 1012.74 492.34, 1010.20 493.38 C 1007.67 494.42, 1006.44 495.59, 1005.71 497.02 C 1004.98 498.46, 1005.34 499.59, 1006.54 500.57 C 1007.74 501.56, 1009.25 501.79, 1011.71 501.96 C 1014.17 502.12, 1015.45 501.52, 1018.82 501.39 C 1022.20 501.27, 1024.88 501.12, 1028.59 501.35 C 1032.29 501.57, 1034.46 501.76, 1037.34 502.52 C 1040.21 503.28, 1041.44 503.80, 1042.96 505.15 C 1044.47 506.50, 1044.99 507.08, 1044.94 509.26 C 1044.89 511.44, 1044.48 512.85, 1042.71 516.06 C 1040.94 519.27, 1039.55 521.58, 1036.11 525.31 C 1032.66 529.04, 1030.34 531.36, 1025.49 534.72 C 1020.64 538.09, 1017.41 539.58, 1011.85 542.13 C 1006.29 544.69, 1003.18 545.99, 997.69 547.49 C 992.19 549.00, 989.08 549.41, 984.37 549.66 C 979.67 549.91, 977.34 549.46, 974.16 548.75 C 970.98 548.03, 970.03 547.43, 968.47 546.11 C 966.90 544.79, 966.47 544.38, 966.33 542.14 C 966.18 539.90, 966.24 538.39, 967.74 534.89 C 969.23 531.40, 970.66 528.74, 973.80 524.66 C 976.95 520.59, 979.50 518.07, 983.47 514.51 C 987.45 510.94, 989.89 509.14, 993.69 506.84 C 997.48 504.54, 1000.07 504.13, 1002.45 503.00 C 1004.83 501.88, 1005.02 501.35, 1005.58 501.21 C 1006.15 501.08, 1005.16 501.77, 1005.25 502.34 C 1005.35 502.91, 1005.23 503.51, 1006.07 504.08 C 1006.90 504.64, 1007.74 505.33, 1009.43 505.15 C 1011.11 504.97, 1013.25 504.51, 1014.49 503.19" style="stroke: black; fill: black;"/></svg>