<svg xmlns="http://www.w3.org/2000/svg" id="canvas" viewBox="528.996 400.018 599.587 180.826"><path d="M 580.29,417.13 C 579.22 418.55, 579.17 420.59, 578.18 424.82 C 577.19 429.06, 576.90 431.89, 575.34 438.29 C 573.78 444.70, 572.73 448.94, 570.38 456.85 C 568.02 464.77, 566.54 469.26, 563.55 477.86 C 560.55 486.47, 558.60 491.16, 555.39 499.89 C 552.19 508.63, 550.45 513.28, 547.54 521.52 C 544.64 529.77, 543.19 533.97, 540.87 541.12 C 538.55 548.26, 537.55 551.70, 535.94 557.23 C 534.33 562.75, 533.58 565.19, 532.80 568.73 C 532.03 572.27, 531.88 573.14, 532.07 574.91 C 532.26 576.69, 533.07 577.10, 533.74 577.61 C 534.41 578.11, 535.17 577.69, 535.42 577.45 C 535.67 577.20, 535.06 576.52, 535.00 576.40 C 534.95 576.28, 534.87 577.06, 535.16 576.85 C 535.44 576.64, 535.93 576.78, 536.44 575.35 C 536.95 573.92, 537.09 573.14, 537.70 569.70 C 538.30 566.25, 538.28 563.67, 539.48 558.13 C 540.69 552.59, 541.60 549.15, 543.72 542.00 C 545.84 534.86, 547.26 530.65, 550.09 522.41 C 552.92 514.17, 554.64 509.52, 557.86 500.80 C 561.09 492.08, 563.06 487.40, 566.19 478.81 C 569.32 470.21, 570.91 465.73, 573.52 457.84 C 576.12 449.94, 577.37 445.73, 579.22 439.32 C 581.06 432.91, 581.86 430.13, 582.72 425.81 C 583.59 421.49, 584.01 419.46, 583.52 417.73 C 583.03 415.99, 581.36 415.71, 580.29 417.13" style="stroke: black; fill: black;"/><path d="M 588.05,410.34 C 587.09 411.23, 586.64 412.15, 586.38 414.56 C 586.13 416.98, 586.44 418.54, 586.78 422.40 C 587.11 426.26, 587.60 429.04, 588.07 433.89 C 588.54 438.73, 588.68 441.55, 589.14 446.64 C 589.60 451.74, 589.74 454.47, 590.36 459.36 C 590.98 464.26, 591.24 466.76, 592.23 471.12 C 593.23 475.48, 593.67 477.62, 595.34 481.17 C 597.02 484.73, 597.97 486.53, 600.62 488.90 C 603.27 491.27, 605.06 492.29, 608.60 493.00 C 612.15 493.71, 614.17 493.50, 618.34 492.43 C 622.51 491.37, 624.65 490.36, 629.46 487.68 C 634.26 485.00, 636.98 483.18, 642.37 479.03 C 647.77 474.87, 650.80 472.19, 656.45 466.89 C 662.10 461.59, 665.12 458.37, 670.61 452.52 C 676.09 446.68, 678.99 443.34, 683.87 437.67 C 688.75 431.99, 691.10 428.96, 695.01 424.15 C 698.93 419.34, 700.80 417.11, 703.45 413.62 C 706.09 410.13, 707.52 408.81, 708.22 406.72 C 708.92 404.63, 708.15 403.42, 706.96 403.17 C 705.76 402.92, 704.10 403.02, 702.25 405.46 C 700.39 407.91, 699.98 410.42, 697.68 415.39 C 695.37 420.35, 693.99 423.67, 690.72 430.30 C 687.44 436.93, 685.29 440.94, 681.30 448.53 C 677.31 456.13, 674.86 460.39, 670.77 468.25 C 666.68 476.12, 664.52 480.35, 660.87 487.85 C 657.21 495.35, 655.35 499.12, 652.49 505.76 C 649.62 512.41, 648.36 515.57, 646.55 521.06 C 644.74 526.55, 644.18 528.92, 643.44 533.20 C 642.70 537.47, 642.28 539.37, 642.86 542.44 C 643.45 545.51, 644.92 546.96, 646.38 548.54 C 647.83 550.12, 649.05 550.34, 650.13 550.36 C 651.20 550.38, 651.66 549.57, 651.75 548.65 C 651.84 547.74, 651.14 547.27, 650.58 545.78 C 650.01 544.29, 649.45 543.63, 648.93 541.22 C 648.41 538.81, 647.77 537.56, 647.99 533.74 C 648.21 529.92, 648.57 527.47, 650.04 522.12 C 651.51 516.76, 652.67 513.56, 655.34 506.96 C 658.02 500.35, 659.83 496.56, 663.42 489.09 C 667.01 481.61, 669.16 477.38, 673.28 469.57 C 677.40 461.75, 679.87 457.51, 684.03 450.01 C 688.20 442.52, 690.45 438.53, 694.11 432.10 C 697.77 425.67, 699.51 422.52, 702.32 417.85 C 705.13 413.19, 707.06 411.61, 708.16 408.79 C 709.27 405.96, 708.63 404.65, 707.85 403.71 C 707.07 402.78, 705.92 402.67, 704.29 404.11 C 702.65 405.54, 702.08 407.33, 699.66 410.90 C 697.23 414.46, 695.80 416.99, 692.16 421.93 C 688.51 426.87, 686.20 429.91, 681.43 435.59 C 676.66 441.28, 673.77 444.60, 668.32 450.36 C 662.87 456.13, 659.82 459.31, 654.17 464.42 C 648.52 469.52, 645.44 472.08, 640.06 475.90 C 634.69 479.72, 631.88 481.30, 627.29 483.51 C 622.70 485.71, 620.57 486.26, 617.09 486.92 C 613.61 487.59, 612.35 487.37, 609.89 486.83 C 607.42 486.28, 606.65 485.84, 604.77 484.20 C 602.90 482.56, 602.00 481.49, 600.50 478.62 C 599.00 475.76, 598.33 473.86, 597.27 469.88 C 596.21 465.90, 595.82 463.46, 595.21 458.74 C 594.59 454.02, 594.45 451.32, 594.19 446.28 C 593.93 441.25, 593.97 438.41, 593.90 433.56 C 593.83 428.70, 593.92 425.89, 593.83 422.01 C 593.74 418.13, 593.98 416.54, 593.45 414.16 C 592.92 411.78, 592.27 410.88, 591.19 410.12 C 590.11 409.35, 589.02 409.45, 588.05 410.34" style="stroke: black; fill: black;"/><path d="M 727.93,514.53 C 728.22 515.69, 728.80 516.51, 730.56 517.40 C 732.31 518.30, 733.68 519.14, 736.71 518.99 C 739.74 518.83, 741.76 517.94, 745.70 516.64 C 749.64 515.34, 751.98 514.38, 756.43 512.50 C 760.87 510.62, 763.46 509.41, 767.93 507.25 C 772.40 505.09, 774.84 503.88, 778.78 501.70 C 782.72 499.52, 784.71 498.63, 787.63 496.36 C 790.55 494.08, 792.10 492.92, 793.37 490.33 C 794.65 487.74, 794.81 485.94, 794.00 483.41 C 793.19 480.87, 792.16 479.06, 789.33 477.66 C 786.51 476.25, 784.40 476.15, 779.89 476.37 C 775.38 476.59, 772.58 477.10, 766.78 478.75 C 760.98 480.41, 757.48 481.67, 750.89 484.64 C 744.30 487.60, 740.45 489.63, 733.84 493.56 C 727.22 497.48, 723.57 499.88, 717.82 504.25 C 712.07 508.63, 709.26 511.05, 705.08 515.44 C 700.90 519.83, 699.05 522.00, 696.92 526.19 C 694.79 530.39, 694.12 532.58, 694.44 536.39 C 694.76 540.21, 695.78 542.37, 698.53 545.28 C 701.27 548.18, 703.51 549.29, 708.17 550.92 C 712.84 552.54, 715.80 552.92, 721.86 553.41 C 727.91 553.91, 731.38 553.85, 738.44 553.39 C 745.51 552.93, 750.19 552.14, 757.17 551.12 C 764.16 550.10, 767.93 549.42, 773.35 548.29 C 778.78 547.16, 782.25 546.61, 784.30 545.46 C 786.36 544.31, 785.98 542.71, 783.65 542.56 C 781.32 542.40, 778.06 543.73, 772.66 544.70 C 767.25 545.67, 763.52 546.42, 756.64 547.39 C 749.75 548.37, 745.09 549.22, 738.22 549.57 C 731.35 549.91, 727.95 549.80, 722.28 549.13 C 716.62 548.45, 713.87 547.71, 709.89 546.19 C 705.90 544.68, 704.44 543.60, 702.35 541.55 C 700.26 539.49, 699.75 538.60, 699.44 535.91 C 699.14 533.22, 699.15 531.69, 700.82 528.10 C 702.50 524.51, 704.00 522.20, 707.81 517.97 C 711.62 513.74, 714.34 511.24, 719.89 506.95 C 725.44 502.65, 729.06 500.26, 735.56 496.49 C 742.06 492.73, 745.92 490.76, 752.38 488.11 C 758.85 485.47, 762.38 484.40, 767.89 483.27 C 773.41 482.13, 776.17 482.28, 779.94 482.43 C 783.70 482.58, 784.84 483.50, 786.73 484.02 C 788.62 484.54, 789.08 484.40, 789.38 485.03 C 789.69 485.66, 789.37 485.89, 788.25 487.18 C 787.14 488.47, 786.23 489.54, 783.79 491.50 C 781.35 493.46, 779.69 494.80, 776.07 496.99 C 772.44 499.18, 770.00 500.44, 765.66 502.46 C 761.32 504.48, 758.70 505.63, 754.37 507.08 C 750.04 508.53, 747.68 509.18, 744.02 509.72 C 740.37 510.26, 738.58 509.58, 736.10 509.79 C 733.63 510.00, 733.08 510.41, 731.67 510.77 C 730.27 511.13, 729.83 510.84, 729.08 511.60 C 728.33 512.35, 727.63 513.36, 727.93 514.53" style="stroke: black; fill: black;"/><path d="M 873.42,414.70 C 872.14 415.14, 871.20 415.67, 869.83 418.10 C 868.46 420.52, 868.30 422.42, 866.55 426.83 C 864.80 431.25, 863.64 434.30, 861.07 440.17 C 858.51 446.05, 856.94 449.56, 853.72 456.21 C 850.49 462.85, 848.54 466.56, 844.94 473.39 C 841.33 480.23, 839.26 483.84, 835.70 490.37 C 832.14 496.90, 830.25 500.25, 827.13 506.05 C 824.01 511.85, 822.48 514.71, 820.10 519.38 C 817.72 524.04, 816.40 526.02, 815.23 529.38 C 814.06 532.74, 813.75 534.22, 814.25 536.20 C 814.76 538.18, 815.86 539.07, 817.77 539.29 C 819.68 539.52, 821.43 539.32, 823.81 537.32 C 826.19 535.33, 826.73 533.01, 829.65 529.32 C 832.57 525.62, 834.38 523.19, 838.42 518.86 C 842.47 514.53, 845.07 511.97, 849.86 507.67 C 854.65 503.37, 857.44 500.95, 862.38 497.35 C 867.33 493.75, 870.13 492.02, 874.58 489.65 C 879.02 487.29, 881.37 486.47, 884.61 485.50 C 887.85 484.54, 889.10 484.58, 890.78 484.83 C 892.46 485.09, 892.64 485.33, 893.01 486.78 C 893.38 488.23, 893.11 489.24, 892.63 492.09 C 892.14 494.94, 891.81 497.09, 890.57 501.03 C 889.34 504.97, 888.32 507.47, 886.46 511.79 C 884.60 516.10, 883.25 518.53, 881.28 522.59 C 879.31 526.66, 878.08 528.69, 876.61 532.12 C 875.13 535.54, 874.34 537.14, 873.92 539.71 C 873.50 542.28, 874.06 543.47, 874.52 544.98 C 874.98 546.48, 875.53 546.87, 876.22 547.26 C 876.92 547.64, 877.48 547.34, 878.01 546.90 C 878.54 546.45, 878.40 546.15, 878.88 545.02 C 879.37 543.89, 879.77 543.38, 880.46 541.25 C 881.15 539.13, 881.18 537.65, 882.34 534.38 C 883.51 531.12, 884.44 529.01, 886.29 524.94 C 888.14 520.88, 889.54 518.45, 891.58 514.08 C 893.61 509.70, 894.87 507.28, 896.45 503.05 C 898.03 498.82, 899.12 496.67, 899.46 492.95 C 899.79 489.23, 899.63 487.11, 898.13 484.45 C 896.62 481.78, 894.93 480.40, 891.92 479.62 C 888.91 478.85, 886.97 479.32, 883.08 480.57 C 879.19 481.83, 877.07 483.17, 872.46 485.89 C 867.85 488.60, 865.09 490.42, 860.04 494.16 C 854.99 497.91, 852.18 500.36, 847.20 504.63 C 842.21 508.91, 839.54 511.43, 835.11 515.54 C 830.69 519.65, 828.48 521.90, 825.09 525.18 C 821.69 528.46, 819.82 529.67, 818.15 531.92 C 816.47 534.16, 816.71 535.49, 816.72 536.41 C 816.73 537.33, 817.48 537.54, 818.22 536.51 C 818.96 535.47, 819.31 534.31, 820.43 531.23 C 821.56 528.15, 821.89 525.83, 823.84 521.11 C 825.80 516.39, 827.28 513.49, 830.21 507.65 C 833.15 501.81, 835.01 498.44, 838.52 491.90 C 842.03 485.35, 844.11 481.73, 847.78 474.91 C 851.46 468.10, 853.45 464.39, 856.90 457.82 C 860.35 451.25, 862.07 447.78, 865.02 442.05 C 867.98 436.33, 869.46 433.42, 871.68 429.19 C 873.90 424.97, 875.23 423.58, 876.13 420.92 C 877.03 418.27, 876.74 417.16, 876.20 415.91 C 875.65 414.67, 874.69 414.27, 873.42 414.70" style="stroke: black; fill: black;"/><path d="M 950.01,484.81 C 948.63 485.29, 947.63 486.21, 946.10 488.56 C 944.57 490.91, 944.12 492.78, 942.36 496.55 C 940.61 500.33, 939.33 503.00, 937.35 507.43 C 935.36 511.87, 934.11 514.37, 932.44 518.71 C 930.77 523.06, 929.83 525.23, 928.97 529.15 C 928.11 533.07, 927.54 535.06, 928.14 538.31 C 928.73 541.57, 929.73 543.25, 931.97 545.45 C 934.20 547.65, 935.88 548.73, 939.31 549.31 C 942.74 549.88, 944.86 549.39, 949.11 548.34 C 953.37 547.29, 955.76 546.28, 960.59 544.08 C 965.43 541.87, 968.10 540.44, 973.27 537.33 C 978.43 534.22, 981.26 532.35, 986.42 528.55 C 991.58 524.74, 994.32 522.44, 999.06 518.30 C 1003.79 514.16, 1006.16 511.76, 1010.09 507.85 C 1014.02 503.94, 1015.98 501.93, 1018.70 498.74 C 1021.42 495.54, 1022.89 494.21, 1023.69 491.89 C 1024.49 489.57, 1024.00 487.99, 1022.70 487.14 C 1021.40 486.29, 1019.39 485.97, 1017.20 487.64 C 1015.00 489.32, 1014.08 491.74, 1011.72 495.54 C 1009.35 499.34, 1007.94 501.94, 1005.37 506.63 C 1002.80 511.32, 1001.12 514.20, 998.86 518.98 C 996.59 523.75, 995.48 526.28, 994.05 530.52 C 992.62 534.76, 991.86 536.66, 991.70 540.20 C 991.53 543.73, 991.82 545.50, 993.23 548.19 C 994.64 550.88, 995.98 552.25, 998.73 553.65 C 1001.48 555.04, 1003.39 555.33, 1006.98 555.16 C 1010.58 554.99, 1012.61 554.19, 1016.70 552.78 C 1020.80 551.37, 1023.38 550.07, 1027.45 548.11 C 1031.52 546.16, 1033.87 544.96, 1037.05 543.01 C 1040.23 541.06, 1041.59 540.15, 1043.35 538.36 C 1045.12 536.57, 1045.70 535.31, 1045.90 534.08 C 1046.10 532.84, 1045.53 532.29, 1044.34 532.20 C 1043.16 532.12, 1042.11 532.64, 1039.98 533.66 C 1037.84 534.68, 1036.71 535.55, 1033.66 537.30 C 1030.61 539.06, 1028.51 540.59, 1024.71 542.44 C 1020.92 544.28, 1018.31 545.43, 1014.67 546.53 C 1011.03 547.63, 1009.19 547.70, 1006.52 547.93 C 1003.84 548.17, 1002.91 548.18, 1001.30 547.69 C 999.68 547.21, 999.17 546.95, 998.45 545.51 C 997.74 544.07, 997.61 543.16, 997.73 540.48 C 997.85 537.79, 997.94 535.97, 999.07 532.11 C 1000.20 528.24, 1001.16 525.68, 1003.38 521.16 C 1005.60 516.63, 1007.38 513.84, 1010.17 509.47 C 1012.96 505.10, 1014.83 502.78, 1017.34 499.30 C 1019.84 495.83, 1021.69 494.38, 1022.70 492.11 C 1023.71 489.83, 1023.09 488.55, 1022.36 487.94 C 1021.64 487.33, 1020.60 487.55, 1019.05 489.05 C 1017.51 490.55, 1017.04 492.29, 1014.64 495.46 C 1012.23 498.63, 1010.65 500.92, 1007.02 504.90 C 1003.39 508.89, 1001.05 511.28, 996.47 515.37 C 991.88 519.46, 989.17 521.71, 984.10 525.36 C 979.03 529.00, 976.20 530.78, 971.11 533.59 C 966.02 536.39, 963.29 537.64, 958.64 539.40 C 953.99 541.15, 951.54 541.77, 947.87 542.37 C 944.21 542.97, 942.66 542.64, 940.31 542.39 C 937.95 542.13, 937.26 542.12, 936.11 541.09 C 934.95 540.07, 934.82 539.43, 934.55 537.28 C 934.27 535.13, 934.11 533.64, 934.73 530.33 C 935.34 527.02, 936.03 524.80, 937.62 520.72 C 939.21 516.65, 940.54 514.20, 942.67 509.96 C 944.80 505.73, 946.26 503.18, 948.27 499.55 C 950.28 495.92, 951.75 494.49, 952.70 491.82 C 953.65 489.14, 953.56 487.56, 953.02 486.16 C 952.48 484.76, 951.40 484.33, 950.01 484.81" style="stroke: black; fill: black;"/><path d="M 1122.13,413.74 C 1120.92 414.19, 1120.20 414.63, 1118.83 417.03 C 1117.46 419.42, 1117.26 421.30, 1115.27 425.73 C 1113.27 430.15, 1111.99 433.18, 1108.85 439.14 C 1105.70 445.09, 1103.56 448.70, 1099.52 455.52 C 1095.49 462.33, 1093.02 466.21, 1088.67 473.21 C 1084.33 480.22, 1081.79 483.87, 1077.79 490.53 C 1073.79 497.19, 1071.77 500.60, 1068.66 506.51 C 1065.56 512.42, 1064.21 515.14, 1062.26 520.08 C 1060.31 525.02, 1059.60 527.14, 1058.91 531.22 C 1058.21 535.29, 1058.03 537.22, 1058.78 540.44 C 1059.52 543.66, 1060.87 545.17, 1062.64 547.33 C 1064.42 549.49, 1065.77 550.27, 1067.63 551.25 C 1069.49 552.23, 1070.52 552.23, 1071.96 552.22 C 1073.39 552.21, 1074.17 551.91, 1074.81 551.21 C 1075.46 550.52, 1075.43 549.59, 1075.18 548.76 C 1074.93 547.93, 1074.35 547.78, 1073.56 547.08 C 1072.78 546.38, 1072.43 546.11, 1071.27 545.25 C 1070.12 544.40, 1069.07 544.10, 1067.77 542.80 C 1066.47 541.49, 1065.59 540.91, 1064.78 538.72 C 1063.98 536.52, 1063.50 535.27, 1063.74 531.81 C 1063.97 528.36, 1064.38 526.18, 1065.96 521.43 C 1067.54 516.67, 1068.75 513.90, 1071.64 508.03 C 1074.54 502.17, 1076.50 498.74, 1080.43 492.10 C 1084.35 485.46, 1086.87 481.80, 1091.27 474.84 C 1095.67 467.88, 1098.17 464.01, 1102.41 457.28 C 1106.65 450.55, 1108.92 447.00, 1112.47 441.20 C 1116.01 435.39, 1117.60 432.51, 1120.11 428.25 C 1122.63 423.98, 1124.09 422.57, 1125.05 419.87 C 1126.01 417.18, 1125.49 416.01, 1124.91 414.79 C 1124.32 413.56, 1123.35 413.29, 1122.13 413.74" style="stroke: black; fill: black;"/></svg>