<svg xmlns="http://www.w3.org/2000/svg" id="canvas" viewBox="470.323 342.903 823.371 348.619"><style>path { stroke: black; stroke-width: 6; stroke-linejoin: round; stroke-linecap: round; }</style><path d="M 507.29,386.15 C 506.48 388.50, 507.29 391.33, 506.85 398.08 C 506.42 404.82, 506.15 409.29, 505.12 419.90 C 504.09 430.51, 503.39 437.75, 501.70 451.13 C 500.01 464.52, 498.79 472.45, 496.65 486.83 C 494.51 501.22, 493.12 509.28, 490.99 523.06 C 488.87 536.83, 487.78 544.01, 486.03 555.70 C 484.28 567.39, 483.47 573.05, 482.23 581.50 C 481.00 589.95, 480.43 593.09, 479.86 597.95 C 479.29 602.82, 479.26 603.84, 479.38 605.82 C 479.49 607.81, 480.04 607.45, 480.46 607.87 C 480.87 608.29, 481.00 608.29, 481.47 607.94 C 481.94 607.58, 482.38 608.02, 482.80 606.10 C 483.23 604.18, 483.20 603.19, 483.62 598.34 C 484.04 593.48, 483.98 590.30, 484.90 581.83 C 485.81 573.37, 486.57 567.71, 488.18 556.01 C 489.79 544.32, 490.85 537.13, 492.95 523.35 C 495.04 509.58, 496.44 501.52, 498.66 487.14 C 500.87 472.75, 502.16 464.83, 504.02 451.44 C 505.87 438.05, 506.71 430.83, 507.94 420.20 C 509.18 409.58, 509.59 405.10, 510.18 398.33 C 510.77 391.55, 511.47 388.76, 510.89 386.33 C 510.31 383.89, 508.09 383.80, 507.29 386.15" style="stroke: black; fill: black;"/><path d="M 488.09,406.15 C 487.46 407.54, 487.13 408.78, 488.13 411.90 C 489.13 415.03, 490.39 417.47, 493.11 421.76 C 495.83 426.05, 497.51 429.18, 501.72 433.34 C 505.92 437.50, 508.50 440.12, 514.15 442.56 C 519.79 444.99, 523.08 445.80, 529.96 445.51 C 536.84 445.21, 540.69 444.27, 548.54 441.09 C 556.39 437.90, 560.62 435.33, 569.21 429.57 C 577.80 423.82, 582.60 419.81, 591.48 412.32 C 600.37 404.83, 605.32 399.96, 613.63 392.11 C 621.95 384.26, 626.26 379.56, 633.05 373.07 C 639.85 366.58, 643.33 363.34, 647.60 359.67 C 651.86 356.00, 653.14 354.87, 654.40 354.72 C 655.66 354.58, 654.68 354.85, 653.89 358.94 C 653.09 363.02, 652.47 366.88, 650.43 375.15 C 648.40 383.42, 646.69 389.11, 643.70 400.29 C 640.72 411.47, 638.68 418.43, 635.50 431.05 C 632.33 443.66, 630.49 450.87, 627.83 463.36 C 625.18 475.85, 623.84 482.40, 622.23 493.48 C 620.61 504.57, 619.99 509.98, 619.76 518.78 C 619.53 527.59, 619.70 531.35, 621.09 537.50 C 622.49 543.65, 623.45 546.28, 626.75 549.55 C 630.04 552.81, 632.69 553.77, 637.57 553.84 C 642.46 553.91, 645.35 552.81, 651.17 549.90 C 656.98 546.98, 660.14 544.51, 666.64 539.29 C 673.13 534.06, 676.78 530.39, 683.65 523.76 C 690.51 517.13, 694.33 512.84, 700.98 506.13 C 707.63 499.42, 711.18 495.54, 716.89 490.22 C 722.61 484.91, 725.71 482.20, 729.54 479.54 C 733.38 476.89, 734.49 476.59, 736.06 476.94 C 737.64 477.29, 737.12 478.14, 737.42 481.30 C 737.71 484.46, 737.69 487.45, 737.54 492.74 C 737.40 498.04, 736.99 501.91, 736.69 507.79 C 736.39 513.66, 736.03 517.35, 736.06 522.12 C 736.08 526.88, 736.11 528.86, 736.81 531.62 C 737.51 534.37, 738.57 535.12, 739.55 535.88 C 740.53 536.64, 741.11 536.41, 741.73 535.42 C 742.34 534.42, 742.58 533.58, 742.62 530.91 C 742.65 528.24, 741.97 526.63, 741.91 522.06 C 741.85 517.49, 742.04 513.89, 742.30 508.05 C 742.56 502.21, 743.13 498.44, 743.21 492.86 C 743.30 487.29, 743.95 484.15, 742.71 480.16 C 741.48 476.18, 740.14 473.73, 737.05 472.93 C 733.96 472.14, 731.77 473.21, 727.27 476.18 C 722.78 479.15, 720.26 482.22, 714.57 487.78 C 708.87 493.34, 705.42 497.24, 698.80 503.98 C 692.18 510.72, 688.33 514.97, 681.46 521.46 C 674.58 527.95, 670.83 531.51, 664.40 536.44 C 657.97 541.37, 654.68 543.54, 649.31 546.12 C 643.94 548.71, 641.50 549.28, 637.56 549.38 C 633.61 549.48, 632.24 549.16, 629.59 546.63 C 626.95 544.10, 625.77 542.28, 624.34 536.72 C 622.91 531.15, 622.42 527.41, 622.45 518.82 C 622.49 510.24, 623.01 504.81, 624.52 493.80 C 626.02 482.80, 627.33 476.25, 629.98 463.82 C 632.63 451.38, 634.47 444.18, 637.76 431.63 C 641.05 419.07, 643.20 412.16, 646.43 401.05 C 649.66 389.93, 651.58 384.39, 653.89 376.06 C 656.20 367.72, 657.83 364.19, 657.98 359.37 C 658.13 354.56, 657.16 352.46, 654.64 351.98 C 652.11 351.51, 650.07 353.18, 645.36 356.99 C 640.65 360.81, 637.78 364.39, 631.09 371.05 C 624.40 377.71, 620.15 382.43, 611.90 390.29 C 603.66 398.16, 598.70 402.99, 589.85 410.38 C 581.00 417.76, 576.17 421.69, 567.67 427.23 C 559.17 432.77, 554.91 435.18, 547.35 438.08 C 539.79 440.98, 536.11 441.64, 529.85 441.73 C 523.58 441.82, 520.85 440.95, 516.01 438.53 C 511.18 436.11, 509.13 433.63, 505.68 429.62 C 502.23 425.62, 500.91 422.62, 498.76 418.49 C 496.61 414.37, 496.42 411.70, 494.93 408.99 C 493.44 406.29, 492.67 405.52, 491.30 404.95 C 489.94 404.38, 488.73 404.76, 488.09 406.15" style="stroke: black; fill: black;"/><path d="M 765.94,407.41 C 765.96 408.23, 764.10 409.74, 763.32 410.18 C 762.55 410.61, 761.26 410.85, 762.07 409.61 C 762.87 408.37, 766.59 405.25, 767.35 403.97 C 768.11 402.68, 766.70 402.77, 765.87 403.19 C 765.04 403.61, 763.19 405.22, 763.20 406.06 C 763.22 406.91, 765.91 406.59, 765.94 407.41" style="stroke: black; fill: black;"/><path d="M 872.71,494.20 C 872.70 492.58, 872.30 490.75, 870.11 488.88 C 867.92 487.02, 865.89 485.93, 861.77 484.86 C 857.65 483.78, 854.80 483.11, 849.51 483.51 C 844.21 483.90, 840.95 484.65, 835.29 486.84 C 829.63 489.03, 826.33 490.85, 821.19 494.46 C 816.04 498.06, 813.16 500.59, 809.56 504.87 C 805.96 509.15, 804.06 511.71, 803.19 515.87 C 802.32 520.03, 802.79 523.04, 805.20 525.66 C 807.61 528.28, 810.47 528.92, 815.25 528.95 C 820.03 528.98, 823.11 527.89, 829.10 525.80 C 835.08 523.70, 838.72 521.78, 845.17 518.46 C 851.61 515.15, 855.33 512.71, 861.32 509.22 C 867.31 505.73, 870.47 503.51, 875.12 501.01 C 879.77 498.52, 882.02 497.58, 884.56 496.76 C 887.10 495.94, 886.84 495.47, 887.81 496.92 C 888.78 498.37, 888.98 499.51, 889.41 504.02 C 889.83 508.53, 890.00 512.01, 889.94 519.47 C 889.88 526.93, 889.67 531.75, 889.11 541.31 C 888.55 550.86, 888.21 556.55, 887.13 567.25 C 886.06 577.95, 885.49 584.02, 883.75 594.81 C 882.01 605.59, 881.02 611.30, 878.45 621.18 C 875.89 631.06, 874.37 636.01, 870.92 644.20 C 867.47 652.38, 865.42 656.25, 861.19 662.09 C 856.97 667.93, 854.50 670.21, 849.80 673.40 C 845.09 676.59, 842.47 677.43, 837.66 678.04 C 832.85 678.65, 830.27 678.29, 825.75 676.45 C 821.23 674.61, 818.73 672.94, 815.04 668.84 C 811.36 664.74, 809.36 661.96, 807.33 655.94 C 805.30 649.93, 804.55 646.22, 804.89 638.78 C 805.23 631.34, 806.03 626.98, 809.04 618.75 C 812.05 610.52, 814.39 605.98, 819.95 597.64 C 825.50 589.30, 829.27 584.92, 836.83 577.06 C 844.38 569.20, 849.02 565.31, 857.73 558.35 C 866.45 551.40, 871.39 548.10, 880.41 542.28 C 889.44 536.46, 894.31 533.88, 902.87 529.24 C 911.44 524.61, 915.76 522.65, 923.24 519.09 C 930.72 515.53, 934.26 514.02, 940.28 511.44 C 946.30 508.86, 948.95 507.89, 953.34 506.19 C 957.73 504.48, 960.01 504.00, 962.21 502.91 C 964.41 501.82, 964.40 500.60, 964.33 500.74 C 964.27 500.88, 962.67 501.24, 961.89 503.62 C 961.11 506.00, 960.97 508.38, 960.45 512.63 C 959.93 516.88, 959.30 520.02, 959.29 524.87 C 959.27 529.73, 959.10 532.65, 960.37 536.91 C 961.64 541.16, 962.66 543.59, 965.63 546.14 C 968.59 548.70, 970.94 549.37, 975.18 549.69 C 979.42 550.01, 981.95 549.39, 986.83 547.75 C 991.71 546.11, 994.50 544.75, 999.58 541.50 C 1004.66 538.24, 1007.36 535.80, 1012.24 531.47 C 1017.12 527.14, 1019.75 524.30, 1024.00 519.84 C 1028.25 515.38, 1030.61 512.57, 1033.50 509.16 C 1036.38 505.75, 1037.59 504.14, 1038.44 502.78 C 1039.29 501.42, 1038.15 501.24, 1037.74 502.36 C 1037.34 503.49, 1036.36 505.05, 1036.42 508.40 C 1036.48 511.75, 1036.78 514.69, 1038.03 519.11 C 1039.28 523.53, 1040.15 526.48, 1042.66 530.50 C 1045.17 534.53, 1046.75 536.62, 1050.59 539.24 C 1054.43 541.86, 1056.86 542.82, 1061.85 543.59 C 1066.84 544.37, 1069.80 544.27, 1075.53 543.10 C 1081.26 541.94, 1084.52 540.76, 1090.50 537.76 C 1096.48 534.76, 1099.78 532.57, 1105.42 528.10 C 1111.06 523.62, 1114.04 520.66, 1118.70 515.37 C 1123.35 510.08, 1125.66 506.86, 1128.68 501.63 C 1131.70 496.40, 1133.19 493.63, 1133.79 489.24 C 1134.40 484.85, 1133.94 482.15, 1131.68 479.68 C 1129.43 477.20, 1126.57 476.34, 1122.53 476.86 C 1118.49 477.38, 1115.79 479.00, 1111.49 482.28 C 1107.19 485.56, 1104.63 488.20, 1101.04 493.26 C 1097.46 498.33, 1095.45 501.66, 1093.57 507.62 C 1091.68 513.58, 1090.91 517.25, 1091.63 523.07 C 1092.35 528.89, 1093.50 532.20, 1097.18 536.72 C 1100.85 541.25, 1103.69 543.32, 1109.99 545.69 C 1116.28 548.06, 1120.42 548.73, 1128.65 548.57 C 1136.89 548.41, 1141.85 547.63, 1151.18 544.89 C 1160.50 542.16, 1165.55 540.08, 1175.26 534.90 C 1184.97 529.72, 1190.25 526.36, 1199.72 518.97 C 1209.18 511.59, 1214.26 506.94, 1222.61 497.99 C 1230.96 489.05, 1234.89 483.79, 1241.46 474.25 C 1248.02 464.71, 1251.00 459.37, 1255.44 450.29 C 1259.89 441.21, 1261.63 436.50, 1263.70 428.85 C 1265.76 421.19, 1266.23 417.63, 1265.78 412.01 C 1265.32 406.39, 1264.53 403.59, 1261.43 400.76 C 1258.34 397.94, 1255.37 397.12, 1250.31 397.87 C 1245.25 398.63, 1242.01 400.18, 1236.14 404.53 C 1230.26 408.88, 1226.76 412.15, 1220.93 419.62 C 1215.10 427.10, 1211.71 432.14, 1206.99 441.92 C 1202.26 451.71, 1199.84 457.78, 1197.31 468.54 C 1194.78 479.29, 1193.98 485.32, 1194.33 495.69 C 1194.68 506.05, 1195.69 511.39, 1199.05 520.35 C 1202.41 529.31, 1205.16 533.52, 1211.13 540.49 C 1217.10 547.47, 1221.13 550.35, 1228.90 555.22 C 1236.67 560.08, 1241.91 561.86, 1249.98 564.82 C 1258.05 567.78, 1262.74 568.65, 1269.25 570.02 C 1275.76 571.40, 1279.78 572.01, 1282.51 571.69 C 1285.25 571.38, 1285.44 569.42, 1282.92 568.44 C 1280.40 567.47, 1276.30 568.13, 1269.92 566.81 C 1263.55 565.48, 1258.96 564.64, 1251.06 561.83 C 1243.15 559.03, 1237.98 557.41, 1230.40 552.79 C 1222.82 548.17, 1218.95 545.41, 1213.16 538.74 C 1207.37 532.07, 1204.72 528.07, 1201.46 519.45 C 1198.19 510.82, 1197.17 505.67, 1196.84 495.60 C 1196.50 485.54, 1197.26 479.62, 1199.78 469.13 C 1202.31 458.63, 1204.73 452.64, 1209.47 443.14 C 1214.21 433.65, 1217.68 428.73, 1223.47 421.65 C 1229.27 414.57, 1232.93 411.60, 1238.45 407.73 C 1243.96 403.85, 1247.03 403.03, 1251.04 402.28 C 1255.05 401.53, 1256.28 401.98, 1258.49 403.99 C 1260.70 406.00, 1261.62 407.51, 1262.08 412.33 C 1262.53 417.16, 1262.57 420.73, 1260.79 428.10 C 1259.01 435.47, 1257.41 440.23, 1253.17 449.20 C 1248.92 458.17, 1246.00 463.50, 1239.56 472.95 C 1233.12 482.40, 1229.22 487.62, 1220.96 496.46 C 1212.71 505.29, 1207.66 509.89, 1198.29 517.13 C 1188.91 524.37, 1183.65 527.65, 1174.07 532.64 C 1164.49 537.63, 1159.46 539.57, 1150.37 542.07 C 1141.28 544.57, 1136.42 545.16, 1128.62 545.16 C 1120.82 545.16, 1117.00 544.29, 1111.37 542.08 C 1105.75 539.86, 1103.54 537.99, 1100.47 534.09 C 1097.41 530.19, 1096.54 527.57, 1096.05 522.57 C 1095.56 517.57, 1096.18 514.34, 1098.01 509.09 C 1099.84 503.84, 1101.83 500.76, 1105.22 496.34 C 1108.62 491.91, 1111.29 489.65, 1114.98 486.97 C 1118.68 484.28, 1121.13 483.69, 1123.71 482.91 C 1126.30 482.14, 1126.92 482.00, 1127.90 483.10 C 1128.89 484.20, 1129.25 485.14, 1128.62 488.41 C 1127.99 491.69, 1127.36 494.59, 1124.77 499.45 C 1122.17 504.31, 1120.01 507.62, 1115.64 512.72 C 1111.27 517.81, 1108.33 520.70, 1102.93 524.93 C 1097.52 529.16, 1094.26 531.17, 1088.60 533.86 C 1082.94 536.54, 1079.80 537.46, 1074.63 538.36 C 1069.45 539.25, 1066.86 539.12, 1062.73 538.36 C 1058.60 537.60, 1056.84 536.76, 1053.96 534.55 C 1051.08 532.34, 1050.01 530.77, 1048.34 527.32 C 1046.67 523.87, 1046.37 521.29, 1045.60 517.30 C 1044.83 513.31, 1045.30 510.72, 1044.50 507.36 C 1043.69 504.00, 1043.35 502.21, 1041.58 500.50 C 1039.80 498.80, 1038.09 497.82, 1035.62 498.83 C 1033.15 499.84, 1032.24 501.98, 1029.22 505.54 C 1026.21 509.11, 1024.54 512.15, 1020.54 516.65 C 1016.54 521.14, 1013.93 523.92, 1009.22 528.04 C 1004.50 532.15, 1001.77 534.38, 996.95 537.24 C 992.13 540.11, 989.39 541.09, 985.12 542.35 C 980.85 543.61, 978.67 543.73, 975.61 543.54 C 972.56 543.34, 971.64 543.04, 969.85 541.38 C 968.07 539.73, 967.39 538.50, 966.69 535.25 C 965.99 532.00, 966.04 529.41, 966.34 525.12 C 966.64 520.82, 967.49 517.93, 968.19 513.76 C 968.89 509.59, 970.19 507.38, 969.85 504.26 C 969.51 501.14, 968.45 499.60, 966.51 498.16 C 964.56 496.72, 963.15 496.29, 960.13 497.05 C 957.11 497.82, 955.68 499.74, 951.42 501.97 C 947.15 504.21, 944.70 505.34, 938.81 508.23 C 932.91 511.13, 929.38 512.70, 921.95 516.45 C 914.51 520.19, 910.19 522.20, 901.62 526.96 C 893.05 531.72, 888.16 534.33, 879.08 540.23 C 870.01 546.13, 865.04 549.44, 856.23 556.46 C 847.41 563.48, 842.72 567.38, 835.02 575.31 C 827.31 583.24, 823.45 587.64, 817.68 596.11 C 811.92 604.59, 809.43 609.19, 806.18 617.68 C 802.93 626.18, 801.95 630.69, 801.43 638.59 C 800.91 646.48, 801.52 650.54, 803.60 657.16 C 805.68 663.78, 807.72 667.02, 811.83 671.69 C 815.93 676.36, 818.84 678.43, 824.12 680.51 C 829.40 682.59, 832.67 682.93, 838.22 682.11 C 843.77 681.28, 846.76 680.03, 851.87 676.39 C 856.98 672.75, 859.44 670.13, 863.76 663.91 C 868.08 657.68, 870.04 653.67, 873.47 645.25 C 876.91 636.84, 878.37 631.83, 880.93 621.82 C 883.49 611.81, 884.47 606.07, 886.25 595.21 C 888.03 584.35, 888.62 578.27, 889.84 567.54 C 891.05 556.80, 891.47 551.13, 892.32 541.54 C 893.16 531.96, 893.62 527.20, 894.05 519.60 C 894.48 512.00, 894.95 508.72, 894.47 503.55 C 893.99 498.37, 893.89 496.13, 891.66 493.73 C 889.44 491.33, 887.12 490.91, 883.36 491.55 C 879.59 492.19, 877.67 494.12, 872.84 496.93 C 868.00 499.73, 865.11 502.06, 859.18 505.58 C 853.25 509.10, 849.53 511.45, 843.20 514.55 C 836.87 517.65, 833.13 519.31, 827.52 521.08 C 821.92 522.85, 818.84 523.24, 815.17 523.38 C 811.51 523.53, 810.50 523.03, 809.19 521.80 C 807.88 520.57, 807.76 519.97, 808.63 517.24 C 809.49 514.51, 810.45 511.91, 813.51 508.14 C 816.58 504.38, 819.26 501.71, 823.96 498.41 C 828.67 495.10, 831.89 493.39, 837.04 491.61 C 842.19 489.84, 845.21 489.46, 849.70 489.55 C 854.19 489.63, 856.31 490.80, 859.49 492.03 C 862.67 493.27, 863.46 494.74, 865.59 495.73 C 867.73 496.71, 868.76 497.27, 870.19 496.97 C 871.61 496.66, 872.73 495.81, 872.71 494.20" style="stroke: black; fill: black;"/></svg>