<svg xmlns="http://www.w3.org/2000/svg" id="canvas" viewBox="587.478 410.165 394.974 165.412"><path d="M 640.78,437.66 C 639.29 438.80, 638.95 440.63, 637.69 444.53 C 636.42 448.43, 636.16 451.35, 634.47 457.16 C 632.77 462.97, 631.47 466.70, 629.22 473.58 C 626.96 480.45, 625.95 484.27, 623.20 491.54 C 620.46 498.82, 618.67 502.75, 615.50 509.95 C 612.33 517.15, 610.29 520.85, 607.33 527.54 C 604.37 534.22, 603.08 537.68, 600.68 543.38 C 598.29 549.07, 597.30 551.74, 595.35 556.02 C 593.40 560.31, 591.76 561.81, 590.91 564.79 C 590.07 567.77, 590.63 569.39, 591.12 570.94 C 591.62 572.49, 592.74 572.30, 593.40 572.52 C 594.06 572.75, 593.94 572.22, 594.42 572.05 C 594.90 571.89, 594.91 572.63, 595.81 571.71 C 596.71 570.79, 597.88 570.17, 598.92 567.45 C 599.97 564.73, 599.77 562.58, 601.04 558.13 C 602.32 553.67, 603.23 550.94, 605.30 545.17 C 607.37 539.41, 608.58 536.00, 611.40 529.30 C 614.22 522.60, 616.21 518.90, 619.40 511.67 C 622.59 504.44, 624.41 500.43, 627.35 493.16 C 630.28 485.88, 631.46 482.11, 634.06 475.29 C 636.65 468.47, 638.24 464.83, 640.30 459.05 C 642.37 453.27, 643.42 450.45, 644.39 446.41 C 645.36 442.36, 645.86 440.57, 645.14 438.82 C 644.42 437.07, 642.28 436.52, 640.78 437.66" style="stroke: black; fill: black;"/><path d="M 658.00,431.76 C 659.60 432.14, 660.89 431.99, 661.10 431.66 C 661.32 431.34, 659.94 430.34, 659.08 430.13 C 658.23 429.93, 656.94 429.51, 656.83 430.63 C 656.72 431.74, 657.28 432.80, 658.51 435.71 C 659.74 438.61, 661.36 440.74, 662.96 445.16 C 664.56 449.58, 665.25 452.33, 666.50 457.82 C 667.75 463.31, 668.17 466.54, 669.22 472.60 C 670.28 478.67, 670.83 481.87, 671.76 488.13 C 672.69 494.39, 673.04 497.86, 673.89 503.91 C 674.74 509.95, 675.13 513.13, 676.00 518.35 C 676.87 523.58, 677.32 525.91, 678.24 530.05 C 679.15 534.19, 679.07 536.31, 680.57 539.05 C 682.07 541.80, 683.43 542.71, 685.75 543.77 C 688.07 544.83, 689.59 545.01, 692.16 544.34 C 694.74 543.67, 696.71 543.26, 698.61 540.43 C 700.51 537.60, 700.36 535.13, 701.65 530.19 C 702.94 525.25, 703.41 522.07, 705.08 515.74 C 706.74 509.40, 707.84 505.64, 709.98 498.52 C 712.13 491.40, 713.47 487.44, 715.82 480.15 C 718.17 472.85, 719.18 468.91, 721.73 462.04 C 724.28 455.17, 725.76 451.72, 728.56 445.79 C 731.36 439.87, 733.04 436.89, 735.71 432.41 C 738.38 427.92, 740.01 426.18, 741.90 423.38 C 743.80 420.57, 744.27 419.93, 745.18 418.37 C 746.09 416.80, 746.48 416.54, 746.45 415.54 C 746.41 414.54, 746.13 413.66, 745.02 413.38 C 743.91 413.09, 742.74 412.91, 740.90 414.10 C 739.06 415.30, 737.85 416.22, 735.82 419.35 C 733.78 422.48, 733.05 424.86, 730.73 429.76 C 728.41 434.65, 726.83 437.68, 724.20 443.84 C 721.57 449.99, 720.10 453.53, 717.58 460.52 C 715.05 467.50, 714.04 471.46, 711.59 478.76 C 709.14 486.05, 707.76 489.97, 705.32 497.01 C 702.89 504.05, 701.62 507.86, 699.41 513.97 C 697.20 520.08, 696.24 523.32, 694.26 527.55 C 692.28 531.78, 690.55 532.93, 689.51 535.13 C 688.48 537.32, 689.10 537.82, 689.08 538.53 C 689.07 539.23, 689.53 539.33, 689.43 538.65 C 689.33 537.97, 689.47 537.25, 688.59 535.13 C 687.72 533.01, 686.40 531.64, 685.06 528.06 C 683.71 524.47, 683.01 522.19, 681.85 517.19 C 680.69 512.20, 680.23 509.06, 679.26 503.09 C 678.28 497.13, 677.91 493.63, 677.00 487.36 C 676.10 481.09, 675.57 477.89, 674.73 471.75 C 673.89 465.61, 673.59 462.40, 672.81 456.68 C 672.02 450.95, 671.64 448.06, 670.81 443.13 C 669.98 438.19, 669.83 435.64, 668.67 432.00 C 667.51 428.37, 667.19 426.79, 665.02 424.94 C 662.85 423.09, 660.45 422.65, 657.81 422.76 C 655.16 422.86, 652.73 424.05, 651.79 425.46 C 650.85 426.86, 651.87 428.54, 653.11 429.80 C 654.35 431.06, 656.40 431.39, 658.00 431.76" style="stroke: black; fill: black;"/><path d="M 771.57,479.48 C 769.93 479.81, 768.93 480.30, 767.43 482.55 C 765.94 484.79, 765.60 486.82, 764.09 490.71 C 762.58 494.59, 761.70 497.35, 759.87 501.99 C 758.04 506.63, 757.04 509.25, 754.92 513.92 C 752.80 518.58, 751.42 520.94, 749.28 525.33 C 747.14 529.71, 745.61 532.21, 744.22 535.85 C 742.83 539.50, 741.88 541.41, 742.33 543.57 C 742.79 545.72, 744.48 546.24, 746.49 546.62 C 748.50 547.00, 750.96 546.71, 752.38 545.48 C 753.79 544.25, 754.83 542.25, 753.56 540.47 C 752.28 538.69, 748.13 536.73, 746.03 536.57 C 743.92 536.41, 743.33 538.11, 743.01 539.68 C 742.69 541.24, 743.31 543.20, 744.43 544.41 C 745.55 545.62, 747.03 546.81, 748.60 545.73 C 750.18 544.65, 750.87 542.52, 752.28 539.00 C 753.69 535.48, 753.88 532.57, 755.64 528.14 C 757.40 523.71, 758.83 521.42, 761.08 516.83 C 763.34 512.23, 764.65 509.63, 766.92 505.16 C 769.18 500.70, 770.46 498.24, 772.43 494.51 C 774.39 490.79, 776.09 489.27, 776.74 486.55 C 777.38 483.83, 776.67 482.31, 775.64 480.90 C 774.61 479.48, 773.21 479.15, 771.57 479.48" style="stroke: black; fill: black;"/><path d="M 788.42,423.36 C 788.58 422.14, 787.31 421.37, 786.30 422.08 C 785.29 422.79, 783.54 425.69, 783.38 426.91 C 783.22 428.13, 784.49 428.90, 785.50 428.19 C 786.51 427.48, 788.26 424.58, 788.42 423.36" style="stroke: black; fill: black;"/><path d="M 855.58,485.61 C 854.77 484.20, 853.81 483.23, 851.33 482.90 C 848.85 482.56, 846.92 482.56, 843.19 483.92 C 839.46 485.29, 837.03 486.92, 832.67 489.71 C 828.31 492.50, 825.75 494.35, 821.38 497.86 C 817.00 501.37, 814.57 503.44, 810.79 507.27 C 807.01 511.10, 805.22 513.15, 802.48 517.01 C 799.74 520.86, 798.11 522.64, 797.07 526.55 C 796.03 530.46, 795.89 533.09, 797.27 536.56 C 798.65 540.02, 800.46 541.56, 803.97 543.88 C 807.48 546.19, 809.72 546.95, 814.83 548.14 C 819.94 549.32, 823.68 549.59, 829.52 549.80 C 835.36 550.01, 839.08 549.73, 844.01 549.19 C 848.94 548.64, 852.24 548.39, 854.17 547.08 C 856.11 545.76, 855.80 543.49, 853.69 542.61 C 851.58 541.74, 848.39 542.68, 843.62 542.71 C 838.86 542.74, 835.28 543.13, 829.87 542.78 C 824.46 542.43, 820.89 542.09, 816.59 540.96 C 812.30 539.83, 810.72 538.66, 808.40 537.14 C 806.09 535.63, 805.78 535.08, 805.03 533.36 C 804.28 531.64, 803.99 531.03, 804.64 528.55 C 805.29 526.07, 806.10 524.30, 808.27 520.97 C 810.44 517.63, 812.03 515.41, 815.48 511.89 C 818.94 508.36, 821.32 506.37, 825.54 503.34 C 829.77 500.32, 832.44 498.72, 836.60 496.77 C 840.76 494.81, 843.24 494.44, 846.35 493.55 C 849.47 492.66, 850.36 493.05, 852.17 492.33 C 853.98 491.62, 854.70 491.30, 855.38 489.96 C 856.06 488.61, 856.39 487.02, 855.58 485.61" style="stroke: black; fill: black;"/><path d="M 953.40,498.67 C 952.92 496.98, 951.90 495.88, 949.61 494.86 C 947.32 493.84, 945.40 493.11, 941.95 493.58 C 938.51 494.04, 936.33 495.21, 932.39 497.21 C 928.46 499.20, 926.55 500.83, 922.27 503.53 C 918.00 506.23, 915.15 507.68, 911.00 510.69 C 906.85 513.70, 904.56 515.38, 901.51 518.59 C 898.46 521.79, 896.86 523.33, 895.74 526.72 C 894.62 530.11, 894.73 532.37, 895.91 535.52 C 897.09 538.68, 898.59 540.73, 901.64 542.48 C 904.70 544.23, 906.94 544.21, 911.18 544.29 C 915.42 544.38, 918.00 544.00, 922.84 542.91 C 927.68 541.82, 930.45 540.89, 935.38 538.85 C 940.32 536.82, 942.78 535.44, 947.50 532.75 C 952.22 530.06, 954.71 528.48, 958.97 525.42 C 963.24 522.37, 965.43 520.73, 968.81 517.48 C 972.19 514.24, 973.76 512.66, 975.87 509.20 C 977.98 505.74, 978.99 503.79, 979.34 500.17 C 979.69 496.55, 979.25 494.36, 977.62 491.12 C 975.99 487.88, 974.46 485.93, 971.21 483.98 C 967.96 482.02, 965.43 481.56, 961.37 481.34 C 957.31 481.12, 954.92 481.85, 950.90 482.88 C 946.88 483.90, 944.48 484.69, 941.25 486.47 C 938.03 488.25, 936.40 489.49, 934.78 491.78 C 933.15 494.07, 932.81 496.20, 933.12 497.91 C 933.43 499.62, 934.78 500.23, 936.31 500.33 C 937.84 500.43, 938.83 499.33, 940.76 498.40 C 942.70 497.46, 943.45 496.85, 945.99 495.65 C 948.54 494.45, 950.51 493.27, 953.48 492.40 C 956.45 491.53, 958.33 491.20, 960.85 491.32 C 963.38 491.44, 964.40 492.15, 966.11 493.00 C 967.83 493.85, 968.60 494.28, 969.43 495.56 C 970.26 496.85, 970.36 497.48, 970.26 499.43 C 970.15 501.38, 970.20 502.69, 968.91 505.31 C 967.62 507.93, 966.55 509.56, 963.80 512.53 C 961.04 515.50, 959.01 517.25, 955.12 520.17 C 951.24 523.10, 948.80 524.71, 944.36 527.16 C 939.92 529.61, 937.51 530.83, 932.93 532.42 C 928.35 534.02, 925.72 534.60, 921.46 535.13 C 917.20 535.66, 914.80 535.35, 911.64 535.07 C 908.48 534.79, 907.42 534.19, 905.67 533.73 C 903.92 533.28, 903.25 533.56, 902.90 532.79 C 902.55 532.02, 903.02 531.67, 903.91 529.89 C 904.79 528.11, 905.03 526.54, 907.32 523.91 C 909.62 521.28, 911.60 519.47, 915.38 516.73 C 919.16 514.00, 922.11 512.46, 926.21 510.24 C 930.31 508.02, 932.49 506.68, 935.89 505.63 C 939.29 504.58, 940.80 505.16, 943.21 504.98 C 945.62 504.81, 946.19 505.09, 947.96 504.75 C 949.72 504.41, 950.94 504.50, 952.03 503.28 C 953.11 502.07, 953.88 500.35, 953.40 498.67" style="stroke: black; fill: black;"/></svg>