<svg xmlns="http://www.w3.org/2000/svg" id="canvas" viewBox="414.888 389.612 587.832 307.917"><style>path { stroke: black; stroke-width: 6; stroke-linejoin: round; stroke-linecap: round; }</style><path d="M 498.07,462.20 C 497.70 460.82, 496.77 459.70, 494.73 458.48 C 492.68 457.25, 491.15 456.40, 487.86 456.07 C 484.56 455.74, 482.25 455.86, 478.24 456.83 C 474.24 457.81, 472.13 458.57, 467.83 460.93 C 463.53 463.28, 461.17 464.77, 456.72 468.61 C 452.27 472.45, 449.79 474.86, 445.57 480.11 C 441.34 485.36, 439.06 488.59, 435.59 494.86 C 432.12 501.13, 430.45 504.86, 428.21 511.46 C 425.97 518.06, 425.11 521.72, 424.40 527.84 C 423.68 533.96, 423.68 537.07, 424.65 542.06 C 425.61 547.05, 426.55 549.53, 429.23 552.81 C 431.90 556.08, 434.05 557.43, 438.03 558.44 C 442.01 559.44, 444.59 559.11, 449.14 557.84 C 453.69 556.56, 456.08 555.22, 460.77 552.06 C 465.47 548.91, 467.94 546.68, 472.61 542.08 C 477.27 537.48, 479.72 534.61, 484.10 529.07 C 488.49 523.54, 490.63 520.26, 494.55 514.42 C 498.47 508.58, 500.41 505.36, 503.71 499.85 C 507.00 494.35, 508.44 491.47, 511.03 486.90 C 513.62 482.33, 515.03 480.28, 516.66 477.00 C 518.29 473.73, 519.09 472.16, 519.18 470.51 C 519.27 468.86, 518.00 468.05, 517.11 468.77 C 516.22 469.49, 515.57 470.39, 514.72 474.11 C 513.86 477.83, 513.94 480.64, 512.82 487.37 C 511.69 494.10, 510.92 498.45, 509.09 507.75 C 507.26 517.04, 506.05 522.67, 503.67 533.84 C 501.29 545.01, 499.85 551.47, 497.21 563.60 C 494.57 575.73, 493.12 582.46, 490.49 594.49 C 487.85 606.51, 486.45 612.85, 484.05 623.73 C 481.66 634.62, 480.45 640.00, 478.51 648.90 C 476.57 657.80, 475.64 661.83, 474.35 668.23 C 473.06 674.64, 472.53 677.06, 472.07 680.91 C 471.61 684.75, 471.64 686.08, 472.05 687.44 C 472.45 688.80, 473.37 688.89, 474.09 687.69 C 474.80 686.49, 474.96 685.20, 475.61 681.42 C 476.27 677.64, 476.31 675.19, 477.36 668.78 C 478.41 662.38, 479.13 658.31, 480.88 649.39 C 482.63 640.47, 483.80 635.08, 486.11 624.18 C 488.43 613.28, 489.82 606.94, 492.45 594.91 C 495.07 582.89, 496.54 576.16, 499.24 564.05 C 501.95 551.93, 503.42 545.48, 505.97 534.35 C 508.53 523.22, 509.80 517.60, 512.00 508.38 C 514.20 499.16, 515.26 494.89, 516.98 488.25 C 518.69 481.62, 519.99 479.14, 520.57 475.21 C 521.16 471.29, 520.89 470.01, 519.89 468.63 C 518.89 467.25, 517.23 467.12, 515.58 468.29 C 513.93 469.47, 513.31 471.17, 511.64 474.50 C 509.98 477.83, 509.49 480.24, 507.26 484.94 C 505.03 489.64, 503.63 492.48, 500.50 497.98 C 497.37 503.49, 495.46 506.69, 491.61 512.45 C 487.76 518.21, 485.62 521.44, 481.26 526.78 C 476.90 532.13, 474.42 534.89, 469.82 539.18 C 465.23 543.46, 462.68 545.46, 458.28 548.21 C 453.87 550.95, 451.58 551.87, 447.78 552.90 C 443.97 553.92, 442.21 553.96, 439.25 553.32 C 436.29 552.67, 435.06 552.10, 432.99 549.67 C 430.91 547.25, 429.83 545.47, 428.87 541.19 C 427.91 536.90, 427.65 533.96, 428.20 528.24 C 428.74 522.53, 429.49 518.93, 431.60 512.60 C 433.71 506.28, 435.34 502.63, 438.74 496.63 C 442.13 490.62, 444.42 487.51, 448.58 482.60 C 452.75 477.69, 455.23 475.43, 459.55 472.07 C 463.88 468.70, 466.25 467.47, 470.20 465.77 C 474.16 464.07, 476.03 463.82, 479.35 463.59 C 482.67 463.36, 484.22 464.23, 486.81 464.62 C 489.39 465.01, 490.32 465.40, 492.27 465.56 C 494.23 465.71, 495.41 466.08, 496.57 465.41 C 497.73 464.74, 498.44 463.59, 498.07 462.20" style="stroke: black; fill: black;"/><path d="M 566.07,471.61 C 564.90 472.37, 564.05 473.24, 563.32 475.91 C 562.58 478.58, 562.83 480.59, 562.39 484.96 C 561.95 489.32, 561.60 492.27, 561.11 497.73 C 560.62 503.20, 560.26 506.54, 559.94 512.28 C 559.61 518.02, 559.34 521.15, 559.51 526.42 C 559.67 531.68, 559.77 534.26, 560.74 538.61 C 561.72 542.97, 562.30 545.08, 564.39 548.18 C 566.48 551.28, 567.98 552.81, 571.19 554.10 C 574.40 555.40, 576.58 555.43, 580.45 554.67 C 584.32 553.92, 586.38 552.87, 590.55 550.31 C 594.72 547.75, 596.89 545.90, 601.28 541.88 C 605.68 537.85, 608.02 535.29, 612.53 530.19 C 617.03 525.09, 619.43 522.01, 623.81 516.38 C 628.18 510.74, 630.43 507.49, 634.41 502.00 C 638.39 496.52, 640.31 493.56, 643.71 488.96 C 647.11 484.37, 648.94 482.18, 651.40 479.03 C 653.85 475.87, 655.13 474.60, 656.00 473.19 C 656.87 471.78, 656.08 471.17, 655.74 471.97 C 655.39 472.76, 654.68 473.93, 654.27 477.18 C 653.86 480.43, 654.08 483.09, 653.68 488.22 C 653.27 493.35, 652.89 496.86, 652.25 502.84 C 651.61 508.82, 651.05 512.37, 650.48 518.12 C 649.90 523.87, 649.60 526.84, 649.37 531.57 C 649.14 536.31, 648.91 538.60, 649.31 541.79 C 649.71 544.97, 650.48 545.96, 651.37 547.51 C 652.25 549.05, 652.97 549.25, 653.75 549.49 C 654.52 549.74, 654.91 549.34, 655.24 548.73 C 655.58 548.11, 655.37 547.91, 655.42 546.40 C 655.48 544.89, 655.74 544.11, 655.52 541.16 C 655.29 538.20, 654.42 536.16, 654.30 531.64 C 654.19 527.12, 654.41 524.19, 654.95 518.55 C 655.48 512.92, 656.09 509.38, 656.98 503.45 C 657.87 497.51, 658.61 494.09, 659.42 488.89 C 660.23 483.70, 661.16 481.15, 661.03 477.45 C 660.89 473.75, 660.32 471.97, 658.74 470.40 C 657.16 468.83, 655.41 468.50, 653.13 469.61 C 650.85 470.72, 649.90 472.54, 647.36 475.95 C 644.82 479.36, 643.60 481.87, 640.42 486.66 C 637.24 491.45, 635.35 494.40, 631.46 499.90 C 627.58 505.40, 625.34 508.63, 620.98 514.16 C 616.61 519.70, 614.18 522.71, 609.65 527.58 C 605.12 532.44, 602.68 534.87, 598.32 538.49 C 593.97 542.10, 591.67 543.63, 587.87 545.66 C 584.07 547.69, 582.19 548.13, 579.31 548.64 C 576.44 549.15, 575.53 548.97, 573.50 548.21 C 571.48 547.46, 570.74 547.02, 569.18 544.86 C 567.63 542.69, 566.72 541.12, 565.72 537.40 C 564.71 533.67, 564.39 531.20, 564.17 526.24 C 563.95 521.28, 564.17 518.17, 564.60 512.59 C 565.04 507.02, 565.54 503.71, 566.36 498.37 C 567.17 493.02, 567.84 490.16, 568.67 485.89 C 569.51 481.62, 570.43 479.78, 570.53 477.02 C 570.64 474.26, 570.08 473.17, 569.19 472.08 C 568.29 471.00, 567.24 470.85, 566.07 471.61" style="stroke: black; fill: black;"/><path d="M 715.29,473.04 C 714.28 474.13, 713.85 475.45, 713.50 478.52 C 713.15 481.59, 713.68 483.75, 713.54 488.40 C 713.41 493.05, 713.31 496.23, 712.83 501.75 C 712.34 507.26, 711.90 510.52, 711.12 515.97 C 710.34 521.43, 709.77 524.48, 708.92 529.02 C 708.07 533.56, 707.20 535.59, 706.86 538.69 C 706.53 541.79, 706.92 542.87, 707.24 544.53 C 707.55 546.19, 707.89 546.49, 708.46 546.99 C 709.03 547.50, 709.46 547.46, 710.06 547.05 C 710.66 546.64, 710.83 546.44, 711.45 544.94 C 712.08 543.44, 712.68 542.59, 713.19 539.56 C 713.69 536.53, 713.45 534.37, 713.98 529.79 C 714.51 525.21, 715.04 522.15, 715.83 516.65 C 716.62 511.15, 717.19 507.88, 717.91 502.30 C 718.64 496.73, 718.99 493.49, 719.45 488.77 C 719.91 484.05, 720.38 481.84, 720.20 478.70 C 720.03 475.57, 719.55 474.22, 718.56 473.09 C 717.58 471.95, 716.31 471.95, 715.29 473.04" style="stroke: black; fill: black;"/><path d="M 734.25,399.71 C 735.47 399.09, 736.31 398.54, 735.96 398.62 C 735.62 398.69, 733.53 399.68, 732.53 400.11 C 731.54 400.54, 730.93 400.92, 730.98 400.76 C 731.03 400.59, 732.78 399.51, 732.77 399.27 C 732.76 399.04, 731.96 399.10, 730.94 399.60 C 729.93 400.09, 727.89 401.32, 727.68 401.75 C 727.47 402.17, 728.56 402.12, 729.88 401.72 C 731.19 401.31, 733.04 400.33, 734.25 399.71" style="stroke: black; fill: black;"/><path d="M 775.96,464.78 C 774.92 465.65, 774.39 466.63, 773.94 469.13 C 773.50 471.63, 773.85 473.33, 773.73 477.29 C 773.61 481.24, 773.72 483.95, 773.34 488.91 C 772.95 493.87, 772.55 496.77, 771.80 502.08 C 771.05 507.38, 770.50 510.41, 769.58 515.43 C 768.67 520.45, 768.10 523.05, 767.22 527.17 C 766.33 531.30, 765.17 533.18, 765.15 536.04 C 765.12 538.89, 765.78 540.21, 767.08 541.44 C 768.38 542.68, 769.82 543.07, 771.66 542.22 C 773.50 541.38, 774.45 540.30, 776.26 537.22 C 778.06 534.13, 778.42 531.55, 780.68 526.79 C 782.94 522.03, 784.36 518.94, 787.57 513.41 C 790.78 507.88, 792.74 504.63, 796.72 499.14 C 800.71 493.64, 803.10 490.66, 807.48 485.92 C 811.85 481.17, 814.30 478.85, 818.60 475.41 C 822.90 471.97, 825.18 470.56, 829.00 468.74 C 832.81 466.91, 834.70 466.56, 837.67 466.30 C 840.65 466.04, 841.67 466.31, 843.87 467.44 C 846.07 468.57, 847.00 469.28, 848.67 471.96 C 850.34 474.63, 851.18 476.45, 852.22 480.80 C 853.27 485.16, 853.66 488.14, 853.90 493.74 C 854.14 499.35, 853.87 502.80, 853.42 508.84 C 852.97 514.88, 852.39 518.35, 851.64 523.95 C 850.89 529.55, 850.38 532.54, 849.67 536.84 C 848.96 541.14, 848.18 542.80, 848.11 545.47 C 848.04 548.14, 848.79 548.98, 849.32 550.19 C 849.85 551.39, 850.27 551.28, 850.76 551.50 C 851.26 551.71, 851.41 551.53, 851.80 551.27 C 852.20 551.00, 852.20 551.22, 852.72 550.18 C 853.25 549.13, 854.03 548.59, 854.43 546.04 C 854.84 543.50, 854.42 541.76, 854.74 537.44 C 855.06 533.13, 855.42 530.12, 856.01 524.47 C 856.60 518.81, 857.19 515.34, 857.69 509.17 C 858.19 503.00, 858.58 499.52, 858.51 493.62 C 858.44 487.72, 858.32 484.64, 857.34 479.69 C 856.35 474.74, 855.77 472.40, 853.60 468.89 C 851.42 465.39, 849.77 463.74, 846.47 462.17 C 843.17 460.59, 841.00 460.50, 837.09 461.00 C 833.18 461.50, 831.12 462.40, 826.92 464.66 C 822.72 466.93, 820.50 468.58, 816.07 472.33 C 811.63 476.08, 809.21 478.49, 804.73 483.40 C 800.25 488.32, 797.84 491.34, 793.67 496.88 C 789.50 502.43, 787.48 505.69, 783.89 511.13 C 780.30 516.56, 778.57 519.55, 775.72 524.06 C 772.88 528.56, 771.20 530.59, 769.68 533.65 C 768.15 536.70, 768.06 537.94, 768.08 539.34 C 768.11 540.74, 769.02 541.14, 769.80 540.63 C 770.59 540.13, 771.43 539.32, 772.00 536.81 C 772.57 534.29, 772.19 532.19, 772.67 528.08 C 773.15 523.97, 773.59 521.30, 774.38 516.25 C 775.18 511.20, 775.75 508.17, 776.66 502.84 C 777.57 497.50, 778.16 494.57, 778.93 489.56 C 779.71 484.55, 780.09 481.82, 780.55 477.78 C 781.01 473.74, 781.50 471.98, 781.23 469.38 C 780.96 466.78, 780.24 465.69, 779.19 464.77 C 778.14 463.85, 777.01 463.91, 775.96 464.78" style="stroke: black; fill: black;"/><path d="M 906.61,471.56 C 905.57 472.51, 905.10 473.62, 904.72 476.19 C 904.34 478.77, 904.84 480.45, 904.71 484.43 C 904.58 488.40, 904.57 491.10, 904.05 496.06 C 903.53 501.03, 903.04 504.03, 902.11 509.25 C 901.19 514.47, 900.52 517.43, 899.45 522.16 C 898.37 526.90, 897.43 529.27, 896.75 532.93 C 896.08 536.59, 895.55 538.25, 896.08 540.47 C 896.61 542.69, 897.62 543.65, 899.38 544.03 C 901.15 544.41, 902.89 544.39, 904.91 542.37 C 906.92 540.35, 907.20 538.10, 909.44 533.92 C 911.68 529.75, 912.92 526.85, 916.12 521.48 C 919.32 516.11, 921.35 512.80, 925.44 507.05 C 929.53 501.31, 931.96 498.05, 936.55 492.75 C 941.13 487.45, 943.71 484.74, 948.36 480.57 C 953.01 476.39, 955.53 474.50, 959.79 471.86 C 964.06 469.21, 966.20 468.32, 969.67 467.34 C 973.13 466.35, 974.62 466.46, 977.12 466.94 C 979.61 467.41, 980.33 467.74, 982.15 469.71 C 983.97 471.67, 984.91 473.04, 986.23 476.78 C 987.55 480.51, 988.18 483.07, 988.76 488.39 C 989.34 493.70, 989.35 497.09, 989.14 503.33 C 988.92 509.57, 988.46 513.49, 987.69 519.57 C 986.91 525.65, 986.14 529.08, 985.27 533.75 C 984.40 538.42, 983.59 540.09, 983.33 542.91 C 983.06 545.73, 983.43 546.78, 983.96 547.85 C 984.49 548.91, 985.09 549.02, 985.97 548.23 C 986.86 547.44, 987.57 546.62, 988.38 543.88 C 989.18 541.15, 989.30 539.31, 990.01 534.54 C 990.72 529.78, 991.24 526.27, 991.91 520.07 C 992.59 513.86, 993.08 509.93, 993.39 503.51 C 993.71 497.09, 993.89 493.66, 993.49 487.96 C 993.08 482.27, 992.80 479.51, 991.38 475.05 C 989.96 470.59, 989.04 468.39, 986.38 465.67 C 983.72 462.94, 981.71 462.02, 978.08 461.42 C 974.44 460.83, 972.31 461.30, 968.21 462.69 C 964.10 464.09, 962.01 465.37, 957.55 468.40 C 953.08 471.44, 950.62 473.45, 945.89 477.86 C 941.15 482.26, 938.57 485.03, 933.87 490.42 C 929.16 495.81, 926.70 499.09, 922.37 504.80 C 918.05 510.52, 915.88 513.79, 912.25 518.98 C 908.61 524.16, 906.86 526.87, 904.19 530.71 C 901.53 534.55, 899.91 535.89, 898.91 538.16 C 897.91 540.43, 898.69 541.55, 899.18 542.07 C 899.66 542.58, 900.61 542.35, 901.33 540.74 C 902.04 539.13, 902.14 537.53, 902.77 534.02 C 903.39 530.51, 903.60 527.95, 904.45 523.18 C 905.31 518.41, 906.00 515.43, 907.03 510.16 C 908.06 504.89, 908.73 501.88, 909.61 496.84 C 910.48 491.79, 910.92 489.05, 911.40 484.94 C 911.89 480.83, 912.35 478.99, 912.05 476.30 C 911.75 473.61, 910.98 472.42, 909.89 471.47 C 908.80 470.52, 907.64 470.62, 906.61 471.56" style="stroke: black; fill: black;"/></svg>