<svg xmlns="http://www.w3.org/2000/svg" id="canvas" viewBox="366.126 403.047 522.442 139.434"><path d="M 390.20,448.38 C 389.61 450.00, 389.81 452.10, 390.08 456.25 C 390.34 460.40, 390.90 463.35, 391.52 469.15 C 392.14 474.95, 392.55 478.87, 393.18 485.26 C 393.82 491.65, 394.23 495.10, 394.71 501.11 C 395.19 507.11, 395.42 510.10, 395.56 515.29 C 395.70 520.47, 395.45 523.18, 395.39 527.03 C 395.33 530.88, 395.12 532.46, 395.28 534.53 C 395.43 536.61, 395.86 537.25, 396.17 537.40 C 396.49 537.55, 397.32 537.05, 396.85 535.28 C 396.38 533.52, 395.58 532.14, 393.82 528.57 C 392.06 525.00, 390.36 522.50, 388.04 517.43 C 385.72 512.36, 384.38 509.16, 382.21 503.22 C 380.04 497.27, 378.90 493.95, 377.19 487.71 C 375.48 481.48, 374.63 478.20, 373.65 472.05 C 372.68 465.89, 372.35 462.80, 372.32 456.94 C 372.30 451.08, 372.51 448.13, 373.51 442.77 C 374.52 437.40, 375.30 434.67, 377.34 430.11 C 379.38 425.55, 380.70 423.36, 383.70 419.98 C 386.69 416.60, 388.57 415.15, 392.32 413.23 C 396.07 411.31, 398.30 410.73, 402.46 410.37 C 406.62 410.00, 408.98 410.30, 413.12 411.42 C 417.25 412.54, 419.58 413.61, 423.15 415.95 C 426.72 418.30, 428.48 419.93, 430.98 423.14 C 433.48 426.36, 434.55 428.29, 435.66 432.03 C 436.77 435.76, 436.92 437.83, 436.52 441.83 C 436.11 445.82, 435.44 448.00, 433.62 452.01 C 431.79 456.02, 430.36 458.14, 427.39 461.88 C 424.42 465.63, 422.36 467.55, 418.76 470.74 C 415.16 473.93, 412.96 475.40, 409.39 477.83 C 405.82 480.26, 403.67 481.00, 400.90 482.90 C 398.13 484.79, 396.84 485.44, 395.53 487.30 C 394.22 489.15, 393.94 490.22, 394.36 492.16 C 394.77 494.11, 395.34 495.43, 397.60 497.03 C 399.86 498.62, 401.82 498.80, 405.68 500.13 C 409.54 501.46, 412.07 502.05, 416.90 503.67 C 421.74 505.29, 424.62 506.26, 429.84 508.23 C 435.06 510.21, 437.92 511.36, 443.02 513.55 C 448.13 515.73, 450.74 516.95, 455.38 519.15 C 460.01 521.35, 462.25 522.48, 466.21 524.54 C 470.16 526.60, 471.96 527.62, 475.15 529.44 C 478.34 531.25, 479.61 532.31, 482.16 533.63 C 484.71 534.94, 485.94 535.39, 487.89 536.02 C 489.85 536.65, 490.63 536.74, 491.94 536.78 C 493.25 536.82, 493.87 536.68, 494.45 536.21 C 495.04 535.74, 495.11 535.10, 494.87 534.43 C 494.63 533.77, 494.20 533.62, 493.25 532.89 C 492.30 532.17, 491.82 531.75, 490.12 530.81 C 488.43 529.88, 487.32 529.36, 484.76 528.22 C 482.20 527.08, 480.67 526.60, 477.32 525.12 C 473.98 523.64, 472.11 522.69, 468.04 520.81 C 463.97 518.93, 461.68 517.85, 456.97 515.72 C 452.26 513.58, 449.62 512.38, 444.49 510.15 C 439.35 507.92, 436.48 506.74, 431.29 504.58 C 426.10 502.42, 423.24 501.32, 418.55 499.33 C 413.86 497.34, 411.43 496.21, 407.83 494.62 C 404.23 493.04, 402.67 492.11, 400.55 491.40 C 398.43 490.70, 397.61 491.27, 397.23 491.09 C 396.85 490.92, 397.32 491.26, 398.67 490.53 C 400.02 489.80, 401.31 489.24, 403.98 487.44 C 406.66 485.63, 408.55 484.22, 412.06 481.50 C 415.58 478.78, 417.85 477.25, 421.56 473.84 C 425.27 470.42, 427.45 468.46, 430.62 464.44 C 433.80 460.42, 435.40 458.19, 437.44 453.76 C 439.47 449.32, 440.32 446.86, 440.80 442.27 C 441.27 437.68, 441.10 435.16, 439.82 430.80 C 438.54 426.44, 437.26 424.17, 434.39 420.49 C 431.53 416.80, 429.53 415.00, 425.49 412.37 C 421.45 409.74, 418.88 408.57, 414.20 407.35 C 409.52 406.12, 406.82 405.78, 402.08 406.25 C 397.33 406.72, 394.72 407.44, 390.47 409.68 C 386.22 411.93, 384.11 413.68, 380.83 417.48 C 377.55 421.27, 376.19 423.74, 374.06 428.68 C 371.94 433.62, 371.20 436.51, 370.22 442.17 C 369.23 447.83, 369.07 450.90, 369.14 456.97 C 369.22 463.04, 369.59 466.22, 370.59 472.53 C 371.58 478.84, 372.46 482.17, 374.12 488.53 C 375.77 494.90, 376.90 498.25, 378.87 504.36 C 380.83 510.48, 382.00 513.77, 383.94 519.11 C 385.89 524.45, 386.86 527.27, 388.59 531.05 C 390.33 534.84, 390.90 536.48, 392.62 538.05 C 394.33 539.63, 395.67 539.56, 397.17 538.94 C 398.67 538.32, 399.58 537.36, 400.13 534.96 C 400.69 532.56, 400.11 530.93, 399.93 526.96 C 399.75 522.99, 399.60 520.34, 399.23 515.11 C 398.86 509.89, 398.59 506.87, 398.10 500.84 C 397.61 494.80, 397.30 491.35, 396.78 484.94 C 396.25 478.52, 395.97 474.59, 395.50 468.77 C 395.02 462.96, 394.88 459.98, 394.39 455.86 C 393.89 451.73, 393.87 449.65, 393.03 448.16 C 392.19 446.67, 390.79 446.77, 390.20 448.38" style="stroke: black; fill: black;"/><path d="M 541.28,490.93 C 541.22 489.66, 540.62 488.38, 539.02 486.85 C 537.43 485.32, 536.16 484.17, 533.31 483.29 C 530.47 482.42, 528.31 481.99, 524.81 482.47 C 521.31 482.96, 519.36 483.82, 515.82 485.72 C 512.27 487.61, 510.33 489.03, 507.06 491.96 C 503.80 494.90, 501.96 496.82, 499.50 500.39 C 497.03 503.97, 495.88 506.12, 494.73 509.84 C 493.58 513.56, 493.21 515.68, 493.74 519.00 C 494.27 522.32, 495.29 524.03, 497.37 526.45 C 499.45 528.86, 501.10 529.92, 504.15 531.08 C 507.19 532.25, 509.16 532.38, 512.61 532.27 C 516.06 532.15, 517.98 531.73, 521.39 530.51 C 524.80 529.28, 526.60 528.33, 529.64 526.14 C 532.69 523.94, 534.17 522.45, 536.62 519.54 C 539.07 516.62, 540.17 514.75, 541.89 511.55 C 543.62 508.35, 544.74 506.38, 545.23 503.53 C 545.71 500.69, 545.11 498.77, 544.32 497.34 C 543.53 495.91, 542.21 495.70, 541.29 496.40 C 540.37 497.09, 539.64 498.50, 539.73 500.82 C 539.81 503.15, 540.20 505.04, 541.72 508.04 C 543.24 511.03, 544.85 512.90, 547.32 515.81 C 549.79 518.72, 551.21 520.24, 554.07 522.59 C 556.92 524.94, 558.49 525.92, 561.60 527.57 C 564.72 529.22, 566.44 529.88, 569.66 530.84 C 572.89 531.80, 574.58 532.19, 577.72 532.37 C 580.87 532.54, 582.76 532.34, 585.39 531.72 C 588.01 531.09, 589.22 530.35, 590.86 529.24 C 592.51 528.12, 593.28 527.17, 593.61 526.14 C 593.93 525.10, 593.45 524.43, 592.51 524.07 C 591.57 523.71, 590.58 524.13, 588.91 524.33 C 587.24 524.53, 586.35 524.81, 584.15 525.08 C 581.96 525.35, 580.54 525.70, 577.96 525.68 C 575.38 525.65, 573.99 525.60, 571.26 524.95 C 568.53 524.29, 566.97 523.77, 564.30 522.40 C 561.63 521.04, 560.25 520.22, 557.91 518.11 C 555.57 516.00, 554.36 514.59, 552.59 511.86 C 550.83 509.12, 550.33 507.07, 549.10 504.43 C 547.87 501.80, 547.65 500.40, 546.44 498.67 C 545.22 496.95, 544.30 496.12, 543.03 495.80 C 541.77 495.48, 541.07 495.86, 540.11 497.08 C 539.16 498.29, 539.00 499.53, 538.26 501.89 C 537.52 504.25, 537.62 506.07, 536.40 508.86 C 535.19 511.66, 534.21 513.37, 532.19 515.87 C 530.16 518.38, 528.84 519.61, 526.28 521.38 C 523.73 523.14, 522.18 523.81, 519.41 524.68 C 516.64 525.56, 515.06 525.70, 512.43 525.75 C 509.80 525.81, 508.43 525.58, 506.27 524.94 C 504.11 524.30, 502.99 523.94, 501.63 522.57 C 500.27 521.20, 499.82 520.33, 499.47 518.10 C 499.12 515.86, 499.02 514.34, 499.88 511.39 C 500.73 508.43, 501.63 506.42, 503.76 503.33 C 505.89 500.24, 507.61 498.41, 510.53 495.92 C 513.45 493.43, 515.38 492.21, 518.37 490.89 C 521.35 489.57, 522.88 489.39, 525.44 489.32 C 528.00 489.24, 529.13 489.93, 531.15 490.52 C 533.18 491.10, 533.93 491.69, 535.57 492.23 C 537.21 492.78, 538.20 493.50, 539.34 493.24 C 540.48 492.98, 541.35 492.21, 541.28 490.93" style="stroke: black; fill: black;"/><path d="M 628.61,489.84 C 628.24 488.73, 627.48 487.78, 625.65 486.99 C 623.83 486.20, 622.30 485.59, 619.48 485.90 C 616.66 486.21, 614.63 486.75, 611.53 488.55 C 608.44 490.34, 606.80 491.95, 604.00 494.87 C 601.20 497.80, 599.58 499.63, 597.53 503.16 C 595.48 506.69, 594.37 508.78, 593.75 512.51 C 593.14 516.25, 593.12 518.50, 594.46 521.81 C 595.80 525.13, 597.26 526.80, 600.44 529.08 C 603.62 531.36, 605.88 532.11, 610.37 533.22 C 614.85 534.33, 617.59 534.57, 622.86 534.63 C 628.12 534.69, 631.17 534.45, 636.69 533.53 C 642.21 532.62, 645.21 531.91, 650.48 530.06 C 655.74 528.21, 658.45 527.11, 663.04 524.27 C 667.62 521.43, 669.87 519.76, 673.41 515.86 C 676.94 511.96, 678.45 509.62, 680.71 504.78 C 682.97 499.94, 683.77 497.11, 684.68 491.66 C 685.60 486.21, 685.63 483.07, 685.30 477.54 C 684.96 472.01, 684.29 468.99, 683.01 464.00 C 681.73 459.00, 680.71 456.53, 678.90 452.56 C 677.10 448.58, 676.16 446.73, 673.99 444.13 C 671.82 441.53, 670.45 440.44, 668.06 439.56 C 665.67 438.69, 664.12 438.72, 662.05 439.76 C 659.97 440.80, 658.60 441.93, 657.67 444.76 C 656.74 447.58, 656.99 449.66, 657.39 453.90 C 657.79 458.14, 658.44 460.84, 659.69 465.96 C 660.93 471.09, 661.85 474.18, 663.62 479.51 C 665.39 484.84, 666.48 487.73, 668.54 492.62 C 670.60 497.51, 671.80 499.89, 673.93 503.97 C 676.05 508.04, 677.11 509.90, 679.14 513.01 C 681.18 516.12, 682.01 517.63, 684.09 519.53 C 686.17 521.43, 687.39 522.01, 689.54 522.50 C 691.69 522.99, 692.85 522.80, 694.83 522.00 C 696.82 521.20, 697.80 520.33, 699.47 518.51 C 701.13 516.69, 701.86 515.23, 703.15 512.89 C 704.44 510.55, 704.89 508.94, 705.91 506.82 C 706.93 504.70, 707.36 503.59, 708.24 502.27 C 709.12 500.94, 709.48 500.44, 710.30 500.20 C 711.11 499.95, 711.34 500.17, 712.31 501.04 C 713.28 501.90, 713.72 502.84, 715.15 504.51 C 716.58 506.19, 717.47 507.39, 719.45 509.39 C 721.44 511.40, 722.67 512.54, 725.07 514.55 C 727.47 516.56, 728.76 517.71, 731.45 519.44 C 734.15 521.17, 735.59 522.02, 738.53 523.20 C 741.47 524.38, 743.04 524.87, 746.16 525.36 C 749.29 525.85, 750.99 525.95, 754.16 525.66 C 757.33 525.37, 758.98 525.00, 762.01 523.92 C 765.04 522.83, 766.58 522.04, 769.31 520.23 C 772.04 518.43, 773.42 517.30, 775.67 514.91 C 777.92 512.51, 779.10 511.08, 780.56 508.27 C 782.01 505.46, 782.60 503.74, 782.95 500.85 C 783.29 497.97, 783.18 496.32, 782.28 493.86 C 781.39 491.39, 780.50 490.08, 778.47 488.53 C 776.44 486.98, 774.87 486.30, 772.14 486.11 C 769.41 485.92, 767.54 486.28, 764.83 487.58 C 762.11 488.88, 760.57 490.12, 758.57 492.62 C 756.56 495.11, 755.55 496.86, 754.79 500.08 C 754.04 503.29, 753.87 505.42, 754.79 508.69 C 755.70 511.96, 756.83 513.74, 759.39 516.44 C 761.95 519.14, 763.76 520.32, 767.58 522.18 C 771.41 524.04, 773.79 524.76, 778.52 525.74 C 783.24 526.72, 786.00 526.98, 791.20 527.08 C 796.39 527.19, 799.24 527.02, 804.49 526.26 C 809.75 525.51, 812.52 524.91, 817.49 523.31 C 822.45 521.72, 824.95 520.73, 829.32 518.29 C 833.69 515.85, 835.82 514.39, 839.34 511.11 C 842.85 507.83, 844.49 505.85, 846.89 501.87 C 849.29 497.90, 850.19 495.56, 851.33 491.25 C 852.47 486.93, 852.68 484.48, 852.59 480.29 C 852.50 476.09, 852.01 473.92, 850.87 470.27 C 849.73 466.62, 848.90 464.75, 846.91 462.04 C 844.92 459.33, 843.54 458.09, 840.90 456.73 C 838.26 455.37, 836.56 454.94, 833.71 455.25 C 830.87 455.55, 829.01 456.12, 826.68 458.25 C 824.36 460.39, 823.32 462.24, 822.08 465.92 C 820.83 469.61, 820.49 472.04, 820.46 476.68 C 820.43 481.32, 820.67 484.15, 821.92 489.12 C 823.16 494.09, 824.14 496.81, 826.67 501.53 C 829.21 506.25, 830.96 508.63, 834.60 512.74 C 838.24 516.85, 840.58 518.77, 844.86 522.07 C 849.13 525.38, 851.62 526.76, 855.97 529.27 C 860.33 531.78, 862.69 532.78, 866.62 534.62 C 870.55 536.47, 872.63 537.52, 875.64 538.48 C 878.65 539.45, 879.82 539.38, 881.68 539.46 C 883.54 539.55, 884.23 539.35, 884.95 538.91 C 885.67 538.48, 885.73 537.95, 885.29 537.28 C 884.84 536.60, 884.30 536.35, 882.72 535.52 C 881.15 534.70, 880.30 534.17, 877.43 533.16 C 874.56 532.15, 872.28 531.94, 868.38 530.46 C 864.47 528.99, 862.15 528.08, 857.91 525.80 C 853.66 523.52, 851.25 522.19, 847.15 519.08 C 843.06 515.97, 840.82 514.13, 837.42 510.25 C 834.02 506.38, 832.42 504.12, 830.17 499.70 C 827.92 495.28, 827.10 492.71, 826.17 488.15 C 825.24 483.58, 825.21 480.92, 825.50 476.87 C 825.80 472.83, 826.55 470.77, 827.65 467.93 C 828.76 465.09, 829.69 464.14, 831.03 462.68 C 832.36 461.23, 832.92 460.83, 834.33 460.65 C 835.73 460.48, 836.50 460.80, 838.06 461.79 C 839.62 462.79, 840.56 463.59, 842.12 465.63 C 843.68 467.67, 844.73 469.02, 845.86 471.99 C 846.99 474.96, 847.55 476.85, 847.78 480.48 C 848.00 484.11, 847.88 486.31, 846.97 490.15 C 846.06 494.00, 845.31 496.10, 843.23 499.70 C 841.14 503.30, 839.71 505.12, 836.54 508.15 C 833.38 511.18, 831.44 512.57, 827.39 514.86 C 823.34 517.16, 820.99 518.13, 816.30 519.63 C 811.62 521.13, 808.95 521.71, 803.96 522.37 C 798.96 523.03, 796.22 523.14, 791.33 522.92 C 786.45 522.70, 783.81 522.33, 779.54 521.26 C 775.26 520.19, 773.12 519.32, 769.97 517.57 C 766.81 515.82, 765.53 514.60, 763.76 512.50 C 761.99 510.40, 761.59 509.19, 761.13 507.06 C 760.66 504.93, 760.81 503.80, 761.43 501.85 C 762.05 499.89, 762.88 498.86, 764.23 497.30 C 765.59 495.73, 766.62 494.97, 768.20 494.02 C 769.78 493.07, 770.75 492.73, 772.13 492.54 C 773.51 492.36, 774.20 492.50, 775.10 493.11 C 776.01 493.72, 776.40 494.25, 776.68 495.59 C 776.95 496.92, 776.94 497.88, 776.48 499.76 C 776.02 501.65, 775.53 502.89, 774.38 505.01 C 773.23 507.13, 772.49 508.42, 770.74 510.36 C 769.00 512.30, 767.85 513.26, 765.66 514.72 C 763.47 516.17, 762.20 516.79, 759.78 517.65 C 757.36 518.51, 756.07 518.78, 753.55 519.01 C 751.04 519.23, 749.70 519.18, 747.19 518.79 C 744.68 518.40, 743.43 518.05, 741.02 517.07 C 738.62 516.08, 737.42 515.40, 735.18 513.85 C 732.94 512.30, 731.83 511.28, 729.82 509.30 C 727.81 507.32, 727.03 505.98, 725.12 503.94 C 723.22 501.91, 722.33 500.76, 720.31 499.13 C 718.29 497.50, 717.24 496.58, 715.03 495.79 C 712.82 495.01, 711.52 494.82, 709.27 495.20 C 707.03 495.59, 705.83 496.21, 703.80 497.71 C 701.78 499.21, 700.79 500.44, 699.14 502.71 C 697.49 504.97, 696.69 506.62, 695.57 509.03 C 694.44 511.43, 694.13 512.93, 693.50 514.73 C 692.87 516.52, 692.94 517.29, 692.42 517.99 C 691.91 518.69, 691.83 518.74, 690.94 518.24 C 690.06 517.73, 689.57 517.08, 688.01 515.47 C 686.46 513.85, 685.26 512.86, 683.17 510.16 C 681.09 507.46, 679.80 505.77, 677.59 501.95 C 675.39 498.14, 674.16 495.82, 672.13 491.09 C 670.10 486.36, 669.03 483.51, 667.45 478.29 C 665.86 473.07, 665.08 469.96, 664.20 465.01 C 663.32 460.06, 663.16 457.32, 663.06 453.55 C 662.96 449.77, 663.51 448.23, 663.70 446.14 C 663.90 444.06, 663.60 443.58, 664.04 443.12 C 664.49 442.66, 664.77 442.94, 665.93 443.83 C 667.09 444.73, 668.04 445.47, 669.83 447.61 C 671.63 449.75, 673.04 451.04, 674.91 454.53 C 676.78 458.01, 677.85 460.38, 679.18 465.03 C 680.51 469.68, 681.19 472.58, 681.56 477.79 C 681.94 482.99, 681.89 485.97, 681.05 491.05 C 680.22 496.14, 679.45 498.76, 677.38 503.23 C 675.30 507.70, 673.94 509.81, 670.69 513.40 C 667.44 516.98, 665.40 518.53, 661.12 521.16 C 656.84 523.80, 654.27 524.86, 649.27 526.57 C 644.26 528.28, 641.36 528.95, 636.10 529.71 C 630.84 530.48, 627.88 530.61, 622.97 530.39 C 618.07 530.18, 615.48 529.74, 611.58 528.64 C 607.68 527.54, 605.89 526.64, 603.48 524.87 C 601.07 523.11, 600.39 522.10, 599.54 519.82 C 598.69 517.55, 598.67 516.26, 599.24 513.52 C 599.81 510.77, 600.59 508.95, 602.39 506.09 C 604.19 503.23, 605.74 501.47, 608.24 499.22 C 610.74 496.96, 612.42 496.00, 614.88 494.82 C 617.34 493.65, 618.63 493.73, 620.55 493.36 C 622.48 492.99, 623.10 493.14, 624.50 492.97 C 625.89 492.81, 626.70 493.16, 627.52 492.54 C 628.34 491.91, 628.98 490.95, 628.61 489.84" style="stroke: black; fill: black;"/></svg>