<svg xmlns="http://www.w3.org/2000/svg" id="canvas" viewBox="441.370 386.394 498.132 277.439"><style>path { stroke: black; stroke-width: 6; stroke-linejoin: round; stroke-linecap: round; }</style><path d="M 578.68,391.99 C 577.83 390.85, 576.66 390.10, 574.19 389.66 C 571.72 389.22, 570.03 389.37, 566.33 389.79 C 562.62 390.20, 560.18 390.62, 555.67 391.73 C 551.15 392.84, 548.63 393.54, 543.76 395.33 C 538.89 397.12, 536.20 398.22, 531.31 400.68 C 526.43 403.14, 523.74 404.60, 519.33 407.65 C 514.93 410.71, 512.72 412.47, 509.29 415.95 C 505.85 419.42, 504.27 421.28, 502.17 425.03 C 500.07 428.77, 499.14 430.77, 498.79 434.66 C 498.43 438.55, 498.82 440.73, 500.41 444.47 C 502.01 448.20, 503.56 449.99, 506.77 453.32 C 509.98 456.65, 512.09 458.09, 516.47 461.13 C 520.84 464.17, 523.53 465.55, 528.64 468.52 C 533.75 471.49, 536.74 472.92, 542.03 476.00 C 547.33 479.07, 550.19 480.57, 555.12 483.89 C 560.05 487.20, 562.58 488.95, 566.69 492.57 C 570.79 496.19, 572.72 498.13, 575.65 502.00 C 578.57 505.87, 579.76 507.92, 581.29 511.91 C 582.83 515.90, 583.21 517.96, 583.33 521.96 C 583.44 525.96, 583.24 527.95, 581.88 531.91 C 580.52 535.87, 579.52 537.90, 576.51 541.78 C 573.50 545.66, 571.47 547.70, 566.82 551.32 C 562.17 554.93, 559.34 556.79, 553.24 559.85 C 547.14 562.90, 543.47 564.33, 536.33 566.59 C 529.19 568.86, 525.10 569.88, 517.56 571.15 C 510.01 572.42, 505.86 572.78, 498.59 572.96 C 491.32 573.13, 487.55 572.89, 481.20 572.03 C 474.84 571.17, 471.77 570.43, 466.81 568.65 C 461.85 566.87, 459.68 565.29, 456.39 563.11 C 453.11 560.92, 452.39 559.40, 450.39 557.71 C 448.39 556.02, 447.59 554.99, 446.39 554.67 C 445.18 554.35, 444.35 554.72, 444.37 556.11 C 444.38 557.50, 444.57 559.37, 446.46 561.61 C 448.35 563.84, 450.01 565.13, 453.83 567.29 C 457.65 569.45, 460.17 570.78, 465.56 572.42 C 470.95 574.05, 474.15 574.71, 480.77 575.46 C 487.39 576.21, 491.22 576.41, 498.68 576.17 C 506.14 575.94, 510.35 575.57, 518.08 574.28 C 525.81 573.00, 529.96 571.99, 537.31 569.75 C 544.66 567.51, 548.43 566.12, 554.82 563.08 C 561.21 560.04, 564.21 558.23, 569.25 554.53 C 574.29 550.83, 576.58 548.78, 580.02 544.58 C 583.45 540.37, 584.78 538.06, 586.42 533.51 C 588.06 528.96, 588.36 526.47, 588.20 521.81 C 588.04 517.14, 587.45 514.69, 585.63 510.20 C 583.81 505.70, 582.34 503.49, 579.09 499.35 C 575.84 495.20, 573.73 493.24, 569.38 489.49 C 565.03 485.74, 562.39 483.98, 557.34 480.59 C 552.28 477.19, 549.39 475.66, 544.09 472.50 C 538.80 469.34, 535.83 467.85, 530.88 464.79 C 525.92 461.73, 523.34 460.24, 519.31 457.20 C 515.27 454.17, 513.44 452.62, 510.72 449.62 C 508.00 446.62, 506.95 445.09, 505.70 442.19 C 504.45 439.30, 504.23 438.07, 504.45 435.14 C 504.68 432.22, 505.17 430.73, 506.84 427.57 C 508.51 424.41, 509.77 422.56, 512.81 419.34 C 515.84 416.13, 517.88 414.37, 522.00 411.48 C 526.11 408.58, 528.71 407.15, 533.39 404.89 C 538.07 402.63, 540.71 401.61, 545.39 400.17 C 550.08 398.73, 552.52 398.29, 556.82 397.70 C 561.12 397.11, 563.44 397.35, 566.90 397.22 C 570.35 397.09, 571.78 397.41, 574.09 397.04 C 576.40 396.66, 577.52 396.34, 578.44 395.33 C 579.36 394.32, 579.53 393.12, 578.68 391.99" style="stroke: black; fill: black;"/><path d="M 666.65,506.41 C 666.89 505.18, 666.65 504.25, 665.56 502.73 C 664.48 501.20, 663.64 500.04, 661.22 498.77 C 658.81 497.50, 656.98 496.78, 653.49 496.38 C 650.01 495.98, 647.95 496.12, 643.81 496.77 C 639.66 497.42, 637.30 497.88, 632.76 499.63 C 628.22 501.37, 625.71 502.55, 621.09 505.50 C 616.47 508.44, 613.93 510.35, 609.65 514.36 C 605.37 518.36, 603.13 520.83, 599.69 525.51 C 596.25 530.20, 594.68 532.95, 592.47 537.80 C 590.26 542.64, 589.39 545.24, 588.66 549.74 C 587.92 554.24, 587.79 556.57, 588.78 560.29 C 589.78 564.01, 590.88 566.07, 593.63 568.34 C 596.38 570.60, 598.63 571.32, 602.55 571.62 C 606.47 571.93, 608.76 571.38, 613.23 569.87 C 617.70 568.36, 620.11 567.05, 624.91 564.09 C 629.71 561.14, 632.35 559.14, 637.24 555.09 C 642.14 551.04, 644.70 548.49, 649.37 543.85 C 654.05 539.22, 656.48 536.53, 660.62 531.94 C 664.76 527.34, 666.77 524.79, 670.06 520.90 C 673.35 517.01, 675.37 515.18, 677.07 512.49 C 678.76 509.80, 678.76 508.36, 678.51 507.45 C 678.27 506.54, 676.87 506.44, 675.86 507.93 C 674.85 509.43, 674.30 511.11, 673.47 514.91 C 672.64 518.70, 672.40 521.70, 671.73 526.90 C 671.05 532.09, 670.59 535.43, 670.09 540.87 C 669.60 546.31, 669.34 549.42, 669.23 554.10 C 669.13 558.78, 669.01 561.12, 669.56 564.28 C 670.11 567.43, 671.02 568.82, 672.00 569.86 C 672.97 570.90, 673.83 570.66, 674.43 569.45 C 675.03 568.25, 674.97 566.87, 675.00 563.81 C 675.02 560.76, 674.50 558.67, 674.55 554.19 C 674.59 549.71, 674.59 546.66, 675.21 541.40 C 675.83 536.14, 676.59 532.93, 677.65 527.90 C 678.70 522.87, 679.85 520.15, 680.49 516.25 C 681.14 512.36, 681.54 510.56, 680.88 508.42 C 680.22 506.27, 678.92 505.42, 677.20 505.52 C 675.47 505.63, 674.42 506.43, 672.27 508.94 C 670.12 511.45, 669.37 514.00, 666.44 518.07 C 663.51 522.15, 661.59 524.70, 657.63 529.30 C 653.67 533.90, 651.24 536.57, 646.64 541.08 C 642.04 545.59, 639.46 548.07, 634.63 551.85 C 629.81 555.64, 627.13 557.45, 622.52 560.00 C 617.91 562.54, 615.48 563.49, 611.59 564.58 C 607.69 565.67, 605.84 565.67, 603.04 565.45 C 600.23 565.22, 599.30 564.79, 597.55 563.45 C 595.81 562.11, 595.11 561.33, 594.33 558.74 C 593.56 556.14, 593.21 554.28, 593.68 550.46 C 594.14 546.64, 594.73 544.11, 596.64 539.63 C 598.54 535.16, 600.00 532.48, 603.20 528.08 C 606.40 523.67, 608.57 521.31, 612.65 517.61 C 616.73 513.92, 619.22 512.16, 623.60 509.60 C 627.98 507.04, 630.39 506.07, 634.54 504.83 C 638.70 503.58, 640.92 503.40, 644.39 503.38 C 647.86 503.36, 649.33 503.97, 651.90 504.73 C 654.46 505.49, 655.34 506.40, 657.21 507.17 C 659.07 507.95, 659.77 508.27, 661.20 508.61 C 662.63 508.95, 663.28 509.31, 664.37 508.87 C 665.46 508.43, 666.41 507.64, 666.65 506.41" style="stroke: black; fill: black;"/><path d="M 789.27,507.28 C 789.54 506.05, 789.36 505.07, 788.28 503.56 C 787.20 502.05, 786.29 500.92, 783.87 499.74 C 781.46 498.55, 779.66 497.84, 776.19 497.65 C 772.72 497.46, 770.63 497.85, 766.52 498.78 C 762.41 499.71, 760.07 500.39, 755.64 502.30 C 751.22 504.21, 748.71 505.46, 744.38 508.34 C 740.04 511.22, 737.70 513.09, 733.97 516.71 C 730.25 520.33, 728.39 522.50, 725.76 526.44 C 723.13 530.37, 721.91 532.51, 720.81 536.38 C 719.71 540.26, 719.36 542.51, 720.27 545.81 C 721.19 549.11, 722.56 551.05, 725.39 552.89 C 728.21 554.73, 730.45 555.18, 734.38 555.01 C 738.32 554.85, 740.60 553.92, 745.06 552.07 C 749.51 550.22, 751.97 548.71, 756.66 545.78 C 761.34 542.85, 763.92 540.88, 768.47 537.42 C 773.03 533.96, 775.40 531.86, 779.43 528.47 C 783.47 525.07, 785.40 523.21, 788.65 520.43 C 791.90 517.65, 793.69 516.61, 795.68 514.57 C 797.66 512.52, 798.14 511.38, 798.58 510.20 C 799.03 509.02, 798.51 508.37, 797.89 508.67 C 797.28 508.97, 795.97 509.41, 795.50 511.69 C 795.03 513.97, 795.59 515.78, 795.54 520.07 C 795.49 524.35, 795.55 527.17, 795.26 533.10 C 794.97 539.04, 794.73 542.64, 794.10 549.76 C 793.48 556.88, 793.13 560.96, 792.14 568.69 C 791.16 576.42, 790.60 580.66, 789.19 588.41 C 787.78 596.16, 787.03 600.24, 785.10 607.43 C 783.17 614.62, 782.07 618.23, 779.53 624.37 C 776.99 630.51, 775.49 633.40, 772.40 638.11 C 769.31 642.82, 767.59 644.82, 764.08 647.93 C 760.58 651.03, 758.63 652.09, 754.87 653.65 C 751.11 655.20, 749.16 655.57, 745.30 655.71 C 741.44 655.85, 739.39 655.52, 735.56 654.36 C 731.74 653.20, 729.67 652.21, 726.18 649.89 C 722.69 647.57, 720.91 646.01, 718.12 642.76 C 715.33 639.51, 714.01 637.54, 712.24 633.64 C 710.47 629.75, 709.76 627.58, 709.26 623.29 C 708.75 619.00, 708.77 616.70, 709.73 612.19 C 710.68 607.69, 711.50 605.33, 714.03 600.77 C 716.56 596.21, 718.23 593.80, 722.37 589.40 C 726.52 585.00, 729.17 582.73, 734.77 578.77 C 740.37 574.80, 743.74 572.91, 750.39 569.56 C 757.04 566.22, 760.76 564.70, 768.01 562.05 C 775.26 559.39, 779.25 558.33, 786.65 556.30 C 794.06 554.27, 797.89 553.50, 805.03 551.91 C 812.16 550.32, 815.67 549.68, 822.33 548.34 C 828.99 547.00, 832.22 546.54, 838.34 545.19 C 844.45 543.84, 847.35 543.21, 852.90 541.59 C 858.45 539.98, 861.12 539.14, 866.10 537.10 C 871.08 535.07, 873.49 533.97, 877.80 531.42 C 882.10 528.87, 884.17 527.40, 887.62 524.35 C 891.07 521.30, 892.65 519.58, 895.07 516.18 C 897.48 512.77, 898.51 510.90, 899.68 507.32 C 900.85 503.75, 901.28 501.75, 900.91 498.30 C 900.54 494.86, 899.86 492.87, 897.83 490.09 C 895.79 487.30, 894.09 485.89, 890.73 484.39 C 887.37 482.89, 885.17 482.54, 881.01 482.57 C 876.85 482.60, 874.42 483.02, 869.94 484.54 C 865.47 486.06, 862.88 487.21, 858.64 490.18 C 854.39 493.15, 852.14 495.17, 848.72 499.39 C 845.30 503.61, 843.61 506.20, 841.54 511.28 C 839.46 516.36, 838.62 519.33, 838.36 524.80 C 838.10 530.27, 838.39 533.35, 840.22 538.61 C 842.06 543.88, 843.67 546.65, 847.53 551.14 C 851.40 555.62, 854.08 557.73, 859.56 561.03 C 865.04 564.34, 868.41 565.63, 874.94 567.67 C 881.48 569.71, 885.17 570.44, 892.22 571.22 C 899.28 572.01, 903.55 571.81, 910.21 571.62 C 916.87 571.42, 920.49 570.99, 925.51 570.23 C 930.52 569.47, 933.45 568.87, 935.30 567.83 C 937.14 566.78, 936.80 565.28, 934.74 565.00 C 932.68 564.71, 929.93 565.84, 925.00 566.41 C 920.07 566.98, 916.56 567.57, 910.08 567.83 C 903.60 568.08, 899.42 568.41, 892.61 567.69 C 885.80 566.96, 882.24 566.20, 876.04 564.21 C 869.83 562.23, 866.64 560.89, 861.56 557.75 C 856.48 554.61, 854.09 552.60, 850.63 548.49 C 847.17 544.39, 845.83 541.93, 844.25 537.23 C 842.67 532.54, 842.45 529.88, 842.74 525.04 C 843.04 520.19, 843.79 517.54, 845.71 513.02 C 847.63 508.49, 849.21 506.13, 852.36 502.41 C 855.52 498.69, 857.64 496.91, 861.49 494.43 C 865.35 491.94, 867.76 491.07, 871.64 490.00 C 875.52 488.92, 877.66 488.86, 880.89 489.03 C 884.11 489.20, 885.53 489.78, 887.76 490.85 C 889.99 491.92, 890.78 492.71, 892.02 494.37 C 893.27 496.03, 893.66 496.91, 893.98 499.14 C 894.30 501.38, 894.34 502.74, 893.62 505.52 C 892.90 508.31, 892.27 510.03, 890.39 513.05 C 888.51 516.08, 887.20 517.75, 884.21 520.64 C 881.21 523.54, 879.35 525.00, 875.40 527.52 C 871.45 530.04, 869.19 531.17, 864.46 533.25 C 859.74 535.32, 857.17 536.21, 851.78 537.91 C 846.40 539.60, 843.57 540.29, 837.54 541.72 C 831.52 543.16, 828.30 543.67, 821.66 545.09 C 815.01 546.52, 811.49 547.19, 804.33 548.83 C 797.17 550.48, 793.32 551.27, 785.84 553.32 C 778.36 555.38, 774.33 556.46, 766.95 559.12 C 759.57 561.78, 755.78 563.29, 748.94 566.64 C 742.10 569.99, 738.62 571.85, 732.75 575.86 C 726.88 579.87, 724.06 582.14, 719.57 586.70 C 715.08 591.25, 713.18 593.75, 710.31 598.65 C 707.44 603.54, 706.38 606.15, 705.20 611.18 C 704.02 616.21, 703.91 618.91, 704.40 623.82 C 704.89 628.72, 705.69 631.24, 707.65 635.70 C 709.61 640.15, 711.08 642.38, 714.21 646.09 C 717.33 649.80, 719.31 651.58, 723.29 654.23 C 727.26 656.89, 729.62 658.05, 734.07 659.36 C 738.53 660.66, 741.02 661.03, 745.55 660.74 C 750.09 660.46, 752.47 659.87, 756.74 657.92 C 761.01 655.98, 763.15 654.56, 766.91 651.00 C 770.66 647.43, 772.38 645.17, 775.52 640.10 C 778.67 635.02, 780.11 631.99, 782.63 625.62 C 785.15 619.25, 786.21 615.56, 788.13 608.23 C 790.05 600.90, 790.79 596.79, 792.24 588.97 C 793.69 581.15, 794.27 576.89, 795.39 569.13 C 796.51 561.37, 796.91 557.28, 797.83 550.16 C 798.74 543.05, 799.12 539.47, 799.97 533.56 C 800.82 527.65, 801.40 524.95, 802.07 520.61 C 802.75 516.28, 803.67 514.59, 803.33 511.89 C 802.98 509.19, 801.85 508.19, 800.36 507.11 C 798.87 506.03, 797.77 505.97, 795.88 506.49 C 793.99 507.01, 793.09 507.68, 790.92 509.70 C 788.75 511.73, 787.93 513.55, 785.02 516.60 C 782.12 519.64, 780.24 521.51, 776.38 524.94 C 772.52 528.37, 770.17 530.44, 765.71 533.75 C 761.26 537.07, 758.64 538.92, 754.10 541.52 C 749.56 544.12, 747.02 545.34, 743.01 546.74 C 739.01 548.13, 736.93 548.34, 734.08 548.49 C 731.22 548.65, 730.25 548.37, 728.72 547.52 C 727.19 546.66, 726.87 546.13, 726.42 544.20 C 725.97 542.28, 725.72 540.89, 726.46 537.90 C 727.21 534.92, 727.96 532.81, 730.15 529.28 C 732.35 525.75, 734.05 523.60, 737.45 520.27 C 740.85 516.94, 743.10 515.18, 747.16 512.64 C 751.21 510.10, 753.64 509.01, 757.72 507.57 C 761.81 506.13, 764.09 505.71, 767.57 505.43 C 771.06 505.16, 772.63 505.66, 775.16 506.20 C 777.68 506.73, 778.46 507.46, 780.20 508.10 C 781.94 508.75, 782.53 509.10, 783.87 509.42 C 785.21 509.73, 785.82 510.10, 786.90 509.67 C 787.98 509.24, 788.99 508.50, 789.27 507.28" style="stroke: black; fill: black;"/></svg>