<svg xmlns="http://www.w3.org/2000/svg" id="canvas" viewBox="308.310 398.590 972.419 157.029"><path d="M 392.78,404.28 C 391.43 402.83, 389.28 402.22, 385.51 401.79 C 381.75 401.35, 379.01 401.72, 373.95 402.10 C 368.90 402.48, 365.80 402.65, 360.23 403.69 C 354.66 404.74, 351.33 405.35, 346.10 407.34 C 340.87 409.32, 338.34 410.71, 334.07 413.64 C 329.80 416.56, 327.58 418.11, 324.74 421.94 C 321.90 425.77, 320.43 428.27, 319.86 432.79 C 319.28 437.31, 319.68 440.10, 321.86 444.54 C 324.04 448.98, 326.11 450.99, 330.74 454.96 C 335.38 458.94, 338.51 460.75, 345.02 464.43 C 351.53 468.11, 355.74 469.84, 363.30 473.37 C 370.85 476.91, 375.46 478.52, 382.80 482.11 C 390.13 485.71, 393.91 487.51, 399.97 491.35 C 406.03 495.19, 409.01 497.41, 413.09 501.31 C 417.18 505.21, 418.66 507.29, 420.38 510.84 C 422.11 514.40, 422.22 515.98, 421.71 519.07 C 421.21 522.17, 420.65 523.45, 417.84 526.32 C 415.04 529.19, 412.83 530.67, 407.70 533.42 C 402.56 536.16, 399.05 537.79, 392.17 540.05 C 385.29 542.31, 380.94 543.29, 373.28 544.73 C 365.63 546.18, 361.15 546.70, 353.90 547.25 C 346.65 547.80, 342.85 547.93, 337.04 547.48 C 331.23 547.04, 328.58 546.06, 324.84 545.02 C 321.11 543.99, 320.23 542.85, 318.36 542.29 C 316.50 541.73, 315.97 541.97, 315.52 542.22 C 315.07 542.48, 315.48 542.92, 316.10 543.55 C 316.73 544.18, 317.68 545.13, 318.64 545.39 C 319.59 545.65, 320.47 545.82, 320.88 544.85 C 321.29 543.89, 321.28 542.31, 320.70 540.58 C 320.12 538.85, 319.27 537.50, 317.98 536.22 C 316.69 534.93, 315.43 534.13, 314.25 534.16 C 313.06 534.18, 312.64 534.97, 312.05 536.36 C 311.46 537.74, 311.30 539.26, 311.31 541.09 C 311.32 542.91, 311.25 543.90, 312.10 545.50 C 312.94 547.10, 313.24 547.94, 315.52 549.11 C 317.79 550.28, 319.21 550.65, 323.47 551.34 C 327.73 552.04, 330.65 552.51, 336.81 552.60 C 342.97 552.69, 346.82 552.47, 354.28 551.78 C 361.73 551.10, 366.23 550.59, 374.10 549.19 C 381.97 547.78, 386.41 546.91, 393.64 544.75 C 400.87 542.59, 404.52 541.22, 410.25 538.40 C 415.98 535.57, 418.77 534.30, 422.29 530.62 C 425.82 526.94, 427.24 524.46, 427.87 520.00 C 428.50 515.54, 427.74 512.76, 425.44 508.30 C 423.15 503.85, 421.03 501.85, 416.40 497.72 C 411.76 493.59, 408.61 491.53, 402.26 487.66 C 395.91 483.79, 392.05 482.02, 384.64 478.37 C 377.22 474.72, 372.61 473.06, 365.19 469.42 C 357.76 465.79, 353.64 463.94, 347.51 460.20 C 341.38 456.46, 338.49 454.41, 334.54 450.72 C 330.59 447.02, 329.30 445.13, 327.74 441.73 C 326.18 438.34, 326.26 436.89, 326.75 433.74 C 327.23 430.59, 327.99 428.95, 330.19 425.98 C 332.38 423.01, 334.09 421.44, 337.72 418.90 C 341.34 416.35, 343.57 414.95, 348.30 413.24 C 353.02 411.53, 356.13 411.09, 361.34 410.35 C 366.54 409.61, 369.55 409.64, 374.32 409.54 C 379.08 409.45, 381.56 409.98, 385.15 409.88 C 388.73 409.77, 390.71 410.14, 392.23 409.02 C 393.76 407.90, 394.12 405.73, 392.78 404.28" style="stroke: black; fill: black;"/><path d="M 438.24,515.46 C 439.34 516.40, 439.81 516.24, 441.49 516.34 C 443.17 516.43, 444.34 516.95, 446.65 515.94 C 448.96 514.92, 450.37 513.30, 453.05 511.28 C 455.72 509.26, 456.97 508.13, 460.01 505.84 C 463.04 503.55, 465.28 502.46, 468.22 499.83 C 471.16 497.21, 472.93 495.81, 474.70 492.73 C 476.48 489.65, 476.99 487.85, 477.11 484.43 C 477.23 481.02, 476.98 478.73, 475.31 475.65 C 473.63 472.57, 471.92 470.72, 468.73 469.03 C 465.54 467.33, 463.31 467.29, 459.36 467.16 C 455.40 467.02, 453.12 467.20, 448.96 468.34 C 444.80 469.49, 442.30 470.37, 438.55 472.88 C 434.80 475.40, 432.64 477.19, 430.22 480.91 C 427.80 484.63, 426.70 487.07, 426.45 491.48 C 426.21 495.90, 426.73 498.77, 428.98 502.98 C 431.24 507.20, 433.30 509.20, 437.72 512.55 C 442.13 515.89, 445.18 517.40, 451.06 519.69 C 456.93 521.97, 460.28 522.91, 467.09 523.98 C 473.90 525.05, 477.97 524.97, 485.09 525.04 C 492.22 525.11, 496.14 525.08, 502.74 524.34 C 509.33 523.59, 512.38 522.88, 518.06 521.31 C 523.74 519.74, 526.84 518.57, 531.13 516.48 C 535.42 514.38, 537.25 513.12, 539.51 510.81 C 541.77 508.51, 542.35 506.61, 542.43 504.96 C 542.50 503.32, 541.41 502.53, 539.89 502.60 C 538.37 502.67, 537.18 503.68, 534.82 505.31 C 532.46 506.94, 531.74 508.61, 528.07 510.77 C 524.41 512.93, 521.67 514.39, 516.48 516.12 C 511.29 517.84, 508.41 518.59, 502.14 519.40 C 495.88 520.20, 491.99 520.22, 485.15 520.12 C 478.31 520.02, 474.32 520.04, 467.94 518.90 C 461.56 517.75, 458.47 516.69, 453.24 514.40 C 448.00 512.10, 445.32 510.37, 441.76 507.42 C 438.20 504.47, 436.93 502.73, 435.44 499.67 C 433.96 496.60, 434.00 494.91, 434.33 492.10 C 434.65 489.29, 435.28 487.99, 437.06 485.62 C 438.84 483.25, 440.41 481.89, 443.22 480.24 C 446.03 478.58, 448.01 477.94, 451.12 477.35 C 454.22 476.76, 456.18 477.03, 458.75 477.28 C 461.32 477.54, 462.34 477.95, 463.96 478.63 C 465.58 479.32, 466.03 479.67, 466.83 480.72 C 467.63 481.78, 468.11 482.59, 467.96 483.91 C 467.81 485.22, 467.31 485.57, 466.06 487.28 C 464.82 488.98, 464.09 490.43, 461.75 492.43 C 459.40 494.44, 457.34 495.57, 454.33 497.30 C 451.33 499.03, 449.59 499.65, 446.72 501.06 C 443.85 502.47, 441.93 502.93, 440.00 504.35 C 438.06 505.78, 437.83 506.75, 437.03 508.21 C 436.22 509.67, 435.73 510.21, 435.97 511.66 C 436.21 513.11, 437.14 514.52, 438.24 515.46" style="stroke: black; fill: black;"/><path d="M 536.28,404.50 C 535.39 405.95, 535.39 407.23, 536.01 410.40 C 536.62 413.56, 537.83 415.42, 539.36 420.32 C 540.90 425.23, 542.04 428.69, 543.69 434.91 C 545.35 441.13, 546.25 444.85, 547.64 451.44 C 549.02 458.04, 549.75 461.60, 550.61 467.88 C 551.47 474.15, 551.57 477.43, 551.95 482.83 C 552.32 488.22, 552.07 490.78, 552.48 494.86 C 552.90 498.94, 552.63 501.13, 554.02 503.23 C 555.41 505.33, 557.25 505.57, 559.42 505.37 C 561.59 505.16, 563.27 504.19, 564.88 502.20 C 566.48 500.20, 566.03 498.61, 567.45 495.39 C 568.86 492.16, 569.26 489.67, 571.95 486.07 C 574.63 482.48, 576.53 480.19, 580.88 477.42 C 585.23 474.65, 588.14 473.54, 593.71 472.21 C 599.28 470.89, 603.04 470.63, 608.74 470.80 C 614.45 470.97, 617.45 471.40, 622.22 473.06 C 626.99 474.73, 629.04 476.43, 632.59 479.13 C 636.14 481.83, 637.78 483.63, 639.96 486.56 C 642.14 489.49, 642.88 490.91, 643.50 493.79 C 644.12 496.66, 643.94 498.05, 643.04 500.95 C 642.14 503.85, 641.59 505.36, 639.00 508.28 C 636.42 511.19, 634.51 512.84, 630.09 515.52 C 625.67 518.20, 622.53 519.75, 616.89 521.67 C 611.24 523.59, 607.94 524.34, 601.87 525.11 C 595.80 525.88, 592.20 525.83, 586.54 525.53 C 580.89 525.24, 577.99 524.80, 573.58 523.63 C 569.17 522.47, 567.10 521.21, 564.47 519.71 C 561.84 518.21, 561.31 517.30, 560.43 516.12 C 559.55 514.95, 559.31 514.85, 560.08 513.85 C 560.85 512.85, 561.97 512.20, 564.28 511.12 C 566.59 510.04, 568.87 509.77, 571.64 508.42 C 574.42 507.08, 577.07 506.23, 578.15 504.41 C 579.23 502.58, 578.94 500.46, 577.04 499.28 C 575.13 498.10, 572.31 497.90, 568.64 498.51 C 564.97 499.12, 561.98 499.84, 558.69 502.31 C 555.41 504.78, 553.19 507.28, 552.22 510.85 C 551.25 514.43, 552.09 517.13, 553.84 520.20 C 555.59 523.27, 557.29 524.31, 560.97 526.21 C 564.64 528.11, 567.14 528.73, 572.21 529.70 C 577.29 530.68, 580.27 530.91, 586.33 531.07 C 592.40 531.23, 596.08 531.28, 602.54 530.48 C 609.00 529.69, 612.50 529.00, 618.64 527.10 C 624.78 525.20, 628.14 523.80, 633.24 520.98 C 638.34 518.17, 640.76 516.59, 644.15 513.04 C 647.55 509.48, 648.89 507.38, 650.21 503.21 C 651.54 499.03, 651.75 496.33, 650.78 492.15 C 649.81 487.98, 648.30 485.94, 645.38 482.33 C 642.46 478.73, 640.46 477.07, 636.19 474.13 C 631.92 471.20, 629.49 469.43, 624.03 467.66 C 618.58 465.88, 615.23 465.46, 608.91 465.26 C 602.60 465.07, 598.70 465.34, 592.46 466.69 C 586.22 468.05, 582.96 469.17, 577.72 472.03 C 572.47 474.88, 570.07 477.24, 566.23 480.97 C 562.38 484.69, 560.63 487.13, 558.48 490.64 C 556.33 494.15, 555.62 496.03, 555.48 498.51 C 555.33 500.99, 556.70 502.44, 557.75 503.04 C 558.79 503.65, 560.31 503.37, 560.70 501.54 C 561.09 499.72, 560.33 497.79, 559.72 493.92 C 559.11 490.06, 558.43 487.56, 557.64 482.21 C 556.84 476.85, 556.70 473.49, 555.74 467.14 C 554.77 460.78, 554.05 457.14, 552.82 450.42 C 551.58 443.70, 550.86 439.93, 549.58 433.54 C 548.29 427.15, 547.49 423.58, 546.41 418.48 C 545.33 413.38, 545.37 411.09, 544.18 408.02 C 542.98 404.96, 542.03 403.86, 540.44 403.16 C 538.86 402.45, 537.16 403.05, 536.28 404.50" style="stroke: black; fill: black;"/><path d="M 723.36,469.33 C 723.18 467.47, 722.42 466.00, 720.22 464.29 C 718.02 462.58, 716.02 461.30, 712.35 460.78 C 708.67 460.27, 705.75 460.34, 701.84 461.70 C 697.94 463.06, 696.12 464.64, 692.82 467.60 C 689.51 470.56, 688.05 472.67, 685.31 476.50 C 682.58 480.33, 680.93 482.55, 679.14 486.75 C 677.35 490.95, 676.51 493.37, 676.35 497.48 C 676.20 501.60, 676.62 503.94, 678.38 507.33 C 680.14 510.72, 681.85 512.48, 685.14 514.45 C 688.42 516.42, 690.81 516.82, 694.81 517.18 C 698.82 517.54, 701.00 517.16, 705.15 516.26 C 709.30 515.36, 711.54 514.76, 715.54 512.67 C 719.55 510.58, 721.81 509.22, 725.18 505.81 C 728.56 502.41, 730.04 500.06, 732.42 495.64 C 734.81 491.22, 735.70 488.28, 737.09 483.70 C 738.48 479.12, 739.59 476.37, 739.39 472.74 C 739.20 469.11, 738.05 467.06, 736.11 465.54 C 734.17 464.03, 731.80 463.78, 729.69 465.17 C 727.57 466.57, 725.83 468.97, 725.53 472.50 C 725.23 476.04, 726.45 478.88, 728.19 482.84 C 729.93 486.81, 731.39 488.81, 734.24 492.32 C 737.08 495.83, 738.73 497.85, 742.43 500.41 C 746.13 502.98, 748.58 503.77, 752.73 505.16 C 756.88 506.55, 759.06 506.83, 763.17 507.36 C 767.28 507.89, 769.36 508.00, 773.29 507.80 C 777.22 507.60, 779.51 507.29, 782.80 506.36 C 786.09 505.43, 787.58 504.73, 789.73 503.13 C 791.88 501.53, 793.19 500.09, 793.54 498.38 C 793.90 496.66, 793.06 495.26, 791.52 494.55 C 789.99 493.84, 788.17 494.34, 785.87 494.81 C 783.56 495.28, 782.66 496.07, 779.99 496.91 C 777.31 497.75, 775.67 498.57, 772.48 499.02 C 769.30 499.48, 767.52 499.49, 764.07 499.18 C 760.61 498.88, 758.61 498.58, 755.22 497.52 C 751.82 496.45, 749.88 495.92, 747.10 493.87 C 744.32 491.81, 743.09 490.16, 741.33 487.25 C 739.58 484.33, 739.09 482.43, 738.33 479.28 C 737.57 476.13, 738.33 473.98, 737.52 471.50 C 736.72 469.01, 735.64 467.62, 734.31 466.84 C 732.98 466.06, 731.77 466.43, 730.86 467.59 C 729.96 468.74, 730.08 469.78, 729.80 472.61 C 729.52 475.44, 730.23 477.83, 729.46 481.75 C 728.68 485.68, 727.83 488.48, 725.93 492.23 C 724.02 495.97, 722.72 497.84, 719.94 500.47 C 717.16 503.11, 715.32 503.98, 712.04 505.40 C 708.75 506.83, 706.80 507.12, 703.53 507.61 C 700.26 508.09, 698.45 508.10, 695.70 507.82 C 692.96 507.54, 691.68 507.17, 689.81 506.21 C 687.94 505.25, 687.33 504.72, 686.35 503.03 C 685.36 501.35, 684.82 500.39, 684.90 497.78 C 684.98 495.18, 685.35 493.31, 686.76 490.01 C 688.18 486.72, 689.64 484.49, 691.98 481.32 C 694.31 478.16, 695.92 476.17, 698.42 474.18 C 700.93 472.18, 702.15 471.72, 704.51 471.35 C 706.87 470.98, 707.97 471.76, 710.22 472.34 C 712.47 472.91, 713.59 473.96, 715.76 474.21 C 717.94 474.47, 719.60 474.59, 721.12 473.61 C 722.64 472.64, 723.54 471.20, 723.36 469.33" style="stroke: black; fill: black;"/><path d="M 842.46,457.74 C 841.90 455.90, 840.65 454.28, 837.98 453.02 C 835.31 451.75, 833.02 451.73, 829.12 451.42 C 825.21 451.12, 822.67 451.11, 818.45 451.49 C 814.23 451.86, 811.52 451.80, 808.01 453.29 C 804.49 454.79, 802.56 456.23, 800.89 458.97 C 799.21 461.71, 798.78 464.00, 799.64 466.99 C 800.50 469.98, 801.72 471.63, 805.19 473.93 C 808.66 476.22, 811.60 476.71, 816.99 478.47 C 822.39 480.24, 825.97 480.93, 832.16 482.76 C 838.35 484.59, 842.12 485.67, 847.94 487.63 C 853.76 489.59, 856.79 490.57, 861.25 492.56 C 865.72 494.55, 867.61 496.06, 870.25 497.58 C 872.89 499.10, 873.85 499.66, 874.45 500.15 C 875.05 500.63, 874.56 499.69, 873.26 500.02 C 871.96 500.35, 870.73 500.73, 867.95 501.80 C 865.17 502.87, 863.45 504.19, 859.35 505.38 C 855.24 506.58, 852.21 507.03, 847.45 507.77 C 842.68 508.52, 840.19 508.74, 835.50 509.10 C 830.81 509.46, 828.41 509.69, 824.00 509.57 C 819.59 509.44, 816.99 508.92, 813.45 508.47 C 809.90 508.01, 808.66 507.33, 806.28 507.30 C 803.89 507.27, 802.66 507.48, 801.53 508.31 C 800.39 509.15, 800.01 510.12, 800.61 511.46 C 801.20 512.80, 802.12 513.94, 804.51 515.00 C 806.90 516.07, 808.65 516.45, 812.56 516.79 C 816.46 517.14, 819.35 516.89, 824.03 516.72 C 828.72 516.54, 831.13 516.26, 835.99 515.93 C 840.85 515.61, 843.26 515.52, 848.32 515.09 C 853.38 514.66, 856.59 514.64, 861.31 513.78 C 866.03 512.91, 868.45 512.45, 871.92 510.75 C 875.38 509.06, 877.02 507.91, 878.62 505.30 C 880.21 502.69, 880.76 500.54, 879.89 497.72 C 879.02 494.90, 877.51 493.37, 874.25 491.19 C 870.98 489.02, 868.46 488.64, 863.57 486.84 C 858.67 485.04, 855.66 484.19, 849.75 482.21 C 843.84 480.24, 840.06 479.06, 834.02 476.96 C 827.98 474.86, 824.40 473.82, 819.55 471.71 C 814.70 469.60, 812.51 467.90, 809.77 466.42 C 807.03 464.93, 806.49 464.70, 805.86 464.28 C 805.23 463.86, 805.53 464.55, 806.63 464.30 C 807.73 464.06, 808.81 463.64, 811.34 463.07 C 813.87 462.51, 815.92 461.73, 819.28 461.48 C 822.64 461.22, 824.93 461.44, 828.14 461.81 C 831.34 462.17, 832.78 463.22, 835.31 463.31 C 837.85 463.39, 839.38 463.35, 840.81 462.24 C 842.24 461.13, 843.03 459.59, 842.46 457.74" style="stroke: black; fill: black;"/><path d="M 887.10,410.54 C 886.64 411.63, 886.33 411.40, 886.58 412.87 C 886.83 414.33, 886.99 415.02, 888.35 417.87 C 889.71 420.72, 891.29 422.56, 893.36 427.12 C 895.44 431.69, 896.85 435.01, 898.74 440.69 C 900.63 446.38, 901.37 449.76, 902.80 455.53 C 904.24 461.30, 904.77 463.99, 905.92 469.54 C 907.08 475.08, 907.65 477.98, 908.57 483.27 C 909.50 488.56, 909.79 491.61, 910.53 495.99 C 911.27 500.36, 911.38 502.23, 912.29 505.13 C 913.21 508.03, 913.84 509.52, 915.10 510.48 C 916.36 511.45, 917.69 511.32, 918.60 509.96 C 919.52 508.60, 919.92 506.78, 919.67 503.70 C 919.43 500.62, 918.43 498.90, 917.38 494.57 C 916.34 490.25, 915.64 487.32, 914.43 482.08 C 913.22 476.84, 912.54 473.95, 911.32 468.38 C 910.11 462.81, 909.63 460.13, 908.34 454.24 C 907.04 448.34, 906.36 444.86, 904.86 438.91 C 903.36 432.96, 902.17 429.58, 900.83 424.48 C 899.50 419.38, 899.65 416.84, 898.17 413.43 C 896.69 410.02, 895.30 408.63, 893.44 407.43 C 891.58 406.23, 890.14 406.82, 888.87 407.44 C 887.60 408.06, 887.56 409.46, 887.10 410.54" style="stroke: black; fill: black;"/><path d="M 893.16,483.63 C 894.74 484.34, 896.07 484.34, 898.62 483.42 C 901.17 482.49, 902.34 480.95, 905.90 478.99 C 909.45 477.02, 911.80 475.55, 916.38 473.60 C 920.97 471.66, 924.09 471.01, 928.84 469.25 C 933.59 467.49, 935.92 466.39, 940.15 464.79 C 944.38 463.20, 946.48 462.32, 950.00 461.28 C 953.53 460.23, 955.39 460.06, 957.77 459.55 C 960.16 459.05, 960.75 458.52, 961.94 458.75 C 963.12 458.98, 963.04 459.26, 963.71 460.71 C 964.39 462.15, 964.66 463.12, 965.31 466.00 C 965.95 468.87, 966.26 471.02, 966.94 475.08 C 967.61 479.14, 967.74 481.89, 968.66 486.29 C 969.57 490.68, 970.11 493.27, 971.52 497.06 C 972.92 500.86, 973.71 502.66, 975.68 505.26 C 977.66 507.86, 979.21 508.97, 981.38 510.07 C 983.55 511.16, 984.88 510.77, 986.54 510.74 C 988.21 510.70, 988.81 510.40, 989.69 509.91 C 990.57 509.42, 991.10 509.38, 990.96 508.28 C 990.82 507.19, 989.71 505.22, 988.99 504.42 C 988.26 503.62, 987.71 504.25, 987.34 504.28 C 986.98 504.32, 987.29 504.78, 987.15 504.57 C 987.02 504.36, 987.33 504.34, 986.68 503.24 C 986.02 502.14, 985.31 501.00, 983.89 499.09 C 982.47 497.18, 980.96 496.60, 979.59 493.71 C 978.21 490.82, 977.76 488.59, 977.01 484.63 C 976.27 480.67, 976.27 478.10, 975.87 473.92 C 975.46 469.73, 975.90 467.43, 974.99 463.71 C 974.07 459.99, 973.47 457.89, 971.30 455.33 C 969.13 452.77, 967.21 451.87, 964.15 450.90 C 961.09 449.94, 959.38 449.89, 956.02 450.50 C 952.66 451.10, 951.04 452.38, 947.35 453.94 C 943.66 455.50, 941.73 456.55, 937.56 458.31 C 933.40 460.06, 931.30 461.08, 926.52 462.69 C 921.73 464.31, 918.55 464.74, 913.65 466.39 C 908.76 468.04, 906.04 469.27, 902.04 470.92 C 898.04 472.57, 895.93 472.85, 893.67 474.63 C 891.40 476.42, 890.82 478.05, 890.72 479.84 C 890.61 481.64, 891.58 482.91, 893.16 483.63" style="stroke: black; fill: black;"/><path d="M 959.81,411.56 C 960.23 409.81, 960.16 408.55, 959.51 408.85 C 958.86 409.16, 957.25 411.80, 956.54 413.09 C 955.84 414.38, 955.78 415.63, 955.99 415.29 C 956.19 414.96, 957.77 411.93, 957.57 411.43 C 957.36 410.93, 955.72 411.33, 954.98 412.80 C 954.24 414.27, 953.38 417.81, 953.87 418.77 C 954.36 419.73, 956.25 419.04, 957.44 417.59 C 958.62 416.15, 959.40 413.30, 959.81 411.56" style="stroke: black; fill: black;"/><path d="M 1086.76,458.49 C 1087.25 456.62, 1087.04 454.53, 1085.29 452.27 C 1083.53 450.01, 1081.48 448.14, 1077.98 447.18 C 1074.47 446.21, 1071.90 446.46, 1067.77 447.43 C 1063.64 448.40, 1061.36 449.40, 1057.32 452.03 C 1053.28 454.65, 1050.99 456.79, 1047.56 460.54 C 1044.13 464.28, 1042.40 466.57, 1040.17 470.75 C 1037.93 474.94, 1036.98 477.30, 1036.39 481.46 C 1035.80 485.62, 1035.76 487.93, 1037.23 491.57 C 1038.70 495.22, 1040.43 497.28, 1043.73 499.68 C 1047.02 502.09, 1049.51 502.89, 1053.71 503.59 C 1057.92 504.30, 1060.24 503.93, 1064.76 503.20 C 1069.29 502.48, 1072.06 501.85, 1076.32 499.96 C 1080.57 498.08, 1082.69 496.69, 1086.03 493.77 C 1089.38 490.86, 1090.61 488.82, 1093.04 485.37 C 1095.47 481.92, 1097.44 479.64, 1098.19 476.52 C 1098.95 473.40, 1097.88 471.12, 1096.81 469.77 C 1095.74 468.43, 1093.93 468.64, 1092.84 469.79 C 1091.75 470.95, 1090.72 472.88, 1091.37 475.54 C 1092.01 478.20, 1093.52 480.13, 1096.06 483.09 C 1098.61 486.05, 1100.51 487.70, 1104.12 490.34 C 1107.72 492.98, 1110.03 494.45, 1114.09 496.27 C 1118.15 498.09, 1120.47 498.52, 1124.40 499.44 C 1128.34 500.36, 1130.19 500.65, 1133.77 500.88 C 1137.36 501.11, 1139.02 501.33, 1142.32 500.59 C 1145.62 499.86, 1147.51 498.94, 1150.28 497.21 C 1153.06 495.47, 1154.20 494.37, 1156.20 491.93 C 1158.20 489.50, 1159.09 487.76, 1160.28 485.04 C 1161.47 482.31, 1162.23 480.47, 1162.15 478.33 C 1162.07 476.18, 1160.93 474.93, 1159.89 474.32 C 1158.86 473.70, 1157.45 473.97, 1156.97 475.24 C 1156.50 476.51, 1156.36 478.47, 1157.52 480.66 C 1158.68 482.86, 1160.22 484.00, 1162.78 486.21 C 1165.33 488.41, 1166.96 489.78, 1170.32 491.71 C 1173.68 493.64, 1175.68 494.85, 1179.57 495.86 C 1183.46 496.87, 1185.71 496.89, 1189.77 496.77 C 1193.83 496.65, 1195.78 496.31, 1199.86 495.25 C 1203.93 494.20, 1206.21 493.35, 1210.15 491.50 C 1214.10 489.65, 1215.93 488.30, 1219.57 486.01 C 1223.22 483.72, 1224.98 482.12, 1228.39 480.07 C 1231.79 478.01, 1233.88 477.02, 1236.61 475.74 C 1239.34 474.46, 1240.29 474.01, 1242.03 473.65 C 1243.76 473.30, 1243.91 473.12, 1245.28 473.98 C 1246.66 474.85, 1246.89 475.88, 1248.89 477.99 C 1250.88 480.09, 1252.51 481.91, 1255.27 484.49 C 1258.02 487.07, 1259.82 488.70, 1262.66 490.90 C 1265.50 493.10, 1266.87 494.45, 1269.46 495.49 C 1272.06 496.52, 1274.00 496.65, 1275.65 496.09 C 1277.29 495.52, 1277.87 494.32, 1277.70 492.67 C 1277.53 491.01, 1276.50 489.75, 1274.79 487.81 C 1273.07 485.86, 1271.64 485.07, 1269.13 482.92 C 1266.63 480.78, 1264.89 479.59, 1262.24 477.08 C 1259.60 474.58, 1258.58 472.62, 1255.91 470.40 C 1253.23 468.17, 1251.89 467.07, 1248.87 465.97 C 1245.86 464.88, 1244.08 464.58, 1240.84 464.90 C 1237.61 465.23, 1236.07 465.93, 1232.69 467.58 C 1229.31 469.23, 1227.42 470.80, 1223.95 473.16 C 1220.48 475.51, 1218.77 477.16, 1215.35 479.36 C 1211.92 481.57, 1210.31 482.65, 1206.82 484.20 C 1203.33 485.75, 1201.32 486.35, 1197.89 487.11 C 1194.46 487.86, 1192.81 488.03, 1189.68 487.99 C 1186.54 487.94, 1184.92 487.83, 1182.23 486.89 C 1179.54 485.95, 1178.30 485.17, 1176.24 483.29 C 1174.19 481.41, 1173.67 479.80, 1171.94 477.50 C 1170.22 475.20, 1169.84 473.42, 1167.62 471.77 C 1165.40 470.13, 1163.44 469.37, 1160.84 469.26 C 1158.24 469.15, 1156.69 470.04, 1154.60 471.23 C 1152.51 472.43, 1151.53 473.28, 1150.38 475.24 C 1149.23 477.21, 1149.33 478.91, 1148.83 481.07 C 1148.33 483.22, 1148.66 484.55, 1147.88 486.02 C 1147.11 487.49, 1146.56 487.48, 1144.95 488.41 C 1143.33 489.35, 1141.98 490.03, 1139.80 490.69 C 1137.61 491.36, 1136.74 491.69, 1134.03 491.74 C 1131.31 491.80, 1129.51 491.61, 1126.23 490.97 C 1122.95 490.34, 1120.87 490.11, 1117.64 488.57 C 1114.41 487.03, 1112.51 485.73, 1110.09 483.27 C 1107.66 480.82, 1107.07 479.01, 1105.50 476.27 C 1103.94 473.53, 1104.11 471.47, 1102.27 469.58 C 1100.42 467.69, 1098.59 467.09, 1096.29 466.83 C 1093.98 466.57, 1092.45 467.00, 1090.74 468.28 C 1089.02 469.56, 1088.72 470.70, 1087.70 473.23 C 1086.68 475.76, 1087.04 478.00, 1085.64 480.93 C 1084.24 483.85, 1083.21 485.51, 1080.71 487.85 C 1078.21 490.19, 1076.58 491.18, 1073.14 492.61 C 1069.71 494.04, 1067.14 494.52, 1063.55 495.00 C 1059.95 495.47, 1058.12 495.52, 1055.18 495.00 C 1052.25 494.49, 1050.88 493.76, 1048.87 492.41 C 1046.85 491.06, 1046.01 490.21, 1045.10 488.24 C 1044.19 486.27, 1043.94 485.34, 1044.32 482.57 C 1044.70 479.80, 1045.22 477.74, 1047.00 474.40 C 1048.78 471.06, 1050.32 468.90, 1053.25 465.85 C 1056.17 462.81, 1058.40 460.92, 1061.62 459.16 C 1064.85 457.39, 1066.81 457.19, 1069.39 457.02 C 1071.97 456.85, 1072.73 457.65, 1074.53 458.32 C 1076.32 459.00, 1076.71 459.72, 1078.38 460.38 C 1080.04 461.03, 1081.18 461.99, 1082.86 461.61 C 1084.53 461.23, 1086.27 460.35, 1086.76 458.49" style="stroke: black; fill: black;"/></svg>