<svg xmlns="http://www.w3.org/2000/svg" id="canvas" viewBox="202.701 394.473 1000.485 257.013"><path d="M 328.71,399.88 C 327.82 398.77, 326.65 397.95, 324.07 397.61 C 321.50 397.28, 319.69 397.57, 315.82 398.21 C 311.96 398.84, 309.44 399.35, 304.73 400.80 C 300.03 402.24, 297.35 403.22, 292.30 405.44 C 287.24 407.65, 284.42 409.00, 279.46 411.85 C 274.49 414.71, 271.82 416.35, 267.47 419.72 C 263.12 423.10, 260.94 424.99, 257.71 428.73 C 254.48 432.48, 252.99 434.47, 251.31 438.45 C 249.63 442.43, 249.05 444.64, 249.31 448.66 C 249.57 452.67, 250.40 454.83, 252.61 458.54 C 254.82 462.24, 256.66 463.92, 260.36 467.20 C 264.06 470.48, 266.40 471.90, 271.11 474.94 C 275.82 477.98, 278.64 479.38, 283.91 482.40 C 289.18 485.42, 292.18 486.87, 297.47 490.05 C 302.77 493.22, 305.57 494.81, 310.39 498.27 C 315.22 501.73, 317.67 503.62, 321.58 507.36 C 325.50 511.10, 327.30 513.07, 329.95 516.98 C 332.61 520.89, 333.62 522.92, 334.86 526.90 C 336.09 530.89, 336.36 532.93, 336.14 536.90 C 335.92 540.87, 335.48 542.83, 333.75 546.77 C 332.01 550.70, 330.82 552.76, 327.46 556.58 C 324.10 560.40, 321.89 562.39, 316.93 565.85 C 311.96 569.32, 308.88 571.07, 302.62 573.89 C 296.36 576.72, 292.69 578.02, 285.62 579.98 C 278.54 581.94, 274.52 582.76, 267.25 583.69 C 259.98 584.61, 256.03 584.79, 249.27 584.58 C 242.50 584.38, 239.11 583.99, 233.43 582.65 C 227.75 581.30, 225.03 579.93, 220.88 577.87 C 216.72 575.82, 215.32 574.13, 212.66 572.36 C 210.01 570.59, 208.97 569.32, 207.60 569.02 C 206.23 568.71, 205.39 569.37, 205.81 570.83 C 206.22 572.29, 207.04 574.10, 209.68 576.32 C 212.32 578.53, 214.41 579.92, 219.01 581.91 C 223.60 583.91, 226.60 585.08, 232.64 586.29 C 238.67 587.50, 242.18 587.84, 249.18 587.97 C 256.19 588.09, 260.20 587.88, 267.66 586.93 C 275.12 585.98, 279.21 585.15, 286.49 583.20 C 293.77 581.25, 297.53 579.98, 304.06 577.17 C 310.60 574.36, 313.82 572.67, 319.15 569.14 C 324.49 565.61, 326.94 563.62, 330.73 559.54 C 334.52 555.46, 336.05 553.21, 338.10 548.73 C 340.16 544.26, 340.77 541.82, 341.02 537.17 C 341.27 532.51, 340.83 530.01, 339.34 525.47 C 337.84 520.93, 336.55 518.70, 333.56 514.48 C 330.57 510.26, 328.57 508.26, 324.40 504.38 C 320.22 500.50, 317.66 498.61, 312.68 495.07 C 307.71 491.53, 304.85 489.92, 299.52 486.66 C 294.19 483.41, 291.19 481.91, 286.02 478.80 C 280.85 475.70, 278.11 474.20, 273.66 471.12 C 269.22 468.04, 267.08 466.50, 263.81 463.42 C 260.54 460.35, 259.12 458.76, 257.32 455.73 C 255.51 452.70, 255.03 451.33, 254.78 448.27 C 254.54 445.20, 254.79 443.71, 256.10 440.42 C 257.41 437.13, 258.52 435.24, 261.34 431.80 C 264.17 428.37, 266.17 426.46, 270.24 423.25 C 274.30 420.04, 276.88 418.41, 281.66 415.75 C 286.44 413.08, 289.24 411.79, 294.14 409.92 C 299.04 408.04, 301.66 407.31, 306.17 406.38 C 310.68 405.45, 313.09 405.55, 316.69 405.27 C 320.30 404.99, 321.83 405.39, 324.20 404.97 C 326.57 404.55, 327.63 404.20, 328.54 403.18 C 329.44 402.16, 329.61 400.99, 328.71 399.88" style="stroke: black; fill: black;"/><path d="M 400.53,406.79 C 399.53 407.63, 398.99 408.39, 398.63 410.95 C 398.26 413.51, 398.81 415.10, 398.71 419.59 C 398.61 424.09, 398.61 427.05, 398.12 433.41 C 397.62 439.78, 397.21 443.60, 396.24 451.41 C 395.26 459.21, 394.56 463.78, 393.24 472.45 C 391.91 481.13, 391.05 485.91, 389.61 494.78 C 388.17 503.66, 387.36 508.38, 386.05 516.81 C 384.74 525.24, 384.08 529.54, 383.07 536.93 C 382.05 544.33, 381.62 547.90, 380.95 553.77 C 380.28 559.64, 379.91 562.35, 379.70 566.28 C 379.49 570.21, 379.58 571.41, 379.91 573.42 C 380.24 575.44, 380.73 575.78, 381.34 576.35 C 381.94 576.92, 382.39 576.86, 382.94 576.27 C 383.49 575.68, 383.77 575.38, 384.09 573.42 C 384.42 571.46, 384.45 570.34, 384.56 566.48 C 384.66 562.61, 384.30 559.91, 384.61 554.08 C 384.92 548.25, 385.26 544.69, 386.11 537.32 C 386.95 529.95, 387.57 525.65, 388.82 517.23 C 390.06 508.81, 390.88 504.09, 392.35 495.23 C 393.81 486.37, 394.70 481.59, 396.15 472.92 C 397.61 464.25, 398.36 459.69, 399.63 451.89 C 400.89 444.09, 401.47 440.29, 402.46 433.92 C 403.44 427.55, 403.94 424.61, 404.56 420.06 C 405.18 415.51, 405.73 413.84, 405.54 411.18 C 405.35 408.52, 404.60 407.66, 403.60 406.78 C 402.60 405.90, 401.52 405.96, 400.53 406.79" style="stroke: black; fill: black;"/><path d="M 360.71,506.93 C 361.45 508.00, 362.24 508.63, 364.55 509.13 C 366.86 509.63, 368.47 509.45, 372.26 509.45 C 376.06 509.45, 378.54 509.16, 383.54 509.12 C 388.53 509.09, 391.55 509.21, 397.25 509.27 C 402.96 509.33, 406.57 509.40, 412.05 509.43 C 417.53 509.46, 420.48 509.61, 424.67 509.42 C 428.86 509.23, 431.33 509.26, 432.99 508.49 C 434.65 507.73, 434.64 506.35, 432.98 505.60 C 431.32 504.85, 428.85 504.91, 424.67 504.72 C 420.50 504.53, 417.55 504.70, 412.09 504.65 C 406.63 504.59, 403.05 504.67, 397.38 504.44 C 391.71 504.21, 388.72 503.91, 383.76 503.48 C 378.79 503.05, 376.33 502.60, 372.55 502.30 C 368.77 501.99, 367.21 501.65, 364.87 501.95 C 362.53 502.25, 361.68 502.80, 360.85 503.80 C 360.02 504.79, 359.97 505.86, 360.71 506.93" style="stroke: black; fill: black;"/><path d="M 457.88,535.77 C 458.78 536.92, 460.05 537.86, 462.70 538.22 C 465.36 538.58, 467.27 538.29, 471.15 537.56 C 475.02 536.83, 477.62 536.13, 482.08 534.57 C 486.53 533.01, 488.98 531.89, 493.40 529.76 C 497.83 527.63, 500.17 526.37, 504.21 523.92 C 508.25 521.47, 510.29 520.13, 513.62 517.49 C 516.94 514.85, 518.53 513.54, 520.84 510.71 C 523.14 507.88, 524.24 506.36, 525.15 503.34 C 526.05 500.33, 526.11 498.52, 525.36 495.63 C 524.61 492.73, 523.78 490.96, 521.41 488.86 C 519.05 486.76, 517.16 485.85, 513.52 485.11 C 509.88 484.38, 507.64 484.59, 503.23 485.19 C 498.83 485.79, 496.32 486.38, 491.49 488.10 C 486.66 489.83, 483.92 491.04, 479.10 493.81 C 474.28 496.57, 471.69 498.30, 467.39 501.93 C 463.09 505.55, 460.91 507.64, 457.60 511.94 C 454.30 516.24, 452.74 518.68, 450.87 523.42 C 449.00 528.16, 448.33 530.83, 448.25 535.65 C 448.17 540.48, 448.62 543.11, 450.48 547.56 C 452.35 552.02, 453.89 554.33, 457.58 557.93 C 461.27 561.53, 463.79 563.20, 468.92 565.56 C 474.06 567.92, 477.18 568.74, 483.27 569.74 C 489.36 570.75, 492.80 570.87, 499.37 570.59 C 505.94 570.32, 509.53 569.76, 516.12 568.36 C 522.71 566.96, 526.52 565.65, 532.33 563.60 C 538.14 561.56, 541.05 560.25, 545.18 558.14 C 549.30 556.03, 551.68 554.57, 552.96 553.05 C 554.23 551.53, 553.46 550.27, 551.55 550.55 C 549.63 550.82, 547.50 552.56, 543.39 554.42 C 539.27 556.27, 536.58 557.75, 530.97 559.80 C 525.35 561.86, 521.67 563.28, 515.32 564.68 C 508.97 566.08, 505.49 566.58, 499.22 566.79 C 492.95 567.00, 489.65 566.78, 483.97 565.73 C 478.29 564.69, 475.42 563.80, 470.80 561.57 C 466.18 559.34, 464.05 557.76, 460.88 554.58 C 457.71 551.41, 456.51 549.48, 454.94 545.70 C 453.37 541.93, 452.99 539.84, 453.03 535.72 C 453.08 531.60, 453.55 529.31, 455.17 525.10 C 456.79 520.89, 458.13 518.61, 461.15 514.66 C 464.17 510.72, 466.22 508.71, 470.27 505.37 C 474.32 502.03, 476.82 500.40, 481.40 497.95 C 485.97 495.50, 488.65 494.45, 493.13 493.14 C 497.61 491.83, 500.04 491.55, 503.81 491.39 C 507.58 491.22, 509.36 491.71, 511.97 492.32 C 514.58 492.93, 515.45 493.45, 516.88 494.43 C 518.30 495.42, 518.74 495.88, 519.10 497.24 C 519.45 498.61, 519.30 499.36, 518.64 501.28 C 517.98 503.19, 517.52 504.43, 515.80 506.81 C 514.07 509.19, 512.88 510.65, 510.01 513.17 C 507.14 515.69, 505.23 517.09, 501.45 519.42 C 497.68 521.76, 495.38 523.00, 491.14 524.85 C 486.91 526.71, 484.50 527.61, 480.27 528.71 C 476.05 529.82, 473.56 529.98, 470.03 530.40 C 466.51 530.82, 465.00 530.41, 462.63 530.81 C 460.26 531.22, 459.13 531.44, 458.18 532.43 C 457.23 533.42, 456.97 534.61, 457.88 535.77" style="stroke: black; fill: black;"/><path d="M 585.88,501.32 C 585.03 502.21, 584.76 502.93, 584.68 505.18 C 584.59 507.42, 585.06 508.70, 585.44 512.54 C 585.82 516.38, 586.38 518.87, 586.58 524.38 C 586.77 529.89, 586.73 533.19, 586.43 540.07 C 586.13 546.95, 585.76 550.98, 585.06 558.78 C 584.35 566.58, 583.88 570.98, 582.91 579.08 C 581.95 587.18, 581.32 591.53, 580.23 599.28 C 579.14 607.03, 578.53 611.07, 577.46 617.82 C 576.39 624.57, 575.87 627.95, 574.87 633.03 C 573.88 638.12, 572.70 640.26, 572.48 643.23 C 572.26 646.21, 572.86 647.28, 573.78 647.90 C 574.69 648.52, 576.24 648.31, 577.06 646.32 C 577.89 644.34, 577.71 642.49, 577.91 637.97 C 578.12 633.45, 577.84 630.19, 578.09 623.73 C 578.34 617.27, 578.47 613.25, 579.16 605.67 C 579.85 598.09, 580.32 593.84, 581.53 585.84 C 582.74 577.84, 583.48 573.53, 585.20 565.66 C 586.92 557.79, 587.89 553.82, 590.13 546.49 C 592.37 539.17, 593.61 535.54, 596.39 529.04 C 599.17 522.53, 600.74 519.33, 604.03 513.96 C 607.32 508.59, 609.20 506.12, 612.86 502.18 C 616.52 498.25, 618.60 496.62, 622.34 494.28 C 626.08 491.95, 628.13 491.23, 631.56 490.51 C 634.99 489.79, 636.67 489.95, 639.49 490.69 C 642.30 491.42, 643.55 492.11, 645.62 494.21 C 647.70 496.31, 648.72 497.75, 649.88 501.19 C 651.03 504.64, 651.51 506.99, 651.42 511.43 C 651.32 515.86, 650.96 518.58, 649.41 523.37 C 647.86 528.17, 646.58 530.88, 643.68 535.41 C 640.79 539.94, 638.73 542.36, 634.92 546.02 C 631.10 549.68, 628.67 551.35, 624.59 553.70 C 620.51 556.05, 618.15 556.80, 614.51 557.76 C 610.86 558.71, 608.93 558.16, 606.37 558.48 C 603.82 558.80, 603.17 559.12, 601.73 559.34 C 600.30 559.56, 599.87 559.16, 599.19 559.58 C 598.52 560.00, 598.01 560.57, 598.36 561.44 C 598.70 562.32, 599.17 563.17, 600.90 563.96 C 602.64 564.75, 603.96 565.59, 607.02 565.39 C 610.08 565.18, 612.19 564.46, 616.19 562.93 C 620.19 561.39, 622.66 560.47, 627.02 557.72 C 631.37 554.97, 633.90 553.17, 637.98 549.18 C 642.05 545.20, 644.22 542.67, 647.39 537.81 C 650.57 532.95, 652.02 530.11, 653.86 524.87 C 655.69 519.63, 656.30 516.71, 656.57 511.62 C 656.85 506.54, 656.59 503.76, 655.23 499.45 C 653.87 495.14, 652.65 492.92, 649.77 490.06 C 646.89 487.21, 644.72 486.08, 640.84 485.17 C 636.97 484.26, 634.58 484.45, 630.39 485.53 C 626.20 486.60, 623.98 487.75, 619.89 490.56 C 615.81 493.37, 613.74 495.26, 609.97 499.58 C 606.21 503.91, 604.36 506.53, 601.06 512.18 C 597.76 517.82, 596.23 521.12, 593.47 527.81 C 590.71 534.50, 589.49 538.18, 587.25 545.62 C 585.02 553.07, 584.06 557.08, 582.30 565.02 C 580.54 572.97, 579.78 577.30, 578.45 585.35 C 577.12 593.40, 576.62 597.67, 575.63 605.28 C 574.64 612.88, 574.25 616.91, 573.49 623.37 C 572.72 629.83, 572.16 633.04, 571.79 637.59 C 571.43 642.13, 571.01 643.94, 571.66 646.09 C 572.31 648.25, 573.76 648.75, 575.04 648.37 C 576.33 647.99, 577.28 647.13, 578.07 644.19 C 578.86 641.24, 578.44 638.83, 578.99 633.65 C 579.54 628.48, 579.95 625.09, 580.82 618.30 C 581.68 611.51, 582.26 607.47, 583.29 599.70 C 584.32 591.93, 584.95 587.57, 585.97 579.45 C 586.98 571.34, 587.49 566.94, 588.35 559.11 C 589.22 551.29, 589.66 547.27, 590.30 540.34 C 590.94 533.40, 591.19 530.08, 591.56 524.46 C 591.94 518.83, 592.16 516.24, 592.16 512.21 C 592.16 508.19, 592.21 506.62, 591.56 504.33 C 590.91 502.03, 590.05 501.33, 588.91 500.73 C 587.78 500.13, 586.73 500.43, 585.88 501.32" style="stroke: black; fill: black;"/><path d="M 712.63,412.07 C 711.69 412.99, 711.28 413.83, 711.03 416.43 C 710.79 419.03, 711.38 420.63, 711.40 425.08 C 711.43 429.53, 711.59 432.51, 711.16 438.68 C 710.73 444.85, 710.28 448.61, 709.24 455.92 C 708.20 463.23, 707.38 467.42, 705.95 475.24 C 704.53 483.06, 703.63 487.33, 702.11 495.02 C 700.60 502.71, 699.73 506.73, 698.38 513.69 C 697.03 520.65, 696.41 524.16, 695.38 529.80 C 694.34 535.45, 693.58 537.95, 693.21 541.91 C 692.83 545.86, 692.57 547.46, 693.50 549.56 C 694.43 551.66, 695.80 552.42, 697.86 552.41 C 699.91 552.39, 701.56 551.87, 703.80 549.49 C 706.04 547.10, 706.48 544.65, 709.05 540.47 C 711.61 536.30, 713.19 533.46, 716.62 528.61 C 720.04 523.75, 722.15 520.81, 726.19 516.21 C 730.23 511.61, 732.58 509.19, 736.82 505.61 C 741.05 502.04, 743.39 500.50, 747.36 498.34 C 751.34 496.18, 753.40 495.52, 756.69 494.82 C 759.99 494.11, 761.42 494.27, 763.84 494.81 C 766.25 495.36, 767.06 495.81, 768.77 497.55 C 770.49 499.29, 771.27 500.31, 772.43 503.51 C 773.58 506.72, 774.10 508.98, 774.53 513.58 C 774.96 518.18, 774.89 521.17, 774.58 526.50 C 774.26 531.83, 773.68 534.98, 772.94 540.24 C 772.20 545.50, 771.66 548.48, 770.88 552.79 C 770.09 557.10, 769.17 558.95, 769.01 561.79 C 768.85 564.64, 769.53 565.58, 770.07 567.03 C 770.60 568.47, 771.06 568.68, 771.67 569.01 C 772.28 569.35, 772.66 569.11, 773.12 568.71 C 773.57 568.31, 773.42 568.25, 773.95 567.02 C 774.48 565.79, 775.31 565.24, 775.76 562.54 C 776.21 559.84, 775.81 557.85, 776.20 553.52 C 776.59 549.19, 777.07 546.21, 777.72 540.87 C 778.37 535.53, 779.01 532.37, 779.44 526.84 C 779.87 521.30, 780.15 518.24, 779.87 513.19 C 779.60 508.14, 779.41 505.60, 778.08 501.57 C 776.75 497.55, 775.82 495.59, 773.22 493.06 C 770.61 490.52, 768.60 489.58, 765.04 488.90 C 761.49 488.23, 759.42 488.60, 755.43 489.70 C 751.44 490.79, 749.36 491.82, 745.10 494.37 C 740.83 496.91, 738.50 498.62, 734.09 502.43 C 729.69 506.23, 727.31 508.74, 723.05 513.40 C 718.79 518.06, 716.60 521.00, 712.80 525.73 C 709.00 530.45, 707.04 533.17, 704.06 537.03 C 701.07 540.88, 699.34 542.51, 697.88 545.00 C 696.42 547.49, 696.80 548.72, 696.77 549.49 C 696.74 550.25, 697.44 550.24, 697.74 548.81 C 698.04 547.38, 697.98 546.03, 698.28 542.35 C 698.57 538.66, 698.54 536.00, 699.21 530.39 C 699.89 524.77, 700.45 521.24, 701.65 514.29 C 702.84 507.33, 703.69 503.31, 705.18 495.62 C 706.68 487.93, 707.59 483.66, 709.12 475.84 C 710.64 468.01, 711.52 463.83, 712.83 456.49 C 714.14 449.16, 714.76 445.39, 715.66 439.17 C 716.56 432.94, 716.85 429.94, 717.32 425.37 C 717.79 420.80, 718.33 419.05, 718.02 416.34 C 717.70 413.63, 716.81 412.68, 715.73 411.83 C 714.65 410.98, 713.57 411.15, 712.63 412.07" style="stroke: black; fill: black;"/><path d="M 866.90,499.24 C 866.92 497.97, 866.44 497.10, 865.14 495.82 C 863.83 494.53, 862.87 493.64, 860.36 492.81 C 857.85 491.97, 855.93 491.38, 852.59 491.63 C 849.26 491.89, 847.35 492.60, 843.71 494.07 C 840.06 495.54, 838.16 496.49, 834.37 499.00 C 830.58 501.50, 828.46 503.04, 824.77 506.60 C 821.07 510.17, 819.06 512.41, 815.88 516.80 C 812.71 521.20, 811.12 523.82, 808.88 528.58 C 806.65 533.34, 805.69 535.95, 804.69 540.60 C 803.70 545.25, 803.47 547.70, 803.91 551.83 C 804.35 555.97, 804.92 558.17, 806.89 561.25 C 808.86 564.34, 810.50 565.86, 813.77 567.26 C 817.04 568.65, 819.28 568.79, 823.24 568.24 C 827.20 567.70, 829.40 566.77, 833.55 564.53 C 837.71 562.28, 839.79 560.57, 844.01 557.01 C 848.23 553.46, 850.52 551.18, 854.65 546.75 C 858.79 542.31, 860.93 539.60, 864.68 534.84 C 868.44 530.08, 870.28 527.37, 873.43 522.97 C 876.58 518.56, 878.21 516.28, 880.44 512.80 C 882.66 509.33, 883.94 507.66, 884.55 505.60 C 885.16 503.54, 884.35 502.51, 883.48 502.51 C 882.62 502.50, 881.06 503.10, 880.21 505.55 C 879.36 508.00, 879.67 510.28, 879.23 514.78 C 878.78 519.27, 878.54 522.51, 877.99 528.02 C 877.44 533.54, 877.01 536.89, 876.48 542.35 C 875.95 547.80, 875.62 550.69, 875.33 555.30 C 875.04 559.92, 874.82 562.26, 875.02 565.43 C 875.22 568.60, 875.62 569.51, 876.31 571.15 C 877.01 572.79, 877.70 573.12, 878.49 573.64 C 879.29 574.15, 879.88 573.95, 880.29 573.73 C 880.70 573.50, 880.47 572.80, 880.54 572.51 C 880.61 572.21, 880.46 572.69, 880.63 572.24 C 880.80 571.80, 881.22 571.73, 881.39 570.29 C 881.56 568.85, 881.64 568.01, 881.47 565.04 C 881.30 562.08, 880.55 559.89, 880.52 555.45 C 880.49 551.01, 880.75 548.18, 881.31 542.84 C 881.88 537.50, 882.45 534.16, 883.34 528.73 C 884.24 523.31, 884.98 520.18, 885.81 515.71 C 886.63 511.23, 887.73 509.19, 887.47 506.36 C 887.21 503.54, 886.02 502.33, 884.51 501.60 C 883.00 500.86, 881.67 501.00, 879.92 502.68 C 878.17 504.36, 877.81 506.43, 875.78 509.98 C 873.75 513.54, 872.63 516.01, 869.75 520.46 C 866.87 524.91, 865.03 527.58, 861.38 532.24 C 857.73 536.90, 855.58 539.55, 851.50 543.75 C 847.42 547.95, 845.08 550.09, 840.98 553.25 C 836.88 556.41, 834.73 557.80, 831.02 559.54 C 827.31 561.29, 825.39 561.65, 822.45 561.98 C 819.51 562.30, 818.38 562.01, 816.31 561.17 C 814.25 560.34, 813.51 559.83, 812.14 557.82 C 810.78 555.81, 809.99 554.37, 809.49 551.13 C 808.99 547.88, 808.90 545.69, 809.65 541.58 C 810.40 537.48, 811.20 534.98, 813.23 530.60 C 815.25 526.22, 816.77 523.70, 819.78 519.67 C 822.80 515.63, 824.77 513.55, 828.30 510.42 C 831.83 507.30, 833.91 505.96, 837.43 504.05 C 840.94 502.13, 842.82 501.52, 845.88 500.85 C 848.94 500.18, 850.31 500.52, 852.72 500.69 C 855.13 500.86, 856.13 501.38, 857.95 501.71 C 859.77 502.05, 860.41 502.29, 861.83 502.38 C 863.25 502.46, 864.02 502.77, 865.03 502.15 C 866.05 501.52, 866.88 500.50, 866.90 499.24" style="stroke: black; fill: black;"/><path d="M 924.99,497.39 C 924.01 498.31, 923.70 499.33, 923.37 501.67 C 923.04 504.00, 923.36 505.45, 923.33 509.05 C 923.30 512.65, 923.46 515.15, 923.20 519.65 C 922.93 524.16, 922.63 526.86, 922.01 531.57 C 921.39 536.27, 920.91 538.89, 920.11 543.18 C 919.30 547.46, 918.37 549.64, 918.00 552.98 C 917.63 556.31, 917.51 557.88, 918.27 559.86 C 919.03 561.83, 920.04 562.59, 921.80 562.86 C 923.56 563.12, 925.18 563.06, 927.06 561.19 C 928.94 559.31, 929.27 557.28, 931.21 553.47 C 933.15 549.65, 934.08 546.95, 936.76 542.13 C 939.45 537.31, 941.20 534.43, 944.65 529.37 C 948.11 524.32, 950.16 521.43, 954.03 516.86 C 957.90 512.28, 960.04 509.94, 964.01 506.51 C 967.97 503.08, 970.26 501.66, 973.87 499.69 C 977.47 497.72, 979.26 497.20, 982.02 496.66 C 984.79 496.12, 985.83 496.28, 987.70 496.99 C 989.58 497.69, 990.05 498.18, 991.41 500.18 C 992.78 502.19, 993.57 503.47, 994.53 507.01 C 995.48 510.55, 995.86 513.06, 996.20 517.89 C 996.54 522.72, 996.44 525.78, 996.23 531.16 C 996.01 536.55, 995.61 539.64, 995.11 544.80 C 994.61 549.96, 994.06 552.71, 993.74 556.97 C 993.41 561.23, 993.15 563.29, 993.50 566.10 C 993.85 568.91, 994.62 570.05, 995.48 571.01 C 996.35 571.97, 997.06 571.88, 997.82 570.88 C 998.57 569.88, 998.99 568.74, 999.26 566.02 C 999.53 563.29, 999.03 561.43, 999.17 557.27 C 999.30 553.10, 999.55 550.39, 999.93 545.21 C 1000.31 540.04, 1000.76 536.92, 1001.07 531.40 C 1001.39 525.89, 1001.66 522.81, 1001.52 517.64 C 1001.39 512.47, 1001.35 509.83, 1000.40 505.57 C 999.45 501.31, 998.91 499.24, 996.78 496.35 C 994.65 493.46, 992.93 492.18, 989.74 491.13 C 986.54 490.07, 984.46 490.21, 980.80 491.08 C 977.13 491.96, 975.34 493.06, 971.41 495.51 C 967.48 497.95, 965.26 499.57, 961.16 503.31 C 957.06 507.05, 954.91 509.49, 950.90 514.21 C 946.90 518.92, 944.83 521.83, 941.12 526.86 C 937.41 531.90, 935.52 534.76, 932.35 539.39 C 929.17 544.02, 927.55 546.48, 925.25 550.02 C 922.94 553.55, 921.59 554.90, 920.81 557.05 C 920.03 559.20, 920.81 560.22, 921.33 560.76 C 921.85 561.30, 922.72 561.14, 923.41 559.75 C 924.10 558.37, 924.33 556.98, 924.79 553.84 C 925.25 550.70, 925.18 548.35, 925.72 544.06 C 926.26 539.76, 926.77 537.11, 927.50 532.35 C 928.24 527.59, 928.74 524.87, 929.38 520.27 C 930.02 515.67, 930.46 513.11, 930.72 509.34 C 930.98 505.57, 931.17 503.87, 930.68 501.42 C 930.19 498.97, 929.41 497.90, 928.27 497.09 C 927.13 496.28, 925.97 496.48, 924.99 497.39" style="stroke: black; fill: black;"/><path d="M 1054.16,500.63 C 1053.06 501.56, 1052.41 502.70, 1051.94 505.41 C 1051.46 508.12, 1051.96 510.00, 1051.77 514.18 C 1051.59 518.37, 1051.49 521.20, 1051.00 526.33 C 1050.51 531.46, 1050.10 534.49, 1049.33 539.85 C 1048.56 545.20, 1047.99 548.25, 1047.15 553.10 C 1046.30 557.96, 1045.73 560.48, 1045.11 564.10 C 1044.48 567.72, 1044.02 569.02, 1044.04 571.19 C 1044.05 573.37, 1044.69 574.03, 1045.18 574.98 C 1045.67 575.92, 1046.04 575.77, 1046.48 575.92 C 1046.91 576.08, 1046.98 575.91, 1047.35 575.74 C 1047.72 575.57, 1047.76 575.84, 1048.31 575.08 C 1048.86 574.32, 1049.55 573.97, 1050.08 571.94 C 1050.62 569.91, 1050.57 568.55, 1050.98 564.94 C 1051.39 561.32, 1051.48 558.73, 1052.12 553.86 C 1052.75 548.99, 1053.29 545.95, 1054.15 540.58 C 1055.01 535.21, 1055.59 532.18, 1056.41 527.02 C 1057.22 521.85, 1057.65 519.00, 1058.23 514.77 C 1058.81 510.53, 1059.46 508.64, 1059.30 505.83 C 1059.14 503.03, 1058.46 501.79, 1057.43 500.75 C 1056.40 499.71, 1055.26 499.70, 1054.16 500.63" style="stroke: black; fill: black;"/><path d="M 1070.61,436.91 C 1071.85 436.98, 1072.44 436.89, 1072.36 436.73 C 1072.27 436.56, 1071.30 436.33, 1070.19 436.08 C 1069.08 435.83, 1067.95 435.58, 1066.81 435.48 C 1065.68 435.37, 1064.65 435.39, 1064.52 435.56 C 1064.39 435.73, 1064.93 436.07, 1066.15 436.34 C 1067.37 436.61, 1069.36 436.83, 1070.61 436.91" style="stroke: black; fill: black;"/><path d="M 1114.17,528.14 C 1115.10 529.22, 1116.38 529.97, 1118.85 530.18 C 1121.33 530.40, 1123.08 530.10, 1126.53 529.20 C 1129.99 528.30, 1132.21 527.41, 1136.13 525.68 C 1140.04 523.95, 1142.22 522.74, 1146.10 520.55 C 1149.98 518.35, 1152.00 517.09, 1155.53 514.70 C 1159.05 512.31, 1160.80 511.08, 1163.71 508.59 C 1166.62 506.09, 1168.18 504.92, 1170.08 502.22 C 1171.99 499.53, 1172.70 497.97, 1173.24 495.12 C 1173.78 492.26, 1173.74 490.61, 1172.78 487.94 C 1171.81 485.28, 1170.91 483.65, 1168.41 481.79 C 1165.92 479.93, 1164.01 479.24, 1160.30 478.65 C 1156.58 478.05, 1154.34 478.21, 1149.85 478.83 C 1145.36 479.44, 1142.80 480.03, 1137.84 481.72 C 1132.88 483.41, 1130.04 484.55, 1125.07 487.29 C 1120.10 490.04, 1117.39 491.76, 1113.01 495.43 C 1108.63 499.10, 1106.42 501.24, 1103.16 505.65 C 1099.90 510.05, 1098.40 512.56, 1096.72 517.47 C 1095.05 522.37, 1094.51 525.14, 1094.78 530.19 C 1095.06 535.23, 1095.76 537.98, 1098.12 542.69 C 1100.48 547.40, 1102.31 549.78, 1106.59 553.73 C 1110.87 557.68, 1113.65 559.50, 1119.52 562.44 C 1125.39 565.39, 1129.00 566.59, 1135.95 568.44 C 1142.89 570.29, 1146.80 570.88, 1154.25 571.70 C 1161.70 572.52, 1166.29 572.51, 1173.21 572.54 C 1180.14 572.58, 1183.74 572.38, 1188.87 571.87 C 1194.00 571.36, 1196.96 570.93, 1198.88 570.00 C 1200.80 569.07, 1200.55 567.58, 1198.48 567.21 C 1196.42 566.85, 1193.62 567.85, 1188.56 568.19 C 1183.51 568.53, 1180.01 568.89, 1173.22 568.91 C 1166.43 568.93, 1161.89 569.07, 1154.62 568.30 C 1147.35 567.53, 1143.54 566.90, 1136.87 565.05 C 1130.20 563.20, 1126.75 561.91, 1121.27 559.03 C 1115.78 556.16, 1113.28 554.34, 1109.45 550.68 C 1105.62 547.02, 1104.14 544.86, 1102.12 540.71 C 1100.09 536.57, 1099.56 534.30, 1099.33 529.94 C 1099.10 525.58, 1099.50 523.25, 1100.97 518.91 C 1102.44 514.58, 1103.72 512.28, 1106.69 508.26 C 1109.66 504.24, 1111.71 502.20, 1115.82 498.83 C 1119.94 495.45, 1122.55 493.82, 1127.26 491.38 C 1131.97 488.95, 1134.75 487.95, 1139.38 486.66 C 1144.01 485.37, 1146.49 485.07, 1150.41 484.92 C 1154.32 484.78, 1156.17 485.31, 1158.94 485.92 C 1161.71 486.54, 1162.68 487.13, 1164.25 488.00 C 1165.82 488.87, 1166.28 489.15, 1166.78 490.26 C 1167.28 491.38, 1167.24 492.01, 1166.73 493.58 C 1166.23 495.14, 1165.69 496.04, 1164.24 498.11 C 1162.78 500.18, 1161.89 501.59, 1159.48 503.94 C 1157.07 506.29, 1155.44 507.60, 1152.20 509.86 C 1148.95 512.13, 1146.96 513.37, 1143.25 515.27 C 1139.55 517.17, 1137.39 518.13, 1133.67 519.37 C 1129.96 520.60, 1127.78 520.76, 1124.66 521.44 C 1121.55 522.13, 1120.21 522.11, 1118.12 522.78 C 1116.03 523.44, 1114.99 523.69, 1114.20 524.76 C 1113.41 525.83, 1113.24 527.06, 1114.17 528.14" style="stroke: black; fill: black;"/></svg>