<svg xmlns="http://www.w3.org/2000/svg" id="canvas" viewBox="373.613 409.520 484.051 151.918"><path d="M 394.79,422.50 C 393.80 423.03, 393.28 423.77, 392.47 425.69 C 391.67 427.60, 391.34 428.87, 390.78 432.05 C 390.22 435.24, 390.26 437.38, 389.66 441.61 C 389.06 445.84, 388.66 448.28, 387.78 453.22 C 386.89 458.15, 386.31 460.89, 385.25 466.28 C 384.19 471.68, 383.54 474.56, 382.48 480.18 C 381.42 485.80, 380.85 488.81, 379.95 494.39 C 379.06 499.98, 378.62 502.86, 378.00 508.11 C 377.39 513.36, 377.13 515.94, 376.86 520.63 C 376.59 525.31, 376.58 527.58, 376.65 531.55 C 376.72 535.52, 376.73 537.32, 377.23 540.49 C 377.73 543.65, 378.08 545.08, 379.15 547.36 C 380.22 549.65, 380.95 550.67, 382.59 551.90 C 384.24 553.13, 385.35 553.53, 387.39 553.52 C 389.43 553.52, 390.73 553.30, 392.80 551.87 C 394.87 550.44, 395.77 549.28, 397.76 546.36 C 399.76 543.44, 400.46 541.47, 402.78 537.25 C 405.10 533.04, 406.39 530.53, 409.38 525.28 C 412.37 520.02, 414.10 517.00, 417.72 510.96 C 421.34 504.92, 423.40 501.53, 427.48 495.07 C 431.56 488.61, 433.79 485.13, 438.11 478.65 C 442.42 472.17, 444.80 468.78, 449.03 462.68 C 453.26 456.57, 455.40 453.52, 459.25 448.11 C 463.10 442.70, 464.99 440.07, 468.28 435.65 C 471.57 431.22, 473.13 429.23, 475.69 425.98 C 478.26 422.72, 479.70 421.55, 481.12 419.36 C 482.54 417.18, 482.44 416.28, 482.80 415.04 C 483.15 413.80, 483.05 413.68, 482.89 413.17 C 482.72 412.67, 482.50 412.51, 481.97 412.52 C 481.44 412.54, 481.27 412.49, 480.23 413.24 C 479.18 413.99, 478.34 414.22, 476.76 416.28 C 475.17 418.35, 474.55 420.08, 472.31 423.57 C 470.08 427.06, 468.66 429.16, 465.58 433.74 C 462.49 438.31, 460.64 440.98, 456.89 446.47 C 453.14 451.95, 451.03 455.02, 446.83 461.16 C 442.64 467.31, 440.25 470.70, 435.91 477.19 C 431.58 483.67, 429.32 487.16, 425.16 493.59 C 420.99 500.02, 418.88 503.38, 415.09 509.34 C 411.31 515.29, 409.49 518.29, 406.23 523.37 C 402.96 528.44, 401.48 530.90, 398.76 534.73 C 396.03 538.56, 394.62 540.05, 392.60 542.51 C 390.58 544.96, 389.81 545.69, 388.66 546.99 C 387.52 548.29, 387.44 548.70, 386.87 549.00 C 386.30 549.30, 386.28 549.22, 385.79 548.47 C 385.30 547.71, 385.02 547.01, 384.42 545.20 C 383.81 543.40, 383.40 542.22, 382.78 539.44 C 382.15 536.65, 381.67 535.01, 381.30 531.28 C 380.92 527.55, 380.83 525.33, 380.90 520.78 C 380.98 516.22, 381.17 513.68, 381.69 508.51 C 382.20 503.35, 382.61 500.48, 383.47 494.95 C 384.34 489.42, 384.91 486.44, 386.01 480.86 C 387.12 475.29, 387.79 472.42, 389.00 467.08 C 390.21 461.73, 390.86 459.00, 392.05 454.12 C 393.25 449.24, 393.85 446.83, 394.95 442.68 C 396.05 438.54, 396.87 436.55, 397.56 433.39 C 398.24 430.22, 398.41 428.92, 398.38 426.84 C 398.36 424.77, 398.16 423.89, 397.45 423.02 C 396.73 422.16, 395.79 421.97, 394.79 422.50" style="stroke: black; fill: black;"/><path d="M 488.18,484.76 C 486.99 485.14, 486.02 485.70, 484.55 487.87 C 483.08 490.05, 482.54 491.89, 480.84 495.65 C 479.15 499.42, 478.10 502.09, 476.07 506.70 C 474.05 511.32, 472.89 514.05, 470.71 518.75 C 468.53 523.44, 467.26 525.96, 465.18 530.18 C 463.10 534.40, 461.90 536.47, 460.31 539.84 C 458.73 543.21, 457.89 544.69, 457.27 547.04 C 456.64 549.40, 457.03 550.33, 457.17 551.62 C 457.31 552.91, 457.58 553.08, 457.98 553.48 C 458.39 553.89, 458.71 553.86, 459.20 553.63 C 459.68 553.41, 459.73 553.32, 460.39 552.37 C 461.06 551.41, 461.61 550.96, 462.51 548.85 C 463.42 546.74, 463.60 545.18, 464.91 541.82 C 466.22 538.45, 467.15 536.27, 469.07 532.02 C 471.00 527.77, 472.28 525.22, 474.54 520.57 C 476.80 515.91, 478.10 513.23, 480.38 508.74 C 482.66 504.26, 484.04 501.77, 485.96 498.16 C 487.88 494.55, 489.08 493.11, 489.99 490.68 C 490.90 488.25, 490.87 487.18, 490.51 486.00 C 490.15 484.82, 489.37 484.39, 488.18 484.76" style="stroke: black; fill: black;"/><path d="M 512.27,437.07 C 512.88 436.12, 513.30 435.27, 512.95 435.36 C 512.61 435.46, 511.21 436.82, 510.56 437.54 C 509.91 438.26, 509.53 438.98, 509.70 438.97 C 509.86 438.95, 511.28 437.57, 511.37 437.48 C 511.47 437.39, 510.77 437.78, 510.17 438.52 C 509.57 439.26, 508.41 440.86, 508.36 441.18 C 508.31 441.51, 509.14 440.96, 509.92 440.14 C 510.70 439.32, 511.67 438.03, 512.27 437.07" style="stroke: black; fill: black;"/><path d="M 562.24,424.99 C 561.19 425.32, 560.53 425.80, 559.36 427.64 C 558.18 429.48, 557.76 430.80, 556.38 434.21 C 555.00 437.62, 554.40 440.04, 552.45 444.68 C 550.49 449.32, 549.24 452.06, 546.61 457.39 C 543.97 462.73, 542.32 465.73, 539.27 471.34 C 536.23 476.96, 534.46 479.97, 531.38 485.48 C 528.31 490.98, 526.69 493.81, 523.90 498.88 C 521.11 503.94, 519.72 506.48, 517.44 510.79 C 515.15 515.09, 513.96 517.07, 512.48 520.40 C 510.99 523.74, 510.27 525.12, 510.00 527.47 C 509.73 529.81, 510.11 530.84, 511.13 532.12 C 512.15 533.41, 513.20 533.86, 515.10 533.90 C 517.00 533.94, 518.34 533.68, 520.64 532.32 C 522.94 530.95, 523.87 529.43, 526.60 527.08 C 529.33 524.73, 530.86 523.15, 534.27 520.57 C 537.69 517.99, 539.75 516.49, 543.68 514.18 C 547.61 511.87, 549.89 510.70, 553.91 509.02 C 557.92 507.34, 560.09 506.62, 563.75 505.77 C 567.41 504.92, 569.26 504.76, 572.20 504.78 C 575.13 504.80, 576.40 505.17, 578.43 505.89 C 580.46 506.60, 581.25 507.10, 582.36 508.36 C 583.47 509.61, 583.75 510.40, 583.98 512.16 C 584.22 513.92, 584.09 514.89, 583.54 517.16 C 582.99 519.43, 582.74 520.81, 581.21 523.51 C 579.69 526.20, 578.56 527.82, 575.90 530.65 C 573.25 533.48, 571.57 535.01, 567.95 537.64 C 564.32 540.28, 562.08 541.61, 557.77 543.82 C 553.46 546.02, 550.93 547.05, 546.39 548.67 C 541.85 550.29, 539.38 551.03, 535.05 551.93 C 530.72 552.82, 528.40 553.05, 524.73 553.16 C 521.07 553.27, 519.27 552.83, 516.72 552.47 C 514.17 552.11, 513.06 552.12, 511.99 551.38 C 510.92 550.64, 511.28 549.94, 511.38 548.77 C 511.47 547.60, 512.17 546.92, 512.47 545.53 C 512.77 544.13, 513.34 542.83, 512.87 541.78 C 512.40 540.74, 511.35 539.95, 510.13 540.29 C 508.91 540.63, 507.59 541.70, 506.75 543.50 C 505.92 545.29, 505.54 546.94, 505.96 549.28 C 506.38 551.61, 506.89 553.39, 508.86 555.16 C 510.83 556.93, 512.58 557.58, 515.82 558.14 C 519.06 558.70, 521.02 558.37, 525.05 557.97 C 529.09 557.57, 531.44 557.21, 535.98 556.13 C 540.53 555.05, 543.05 554.27, 547.79 552.56 C 552.52 550.85, 555.11 549.82, 559.66 547.59 C 564.21 545.35, 566.57 544.04, 570.55 541.38 C 574.52 538.73, 576.39 537.25, 579.54 534.31 C 582.69 531.37, 584.17 529.81, 586.29 526.70 C 588.42 523.58, 589.43 521.89, 590.16 518.73 C 590.90 515.58, 590.68 513.75, 589.96 510.92 C 589.24 508.08, 588.49 506.67, 586.57 504.57 C 584.65 502.46, 583.27 501.43, 580.38 500.40 C 577.49 499.36, 575.66 499.25, 572.10 499.39 C 568.53 499.53, 566.56 500.03, 562.57 501.11 C 558.58 502.20, 556.37 503.03, 552.14 504.83 C 547.90 506.63, 545.54 507.85, 541.38 510.13 C 537.21 512.41, 535.06 513.92, 531.31 516.24 C 527.56 518.56, 525.66 519.80, 522.62 521.75 C 519.58 523.71, 517.96 524.43, 516.13 526.02 C 514.30 527.62, 514.01 528.75, 513.48 529.74 C 512.94 530.73, 513.19 531.19, 513.45 530.96 C 513.72 530.74, 514.11 530.35, 514.81 528.61 C 515.51 526.87, 515.73 525.47, 516.95 522.25 C 518.17 519.03, 518.91 516.85, 520.90 512.49 C 522.89 508.14, 524.22 505.57, 526.88 500.48 C 529.55 495.39, 531.15 492.56, 534.21 487.05 C 537.27 481.55, 539.05 478.54, 542.19 472.96 C 545.34 467.37, 547.04 464.39, 549.94 459.13 C 552.83 453.88, 554.25 451.18, 556.66 446.69 C 559.06 442.20, 560.34 440.03, 561.96 436.68 C 563.57 433.33, 564.20 432.08, 564.73 429.94 C 565.26 427.81, 565.12 426.98, 564.62 425.99 C 564.13 425.00, 563.30 424.66, 562.24 424.99" style="stroke: black; fill: black;"/><path d="M 654.52,432.74 C 653.49 433.20, 652.88 433.81, 651.86 435.81 C 650.83 437.81, 650.55 439.18, 649.39 442.73 C 648.23 446.29, 647.76 448.78, 646.06 453.58 C 644.37 458.38, 643.30 461.24, 640.93 466.75 C 638.57 472.25, 637.05 475.32, 634.23 481.10 C 631.40 486.88, 629.76 489.97, 626.82 495.65 C 623.87 501.34, 622.28 504.27, 619.51 509.53 C 616.73 514.79, 615.31 517.47, 612.96 521.95 C 610.61 526.43, 609.35 528.53, 607.75 531.93 C 606.15 535.33, 605.32 536.77, 604.95 538.94 C 604.58 541.11, 604.97 542.01, 605.92 542.76 C 606.87 543.52, 608.01 543.70, 609.69 542.72 C 611.37 541.74, 612.25 540.55, 614.32 537.88 C 616.40 535.20, 617.23 532.94, 620.08 529.33 C 622.93 525.71, 624.81 523.52, 628.57 519.79 C 632.32 516.06, 634.61 514.01, 638.85 510.69 C 643.08 507.36, 645.49 505.67, 649.74 503.17 C 653.98 500.67, 656.33 499.57, 660.07 498.18 C 663.81 496.79, 665.72 496.54, 668.44 496.20 C 671.17 495.86, 672.18 495.90, 673.70 496.47 C 675.21 497.04, 675.52 497.48, 676.02 499.05 C 676.53 500.63, 676.44 501.65, 676.21 504.34 C 675.98 507.03, 675.79 508.94, 674.88 512.49 C 673.98 516.04, 673.15 518.29, 671.69 522.11 C 670.23 525.93, 669.20 528.05, 667.57 531.60 C 665.94 535.15, 664.74 536.88, 663.56 539.86 C 662.38 542.84, 662.07 544.35, 661.66 546.52 C 661.25 548.68, 661.28 549.38, 661.52 550.68 C 661.75 551.98, 662.29 552.48, 662.83 553.00 C 663.37 553.52, 663.86 553.42, 664.22 553.28 C 664.58 553.15, 664.50 552.57, 664.64 552.34 C 664.79 552.11, 664.72 552.38, 664.94 552.13 C 665.16 551.88, 665.31 551.91, 665.75 551.09 C 666.19 550.27, 666.44 549.83, 667.13 548.02 C 667.81 546.21, 668.12 544.88, 669.19 542.02 C 670.25 539.16, 670.96 537.32, 672.45 533.73 C 673.95 530.14, 675.04 528.00, 676.65 524.07 C 678.25 520.14, 679.28 517.94, 680.47 514.06 C 681.66 510.18, 682.52 508.11, 682.60 504.66 C 682.68 501.21, 682.28 499.35, 680.88 496.80 C 679.47 494.26, 678.20 493.11, 675.59 491.95 C 672.97 490.79, 671.23 490.59, 667.79 491.02 C 664.36 491.45, 662.43 492.34, 658.42 494.10 C 654.40 495.85, 652.09 497.08, 647.70 499.79 C 643.31 502.49, 640.88 504.24, 636.47 507.63 C 632.07 511.02, 629.74 513.08, 625.68 516.72 C 621.61 520.36, 619.51 522.44, 616.14 525.83 C 612.78 529.22, 610.94 530.91, 608.84 533.67 C 606.75 536.43, 606.09 537.87, 605.67 539.64 C 605.25 541.40, 605.98 542.30, 606.73 542.49 C 607.48 542.68, 608.37 542.33, 609.44 540.60 C 610.52 538.87, 610.71 537.23, 612.09 533.83 C 613.46 530.43, 614.25 528.15, 616.33 523.60 C 618.40 519.04, 619.79 516.34, 622.45 511.05 C 625.12 505.75, 626.70 502.81, 629.64 497.12 C 632.59 491.42, 634.24 488.33, 637.18 482.57 C 640.11 476.80, 641.68 473.74, 644.31 468.29 C 646.94 462.83, 648.19 460.00, 650.33 455.30 C 652.46 450.59, 653.57 448.30, 654.99 444.78 C 656.41 441.26, 657.02 439.94, 657.43 437.69 C 657.83 435.44, 657.61 434.52, 657.03 433.52 C 656.45 432.53, 655.56 432.28, 654.52 432.74" style="stroke: black; fill: black;"/><path d="M 749.98,503.81 C 749.96 502.71, 749.50 501.79, 748.19 500.69 C 746.89 499.58, 745.88 498.85, 743.48 498.28 C 741.07 497.70, 739.29 497.28, 736.16 497.81 C 733.04 498.34, 731.35 499.34, 727.84 500.94 C 724.33 502.54, 722.34 503.54, 718.60 505.80 C 714.86 508.06, 712.72 509.46, 709.15 512.25 C 705.58 515.04, 703.64 516.70, 700.75 519.75 C 697.86 522.80, 696.36 524.38, 694.68 527.50 C 693.00 530.61, 692.38 532.34, 692.34 535.32 C 692.31 538.30, 692.85 539.98, 694.49 542.41 C 696.12 544.85, 697.50 546.19, 700.50 547.50 C 703.51 548.80, 705.60 548.85, 709.49 548.93 C 713.39 549.01, 715.68 548.71, 719.98 547.90 C 724.28 547.09, 726.65 546.37, 730.99 544.87 C 735.34 543.37, 737.68 542.41, 741.70 540.38 C 745.72 538.35, 747.80 537.18, 751.09 534.70 C 754.37 532.22, 755.85 530.78, 758.13 527.98 C 760.41 525.19, 761.42 523.67, 762.49 520.72 C 763.56 517.77, 763.63 516.05, 763.47 513.23 C 763.32 510.42, 762.85 508.81, 761.70 506.64 C 760.55 504.46, 759.31 503.41, 757.72 502.36 C 756.13 501.31, 754.84 501.16, 753.75 501.38 C 752.67 501.60, 752.27 502.44, 752.28 503.45 C 752.29 504.45, 753.05 505.16, 753.80 506.39 C 754.55 507.61, 755.31 508.13, 756.04 509.58 C 756.77 511.03, 757.31 511.79, 757.45 513.62 C 757.60 515.45, 757.49 516.52, 756.77 518.73 C 756.04 520.94, 755.58 522.26, 753.84 524.68 C 752.10 527.10, 750.92 528.53, 748.07 530.84 C 745.22 533.14, 743.30 534.31, 739.58 536.21 C 735.87 538.11, 733.57 539.03, 729.48 540.34 C 725.39 541.65, 723.08 542.22, 719.14 542.76 C 715.20 543.29, 713.03 543.28, 709.79 543.01 C 706.54 542.73, 705.13 542.15, 702.93 541.39 C 700.74 540.62, 699.87 540.36, 698.82 539.19 C 697.77 538.02, 697.54 537.34, 697.69 535.53 C 697.84 533.72, 698.21 532.62, 699.56 530.15 C 700.91 527.68, 701.93 525.97, 704.45 523.17 C 706.97 520.37, 708.82 518.72, 712.16 516.15 C 715.51 513.59, 717.62 512.26, 721.20 510.36 C 724.77 508.47, 726.83 507.63, 730.03 506.66 C 733.23 505.68, 734.75 505.70, 737.18 505.49 C 739.62 505.29, 740.54 505.49, 742.21 505.62 C 743.88 505.75, 744.33 506.01, 745.55 506.13 C 746.76 506.25, 747.40 506.67, 748.29 506.20 C 749.17 505.74, 750.00 504.92, 749.98 503.81" style="stroke: black; fill: black;"/><path d="M 800.53,508.79 C 799.47 508.92, 798.95 509.45, 797.63 510.69 C 796.31 511.94, 795.42 512.75, 793.95 515.00 C 792.48 517.24, 791.87 519.08, 790.28 521.92 C 788.68 524.77, 787.67 526.47, 785.95 529.22 C 784.23 531.98, 782.97 533.35, 781.66 535.69 C 780.34 538.03, 779.73 539.25, 779.38 540.93 C 779.04 542.60, 779.24 543.40, 779.94 544.07 C 780.63 544.73, 781.54 544.90, 782.86 544.25 C 784.17 543.61, 785.15 542.88, 786.51 540.83 C 787.87 538.77, 788.05 536.94, 789.67 533.99 C 791.29 531.04, 792.23 529.15, 794.61 526.08 C 797.00 523.00, 798.55 521.37, 801.60 518.60 C 804.65 515.83, 806.45 514.46, 809.84 512.22 C 813.24 509.98, 815.12 508.95, 818.59 507.40 C 822.06 505.86, 823.90 505.30, 827.21 504.49 C 830.52 503.67, 832.19 503.50, 835.16 503.32 C 838.13 503.15, 839.46 503.40, 842.05 503.62 C 844.63 503.83, 845.79 504.22, 848.07 504.39 C 850.34 504.56, 852.17 504.99, 853.41 504.45 C 854.65 503.91, 855.05 502.87, 854.25 501.70 C 853.45 500.54, 851.74 499.54, 849.40 498.63 C 847.05 497.73, 845.49 497.39, 842.53 497.19 C 839.57 496.98, 837.93 497.17, 834.59 497.62 C 831.25 498.08, 829.45 498.39, 825.84 499.46 C 822.23 500.53, 820.28 501.21, 816.56 502.97 C 812.83 504.73, 810.87 505.85, 807.23 508.24 C 803.59 510.63, 801.71 512.06, 798.36 514.90 C 795.00 517.74, 793.35 519.42, 790.44 522.45 C 787.52 525.49, 786.06 527.20, 783.79 530.07 C 781.53 532.94, 780.16 534.38, 779.10 536.82 C 778.03 539.26, 778.16 540.67, 778.46 542.28 C 778.76 543.90, 779.50 544.56, 780.61 544.88 C 781.72 545.20, 782.59 544.98, 784.02 543.91 C 785.44 542.83, 786.20 541.71, 787.74 539.51 C 789.28 537.30, 789.96 535.61, 791.71 532.87 C 793.47 530.13, 794.63 528.54, 796.51 525.81 C 798.39 523.09, 799.80 521.67, 801.10 519.24 C 802.40 516.80, 802.66 515.48, 803.03 513.64 C 803.39 511.79, 803.44 510.98, 802.94 510.01 C 802.44 509.04, 801.59 508.65, 800.53 508.79" style="stroke: black; fill: black;"/></svg>