<svg xmlns="http://www.w3.org/2000/svg" id="canvas" viewBox="561.595 428.817 841.303 232.675"><path d="M 599.98,432.96 C 597.99 433.67, 597.29 435.09, 595.85 438.53 C 594.42 441.98, 594.25 444.44, 592.80 450.16 C 591.36 455.88, 590.53 459.78, 588.63 467.14 C 586.74 474.51, 585.60 478.77, 583.34 487.00 C 581.07 495.22, 579.68 499.78, 577.33 508.26 C 574.98 516.75, 573.61 521.26, 571.58 529.43 C 569.56 537.59, 568.52 541.75, 567.18 549.09 C 565.84 556.42, 565.32 559.90, 564.89 566.09 C 564.47 572.29, 564.47 575.11, 565.08 580.07 C 565.68 585.02, 565.81 587.37, 567.92 590.88 C 570.02 594.40, 571.95 596.23, 575.60 597.66 C 579.24 599.09, 582.13 599.28, 586.14 598.03 C 590.15 596.78, 591.80 594.85, 595.65 591.40 C 599.49 587.94, 601.25 585.65, 605.37 580.75 C 609.50 575.86, 611.79 572.81, 616.26 566.91 C 620.73 561.01, 623.21 557.47, 627.74 551.26 C 632.26 545.05, 634.68 541.58, 638.90 535.85 C 643.11 530.11, 645.25 527.06, 648.82 522.58 C 652.38 518.11, 654.76 516.41, 656.72 513.48 C 658.69 510.55, 659.19 509.08, 658.65 507.93 C 658.11 506.78, 655.30 506.09, 654.02 507.72 C 652.74 509.35, 653.04 511.55, 652.25 516.09 C 651.45 520.64, 651.03 524.19, 650.05 530.45 C 649.07 536.72, 648.33 540.75, 647.36 547.42 C 646.38 554.10, 645.67 557.72, 645.17 563.83 C 644.67 569.94, 644.42 572.79, 644.85 577.98 C 645.27 583.16, 645.46 585.64, 647.30 589.78 C 649.13 593.92, 650.53 596.25, 654.03 598.68 C 657.53 601.12, 660.26 601.88, 664.80 601.96 C 669.34 602.04, 671.83 601.20, 676.72 599.08 C 681.60 596.95, 684.04 595.32, 689.22 591.34 C 694.40 587.36, 697.10 584.84, 702.60 579.18 C 708.11 573.52, 711.07 570.14, 716.73 563.04 C 722.39 555.94, 725.37 551.78, 730.90 543.68 C 736.43 535.58, 739.25 530.99, 744.37 522.53 C 749.50 514.08, 752.07 509.52, 756.53 501.40 C 761.00 493.27, 763.10 489.11, 766.69 481.91 C 770.29 474.71, 771.83 471.21, 774.50 465.39 C 777.16 459.57, 778.23 456.98, 780.02 452.81 C 781.81 448.65, 783.10 447.21, 783.45 444.56 C 783.79 441.90, 782.53 440.85, 781.74 439.54 C 780.96 438.23, 780.37 438.24, 779.53 438.00 C 778.69 437.77, 778.30 438.12, 777.55 438.35 C 776.79 438.58, 776.66 438.37, 775.74 439.15 C 774.83 439.94, 773.68 440.05, 772.96 442.28 C 772.24 444.51, 773.02 446.16, 772.16 450.31 C 771.30 454.46, 770.69 457.16, 768.64 463.03 C 766.59 468.89, 765.18 472.41, 761.91 479.63 C 758.64 486.85, 756.61 491.01, 752.30 499.11 C 747.99 507.20, 745.45 511.74, 740.37 520.10 C 735.29 528.46, 732.46 533.00, 726.90 540.90 C 721.34 548.81, 718.31 552.87, 712.57 559.62 C 706.83 566.38, 703.77 569.58, 698.22 574.67 C 692.67 579.75, 689.78 581.92, 684.82 585.06 C 679.85 588.20, 677.33 589.10, 673.38 590.36 C 669.43 591.62, 667.75 591.46, 665.07 591.36 C 662.39 591.25, 661.80 590.98, 659.96 589.84 C 658.13 588.69, 657.29 588.20, 655.91 585.65 C 654.53 583.09, 653.71 581.30, 653.08 577.05 C 652.44 572.80, 652.35 570.06, 652.72 564.39 C 653.10 558.72, 653.69 555.13, 654.94 548.71 C 656.18 542.28, 657.35 538.41, 658.93 532.28 C 660.50 526.16, 661.83 523.00, 662.82 518.08 C 663.80 513.16, 665.16 510.68, 663.86 507.68 C 662.56 504.68, 659.25 503.08, 656.32 503.07 C 653.40 503.06, 651.93 504.58, 649.23 507.63 C 646.53 510.68, 645.94 513.41, 642.82 518.31 C 639.71 523.20, 637.69 526.27, 633.65 532.11 C 629.62 537.94, 627.20 541.40, 622.64 547.50 C 618.08 553.60, 615.52 557.07, 610.87 562.62 C 606.23 568.16, 603.70 571.03, 599.40 575.22 C 595.11 579.41, 592.80 581.24, 589.40 583.58 C 586.00 585.92, 584.43 586.14, 582.40 586.92 C 580.37 587.70, 580.42 587.78, 579.26 587.49 C 578.10 587.19, 577.84 587.21, 576.62 585.43 C 575.40 583.65, 574.18 582.41, 573.18 578.58 C 572.17 574.76, 571.65 572.01, 571.60 566.30 C 571.54 560.59, 571.86 557.15, 572.90 550.03 C 573.94 542.91, 574.89 538.76, 576.81 530.70 C 578.72 522.63, 580.05 518.13, 582.47 509.71 C 584.89 501.30, 586.34 496.76, 588.90 488.64 C 591.46 480.52, 592.84 476.30, 595.27 469.12 C 597.70 461.94, 598.98 458.20, 601.04 452.74 C 603.09 447.28, 604.60 445.38, 605.55 441.83 C 606.49 438.28, 606.87 436.74, 605.76 434.97 C 604.64 433.19, 601.96 432.24, 599.98 432.96" style="stroke: black; fill: black;"/><path d="M 802.18,550.75 C 803.53 552.38, 804.70 553.15, 807.20 553.16 C 809.71 553.17, 811.13 552.32, 814.72 550.81 C 818.30 549.31, 820.64 547.92, 825.12 545.62 C 829.61 543.32, 832.29 541.89, 837.14 539.31 C 841.99 536.72, 844.72 535.33, 849.39 532.67 C 854.06 530.01, 856.49 528.64, 860.48 526.00 C 864.48 523.36, 866.69 522.44, 869.38 519.46 C 872.07 516.48, 873.40 514.68, 873.92 511.10 C 874.44 507.51, 874.08 504.63, 871.97 501.54 C 869.87 498.44, 867.64 496.63, 863.39 495.62 C 859.14 494.61, 856.34 495.30, 850.74 496.49 C 845.13 497.68, 841.94 498.75, 835.36 501.57 C 828.78 504.40, 824.92 506.40, 817.84 510.62 C 810.77 514.85, 806.71 517.56, 799.99 522.71 C 793.28 527.85, 789.72 530.86, 784.27 536.33 C 778.82 541.80, 776.24 544.70, 772.74 550.05 C 769.24 555.41, 767.74 558.01, 766.79 563.12 C 765.83 568.23, 765.95 571.23, 767.97 575.60 C 769.99 579.97, 772.28 582.15, 776.87 584.97 C 781.46 587.79, 784.59 588.52, 790.93 589.69 C 797.28 590.86, 801.04 591.00, 808.58 590.82 C 816.13 590.64, 820.42 590.09, 828.66 588.78 C 836.89 587.47, 841.44 586.44, 849.77 584.26 C 858.11 582.09, 863.04 580.46, 870.33 577.91 C 877.61 575.36, 881.13 573.87, 886.20 571.51 C 891.27 569.15, 894.25 568.10, 895.68 566.11 C 897.12 564.11, 895.77 561.59, 893.37 561.54 C 890.97 561.49, 888.70 563.72, 883.68 565.85 C 878.66 567.99, 875.36 569.63, 868.29 572.22 C 861.22 574.81, 856.43 576.64, 848.33 578.79 C 840.24 580.94, 835.75 581.90, 827.80 582.98 C 819.85 584.05, 815.63 584.35, 808.57 584.19 C 801.52 584.02, 797.96 583.46, 792.51 582.17 C 787.05 580.87, 784.68 579.77, 781.30 577.71 C 777.91 575.66, 776.98 574.56, 775.58 571.90 C 774.18 569.24, 773.75 568.08, 774.31 564.42 C 774.87 560.75, 775.53 558.36, 778.38 553.58 C 781.22 548.80, 783.52 545.75, 788.55 540.51 C 793.58 535.26, 797.04 532.24, 803.52 527.35 C 810.01 522.46, 814.06 519.83, 820.96 516.07 C 827.85 512.31, 831.79 510.56, 838.00 508.54 C 844.22 506.52, 847.49 506.17, 852.04 505.97 C 856.59 505.78, 858.39 507.10, 860.75 507.55 C 863.11 508.00, 863.24 508.03, 863.83 508.22 C 864.43 508.41, 864.29 507.80, 863.72 508.52 C 863.15 509.24, 862.78 509.89, 860.99 511.82 C 859.20 513.75, 858.00 515.56, 854.78 518.17 C 851.56 520.78, 849.24 522.33, 844.89 524.88 C 840.54 527.43, 837.82 528.78, 833.03 530.91 C 828.25 533.04, 825.50 534.10, 820.96 535.52 C 816.41 536.95, 813.85 537.08, 810.31 538.04 C 806.76 538.99, 805.19 538.89, 803.22 540.29 C 801.26 541.68, 800.68 542.92, 800.47 545.01 C 800.26 547.10, 800.84 549.12, 802.18 550.75" style="stroke: black; fill: black;"/><path d="M 939.88,511.26 C 937.75 511.52, 936.61 512.11, 935.06 514.36 C 933.50 516.60, 933.75 518.58, 932.09 522.50 C 930.43 526.42, 929.14 529.31, 926.74 533.95 C 924.35 538.59, 922.82 541.37, 920.12 545.71 C 917.42 550.05, 915.50 552.19, 913.26 555.65 C 911.01 559.10, 909.10 560.34, 908.88 562.99 C 908.67 565.64, 910.09 567.46, 912.19 568.88 C 914.29 570.30, 916.89 571.38, 919.38 570.09 C 921.87 568.81, 921.89 566.34, 924.65 562.47 C 927.40 558.60, 928.95 555.68, 933.15 550.76 C 937.34 545.84, 940.14 542.84, 945.62 537.86 C 951.10 532.88, 954.53 530.13, 960.55 525.86 C 966.58 521.59, 970.04 519.43, 975.75 516.50 C 981.46 513.58, 984.55 512.46, 989.10 511.23 C 993.65 510.01, 995.88 510.19, 998.50 510.38 C 1001.11 510.58, 1001.22 511.10, 1002.17 512.20 C 1003.13 513.31, 1003.12 513.48, 1003.28 515.90 C 1003.43 518.31, 1003.64 520.24, 1002.96 524.27 C 1002.29 528.30, 1001.55 531.10, 999.90 536.03 C 998.24 540.96, 996.90 543.94, 994.69 548.92 C 992.48 553.90, 990.98 556.60, 988.85 560.94 C 986.71 565.27, 985.14 567.31, 984.02 570.60 C 982.91 573.90, 983.00 575.29, 983.26 577.42 C 983.52 579.55, 984.21 580.39, 985.31 581.25 C 986.42 582.11, 987.53 582.04, 988.79 581.71 C 990.06 581.39, 990.42 581.08, 991.63 579.65 C 992.83 578.22, 993.63 577.56, 994.83 574.57 C 996.02 571.57, 995.99 569.08, 997.59 564.67 C 999.19 560.26, 1000.61 557.59, 1002.83 552.51 C 1005.05 547.42, 1006.63 544.49, 1008.69 539.25 C 1010.76 534.01, 1012.05 531.28, 1013.17 526.31 C 1014.29 521.33, 1015.06 518.73, 1014.28 514.38 C 1013.50 510.02, 1012.36 507.17, 1009.29 504.53 C 1006.21 501.90, 1003.40 501.31, 998.90 501.19 C 994.40 501.08, 992.05 502.06, 986.79 503.95 C 981.53 505.84, 978.59 507.31, 972.61 510.65 C 966.63 514.00, 963.18 516.26, 956.90 520.68 C 950.61 525.09, 947.14 527.86, 941.19 532.71 C 935.25 537.55, 932.17 540.41, 927.16 544.90 C 922.14 549.40, 919.61 551.75, 916.12 555.18 C 912.63 558.62, 910.40 559.54, 909.72 562.09 C 909.03 564.64, 910.94 566.71, 912.69 567.95 C 914.44 569.18, 916.51 569.60, 918.48 568.27 C 920.46 566.94, 920.58 564.82, 922.56 561.31 C 924.55 557.80, 925.79 555.19, 928.42 550.74 C 931.05 546.29, 932.85 543.61, 935.70 539.05 C 938.55 534.50, 940.28 531.86, 942.66 527.96 C 945.03 524.06, 946.98 522.53, 947.59 519.55 C 948.19 516.57, 947.24 514.70, 945.70 513.04 C 944.16 511.39, 942.01 511.00, 939.88 511.26" style="stroke: black; fill: black;"/><path d="M 1096.27,510.28 C 1094.20 510.64, 1092.77 511.19, 1091.48 513.74 C 1090.20 516.28, 1090.85 518.36, 1089.85 523.01 C 1088.85 527.66, 1088.19 530.86, 1086.49 536.97 C 1084.79 543.08, 1083.64 546.69, 1081.34 553.57 C 1079.03 560.44, 1077.62 564.30, 1074.97 571.36 C 1072.32 578.42, 1070.85 582.09, 1068.09 588.86 C 1065.34 595.63, 1063.90 599.03, 1061.20 605.22 C 1058.49 611.41, 1057.16 614.49, 1054.56 619.80 C 1051.96 625.10, 1050.68 627.58, 1048.19 631.74 C 1045.71 635.90, 1044.46 637.78, 1042.13 640.62 C 1039.80 643.46, 1038.19 644.04, 1036.55 645.93 C 1034.92 647.82, 1034.68 648.52, 1033.94 650.08 C 1033.20 651.64, 1032.65 652.22, 1032.87 653.75 C 1033.08 655.27, 1033.59 656.83, 1035.02 657.70 C 1036.44 658.56, 1037.75 658.77, 1039.99 658.08 C 1042.23 657.39, 1044.13 656.69, 1046.22 654.24 C 1048.31 651.80, 1048.61 649.61, 1050.44 645.86 C 1052.27 642.11, 1053.27 640.11, 1055.37 635.48 C 1057.47 630.85, 1058.60 628.25, 1060.94 622.70 C 1063.28 617.14, 1064.50 614.00, 1067.06 607.69 C 1069.62 601.38, 1071.00 597.97, 1073.74 591.15 C 1076.49 584.33, 1077.96 580.64, 1080.77 573.60 C 1083.58 566.56, 1085.06 562.72, 1087.78 555.94 C 1090.51 549.16, 1091.95 545.63, 1094.40 539.70 C 1096.85 533.77, 1098.13 530.72, 1100.05 526.28 C 1101.96 521.85, 1103.61 520.41, 1103.98 517.54 C 1104.34 514.67, 1103.40 513.38, 1101.86 511.93 C 1100.32 510.48, 1098.35 509.92, 1096.27 510.28" style="stroke: black; fill: black;"/><path d="M 1115.99,443.28 C 1117.27 445.24, 1118.34 446.30, 1118.90 446.02 C 1119.47 445.75, 1119.34 444.16, 1118.82 441.91 C 1118.29 439.66, 1117.47 436.80, 1116.28 434.79 C 1115.09 432.78, 1113.63 431.57, 1112.87 431.86 C 1112.11 432.15, 1111.87 433.95, 1112.49 436.24 C 1113.12 438.52, 1114.71 441.33, 1115.99 443.28" style="stroke: black; fill: black;"/><path d="M 1160.21,514.39 C 1157.93 515.47, 1156.99 518.45, 1155.04 522.63 C 1153.08 526.81, 1152.25 530.05, 1150.44 535.29 C 1148.63 540.52, 1147.38 543.67, 1145.99 548.81 C 1144.61 553.96, 1144.02 556.47, 1143.50 561.00 C 1142.97 565.53, 1142.45 567.65, 1143.38 571.47 C 1144.32 575.29, 1145.39 577.42, 1148.16 580.10 C 1150.94 582.77, 1153.21 584.29, 1157.27 584.84 C 1161.32 585.40, 1163.74 584.48, 1168.43 582.86 C 1173.12 581.23, 1175.50 579.87, 1180.73 576.73 C 1185.95 573.60, 1188.73 571.57, 1194.57 567.19 C 1200.40 562.81, 1203.66 560.15, 1209.90 554.84 C 1216.14 549.52, 1219.60 546.42, 1225.77 540.63 C 1231.94 534.84, 1235.20 531.50, 1240.75 525.89 C 1246.30 520.29, 1249.04 517.19, 1253.50 512.59 C 1257.96 507.99, 1260.57 506.18, 1263.05 502.88 C 1265.52 499.58, 1266.42 498.14, 1265.88 496.07 C 1265.35 494.00, 1262.79 492.32, 1260.39 492.54 C 1258.00 492.77, 1256.27 493.94, 1253.90 497.19 C 1251.53 500.43, 1250.84 503.58, 1248.55 508.76 C 1246.26 513.95, 1244.94 517.35, 1242.46 523.12 C 1239.99 528.90, 1238.41 532.09, 1236.18 537.63 C 1233.95 543.16, 1232.78 545.87, 1231.31 550.78 C 1229.83 555.69, 1229.08 557.87, 1228.81 562.16 C 1228.54 566.45, 1228.43 568.90, 1229.96 572.25 C 1231.48 575.61, 1233.68 577.64, 1236.42 578.95 C 1239.15 580.26, 1241.78 580.06, 1243.62 578.78 C 1245.47 577.51, 1245.83 574.51, 1245.64 572.57 C 1245.46 570.64, 1243.71 570.19, 1242.71 569.11 C 1241.70 568.02, 1241.35 568.52, 1240.62 567.15 C 1239.88 565.79, 1239.20 565.13, 1239.02 562.29 C 1238.85 559.46, 1238.80 557.31, 1239.73 552.97 C 1240.66 548.64, 1241.60 545.86, 1243.68 540.63 C 1245.76 535.39, 1247.27 532.16, 1250.13 526.80 C 1252.99 521.44, 1255.03 518.44, 1258.00 513.84 C 1260.97 509.25, 1263.32 507.29, 1264.97 503.83 C 1266.62 500.37, 1267.01 498.73, 1266.26 496.53 C 1265.51 494.33, 1263.30 492.67, 1261.22 492.81 C 1259.15 492.96, 1258.47 494.17, 1255.91 497.23 C 1253.34 500.30, 1252.29 503.23, 1248.42 508.15 C 1244.55 513.07, 1241.85 516.18, 1236.54 521.84 C 1231.24 527.51, 1227.99 530.82, 1221.90 536.49 C 1215.81 542.16, 1212.33 545.19, 1206.07 550.20 C 1199.81 555.21, 1196.46 557.72, 1190.60 561.52 C 1184.75 565.33, 1181.78 566.99, 1176.79 569.21 C 1171.79 571.43, 1169.24 571.96, 1165.63 572.61 C 1162.01 573.27, 1160.65 572.61, 1158.72 572.46 C 1156.79 572.31, 1156.80 572.60, 1155.96 571.86 C 1155.13 571.11, 1155.03 570.75, 1154.54 568.75 C 1154.05 566.74, 1153.38 565.33, 1153.52 561.83 C 1153.66 558.32, 1154.08 555.92, 1155.25 551.22 C 1156.42 546.53, 1157.65 543.37, 1159.37 538.35 C 1161.08 533.34, 1162.40 530.37, 1163.82 526.15 C 1165.23 521.92, 1167.16 519.57, 1166.44 517.22 C 1165.72 514.87, 1162.49 513.31, 1160.21 514.39" style="stroke: black; fill: black;"/><path d="M 1329.75,496.84 C 1327.66 497.05, 1326.66 497.62, 1325.01 499.91 C 1323.36 502.21, 1323.46 504.22, 1321.52 508.32 C 1319.57 512.42, 1318.15 515.37, 1315.30 520.42 C 1312.45 525.48, 1310.63 528.49, 1307.25 533.60 C 1303.87 538.71, 1301.79 541.51, 1298.41 545.97 C 1295.03 550.43, 1292.78 552.52, 1290.34 555.91 C 1287.90 559.30, 1286.27 560.54, 1286.20 562.94 C 1286.13 565.34, 1287.88 567.14, 1289.99 567.92 C 1292.10 568.69, 1294.39 568.99, 1296.75 566.81 C 1299.12 564.63, 1299.07 561.65, 1301.82 557.01 C 1304.56 552.37, 1306.22 549.14, 1310.49 543.62 C 1314.76 538.10, 1317.62 534.87, 1323.17 529.40 C 1328.72 523.93, 1332.13 521.03, 1338.24 516.27 C 1344.35 511.52, 1347.73 509.10, 1353.69 505.62 C 1359.66 502.14, 1362.93 500.70, 1368.07 498.88 C 1373.22 497.07, 1375.88 496.74, 1379.42 496.54 C 1382.96 496.34, 1383.96 496.95, 1385.77 497.88 C 1387.57 498.80, 1387.62 499.07, 1388.45 501.16 C 1389.27 503.25, 1389.83 504.54, 1389.88 508.32 C 1389.92 512.10, 1389.75 514.86, 1388.66 520.06 C 1387.58 525.27, 1386.48 528.57, 1384.44 534.35 C 1382.40 540.12, 1380.85 543.35, 1378.45 548.96 C 1376.04 554.56, 1374.55 557.46, 1372.41 562.36 C 1370.27 567.25, 1369.06 569.54, 1367.74 573.43 C 1366.43 577.32, 1365.72 579.12, 1365.83 581.80 C 1365.95 584.49, 1366.98 585.79, 1368.33 586.86 C 1369.67 587.93, 1371.10 587.82, 1372.56 587.14 C 1374.02 586.46, 1374.68 585.66, 1375.63 583.48 C 1376.58 581.30, 1376.41 579.87, 1377.31 576.25 C 1378.21 572.62, 1378.49 570.22, 1380.14 565.36 C 1381.79 560.51, 1383.21 557.61, 1385.56 551.96 C 1387.91 546.31, 1389.55 543.08, 1391.88 537.12 C 1394.22 531.16, 1395.65 527.91, 1397.24 522.17 C 1398.84 516.43, 1399.71 513.53, 1399.85 508.43 C 1399.99 503.33, 1399.95 500.58, 1397.96 496.69 C 1395.96 492.79, 1393.77 490.65, 1389.89 488.95 C 1386.00 487.25, 1383.43 487.51, 1378.55 488.19 C 1373.67 488.87, 1371.11 489.92, 1365.50 492.35 C 1359.89 494.77, 1356.68 496.48, 1350.50 500.32 C 1344.32 504.17, 1340.93 506.68, 1334.60 511.58 C 1328.26 516.48, 1324.80 519.40, 1318.83 524.82 C 1312.87 530.23, 1309.80 533.43, 1304.77 538.67 C 1299.73 543.91, 1297.38 546.82, 1293.64 551.01 C 1289.91 555.21, 1287.28 556.54, 1286.10 559.64 C 1284.91 562.74, 1286.16 564.83, 1287.71 566.51 C 1289.25 568.20, 1291.65 569.04, 1293.84 568.06 C 1296.03 567.09, 1296.41 565.10, 1298.68 561.64 C 1300.95 558.18, 1302.14 555.44, 1305.20 550.75 C 1308.26 546.05, 1310.40 543.26, 1313.97 538.18 C 1317.54 533.09, 1319.62 530.18, 1323.05 525.32 C 1326.47 520.46, 1328.35 517.83, 1331.08 513.86 C 1333.81 509.89, 1335.83 508.46, 1336.70 505.47 C 1337.57 502.47, 1336.82 500.60, 1335.43 498.87 C 1334.04 497.15, 1331.83 496.63, 1329.75 496.84" style="stroke: black; fill: black;"/></svg>